/* XPM */
static char *result[] = {
/* columns rows colors chars-per-pixel */
"66 72 211 2 ",
"   c #010101",
".  c #050904",
"X  c #0D0A03",
"o  c #0D0B09",
"O  c #150007",
"+  c #1A0409",
"@  c #16180C",
"#  c #0F1118",
"$  c #20040E",
"%  c #340E0F",
"&  c #14200C",
"*  c #003401",
"=  c #1B2413",
"-  c #1A2A11",
";  c #1D2719",
":  c #1E321C",
">  c #0D3209",
",  c #2B2908",
"<  c #373B0D",
"1  c #3A3128",
"2  c #4A0E0E",
"3  c #460517",
"4  c #591111",
"5  c #651312",
"6  c #56260B",
"7  c #522F18",
"8  c #47330E",
"9  c #6B3818",
"0  c #48372D",
"q  c #6A2D29",
"w  c #135A10",
"e  c #094B06",
"r  c #06710D",
"t  c #2B7C1B",
"y  c #306E15",
"u  c #325D21",
"i  c #2A422A",
"p  c #126122",
"a  c #367E22",
"s  c #524102",
"d  c #5B421D",
"f  c #604614",
"g  c #524920",
"h  c #4C4D30",
"j  c #6A4C24",
"k  c #774725",
"l  c #785836",
"z  c #6F4734",
"x  c #6B6828",
"c  c #726322",
"v  c #372A77",
"b  c #556748",
"n  c #707C5F",
"m  c #776145",
"M  c #80391A",
"N  c #931228",
"B  c #A51B26",
"V  c #D12629",
"C  c #F72F2E",
"Z  c #F52D37",
"A  c #815A1A",
"S  c #93582E",
"D  c #895936",
"F  c #835131",
"G  c #8C642D",
"H  c #916825",
"J  c #966F30",
"K  c #AF7F3E",
"L  c #997311",
"P  c #8B5C48",
"I  c #956B4B",
"U  c #9E7255",
"Y  c #8D7055",
"T  c #A87B45",
"R  c #B57B4A",
"E  c #A3724E",
"W  c #977962",
"Q  c #8E7064",
"!  c #A67665",
"~  c #089A04",
"^  c #2E8A1E",
"/  c #2EB31C",
"(  c #1C9423",
")  c #3B8526",
"_  c #229C20",
"`  c #3E9327",
"'  c #2CAC20",
"]  c #3CA229",
"[  c #3FA027",
"{  c #42A40F",
"}  c #449929",
"|  c #558927",
" . c #6D9A32",
".. c #46A52B",
"X. c #54A624",
"o. c #4FBE20",
"O. c #66B430",
"+. c #04D906",
"@. c #16CB18",
"#. c #29C919",
"$. c #3AC310",
"%. c #29D61A",
"&. c #02FD05",
"*. c #0CFD06",
"=. c #06F709",
"-. c #04F909",
";. c #0BFC0B",
":. c #14FD09",
">. c #15EA0C",
",. c #2CE11F",
"<. c #24F81B",
"1. c #31C127",
"2. c #36D823",
"3. c #50FF0C",
"4. c #7AF805",
"5. c #73FF05",
"6. c #73EB0B",
"7. c #57AD5E",
"8. c #768C41",
"9. c #9B831A",
"0. c #B69713",
"q. c #ADA616",
"w. c #AA823D",
"e. c #B48835",
"r. c #B48E2A",
"t. c #B8AA2D",
"y. c #CDB60E",
"u. c #C38737",
"i. c #CAAA37",
"p. c #CDB02E",
"a. c #E5B539",
"s. c #B8CE13",
"d. c #80FD03",
"f. c #CDCC09",
"g. c #F4DD0E",
"h. c #E3D517",
"j. c #F4D314",
"k. c #E8D610",
"l. c #D4E909",
"z. c #E9E604",
"x. c #F2EC09",
"c. c #FDF602",
"v. c #FCFC00",
"b. c #F7F506",
"n. c #F4E718",
"m. c #EEE213",
"M. c #EDD42C",
"N. c #FDE924",
"B. c #8F834E",
"V. c #A9845E",
"C. c #B48C5E",
"Z. c #B3804B",
"A. c #9A8C73",
"S. c #AC8464",
"D. c #B88766",
"F. c #AF9C6F",
"G. c #BA9662",
"H. c #A18D7E",
"J. c #B19879",
"K. c #9FA664",
"L. c #8FBC6E",
"P. c #85B474",
"I. c #82AB75",
"U. c #A5AD6C",
"Y. c #C79351",
"T. c #D2A747",
"R. c #E7BA4B",
"E. c #C39D75",
"W. c #CFA772",
"Q. c #F4C64F",
"!. c #4A5CBD",
"~. c #1B30C9",
"^. c #4974FF",
"/. c #5371FC",
"(. c #4965F7",
"). c #5C73CF",
"_. c #9FA284",
"`. c #AEB991",
"'. c #9EAABD",
"]. c #C29E83",
"[. c #CEAC87",
"{. c #DBB985",
"}. c #D7BB93",
"|. c #E8BD9C",
" X c #C1CB9D",
".X c #E1C49C",
"XX c #EAC48E",
"oX c #D8C1A1",
"OX c #E7C8A3",
"+X c #EBD3AC",
"@X c #EED5B2",
"#X c #F8DCB4",
"$X c #F4DAAF",
"%X c #D5FFB9",
"&X c #C4F2AB",
"*X c #FCE1B5",
"=X c #FAE4BB",
"-X c #E5FBBC",
";X c #B1AED9",
":X c #A2AFC5",
">X c #E7DCDB",
",X c #FDEDC4",
"<X c #FEF4CC",
"1X c #FFF1C7",
"2X c #FFFDDC",
"3X c #FFFAD3",
"4X c #C7CCF6",
"5X c #DDE0E9",
"6X c #FAFFF8",
"7X c #E0E3EC",
"8X c #489848",
/* pixels */
"8X8X8X8X8X8X8X8X8X8X8X8X8X8X8X8X8X8X8X8X8X8X8X8X8X8X8X8X8X8X8X8X8X8X8X8X8X8X8X8X8X8X8X8X8X8X8X8X8X8X8X8X8X8X8X8X8X8X8X8X8X8X8X8X8X8X",
"8X8X8X8X8X8X8X8X8X8X8X8X8X8X8X8X8X8X8X8X8X8X8X8X8X8X8X8X8X8X8X8X8X8X8X8X8X8X8X8X8X8X8X8X8X8X8X8X8X8X8X8X8X8X8X8X8X8X8X8X8X8X8X8X8X8X",
"8X8X8X8X8X8X8X8X8X8X8X8X8X8X8X8X8X8X8X8X8X8X8X8X8X8X8X8X8X8X8X8X8X8X8X8X8X8X8X8X8X8X8X8X8X8X8X8X8X8X8X8X8X8X8X8X8X8X8X8X8X8X8X8X8X8X",
"8X8X8X8X8X8X8X8X8X8X8X8X8X8X8X8X8X8X8X8X8X8X8X8X8X8X8X8X8X8X8X8X8X8X8X8X8X8X8X8X8X8X8X8X8X8X8X8X8X8X8X8X8X8X8X8X8X8X8X8X8X8X8X8X8X8X",
"8X8X8X8X8X8X8X8X8X8X8X8X8X8X8X8X8X8X8X8X8X8X8X8X8X8X8X8X8X8X8X8X8X8X8X8X8X8X8X8X8X8X8X8X8X8X8X8X8X8X8X8X8X8X8X8X8X8X8X8X8X8X8X8X8X8X",
"8X8X8X8X8X8X8X8X8X8X8X8X8X8X8X8X8X8X8X8X8X8X8X8X8X8X8X8X8X8X8X8X8X8X8X8X8X8X8X8X8X8X8X8X8X8X8X8X8X8X8X8X8X8X8X8X8X8X8X8X8X8X8X8X8X8X",
"8X8X8X8X8X8X8X8X8X8X8X8X8X8X8X8X8X8X8X8X8X8X8X8X8X8X8X8X8X8X8X8X8X8X8X8X8X8X8X8X8X8X8X8X8X8X8X8X8X8X8X8X8X8X8X8X8X8X8X8X8X8X8X8X8X8X",
"8X8X8X8X8X8X8X8X8X8X8X8X8X8X8X8X8X8X8X8X8X8X8X8X8X8X8X8X8X8X8X8X8X8X8X8X8X8X8X8X8X8X8X8X8X8X8X8X8X8X8X8X8X8X8X8X8X8X8X8X8X8X8X8X8X8X",
"8X8X8X8X8X8X8X8X8X8X8X8X8X8X8X8X8X8X8X8X8X8X8X8X8X8X8X8X8X8X8X8X8X8X8X8X8X8X8X8X8X8X8X8X8X8X8X8X8X8X8X8X8X8X8X8X8X8X8X8X8X8X8X8X8X8X",
"8X8X8X8X8X8X8X8X8X8X8X8X8X8X8X8X8X8X8X8X8X8X8X8X8X8X8X8X8X8X8X8X8X8X8X8X8X8X8X8X8X8X8X8X8X8X8X8X8X8X8X8X8X8X8X8X8X8X8X8X8X8X8X8X8X8X",
"8X8X8X8X8X8X8X8X8X8X8X8X8X8X8X8X8X8X8X8X8X8X8X8X8X8X8X8X8X8X8X8X8X8X8X8X8X8X8X8X8X8X8X8X8X8X8X8X8X8X8X8X8X8X8X8X8X8X8X8X8X8X8X8X8X8X",
"8X8X8X8X8X8X8X8X8X8X8X8X8X8X8X8X8X8X8X8X8X8X8X8X8X8X8X8X8X8X8X8X8X8X8X8X8X8X8X8X8X8X8X8X8X8X8X8X8X8X8X8X8X8X8X8X8X8X8X8X8X8X8X8X8X8X",
"8X8X8X8X8X8X8X8X8X8X8X8X8X8X8X8X8X8X8X8X8X8X8X8X8X8X8X8X8X8X8X8X8X8X8X8X8X8X8X8X8X8X8X8X8X8X8X8X8X8X8X8X8X8X8X8X8X8X8X8X8X8X8X8X8X8X",
"8X8X8X8X8X8X8X8X8X8X8X8X8X8X8X8X8X8X8X8X8X8X8X8X8X8X8X8X8X8X8X8X8X8X8X8X8X8X8X8X8X8X8X8X8X8X8X8X8X8X8X8X8X8X8X8X8X8X8X8X8X8X8X8X8X8X",
"8X8X8X8X8X8X8X8X8X8X8X8X8X8X8X8X8X8X8X8X8X8X8X8X8X8X8X8X8X8X8X8X8X8X8X8X8X8X8X8X8X8X8X8X8X8X8X8X8X8X8X8X8X8X8X8X8X8X8X8X8X8X8X8X8X8X",
"8X8X8X8X8X8X8X8X8X8X8X8X8X8X8X8X8X8X8X8X8X8X8X8X8X8X8X8X8X8X8X8X8X8X8X8X8X8X8X8X8X8X8X8X8X8X8X8X8X8X8X8X8X8X8X8X8X8X8X8X8X8X8X8X8X8X",
"8X8X8X8X8X8X8X8X8X8X8X8X8X8X8X8X8X8X8X8X8X8X8X8X8X8X8X8X8X8X8X8X8X8X8X8X8X8X8X8X8X8X8X8X8X8X8X8X8X8X8X8X8X8X8X8X8X8X8X8X8X8X8X8X8X8X",
"8X8X8X8X8X8X8X8X8X8X8X8X8X8X8X8X8X8X8X8X8X8X8X8X8X8X8X8X. > ....] ....} >   8X8X8X8X8X8X8X8X8X8X8X8X8X8X8X8X8X8X8X8X8X8X8X8X8X8X8X8X",
"8X8X8X8X8X8X8X8X8X8X8X8X8X8X8X8X8X8X8X8X8X8X8X8X8X8X8X  - t #.#.#.#.%.#.t -   8X8X8X8X8X8X8X8X8X8X8X8X8X8X8X8X8X8X8X8X8X8X8X8X8X8X8X",
"8X8X8X8X8X8X8X8X8X8X8X8X8X8X8X8X8X8X8X8X8X8X8X8X8X8X  @ ) 2.:.*.*.:.*.:.2.) @   8X8X8X8X8X8X8X8X8X8X8X8X8X8X8X8X8X8X8X8X8X8X8X8X8X8X",
"8X8X8X8X8X8X8X8X8X8X8X8X8X8X8X8X8X8X8X8X8X8X8X8X8X  - ) %.:.*.*.*.*.*.*.:.2.a =   8X8X8X8X8X8X8X8X8X8X8X8X8X8X8X8X8X8X8X8X8X8X8X8X8X",
"8X8X8X8X8X8X8X8X8X8X8X8X8X8X8X8X8X8X8X8X8X8X8X8X. & ^ %.;.&.-.-.=.=.=.*.&.;.,.^ & . 8X8X8X8X8X8X8X8X8X8X8X8X8X8X8X8X8X8X8X8X8X8X8X8X",
"8X8X8X8X8X8X8X8X8X8X8X8X8X8X8X8X8X8X8X8X8X8X8X  - ) %.*.&.-.-.-.-.-.-.-.&.&.&.%.) -   8X8X8X8X8X8X8X8X8X8X8X8X8X8X8X8X8X8X8X8X8X8X8X",
"8X8X8X8X8X8X8X8X8X8X8X8X8X8X8X8X8X8X8X8X8X8X8X  e %.2.o.6.d.4.4.4.4.4.4.4.6.o.2.%.e   8X8X8X8X8X8X8X8X8X8X8X8X8X8X8X8X8X8X8X8X8X8X8X",
"8X8X8X8X8X8X8X8X8X8X8X8X8X8X8X8X8X8X8X8X8X8X8X. r >.O.e.m.v.v.v.b.b.c.v.v.m.u.O.>.w   8X8X8X8X8X8X8X8X8X8X8X8X8X8X8X8X8X8X8X8X8X8X8X",
"8X8X8X8X8X8X8X8X8X8X8X8X8X8X8X8X8X8X8X8X8X8X  w `  .t.j.b.v.v.c.v.c.c.v.v.c.j.t. .} w   8X8X8X8X8X8X8X8X8X8X8X8X8X8X8X8X8X8X8X8X8X8X",
"8X8X8X8X8X8X8X8X8X8X8X8X8X8X8X8X8X8X8X8X8Xz X y B.R j.v.x.m.b.v.b.v.b.n.h.z.v.j.u. .y X z 8X8X8X8X8X8X8X8X8X8X8X8X8X8X8X8X8X8X8X8X8X",
"8X8X8X8X8X8X8X8X8X8X8X8X8X8X8X8X8X8XT G.[.I 6 7 G Y.n.b.R.a.b.v.v.v.n.T.Z.r.x.v.x.9.7 6 Y [.G.T 8X8X8X8X8X8X8X8X8X8X8X8X8X8X8X8X8X8X",
"8X8X8X8X8X8X8X8X8X8X8X8X8X8X8X8X8X8XD G.+XOXD.D r.M.h.p.p.n.b.v.v.v.h.Z.W V.i.z.v.0.P ! oX+XG.D 8X8X8X8X8X8X8X8X8X8X8X8X8X8X8X8X8X8X",
"8X8X8X8X8X8X8X8X8X8X8X8X8X8X8X8X8X8X9 I +X3X$XV.0.x.i.J k.v.v.b.b.x.y.T ].[.Y y.b.0.! @X3X+XI 9 8X8X8X8X8X8X8X8X8X8X8X8X8X8X8X8X8X8X",
"8X8X8X8X8X8X8X8X8X8X8X8X8X8X8X8X8X8X8Xk Y }..XP A t.Y.T.x.v.v.N.T.L H F.+X.XU e.M.Z.S.+XoXI k 8X8X8X8X8X8X8X8X8X8X8X8X8X8X8X8X8X8X8X",
"8X8X8X8X8X8X8X8X8X8X8X8X8X8X8X8X8X8X8X8X9 I C.J A D Y.Q.N.m.h.i.E l U OX<X*XE.R Z.e.t.G.D 9 8X8X8X8X8X8X8X8X8X8X8X8X8X8X8X8X8X8X8X8X",
"8X8X8X8X8X8X8X8X8X8X8X8X8X8X8X8X8X8X8X8X8Xq H k.y.k T R.R.T.K A k D..X#X<X=XXXU A y.k.H q 8X8X8X8X8X8X8X8X8X8X8X8X8X8X8X8X8X8X8X8X8X",
"8X8X8X8X8X8X8X8X8X8X8X8X8X8X8X8X8X8X8X8X8X+ s z.x.G 7 9 K R F l ! |.,X$XW.E z 0 G x.z.s + 8X8X8X8X8X8X8X8X8X8X8X8X8X8X8X8X8X8X8X8X8X",
"8X8X8X8X8X8X8X8X8X8X8X8X8X8X8X8X8X8X8X8X8X  , f.N.K 1 # l D 9 ! +X=X+XG.P % # 1 Z.n.f.,   8X8X8X8X8X8X8X8X8X8X8X8X8X8X8X8X8X8X8X8X8X",
"8X8X8X8X8X8X8X8X8X8X8X8X8X8X8X8X8X8X8X8X8X  , i.a.G _.:X).v 6 Y.1X<XW.k v !.'._.S a.i.,   8X8X8X8X8X8X8X8X8X8X8X8X8X8X8X8X8X8X8X8X8X",
"8X8X8X8X8X8X8X8X8X8X8X8X8X8X8X8X8X8X8X8X8X8X@ D F 7 oX6X^.~.Q {.<X,XW.Y ~.^.6XoX7 F l @ 8X8X8X8X8X8X8X8X8X8X8X8X8X8X8X8X8X8X8X8X8X8X",
"8X8X8X8X8X8X8X8X8X8X8X8X8X8X8X8X8X8X8X8X8X8X8Xo X O F.>X(./.7X<X#X#X<X5X/.(.>XF.o o o 8X8X8X8X8X8X8X8X8X8X8X8X8X8X8X8X8X8X8X8X8X8X8X",
"8X8X8X8X8X8X8X8X8X8X8X8X8X8X8X8X8X8X8X8X8X8X8X8X    l }.;X4X6X3X*X*X3X6X4X;X}.l     8X8X8X8X8X8X8X8X8X8X8X8X8X8X8X8X8X8X8X8X8X8X8X8X",
"8X8X8X8X8X8X8X8X8X8X8X8X8X8X8X8X8X8X8X8X8X8X8X8X8X& d T XX#X#X#X#X#X#X*X*XXXZ.7 ; 8X8X8X8X8X8X8X8X8X8X8X8X8X8X8X8X8X8X8X8X8X8X8X8X8X",
"8X8X8X8X8X8X8X8X8X8X8X8X8X8X8X8X8X8X8X8X8X8X8X  i P.B.M S E.|.OX|.|.OX|.D.S 9 B.P.i   8X8X8X8X8X8X8X8X8X8X8X8X8X8X8X8X8X8X8X8X8X8X8X",
"8X8X8X8X8X8X8X8X8X8X8X8X8X8X8X8X8X8X8X8X8X8X8X: I.%XL.< 8 x K.U.K.K.U.K.x s 8 L.%X_.: 8X8X8X8X8X8X8X8X8X8X8X8X8X8X8X8X8X8X8X8X8X8X8X",
"8X8X8X8X8X8X8X8X8X8X8X8X8X8X8X8X8X8X8X8X8X  ; P.-X&X7.r ^ ....} ....} ....^ r 7.&X%XP.: . 8X8X8X8X8X8X8X8X8X8X8X8X8X8X8X8X8X8X8X8X8X",
"8X8X8X8X8X8X8X8X8X8X8X8X8X8X8X8X8X8X8X8X. h _.-X Xb i g ] / ' _ ( ( _ ' 1.' h 1 b  X-X_.0 . 8X8X8X8X8X8X8X8X8X8X8X8X8X8X8X8X8X8X8X8X",
"8X8X8X8X8X8X8X8X8X8X8X8X8X8X8X8X8X8X8X8Xo A.2X2XA.. , c | } } X.X.X.X.} } | c % . A.2X2XA.o 8X8X8X8X8X8X8X8X8X8X8X8X8X8X8X8X8X8X8X8X",
"8X8X8X8X8X8X8X8X8X8X8X8X8X8X8X8X8X8X8X8Xo Y ,X2X`.p ~ / c q j q.l.l.q.j q x $.~ p `.2X,XY O 8X8X8X8X8X8X8X8X8X8X8X8X8X8X8X8X8X8X8X8X",
"8X8X8X8X8X8X8X8X8X8X8X8X8X8X8X8X8X8X8X8X. 0 W H.n p +.:./ 7 j y.v.v.y.j 7 { *.+.p 8._.Q 1 . 8X8X8X8X8X8X8X8X8X8X8X8X8X8X8X8X8X8X8X8X",
"8X8X8X8X8X8X8X8X8X8X8X8X8X8X8X8X8X8X8X8X8X. o o X   ~ *.:.@.} s.v.v.s...@.;.*.~ . o # o . 8X8X8X8X8X8X8X8X8X8X8X8X8X8X8X8X8X8X8X8X8X",
"8X8X8X8X8X8X8X8X8X8X8X8X8X8X8X8X8X8X8X8X8X8X8X8X    * r #.<.<.3.5.5.3.<.<.#.r *     8X8X8X8X8X8X8X8X8X8X8X8X8X8X8X8X8X8X8X8X8X8X8X8X",
"8X8X8X8X8X8X8X8X8X8X8X8X8X8X8X8X8X8X8X8X8X8X8X8X8X+ O X u / +.+.+.+.+.+./ u o + + 8X8X8X8X8X8X8X8X8X8X8X8X8X8X8X8X8X8X8X8X8X8X8X8X8X",
"8X8X8X8X8X8X8X8X8X8X8X8X8X8X8X8X8X8X8X8X8X8X8X  2 B N 3 o > * * * * * * * o 3 N B 2   8X8X8X8X8X8X8X8X8X8X8X8X8X8X8X8X8X8X8X8X8X8X8X",
"8X8X8X8X8X8X8X8X8X8X8X8X8X8X8X8X8X8X8X8X8X8X8X  5 C Z N 3 O             + 3 N Z C 5   8X8X8X8X8X8X8X8X8X8X8X8X8X8X8X8X8X8X8X8X8X8X8X",
"8X8X8X8X8X8X8X8X8X8X8X8X8X8X8X8X8X8X8X8X8X8X8X  4 V C V N % X 8X8X8X8X  3 N V Z V 2   8X8X8X8X8X8X8X8X8X8X8X8X8X8X8X8X8X8X8X8X8X8X8X",
"8X8X8X8X8X8X8X8X8X8X8X8X8X8X8X8X8X8X8X8X8X8X8X8X+ 4 5 4 3 $ 8X8X8X8X8X8X$ 2 4 5 4 + 8X8X8X8X8X8X8X8X8X8X8X8X8X8X8X8X8X8X8X8X8X8X8X8X",
"8X8X8X8X8X8X8X8X8X8X8X8X8X8X8X8X8X8X8X8X8X8X8X8X8X      .   8X8X8X8X8X8X          8X8X8X8X8X8X8X8X8X8X8X8X8X8X8X8X8X8X8X8X8X8X8X8X8X",
"8X8X8X8X8X8X8X8X8X8X8X8X8X8X8X8X8X8X8X8X8X8X8X8X8X8X8X8X8X8X8X8X8X8X8X8X8X8X8X8X8X8X8X8X8X8X8X8X8X8X8X8X8X8X8X8X8X8X8X8X8X8X8X8X8X8X",
"8X8X8X8X8X8X8X8X8X8X8X8X8X8X8X8X8X8X8X8X8X8X8X8X8X8X8X8X8X8X8X8X8X8X8X8X8X8X8X8X8X8X8X8X8X8X8X8X8X8X8X8X8X8X8X8X8X8X8X8X8X8X8X8X8X8X",
"8X8X8X8X8X8X8X8X8X8X8X8X8X8X8X8X8X8X8X8X8X8X8X8X8X8X8X8X8X8X8X8X8X8X8X8X8X8X8X8X8X8X8X8X8X8X8X8X8X8X8X8X8X8X8X8X8X8X8X8X8X8X8X8X8X8X",
"8X8X8X8X8X8X8X8X8X8X8X8X8X8X8X8X8X8X8X8X8X8X8X8X8X8X8X8X8X8X8X8X8X8X8X8X8X8X8X8X8X8X8X8X8X8X8X8X8X8X8X8X8X8X8X8X8X8X8X8X8X8X8X8X8X8X",
"8X8X8X8X8X8X8X8X8X8X8X8X8X8X8X8X8X8X8X8X8X8X8X8X8X8X8X8X8X8X8X8X8X8X8X8X8X8X8X8X8X8X8X8X8X8X8X8X8X8X8X8X8X8X8X8X8X8X8X8X8X8X8X8X8X8X",
"8X8X8X8X8X8X8X8X8X8X8X8X8X8X8X8X8X8X8X8X8X8X8X8X8X8X8X8X8X8X8X8X8X8X8X8X8X8X8X8X8X8X8X8X8X8X8X8X8X8X8X8X8X8X8X8X8X8X8X8X8X8X8X8X8X8X",
"8X8X8X8X8X8X8X8X8X8X8X8X8X8X8X8X8X8X8X8X8X8X8X8X8X8X8X8X8X8X8X8X8X8X8X8X8X8X8X8X8X8X8X8X8X8X8X8X8X8X8X8X8X8X8X8X8X8X8X8X8X8X8X8X8X8X",
"8X8X8X8X8X8X8X8X8X8X8X8X8X8X8X8X8X8X8X8X8X8X8X8X8X8X8X8X8X8X8X8X8X8X8X8X8X8X8X8X8X8X8X8X8X8X8X8X8X8X8X8X8X8X8X8X8X8X8X8X8X8X8X8X8X8X",
"8X8X8X8X8X8X8X8X8X8X8X8X8X8X8X8X8X8X8X8X8X8X8X8X8X8X8X8X8X8X8X8X8X8X8X8X8X8X8X8X8X8X8X8X8X8X8X8X8X8X8X8X8X8X8X8X8X8X8X8X8X8X8X8X8X8X",
"8X8X8X8X8X8X8X8X8X8X8X8X8X8X8X8X8X8X8X8X8X8X8X8X8X8X8X8X8X8X8X8X8X8X8X8X8X8X8X8X8X8X8X8X8X8X8X8X8X8X8X8X8X8X8X8X8X8X8X8X8X8X8X8X8X8X",
"8X8X8X8X8X8X8X8X8X8X8X8X8X8X8X8X8X8X8X8X8X8X8X8X8X8X8X8X8X8X8X8X8X8X8X8X8X8X8X8X8X8X8X8X8X8X8X8X8X8X8X8X8X8X8X8X8X8X8X8X8X8X8X8X8X8X",
"8X8X8X8X8X8X8X8X8X8X8X8X8X8X8X8X8X8X8X8X8X8X8X8X8X8X8X8X8X8X8X8X8X8X8X8X8X8X8X8X8X8X8X8X8X8X8X8X8X8X8X8X8X8X8X8X8X8X8X8X8X8X8X8X8X8X",
"8X8X8X8X8X8X8X8X8X8X8X8X8X8X8X8X8X8X8X8X8X8X8X8X8X8X8X8X8X8X8X8X8X8X8X8X8X8X8X8X8X8X8X8X8X8X8X8X8X8X8X8X8X8X8X8X8X8X8X8X8X8X8X8X8X8X",
"8X8X8X8X8X8X8X8X8X8X8X8X8X8X8X8X8X8X8X8X8X8X8X8X8X8X8X8X8X8X8X8X8X8X8X8X8X8X8X8X8X8X8X8X8X8X8X8X8X8X8X8X8X8X8X8X8X8X8X8X8X8X8X8X8X8X",
"8X8X8X8X8X8X8X8X8X8X8X8X8X8X8X8X8X8X8X8X8X8X8X8X8X8X8X8X8X8X8X8X8X8X8X8X8X8X8X8X8X8X8X8X8X8X8X8X8X8X8X8X8X8X8X8X8X8X8X8X8X8X8X8X8X8X",
"8X8X8X8X8X8X8X8X8X8X8X8X8X8X8X8X8X8X8X8X8X8X8X8X8X8X8X8X8X8X8X8X8X8X8X8X8X8X8X8X8X8X8X8X8X8X8X8X8X8X8X8X8X8X8X8X8X8X8X8X8X8X8X8X8X8X",
"8X8X8X8X8X8X8X8X8X8X8X8X8X8X8X8X8X8X8X8X8X8X8X8X8X8X8X8X8X8X8X8X8X8X8X8X8X8X8X8X8X8X8X8X8X8X8X8X8X8X8X8X8X8X8X8X8X8X8X8X8X8X8X8X8X8X"
};
