/* XPM */
static char *result[] = {
/* columns rows colors chars-per-pixel */
"66 72 237 2 ",
"   c #010101",
".  c #080904",
"X  c #1A0503",
"o  c #031506",
"O  c #131707",
"+  c #1C0A17",
"@  c #1B1B1B",
"#  c #161513",
"$  c #0B0D12",
"%  c #29050A",
"&  c #271404",
"*  c #370314",
"=  c #391B16",
"-  c #380B0B",
";  c #083505",
":  c #17360D",
">  c #043112",
",  c #173C10",
"<  c #03220D",
"1  c #3B250D",
"2  c #2D300C",
"3  c #1C162C",
"4  c #341A24",
"5  c #282727",
"6  c #343935",
"7  c #332E2B",
"8  c #610015",
"9  c #4E2F15",
"0  c #693A1B",
"q  c #7D102B",
"w  c #630E22",
"e  c #56342C",
"r  c #4A3930",
"t  c #7B3F26",
"y  c #682E2A",
"u  c #4C1A0B",
"i  c #004800",
"p  c #134C06",
"a  c #005A02",
"s  c #074918",
"d  c #055816",
"f  c #1B5818",
"g  c #164817",
"h  c #225618",
"j  c #3D4400",
"k  c #0B7515",
"l  c #2D711C",
"z  c #0D5520",
"x  c #27402B",
"c  c #3A443B",
"v  c #2F5232",
"b  c #0B7628",
"n  c #147926",
"m  c #0E6D2B",
"M  c #296928",
"N  c #4D4511",
"B  c #6D451C",
"V  c #607107",
"C  c #584828",
"Z  c #524F30",
"A  c #784923",
"S  c #675A2B",
"D  c #734C32",
"F  c #4A6822",
"G  c #7A653E",
"H  c #676329",
"J  c #494747",
"K  c #535855",
"L  c #665645",
"P  c #5B695B",
"I  c #796A47",
"U  c #656565",
"Y  c #726A68",
"T  c #747474",
"R  c #797878",
"E  c #757C62",
"W  c #8D1E1E",
"Q  c #8B142C",
"!  c #AE1D2C",
"~  c #B72220",
"^  c #CF2726",
"/  c #F02D32",
"(  c #8C5A39",
")  c #874E29",
"_  c #9B6D3A",
"`  c #946B2C",
"'  c #A26030",
"]  c #917818",
"[  c #876644",
"{  c #836B56",
"}  c #8D7A59",
"|  c #946D4E",
" . c #A47C45",
".. c #B17E51",
"X. c #987961",
"o. c #887768",
"O. c #AD7E72",
"+. c #008300",
"@. c #158917",
"#. c #05A705",
"$. c #10A80A",
"%. c #33B614",
"&. c #19872A",
"*. c #188933",
"=. c #248928",
"-. c #2C962A",
";. c #3C9B29",
":. c #389726",
">. c #288638",
",. c #359032",
"<. c #28A32B",
"1. c #3DA429",
"2. c #39A826",
"3. c #39B524",
"4. c #2FAC31",
"5. c #2C9919",
"6. c #41B504",
"7. c #6FBD1F",
"8. c #429D29",
"9. c #47972B",
"0. c #51923C",
"q. c #43A328",
"w. c #46AA27",
"e. c #54A73B",
"r. c #44B02A",
"t. c #66961F",
"y. c #1DDD12",
"u. c #04DA0E",
"i. c #20DA14",
"p. c #2AC51A",
"a. c #1BE60E",
"s. c #03FD05",
"d. c #0CFD06",
"f. c #0FFA08",
"g. c #03F707",
"h. c #10F908",
"j. c #10F808",
"k. c #1DE210",
"l. c #0DE50B",
"z. c #2BF10F",
"x. c #68C01A",
"c. c #61F50E",
"v. c #47CE2C",
"b. c #65D62A",
"n. c #4EDC0D",
"m. c #4A8E48",
"M. c #66895C",
"N. c #768B71",
"B. c #49AB55",
"V. c #948A18",
"C. c #A98912",
"Z. c #A6A902",
"A. c #BA9E34",
"S. c #B28E2C",
"D. c #9DA82A",
"F. c #AEA228",
"G. c #D0B907",
"H. c #CAB71B",
"J. c #C8B410",
"K. c #C59936",
"L. c #C4A92A",
"P. c #D5B630",
"I. c #87F701",
"U. c #A9F903",
"Y. c #BCD035",
"T. c #D6C400",
"R. c #DFD90B",
"E. c #D6C719",
"W. c #ECDE1A",
"Q. c #DFF800",
"!. c #E7E805",
"~. c #EBF504",
"^. c #FCFD01",
"/. c #F6F401",
"(. c #F3E616",
"). c #FFF91D",
"_. c #DFC42B",
"`. c #EFCE2D",
"'. c #FCEC27",
"]. c #AE844F",
"[. c #9D8773",
"{. c #AE8472",
"}. c #B28A74",
"|. c #BC9A78",
" X c #A18668",
".X c #87AF76",
"XX c #BEA561",
"oX c #8F8B5D",
"OX c #C39844",
"+X c #EA9A5D",
"@X c #D7AD48",
"#X c #E4BA4C",
"$X c #C29063",
"%X c #C4A86B",
"&X c #88C07D",
"*X c #DFCB52",
"=X c #FEFE4D",
"-X c #DEC677",
";X c #FBF76E",
":X c #5156B1",
">X c #7874A8",
",X c #335AFF",
"<X c #3662FF",
"1X c #6371ED",
"2X c #71AE81",
"3X c #BC9885",
"4X c #83B98F",
"5X c #B2AD85",
"6X c #8891B5",
"7X c #C7AE86",
"8X c #D6B78D",
"9X c #D8B59B",
"0X c #D8AD8B",
"qX c #E2B880",
"wX c #D6BDA5",
"eX c #8DC585",
"rX c #B2C995",
"tX c #E8C69A",
"yX c #E2C18E",
"uX c #CECBAB",
"iX c #F9DBB3",
"pX c #EED2B0",
"aX c #C5FCAC",
"sX c #D6FDB9",
"dX c #CFFFB5",
"fX c #FFE6B7",
"gX c #DDDD8A",
"hX c #9498E1",
"jX c #DFFFC6",
"kX c #FEEAC6",
"lX c #FDF4C9",
"zX c #FDFFD5",
"xX c #D2D7F2",
"cX c #D8E7FF",
"vX c #FFFFF9",
"bX c #FFFBE0",
"nX c #489848",
/* pixels */
"nXnXnXnXnXnXnXnXnXnXnXnXnXnXnXnXnXnXnXnXnXnXnXnXnXnXnXnXnXnXnXnXnXnXnXnXnXnXnXnXnXnXnXnXnXnXnXnXnXnXnXnXnXnXnXnXnXnXnXnXnXnXnXnXnXnX",
"nXnXnXnXnXnXnXnXnXnXnXnXnXnXnXnXnXnXnXnXnXnXnXnXnXnXnXnXnXnXnXnXnXnXnXnXnXnXnXnXnXnXnXnXnXnXnXnXnXnXnXnXnXnXnXnXnXnXnXnXnXnXnXnXnXnX",
"nXnXnXnXnXnXnXnXnXnXnXnXnXnXnXnXnXnXnXnXnXnXnXnXnXnXnXnXnXnXnXnXnXnXnXnXnXnXnXnXnXnXnXnXnXnXnXnXnXnXnXnXnXnXnXnXnXnXnXnXnXnXnXnXnXnX",
"nXnXnXnXnXnXnXnXnXnXnXnXnXnXnXnXnXnXnXnXnXnXnXnXnXnXnXnXnXnXnXnXnXnXnXnXnXnXnXnXnXnXnXnXnXnXnXnXnXnXnXnXnXnXnXnXnXnXnXnXnXnXnXnXnXnX",
"nXnXnXnXnXnXnXnXnXnXnXnXnXnXnXnXnXnXnXnXnXnXnXnXnXnXnXnXnXnXnXnXnXnXnXnXnXnXnXnXnXnXnXnXnXnXnXnXnXnXnXnXnXnXnXnXnXnXnXnXnXnXnXnXnXnX",
"nXnXnXnXnXnXnXnXnXnXnXnXnXnXnXnXnXnXnXnXnXnXnXnXnXnXnXnXnXnXnXnXnXnXnXnXnXnXnXnXnXnXnXnXnXnXnXnXnXnXnXnXnXnXnXnXnXnXnXnXnXnXnXnXnXnX",
"nXnXnXnXnXnXnXnXnXnXnXnXnXnXnXnXnXnXnXnXnXnXnXnXnXnXnXnXnXnXnXnXnXnXnXnXnXnXnXnXnXnXnXnXnXnXnXnXnXnXnXnXnXnXnXnXnXnXnXnXnXnXnXnXnXnX",
"nXnXnXnXnXnXnXnXnXnXnXnXnXnXnXnXnXnXnXnXnXnXnXnXnXnXnXnXnXnXnXnXnXnXnXnXnXnXnXnXnXnXnXnXnXnXnXnXnXnXnXnXnXnXnXnXnXnXnXnXnXnXnXnXnXnX",
"nXnXnXnXnXnXnXnXnXnXnXnXnXnXnXnXnXnXnXnXnXnXnXnXnXnXnXnXnXnXnXnXnXnXnXnXnXnXnXnXnXnXnXnXnXnXnXnXnXnXnXnXnXnXnXnXnXnXnXnXnXnXnXnXnXnX",
"nXnXnXnXnXnXnXnXnXnXnXnXnXnXnXnXnXnXnXnXnXnXnXnXnXnXnXnXnXnXnXnXnXnXnXnXnXnXnXnXnXnXnXnXnXnXnXnXnXnXnXnXnXnXnXnXnXnXnXnXnXnXnXnXnXnX",
"nXnXnXnXnXnXnXnXnXnXnXnXnXnXnXnXnXnXnXnXnXnXnXnXnXnXnXnXnXnXnXnXnXnXnXnXnXnXnXnXnXnXnXnXnXnXnXnXnXnXnXnXnXnXnXnXnXnXnXnXnXnXnXnXnXnX",
"nXnXnXnXnXnXnXnXnXnXnXnXnXnXnXnXnXnXnXnXnXnXnXnXnXnXnXnXnXnXnXnXnXnXnXnXnXnXnXnXnXnXnXnXnXnXnXnXnXnXnXnXnXnXnXnXnXnXnXnXnXnXnXnXnXnX",
"nXnXnXnXnXnXnXnXnXnXnXnXnXnXnXnXnXnXnXnXnXnXnXnXnXnXnXnXnXnXnXnXnXnXnXnXnXnXnXnXnXnXnXnXnXnXnXnXnXnXnXnXnXnXnXnXnXnXnXnXnXnXnXnXnXnX",
"nXnXnXnXnXnXnXnXnXnXnXnXnXnXnXnXnXnXnXnXnXnXnXnXnXnXnXnXnXnXnXnXnXnXnXnXnXnXnXnXnXnXnXnXnXnXnXnXnXnXnXnXnXnXnXnXnXnXnXnXnXnXnXnXnXnX",
"nXnXnXnXnXnXnXnXnXnXnXnXnXnXnXnXnXnXnXnXnXnXnXnXnXnXnXnXnXnXnXnXnXnXnXnXnXnXnXnXnXnXnXnXnXnXnXnXnXnXnXnXnXnXnXnXnXnXnXnXnXnXnXnXnXnX",
"nXnXnXnXnXnXnXnXnXnXnXnXnXnXnXnXnXnXnXnXnXnXnXnXnXnXnXnXnXnXnXnXnXnXnXnXnXnXnXnXnXnXnXnXnXnXnXnXnXnXnXnXnXnXnXnXnXnXnXnXnXnXnXnXnXnX",
"nXnXnXnXnXnXnXnXnXnXnXnXnXnXnXnXnXnXnXnXnXnXnXnXnXnXnXnXnXnXnXnXnXnXnXnXnXnXnXnXnXnXnXnXnXnXnXnXnXnXnXnXnXnXnXnXnXnXnXnXnXnXnXnXnXnX",
"nXnXnXnXnXnXnXnXnXnXnXnXnXnXnXnXnXnXnXnXnXnXnXnXnXnXnXe.p.d.d.h.h.d.d.i.1.H t ( %XnXnXnXnXnXnXnXnXnXnXnXnXnXnXnXnXnXnXnXnXnXnXnXnXnX",
"nXnXnXnXnXnXnXnXnXnXnXnXnXnXnXnXnXnXnXnXnXnXnXnXnXnXeX3.i.h.d.h.h.h.d.l.p.t.] K.@XnXnXnXnXnXnXnXnXnXnXnXnXnXnXnXnXnXnXnXnXnXnXnXnXnX",
"nXnXnXnXnXnXnXnXnXnXnXnXnXnXnXnXnXnXnXnXnXnXnXeXe.e.r.a.d.h.h.h.h.h.j.g.g.I./.~.W.#XXX].nXnXnXnXnXnXnXnXnXnXnXnXnXnXnXnXnXnXnXnXnXnX",
"nXnXnXnXnXnXnXnXnXnXnXnXnXnXnXnXnXnXnXnXnXnX4Xm.w.p.k.d.d.h.h.h.h.j.d.z.b._.'.^.^.W._.H.%XnXnXnXnXnXnXnXnXnXnXnXnXnXnXnXnXnXnXnXnXnX",
"nXnXnXnXnXnXnXnXnXnXnXnXnXnXnXnXnXnXnXnXnX4Xn ,.3.k.d.h.h.h.h.h.h.s.g.b.@X+X@XW.^.^.^.^.H. .nXnXnXnXnXnXnXnXnXnXnXnXnXnXnXnXnXnXnXnX",
"nXnXnXnXnXnXnXnXnXnXnXnXnXnXnXnXnXnXnXnX2Xm.-.8.1.%.y.d.d.j.h.h.j.g.g.c.W.`.`.L.K.`.).^./.H.%X7XnXnXnXnXnXnXnXnXnXnXnXnXnXnXnXnXnXnX",
"nXnXnXnXnXnXnXnXnXnXnXnXnXnXnXnXnXnXnXnXb =.w.q.8.9.2.k.j.f.d.h.h.j.h.I.^.^./.A.X...P.(.^.^.F._ nXnXnXnXnXnXnXnXnXnXnXnXnXnXnXnXnXnX",
"nXnXnXnXnXnXnXnXnXnXnXnXnXnXnXnXnXnXnXnXn =.q.q.8.8.q.2.i.d.d.s.s.z.U.Q.^.^.^.*XO.D ' #X).^.C.A nXnXnXnXnXnXnXnXnXnXnXnXnXnXnXnXnXnX",
"nXnXnXnXnXnXnXnXnXnXnXnXnXnXnXnXnXnXnX4X>.-.8.q.q.q.9.9.%.i.k.k.u.c./.^./.!._.-X3X[ ( .._.E.].X.nXnXnXnXnXnXnXnXnXnXnXnXnXnXnXnXnXnX",
"nXnXnXnXnXnXnXnXnXnXnXnXnXnXnXnXnXnX>.>.;.q.;.q.q.w.q.8.q.2.2.r.<.7.!.^./.J.S.|.7X7X].) ` S.nXnXnXnXnXnXnXnXnXnXnXnXnXnXnXnXnXnXnXnX",
"nXnXnXnXnXnXnXnXnXnXnXnXnXnXnXnXnXnX&.-.q.w.q.;.-.=.-.q.q.9.8.9.0.F.~.^./.L.O.wXfXiXX.= { wXnXnXnXnXnXnXnXnXnXnXnXnXnXnXnXnXnXnXnXnX",
"nXnXnXnXnXnXnXnXnXnXnXnXnXnXnXnXnXnXm =.;.w.1.&.m b &.:.1.1.2.9._ K.!.^./.*X8XpXiXtXL   nXnXnXnXnXnXnXnXnXnXnXnXnXnXnXnXnXnXnXnXnXnX",
"nXnXnXnXnXnXnXnXnXnXnXnXnXnXnXnXnXnX> f ;.1.=.s > z &.k @.5.@.n S ' S.R.^.;XwXY C _ e . nXnXnXnXnXnXnXnXnXnXnXnXnXnXnXnXnXnXnXnXnXnX",
"nXnXnXnXnXnXnXnXnXnXnXnXnXnXnXnXnXnX  : 9.<.m o   d *.>.0.e.1.M C t ( L.!.;XpXJ $ e e # R nXnXnXnXnXnXnXnXnXnXnXnXnXnXnXnXnXnXnXnXnX",
"nXnXnXnXnXnXnXnXnXnXnXnXnXnXnXnXnXnX  : :.4.n o   d B.rXuXrXrXoXD ) ..XXA.8XkXuX6X:X:X XL K nXnXnXnXnXnXnXnXnXnXnXnXnXnXnXnXnXnXnXnX",
"nXnXnXnXnXnXnXnXnXnXnXnXnXnXnXnXnXnX  , ;.-.d c c s m.tXlXkXkX0XD B P.K.( |.lXvXcX<X1XpX(   nXnXnXnXnXnXnXnXnXnXnXnXnXnXnXnXnXnXnXnX",
"nXnXnXnXnXnXnXnXnXnXnXnXnXnXnXnXnXnX  , 8.l $ nXnXZ 2 ].tXkXzXuX5 2 R.G.A }.kXvXxX<X1XwXG   nXnXnXnXnXnXnXnXnXnXnXnXnXnXnXnXnXnXnXnX",
"nXnXnXnXnXnXnXnXnXnXnXnXnXnXnXnXnXnX  , -.f   nXnXJ   1 | yXfXtX3 2 Q.T.0 }.lXbXxXhX>X{ L T nXnXnXnXnXnXnXnXnXnXnXnXnXnXnXnXnXnXnXnX",
"nXnXnXnXnXnXnXnXnXnXnXnXnXnXnXnXnXnX  > n s $ nXnXJ   . 9 _ 8X|.3 2 R.G.A }.kXkXiXtX{ . nXnXnXnXnXnXnXnXnXnXnXnXnXnXnXnXnXnXnXnXnXnX",
"nXnXnXnXnXnXnXnXnXnXnXnXnXnXnXnXnXnXnXK > x nXnXnXD.V.( e 9 e r . N ~.T.A O.iXfX8X| Z nXnXnXnXnXnXnXnXnXnXnXnXnXnXnXnXnXnXnXnXnXnXnX",
"nXnXnXnXnXnXnXnXnXnXnXnXnXnXnXnXnXnXnXnX5 o.nXnXnX=X'.#XS         N R.G.0 { 7X0X} 5 T nXnXnXnXnXnXnXnXnXnXnXnXnXnXnXnXnXnXnXnXnXnXnX",
"nXnXnXnXnXnXnXnXnXnXnXnXnXnXnXnXnXnXnXnXnXnXnXnXnXnXgXH @ d l l . 1 `.S.X , m.c J nXnXnXnXnXnXnXnXnXnXnXnXnXnXnXnXnXnXnXnXnXnXnXnXnX",
"nXnXnXnXnXnXnXnXnXnXnXnXnXnXnXnXnXnXnXnXnXnXnXnXnXnXnX5 < =.<.=.O = | D < d k ; c nXnXnXnXnXnXnXnXnXnXnXnXnXnXnXnXnXnXnXnXnXnXnXnXnX",
"nXnXnXnXnXnXnXnXnXnXnXnXnXnXnXnXnXnXnXnXnXnXnXnXnXnXnX@ g ;.f O u u X : :.1.:.:.M 5 nXnXnXnXnXnXnXnXnXnXnXnXnXnXnXnXnXnXnXnXnXnXnXnX",
"nXnXnXnXnXnXnXnXnXnXnXnXnXnXnXnXnXnXnXnXnXnXnXnXnXnXnX@ h r.;   G oXc f l :.r.v.q.V S nXnXnXnXnXnXnXnXnXnXnXnXnXnXnXnXnXnXnXnXnXnXnX",
"nXnXnXnXnXnXnXnXnXnXnXnXnXnXnXnXnXnXnXnXnXnXnXnXnXnXnX@ f 1.; # .XdXaXM.. g 3.<.7.~.Z.O nXnXnXnXnXnXnXnXnXnXnXnXnXnXnXnXnXnXnXnXnXnX",
"nXnXnXnXnXnXnXnXnXnXnXnXnXnXnXnXnXnXnXnXnXnXnXnXnXnXP h F S X # .XjXjXM.  & H Z V.^.G.. R nXnXnXnXnXnXnXnXnXnXnXnXnXnXnXnXnXnXnXnXnX",
"nXnXnXnXnXnXnXnXnXnXnXnXnXnXnXnXnXnXnXnXnXnXnXnXnX7 , ;.t.B X # .XdXaXM.  & A 0 ] ~.Z.. nXnXnXnXnXnXnXnXnXnXnXnXnXnXnXnXnXnXnXnXnXnX",
"nXnXnXnXnXnXnXnXnXnXnXnXnXnXnXnXnXnXnXnXnXnXnXnXnX@ : q.v.%.; # .XdXaXM.  p %.%.n.c.6.. R nXnXnXnXnXnXnXnXnXnXnXnXnXnXnXnXnXnXnXnXnX",
"nXnXnXnXnXnXnXnXnXnXnXnXnXnXnXnXnXnXnXnXnXnXnXnXnXU x l z.s.a # .XjXdXE   +.d.d.s.u.k 6 nXnXnXnXnXnXnXnXnXnXnXnXnXnXnXnXnXnXnXnXnXnX",
"nXnXnXnXnXnXnXnXnXnXnXnXnXnXnXnXnXnXnXnXnXnXnXnXnXnXnXO $.f.a + 5XzXlXo.  +.h.h.l.a v nXnXnXnXnXnXnXnXnXnXnXnXnXnXnXnXnXnXnXnXnXnXnX",
"nXnXnXnXnXnXnXnXnXnXnXnXnXnXnXnXnXnXnXnXnXnXnXnXnXnXnXU M $.; + 3XzXzX[.  a #.#.@.K nXnXnXnXnXnXnXnXnXnXnXnXnXnXnXnXnXnXnXnXnXnXnXnX",
"nXnXnXnXnXnXnXnXnXnXnXnXnXnXnXnXnXnXnXnXnXnXnXnXnXnXnXnXN.o   #  XfXzX[.    o . 6 nXnXnXnXnXnXnXnXnXnXnXnXnXnXnXnXnXnXnXnXnXnXnXnXnX",
"nXnXnXnXnXnXnXnXnXnXnXnXnXnXnXnXnXnXnXnXnXnXnXnXnXnXnXnXnXR 5 $ r { o.L * * * 8 y nXnXnXnXnXnXnXnXnXnXnXnXnXnXnXnXnXnXnXnXnXnXnXnXnX",
"nXnXnXnXnXnXnXnXnXnXnXnXnXnXnXnXnXnXnXnXnXnXnXnXnXnXnXnXnXnXY $       % q q Q / ~ % P nXnXnXnXnXnXnXnXnXnXnXnXnXnXnXnXnXnXnXnXnXnXnX",
"nXnXnXnXnXnXnXnXnXnXnXnXnXnXnXnXnXnXnXnXnXnXnXnXnXnXnXnXnXnXnXnX#     % Q ! / / ^ % J nXnXnXnXnXnXnXnXnXnXnXnXnXnXnXnXnXnXnXnXnXnXnX",
"nXnXnXnXnXnXnXnXnXnXnXnXnXnXnXnXnXnXnXnXnXnXnXnXnXnXnXnXnXnXnXnXU 5 5 4 w ! ~ ^ W 4 R nXnXnXnXnXnXnXnXnXnXnXnXnXnXnXnXnXnXnXnXnXnXnX",
"nXnXnXnXnXnXnXnXnXnXnXnXnXnXnXnXnXnXnXnXnXnXnXnXnXnXnXnXnXnXnXnXnXnXnXY + % - - = nXnXnXnXnXnXnXnXnXnXnXnXnXnXnXnXnXnXnXnXnXnXnXnXnX",
"nXnXnXnXnXnXnXnXnXnXnXnXnXnXnXnXnXnXnXnXnXnXnXnXnXnXnXnXnXnXnXnXnXnXnXnX.       6 nXnXnXnXnXnXnXnXnXnXnXnXnXnXnXnXnXnXnXnXnXnXnXnXnX",
"nXnXnXnXnXnXnXnXnXnXnXnXnXnXnXnXnXnXnXnXnXnXnXnXnXnXnXnXnXnXnXnXnXnXnXnXnXnXnXnXnXnXnXnXnXnXnXnXnXnXnXnXnXnXnXnXnXnXnXnXnXnXnXnXnXnX",
"nXnXnXnXnXnXnXnXnXnXnXnXnXnXnXnXnXnXnXnXnXnXnXnXnXnXnXnXnXnXnXnXnXnXnXnXnXnXnXnXnXnXnXnXnXnXnXnXnXnXnXnXnXnXnXnXnXnXnXnXnXnXnXnXnXnX",
"nXnXnXnXnXnXnXnXnXnXnXnXnXnXnXnXnXnXnXnXnXnXnXnXnXnXnXnXnXnXnXnXnXnXnXnXnXnXnXnXnXnXnXnXnXnXnXnXnXnXnXnXnXnXnXnXnXnXnXnXnXnXnXnXnXnX",
"nXnXnXnXnXnXnXnXnXnXnXnXnXnXnXnXnXnXnXnXnXnXnXnXnXnXnXnXnXnXnXnXnXnXnXnXnXnXnXnXnXnXnXnXnXnXnXnXnXnXnXnXnXnXnXnXnXnXnXnXnXnXnXnXnXnX",
"nXnXnXnXnXnXnXnXnXnXnXnXnXnXnXnXnXnXnXnXnXnXnXnXnXnXnXnXnXnXnXnXnXnXnXnXnXnXnXnXnXnXnXnXnXnXnXnXnXnXnXnXnXnXnXnXnXnXnXnXnXnXnXnXnXnX",
"nXnXnXnXnXnXnXnXnXnXnXnXnXnXnXnXnXnXnXnXnXnXnXnXnXnXnXnXnXnXnXnXnXnXnXnXnXnXnXnXnXnXnXnXnXnXnXnXnXnXnXnXnXnXnXnXnXnXnXnXnXnXnXnXnXnX",
"nXnXnXnXnXnXnXnXnXnXnXnXnXnXnXnXnXnXnXnXnXnXnXnXnXnXnXnXnXnXnXnXnXnXnXnXnXnXnXnXnXnXnXnXnXnXnXnXnXnXnXnXnXnXnXnXnXnXnXnXnXnXnXnXnXnX",
"nXnXnXnXnXnXnXnXnXnXnXnXnXnXnXnXnXnXnXnXnXnXnXnXnXnXnXnXnXnXnXnXnXnXnXnXnXnXnXnXnXnXnXnXnXnXnXnXnXnXnXnXnXnXnXnXnXnXnXnXnXnXnXnXnXnX",
"nXnXnXnXnXnXnXnXnXnXnXnXnXnXnXnXnXnXnXnXnXnXnXnXnXnXnXnXnXnXnXnXnXnXnXnXnXnXnXnXnXnXnXnXnXnXnXnXnXnXnXnXnXnXnXnXnXnXnXnXnXnXnXnXnXnX",
"nXnXnXnXnXnXnXnXnXnXnXnXnXnXnXnXnXnXnXnXnXnXnXnXnXnXnXnXnXnXnXnXnXnXnXnXnXnXnXnXnXnXnXnXnXnXnXnXnXnXnXnXnXnXnXnXnXnXnXnXnXnXnXnXnXnX",
"nXnXnXnXnXnXnXnXnXnXnXnXnXnXnXnXnXnXnXnXnXnXnXnXnXnXnXnXnXnXnXnXnXnXnXnXnXnXnXnXnXnXnXnXnXnXnXnXnXnXnXnXnXnXnXnXnXnXnXnXnXnXnXnXnXnX",
"nXnXnXnXnXnXnXnXnXnXnXnXnXnXnXnXnXnXnXnXnXnXnXnXnXnXnXnXnXnXnXnXnXnXnXnXnXnXnXnXnXnXnXnXnXnXnXnXnXnXnXnXnXnXnXnXnXnXnXnXnXnXnXnXnXnX",
"nXnXnXnXnXnXnXnXnXnXnXnXnXnXnXnXnXnXnXnXnXnXnXnXnXnXnXnXnXnXnXnXnXnXnXnXnXnXnXnXnXnXnXnXnXnXnXnXnXnXnXnXnXnXnXnXnXnXnXnXnXnXnXnXnXnX",
"nXnXnXnXnXnXnXnXnXnXnXnXnXnXnXnXnXnXnXnXnXnXnXnXnXnXnXnXnXnXnXnXnXnXnXnXnXnXnXnXnXnXnXnXnXnXnXnXnXnXnXnXnXnXnXnXnXnXnXnXnXnXnXnXnXnX",
"nXnXnXnXnXnXnXnXnXnXnXnXnXnXnXnXnXnXnXnXnXnXnXnXnXnXnXnXnXnXnXnXnXnXnXnXnXnXnXnXnXnXnXnXnXnXnXnXnXnXnXnXnXnXnXnXnXnXnXnXnXnXnXnXnXnX",
"nXnXnXnXnXnXnXnXnXnXnXnXnXnXnXnXnXnXnXnXnXnXnXnXnXnXnXnXnXnXnXnXnXnXnXnXnXnXnXnXnXnXnXnXnXnXnXnXnXnXnXnXnXnXnXnXnXnXnXnXnXnXnXnXnXnX"
};
