/* XPM */
static char *result[] = {
/* columns rows colors chars-per-pixel */
"66 72 227 2 ",
"   c #010001",
".  c #0D0205",
"X  c #020B02",
"o  c #080B08",
"O  c #190103",
"+  c #170808",
"@  c #041608",
"#  c #1C1A15",
"$  c #0F1A13",
"%  c #23040A",
"&  c #29120D",
"*  c #270911",
"=  c #3C0214",
"-  c #390912",
";  c #012200",
":  c #03220C",
">  c #032B06",
",  c #07370C",
"<  c #19380D",
"1  c #0C2814",
"2  c #16291A",
"3  c #063814",
"4  c #15360E",
"5  c #3E2110",
"6  c #2A2F11",
"7  c #292722",
"8  c #322B24",
"9  c #3E382D",
"0  c #480616",
"q  c #570716",
"w  c #530E14",
"e  c #650816",
"r  c #492317",
"t  c #4F280F",
"y  c #643316",
"u  c #680D23",
"i  c #6F1E23",
"p  c #46292C",
"a  c #513628",
"s  c #6C2822",
"d  c #733D27",
"f  c #6F3823",
"g  c #06480A",
"h  c #094617",
"j  c #1C4416",
"k  c #075819",
"l  c #1B5614",
"z  c #094E0D",
"x  c #265718",
"c  c #2E460A",
"v  c #056706",
"b  c #0A7905",
"n  c #067B1D",
"m  c #0D621D",
"M  c #21671A",
"N  c #2D741E",
"B  c #306B1E",
"V  c #0F5C21",
"C  c #325E36",
"Z  c #0A7A26",
"A  c #19732A",
"S  c #216426",
"D  c #2B7A25",
"F  c #34712D",
"G  c #515900",
"H  c #7B481A",
"J  c #635217",
"K  c #5A6919",
"L  c #68691E",
"P  c #4A4328",
"I  c #485235",
"U  c #684A29",
"Y  c #794725",
"T  c #775925",
"R  c #7B4B36",
"E  c #725C2C",
"W  c #5A6827",
"Q  c #4C6F2D",
"!  c #727227",
"~  c #575843",
"^  c #4A5E40",
"/  c #635B4C",
"(  c #526F49",
")  c #486741",
"_  c #78735B",
"`  c #776B58",
"'  c #A8192C",
"]  c #BC1B23",
"[  c #D52228",
"{  c #CD2127",
"}  c #F3272B",
"|  c #885217",
" . c #A27516",
".. c #96582C",
"X. c #875234",
"o. c #936935",
"O. c #AC6F32",
"+. c #956A4B",
"@. c #966C46",
"#. c #947650",
"$. c #A27B41",
"%. c #AD7F58",
"&. c #887D66",
"*. c #088404",
"=. c #1B8B1F",
"-. c #048C0D",
";. c #2A8C12",
":. c #0AAD0B",
">. c #2CB81D",
",. c #33BA1E",
"<. c #2BB30E",
"1. c #12862C",
"2. c #238B28",
"3. c #378E25",
"4. c #2C9425",
"5. c #27952A",
"6. c #3A9926",
"7. c #209F3E",
"8. c #3EA028",
"9. c #37A82A",
"0. c #36BA23",
"q. c #2EAB32",
"w. c #2FB320",
"e. c #549919",
"r. c #729916",
"t. c #4DA716",
"y. c #46892B",
"u. c #44972A",
"i. c #449A2A",
"p. c #4D992C",
"a. c #708325",
"s. c #43A228",
"d. c #45AB2B",
"f. c #49A72B",
"g. c #43B22B",
"h. c #49B52B",
"j. c #53B031",
"k. c #0AC606",
"l. c #1EDC12",
"z. c #16D009",
"x. c #26D50D",
"c. c #2CC81A",
"v. c #32C51D",
"b. c #22DB13",
"n. c #2ECC0B",
"m. c #1BE50D",
"M. c #16ED0D",
"N. c #03FE04",
"B. c #0BFD06",
"V. c #00FA09",
"C. c #0CF908",
"Z. c #11F709",
"A. c #10F908",
"S. c #1BF80A",
"D. c #1CE613",
"F. c #0AED0D",
"G. c #25E31C",
"H. c #2EF205",
"J. c #3BD725",
"K. c #339444",
"L. c #3EBB55",
"P. c #528F4E",
"I. c #658458",
"U. c #66995E",
"Y. c #638E4B",
"T. c #799466",
"R. c #838600",
"E. c #899112",
"W. c #BC9B17",
"Q. c #AD8E10",
"!. c #ACB200",
"~. c #A98829",
"^. c #AA853B",
"/. c #B48F29",
"(. c #C29813",
"). c #C6952F",
"_. c #CDA42A",
"`. c #D0AA2C",
"'. c #E0B636",
"]. c #91FF00",
"[. c #92FD0D",
"{. c #8AF709",
"}. c #A6FC02",
"|. c #8DE62F",
" X c #DECE18",
".X c #E6DC09",
"XX c #DCE000",
"oX c #FEED04",
"OX c #FDFD01",
"+X c #FEF305",
"@X c #FBE41A",
"#X c #EEFF01",
"$X c #F2D82F",
"%X c #BE935E",
"&X c #9DA84D",
"*X c #968469",
"=X c #B79463",
"-X c #80A66E",
";X c #83AD74",
":X c #C99D6B",
">X c #F1B54D",
",X c #82CF7B",
"<X c #97A680",
"1X c #BCAA8D",
"2X c #CCB48B",
"3X c #D9B78C",
"4X c #CDB796",
"5X c #CDA98B",
"6X c #8DD783",
"7X c #ADF299",
"8X c #B7CBA1",
"9X c #B4F4A1",
"0X c #E3C798",
"qX c #EACBA3",
"wX c #EAD4AC",
"eX c #F0D3AC",
"rX c #F7DCB6",
"tX c #CAFFB1",
"yX c #D7FFB7",
"uX c #C6EDAD",
"iX c #E6F9BB",
"pX c #F6E4BC",
"aX c #FFF5CA",
"sX c #FFFFDB",
"dX c #F6EDC8",
"fX c #FFFFE1",
"gX c None",
/* pixels */
"gXgXgXgXgXgXgXgXgXgXgXgXgXgXgXgXgXgXgXgXgXgXgXgXgXgXgXgXgXgXgXgXgXgXgXgXgXgXgXgXgXgXgXgXgXgXgXgXgXgXgXgXgXgXgXgXgXgXgXgXgXgXgXgXgXgX",
"gXgXgXgXgXgXgXgXgXgXgXgXgXgXgXgXgXgXgXgXgXgXgXgXgXgXgXgXgXgXgXgXgXgXgXgXgXgXgXgXgXgXgXgXgXgXgXgXgXgXgXgXgXgXgXgXgXgXgXgXgXgXgXgXgXgX",
"gXgXgXgXgXgXgXgXgXgXgXgXgXgXgXgXgXgXgXgXgXgXgXgXgXgXgXgXgXgXgXgXgXgXgXgXgXgXgXgXgXgXgXgXgXgXgXgXgXgXgXgXgXgXgXgXgXgXgXgXgXgXgXgXgXgX",
"gXgXgXgXgXgXgXgXgXgXgXgXgXgXgXgXgXgXgXgXgXgXgXgXgXgXgXgXgXgXgXgXgXgXgXgXgXgXgXgXgXgXgXgXgXgXgXgXgXgXgXgXgXgXgXgXgXgXgXgXgXgXgXgXgXgX",
"gXgXgXgXgXgXgXgXgXgXgXgXgXgXgXgXgXgXgXgXgXgXgXgXgXgXgXgXgXgXgXgXgXgXgXgXgXgXgXgXgXgXgXgXgXgXgXgXgXgXgXgXgXgXgXgXgXgXgXgXgXgXgXgXgXgX",
"gXgXgXgXgXgXgXgXgXgXgXgXgXgXgXgXgXgXgXgXgXgXgXgXgXgXgXgXgXgXgXgXgXgXgXgXgXgXgXgXgXgXgXgXgXgXgXgXgXgXgXgXgXgXgXgXgXgXgXgXgXgXgXgXgXgX",
"gXgXgXgXgXgXgXgXgXgXgXgXgXgXgXgXgXgXgXgXgXgXgXgXgXgXgXgXgXgXgXgXgXgXgXgXgXgXgXgXgXgXgXgXgXgXgXgXgXgXgXgXgXgXgXgXgXgXgXgXgXgXgXgXgXgX",
"gXgXgXgXgXgXgXgXgXgXgXgXgXgXgXgXgXgXgXgXgXgXgXgXgXgXgXgXgXgXgXgXgXgXgXgXgXgXgXgXgXgXgXgXgXgXgXgXgXgXgXgXgXgXgXgXgXgXgXgXgXgXgXgXgXgX",
"gXgXgXgXgXgXgXgXgXgXgXgXgXgXgXgXgXgXgXgXgXgXgXgXgXgXgXgXgXgXgXgXgXgXgXgXgXgXgXgXgXgXgXgXgXgXgXgXgXgXgXgXgXgXgXgXgXgXgXgXgXgXgXgXgXgX",
"gXgXgXgXgXgXgXgXgXgXgXgXgXgXgXgXgXgXgXgXgXgXgXgXgXgXgXgXgXgXgXgXgXgXgXgXgXgXgXgXgXgXgXgXgXgXgXgXgXgXgXgXgXgXgXgXgXgXgXgXgXgXgXgXgXgX",
"gXgXgXgXgXgXgXgXgXgXgXgXgXgXgXgXgXgXgXgXgXgXgXgXgXgXgXgXgXgXgXgXgXgXgXgXgXgXgXgXgXgXgXgXgXgXgXgXgXgXgXgXgXgXgXgXgXgXgXgXgXgXgXgXgXgX",
"gXgXgXgXgXgXgXgXgXgXgXgXgXgXgXgXgXgXgXgXgXgXgXgXgXgXgXgXgXgXgXgXgXgXgXgXgXgXgXgXgXgXgXgXgXgXgXgXgXgXgXgXgXgXgXgXgXgXgXgXgXgXgXgXgXgX",
"gXgXgXgXgXgXgXgXgXgXgXgXgXgXgXgXgXgXgXgXgXgXgXgXgXgXgXgXgXgXgXgXgXgXgXgXgXgXgXgXgXgXgXgXgXgXgXgXgXgXgXgXgXgXgXgXgXgXgXgXgXgXgXgXgXgX",
"gXgXgXgXgXgXgXgXgXgXgXgXgXgXgXgXgXgXgXgXgXgXgXgXgXgXgXgXgXgXgXgXgXgXgXgXgXgXgXgXgXgXgXgXgXgXgXgXgXgXgXgXgXgXgXgXgXgXgXgXgXgXgXgXgXgX",
"gXgXgXgXgXgXgXgXgXgXgXgXgXgXgXgXgXgXgXgXgXgXgXgXgXgXgXgXgXgXgXgXgXgXgXgXgXgXgXgXgXgXgXgXgXgXgXgXgXgXgXgXgXgXgXgXgXgXgXgXgXgXgXgXgXgX",
"gXgXgXgXgXgXgXgXgXgXgXgXgXgXgXgXgXgXgXgXgXgXgXgXgXgXgXgXgXgXgXgXgXgXgXgXgXgXgXgXgXgXgXgXgXgXgXgXgXgXgXgXgXgXgXgXgXgXgXgXgXgXgXgXgXgX",
"gXgXgXgXgXgXgXgXgXgXgXgXgXgXgXgXgXgXgXgXgXgXgXgXgXgXgXgXgXgXgXgXgXgXgXgXgXgXgXgXgXgXgXgXgXgXgXgXgXgXgXgXgXgXgXgXgXgXgXgXgXgXgXgXgXgX",
"gXgXgXgXgXgXgXgXgXgXgXgXgXgXgXgXgXgXgXgXgXgXgXgXgXgXgXgXgXgXgXgXgXgXgXgXgXgXgXgXgXgXgXgXgXgXgXgXgXgXgXgXgXgXgXgXgXgXgXgXgXgXgXgXgXgX",
"gXgXgXgXgXgXgXgXgXgXgXgXgXgXgXgXgXgXgXgXgXgXgXgXgXgXgXgXgXgX5 X.o.$.$.$.$.R | gXgXgXgXgXgXgXgXgXgXgXgXgXgXgXgXgXgXgXgXgXgXgXgXgXgXgX",
"gXgXgXgXgXgXgXgXgXgXgXgXgXgXgXgXgXgXgXgXgXgXgXgXgXgXgXgXgXgXa O.).`._.`.`. .Q..XgXgXgXgXgXgXgXgXgXgXgXgXgXgXgXgXgXgXgXgXgXgXgXgXgXgX",
"gXgXgXgXgXgXgXgXgXgXgXgXgXgXgXgXgXgXgXgXgXgXgXgXgXgXgXgXgX  R >X@X+X+XoXoXoXoXOX X^.+.gXgXgXgXgXgXgXgXgXgXgXgXgXgXgXgXgXgXgXgXgXgXgX",
"gXgXgXgXgXgXgXgXgXgXgXgXgXgXgXgXgXgXgXgXgXgXgXgXgXgXgXgX> b h.|.[.].].].].].].#X+X X).@.gXgXgXgXgXgXgXgXgXgXgXgXgXgXgXgXgXgXgXgXgXgX",
"gXgXgXgXgXgXgXgXgXgXgXgXgXgXgXgXgXgXgXgXgXgXgXgXgXgXgXX b A.B.B.C.C.C.C.F.V.H.}.OXOX X&XX.gXgXgXgXgXgXgXgXgXgXgXgXgXgXgXgXgXgXgXgXgX",
"gXgXgXgXgXgXgXgXgXgXgXgXgXgXgXgXgXgXgXgXgXgXgXgXgXgX; *.z.A.B.N.V.V.V.V.V.V.C.H.{.$X$X@XQ.y gXgXgXgXgXgXgXgXgXgXgXgXgXgXgXgXgXgXgXgX",
"gXgXgXgXgXgXgXgXgXgXgXgXgXgXgXgXgXgXgXgXgXgXgXgXgXo v S.A.A.A.A.Z.Z.A.A.A.A.C.N.G.&X'.XXQ.H gXgXgXgXgXgXgXgXgXgXgXgXgXgXgXgXgXgXgXgX",
"gXgXgXgXgXgXgXgXgXgXgXgXgXgXgXgXgXgXgXgXgXgXgXgX$ x >.S.B.A.A.A.Z.Z.A.A.A.A.C.N.D.j.W c J o.gXgXgXgXgXgXgXgXgXgXgXgXgXgXgXgXgXgXgXgX",
"gXgXgXgXgXgXgXgXgXgXgXgXgXgXgXgXgXgXgXgXgXgXgX+ o F J.Z.B.C.A.A.C.Z.C.C.A.A.A.B.Z.0.h   p %XgXgXgXgXgXgXgXgXgXgXgXgXgXgXgXgXgXgXgXgX",
"gXgXgXgXgXgXgXgXgXgXgXgXgXgXgXgXgXgXgXgXgXgXgX8 X B J.Z.B.A.A.A.Z.Z.C.Z.A.A.C.B.S.h.j   gXgXgXgXgXgXgXgXgXgXgXgXgXgXgXgXgXgXgXgXgXgX",
"gXgXgXgXgXgXgXgXgXgXgXgXgXgXgXgXgXgXgXgXgXgXgX~ , D g.c.M.A.A.A.Z.A.A.Z.A.C.A.l.v.g.M , ` gXgXgXgXgXgXgXgXgXgXgXgXgXgXgXgXgXgXgXgXgX",
"gXgXgXgXgXgXgXgXgXgXgXgXgXgXgXgXgXgXgXgX$.:X2XP.n 4.s.i.c.A.B.A.A.A.Z.A.A.B.M.,.u.f.=.Z U.3X%X$.gXgXgXgXgXgXgXgXgXgXgXgXgXgXgXgXgXgX",
"gXgXgXgXgXgXgXgXgXgXgXgXgXgXgXgXgXgXY @.3XdXwXU.-.4.p.p.c.B.B.A.Z.A.A.A.A.B.C.,.p.i.4.Z ;XrXeX0XgXgXgXgXgXgXgXgXgXgXgXgXgXgXgXgXgXgX",
"gXgXgXgXgXgXgXgXgXgXgXgXgXgXgXgXgXgXy #.qXdXwXU.Z 4.i.u.>.Z.B.A.A.A.A.A.A.A.m.>.u.s.=.Z -XrXrXeXgXgXgXgXgXgXgXgXgXgXgXgXgXgXgXgXgXgX",
"gXgXgXgXgXgXgXgXgXgXgXgXgXgXgXgXgXgXgXR +.=X=Xy.1.6.8.2.5.0.D.N.B.Z.A.B.B.b.w.5.5.s.5.Z Y.=X%.+.gXgXgXgXgXgXgXgXgXgXgXgXgXgXgXgXgXgX",
"gXgXgXgXgXgXgXgXgXgXgXgXgXgXgXgXgXgXgXgXy Y o.Q m 5.2.k S i.v.m.A.B.B.C.m.0.y.S m 2.2.S W o.H y gXgXgXgXgXgXgXgXgXgXgXgXgXgXgXgXgXgX",
"gXgXgXgXgXgXgXgXgXgXgXgXgXgXgXgXgXgXgXgXgXd H f P A m @ j s.f.0.m.N.B.l.8.h.3.1 @ Z F a d H gXgXgXgXgXgXgXgXgXgXgXgXgXgXgXgXgXgXgXgX",
"gXgXgXgXgXgXgXgXgXgXgXgXgXgXgXgXgXgXgXgXgXgXr  .W.Q 1   < s.f.s.c.z.l.,.i.f.u.@   j a.(.| r gXgXgXgXgXgXgXgXgXgXgXgXgXgXgXgXgXgXgXgX",
"gXgXgXgXgXgXgXgXgXgXgXgXgXgXgXgXgXgXgXgXgXgXo !.OXQ.- . 4 s.d.8.8.s.8.s.s.h.3.> . r (.OXR.  gXgXgXgXgXgXgXgXgXgXgXgXgXgXgXgXgXgXgXgX",
"gXgXgXgXgXgXgXgXgXgXgXgXgXgXgXgXgXgXgXgXgXgXgXG E.O.d . 3 5.9.s.i.i.i.i.s.9.2.; % X.~.R.c gXgXgXgXgXgXgXgXgXgXgXgXgXgXgXgXgXgXgXgXgX",
"gXgXgXgXgXgXgXgXgXgXgXgXgXgXgXgXgXgXgXgXgXgXgX  + E R . @ Z 5.s.s.s.8.s.s.2.k X & o.U . gXgXgXgXgXgXgXgXgXgXgXgXgXgXgXgXgXgXgXgXgXgX",
"gXgXgXgXgXgXgXgXgXgXgXgXgXgXgXgXgXgXgXgXgXgXgXgXgX+ O     : D j.d.6.s.d.d.S @     % . gXgXgXgXgXgXgXgXgXgXgXgXgXgXgXgXgXgXgXgXgXgXgX",
"gXgXgXgXgXgXgXgXgXgXgXgXgXgXgXgXgXgXgXgXgXgXgXgXgX2 2 1     l 9.s.s.i.9.6.3   X 1 2 $ gXgXgXgXgXgXgXgXgXgXgXgXgXgXgXgXgXgXgXgXgXgXgX",
"gXgXgXgXgXgXgXgXgXgXgXgXgXgXgXgXgXgXgXgXgXgXgXgX$ T.6XA @   3 5.9.s.s.9.2.:   , K.6XI.  gXgXgXgXgXgXgXgXgXgXgXgXgXgXgXgXgXgXgXgXgXgX",
"gXgXgXgXgXgXgXgXgXgXgXgXgXgXgXgXgXgXgXgXgXgXgX7 I.yX9XK.k 4 3 k 3.h.f.2.h , j k L.tX9X) 2 gXgXgXgXgXgXgXgXgXgXgXgXgXgXgXgXgXgXgXgXgX",
"gXgXgXgXgXgXgXgXgXgXgXgXgXgXgXgXgXgXgXgXgXgX  U.9XtX6X1.=.6.4 X N h.f.x   l 6.-.K.7XiX9X(   gXgXgXgXgXgXgXgXgXgXgXgXgXgXgXgXgXgXgXgX",
"gXgXgXgXgXgXgXgXgXgXgXgXgXgXgXgXgXgXgXgXgX9 &.uXiXT.I P y.0.4   M q.q.3   l h.Q a C <XdX8X_ 7   gXgXgXgXgXgXgXgXgXgXgXgXgXgXgXgXgXgX",
"gXgXgXgXgXgXgXgXgXgXgXgXgXgXgXgXgXgXgXgX  &.dXsX4X2   y a.u.< X h Z Z 3   x i.! t   I wXsXrX~   gXgXgXgXgXgXgXgXgXgXgXgXgXgXgXgXgXgX",
"gXgXgXgXgXgXgXgXgXgXgXgXgXgXgXgXgXgXgXgX  *XsXsX2XC v <.e.U s 0 + @ o * w f E t.<.z ( qXfXaX~   gXgXgXgXgXgXgXgXgXgXgXgXgXgXgXgXgXgX",
"gXgXgXgXgXgXgXgXgXgXgXgXgXgXgXgXgXgXgXgX  / 4X5X&.C :.V.n.L T K < > : c L T K m.V.-.) *X4X1XI   gXgXgXgXgXgXgXgXgXgXgXgXgXgXgXgXgXgX",
"gXgXgXgXgXgXgXgXgXgXgXgXgXgXgXgXgXgXgXgXgX# 8 8 # @ v B.S.l.x.x.z.z.k.z.x.x.m.B.F.g @ 7 8 8 gXgXgXgXgXgXgXgXgXgXgXgXgXgXgXgXgXgXgXgX",
"gXgXgXgXgXgXgXgXgXgXgXgXgXgXgXgXgXgXgXgXgXgX      % 6 -.k.Z.V.N.C.A.A.B.N.N.F.:.b & O       gXgXgXgXgXgXgXgXgXgXgXgXgXgXgXgXgXgXgXgX",
"gXgXgXgXgXgXgXgXgXgXgXgXgXgXgXgXgXgXgXgXgXgXgX  . u q X z 0.D.N.B.C.A.B.N.G.6., O u q     gXgXgXgXgXgXgXgXgXgXgXgXgXgXgXgXgXgXgXgXgX",
"gXgXgXgXgXgXgXgXgXgXgXgXgXgXgXgXgXgXgXgXgXgXgXgX. 0 0 = s ..~.r.;.*.*.;.E.~...q 0 0 -   gXgXgXgXgXgXgXgXgXgXgXgXgXgXgXgXgXgXgXgXgXgX",
"gXgXgXgXgXgXgXgXgXgXgXgXgXgXgXgXgXgXgXgXgXgXgXgXgX  + u ' [ } ] =     q [ } { ' q .   gXgXgXgXgXgXgXgXgXgXgXgXgXgXgXgXgXgXgXgXgXgXgX",
"gXgXgXgXgXgXgXgXgXgXgXgXgXgXgXgXgXgXgXgXgXgXgXgXgXgX. * 0 e e q O gXgX% q e q 0 % gXgXgXgXgXgXgXgXgXgXgXgXgXgXgXgXgXgXgXgXgXgXgXgXgX",
"gXgXgXgXgXgXgXgXgXgXgXgXgXgXgXgXgXgXgXgXgXgXgXgXgXgXgX          gXgXgXgX          gXgXgXgXgXgXgXgXgXgXgXgXgXgXgXgXgXgXgXgXgXgXgXgXgX",
"gXgXgXgXgXgXgXgXgXgXgXgXgXgXgXgXgXgXgXgXgXgXgXgXgXgXgXgXgXgXgXgXgXgXgXgXgXgXgXgXgXgXgXgXgXgXgXgXgXgXgXgXgXgXgXgXgXgXgXgXgXgXgXgXgXgX",
"gXgXgXgXgXgXgXgXgXgXgXgXgXgXgXgXgXgXgXgXgXgXgXgXgXgXgXgXgXgXgXgXgXgXgXgXgXgXgXgXgXgXgXgXgXgXgXgXgXgXgXgXgXgXgXgXgXgXgXgXgXgXgXgXgXgX",
"gXgXgXgXgXgXgXgXgXgXgXgXgXgXgXgXgXgXgXgXgXgXgXgXgXgXgXgXgXgXgXgXgXgXgXgXgXgXgXgXgXgXgXgXgXgXgXgXgXgXgXgXgXgXgXgXgXgXgXgXgXgXgXgXgXgX",
"gXgXgXgXgXgXgXgXgXgXgXgXgXgXgXgXgXgXgXgXgXgXgXgXgXgXgXgXgXgXgXgXgXgXgXgXgXgXgXgXgXgXgXgXgXgXgXgXgXgXgXgXgXgXgXgXgXgXgXgXgXgXgXgXgXgX",
"gXgXgXgXgXgXgXgXgXgXgXgXgXgXgXgXgXgXgXgXgXgXgXgXgXgXgXgXgXgXgXgXgXgXgXgXgXgXgXgXgXgXgXgXgXgXgXgXgXgXgXgXgXgXgXgXgXgXgXgXgXgXgXgXgXgX",
"gXgXgXgXgXgXgXgXgXgXgXgXgXgXgXgXgXgXgXgXgXgXgXgXgXgXgXgXgXgXgXgXgXgXgXgXgXgXgXgXgXgXgXgXgXgXgXgXgXgXgXgXgXgXgXgXgXgXgXgXgXgXgXgXgXgX",
"gXgXgXgXgXgXgXgXgXgXgXgXgXgXgXgXgXgXgXgXgXgXgXgXgXgXgXgXgXgXgXgXgXgXgXgXgXgXgXgXgXgXgXgXgXgXgXgXgXgXgXgXgXgXgXgXgXgXgXgXgXgXgXgXgXgX",
"gXgXgXgXgXgXgXgXgXgXgXgXgXgXgXgXgXgXgXgXgXgXgXgXgXgXgXgXgXgXgXgXgXgXgXgXgXgXgXgXgXgXgXgXgXgXgXgXgXgXgXgXgXgXgXgXgXgXgXgXgXgXgXgXgXgX",
"gXgXgXgXgXgXgXgXgXgXgXgXgXgXgXgXgXgXgXgXgXgXgXgXgXgXgXgXgXgXgXgXgXgXgXgXgXgXgXgXgXgXgXgXgXgXgXgXgXgXgXgXgXgXgXgXgXgXgXgXgXgXgXgXgXgX",
"gXgXgXgXgXgXgXgXgXgXgXgXgXgXgXgXgXgXgXgXgXgXgXgXgXgXgXgXgXgXgXgXgXgXgXgXgXgXgXgXgXgXgXgXgXgXgXgXgXgXgXgXgXgXgXgXgXgXgXgXgXgXgXgXgXgX",
"gXgXgXgXgXgXgXgXgXgXgXgXgXgXgXgXgXgXgXgXgXgXgXgXgXgXgXgXgXgXgXgXgXgXgXgXgXgXgXgXgXgXgXgXgXgXgXgXgXgXgXgXgXgXgXgXgXgXgXgXgXgXgXgXgXgX",
"gXgXgXgXgXgXgXgXgXgXgXgXgXgXgXgXgXgXgXgXgXgXgXgXgXgXgXgXgXgXgXgXgXgXgXgXgXgXgXgXgXgXgXgXgXgXgXgXgXgXgXgXgXgXgXgXgXgXgXgXgXgXgXgXgXgX",
"gXgXgXgXgXgXgXgXgXgXgXgXgXgXgXgXgXgXgXgXgXgXgXgXgXgXgXgXgXgXgXgXgXgXgXgXgXgXgXgXgXgXgXgXgXgXgXgXgXgXgXgXgXgXgXgXgXgXgXgXgXgXgXgXgXgX",
"gXgXgXgXgXgXgXgXgXgXgXgXgXgXgXgXgXgXgXgXgXgXgXgXgXgXgXgXgXgXgXgXgXgXgXgXgXgXgXgXgXgXgXgXgXgXgXgXgXgXgXgXgXgXgXgXgXgXgXgXgXgXgXgXgXgX",
"gXgXgXgXgXgXgXgXgXgXgXgXgXgXgXgXgXgXgXgXgXgXgXgXgXgXgXgXgXgXgXgXgXgXgXgXgXgXgXgXgXgXgXgXgXgXgXgXgXgXgXgXgXgXgXgXgXgXgXgXgXgXgXgXgXgX",
"gXgXgXgXgXgXgXgXgXgXgXgXgXgXgXgXgXgXgXgXgXgXgXgXgXgXgXgXgXgXgXgXgXgXgXgXgXgXgXgXgXgXgXgXgXgXgXgXgXgXgXgXgXgXgXgXgXgXgXgXgXgXgXgXgXgX",
"gXgXgXgXgXgXgXgXgXgXgXgXgXgXgXgXgXgXgXgXgXgXgXgXgXgXgXgXgXgXgXgXgXgXgXgXgXgXgXgXgXgXgXgXgXgXgXgXgXgXgXgXgXgXgXgXgXgXgXgXgXgXgXgXgXgX"
};
