/* XPM */
static char *result[] = {
/* columns rows colors chars-per-pixel */
"42 46 14 1 ",
"  c #000001",
". c #781028",
"X c #107828",
"o c #704020",
"O c #D82828",
"+ c #A07840",
"@ c #40A028",
"# c #10F808",
"$ c #F8F800",
"% c #D8A850",
"& c #D0B088",
"* c #B8F8A0",
"= c #F8E0B8",
"- c #489848",
/* pixels */
"------------------------------------------",
"------------------------------------------",
"------------------oo++++++oo--------------",
"------------------oo++++++oo--------------",
"----------------  %%$$$$$$$$$$++----------",
"----------------  %%$$$$$$$$$$++----------",
"--------------  ############$$$$++--------",
"--------------  ############$$$$++--------",
"------------  ################%%$$oo------",
"------------  ################%%$$oo------",
"----------  @@################@@  ++------",
"----------  @@################@@  ++------",
"----------  @@################@@  --------",
"----------  @@################@@  --------",
"------++&&XX@@@@############@@@@XX&&++----",
"------++&&XX@@@@############@@@@XX&&++----",
"----oo====XX@@@@############@@@@XX====----",
"----oo====XX@@@@############@@@@XX====----",
"------oo++XX@@XX@@########@@XX@@XX++oo----",
"------oo++XX@@XX@@########@@XX@@XX++oo----",
"--------ooooXX  @@@@####@@@@  XXoooo------",
"--------ooooXX  @@@@####@@@@  XXoooo------",
"--------  $$oo  @@@@@@@@@@@@  oo$$  ------",
"--------  $$oo  @@@@@@@@@@@@  oo$$  ------",
"----------  ++  XX@@@@@@@@XX  ++  --------",
"----------  ++  XX@@@@@@@@XX  ++  --------",
"------------      @@@@@@@@      ----------",
"------------      @@@@@@@@      ----------",
"----------  **XX  XX@@@@XX  XX**  --------",
"----------  **XX  XX@@@@XX  XX**  --------",
"--------  ****XX@@  @@@@  @@XX****  ------",
"--------  ****XX@@  @@@@  @@XX****  ------",
"------  ====  oo@@  XXXX  @@oo  ====  ----",
"------  ====  oo@@  XXXX  @@oo  ====  ----",
"------  ==&&XX##oooo    oooo##XX&&==  ----",
"------  ==&&XX##oooo    oooo##XX&&==  ----",
"--------      ################      ------",
"--------      ################      ------",
"----------  ..  @@########@@  ..  --------",
"----------  ..  @@########@@  ..  --------",
"------------  ..OOOO    OOOO..  ----------",
"------------  ..OOOO    OOOO..  ----------",
"--------------      ----      ------------",
"--------------      ----      ------------",
"------------------------------------------",
"------------------------------------------"
};
