/* XPM */
static char *result[] = {
/* columns rows colors chars-per-pixel */
"66 72 230 2 ",
"   c #000101",
".  c #010B01",
"X  c #090902",
"o  c #0B0707",
"O  c #1C0303",
"+  c #180A05",
"@  c #001100",
"#  c #031908",
"$  c #0A0711",
"%  c #1C0A17",
"&  c #161513",
"*  c #11190A",
"=  c #28050B",
"-  c #271404",
";  c #370314",
":  c #391B12",
">  c #320F0F",
",  c #073606",
"<  c #17360D",
"1  c #043112",
"2  c #173C10",
"3  c #08220C",
"4  c #3B250D",
"5  c #2F300E",
"6  c #1C162C",
"7  c #312632",
"8  c #510D0D",
"9  c #610015",
"0  c #4B3310",
"q  c #693A1B",
"w  c #7D102B",
"e  c #630E22",
"r  c #483B28",
"t  c #56342C",
"y  c #493432",
"u  c #633A23",
"i  c #7B3F26",
"p  c #004900",
"a  c #134C06",
"s  c #005A02",
"d  c #074918",
"f  c #1B4D14",
"g  c #065718",
"h  c #1B5818",
"j  c #215615",
"k  c #3D4400",
"l  c #007A03",
"z  c #0B7515",
"x  c #256818",
"c  c #32751E",
"v  c #2C4A2D",
"b  c #0B7428",
"n  c #0B7928",
"m  c #137927",
"M  c #086124",
"N  c #296F30",
"B  c #4D4511",
"V  c #694A1B",
"C  c #70401E",
"Z  c #607107",
"A  c #564628",
"S  c #514F2D",
"D  c #784923",
"F  c #67582B",
"G  c #734C32",
"H  c #4A6822",
"J  c #7A653E",
"K  c #676329",
"L  c #674D44",
"P  c #796A47",
"I  c #757262",
"U  c #48474A",
"Y  c #8C1A1A",
"T  c #8B142C",
"R  c #AE1D2C",
"E  c #B72220",
"W  c #CF2726",
"Q  c #F02D32",
"!  c #927517",
"~  c #874E29",
"^  c #8C5A39",
"/  c #9B6D3A",
"(  c #946B2C",
")  c #A26030",
"_  c #876644",
"`  c #9A7445",
"'  c #836B55",
"]  c #907053",
"[  c #A57C45",
"{  c #B87F52",
"}  c #8D7965",
"|  c #AD7E72",
" . c #008300",
".. c #188F19",
"X. c #05A705",
"o. c #10A80A",
"O. c #33B614",
"+. c #1D8328",
"@. c #17892C",
"#. c #188933",
"$. c #248928",
"%. c #2D952A",
"&. c #3C9524",
"*. c #3B9B28",
"=. c #369827",
"-. c #308B32",
";. c #28A32B",
":. c #3AAB24",
">. c #3DA429",
",. c #39A527",
"<. c #37B421",
"1. c #2FAC31",
"2. c #2C9919",
"3. c #41B504",
"4. c #6FBD1F",
"5. c #429D29",
"6. c #47972B",
"7. c #4E8D3D",
"8. c #43A228",
"9. c #46AA27",
"0. c #4EAC32",
"q. c #66961F",
"w. c #1DDD12",
"e. c #04DA0E",
"r. c #20DA14",
"t. c #2AC51A",
"y. c #1AE60E",
"u. c #03FD05",
"i. c #0CFD06",
"p. c #0FFA08",
"a. c #03F707",
"s. c #10F908",
"d. c #10F808",
"f. c #1DE210",
"g. c #0DE50B",
"h. c #2BF10F",
"j. c #41D20E",
"k. c #68C01A",
"l. c #5AE60C",
"z. c #61F50E",
"x. c #47CE2C",
"c. c #65D62A",
"v. c #4E8547",
"b. c #66895C",
"n. c #5CA05D",
"m. c #918B10",
"M. c #A98912",
"N. c #A6A900",
"B. c #AA8837",
"V. c #B89A35",
"C. c #B69227",
"Z. c #9DA82A",
"A. c #BCA324",
"S. c #D0B907",
"D. c #CAB71B",
"F. c #C8B410",
"G. c #C59936",
"H. c #C4A92A",
"J. c #D2B232",
"K. c #87F701",
"L. c #A9F903",
"P. c #BCD035",
"I. c #D6C400",
"U. c #DFD90B",
"Y. c #D6C719",
"T. c #E8DB12",
"R. c #DFF800",
"E. c #E7E805",
"W. c #EBF504",
"Q. c #FDFD01",
"!. c #F6F401",
"~. c #F3E616",
"^. c #FFF71C",
"/. c #EEE018",
"(. c #DFC42B",
"). c #EFCE2D",
"_. c #F9E225",
"`. c #8F8B5D",
"'. c #BB8655",
"]. c #AF8552",
"[. c #9D8773",
"{. c #AE8472",
"}. c #B28A74",
"|. c #BC9A78",
" X c #A18668",
".X c #83B475",
"XX c #8CAB77",
"oX c #C39844",
"OX c #EA9A5D",
"+X c #DDAD4B",
"@X c #E4B848",
"#X c #88C07D",
"$X c #DFCB52",
"%X c #DEC677",
"&X c #FBF76E",
"*X c #5156B1",
"=X c #7874A8",
"-X c #335AFF",
";X c #3662FF",
":X c #6371ED",
">X c #BC9885",
",X c #B2AD85",
"<X c #8891B5",
"1X c #C8AF85",
"2X c #D6B78D",
"3X c #D8B59B",
"4X c #D8AD8B",
"5X c #E2B880",
"6X c #D9BFA5",
"7X c #B2C995",
"8X c #E8C69A",
"9X c #E2C18E",
"0X c #CECBAB",
"qX c #F9DBB3",
"wX c #EED2B0",
"eX c #C5FCAC",
"rX c #D6FDB9",
"tX c #CFFFB5",
"yX c #FFE6B7",
"uX c #C8CE92",
"iX c #9498E1",
"pX c #DFFFC6",
"aX c #FEEAC6",
"sX c #FDF4C9",
"dX c #FDFFD5",
"fX c #D2D7F2",
"gX c #D8E7FF",
"hX c #FFFFF9",
"jX c #FFFBE0",
"kX c #489848",
/* pixels */
"kXkXkXkXkXkXkXkXkXkXkXkXkXkXkXkXkXkXkXkXkXkXkXkXkXkXkXkXkXkXkXkXkXkXkXkXkXkXkXkXkXkXkXkXkXkXkXkXkXkXkXkXkXkXkXkXkXkXkXkXkXkXkXkXkXkX",
"kXkXkXkXkXkXkXkXkXkXkXkXkXkXkXkXkXkXkXkXkXkXkXkXkXkXkXkXkXkXkXkXkXkXkXkXkXkXkXkXkXkXkXkXkXkXkXkXkXkXkXkXkXkXkXkXkXkXkXkXkXkXkXkXkXkX",
"kXkXkXkXkXkXkXkXkXkXkXkXkXkXkXkXkXkXkXkXkXkXkXkXkXkXkXkXkXkXkXkXkXkXkXkXkXkXkXkXkXkXkXkXkXkXkXkXkXkXkXkXkXkXkXkXkXkXkXkXkXkXkXkXkXkX",
"kXkXkXkXkXkXkXkXkXkXkXkXkXkXkXkXkXkXkXkXkXkXkXkXkXkXkXkXkXkXkXkXkXkXkXkXkXkXkXkXkXkXkXkXkXkXkXkXkXkXkXkXkXkXkXkXkXkXkXkXkXkXkXkXkXkX",
"kXkXkXkXkXkXkXkXkXkXkXkXkXkXkXkXkXkXkXkXkXkXkXkXkXkXkXkXkXkXkXkXkXkXkXkXkXkXkXkXkXkXkXkXkXkXkXkXkXkXkXkXkXkXkXkXkXkXkXkXkXkXkXkXkXkX",
"kXkXkXkXkXkXkXkXkXkXkXkXkXkXkXkXkXkXkXkXkXkXkXkXkXkXkXkXkXkXkXkXkXkXkXkXkXkXkXkXkXkXkXkXkXkXkXkXkXkXkXkXkXkXkXkXkXkXkXkXkXkXkXkXkXkX",
"kXkXkXkXkXkXkXkXkXkXkXkXkXkXkXkXkXkXkXkXkXkXkXkXkXkXkXkXkXkXkXkXkXkXkXkXkXkXkXkXkXkXkXkXkXkXkXkXkXkXkXkXkXkXkXkXkXkXkXkXkXkXkXkXkXkX",
"kXkXkXkXkXkXkXkXkXkXkXkXkXkXkXkXkXkXkXkXkXkXkXkXkXkXkXkXkXkXkXkXkXkXkXkXkXkXkXkXkXkXkXkXkXkXkXkXkXkXkXkXkXkXkXkXkXkXkXkXkXkXkXkXkXkX",
"kXkXkXkXkXkXkXkXkXkXkXkXkXkXkXkXkXkXkXkXkXkXkXkXkXkXkXkXkXkXkXkXkXkXkXkXkXkXkXkXkXkXkXkXkXkXkXkXkXkXkXkXkXkXkXkXkXkXkXkXkXkXkXkXkXkX",
"kXkXkXkXkXkXkXkXkXkXkXkXkXkXkXkXkXkXkXkXkXkXkXkXkXkXkXkXkXkXkXkXkXkXkXkXkXkXkXkXkXkXkXkXkXkXkXkXkXkXkXkXkXkXkXkXkXkXkXkXkXkXkXkXkXkX",
"kXkXkXkXkXkXkXkXkXkXkXkXkXkXkXkXkXkXkXkXkXkXkXkXkXkXkXkXkXkXkXkXkXkXkXkXkXkXkXkXkXkXkXkXkXkXkXkXkXkXkXkXkXkXkXkXkXkXkXkXkXkXkXkXkXkX",
"kXkXkXkXkXkXkXkXkXkXkXkXkXkXkXkXkXkXkXkXkXkXkXkXkXkXkXkXkXkXkXkXkXkXkXkXkXkXkXkXkXkXkXkXkXkXkXkXkXkXkXkXkXkXkXkXkXkXkXkXkXkXkXkXkXkX",
"kXkXkXkXkXkXkXkXkXkXkXkXkXkXkXkXkXkXkXkXkXkXkXkXkXkXkXkXkXkXkXkXkXkXkXkXkXkXkXkXkXkXkXkXkXkXkXkXkXkXkXkXkXkXkXkXkXkXkXkXkXkXkXkXkXkX",
"kXkXkXkXkXkXkXkXkXkXkXkXkXkXkXkXkXkXkXkXkXkXkXkXkXkXkXkXkXkXkXkXkXkXkXkXkXkXkXkXkXkXkXkXkXkXkXkXkXkXkXkXkXkXkXkXkXkXkXkXkXkXkXkXkXkX",
"kXkXkXkXkXkXkXkXkXkXkXkXkXkXkXkXkXkXkXkXkXkXkXkXkXkXkXkXkXkXkXkXkXkXkXkXkXkXkXkXkXkXkXkXkXkXkXkXkXkXkXkXkXkXkXkXkXkXkXkXkXkXkXkXkXkX",
"kXkXkXkXkXkXkXkXkXkXkXkXkXkXkXkXkXkXkXkXkXkXkXkXkXkXkXkXkXkXkXkXkXkXkXkXkXkXkXkXkXkXkXkXkXkXkXkXkXkXkXkXkXkXkXkXkXkXkXkXkXkXkXkXkXkX",
"kXkXkXkXkXkXkXkXkXkXkXkXkXkXkXkXkXkXkXkXkXkXkXkXkXkXkXkXkXkXkXkXkXkXkXkXkXkXkXkXkXkXkXkXkXkXkXkXkXkXkXkXkXkXkXkXkXkXkXkXkXkXkXkXkXkX",
"kXkXkXkXkXkXkXkXkXkXkXkXkXkXkXkXkXkXkXkXkXkXkXkXkX].^ i K 8.w.i.i.s.s.i.s.t.5.kXkXkXkXkXkXkXkXkXkXkXkXkXkXkXkXkXkXkXkXkXkXkXkXkXkXkX",
"kXkXkXkXkXkXkXkXkXkXkXkXkXkXkXkXkXkXkXkXkXkXkXkXkXJ.A.! q.t.g.i.s.s.d.p.s.r.<.>.kXkXkXkXkXkXkXkXkXkXkXkXkXkXkXkXkXkXkXkXkXkXkXkXkXkX",
"kXkXkXkXkXkXkXkXkXkXkXkXkXkXkXkXkXkXkXkXkXkX` '.@X/.!.!.K.a.a.d.s.s.s.s.p.p.y.O.6.8.%.kXkXkXkXkXkXkXkXkXkXkXkXkXkXkXkXkXkXkXkXkXkXkX",
"kXkXkXkXkXkXkXkXkXkXkXkXkXkXkXkXkXkXkXkXkXB.D.(._.Q.Q._.P.c.h.u.i.s.d.d.d.i.i.y.t.9.%.b kXkXkXkXkXkXkXkXkXkXkXkXkXkXkXkXkXkXkXkXkXkX",
"kXkXkXkXkXkXkXkXkXkXkXkXkXkXkXkXkXkXkXkX[ D.Q.Q.Q.!./.+XOX+Xc.u.a.s.d.s.d.i.d.i.f.9.-.m b kXkXkXkXkXkXkXkXkXkXkXkXkXkXkXkXkXkXkXkXkX",
"kXkXkXkXkXkXkXkXkXkXkXkXkXkXkXkXkXkX[ V.D.!.Q.^.).G.D.(.)._.l.u.a.d.d.d.d.i.i.w.O.8.6.%.+.n kXkXkXkXkXkXkXkXkXkXkXkXkXkXkXkXkXkXkXkX",
"kXkXkXkXkXkXkXkXkXkXkXkXkXkXkXkXkXkX/ H.Q.Q.~.J.{ ] V.!.Q.Q.K.h.d.p.i.d.d.d.f.:.6.5.9.8.-.b kXkXkXkXkXkXkXkXkXkXkXkXkXkXkXkXkXkXkXkX",
"kXkXkXkXkXkXkXkXkXkXkXkXkXkXkXkXkXkXD M.Q.^.@X( ~ | $XQ.Q.Q.R.L.h.u.i.u.i.r.:.5.5.>.8.8.$.b kXkXkXkXkXkXkXkXkXkXkXkXkXkXkXkXkXkXkXkX",
"kXkXkXkXkXkXkXkXkXkXkXkXkXkXkXkXkXkXq ! Y.(.'.^ _ >X%X(.E.Q.Q.!.l.g.w.f.f.<.6.5.8.8.8.8.%.+.m kXkXkXkXkXkXkXkXkXkXkXkXkXkXkXkXkXkXkX",
"kXkXkXkXkXkXkXkXkXkXkXkXkXkXkXkXkXkXkXkXB.( ~ ].1X2X|./ D.!.Q.E.k.%.:.:.:.>.5.8.9.8.8.8.5.*.$.b kXkXkXkXkXkXkXkXkXkXkXkXkXkXkXkXkXkX",
"kXkXkXkXkXkXkXkXkXkXkXkXkXkXkXkXkXkXkXkX[ t : } qXyX3X{.H.Q.Q.W.Z.7.6.6.6.5.5.=.$.%.*.8.9.5.$.@.kXkXkXkXkXkXkXkXkXkXkXkXkXkXkXkXkXkX",
"kXkXkXkXkXkXkXkXkXkXkXkXkXkXkXkXkXkXkXkXkXkX  P 8XyXwX3X$X~.Q.~.G._ 6.,.8.8.&.$.b b +.5.9.5.+.m kXkXkXkXkXkXkXkXkXkXkXkXkXkXkXkXkXkX",
"kXkXkXkXkXkXkXkXkXkXkXkXkXkXkXkXkXkXkXkXkXkX  q / A I 6X&XQ.U.C.) F m @.2...z n M 1 d m >.&.h 1 kXkXkXkXkXkXkXkXkXkXkXkXkXkXkXkXkXkX",
"kXkXkXkXkXkXkXkXkXkXkXkXkXkXkXkXkXkXkXkXkXo & t t $ U 0X&XE.H.^ D A N >.0.1.#.#.g   # b 1.&.<   kXkXkXkXkXkXkXkXkXkXkXkXkXkXkXkXkXkX",
"kXkXkXkXkXkXkXkXkXkXkXkXkXkXkXkXkXkXkXkX  A  X*X*X<X0XaX9XV.oX'.~ G `.,XuX0X7Xn.g   # n 1.&.<   kXkXkXkXkXkXkXkXkXkXkXkXkXkXkXkXkXkX",
"kXkXkXkXkXkXkXkXkXkXkXkXkXkXkXkXkXkXkXkX  _ wX:X-XgXhXsX|.^ G.J.V G 2XaXaXsX8Xv.,   # g %.5.2   kXkXkXkXkXkXkXkXkXkXkXkXkXkXkXkXkXkX",
"kXkXkXkXkXkXkXkXkXkXkXkXkXkXkXkXkXkXkXkX  J 8X:X-XfXhXaX}.D S.U.5 7 6XdXaX9X].5 . kXkX@ c 5.2   kXkXkXkXkXkXkXkXkXkXkXkXkXkXkXkXkXkX",
"kXkXkXkXkXkXkXkXkXkXkXkXkXkXkXkXkXkXkXkX  r ' =XiXfXjXsX}.q I.E.5 6 8XyX9X] 4     kXkX  h %.2   kXkXkXkXkXkXkXkXkXkXkXkXkXkXkXkXkXkX",
"kXkXkXkXkXkXkXkXkXkXkXkXkXkXkXkXkXkXkXkXkXkX$ ' 8XqXsXaX{.D S.E.5 & >X2X[ 0       kXkX  d b 1   kXkXkXkXkXkXkXkXkXkXkXkXkXkXkXkXkXkX",
"kXkXkXkXkXkXkXkXkXkXkXkXkXkXkXkXkXkXkXkXkXkXkX5 ] 9XyXqX| D I.E.B $ y u 0 t ( m.m.kXkXkX# 1 # kXkXkXkXkXkXkXkXkXkXkXkXkXkXkXkXkXkXkX",
"kXkXkXkXkXkXkXkXkXkXkXkXkXkXkXkXkXkXkXkXkXkXkXo X ] 2X,X' q S.T.B   .     G @X^.Q.kXkXkX    kXkXkXkXkXkXkXkXkXkXkXkXkXkXkXkXkXkXkXkX",
"kXkXkXkXkXkXkXkXkXkXkXkXkXkXkXkXkXkXkXkXkXkXkXkXkX& S v.v O B.).5 . x m d < V U.kXkXkXkXkXkXkXkXkXkXkXkXkXkXkXkXkXkXkXkXkXkXkXkXkXkX",
"kXkXkXkXkXkXkXkXkXkXkXkXkXkXkXkXkXkXkXkXkXkXkXkXkX. , z g 3 G / : * c 1.#.3   kXkXkXkXkXkXkXkXkXkXkXkXkXkXkXkXkXkXkXkXkXkXkXkXkXkXkX",
"kXkXkXkXkXkXkXkXkXkXkXkXkXkXkXkXkXkXkXkXkXkXkXkX  j 8.%.>.&.2 O 8 8 # h *.f   kXkXkXkXkXkXkXkXkXkXkXkXkXkXkXkXkXkXkXkXkXkXkXkXkXkXkX",
"kXkXkXkXkXkXkXkXkXkXkXkXkXkXkXkXkXkXkXkXkXkXkX0 Z 0.x.0.=.c v v `.J X , 9.j   kXkXkXkXkXkXkXkXkXkXkXkXkXkXkXkXkXkXkXkXkXkXkXkXkXkXkX",
"kXkXkXkXkXkXkXkXkXkXkXkXkXkXkXkXkXkXkXkXkXkXX N.W.k.;.9.a . b.eXtX.X* , :.j   kXkXkXkXkXkXkXkXkXkXkXkXkXkXkXkXkXkXkXkXkXkXkXkXkXkXkX",
"kXkXkXkXkXkXkXkXkXkXkXkXkXkXkXkXkXkXkXkXkX  X S.Q.m.S K -   b.pXpX#X& + F H f # kXkXkXkXkXkXkXkXkXkXkXkXkXkXkXkXkXkXkXkXkXkXkXkXkXkX",
"kXkXkXkXkXkXkXkXkXkXkXkXkXkXkXkXkXkXkXkXkXkXX N.!.m.u D -   b.tXrX.X* + V q.*.<   kXkXkXkXkXkXkXkXkXkXkXkXkXkXkXkXkXkXkXkXkXkXkXkXkX",
"kXkXkXkXkXkXkXkXkXkXkXkXkXkXkXkXkXkXkXkXkX  @ O.z.t.O.O.a . b.eXtX.X& , O.x.0.2   kXkXkXkXkXkXkXkXkXkXkXkXkXkXkXkXkXkXkXkXkXkXkXkXkX",
"kXkXkXkXkXkXkXkXkXkXkXkXkXkXkXkXkXkXkXkXkXkX. l e.u.i.i. .  I tXrXXX% s i.f.c 3   kXkXkXkXkXkXkXkXkXkXkXkXkXkXkXkXkXkXkXkXkXkXkXkXkX",
"kXkXkXkXkXkXkXkXkXkXkXkXkXkXkXkXkXkXkXkXkXkXkX# s g.p.s. .  } sXdX>X% s p.o.* kXkXkXkXkXkXkXkXkXkXkXkXkXkXkXkXkXkXkXkXkXkXkXkXkXkXkX",
"kXkXkXkXkXkXkXkXkXkXkXkXkXkXkXkXkXkXkXkXkXkXkXkX  l X.X.p   [.dXdX>X% p o.p   kXkXkXkXkXkXkXkXkXkXkXkXkXkXkXkXkXkXkXkXkXkXkXkXkXkXkX",
"kXkXkXkXkXkXkXkXkXkXkXkXkXkXkXkXkXkXkXkXkXkXkXkXkX. @ @ .   [.dXyX X& . @ . kXkXkXkXkXkXkXkXkXkXkXkXkXkXkXkXkXkXkXkXkXkXkXkXkXkXkXkX",
"kXkXkXkXkXkXkXkXkXkXkXkXkXkXkXkXkXkXkXkXkXkXkXkXkX9 9 ; ; ; L } ' r o     kXkXkXkXkXkXkXkXkXkXkXkXkXkXkXkXkXkXkXkXkXkXkXkXkXkXkXkXkX",
"kXkXkXkXkXkXkXkXkXkXkXkXkXkXkXkXkXkXkXkXkXkXkX  = E W T w w =           kXkXkXkXkXkXkXkXkXkXkXkXkXkXkXkXkXkXkXkXkXkXkXkXkXkXkXkXkXkX",
"kXkXkXkXkXkXkXkXkXkXkXkXkXkXkXkXkXkXkXkXkXkXkX  = W Q Q R T =       kXkXkXkXkXkXkXkXkXkXkXkXkXkXkXkXkXkXkXkXkXkXkXkXkXkXkXkXkXkXkXkX",
"kXkXkXkXkXkXkXkXkXkXkXkXkXkXkXkXkXkXkXkXkXkXkX  + Y W W R e =       kXkXkXkXkXkXkXkXkXkXkXkXkXkXkXkXkXkXkXkXkXkXkXkXkXkXkXkXkXkXkXkX",
"kXkXkXkXkXkXkXkXkXkXkXkXkXkXkXkXkXkXkXkXkXkXkXkXkX= > > = O o kXkXkXkXkXkXkXkXkXkXkXkXkXkXkXkXkXkXkXkXkXkXkXkXkXkXkXkXkXkXkXkXkXkXkX",
"kXkXkXkXkXkXkXkXkXkXkXkXkXkXkXkXkXkXkXkXkXkXkXkXkX          kXkXkXkXkXkXkXkXkXkXkXkXkXkXkXkXkXkXkXkXkXkXkXkXkXkXkXkXkXkXkXkXkXkXkXkX",
"kXkXkXkXkXkXkXkXkXkXkXkXkXkXkXkXkXkXkXkXkXkXkXkXkXkXkXkXkXkXkXkXkXkXkXkXkXkXkXkXkXkXkXkXkXkXkXkXkXkXkXkXkXkXkXkXkXkXkXkXkXkXkXkXkXkX",
"kXkXkXkXkXkXkXkXkXkXkXkXkXkXkXkXkXkXkXkXkXkXkXkXkXkXkXkXkXkXkXkXkXkXkXkXkXkXkXkXkXkXkXkXkXkXkXkXkXkXkXkXkXkXkXkXkXkXkXkXkXkXkXkXkXkX",
"kXkXkXkXkXkXkXkXkXkXkXkXkXkXkXkXkXkXkXkXkXkXkXkXkXkXkXkXkXkXkXkXkXkXkXkXkXkXkXkXkXkXkXkXkXkXkXkXkXkXkXkXkXkXkXkXkXkXkXkXkXkXkXkXkXkX",
"kXkXkXkXkXkXkXkXkXkXkXkXkXkXkXkXkXkXkXkXkXkXkXkXkXkXkXkXkXkXkXkXkXkXkXkXkXkXkXkXkXkXkXkXkXkXkXkXkXkXkXkXkXkXkXkXkXkXkXkXkXkXkXkXkXkX",
"kXkXkXkXkXkXkXkXkXkXkXkXkXkXkXkXkXkXkXkXkXkXkXkXkXkXkXkXkXkXkXkXkXkXkXkXkXkXkXkXkXkXkXkXkXkXkXkXkXkXkXkXkXkXkXkXkXkXkXkXkXkXkXkXkXkX",
"kXkXkXkXkXkXkXkXkXkXkXkXkXkXkXkXkXkXkXkXkXkXkXkXkXkXkXkXkXkXkXkXkXkXkXkXkXkXkXkXkXkXkXkXkXkXkXkXkXkXkXkXkXkXkXkXkXkXkXkXkXkXkXkXkXkX",
"kXkXkXkXkXkXkXkXkXkXkXkXkXkXkXkXkXkXkXkXkXkXkXkXkXkXkXkXkXkXkXkXkXkXkXkXkXkXkXkXkXkXkXkXkXkXkXkXkXkXkXkXkXkXkXkXkXkXkXkXkXkXkXkXkXkX",
"kXkXkXkXkXkXkXkXkXkXkXkXkXkXkXkXkXkXkXkXkXkXkXkXkXkXkXkXkXkXkXkXkXkXkXkXkXkXkXkXkXkXkXkXkXkXkXkXkXkXkXkXkXkXkXkXkXkXkXkXkXkXkXkXkXkX",
"kXkXkXkXkXkXkXkXkXkXkXkXkXkXkXkXkXkXkXkXkXkXkXkXkXkXkXkXkXkXkXkXkXkXkXkXkXkXkXkXkXkXkXkXkXkXkXkXkXkXkXkXkXkXkXkXkXkXkXkXkXkXkXkXkXkX",
"kXkXkXkXkXkXkXkXkXkXkXkXkXkXkXkXkXkXkXkXkXkXkXkXkXkXkXkXkXkXkXkXkXkXkXkXkXkXkXkXkXkXkXkXkXkXkXkXkXkXkXkXkXkXkXkXkXkXkXkXkXkXkXkXkXkX",
"kXkXkXkXkXkXkXkXkXkXkXkXkXkXkXkXkXkXkXkXkXkXkXkXkXkXkXkXkXkXkXkXkXkXkXkXkXkXkXkXkXkXkXkXkXkXkXkXkXkXkXkXkXkXkXkXkXkXkXkXkXkXkXkXkXkX",
"kXkXkXkXkXkXkXkXkXkXkXkXkXkXkXkXkXkXkXkXkXkXkXkXkXkXkXkXkXkXkXkXkXkXkXkXkXkXkXkXkXkXkXkXkXkXkXkXkXkXkXkXkXkXkXkXkXkXkXkXkXkXkXkXkXkX",
"kXkXkXkXkXkXkXkXkXkXkXkXkXkXkXkXkXkXkXkXkXkXkXkXkXkXkXkXkXkXkXkXkXkXkXkXkXkXkXkXkXkXkXkXkXkXkXkXkXkXkXkXkXkXkXkXkXkXkXkXkXkXkXkXkXkX",
"kXkXkXkXkXkXkXkXkXkXkXkXkXkXkXkXkXkXkXkXkXkXkXkXkXkXkXkXkXkXkXkXkXkXkXkXkXkXkXkXkXkXkXkXkXkXkXkXkXkXkXkXkXkXkXkXkXkXkXkXkXkXkXkXkXkX",
"kXkXkXkXkXkXkXkXkXkXkXkXkXkXkXkXkXkXkXkXkXkXkXkXkXkXkXkXkXkXkXkXkXkXkXkXkXkXkXkXkXkXkXkXkXkXkXkXkXkXkXkXkXkXkXkXkXkXkXkXkXkXkXkXkXkX",
"kXkXkXkXkXkXkXkXkXkXkXkXkXkXkXkXkXkXkXkXkXkXkXkXkXkXkXkXkXkXkXkXkXkXkXkXkXkXkXkXkXkXkXkXkXkXkXkXkXkXkXkXkXkXkXkXkXkXkXkXkXkXkXkXkXkX"
};
