/* XPM */
static char *result[] = {
/* columns rows colors chars-per-pixel */
"64 64 247 2 ",
"   c #010001",
".  c #0B0101",
"X  c #010A0C",
"o  c #07070A",
"O  c #120203",
"+  c #160C03",
"@  c #1A1809",
"#  c #0A0F11",
"$  c #000214",
"%  c #00131B",
"&  c #091618",
"*  c #181819",
"=  c #250202",
"-  c #380304",
";  c #2B1C10",
":  c #02231F",
">  c #12241D",
",  c #342914",
"<  c #33290A",
"1  c #081D26",
"2  c #151E22",
"3  c #012322",
"4  c #012C2C",
"5  c #082928",
"6  c #162C2B",
"7  c #072C36",
"8  c #132B36",
"9  c #0C353A",
"0  c #053638",
"q  c #113539",
"w  c #0C362E",
"e  c #363233",
"r  c #2D312E",
"t  c #460E0B",
"y  c #56130C",
"u  c #5A1311",
"i  c #66170D",
"p  c #781911",
"a  c #620C00",
"s  c #573907",
"d  c #4E330D",
"f  c #633B00",
"g  c #663A00",
"h  c #6B3D19",
"j  c #77370C",
"k  c #463939",
"l  c #663132",
"z  c #2B473A",
"x  c #56440B",
"c  c #6C4400",
"v  c #774800",
"b  c #7A5401",
"n  c #7B5212",
"m  c #7A6112",
"M  c #57482B",
"N  c #57522E",
"B  c #564E34",
"V  c #4F5335",
"C  c #6B5C27",
"Z  c #755628",
"A  c #665434",
"S  c #674526",
"D  c #77713C",
"F  c #0E3D43",
"G  c #063846",
"H  c #123B45",
"J  c #173B48",
"K  c #0C374E",
"L  c #363944",
"P  c #15414D",
"I  c #1A4656",
"U  c #0B4247",
"Y  c #26474A",
"T  c #234759",
"R  c #2F544F",
"E  c #316F5C",
"W  c #1C4C63",
"Q  c #17537A",
"!  c #224E61",
"~  c #25546B",
"^  c #255569",
"/  c #2A5B74",
"(  c #285B76",
")  c #315B6B",
"_  c #377560",
"`  c #387662",
"'  c #2C617C",
"]  c #2C6173",
"[  c #366379",
"{  c #554948",
"}  c #425B59",
"|  c #53534B",
" . c #675858",
".. c #785C5C",
"X. c #4B7359",
"o. c #516B54",
"O. c #71734B",
"+. c #496A63",
"@. c #5C6865",
"#. c #5B7668",
"$. c #4D7770",
"%. c #7C6B6B",
"&. c #63796B",
"*. c #756C6D",
"=. c #881A15",
"-. c #91160E",
";. c #992717",
":. c #902E0D",
">. c #BB3419",
",. c #AD2B16",
"<. c #C5361E",
"1. c #835904",
"2. c #97561D",
"3. c #864A10",
"4. c #A9591A",
"5. c #986907",
"6. c #926B0D",
"7. c #AA6B06",
"8. c #B37508",
"9. c #A77816",
"0. c #AF6E13",
"q. c #8D5220",
"w. c #91792E",
"e. c #B66823",
"r. c #AF6E27",
"t. c #D8421E",
"y. c #FF5912",
"u. c #EE4B13",
"i. c #FF6211",
"p. c #EC4C26",
"a. c #C57426",
"s. c #D74421",
"d. c #877777",
"f. c #937E7E",
"g. c #956D6A",
"h. c #3C8C73",
"j. c #3B927A",
"k. c #3F866E",
"l. c #408870",
"z. c #469479",
"x. c #48997E",
"c. c #449378",
"v. c #40876F",
"b. c #BD8819",
"n. c #B98E12",
"m. c #9C8536",
"M. c #AB892F",
"N. c #C99818",
"B. c #CE980F",
"V. c #DAA719",
"C. c #E3AD14",
"Z. c #E9B617",
"A. c #E3A909",
"S. c #D58827",
"D. c #CC9326",
"F. c #E89429",
"G. c #E5B523",
"H. c #F2B724",
"J. c #D4A73A",
"K. c #FED219",
"L. c #FFFF1F",
"P. c #F6C823",
"I. c #F4CB32",
"U. c #F5CD2F",
"Y. c #FFFB29",
"T. c #FFED32",
"R. c #8E8651",
"E. c #AC9757",
"W. c #B29747",
"Q. c #B4AB66",
"!. c #ABA169",
"~. c #CBBA6E",
"^. c #D8B044",
"/. c #DCD541",
"(. c #EED24F",
"). c #E8D76D",
"_. c #E0D771",
"`. c #FBF07B",
"'. c #2C6684",
"]. c #366A87",
"[. c #397897",
"{. c #3F7487",
"}. c #387BAA",
"|. c #1B5D87",
" X c #42768B",
".X c #447C95",
"XX c #457C97",
"oX c #657D84",
"OX c #9B7F83",
"+X c #3A8E96",
"@X c #4B9E82",
"#X c #4C849C",
"$X c #49819A",
"%X c #50879F",
"&X c #50B092",
"*X c #4887A7",
"=X c #5189A2",
"-X c #548FA8",
";X c #5690A9",
":X c #5993AB",
">X c #4B92B7",
",X c #5897B5",
"<X c #4387B3",
"1X c #6B9BB3",
"2X c #5EA1BE",
"3X c #668689",
"4X c #4E99C2",
"5X c #62A4C4",
"6X c #948484",
"7X c #9C898A",
"8X c #8E998C",
"9X c #A39393",
"0X c #AC9B9B",
"qX c #AB9697",
"wX c #A08E8E",
"eX c #B1B38C",
"rX c #B5A5A5",
"tX c #B7ABAB",
"yX c #BBB7B7",
"uX c #A49FA0",
"iX c #C6B5B5",
"pX c #D2BFBF",
"aX c #C0ADAD",
"sX c #C1B480",
"dX c #D2D492",
"fX c #EAD994",
"gX c #EDEE8A",
"hX c #F4EC94",
"jX c #D2DAB5",
"kX c #FFFFAC",
"lX c #FFFFA4",
"zX c #FFFEB8",
"xX c #E1DB9E",
"cX c #D7C6C6",
"vX c #D6D1D1",
"bX c #CECACA",
"nX c #E9DBDB",
"mX c #EBDDD1",
"MX c #FFFFD8",
"NX c #FFFFC0",
"BX c #EAE1E1",
"VX c #F2E5E5",
"CX c #FFFFFF",
"ZX c #FBF6F4",
"AX c #F2FDF5",
"SX c #DDE8F6",
"DX c #489848",
/* pixels */
"DXDXDXDXDXDXDXDXDXDXDXDXDXDXDXDXDXDXDXDXDXDXDXDXDXDXDXDXDXDXDXDXDXDXDXDXDXDXDXDXDXDXDXDXDXDXDXDXDXDXDXDXDXDXDXDXDXDXDXDXDXDXDXDX",
"DXDXDXDXDXDXDXDXDXDXDXDXDXDXDXDXDXDXDXDXDXDXDXDXDXDXDXDXDXDXDXDXDXDXDXDXDXDXDXDXDXDXDXDXDXDXDXDXDXDXDXDXDXDXDXDXDXDXDXDXDXDXDXDX",
"DXDXDXDXDXDXDXDXDXDXDXDXDXDXDXDXDXDXDXDXDXDXDXDXDXDXDXDXDXDXDXDXDXDXDXDXDXDXDXDXDXDXDXDXDXDXDXDXDXDXDXDXDXDXDXDXDXDXDXDXDXDXDXDX",
"DXDXDXDXDXDXDXDXDXDXDXDXDXDXDXDXDXDXDXDXDXDXDXDXDXDXDXDXDXDXDXDXDXDXDXDXDXDXDXDXDXDXDXDXDXDXDXDXDXDXDXDXDXDXDXDXDXDXDXDXDXDXDXDX",
"DXDXDXDXDXDXDXDXDXDXDXDXDXDXDXDXDXDXDXDXDXDXDXDXDXDXDXDXDXDXDXDXDXDXDXDXDXDXDXDXDXDXDXDXDXDXDXDXDXDXDXDXDXDXDXDXDXDXDXDXDXDXDXDX",
"DXDXDXDXDXDXDXDXDXDXDXDXDXDXDXDXDXDXDXDXDXDXDXDXDXDXDXDXDXDXDXDXDXDXDXDXDXDXDXDXDXDXDXDXDXDXDXDXDXDXDXDXDXDXDXDXDXDXDXDXDXDXDXDX",
"DXDXDXDXDXDXDXDXDXDXDXDXDXDXDXDXDXDXDXDXDXDXDXDXDXDXDXDXDXDXDXDXDXDXDXDXDXDXDXDXDXDXDXDXDXDXDXDXDXDXDXDXDXDXDXDXDXDXDXDXDXDXDXDX",
"DXDXDXDXDXDXDXDXDXDXDXDXDXDXDXDXDXDXDXDXDXDXDXDXDXDXDXDXDXDXDXDXDXDXDXDXDXDXDXDXDXDXDXDXDXDXDXDXDXDXDXDXDXDXDXDXDXDXDXDXDXDXDXDX",
"DXDXDXDXDXDXDXDXDXDXDXDXDXDXDXDXDXDXDXDXDXDXDXDXDXDXDXDXDXDXDXDXDXDXDXDXDXDXDXDXDXDXDXDXDXDXDXDXDXDXDXDXDXDXDXDXDXDXDXDXDXDXDXDX",
"DXDXDXDXDXDXDXDXDXDXDXDXDXDXDXDXDXDXDXDXDXDXDXDXDXDXDXDXDXDXf f c b DXDXDXDXDXDXDXDXDXDXDXDXDXDXDXDXDXDXDXDXDXDXDXDXDXDXDXDXDXDX",
"DXDXDXDXDXDXDXDXDXDXDXDXDXDXDXDXDXDXDXDXDXDXDXDXDXDXDXf 7.D.~.~.W.v DXDXDXDXDXDXDXDXDXDXDXDXDXDXDXDXDXDXDXDXDXDXDXDXDXDXDXDXDXDX",
"DXDXDXDXDXDXDXDXDXDXDXDXDXDXDXDXDXDXDXDXDXDXDXDXDXDXDXm 9.J.lXkX_.s DXDXDXDXDXDXDXDXDXDXDXDXDXDXDXDXDXDXDXDXDXDXDXDXDXDXDXDXDXDX",
"DXDXDXDXDXDXDXDXDXDXDXDXDXDXDXDXDXDXDXDXDXDXDXDXf 5.J.kXkXgXC.K.n.  DXDXDXDXDXDXDXDXDXDXDXDXDXDXDXDXDXDXDXDXDXDXDXDXDXDXDXDXDXDX",
"DXDXDXDXDXDXDXDXDXDXDXDXDXDXDXDXDXDXDXDXDX  X @ B.8.D.(.(.(.Z.P.N.< c b v DXDXDXDXDXDXDXDXDXDXDXDXDXDXDXDXDXDXDXDXDXDXDXDXDXDXDX",
"DXDXDXDXDXDXDXDXDXDXDXDXDXDXDXDXDXDXDXDXDX& o d T.D.b.C.A.V.G.C.N.1.5.1.b DXDXDXDXDXDXDXDXDXDXDXDXDXDXDXDXDXDXDXDXDXDXDXDXDXDXDX",
"DXDXDXDXDXDXDXDXDXDXDXDXDXDXDXDXDXDXDX4 9 Q s 7.NXU.B.7.8.7.8.1.5.P.Z.V.9.b.6.g c c DXDXDXDXDXDXDXDXDXDXDXDXDXDXDXDXDXDXDXDXDXDX",
"DXDXDXDXDXDXDXDXDXDXDXDXDXDXDXDXDXDX3 4 I XX$.O.w.(.`.).).).).M d P.Z.C.B.V.N.n.n.n.f DXDXDXDXDXDXDXDXDXDXDXDXDXDXDXDXDXDXDXDXDX",
"DXDXDXDXDXDXDXDXDXDXDXDXDXDXDXDXDXDXY w J :X4X#Xs Q.hXgXgXhXlX6 @ I.I.I.I.P.P.K.U.V.1.DXDXDXDXDXDXDXDXDXDXDXDXDXDXDXDXDXDXDXDXDX",
"DXDXDXDXDXDXDXDXDXDXDXDXDXs x 6.DXDXMXA $ 2X,X:X,XC :.j v v 3.& +.lXlXlXzXI.A.Z.Z.P.Y.6.c DXDXDXDXDXDXDXDXDXDXDXDXDXDXDXDXDXDXDX",
"DXDXDXDXDXDXDXDXDXDXDXDXDXm w.jX) % &.*   1 I / ].$.#.#.#.&.&.T R o.V N M _.`.`.G.P.Y.5.v DXDXDXDXDXDXDXDXDXDXDXDXDXDXDXDXDXDXDX",
"DXDXDXDXDXDXDXDXDXDXDXDXDXw.E.CX3X$ G J r ; & 9 W [.4X>X>X>X>X[.W %       !.dXdX/.U.T.m s DXDXDXDXDXDXDXDXDXDXDXDXDXDXDXDXDXDXDX",
"DXDXDXDXDXDXDXDXDXDXDXDXDXw.E.CXoX7 [.AXCXzXB   0 '.<X#X=X=X=X<X'.4 9 F H   X   dXkXkX,   DXDXDXDXDXDXDXDXDXDXDXDXDXDXDXDXDXDXDX",
"DXDXDXDXDXDXDXDXDXDXDXDXDX< M MX#.G ,X} ..ZX{   1 eXjX[.[.XX[.jXeXX P ^ ! T J 3 V B M Y H 4 DXDXDXDXDXDXDXDXDXDXDXDXDXDXDXDXDXDX",
"DXDXDXDXDXDXDXDXDXDXDXDXDXDX# hXO.H =X% > SX@.& 1 !.xX1X1X1X,XxXQ.  T '.( '.~ P       ( / 4 DXDXDXDXDXDXDXDXDXDXDXDXDXDXDXDXDXDX",
"DXDXDXDXDXDXDXDXDXDXDXDXDXDXDXm.M.w.7  X5X}.4X X    e CXCXCXCXL     T ( ~ ~ ~ / 4 G ].' T 9 DXDXDXDXDXDXDXDXDXDXDXDXDXDXDXDXDXDX",
"DXDXDXDXDXDXDXDXDXDXDXDXDXDXDX, @ + G G I w.O.O.Z r 7 { { | { C A J I / XXXX.X.X~ F 0 ~ / ! # DXDXDXDXDXDXDXDXDXDXDXDXDXDXDXDXDX",
"DXDXDXDXDXDXDXDXDXDXDXDXDXDXDX  * r z T } W.W.M.M.} 7         C R.|./ {.:X-X-X;X.X^ 4 I ( ' *   DXDXDXDXDXDXDXDXDXDXDXDXDXDXDXDX",
"DXDXDXDXDXDXDXDXDXDXDXDXDXDXDX  eXzXv mXCXCXZXhX9.+.Q 9 H H 9 W |./ #X;X%X%X%X%X:XXX~ 4 0 '.&   DXDXDXDXDXDXDXDXDXDXDXDXDXDXDXDX",
"DXDXDXDXDXDXDXDXDXDXDXDXDXDXDX  R.hXfXzXMXMX~.m.E ) ~ / H H ^ / ~ F  X;X%X%X=X%X=X#XXX9 7 I # . DXDXDXDXDXDXDXDXDXDXDXDXDXDXDXDX",
"DXDXDXDXDXDXDXDXDXDXDXDXDXDXDX. A E.dXeX~.fXR.V Q ~ ~ / H H ' / ! 5 {.:X%X%X%X=X#X=X:XU 3 F # o DXDXDXDXDXDXDXDXDXDXDXDXDXDXDXDX",
"DXDXDXDXDXDXDXDXDXDXDXDXDXDXDXDX        . M.+.|.' ( ~ 9 q P / / W 3  X:X%X%X%X=X=X=X-XF 4 H # o DXDXDXDXDXDXDXDXDXDXDXDXDXDXDXDX",
"DXDXDXDX  o { DXDXDXDXDXDXDXDXDXDXDXDX. # < * 1 * H K 4 9 J ' ' I   ~ $X;X;X=X%X#X=X-XU 4 0 DXDXDXDXDXDXDXDXDXDXDXDXDXDXDXDXDXDX",
"DXDXDXDX  # 6Xd.DXDXDXDXDXDXDXDXDXDXDXDXo     .   % 4 4 9 J ^ / T X 8 ~ #X.XXX=X=X=X=X8 1 4 DXDXDXDXDXDXDXDXDXDXDXDXDXDXDXDXDXDX",
"DXDXDXDX  * CXyXk  .DXDXDXDXDXDXDXDXDXDXDXDXDXDXDX. # J H q 9 ~ / U   # '.! [ :X=X=X;X* X 0 DXDXDXDXDXDXDXDXDXDXDXDXDXDXDXDXDXDX",
"DXDXDXDX  * VXVXvX0X9Xf. .DXDXDXDXDXDXDXDXDXDXDXDXDXDX& 5 0 U P J q 9 6 & T / / XX:X,X2   # DXDXDXDXDXDXDXDXDXDXDXDXDXDXDXDXDXDX",
"DXDXDXDX    aXZXCXcXrX7X%.%.DXDXDXDXDXDXDXDXDXDXDXDXDX  3 0 6 7 9 H P 7   T '.' XX=XXX2   o DXDXDXDXDXDXDXDXDXDXDXDXDXDXDXDXDXDX",
"DXDXDXDXDXDXf.vXCXVXcXrX9Xd.{   DXDXDXDXDXDXDXDXDXDXDXDXDXDX. 3 0 H P 9 . J ].:X:X.X~ &   DXDXDXDXDXDXDXDXDXDXDXDXDXDXDXDXDXDXDX",
"DXDXDXDXDXDX* 9XCXZXnXpXrX7Xd.%.d.{       DXDXDXDXDXDXDXDXDX  X X $ $     [ -X-X;XXX( *   DXDXDXDXDXDXDXDXDXDXDXDXDXDXDXDXDXDXDX",
"DXDXDXDXDXDX  | nXCXZXBXcXrX9XqXOX .r r e DXDXDXDXDXDXDXDXDX    + s s <    X,X=X3Xv.J # DXDXDXDXDXDXDXDXDXDXDXDXDXDXDXDXDXDXDXDX",
"DXDXDXDXDXDXDX{ %.CXCXCXnXcXrX6X6X7XqXqXwX%.*     DXDXp p i DX  < T.T.N.  ].>X}.P.B.o DXDXDXDXDXDXDXDXDXDXDXDXDXDXDXDXDXDXDXDXDX",
"DXDXDXDXDXDXDXDXDXe yXCXZXnXpXrXrX0X6X6XOXf.*.*.{ *...-.-.=.p y i j N.9.  m.I./.P.6.  DXDXDXDXDXDXDXDXDXDXDXDXDXDXDXDXDXDXDXDXDX",
"DXDXDXDXDXDXDXDXDX  @.yXCXZXnXpXcXpX9X9X9X9XrXqXg.oXg.-.>.>.:.=.p p 4.n   n.K.Y.M.<   DXDXDXDXDXDXDXDXDXDXDXDXDXDXDXDXDXDXDXDXDX",
"DXDXDXDXDXDXDXDXDXDX    CXCXCXnXnXnXtXaXiXyXpXiX9XuX!.-.u.y.p.p =.p.=.-   b.K.Y.@ $ DXDXDXDXDXDXDXDXDXDXDXDXDXDXDXDXDXDXDXDXDXDX",
"DXDXDXDXDXDXDXDXDXDXDXDXd.7XyXCXCXCXZXnXcXVX .* O * ; =.<.p.p >.t.p.-.l *Xm 8.H.+ 7 &Xj.j.j.DXDXDXDXDXDXDXDXDXDXDXDXDXDXDXDXDXDX",
"DXDXDXDXDXDXDXDXDXDXDXDX .%.wXbXvXBXCXZXVXCXk   6     t ;.;.- ;.<.>.a k <XV M n < r #.X.X.X.DXDXDXDXDXDXDXDXDXDXDXDXDXDXDXDXDXDX",
"DXDXDXDXDXDXDXDXDXDXDXDXDXDXDX{ ..qXCXCXCXCX{   &X6     y y   t p p   % ( '.I   k q.h h h h X.+Xl.l.l.DXDXDXDXDXDXDXDXDXDXDXDXDX",
"DXDXDXDXDXDXDXDXDXDXDXDXDXDXDXDXDXDX;  .OX6X+   @X3 . ;.= o   . . O   & I '.!   2.a.e.e.r.2.A B B M o.@Xc.DXDXDXDXDXDXDXDXDXDXDX",
"DXDXDXDXDXDXDXDXDXDXDXDXDXDXDXDXDXDX> z @.#.r q @X3 = u.y +           X 5 J 8   s n j h 3.e.q.q.q.q.A ` k.| DXDXDXDXDXDXDXDXDXDX",
"DXDXDXDXDXDXDXDXDXDXDXDXDXDXDXDXv.l.x.c.h.h.x.x.x.: = i.,.t             .               ; a.e.e.e.e.2.h h h S A ,   DXDXDXDXDXDX",
"DXDXDXDXDXDXDXDXDXDXDXDXDXDXDXDXl.l.l.l.k.h.v.l.x.: = y.>.u   E c._ _ _ _ _ _ _ ` ` ` v.z O . O . 4.a.e.e.a.D.F.S.e.+   DXDXDXDX",
"DXDXDXDXDXDXDXDXDXDXDXDXDXDXDXDXDXl.l.l.k.v.v.l.x.3 - y.u.;.t z E x.c.z.c.z.z.z.c.z.z.x.E 5 w 5 7 s h h h 2.F.S.F.F.@   DXDXDXDX",
"DXDXDXDXDXDXDXDXDXDXDXDXDXDXDXDXDXDXl.l.k.h.v.l.x.& = y.y.u.>.= X x.l.l.v.v.v.l.v.v.v.v.l.x.x.@X@XX       ; e.2.a.F.+   DXDXDXDX",
"DXDXDXDXDXDXDXDXDXDXDXDXDXDXDXDXDXDXDXDXDXl.l.l.x.: = <.y.y.i.- % z.v.v.l.l.l.l.v.l.l.l.l.l.l.l.l.l.R DXDX. + + + @ DXDXDXDXDXDX",
"DXDXDXDXDXDXDXDXDXDXDXDXDXDXDXDXDXDXDXDXDXl.l.l.x.: O u :.:.:.= : x.l.l.l.l.l.l.v.v.l.l.l.l.l.l.v.z.DXDXDXDX        DXDXDXDXDXDX",
"DXDXDXDXDXDXDXDXDXDXDXDXDXDXDXDXDXDXDXDXDXDXDXDXDXDXDX          > x.l.l.l.l.l.l.l.l.l.v.l.DXDXDXDXDXDXDXDXDXDXDXDXDXDXDXDXDXDXDX",
"DXDXDXDXDXDXDXDXDXDXDXDXDXDXDXDXDXDXDXDXDXDXDXDXDXDXDXDXDXDXDXDXDXDXDXDXDXDXDXDXDXDXDXDXDXDXDXDXDXDXDXDXDXDXDXDXDXDXDXDXDXDXDXDX",
"DXDXDXDXDXDXDXDXDXDXDXDXDXDXDXDXDXDXDXDXDXDXDXDXDXDXDXDXDXDXDXDXDXDXDXDXDXDXDXDXDXDXDXDXDXDXDXDXDXDXDXDXDXDXDXDXDXDXDXDXDXDXDXDX",
"DXDXDXDXDXDXDXDXDXDXDXDXDXDXDXDXDXDXDXDXDXDXDXDXDXDXDXDXDXDXDXDXDXDXDXDXDXDXDXDXDXDXDXDXDXDXDXDXDXDXDXDXDXDXDXDXDXDXDXDXDXDXDXDX",
"DXDXDXDXDXDXDXDXDXDXDXDXDXDXDXDXDXDXDXDXDXDXDXDXDXDXDXDXDXDXDXDXDXDXDXDXDXDXDXDXDXDXDXDXDXDXDXDXDXDXDXDXDXDXDXDXDXDXDXDXDXDXDXDX",
"DXDXDXDXDXDXDXDXDXDXDXDXDXDXDXDXDXDXDXDXDXDXDXDXDXDXDXDXDXDXDXDXDXDXDXDXDXDXDXDXDXDXDXDXDXDXDXDXDXDXDXDXDXDXDXDXDXDXDXDXDXDXDXDX",
"DXDXDXDXDXDXDXDXDXDXDXDXDXDXDXDXDXDXDXDXDXDXDXDXDXDXDXDXDXDXDXDXDXDXDXDXDXDXDXDXDXDXDXDXDXDXDXDXDXDXDXDXDXDXDXDXDXDXDXDXDXDXDXDX",
"DXDXDXDXDXDXDXDXDXDXDXDXDXDXDXDXDXDXDXDXDXDXDXDXDXDXDXDXDXDXDXDXDXDXDXDXDXDXDXDXDXDXDXDXDXDXDXDXDXDXDXDXDXDXDXDXDXDXDXDXDXDXDXDX",
"DXDXDXDXDXDXDXDXDXDXDXDXDXDXDXDXDXDXDXDXDXDXDXDXDXDXDXDXDXDXDXDXDXDXDXDXDXDXDXDXDXDXDXDXDXDXDXDXDXDXDXDXDXDXDXDXDXDXDXDXDXDXDXDX",
"DXDXDXDXDXDXDXDXDXDXDXDXDXDXDXDXDXDXDXDXDXDXDXDXDXDXDXDXDXDXDXDXDXDXDXDXDXDXDXDXDXDXDXDXDXDXDXDXDXDXDXDXDXDXDXDXDXDXDXDXDXDXDXDX"
};
