/* XPM */
static char *result[] = {
/* columns rows colors chars-per-pixel */
"64 64 239 2 ",
"   c #010101",
".  c #0B0403",
"X  c #020308",
"o  c #030C0C",
"O  c #090A09",
"+  c #130704",
"@  c #171106",
"#  c #050D14",
"$  c #051515",
"%  c #151717",
"&  c #08100E",
"*  c #280603",
"=  c #380907",
"-  c #29170B",
";  c #371504",
":  c #251E1B",
">  c #02211F",
",  c #3B230B",
"<  c #071C27",
"1  c #042224",
"2  c #012D2C",
"3  c #052629",
"4  c #17372C",
"5  c #022E34",
"6  c #052C37",
"7  c #152932",
"8  c #0D353B",
"9  c #073336",
"0  c #15383B",
"q  c #102E2C",
"w  c #282626",
"e  c #383427",
"r  c #393333",
"t  c #30312F",
"y  c #440D08",
"u  c #5A150A",
"i  c #4F0F0F",
"p  c #67140A",
"a  c #761912",
"s  c #6C140E",
"d  c #41270C",
"f  c #4D3807",
"g  c #583505",
"h  c #4D3114",
"j  c #643802",
"k  c #6C330B",
"l  c #413131",
"z  c #1B4238",
"x  c #234134",
"c  c #324130",
"v  c #694602",
"b  c #754800",
"n  c #765707",
"m  c #7E4518",
"M  c #5D4527",
"N  c #51552E",
"B  c #694828",
"V  c #674827",
"C  c #785029",
"Z  c #5D6139",
"A  c #756A36",
"S  c #57441A",
"D  c #0C3A42",
"F  c #03374A",
"G  c #113A42",
"H  c #173A48",
"J  c #0E3B59",
"K  c #063961",
"L  c #14414C",
"P  c #194758",
"I  c #0D4456",
"U  c #265849",
"Y  c #245157",
"T  c #32504F",
"R  c #2C6150",
"E  c #346F5C",
"W  c #174E6D",
"Q  c #234D63",
"!  c #25556C",
"~  c #245468",
"^  c #2A5A73",
"/  c #2B5D79",
"(  c #255772",
")  c #325B6D",
"_  c #2B617B",
"`  c #37667A",
"'  c #3A7F69",
"]  c #484345",
"[  c #534546",
"{  c #585655",
"}  c #4E534D",
"|  c #675758",
" . c #755156",
".. c #476259",
"X. c #5A665A",
"o. c #516247",
"O. c #706D52",
"+. c #476969",
"@. c #537065",
"#. c #6E6A6C",
"$. c #695A61",
"%. c #8E1B12",
"&. c #982415",
"*. c #BA341A",
"=. c #AB2815",
"-. c #A81C07",
";. c #C43A1E",
":. c #C22F1E",
">. c #C73C23",
",. c #884C00",
"<. c #865111",
"1. c #A15A1C",
"2. c #886A17",
"3. c #966F12",
"4. c #B67708",
"5. c #A97515",
"6. c #B07316",
"7. c #895525",
"8. c #925A26",
"9. c #8A742A",
"0. c #B86A24",
"q. c #A66432",
"w. c #FF560D",
"e. c #E84918",
"r. c #FF5914",
"t. c #EE4E13",
"y. c #FF6212",
"u. c #C87625",
"i. c #CB7726",
"p. c #E24823",
"a. c #81755E",
"s. c #897879",
"d. c #8A7C6A",
"f. c #A46B66",
"g. c #3E856E",
"h. c #318C6F",
"j. c #3B8C72",
"k. c #408870",
"l. c #4A8773",
"z. c #489A7F",
"x. c #459379",
"c. c #44846E",
"v. c #B98615",
"b. c #BA850B",
"n. c #B28F2C",
"m. c #CD9413",
"M. c #D8A816",
"N. c #CFA018",
"B. c #EAB10D",
"V. c #E1A914",
"C. c #E8B315",
"Z. c #E3AB0B",
"A. c #CE8B24",
"S. c #E59529",
"D. c #E8B921",
"F. c #FCAC30",
"G. c #C8A421",
"H. c #FFD215",
"J. c #F7C524",
"K. c #F8CF2E",
"L. c #95894C",
"P. c #AA994E",
"I. c #B2A754",
"U. c #B8AB6B",
"Y. c #818D7B",
"T. c #D6BF75",
"R. c #DEC55F",
"E. c #DBC04A",
"W. c #E2C754",
"Q. c #D7CA79",
"!. c #E3D277",
"~. c #FCE967",
"^. c #FFFC77",
"/. c #EEE37B",
"(. c #FFE757",
"). c #386B86",
"_. c #3D728A",
"`. c #3E7285",
"'. c #3B7794",
"]. c #2F6682",
"[. c #236EA2",
"{. c #0F5587",
"}. c #45778D",
"|. c #467D95",
" X c #8B7B81",
".X c #3E84B2",
"XX c #4A9D81",
"oX c #4D859D",
"OX c #44829B",
"+X c #558A9F",
"@X c #51AA8D",
"#X c #518AA2",
"$X c #548FAA",
"%X c #5791AA",
"&X c #5A94AD",
"*X c #5E99B2",
"=X c #5C9BB7",
"-X c #4E86A1",
";X c #6599AE",
":X c #6F9782",
">X c #67A8C8",
",X c #77AECC",
"<X c #4897C5",
"1X c #938383",
"2X c #9D8C8C",
"3X c #9C9587",
"4X c #A79696",
"5X c #A89797",
"6X c #AE9CA2",
"7X c #BCABAB",
"8X c #B4A3A3",
"9X c #B2B2AB",
"0X c #97A6A7",
"qX c #C0AE80",
"wX c #CBBABA",
"eX c #C1AFAF",
"rX c #D6CF8F",
"tX c #EBD989",
"yX c #DDE29F",
"uX c #FFFD87",
"iX c #F2F590",
"pX c #EBE791",
"aX c #D8D9B6",
"sX c #FEFCA7",
"dX c #FFFDBA",
"fX c #EBEFA9",
"gX c #81B1C8",
"hX c #B1CBDE",
"jX c #D7C6C5",
"kX c #D2CDCD",
"lX c #E5D9D9",
"zX c #FFFFD1",
"xX c #F3E6E6",
"cX c #F3ECEC",
"vX c #FDFAE3",
"bX c #FFFFFE",
"nX c #FBF6F4",
"mX c #EFE8E8",
"MX c #489848",
/* pixels */
"MXMXMXMXMXMXMXMXMXMXMXMXMXMXMXMXMXMXMXMXMXMXMXMXMXMXMXMXMXMXMXMXMXMXMXMXMXMXMXMXMXMXMXMXMXMXMXMXMXMXMXMXMXMXMXMXMXMXMXMXMXMXMXMX",
"MXMXMXMXMXMXMXMXMXMXMXMXMXMXMXMXMXMXMXMXMXMXMXMXMXMXMXMXMXMXMXMXMXMXMXMXMXMXMXMXMXMXMXMXMXMXMXMXMXMXMXMXMXMXMXMXMXMXMXMXMXMXMXMX",
"MXMXMXMXMXMXMXMXMXMXMXMXMXMXMXMXMXMXMXMXMXMXMXMXMXMXMXMXMXMXMXMXMXMXMXMXMXMXMXMXMXMXMXMXMXMXMXMXMXMXMXMXMXMXMXMXMXMXMXMXMXMXMXMX",
"MXMXMXMXMXMXMXMXMXMXMXMXMXMXMXMXMXMXMXMXMXMXMXMXMXMXMXMXMXMXMXMXMXMXMXMXMXMXMXMXMXMXMXMXMXMXMXMXMXMXMXMXMXMXMXMXMXMXMXMXMXMXMXMX",
"MXMXMXMXMXMXMXMXMXMXMXMXMXMXMXMXMXMXMXMXMXMXMXMXMXMXMXMXMXMXMXMXMXMXMXMXMXMXMXMXMXMXMXMXMXMXMXMXMXMXMXMXMXMXMXMXMXMXMXMXMXMXMXMX",
"MXMXMXMXMXMXMXMXMXMXMXMXMXMXMXMXMXMXMXMXMXMXMXMXMXMXMXMXMXMXMXMXMXMXMXMXMXMXMXMXMXMXMXMXMXMXMXMXMXMXMXMXMXMXMXMXMXMXMXMXMXMXMXMX",
"MXMXMXMXMXMXMXMXMXMXMXMXMXMXMXMXMXMXMXMXMXMXMXMXMXMXMXMXMXMXMXMXMXMXMXMXMXMXMXMXMXMXMXMXMXMXMXMXMXMXMXMXMXMXMXMXMXMXMXMXMXMXMXMX",
"MXMXMXMXMXMXMXMXMXMXMXMXMXMXMXMXMXMXMXMXMXMXMXMXMXMXMXMXMXMXMXMXMXMXMXMXMXMXMXMXMXMXMXMXMXMXMXMXMXMXMXMXMXMXMXMXMXMXMXMXMXMXMXMX",
"MXMXMXMXMXMXMXMXMXMXMXMXMXMXMXMXMXMXMXMXMXMXMXMXMXMXMXMXMXMXMXMXMXMXMXMXMXMXMXMXMXMXMXMXMXMXMXMXMXMXMXMXMXMXMXMXMXMXMXMXMXMXMXMX",
"MXMXMXMXMXMXMXMXMXMXMXMXMXMXMXMXMXMXMXMXMXMXMXMXMXMXMXMXMXMXMXMXMXMXMXMXMXMXMXMXMXMXMXMXMXMXMXMXMXMXMXMXMXMXMXMXMXMXMXMXMXMXMXMX",
"MXMXMXMXMXMXMXMXMXMXMXMXMXMXMXMXMXMXMXMXMXMXMXMXMXMXMXMXMXMXMXMXMXMXMXMXMXMXMXMXMXMXMXMXMXMXMXMXMXMXMXMXMXMXMXMXMXMXMXMXMXMXMXMX",
"MXMXMXMXMXMXMXMXMXMXMXMXMXMXMXMXMXMXMXMXj j v n MXMXMXMXMXMXMXMXMXMXMXMXMXMXMXMXMXMXMXMXMXMXMXMXMXMXMXMXMXMXMXMXMXMXMXMXMXMXMXMX",
"MXMXMXMXMXMXMXMXMXMXMXMXMXMXMXMXMXMXMXMX3.9.2.b MXMXMXMXMXMXMXMXMXMXMXMXMXMXMXMXMXMXMXMXMXMXMXMXMXMXMXMXMXMXMXMXMXMXMXMXMXMXMXMX",
"MXMXMXMXMXMXMXMXMXMXMXMXMXMXMXMXMXg ,.A.sXdX/.b MXMXMXMXMXMXMXMXMXMXMXMXMXMXMXMXMXMXMXMXMXMXMXMXMXMXMXMXMXMXMXMXMXMXMXMXMXMXMXMX",
"MXMXMXMXMXMXMXMXMXMXMXMXMXMXv ,.A.Q.pX/.K.(.n.O MXMXv 6.v.3.v MXMXMXMXMXMXMXMXMXMXMXMXMXMXMXMXMXMXMXMXMXMXMXMXMXMXMXMXMXMXMXMXMX",
"MXMXMXMXMXMXMXMXMXMXMXMXMXMXn b.v.~.uX~.C.B.b.@ MXv.3.m.G.v.b.,.MXMXMXMXMXMXMXMXMXMXMXMXMXMXMXMXMXMXMXMXMXMXMXMXMXMXMXMXMXMXMXMX",
"MXMXMXMXMXMXMXMXMXMXMX$ X X G.J.6.C.C.V.C.J.N.b 5.M.K.J.J.D.K.3.v MXMXMXMXMXMXMXMXMXMXMXMXMXMXMXMXMXMXMXMXMXMXMXMXMXMXMXMXMXMXMX",
"MXMXMXMXMXMXMXMXMXMX2 I T k /.^.Z.4.4.4.4.3.3.C.M.Z.B.uXsXuXZ.B.m.v MXMXMXMXMXMXMXMXMXMXMXMXMXMXMXMXMXMXMXMXMXMXMXMXMXMXMXMXMXMX",
"MXMXMXMXMXMXMXMXMX3 2 ( }.O.L.E.(.R.R.R.!.M g H.(.~.~.L.O.L.~.^.E.j MXMXMXMXMXMXMXMXMXMXMXMXMXMXMXMXMXMXMXMXMXMXMXMXMXMXMXMXMXMX",
"MXMXMXMXMXMXMXMXT z 3 }.;X<Xh 9.fXiXiXiXiXc & C.!.yXrXX   $ iXfXU.j MXMXMXMXMXMXMXMXMXMXMXMXMXMXMXMXMXMXMXMXMXMXMXMXMXMXMXMXMXMX",
"MXMXMXMXf v 2.MXMXsX  ) >XoX*X'.J b ,.,.,.c 5     .   8 L 8 . . O O MXMXMXMXMXMXMXMXMXMXMXMXMXMXMXMXMXMXMXMXMXMXMXMXMXMXMXMXMXMX",
"MXMXMXMXn L.kX9 0 X.  X H >XP +.aX@.) ..@.Q F $ < 1 1 G 3 O   MXMXMXMXMXMXMXMXMXMXMXMXMXMXMXMXMXMXMXMXMXMXMXMXMXMXMXMXMXMXMXMXMX",
"MXMXMXMX2.qXbXU 3 F ] e e }.6 } yX,X>X,X,X;X+.5 L P P L 7 & $ MXMXMXMXMXMXMXMXMXMXMXMXMXMXMXMXMXMXMXMXMXMXMXMXMXMXMXMXMXMXMXMXMX",
"MXMXMXMX2.U.bXT I ,XbXnXQ.  Q W $ bXbXbXbXvXrX< ~ ^ ^ ^ / ^ L & O MXMXMXMXMXMXMXMXMXMXMXMXMXMXMXMXMXMXMXMXMXMXMXMXMXMXMXMXMXMXMX",
"MXMXMXMX@ O.vXH W ;X: jXxX  +.|.L t t r t e -   ` #X|.|.oX}.Q 8 1 2 MXMXMXMXMXMXMXMXMXMXMXMXMXMXMXMXMXMXMXMXMXMXMXMXMXMXMXMXMXMX",
"MXMXMXMX  e !.Z R ).< 0XhXH |.$X).#     X # < 0 |.;X$X$X%X#X)._ Y D 9 MXMXMXMXMXMXMXMXMXMXMXMXMXMXMXMXMXMXMXMXMXMXMXMXMXMXMXMXMX",
"MXMXMXMXMXMX2.n.N F =X'.|.*X#X|.#XP D L G ~ |.=X-XoX+X-XoXoX$X*X-X/ 8 2 MXMXMXMXMXMXMXMXMXMXMXMXMXMXMXMXMXMXMXMXMXMXMXMXMXMXMXMX",
"MXMXMXMXMXMXO   X F < N 2.9.3.o.{.! ! ! ! ^ ^ ^ ! }.&X&X).! +X-XoXoX%X! > MXMXMXMXMXMXMXMXMXMXMXMXMXMXMXMXMXMXMXMXMXMXMXMXMXMXMX",
"MXMXMXMXMXMX  a.O.N 0X9XrXT.!.U.Z ) ( ^ / Q P ! ~ / _._.).}.#X+X#X#X*X` 2 MXMXMXMXMXMXMXMXMXMXMXMXMXMXMXMXMXMXMXMXMXMXMXMXMXMXMX",
"MXMXMXMXMXMX% dX!.P.bXbXnXfXdXQ.A ) ( ^ ! 0 G / ^ ! ~ P _.&X-X#X#X-X%X` 8 MXMXMXMXMXMXMXMXMXMXMXMXMXMXMXMXMXMXMXMXMXMXMXMXMXMXMX",
"MXMXMXMX  % $.I.tXdXdXzXtX8.5.O.W ) / ! 8 8 L ^ ! ^ ! 6 ` *X-X-XoX#X$X_.Q 2 MXMXMXMXMXMXMXMXMXMXMXMXMXMXMXMXMXMXMXMXMXMXMXMXMXMX",
"MXMXMXMX  ] lXO.a.d.e 9.P.+.@.` _ P L L D 8 L _ ^ ^ ! 3 P |.&X%X$XoX%X#X_.8 MXMXMXMXMXMXMXMXMXMXMXMXMXMXMXMXMXMXMXMXMXMXMXMXMXMX",
"MXMXMXMXX { bX5Xs.| # V A K J P Y 8 8 8 G 8 H Q ! ^ ! 9 D Q _.}.OX+X}.-X#XQ < MXMXMXMXMXMXMXMXMXMXMXMXMXMXMXMXMXMXMXMXMXMXMXMXMX",
"MXMXMXMX  r nXbXcXeX6Xs.]     o 2 8 G 8 D G D 9 ~ / ^ H 2 1 5 P ).%X! ` #X).7   MXMXMXMXMXMXMXMXMXMXMXMXMXMXMXMXMXMXMXMXMXMXMXMX",
"MXMXMXMXMXMXwXbXnXwXeX2X#.|     MX$ 1 F H G D G H L H 8 D 8 o O 7 '.OX#XoX_ 7   MXMXMXMXMXMXMXMXMXMXMXMXMXMXMXMXMXMXMXMXMXMXMXMX",
"MXMXMXMXMXMX[ lXbXxXjXeX2Xs.] [ MX. o $ $ 9 8 8 5 5 D D D 9 .   & H ` #X#X].7   MXMXMXMXMXMXMXMXMXMXMXMXMXMXMXMXMXMXMXMXMXMXMXMX",
"MXMXMXMXMXMX  8XnXbXxXkX7X2X6X2X| % . . + % 5 2 9 4 0 H 6 1 O O     I OX#X_ q   MXMXMXMXMXMXMXMXMXMXMXMXMXMXMXMXMXMXMXMXMXMXMXMX",
"MXMXMXMXMXMXMX[ jXbXbXxXjX7X2Xs.1X1X2Xs.#.@     M.m.i a - o         K [..XP MXMXMXMXMXMXMXMXMXMXMXMXMXMXMXMXMXMXMXMXMXMXMXMXMXMX",
"MXMXMXMXMXMXMXMX{ #.bXbXxXjX8X4X5X2X2X1Xs.$.[ l a.q.%.%.u = y y * X 9.I.P.% MXMXMXMXMXMXMXMXMXMXMXMXMXMXMXMXMXMXMXMXMXMXMXMXMXMX",
"MXMXMXMXMXMXMXMXMX  kXcXbXxXjXwXjX4X2X2X4X8X6Xf.}.7.-.:.&.%.%.&.a + C.H.B.+ MXMXMXMXMXMXMXMXMXMXMXMXMXMXMXMXMXMXMXMXMXMXMXMXMXMX",
"MXMXMXMXMXMXMXMXMXMXX 6XbXbXxXlXlXeX7X7X7XjXwX4X6Xf.-.w.r.>.i ;.;.p M.H.C.. MXMXMXMXMXMXMXMXMXMXMXMXMXMXMXMXMXMXMXMXMXMXMXMXMXMX",
"MXMXMXMXMXMXMXMXMXMXMX| 4X8XnXbXbXcXlXjXxX$.w : w h &.p.*.&.;.p.;.a Y.:X..X h B M MXMXMXMXMXMXMXMXMXMXMXMXMXMXMXMXMXMXMXMXMXMXMX",
"MXMXMXMXMXMXMXMXMXMXMXX.X.#.9XlXlXbXbXxXnXT       . i *.s y >.:.&.y ).[.W X h 8.C C MXMXMXMXMXMXMXMXMXMXMXMXMXMXMXMXMXMXMXMXMXMX",
"MXMXMXMXMXMXMXMXMXMXMXj.h.h.{ | 1XcXbXbXbX{           s + X s a y X P / ! X k u.0.C M B B V B MXMXMXMXMXMXMXMXMXMXMXMXMXMXMXMXMX",
"MXMXMXMXMXMXMXMXMXk.k.k.k.k.c.l.l.@ [ 3Xs..       = %.X       .           X   . + 8.u.0.0.q.8.V M M M MXMXMXMXMXMXMXMXMXMXMXMXMX",
"MXMXMXMXMXMXMXMXk.k.k.k.k.k.j.j.j.4 % r 3X3X|     u e.= . o z z z z x x x x z q   ; k g g <.0.8.8.8.7.B MXMXMXMXMXMXMXMXMXMXMXMX",
"MXMXMXMXMXMXMXk.g.k.k.k.k.k.k.k.g.@X4   9XvX9X&   k r.=.* o XXXXz.XXz.z.z.XX@X' & X X X   d 0.1.1.1.0.C B C C C V @ MXMXMXMXMXMX",
"MXMXMXMXMXMXMXk.c.k.k.k.k.k.k.g.x.XX4     . > XXo u r.=.* o XXx.c.g.j.k.g.j.k.k.c.g.g.k.MXMXX     ; i.u.0.0.S.S.S.F.d   MXMXMXMX",
"MXMXMXMXMXMXMXMXk.k.k.c.j.j.k.c.k.k.E U U U R z.# p y.t.&.i 4 E x.k.k.k.k.k.k.k.k.k.k.MXMXMXMXMXMX. d , , d u.A.i.F.h   MXMXMXMX",
"MXMXMXMXMXMXMXMXMXk.k.k.k.c.k.j.k.g.x.XXz.z.z.k.# y t.w.t.&.  U XXk.k.k.k.k.k.k.k.k.MXMXMXMXMXMXMXMX        k m 7.A.,   MXMXMXMX",
"MXMXMXMXMXMXMXMXMXMXMXk.k.k.c.j.k.k.k.k.c.c.g.x.X = :.w.y.t.  R z.k.k.k.k.k.k.k.MXMXMXMXMXMXMXMXMXMXMXMXMXMX        MXMXMXMXMXMX",
"MXMXMXMXMXMXMXMXMXMXMXMXMXMXMXMXMXj.c.k.k.k.j.k.g.x * ; ; *   R z.k.MXMXMXMXMXMXMXMXMXMXMXMXMXMXMXMXMXMXMXMXMXMXMXMXMXMXMXMXMXMX",
"MXMXMXMXMXMXMXMXMXMXMXMXMXMXMXMXMXk.k.k.k.k.k.g.@XU           R z.k.MXMXMXMXMXMXMXMXMXMXMXMXMXMXMXMXMXMXMXMXMXMXMXMXMXMXMXMXMXMX",
"MXMXMXMXMXMXMXMXMXMXMXMXMXMXMXMXMXMXMXMXMXMXMXMXMXMXMXMXMXMXMXMXMXMXMXMXMXMXMXMXMXMXMXMXMXMXMXMXMXMXMXMXMXMXMXMXMXMXMXMXMXMXMXMX",
"MXMXMXMXMXMXMXMXMXMXMXMXMXMXMXMXMXMXMXMXMXMXMXMXMXMXMXMXMXMXMXMXMXMXMXMXMXMXMXMXMXMXMXMXMXMXMXMXMXMXMXMXMXMXMXMXMXMXMXMXMXMXMXMX",
"MXMXMXMXMXMXMXMXMXMXMXMXMXMXMXMXMXMXMXMXMXMXMXMXMXMXMXMXMXMXMXMXMXMXMXMXMXMXMXMXMXMXMXMXMXMXMXMXMXMXMXMXMXMXMXMXMXMXMXMXMXMXMXMX",
"MXMXMXMXMXMXMXMXMXMXMXMXMXMXMXMXMXMXMXMXMXMXMXMXMXMXMXMXMXMXMXMXMXMXMXMXMXMXMXMXMXMXMXMXMXMXMXMXMXMXMXMXMXMXMXMXMXMXMXMXMXMXMXMX",
"MXMXMXMXMXMXMXMXMXMXMXMXMXMXMXMXMXMXMXMXMXMXMXMXMXMXMXMXMXMXMXMXMXMXMXMXMXMXMXMXMXMXMXMXMXMXMXMXMXMXMXMXMXMXMXMXMXMXMXMXMXMXMXMX",
"MXMXMXMXMXMXMXMXMXMXMXMXMXMXMXMXMXMXMXMXMXMXMXMXMXMXMXMXMXMXMXMXMXMXMXMXMXMXMXMXMXMXMXMXMXMXMXMXMXMXMXMXMXMXMXMXMXMXMXMXMXMXMXMX",
"MXMXMXMXMXMXMXMXMXMXMXMXMXMXMXMXMXMXMXMXMXMXMXMXMXMXMXMXMXMXMXMXMXMXMXMXMXMXMXMXMXMXMXMXMXMXMXMXMXMXMXMXMXMXMXMXMXMXMXMXMXMXMXMX",
"MXMXMXMXMXMXMXMXMXMXMXMXMXMXMXMXMXMXMXMXMXMXMXMXMXMXMXMXMXMXMXMXMXMXMXMXMXMXMXMXMXMXMXMXMXMXMXMXMXMXMXMXMXMXMXMXMXMXMXMXMXMXMXMX",
"MXMXMXMXMXMXMXMXMXMXMXMXMXMXMXMXMXMXMXMXMXMXMXMXMXMXMXMXMXMXMXMXMXMXMXMXMXMXMXMXMXMXMXMXMXMXMXMXMXMXMXMXMXMXMXMXMXMXMXMXMXMXMXMX",
"MXMXMXMXMXMXMXMXMXMXMXMXMXMXMXMXMXMXMXMXMXMXMXMXMXMXMXMXMXMXMXMXMXMXMXMXMXMXMXMXMXMXMXMXMXMXMXMXMXMXMXMXMXMXMXMXMXMXMXMXMXMXMXMX",
"MXMXMXMXMXMXMXMXMXMXMXMXMXMXMXMXMXMXMXMXMXMXMXMXMXMXMXMXMXMXMXMXMXMXMXMXMXMXMXMXMXMXMXMXMXMXMXMXMXMXMXMXMXMXMXMXMXMXMXMXMXMXMXMX"
};
