/* XPM */
static char *result[] = {
/* columns rows colors chars-per-pixel */
"64 64 234 2 ",
"   c #010001",
".  c #090403",
"X  c #01030A",
"o  c #040B0C",
"O  c #0A0B0B",
"+  c #0C0C04",
"@  c #150200",
"#  c #160A05",
"$  c #0E130C",
"%  c #02141C",
"&  c #071719",
"*  c #161413",
"=  c #1A1100",
"-  c #3C0807",
";  c #351B01",
":  c #251F1D",
">  c #280E07",
",  c #082B1F",
"<  c #2F261B",
"1  c #322D10",
"2  c #000A28",
"3  c #0C1D21",
"4  c #021725",
"5  c #091629",
"6  c #052729",
"7  c #0D2C32",
"8  c #012C3C",
"9  c #072835",
"0  c #0C3135",
"q  c #0D353B",
"w  c #063537",
"e  c #193934",
"r  c #163136",
"t  c #272420",
"y  c #35322E",
"u  c #5D130E",
"i  c #541011",
"p  c #4B1405",
"a  c #66150D",
"s  c #771A13",
"d  c #621612",
"f  c #573706",
"g  c #4E2D08",
"h  c #6D3A12",
"j  c #753605",
"k  c #45392A",
"l  c #473B3A",
"z  c #15463E",
"x  c #305230",
"c  c #524C12",
"v  c #694300",
"b  c #744900",
"n  c #7A5303",
"m  c #794A12",
"M  c #775716",
"N  c #6B601C",
"B  c #564C35",
"V  c #68462A",
"C  c #6E5428",
"Z  c #63643C",
"A  c #756831",
"S  c #52632C",
"D  c #012C47",
"F  c #083846",
"G  c #113B43",
"H  c #143C48",
"J  c #043553",
"K  c #253A4D",
"L  c #13424C",
"P  c #194947",
"I  c #194756",
"U  c #0A4140",
"Y  c #234756",
"T  c #334F4B",
"R  c #2F6957",
"E  c #326D5A",
"W  c #35715D",
"Q  c #1C546A",
"!  c #1D5573",
"~  c #104970",
"^  c #234E63",
"/  c #235166",
"(  c #23546C",
")  c #2A576B",
"_  c #255A72",
"`  c #2B5B73",
"'  c #2A5D77",
"]  c #325E74",
"[  c #3B7D68",
"{  c #2F6377",
"}  c #35677C",
"|  c #3D696C",
" . c #444442",
".. c #5A4B4C",
"X. c #575955",
"o. c #675858",
"O. c #725E5E",
"+. c #6A6743",
"@. c #797E5F",
"#. c #486B72",
"$. c #776868",
"%. c #7A7575",
"&. c #8B1E13",
"*. c #982819",
"=. c #87241A",
"-. c #A52C19",
";. c #BB341B",
":. c #A5330C",
">. c #A43125",
",. c #D53C16",
"<. c #C83816",
"1. c #E13E1B",
"2. c #874E00",
"3. c #864918",
"4. c #97571A",
"5. c #815D0D",
"6. c #B25114",
"7. c #97660A",
"8. c #93671A",
"9. c #8F7217",
"0. c #AA6C09",
"q. c #AF661D",
"w. c #B47A17",
"e. c #AF7412",
"r. c #975D28",
"t. c #986726",
"y. c #8F772D",
"u. c #AB6123",
"i. c #B46723",
"p. c #BF7428",
"a. c #F7530D",
"s. c #FE5815",
"d. c #EB490D",
"f. c #FF6215",
"g. c #DC4522",
"h. c #E14823",
"j. c #D15C1F",
"k. c #897979",
"l. c #817068",
"z. c #897F51",
"x. c #3E856D",
"c. c #68835D",
"v. c #408870",
"b. c #46957B",
"n. c #47977D",
"m. c #40876F",
"M. c #688466",
"N. c #BA8313",
"B. c #BC8F11",
"V. c #B28E25",
"C. c #C28305",
"Z. c #D39C1E",
"A. c #C59919",
"S. c #DDA30A",
"D. c #DBA818",
"F. c #EAB61E",
"G. c #E9B71E",
"H. c #E7AE17",
"J. c #D88B29",
"K. c #C7972D",
"L. c #D4AB2B",
"P. c #EABB20",
"I. c #F9B920",
"U. c #F6952B",
"Y. c #FFFF10",
"T. c #F9C723",
"R. c #F5CE35",
"E. c #FFC814",
"W. c #AD9757",
"Q. c #B8AB54",
"!. c #B3A571",
"~. c #969B64",
"^. c #D2A946",
"/. c #D8BD6A",
"(. c #F6D64A",
"). c #FFFF5E",
"_. c #DDD779",
"`. c #FFF776",
"'. c #F8E662",
"]. c #DED361",
"[. c #296484",
"{. c #376A83",
"}. c #3B728C",
"|. c #367B9C",
" X c #467D95",
".X c #487F98",
"XX c #4B7B88",
"oX c #4D859D",
"OX c #498097",
"+X c #4E918E",
"@X c #51AA8C",
"#X c #4887A4",
"$X c #528AA2",
"%X c #518FAB",
"&X c #5994AD",
"*X c #5792AA",
"=X c #5695B3",
"-X c #699EB6",
";X c #669381",
":X c #6EA9C2",
">X c #948383",
",X c #9B8B8B",
"<X c #979595",
"1X c #A28F8F",
"2X c #AB9C9C",
"3X c #A39595",
"4X c #A69F88",
"5X c #B9BE88",
"6X c #B3A4A4",
"7X c #B9A7A7",
"8X c #D0BF81",
"9X c #C6BBBB",
"0X c #D1BDBD",
"qX c #FFFC8A",
"wX c #FFFD98",
"eX c #F0E690",
"rX c #FDFEA5",
"tX c #FFFBB8",
"yX c #E4D596",
"uX c #85BDD4",
"iX c #B0D0E5",
"pX c #D4C3C3",
"aX c #DBCACA",
"sX c #D5CDCD",
"dX c #E6D7D7",
"fX c #FFFFDA",
"gX c #FFFDC3",
"hX c #E8E7E9",
"jX c #F3E6E6",
"kX c #FAEDED",
"lX c #FEFEFE",
"zX c #FCF8F4",
"xX c #EFF3EF",
"cX c #489848",
/* pixels */
"cXcXcXcXcXcXcXcXcXcXcXcXcXcXcXcXcXcXcXcXcXcXcXcXcXcXcXcXcXcXcXcXcXcXcXcXcXcXcXcXcXcXcXcXcXcXcXcXcXcXcXcXcXcXcXcXcXcXcXcXcXcXcXcX",
"cXcXcXcXcXcXcXcXcXcXcXcXcXcXcXcXcXcXcXcXcXcXcXcXcXcXcXcXcXcXcXcXcXcXcXcXcXcXcXcXcXcXcXcXcXcXcXcXcXcXcXcXcXcXcXcXcXcXcXcXcXcXcXcX",
"cXcXcXcXcXcXcXcXcXcXcXcXcXcXcXcXcXcXcXcXcXcXcXcXcXcXcXcXcXcXcXcXcXcXcXcXcXcXcXcXcXcXcXcXcXcXcXcXcXcXcXcXcXcXcXcXcXcXcXcXcXcXcXcX",
"cXcXcXcXcXcXcXcXcXcXcXcXcXcXcXcXcXcXcXcXcXcXcXcXcXcXcXcXcXcXcXcXcXcXcXcXcXcXcXcXcXcXcXcXcXcXcXcXcXcXcXcXcXcXcXcXcXcXcXcXcXcXcXcX",
"cXcXcXcXcXcXcXcXcXcXcXcXcXcXcXcXcXcXcXcXcXcXcXcXcXcXcXcXcXcXcXcXcXcXcXcXcXcXcXcXcXcXcXcXcXcXcXcXcXcXcXcXcXcXcXcXcXcXcXcXcXcXcXcX",
"cXcXcXcXcXcXcXcXcXcXcXcXcXcXcXcXcXcXcXcXcXcXcXcXcXcXcXcXcXcXcXcXcXcXcXcXcXcXcXcXcXcXcXcXcXcXcXcXcXcXcXcXcXcXcXcXcXcXcXcXcXcXcXcX",
"cXcXcXcXcXcXcXcXcXcXcXcXcXcXcXcXcXcXcXcXcXcXcXcXcXcXcXcXcXcXcXcXcXcXcXcXcXcXcXcXcXcXcXcXcXcXcXcXcXcXcXcXcXcXcXcXcXcXcXcXcXcXcXcX",
"cXcXcXcXcXcXcXcXcXcXcXcXcXcXcXcXcXcXcXcXcXcXcXcXcXcXcXcXcXcXcXcXcXcXcXcXcXcXcXcXcXcXcXcXcXcXcXcXcXcXcXcXcXcXcXcXcXcXcXcXcXcXcXcX",
"cXcXcXcXcXcXcXcXcXcXcXcXcXcXcXcXcXcXcXcXcXcXcXcXcXcXcXcXcXcXcXcXcXcXcXcXcXcXcXcXcXcXcXcXcXcXcXcXcXcXcXcXcXcXcXcXcXcXcXcXcXcXcXcX",
"cXcXcXcXcXcXcXcXcXcXcXcXcXcXcXcXcXcXcXcXcXcXcXcXcXcXcXcXcXcXcXcXcXcXcXcXcXcXcXcXcXcXcXcXcXcXcXcXcXcXcXcXcXcXcXcXcXcXcXcXcXcXcXcX",
"cXcXcXcXcXcXcXcXcXcXcXcXcXcXcXcXcXcXcXcXcXcXcXcXcXcXcXcXcXcXcXcXcXcXcXcXcXcXcXcXcXcXcXcXcXcXcXcXcXcXcXcXcXcXcXcXcXcXcXcXcXcXcXcX",
"cXcXcXcXcXcXcXcXcXcXcXcXcXcXcXcXcXcXcXcXcXcXcXcXcXcXcXcXcXcXcXcXcXcXcXcXcXcXcXcXcXcXcXcXcXcXcXcXcXcXcXcXcXcXcXcXcXcXcXcXcXcXcXcX",
"cXcXcXcXcXcXcXcXcXcXcXcXcXcXcXcXcXcXcXcXcXcXcXcXcXcXcXcXcXcXcXcXcXcXcXcXcXcXcXcXcXcXcXcXcXcXcXcXcXcXcXcXcXcXcXcXcXcXcXcXcXcXcXcX",
"cXcXcXcXcXcXcXcXcXcXcXcXcXcXcXcXcXcXcXcXcXcXcXcXcXcXcXcXcXcXcXcXcXcXcXcXcXcXcXcXcXcXcXcXcXcXcXcXcXcXcXcXcXcXcXcXcXcXcXcXcXcXcXcX",
"cXcXcXcXcXcXcXcXcXcXcXcXcXcXcXcXcXcXcXcXcXcXcXcXcXcXcXcXcXcXcXcXcXcXcXcXcXcXcXcXcXcXcXcXcXcXcXcXcXcXcXcXcXcXcXcXcXcXcXcXcXcXcXcX",
"cXcXcXcXcXcXcXcXcXcXcXcXcXcXcXcXcXcXcXcXcXcXcXcXcXcXcXcXcXcXcXcXcXcXcXcXcXcXcXcXM 5.n n cXcXcXcXcXcXcXcXcXcXcXcXcXcXcXcXcXcXcXcX",
"cXcXcXcXcXcXcXcXcXcXcXcXcXcXcXcXcXcXcXcXcXcXcXcXcXcXcXcXcXcXcXcXcXcXcXcXcXf 2.^.rXrXV.cXcXcXcXcXcXcXcXcXcXcXcXcXcXcXcXcXcXcXcXcX",
"cXcXcXcXcXcXcXcXcXcXcXcXcXcXcXcXcXcXcXcXcXcXcXcXcXcXcXcXcXcXcXcXcXcX2.K.tXeXL.F.(.B * ; b v v cXcXcXcXcXcXcXcXcXcXcXcXcXcXcXcXcX",
"cXcXcXcXcXcXcXcXcXcXcXcXcXcXcXcXcXcXcXcXcXcXcXcXcXcXcXcXcXcXcXcXcXn w.A.'.`.(.E.A.  # 5.B.e.7.n cXcXcXcXcXcXcXcXcXcXcXcXcXcXcXcX",
"cXcXcXcXcXcXcXcXcXcXcXcXcXcXcXcXcXcXcXcXcXcXcXcXcXcXcXcXcXcXcXq O L.R.N.S.S.D.P.B.; e.T.T.T.D.7.n cXcXcXcXcXcXcXcXcXcXcXcXcXcXcX",
"cXcXcXcXcXcXcXcXcXcXcXcXcXcXcXcXcXcXcXcXcXcXcXcXcXcXcXcXcX6 F ] j _.`.S.w.w.N.7.n G.T.G.G.G.P.Z.0.v o cXcXcXcXcXcXcXcXcXcXcXcXcX",
"cXcXcXcXcXcXcXcXcXcXcXcXcXcXcXcXcXcXcXcXcXcXcXcXcXcXcXcX0 6 Q oXv S.).wXqXqXwXQ.+ wXwXqXwXwXT.C.0.t.( o cXcXcXcXcXcXcXcXcXcXcXcX",
"cXcXcXcXcXcXcXcXcXcXcXcXcXcXcXcXcXcXcXcXcXcXcXcXcXcXv 9., o Y :XR c Z M.c.c.M.T % Z +.Z Z +.'.qX(.D.I Q 3 cXcXcXcXcXcXcXcXcXcXcX",
"cXcXcXcXcXcXcXcXcXcXcXcXcXcXcXcXcXcXcXcXcXcXcXcXcXcXN !.W o . ` ! ~ J D J F J D w X       X ~.5XQ.N.w ! Y & cXcXcXcXcXcXcXcXcXcX",
"cXcXcXcXcXcXcXcXcXcXcXcXcXcXcXcXcXcXcXcXcXcXcXcXcXcXW.lXuXY * @ 4 OX:X-X-X-X:XXX% L I L I L X     X q 0 Q ^ . cXcXcXcXcXcXcXcXcX",
"cXcXcXcXcXcXcXcXcXcXcXcXcXcXcXcXcXcXcXcXcXcXcXcXcXcXW.lX$XiXlXyX. !.zXlXlXlXzX!.  ^ OX*X XQ q q 6 . H G H 7 . cXcXcXcXcXcXcXcXcX",
"cXcXcXcXcXcXcXcXcXcXcXcXcXcXcXcXcXcXcXcXcXcXcXcXcXcXB fXuXK %.lX@ > B l  .B k y ^ oX$X%XoXOX/ Q I & & 7 G q 7 O cXcXcXcXcXcXcXcX",
"cXcXcXcXcXcXcXcXcXcXcXcXcXcXcXcXcXcXcXcXcXcXcXcXcXcXO z.#.q #.iXH 5 2 % X   X 9 {.{.oX$X$X$XOX} ( I . 7 G G L O cXcXcXcXcXcXcXcX",
"cXcXcXcX  %.k.cXcXcXcXcXcXcXcXcXcXcXcXcXcXcXcXcXcXcXcXX X { #X_ #.#.} ( G I { }.{ )  X$X$X$X$X} ` ) . 9 F F 7 O cXcXcXcXcXcXcXcX",
"cXcXcXcX  lX7X..$.cXcXcXcXcXcXcXcXcXcXcXcXcXcXcXcXcXcX* . 3 F G y.V.S D q .X&X$X$X$X$X$X$X$X` ( ' ^ . 7 P 0 . cXcXcXcXcXcXcXcXcX",
"cXcXcXcX  pXlXdX3X,XO.cXcXcXcXcXcXcXcXcXcXcXcXcXcXcXt yXM 4XhXhXtX^.c 8 ^ OX%XoX$XoX$X}.{.$X{ _ / w X 4.T.K.X cXcXcXcXcXcXcXcXcX",
"cXcXcXcXcX1XlXlX0X6X>X%.l   cXcXcXcXcXcXcXcXcXcXcXcX< wXeXtXzXfX/.@.G w .XoX$X$XoXoX-X} I {._ { / 7 + 1 N f cXcXcXcXcXcXcXcXcXcX",
"cXcXcXcXcX..9XlXjXpX7X>Xo.y cXcXcXcXcXcXcXcXcXcXcXcX* A !.8XyX/.A ^ D U &X$XoX$X$X$X%XY 4 _ ` ) I 0 & 8 2   cXcXcXcXcXcXcXcXcXcX",
"cXcXcXcXcXX o.zXlXjXaX6X1X2Xk.y * : cXcXcXcXcXcXcXcXcX    ; 9.N ! J 6 G %X$XoX$XoX$X{ 3 $ ) ` H 7 q w G 3 . cXcXcXcXcXcXcXcXcXcX",
"cXcXcXcXcXcXl 6XlXlXjXpX2X>X>X>X,X>X$.X X o cXs a s cXcXO X . o q I % * &X$X$X$X$X[.$ & H q G G q 6 o . O cXcXcXcXcXcXcXcXcXcXcX",
"cXcXcXcXcXcXcXl  .lXlXjX0X2X7X1X>X>X~.$.o...$.*.*.s u &.u cXcXcXO O & 0 H / .XoX' I . & L F G F w O cXcXcXcXcXcXcXcXcXcXcXcXcXcX",
"cXcXcXcXcXcXcXcX  %.xXlXkXpXaX6X1X2X2XpX7X,X>X>.,.,.-.a -.*.cXcXX X 5 ~ ) } $XoXI 3 & 0 H H D 4 X cXcXcXcXcXcXcXcXcXcXcXcXcXcXcX",
"cXcXcXcXcXcXcXcXcX  <XhXxXkXkXdXpX9XpX2Xk.$.$.=.1.a.;.&.g.;.p cX% 1 S ;X=X&X$X}.^ . % w 9 6 x < ; cXcXcXcXcXcXcXcXcXcXcXcXcXcXcX",
"cXcXcXcXcXcXcXcXcXcX..O.6XlXlXlXlXdXkX:     . p ;.-.u g.g.-.- % ~ ].Y.R.oX%X} ( / O . . . + P.I.w.cXcXcXcXcXcXcXcXcXcXcXcXcXcXcX",
"cXcXcXcXcXcXcXcXcXcXcXcXcX$.k.zXlXlXlXy cXcX    a u . &.*.- 6 =X%X+.m C B _ [.! 8 X   f Z.L.P.T.B.f cXcXcXcXcXcXcXcXcXcXcXcXcXcX",
"cXcXcXcXcXcXcXcXcXcXcXcXcXcXcXX.X.2X3X: cXcX  d > . . # > . 5 #X|...3.u.u.B  . .k k X ; C.H.P.T.G.B.7.= cXcXcXcXcXcXcXcXcXcXcXcX",
"cXcXcXcXcXcXcXcXcXcXcXcXcXcXcXcX. O.o.* cXcX. ,.a .         X r 8 < g h h 4.4.4.u.r.: 1 m 8.Z.D.G.D.g + cXcXcXcXcXcXcXcXcXcXcXcX",
"cXcXcXcXcXcXcXcXcXcXcXcXcXcXcXcXcXcXcXcXcXcX. s.,.-   cXcXcXcX$ $ o o X   m 4.4.4.i.r.C V V 8.e.w.8..   e cXcXcXcXcXcXcXcXcXcXcX",
"cXcXcXcXcXcXcXcXcXcXcXcXcXcXcXcXcXcXcXcXcXcX. d.,.i   cXcXcXcXv.v.v.n.W     .   @ u.i.i.u.q.V B V V V   z @Xm.m.cXcXcXcXcXcXcXcX",
"cXcXcXcXcXcXcXcXcXcXcXcXcXcXcXcXcXcXcXcXcXcX. a.s.<.u   W n.v.v.v.v.v.v.W W E [ R @ # @ ; p.i.u.i.J.J.J.f 6 b.m.x.v.v.cXcXcXcXcX",
"cXcXcXcXcXcXcXcXcXcXcXcXcXcXcXcXcXcXcXcXcXcX. ;.s.s.,.  E n.v.v.v.v.v.v.b.b.n.n.v.z z z y p p g m U.J.R.j X n.m.v.m.v.v.cXcXcXcX",
"cXcXcXcXcXcXcXcXcXcXcXcXcXcXcXcXcXcXcXcXcXcX. i :.6.:.  E n.v.v.v.v.v.v.v.m.v.m.v.+Xn.@Xx.& ,   @ 3.h q.f e b.v.v.v.v.m.cXcXcXcX",
"cXcXcXcXcXcXcXcXcXcXcXcXcXcXcXcXcXcXcXcXcXcXcX          R n.v.v.v.v.v.v.v.v.v.m.v.v.v.v.v.n.@Xe X   X   P @Xx.v.v.v.v.v.cXcXcXcX",
"cXcXcXcXcXcXcXcXcXcXcXcXcXcXcXcXcXcXcXcXcXcXcXcXcXcXcXcXx.v.v.v.v.x.v.v.x.v.v.v.v.m.m.v.v.v.v.x.[ [ x.[ x.v.v.v.v.v.v.cXcXcXcXcX",
"cXcXcXcXcXcXcXcXcXcXcXcXcXcXcXcXcXcXcXcXcXcXcXcXcXcXcXcXcXcXv.v.v.v.m.m.v.v.m.v.v.v.v.v.v.v.m.v.v.b.b.v.v.x.v.v.v.cXcXcXcXcXcXcX",
"cXcXcXcXcXcXcXcXcXcXcXcXcXcXcXcXcXcXcXcXcXcXcXcXcXcXcXcXcXcXcXv.v.v.v.v.v.v.v.v.m.v.v.m.m.v.v.m.v.m.m.v.v.v.v.v.cXcXcXcXcXcXcXcX",
"cXcXcXcXcXcXcXcXcXcXcXcXcXcXcXcXcXcXcXcXcXcXcXcXcXcXcXcXcXcXcXcXcXcXcXcXv.v.v.v.x.v.v.v.m.v.v.v.v.v.v.cXcXcXcXcXcXcXcXcXcXcXcXcX",
"cXcXcXcXcXcXcXcXcXcXcXcXcXcXcXcXcXcXcXcXcXcXcXcXcXcXcXcXcXcXcXcXcXcXcXcXcXcXcXcXcXcXcXcXcXcXcXcXcXcXcXcXcXcXcXcXcXcXcXcXcXcXcXcX",
"cXcXcXcXcXcXcXcXcXcXcXcXcXcXcXcXcXcXcXcXcXcXcXcXcXcXcXcXcXcXcXcXcXcXcXcXcXcXcXcXcXcXcXcXcXcXcXcXcXcXcXcXcXcXcXcXcXcXcXcXcXcXcXcX",
"cXcXcXcXcXcXcXcXcXcXcXcXcXcXcXcXcXcXcXcXcXcXcXcXcXcXcXcXcXcXcXcXcXcXcXcXcXcXcXcXcXcXcXcXcXcXcXcXcXcXcXcXcXcXcXcXcXcXcXcXcXcXcXcX",
"cXcXcXcXcXcXcXcXcXcXcXcXcXcXcXcXcXcXcXcXcXcXcXcXcXcXcXcXcXcXcXcXcXcXcXcXcXcXcXcXcXcXcXcXcXcXcXcXcXcXcXcXcXcXcXcXcXcXcXcXcXcXcXcX",
"cXcXcXcXcXcXcXcXcXcXcXcXcXcXcXcXcXcXcXcXcXcXcXcXcXcXcXcXcXcXcXcXcXcXcXcXcXcXcXcXcXcXcXcXcXcXcXcXcXcXcXcXcXcXcXcXcXcXcXcXcXcXcXcX",
"cXcXcXcXcXcXcXcXcXcXcXcXcXcXcXcXcXcXcXcXcXcXcXcXcXcXcXcXcXcXcXcXcXcXcXcXcXcXcXcXcXcXcXcXcXcXcXcXcXcXcXcXcXcXcXcXcXcXcXcXcXcXcXcX",
"cXcXcXcXcXcXcXcXcXcXcXcXcXcXcXcXcXcXcXcXcXcXcXcXcXcXcXcXcXcXcXcXcXcXcXcXcXcXcXcXcXcXcXcXcXcXcXcXcXcXcXcXcXcXcXcXcXcXcXcXcXcXcXcX",
"cXcXcXcXcXcXcXcXcXcXcXcXcXcXcXcXcXcXcXcXcXcXcXcXcXcXcXcXcXcXcXcXcXcXcXcXcXcXcXcXcXcXcXcXcXcXcXcXcXcXcXcXcXcXcXcXcXcXcXcXcXcXcXcX",
"cXcXcXcXcXcXcXcXcXcXcXcXcXcXcXcXcXcXcXcXcXcXcXcXcXcXcXcXcXcXcXcXcXcXcXcXcXcXcXcXcXcXcXcXcXcXcXcXcXcXcXcXcXcXcXcXcXcXcXcXcXcXcXcX",
"cXcXcXcXcXcXcXcXcXcXcXcXcXcXcXcXcXcXcXcXcXcXcXcXcXcXcXcXcXcXcXcXcXcXcXcXcXcXcXcXcXcXcXcXcXcXcXcXcXcXcXcXcXcXcXcXcXcXcXcXcXcXcXcX",
"cXcXcXcXcXcXcXcXcXcXcXcXcXcXcXcXcXcXcXcXcXcXcXcXcXcXcXcXcXcXcXcXcXcXcXcXcXcXcXcXcXcXcXcXcXcXcXcXcXcXcXcXcXcXcXcXcXcXcXcXcXcXcXcX",
"cXcXcXcXcXcXcXcXcXcXcXcXcXcXcXcXcXcXcXcXcXcXcXcXcXcXcXcXcXcXcXcXcXcXcXcXcXcXcXcXcXcXcXcXcXcXcXcXcXcXcXcXcXcXcXcXcXcXcXcXcXcXcXcX"
};
