/* XPM */
static char *result[] = {
/* columns rows colors chars-per-pixel */
"22 24 15 1 ",
"  c #000001",
". c #781028",
"X c #107828",
"o c #704020",
"O c #A07840",
"+ c #40A028",
"@ c #10F808",
"# c #F8F800",
"$ c #D8A850",
"% c #3050F8",
"& c #D0B088",
"* c #B8F8A0",
"= c #F8E0B8",
"- c #F8F8F8",
"; c None",
/* pixels */
";;;;;;;;; ++ ;;;;;;;;;",
";;;;;;;  ++++  ;;;;;;;",
";;;;;; +@@@@@@+ ;;;;;;",
";;;;;; @@@@@@@@ ;;;;;;",
";;;;; +@@@@@@@@+ ;;;;;",
";;;;; @O######O@ ;;;;;",
";;;; +O########$+ ;;;;",
";;O&oo$######O##oo&O;;",
";;o==O##$###O&O#O==o;;",
";;;oo$#$$###O&=$O&o;;;",
";;; OoO$O$##o=&o#O ;;;",
";;; $#O O$Oo&o O#$ ;;;",
";;;; Oo-%oo&o%-o$ ;;;;",
";;;;; O=%-==-%=O ;;;;;",
";;;; o O======O ;;;;;;",
";;; O**oo&&&&oo ;;;;;;",
";;; &&  X++++X* ;;;;;;",
";;;;   +oo##oo** ;;;;;",
";;;;; +@@+##+ *== ;;;;",
";;;;;  @@@@@++ &= ;;;;",
";;;;; . +@@@@X   ;;;;;",
";;;;;;        ;;;;;;;;",
";;;;;;;;;;;;;;;;;;;;;;",
";;;;;;;;;;;;;;;;;;;;;;"
};
