/* XPM */
static char *result[] = {
/* columns rows colors chars-per-pixel */
"66 72 225 2 ",
"   c #000000",
".  c #0C0003",
"X  c #090C05",
"o  c #140A06",
"O  c #120408",
"+  c #0D1A09",
"@  c #051608",
"#  c #18170C",
"$  c #1D1713",
"%  c #21190E",
"&  c #21160B",
"*  c #271E1B",
"=  c #360C0D",
"-  c #142A0D",
";  c #1A2513",
":  c #193E10",
">  c #0E3C0C",
",  c #29241D",
"<  c #2C2C05",
"1  c #1D3F21",
"2  c #203320",
"3  c #252420",
"4  c #4B140D",
"5  c #7D1B19",
"6  c #4D2A0D",
"7  c #572E17",
"8  c #5B391B",
"9  c #4E350E",
"0  c #693918",
"q  c #703E14",
"w  c #6D0024",
"e  c #49382D",
"r  c #653124",
"t  c #6C322A",
"y  c #035401",
"u  c #005F04",
"i  c #004512",
"p  c #026601",
"a  c #116714",
"s  c #287418",
"d  c #0F6E25",
"f  c #397B24",
"g  c #306622",
"h  c #214D1F",
"j  c #614903",
"k  c #55791A",
"l  c #41661D",
"z  c #4F5232",
"x  c #694426",
"c  c #764523",
"v  c #775528",
"b  c #7A4A37",
"n  c #7F5438",
"m  c #62532B",
"M  c #626422",
"N  c #7D6936",
"B  c #4B366A",
"V  c #635949",
"C  c #635E50",
"Z  c #715341",
"A  c #747053",
"S  c #7E6C67",
"D  c #584771",
"F  c #8E151D",
"G  c #A01E1D",
"H  c #A2221F",
"J  c #820029",
"K  c #AC102A",
"L  c #FC2D31",
"P  c #F0252E",
"I  c #CD3829",
"U  c #885B38",
"Y  c #8C4D29",
"T  c #876738",
"R  c #956634",
"E  c #996B2F",
"W  c #9C7225",
"Q  c #8F5943",
"!  c #967240",
"~  c #8D6D4D",
"^  c #A96C46",
"/  c #A17941",
"(  c #A1724C",
")  c #A47B56",
"_  c #AA7F61",
"`  c #8D7D6E",
"'  c #1A8D0C",
"]  c #27851C",
"[  c #36811E",
"{  c #269C1F",
"}  c #0BB708",
"|  c #0BA809",
" . c #29AA1C",
".. c #269520",
"X. c #12B620",
"o. c #38A629",
"O. c #35B625",
"+. c #4AA814",
"@. c #4E8E29",
"#. c #6C9737",
"$. c #40A028",
"%. c #45AB2B",
"&. c #5BA22F",
"*. c #59A238",
"=. c #63BF37",
"-. c #528015",
";. c #0FD711",
":. c #2EC51C",
">. c #26DA1A",
",. c #15E80A",
"<. c #03FE04",
"1. c #0DFE06",
"2. c #00F809",
"3. c #0AF808",
"4. c #0BF708",
"5. c #13FD06",
"6. c #10F808",
"7. c #1BF206",
"8. c #04EA16",
"9. c #10EB13",
"0. c #20F412",
"q. c #34D320",
"w. c #35CE24",
"e. c #6BF905",
"r. c #67F30B",
"t. c #6DF40C",
"y. c #5CE021",
"u. c #4AC428",
"i. c #62965E",
"p. c #7A8161",
"a. c #719462",
"s. c #6F9466",
"d. c #5DB460",
"f. c #76A368",
"g. c #95821A",
"h. c #92A716",
"j. c #BFA91A",
"k. c #A98428",
"l. c #BC833C",
"z. c #B2952E",
"x. c #A19920",
"c. c #C49A1A",
"v. c #CAB112",
"b. c #D5BA31",
"n. c #C3AB23",
"m. c #E5BD3A",
"M. c #E1B429",
"N. c #C69B35",
"B. c #B5DA0F",
"V. c #A4FF04",
"C. c #D7C517",
"Z. c #D1CB0B",
"A. c #EADD0A",
"S. c #E5D718",
"D. c #F4D319",
"F. c #F5CA19",
"G. c #EBE704",
"H. c #F4EC0D",
"J. c #F0EA03",
"K. c #FCFC00",
"L. c #F9F404",
"P. c #F9E61B",
"I. c #F4F408",
"U. c #E9CB2A",
"Y. c #ECCF31",
"T. c #F5E328",
"R. c #B58849",
"E. c #BE985C",
"W. c #B08658",
"Q. c #958065",
"!. c #AA8A67",
"~. c #BB9767",
"^. c #BB9873",
"/. c #B88C68",
"(. c #92A864",
"). c #B2A872",
"_. c #B9B079",
"`. c #C29153",
"'. c #C7924F",
"]. c #D6AC49",
"[. c #E4BC43",
"{. c #D19E78",
"}. c #C39E79",
"|. c #C7A168",
" X c #C1AD7F",
".X c #D8AD75",
"XX c #EDC95C",
"oX c #2633B7",
"OX c #525BA4",
"+X c #3959FF",
"@X c #4A6AF8",
"#X c #4B75FF",
"$X c #7A8596",
"%X c #818D9F",
"&X c #C29E80",
"*X c #CAA984",
"=X c #D2B28C",
"-X c #D3B388",
";X c #D8B896",
":X c #E1BC8A",
">X c #E5C69C",
",X c #DFC5A5",
"<X c #EFC4A3",
"1X c #E6CDA4",
"2X c #EDD2A7",
"3X c #F3D7AB",
"4X c #F9DFB4",
"5X c #F4C9A8",
"6X c #C1F0A9",
"7X c #CDFFB2",
"8X c #CCF2B0",
"9X c #D5FFB4",
"0X c #FDE3B5",
"qX c #F8E0B8",
"wX c #F1E8B9",
"eX c #8F94DC",
"rX c #B1BEFC",
"tX c #DED8D6",
"yX c #FFECC4",
"uX c #FDEAC5",
"iX c #FFFBCF",
"pX c #FFFBD7",
"aX c #EFE8EF",
"sX c #FBFFFD",
"dX c #489848",
/* pixels */
"dXdXdXdXdXdXdXdXdXdXdXdXdXdXdXdXdXdXdXdXdXdXdXdXdXdXdXdXdXdXdXdXdXdXdXdXdXdXdXdXdXdXdXdXdXdXdXdXdXdXdXdXdXdXdXdXdXdXdXdXdXdXdXdXdXdX",
"dXdXdXdXdXdXdXdXdXdXdXdXdXdXdXdXdXdXdXdXdXdXdXdXdXdXdXdXdXdXdXdXdXdXdXdXdXdXdXdXdXdXdXdXdXdXdXdXdXdXdXdXdXdXdXdXdXdXdXdXdXdXdXdXdXdX",
"dXdXdXdXdXdXdXdXdXdXdXdXdXdXdXdXdXdXdXdXdXdXdXdXdXdXdXdXdXdXdXdXdXdXdXdXdXdXdXdXdXdXdXdXdXdXdXdXdXdXdXdXdXdXdXdXdXdXdXdXdXdXdXdXdXdX",
"dXdXdXdXdXdXdXdXdXdXdXdXdXdXdXdXdXdXdXdXdXdXdXdXdXdXdXdXdXdXdXdXdXdXdXdXdXdXdXdXdXdXdXdXdXdXdXdXdXdXdXdXdXdXdXdXdXdXdXdXdXdXdXdXdXdX",
"dXdXdXdXdXdXdXdXdXdXdXdXdXdXdXdXdXdXdXdXdXdXdXdXdXdXdXdXdXdXdXdXdXdXdXdXdXdXdXdXdXdXdXdXdXdXdXdXdXdXdXdXdXdXdXdXdXdXdXdXdXdXdXdXdXdX",
"dXdXdXdXdXdXdXdXdXdXdXdXdXdXdXdXdXdXdXdXdXdXdXdXdXdXdXdXdXdXdXdXdXdXdXdXdXdXdXdXdXdXdXdXdXdXdXdXdXdXdXdXdXdXdXdXdXdXdXdXdXdXdXdXdXdX",
"dXdXdXdXdXdXdXdXdXdXdXdXdXdXdXdXdXdXdXdXdXdXdXdXdXdXdXdXdXdXdXdXdXdXdXdXdXdXdXdXdXdXdXdXdXdXdXdXdXdXdXdXdXdXdXdXdXdXdXdXdXdXdXdXdXdX",
"dXdXdXdXdXdXdXdXdXdXdXdXdXdXdXdXdXdXdXdXdXdXdXdXdXdXdXdXdXdXdXdXdXdXdXdXdXdXdXdXdXdXdXdXdXdXdXdXdXdXdXdXdXdXdXdXdXdXdXdXdXdXdXdXdXdX",
"dXdXdXdXdXdXdXdXdXdXdXdXdXdXdXdXdXdXdXdXdXdXdXdXdXdXdXdXdXdXdXdXdXdXdXdXdXdXdXdXdXdXdXdXdXdXdXdXdXdXdXdXdXdXdXdXdXdXdXdXdXdXdXdXdXdX",
"dXdXdXdXdXdXdXdXdXdXdXdXdXdXdXdXdXdXdXdXdXdXdXdXdXdXdXdXdXdXdXdXdXdXdXdXdXdXdXdXdXdXdXdXdXdXdXdXdXdXdXdXdXdXdXdXdXdXdXdXdXdXdXdXdXdX",
"dXdXdXdXdXdXdXdXdXdXdXdXdXdXdXdXdXdXdXdXdXdXdXdXdXdXdXdXdXdXdXdXdXdXdXdXdXdXdXdXdXdXdXdXdXdXdXdXdXdXdXdXdXdXdXdXdXdXdXdXdXdXdXdXdXdX",
"dXdXdXdXdXdXdXdXdXdXdXdXdXdXdXdXdXdXdXdXdXdXdXdXdXdXdXdXdXdXdXdXdXdXdXdXdXdXdXdXdXdXdXdXdXdXdXdXdXdXdXdXdXdXdXdXdXdXdXdXdXdXdXdXdXdX",
"dXdXdXdXdXdXdXdXdXdXdXdXdXdXdXdXdXdXdXdXdXdXdXdXdXdXdXdXdXdXdXdXdXdXdXdXdXdXdXdXdXdXdXdXdXdXdXdXdXdXdXdXdXdXdXdXdXdXdXdXdXdXdXdXdXdX",
"dXdXdXdXdXdXdXdXdXdXdXdXdXdXdXdXdXdXdXdXdXdXdXdXdXdXdXdXdXdXdXdXdXdXdXdXdXdXdXdXdXdXdXdXdXdXdXdXdXdXdXdXdXdXdXdXdXdXdXdXdXdXdXdXdXdX",
"dXdXdXdXdXdXdXdXdXdXdXdXdXdXdXdXdXdXdXdXdXdXdXdXdXdXdXdXdXdXdXdXdXdXdXdXdXdXdXdXdXdXdXdXdXdXdXdXdXdXdXdXdXdXdXdXdXdXdXdXdXdXdXdXdXdX",
"dXdXdXdXdXdXdXdXdXdXdXdXdXdXdXdXdXdXdXdXdXdXdXdXdXdXdXdXdXdXdXdXdXdXdXdXdXdXdXdXdXdXdXdXdXdXdXdXdXdXdXdXdXdXdXdXdXdXdXdXdXdXdXdXdXdX",
"dXdXdXdXdXdXdXdXdXdXdXdXdXdXdXdXdXdXdXdXdXdXdXdXdXdXdXdXdXdXdXdXdXdXdXdXdXdXdXdXdXdXdXdXdXdXdXdXdXdXdXdXdXdXdXdXdXdXdXdXdXdXdXdXdXdX",
"dXdXdXdXdXdXdXdXdXdXdXdXdXdXdXdXdXdXdXdXdXdXdXdXdXdXdXdX  : $.%.$.$.%.$.:   dXdXdXdXdXdXdXdXdXdXdXdXdXdXdXdXdXdXdXdXdXdXdXdXdXdXdXdX",
"dXdXdXdXdXdXdXdXdXdXdXdXdXdXdXdXdXdXdXdXdXdXdXdXdXdXdX. ; s :.:.:.:.:.:.s ; . dXdXdXdXdXdXdXdXdXdXdXdXdXdXdXdXdXdXdXdXdXdXdXdXdXdXdX",
"dXdXdXdXdXdXdXdXdXdXdXdXdXdXdXdXdXdXdXdXdXdXdXdXdXdX  + f q.4.1.6.6.1.4.q.f +   dXdXdXdXdXdXdXdXdXdXdXdXdXdXdXdXdXdXdXdXdXdXdXdXdXdX",
"dXdXdXdXdXdXdXdXdXdXdXdXdXdXdXdXdXdXdXdXdXdXdXdXdX  y | >.0.1.1.1.1.1.1.0.>.| y   dXdXdXdXdXdXdXdXdXdXdXdXdXdXdXdXdXdXdXdXdXdXdXdXdX",
"dXdXdXdXdXdXdXdXdXdXdXdXdXdXdXdXdXdXdXdXdXdXdXdXX + } 1.<.<.4.4.4.4.4.3.<.<.5.} + X dXdXdXdXdXdXdXdXdXdXdXdXdXdXdXdXdXdXdXdXdXdXdXdX",
"dXdXdXdXdXdXdXdXdXdXdXdXdXdXdXdXdXdXdXdXdXdXdX  - ] ;.<.<.2.2.2.2.2.2.2.<.<.<.>.f +   dXdXdXdXdXdXdXdXdXdXdXdXdXdXdXdXdXdXdXdXdXdXdX",
"dXdXdXdXdXdXdXdXdXdXdXdXdXdXdXdXdXdXdXdXdXdXX > g #.=.y.r.e.e.e.e.e.e.e.e.r.u.w.>.] - X dXdXdXdXdXdXdXdXdXdXdXdXdXdXdXdXdXdXdXdXdXdX",
"dXdXdXdXdXdXdXdXdXdXdXdXdXdXdXdXdXdXdXdXdX  + [ #.! `.[.H.K.K.L.L.K.L.K.K.A.l.&.4.>.f +   dXdXdXdXdXdXdXdXdXdXdXdXdXdXdXdXdXdXdXdXdX",
"dXdXdXdXdXdXdXdXdXdXdXdXdXdXdXdXdXdXdXdXdX3 X h x.C.D.D.L.K.K.K.K.K.K.K.K.K.F.n.&.=...X * dXdXdXdXdXdXdXdXdXdXdXdXdXdXdXdXdXdXdXdXdX",
"dXdXdXdXdXdXdXdXdXdXdXdXdXdXdXdXdXdXdXdXdXz O r c.K.K.I.I.K.K.I.L.K.K.K.G.G.K.S.l.#.s o Z dXdXdXdXdXdXdXdXdXdXdXdXdXdXdXdXdXdXdXdXdX",
"dXdXdXdXdXdXdXdXdXdXdXdXdXdXdXdXdXdXR.~.*XQ 7 ^ Y.K.Y.[.H.K.I.K.L.K.K.K.n.z.L.K.A.g.9 4 n *X~./ dXdXdXdXdXdXdXdXdXdXdXdXdXdXdXdXdXdX",
"dXdXdXdXdXdXdXdXdXdXdXdXdXdXdXdXdXdXR /.1X!.W M.T.C.b.Y.H.L.I.K.I.P.S.C.R.W.n.G.K.v.U ^ -X1X/.R dXdXdXdXdXdXdXdXdXdXdXdXdXdXdXdXdXdX",
"dXdXdXdXdXdXdXdXdXdXdXdXdXdXdXdXdXdXq !.4X&Xk.J.C./ C.K.K.L.K.K.H.[.R.! ).*X) j.K.U..X5XyX0XQ.0 dXdXdXdXdXdXdXdXdXdXdXdXdXdXdXdXdXdX",
"dXdXdXdXdXdXdXdXdXdXdXdXdXdXdXdXdXdXdXU /.}.E.k.k.E.S.K.K.K.K.P.b.'.W.^.*X=X;X.XY.'./.2X,X!.U dXdXdXdXdXdXdXdXdXdXdXdXdXdXdXdXdXdXdX",
"dXdXdXdXdXdXdXdXdXdXdXdXdXdXdXdXdXdXdXdX6 !.*XZ Y ].Y.L.H.H.H.[.W.R W.=X;X1X0X>X`.k.z.~.( 0 dXdXdXdXdXdXdXdXdXdXdXdXdXdXdXdXdXdXdXdX",
"dXdXdXdXdXdXdXdXdXdXdXdXdXdXdXdXdXdXdXdXo ` :X~ U R.b.XX[.[.[.].^ q U =XqXyX0X/.Y j.A.W b dXdXdXdXdXdXdXdXdXdXdXdXdXdXdXdXdXdXdXdXdX",
"dXdXdXdXdXdXdXdXdXdXdXdXdXdXdXdXdXdXdXdX  Z |.b.z.U x n l.'.E.R v U !.;X-X~.A t c A.G.j = dXdXdXdXdXdXdXdXdXdXdXdXdXdXdXdXdXdXdXdXdX",
"dXdXdXdXdXdXdXdXdXdXdXdXdXdXdXdXdXdXdXdX  = W J.Z.c O o T R.E v b ^.>X*X! 4   , / P.Z.<   dXdXdXdXdXdXdXdXdXdXdXdXdXdXdXdXdXdXdXdXdX",
"dXdXdXdXdXdXdXdXdXdXdXdXdXdXdXdXdXdXdXdXdX. 9 Y.M.Y ` %XOXD 0 U ^.2X.XU B OX$X` R Y.b.<   dXdXdXdXdXdXdXdXdXdXdXdXdXdXdXdXdXdXdXdXdX",
"dXdXdXdXdXdXdXdXdXdXdXdXdXdXdXdXdXdXdXdXdXdX# ! E 8 1XsX@XoXQ ~.3XyX-Xn oX#XsX,X7 R ! %   dXdXdXdXdXdXdXdXdXdXdXdXdXdXdXdXdXdXdXdXdX",
"dXdXdXdXdXdXdXdXdXdXdXdXdXdXdXdXdXdXdXdXdXdXdX% o o _.aX+X@XtXuX4X0XwXtX@X+XaX*Xo & % dXdXdXdXdXdXdXdXdXdXdXdXdXdXdXdXdXdXdXdXdXdXdX",
"dXdXdXdXdXdXdXdXdXdXdXdXdXdXdXdXdXdXdXdXdXdXdXdX    Q ,XeXrXsXpX0XqXpXsXrXeX,X~     dXdXdXdXdXdXdXdXdXdXdXdXdXdXdXdXdXdXdXdXdXdXdXdX",
"dXdXdXdXdXdXdXdXdXdXdXdXdXdXdXdXdXdXdXdXdXdXdXdXdX  8 E.2XyX4X4XqXqXqXqXyX2XE.9   dXdXdXdXdXdXdXdXdXdXdXdXdXdXdXdXdXdXdXdXdXdXdXdXdX",
"dXdXdXdXdXdXdXdXdXdXdXdXdXdXdXdXdXdXdXdXdXdXdXdX2 s.~ Y ^ {.<X5X<X<X5X<X{.^ Y T s.2 dXdXdXdXdXdXdXdXdXdXdXdXdXdXdXdXdXdXdXdXdXdXdXdX",
"dXdXdXdXdXdXdXdXdXdXdXdXdXdXdXdXdXdXdXdXdXdXdX; a.7X(.6 9 N )._.).)._.).N 9 6 (.7Xs.; dXdXdXdXdXdXdXdXdXdXdXdXdXdXdXdXdXdXdXdXdXdXdX",
"dXdXdXdXdXdXdXdXdXdXdXdXdXdXdXdXdXdXdXdX    @ f.8X7Xd.a s @.&.*.*.*.*.*.@.[ a d.7X8Xf.@     dXdXdXdXdXdXdXdXdXdXdXdXdXdXdXdXdXdXdXdX",
"dXdXdXdXdXdXdXdXdXdXdXdXdXdXdXdXdXdXdX3 C C p.7X8Xs.g g o.O. . ....... .O.o.g l a.6X7Xp.C V , dXdXdXdXdXdXdXdXdXdXdXdXdXdXdXdXdXdXdX",
"dXdXdXdXdXdXdXdXdXdXdXdXdXdXdXdXdXdX  V 4XyXwX9Xi.  = v @.o.$.$.o.$.o.$.o.@.v =   i.9XuXuXwXV . dXdXdXdXdXdXdXdXdXdXdXdXdXdXdXdXdXdX",
"dXdXdXdXdXdXdXdXdXdXdXdXdXdXdXdXdXdX  V 0XiX1XA 1 i ' +.M t M h.B.B.h.M r M +.' i 1 A 1XiXqXV   dXdXdXdXdXdXdXdXdXdXdXdXdXdXdXdXdXdX",
"dXdXdXdXdXdXdXdXdXdXdXdXdXdXdXdXdXdX  e !.*X~ X   d 8.5.-.r x v.K.K.v.c r -.5.8.d   . ~ *X!.2   dXdXdXdXdXdXdXdXdXdXdXdXdXdXdXdXdXdX",
"dXdXdXdXdXdXdXdXdXdXdXdXdXdXdXdXdXdXdXX * 3 $ dXdX@ } 5.6. .@.Z.K.K.Z.@. .7.5.} @ dXdX$ , , # dXdXdXdXdXdXdXdXdXdXdXdXdXdXdXdXdXdXdX",
"dXdXdXdXdXdXdXdXdXdXdXdXdXdXdXdXdXdXdXdX      dXdX  y | 9.9.>.t.V.V.t.>.8.;.| y   dXdXdX    dXdXdXdXdXdXdXdXdXdXdXdXdXdXdXdXdXdXdXdX",
"dXdXdXdXdXdXdXdXdXdXdXdXdXdXdXdXdXdXdXdXdXdXdX        @ [ q.6.1.6.6.5.5.X.h @     dXdXdXdXdXdXdXdXdXdXdXdXdXdXdXdXdXdXdXdXdXdXdXdXdX",
"dXdXdXdXdXdXdXdXdXdXdXdXdXdXdXdXdXdXdXdXdXdXdX  # 7 5 F t m M a u u p p g e O   dXdXdXdXdXdXdXdXdXdXdXdXdXdXdXdXdXdXdXdXdXdXdXdXdXdX",
"dXdXdXdXdXdXdXdXdXdXdXdXdXdXdXdXdXdXdXdXdXdXdX  # 8 I P K w w =       . 4 7 o dXdXdXdXdXdXdXdXdXdXdXdXdXdXdXdXdXdXdXdXdXdXdXdXdXdXdX",
"dXdXdXdXdXdXdXdXdXdXdXdXdXdXdXdXdXdXdXdXdXdXdXdX. o G L L F O . dXdXdXdXo o dXdXdXdXdXdXdXdXdXdXdXdXdXdXdXdXdXdXdXdXdXdXdXdXdXdXdXdX",
"dXdXdXdXdXdXdXdXdXdXdXdXdXdXdXdXdXdXdXdXdXdXdXdXdX  4 G G 4   dXdXdXdXdXdX  dXdXdXdXdXdXdXdXdXdXdXdXdXdXdXdXdXdXdXdXdXdXdXdXdXdXdXdX",
"dXdXdXdXdXdXdXdXdXdXdXdXdXdXdXdXdXdXdXdXdXdXdXdXdXdX        dXdXdXdXdXdXdXdXdXdXdXdXdXdXdXdXdXdXdXdXdXdXdXdXdXdXdXdXdXdXdXdXdXdXdXdX",
"dXdXdXdXdXdXdXdXdXdXdXdXdXdXdXdXdXdXdXdXdXdXdXdXdXdXdXdXdXdXdXdXdXdXdXdXdXdXdXdXdXdXdXdXdXdXdXdXdXdXdXdXdXdXdXdXdXdXdXdXdXdXdXdXdXdX",
"dXdXdXdXdXdXdXdXdXdXdXdXdXdXdXdXdXdXdXdXdXdXdXdXdXdXdXdXdXdXdXdXdXdXdXdXdXdXdXdXdXdXdXdXdXdXdXdXdXdXdXdXdXdXdXdXdXdXdXdXdXdXdXdXdXdX",
"dXdXdXdXdXdXdXdXdXdXdXdXdXdXdXdXdXdXdXdXdXdXdXdXdXdXdXdXdXdXdXdXdXdXdXdXdXdXdXdXdXdXdXdXdXdXdXdXdXdXdXdXdXdXdXdXdXdXdXdXdXdXdXdXdXdX",
"dXdXdXdXdXdXdXdXdXdXdXdXdXdXdXdXdXdXdXdXdXdXdXdXdXdXdXdXdXdXdXdXdXdXdXdXdXdXdXdXdXdXdXdXdXdXdXdXdXdXdXdXdXdXdXdXdXdXdXdXdXdXdXdXdXdX",
"dXdXdXdXdXdXdXdXdXdXdXdXdXdXdXdXdXdXdXdXdXdXdXdXdXdXdXdXdXdXdXdXdXdXdXdXdXdXdXdXdXdXdXdXdXdXdXdXdXdXdXdXdXdXdXdXdXdXdXdXdXdXdXdXdXdX",
"dXdXdXdXdXdXdXdXdXdXdXdXdXdXdXdXdXdXdXdXdXdXdXdXdXdXdXdXdXdXdXdXdXdXdXdXdXdXdXdXdXdXdXdXdXdXdXdXdXdXdXdXdXdXdXdXdXdXdXdXdXdXdXdXdXdX",
"dXdXdXdXdXdXdXdXdXdXdXdXdXdXdXdXdXdXdXdXdXdXdXdXdXdXdXdXdXdXdXdXdXdXdXdXdXdXdXdXdXdXdXdXdXdXdXdXdXdXdXdXdXdXdXdXdXdXdXdXdXdXdXdXdXdX",
"dXdXdXdXdXdXdXdXdXdXdXdXdXdXdXdXdXdXdXdXdXdXdXdXdXdXdXdXdXdXdXdXdXdXdXdXdXdXdXdXdXdXdXdXdXdXdXdXdXdXdXdXdXdXdXdXdXdXdXdXdXdXdXdXdXdX",
"dXdXdXdXdXdXdXdXdXdXdXdXdXdXdXdXdXdXdXdXdXdXdXdXdXdXdXdXdXdXdXdXdXdXdXdXdXdXdXdXdXdXdXdXdXdXdXdXdXdXdXdXdXdXdXdXdXdXdXdXdXdXdXdXdXdX",
"dXdXdXdXdXdXdXdXdXdXdXdXdXdXdXdXdXdXdXdXdXdXdXdXdXdXdXdXdXdXdXdXdXdXdXdXdXdXdXdXdXdXdXdXdXdXdXdXdXdXdXdXdXdXdXdXdXdXdXdXdXdXdXdXdXdX",
"dXdXdXdXdXdXdXdXdXdXdXdXdXdXdXdXdXdXdXdXdXdXdXdXdXdXdXdXdXdXdXdXdXdXdXdXdXdXdXdXdXdXdXdXdXdXdXdXdXdXdXdXdXdXdXdXdXdXdXdXdXdXdXdXdXdX",
"dXdXdXdXdXdXdXdXdXdXdXdXdXdXdXdXdXdXdXdXdXdXdXdXdXdXdXdXdXdXdXdXdXdXdXdXdXdXdXdXdXdXdXdXdXdXdXdXdXdXdXdXdXdXdXdXdXdXdXdXdXdXdXdXdXdX",
"dXdXdXdXdXdXdXdXdXdXdXdXdXdXdXdXdXdXdXdXdXdXdXdXdXdXdXdXdXdXdXdXdXdXdXdXdXdXdXdXdXdXdXdXdXdXdXdXdXdXdXdXdXdXdXdXdXdXdXdXdXdXdXdXdXdX",
"dXdXdXdXdXdXdXdXdXdXdXdXdXdXdXdXdXdXdXdXdXdXdXdXdXdXdXdXdXdXdXdXdXdXdXdXdXdXdXdXdXdXdXdXdXdXdXdXdXdXdXdXdXdXdXdXdXdXdXdXdXdXdXdXdXdX",
"dXdXdXdXdXdXdXdXdXdXdXdXdXdXdXdXdXdXdXdXdXdXdXdXdXdXdXdXdXdXdXdXdXdXdXdXdXdXdXdXdXdXdXdXdXdXdXdXdXdXdXdXdXdXdXdXdXdXdXdXdXdXdXdXdXdX",
"dXdXdXdXdXdXdXdXdXdXdXdXdXdXdXdXdXdXdXdXdXdXdXdXdXdXdXdXdXdXdXdXdXdXdXdXdXdXdXdXdXdXdXdXdXdXdXdXdXdXdXdXdXdXdXdXdXdXdXdXdXdXdXdXdXdX",
"dXdXdXdXdXdXdXdXdXdXdXdXdXdXdXdXdXdXdXdXdXdXdXdXdXdXdXdXdXdXdXdXdXdXdXdXdXdXdXdXdXdXdXdXdXdXdXdXdXdXdXdXdXdXdXdXdXdXdXdXdXdXdXdXdXdX"
};
