/* XPM */
static char *result[] = {
/* columns rows colors chars-per-pixel */
"66 72 228 2 ",
"   c #000000",
".  c #080804",
"X  c #170605",
"o  c #091805",
"O  c #161708",
"+  c #1C1A16",
"@  c #21190F",
"#  c #281818",
"$  c #371A15",
"%  c #310D06",
"&  c #032C02",
"*  c #162B0A",
"=  c #1D2716",
"-  c #193E10",
";  c #302B0C",
":  c #2F3000",
">  c #2A2317",
",  c #37251E",
"<  c #372928",
"1  c #263321",
"2  c #590B15",
"3  c #461917",
"4  c #591110",
"5  c #46140C",
"6  c #620D17",
"7  c #4F3515",
"8  c #573C1A",
"9  c #512B11",
"0  c #673616",
"q  c #703E14",
"w  c #570F22",
"e  c #5B3E36",
"r  c #4D3E37",
"t  c #6C3C2E",
"y  c #074B05",
"u  c #045905",
"i  c #144F13",
"p  c #016501",
"a  c #006900",
"s  c #076914",
"d  c #32751B",
"f  c #177A27",
"g  c #387B26",
"h  c #3E672A",
"j  c #394A26",
"k  c #444213",
"l  c #65420B",
"z  c #5A711C",
"x  c #594222",
"c  c #514935",
"v  c #674723",
"b  c #714122",
"n  c #754825",
"m  c #665727",
"M  c #76562A",
"N  c #615339",
"B  c #7E5734",
"V  c #47603E",
"C  c #757033",
"Z  c #483467",
"A  c #5D5345",
"S  c #685149",
"D  c #7B6A45",
"F  c #54436E",
"G  c #851919",
"H  c #B41D2C",
"J  c #9E2633",
"K  c #D5282A",
"L  c #EC2B2B",
"P  c #F22C30",
"I  c #C7182D",
"U  c #89441C",
"Y  c #A17C1C",
"T  c #855629",
"R  c #81563A",
"E  c #99572F",
"W  c #95652E",
"Q  c #8D6435",
"!  c #926535",
"~  c #9A7336",
"^  c #8C7535",
"/  c #A3753F",
"(  c #A06B31",
")  c #997018",
"_  c #845C45",
"`  c #B05F42",
"'  c #886545",
"]  c #996E45",
"[  c #967240",
"{  c #997053",
"}  c #A27941",
"|  c #AA7E4C",
" . c #A57A59",
".. c #857767",
"X. c #A4776A",
"o. c #178610",
"O. c #29921F",
"+. c #0BB207",
"@. c #0EA109",
"#. c #28AA1B",
"$. c #378B23",
"%. c #2A9A26",
"&. c #34AB27",
"*. c #4E902A",
"=. c #66993A",
"-. c #41A128",
";. c #45AB2B",
":. c #5BA63A",
">. c #40BC24",
",. c #60AD32",
"<. c #17DB12",
"1. c #0CD209",
"2. c #2DC21C",
"3. c #31C91D",
"4. c #28DC1C",
"5. c #0DFE06",
"6. c #00F909",
"7. c #0BFB08",
"8. c #03FB07",
"9. c #10FA08",
"0. c #1BFF0E",
"q. c #17EC10",
"w. c #35D424",
"e. c #4BC61D",
"r. c #70DE1D",
"t. c #6AF905",
"y. c #72FA0D",
"u. c #63ED0A",
"i. c #75844B",
"p. c #9F8D1D",
"a. c #90A818",
"s. c #BFA612",
"d. c #BD873C",
"f. c #B08C2D",
"g. c #BBA124",
"h. c #A2A026",
"j. c #CEBA0E",
"k. c #CDB410",
"l. c #D9BE33",
"z. c #C9B324",
"x. c #E9BB33",
"c. c #C19334",
"v. c #B7DB0F",
"b. c #A4FF04",
"n. c #84C53B",
"m. c #C6C60C",
"M. c #D4D800",
"N. c #D5CB14",
"B. c #E8DD0C",
"V. c #E8D01A",
"C. c #D6E400",
"Z. c #E9E506",
"A. c #F4EB0D",
"S. c #FEF603",
"D. c #FCFC00",
"F. c #F7F405",
"G. c #FAE71A",
"H. c #FCF412",
"J. c #C0C12E",
"K. c #EBD328",
"L. c #E7C834",
"P. c #EBD426",
"I. c #B68845",
"U. c #AA845A",
"Y. c #B68A53",
"T. c #AE8142",
"R. c #958E71",
"E. c #B38964",
"W. c #B89466",
"Q. c #A6906B",
"!. c #8DAD6D",
"~. c #B3A873",
"^. c #B9A873",
"/. c #939053",
"(. c #C79A47",
"). c #CF9A4F",
"_. c #D9A754",
"`. c #D4A944",
"'. c #E5BD4D",
"]. c #F1AF49",
"[. c #CB9F6C",
"{. c #C68E68",
"}. c #C4A67B",
"|. c #D1AE6D",
" X c #F3C949",
".X c #2734B8",
"XX c #5E68AE",
"oX c #464C98",
"OX c #3A5EFF",
"+X c #4A74FF",
"@X c #4E6AF8",
"#X c #7A8596",
"$X c #7E81CC",
"%X c #8E938D",
"&X c #AD9D82",
"*X c #A9A184",
"=X c #C29E80",
"-X c #CBAC86",
";X c #D2B186",
":X c #D7B993",
">X c #E2BF8D",
",X c #DABDA3",
"<X c #97C983",
"1X c #BACAA5",
"2X c #BAFBA3",
"3X c #AAD88A",
"4X c #D0D99D",
"5X c #DEC6A3",
"6X c #E5CAA2",
"7X c #EBCAA5",
"8X c #EDD2AB",
"9X c #F8D6AB",
"0X c #F5DBB2",
"qX c #F1D0B0",
"wX c #D6FEB4",
"eX c #FAE2BA",
"rX c #FAE3B9",
"tX c #E4F6B8",
"yX c #A5ADEC",
"uX c #D9D1CF",
"iX c #FFEDC4",
"pX c #F5E7C1",
"aX c #FFF4CB",
"sX c #FFFDD6",
"dX c #FFFFE5",
"fX c #FBFFFD",
"gX c #E9EEF8",
"hX c None",
/* pixels */
"hXhXhXhXhXhXhXhXhXhXhXhXhXhXhXhXhXhXhXhXhXhXhXhXhXhXhXhXhXhXhXhXhXhXhXhXhXhXhXhXhXhXhXhXhXhXhXhXhXhXhXhXhXhXhXhXhXhXhXhXhXhXhXhXhXhX",
"hXhXhXhXhXhXhXhXhXhXhXhXhXhXhXhXhXhXhXhXhXhXhXhXhXhXhXhXhXhXhXhXhXhXhXhXhXhXhXhXhXhXhXhXhXhXhXhXhXhXhXhXhXhXhXhXhXhXhXhXhXhXhXhXhXhX",
"hXhXhXhXhXhXhXhXhXhXhXhXhXhXhXhXhXhXhXhXhXhXhXhXhXhXhXhXhXhXhXhXhXhXhXhXhXhXhXhXhXhXhXhXhXhXhXhXhXhXhXhXhXhXhXhXhXhXhXhXhXhXhXhXhXhX",
"hXhXhXhXhXhXhXhXhXhXhXhXhXhXhXhXhXhXhXhXhXhXhXhXhXhXhXhXhXhXhXhXhXhXhXhXhXhXhXhXhXhXhXhXhXhXhXhXhXhXhXhXhXhXhXhXhXhXhXhXhXhXhXhXhXhX",
"hXhXhXhXhXhXhXhXhXhXhXhXhXhXhXhXhXhXhXhXhXhXhXhXhXhXhXhXhXhXhXhXhXhXhXhXhXhXhXhXhXhXhXhXhXhXhXhXhXhXhXhXhXhXhXhXhXhXhXhXhXhXhXhXhXhX",
"hXhXhXhXhXhXhXhXhXhXhXhXhXhXhXhXhXhXhXhXhXhXhXhXhXhXhXhXhXhXhXhXhXhXhXhXhXhXhXhXhXhXhXhXhXhXhXhXhXhXhXhXhXhXhXhXhXhXhXhXhXhXhXhXhXhX",
"hXhXhXhXhXhXhXhXhXhXhXhXhXhXhXhXhXhXhXhXhXhXhXhXhXhXhXhXhXhXhXhXhXhXhXhXhXhXhXhXhXhXhXhXhXhXhXhXhXhXhXhXhXhXhXhXhXhXhXhXhXhXhXhXhXhX",
"hXhXhXhXhXhXhXhXhXhXhXhXhXhXhXhXhXhXhXhXhXhXhXhXhXhXhXhXhXhXhXhXhXhXhXhXhXhXhXhXhXhXhXhXhXhXhXhXhXhXhXhXhXhXhXhXhXhXhXhXhXhXhXhXhXhX",
"hXhXhXhXhXhXhXhXhXhXhXhXhXhXhXhXhXhXhXhXhXhXhXhXhXhXhXhXhXhXhXhXhXhXhXhXhXhXhXhXhXhXhXhXhXhXhXhXhXhXhXhXhXhXhXhXhXhXhXhXhXhXhXhXhXhX",
"hXhXhXhXhXhXhXhXhXhXhXhXhXhXhXhXhXhXhXhXhXhXhXhXhXhXhXhXhXhXhXhXhXhXhXhXhXhXhXhXhXhXhXhXhXhXhXhXhXhXhXhXhXhXhXhXhXhXhXhXhXhXhXhXhXhX",
"hXhXhXhXhXhXhXhXhXhXhXhXhXhXhXhXhXhXhXhXhXhXhXhXhXhXhXhXhXhXhXhXhXhXhXhXhXhXhXhXhXhXhXhXhXhXhXhXhXhXhXhXhXhXhXhXhXhXhXhXhXhXhXhXhXhX",
"hXhXhXhXhXhXhXhXhXhXhXhXhXhXhXhXhXhXhXhXhXhXhXhXhXhXhXhXhXhXhXhXhXhXhXhXhXhXhXhXhXhXhXhXhXhXhXhXhXhXhXhXhXhXhXhXhXhXhXhXhXhXhXhXhXhX",
"hXhXhXhXhXhXhXhXhXhXhXhXhXhXhXhXhXhXhXhXhXhXhXhXhXhXhXhXhXhXhXhXhXhXhXhXhXhXhXhXhXhXhXhXhXhXhXhXhXhXhXhXhXhXhXhXhXhXhXhXhXhXhXhXhXhX",
"hXhXhXhXhXhXhXhXhXhXhXhXhXhXhXhXhXhXhXhXhXhXhXhXhXhXhXhXhXhXhXhXhXhXhXhXhXhXhXhXhXhXhXhXhXhXhXhXhXhXhXhXhXhXhXhXhXhXhXhXhXhXhXhXhXhX",
"hXhXhXhXhXhXhXhXhXhXhXhXhXhXhXhXhXhXhXhXhXhXhXhXhXhXhXhXhXhXhXhXhXhXhXhXhXhXhXhXhXhXhXhXhXhXhXhXhXhXhXhXhXhXhXhXhXhXhXhXhXhXhXhXhXhX",
"hXhXhXhXhXhXhXhXhXhXhXhXhXhXhXhXhXhXhXhXhXhXhXhXhXhXhXhXhXhXhXhXhXhXhXhXhXhXhXhXhXhXhXhXhXhXhXhXhXhXhXhXhXhXhXhXhXhXhXhXhXhXhXhXhXhX",
"hXhXhXhXhXhXhXhXhXhXhXhXhXhXhXhXhXhXhXhXhXhXhXhXhXhXhXhX  - -.;.-.-.;.;.i   hXhXhXhXhXhXhXhXhXhXhXhXhXhXhXhXhXhXhXhXhXhXhXhXhXhXhXhX",
"hXhXhXhXhXhXhXhXhXhXhXhXhXhXhXhXhXhXhXhXhXhXhXhXhXhXhX  y o.2.3.2.3.3.#.o.y   hXhXhXhXhXhXhXhXhXhXhXhXhXhXhXhXhXhXhXhXhXhXhXhXhXhXhX",
"hXhXhXhXhXhXhXhXhXhXhXhXhXhXhXhXhXhXhXhXhXhXhXhXhXhX  & 1.9.9.9.9.9.9.9.9.1.&   hXhXhXhXhXhXhXhXhXhXhXhXhXhXhXhXhXhXhXhXhXhXhXhXhXhX",
"hXhXhXhXhXhXhXhXhXhXhXhXhXhXhXhXhXhXhXhXhXhXhXhXhX  u +.7.9.5.5.5.5.5.9.9.9.+.u   hXhXhXhXhXhXhXhXhXhXhXhXhXhXhXhXhXhXhXhXhXhXhXhXhX",
"hXhXhXhXhXhXhXhXhXhXhXhXhXhXhXhXhXhXhXhXhXhXhXhX. & +.7.7.7.8.7.7.7.7.7.7.7.5.+.o . hXhXhXhXhXhXhXhXhXhXhXhXhXhXhXhXhXhXhXhXhXhXhXhX",
"hXhXhXhXhXhXhXhXhXhXhXhXhXhXhXhXhXhXhXhXhXhXhX  * O.<.6.6.6.6.6.6.6.6.6.6.8.8.<.$.=   hXhXhXhXhXhXhXhXhXhXhXhXhXhXhXhXhXhXhXhXhXhXhX",
"hXhXhXhXhXhXhXhXhXhXhXhXhXhXhXhXhXhXhXhXhXhXhX  = =.r.t.t.t.t.t.t.t.t.t.y.u.e.w.4.y   hXhXhXhXhXhXhXhXhXhXhXhXhXhXhXhXhXhXhXhXhXhXhX",
"hXhXhXhXhXhXhXhXhXhXhXhXhXhXhXhXhXhXhXhXhXhXhX  , [ V.D.D.S.F.D.F.F.F.F.D.B.d.,.9.a   hXhXhXhXhXhXhXhXhXhXhXhXhXhXhXhXhXhXhXhXhXhXhX",
"hXhXhXhXhXhXhXhXhXhXhXhXhXhXhXhXhXhXhXhXhXhX  < W N.S.D.D.S.D.S.S.D.D.D.D.D.V.z.n.-.i   hXhXhXhXhXhXhXhXhXhXhXhXhXhXhXhXhXhXhXhXhXhX",
"hXhXhXhXhXhXhXhXhXhXhXhXhXhXhXhXhXhXhXhXhXe O ~ P.D.H.A.F.D.F.D.D.A.A.Z.B.Z.D.G.].h.g o e hXhXhXhXhXhXhXhXhXhXhXhXhXhXhXhXhXhXhXhXhX",
"hXhXhXhXhXhXhXhXhXhXhXhXhXhXhXhXhXhX} W.-XS l j.H.D.L.l.A.D.D.D.S.L.c.f.~ g.F.D.A.p.7 5 D -XW.} hXhXhXhXhXhXhXhXhXhXhXhXhXhXhXhXhXhX",
"hXhXhXhXhXhXhXhXhXhXhXhXhXhXhXhXhXhX! W.7XX.) F.D.P.x.L.A.D.D.H.L.(.Y.X.X.U.z.Z.S.s.t  .-X7XW.E hXhXhXhXhXhXhXhXhXhXhXhXhXhXhXhXhXhX",
"hXhXhXhXhXhXhXhXhXhXhXhXhXhXhXhXhXhXb U.eX=Xp.Z.G._.P.D.D.D.D.L.)./ U.;X:X}. .k.F.z. .7XaXrX .b hXhXhXhXhXhXhXhXhXhXhXhXhXhXhXhXhXhX",
"hXhXhXhXhXhXhXhXhXhXhXhXhXhXhXhXhXhXhXR  .|.`.Y ~ Y.B.D.D.H.L.(.Y.E.-X8X0X6X,X|.z.c.{.9X6X .B hXhXhXhXhXhXhXhXhXhXhXhXhXhXhXhXhXhXhX",
"hXhXhXhXhXhXhXhXhXhXhXhXhXhXhXhXhXhXhXhX0 ~ I.U n ! z.H.H.K.).} ] ^.qXeXiXiXaX-X' c.'.^.' 0 hXhXhXhXhXhXhXhXhXhXhXhXhXhXhXhXhXhXhXhX",
"hXhXhXhXhXhXhXhXhXhXhXhXhXhXhXhXhXhXhXhXhX$ 7 v.s.b d. X X'._.T n E.7XpXaXiX0XQ.n j.N.k # hXhXhXhXhXhXhXhXhXhXhXhXhXhXhXhXhXhXhXhXhX",
"hXhXhXhXhXhXhXhXhXhXhXhXhXhXhXhXhXhXhXhXhX  * C.A.T e B d.).(.[ { :X0XqX>XE.D e T B.C.O   hXhXhXhXhXhXhXhXhXhXhXhXhXhXhXhXhXhXhXhXhX",
"hXhXhXhXhXhXhXhXhXhXhXhXhXhXhXhXhXhXhXhXhX  : M.G.[ # + R | } W.,X0X0X;X} 9   # } G.M.:   hXhXhXhXhXhXhXhXhXhXhXhXhXhXhXhXhXhXhXhXhX",
"hXhXhXhXhXhXhXhXhXhXhXhXhXhXhXhXhXhXhXhXhX  ; L.x.T D #XXXF q | 6XiX;XT Z oX#X..! x.l.;   hXhXhXhXhXhXhXhXhXhXhXhXhXhXhXhXhXhXhXhXhX",
"hXhXhXhXhXhXhXhXhXhXhXhXhXhXhXhXhXhXhXhXhX  @ [ ( n 8XfX+X.X_ W.7XiX}.R .X+XfX7X9 W [ @ hXhXhXhXhXhXhXhXhXhXhXhXhXhXhXhXhXhXhXhXhXhX",
"hXhXhXhXhXhXhXhXhXhXhXhXhXhXhXhXhXhXhXhXhXhXhX@ 8 } iXgXOX@XuXeX9XeXiXuX@XOXgX}.X O O hXhXhXhXhXhXhXhXhXhXhXhXhXhXhXhXhXhXhXhXhXhXhX",
"hXhXhXhXhXhXhXhXhXhXhXhXhXhXhXhXhXhXhXhXhXhXhXhXX m ^.uX$XyXfXsXeX0XsXfXyX$X5X'     . hXhXhXhXhXhXhXhXhXhXhXhXhXhXhXhXhXhXhXhXhXhXhX",
"hXhXhXhXhXhXhXhXhXhXhXhXhXhXhXhXhXhXhXhXhXhXhXhXhX  x Y.}.7X0X0XrXrX0X0X7X}.Y.x . , 0 +   hXhXhXhXhXhXhXhXhXhXhXhXhXhXhXhXhXhXhXhXhX",
"hXhXhXhXhXhXhXhXhXhXhXhXhXhXhXhXhXhXhXhXhXhXhXhXhX  % U E [.9XqX7X7XqX7X{.E U C !.Q.E.Q.A   hXhXhXhXhXhXhXhXhXhXhXhXhXhXhXhXhXhXhXhX",
"hXhXhXhXhXhXhXhXhXhXhXhXhXhXhXhXhXhXhXhXhXhXhXhXhX. 8 T 0 R Q.~.^.^.^.~.^ 8 7 i.3X4X9XsX&X  hXhXhXhXhXhXhXhXhXhXhXhXhXhXhXhXhXhXhXhX",
"hXhXhXhXhXhXhXhXhXhXhXhXhXhXhXhXhXhXhXhXhXhXhX  X 9 !.3X! 5 + h :.:.:.:.*.$.f i 1 &XsXdX&X  hXhXhXhXhXhXhXhXhXhXhXhXhXhXhXhXhXhXhXhX",
"hXhXhXhXhXhXhXhXhXhXhXhXhXhXhXhXhXhXhXhXhXhXhX  = /.wX2XN . o s %.%.%.#.&.&.g o   A *X*XA   hXhXhXhXhXhXhXhXhXhXhXhXhXhXhXhXhXhXhXhX",
"hXhXhXhXhXhXhXhXhXhXhXhXhXhXhXhXhXhXhXhXhXhXhX  A 2XwX<X@ . f %.-.-.-.&.&.*.m 9           hXhXhXhXhXhXhXhXhXhXhXhXhXhXhXhXhXhXhXhXhX",
"hXhXhXhXhXhXhXhXhXhXhXhXhXhXhXhXhXhXhXhXhXhX+ ..1XtXR.j $ 3 m a.v.v.a.m v m C j     hXhXhXhXhXhXhXhXhXhXhXhXhXhXhXhXhXhXhXhXhXhXhXhX",
"hXhXhXhXhXhXhXhXhXhXhXhXhXhXhXhXhXhXhXhXhX  , 5XdXpXA   x M v k.D.D.k.b 0 z &.o.  hXhXhXhXhXhXhXhXhXhXhXhXhXhXhXhXhXhXhXhXhXhXhXhXhX",
"hXhXhXhXhXhXhXhXhXhXhXhXhXhXhXhXhXhXhXhXhX  > &XaXaXA   d *.*.m.D.D.m.*.#.q.9.@.  hXhXhXhXhXhXhXhXhXhXhXhXhXhXhXhXhXhXhXhXhXhXhXhXhX",
"hXhXhXhXhXhXhXhXhXhXhXhXhXhXhXhXhXhXhXhXhX  + N R.R.< o $.w.4.y.b.b.y.4.q.q.+.p   hXhXhXhXhXhXhXhXhXhXhXhXhXhXhXhXhXhXhXhXhXhXhXhXhX",
"hXhXhXhXhXhXhXhXhXhXhXhXhXhXhXhXhXhXhXhXhX            o $.w.9.9.9.7.5.9.w.$.O   hXhXhXhXhXhXhXhXhXhXhXhXhXhXhXhXhXhXhXhXhXhXhXhXhXhX",
"hXhXhXhXhXhXhXhXhXhXhXhXhXhXhXhXhXhXhXhXhXhXhXhXhXhXhXo * i p p u u p p *.' w X   hXhXhXhXhXhXhXhXhXhXhXhXhXhXhXhXhXhXhXhXhXhXhXhXhX",
"hXhXhXhXhXhXhXhXhXhXhXhXhXhXhXhXhXhXhXhXhXhXhXhXhXhXhXhX                t ` J 2 X . hXhXhXhXhXhXhXhXhXhXhXhXhXhXhXhXhXhXhXhXhXhXhXhX",
"hXhXhXhXhXhXhXhXhXhXhXhXhXhXhXhXhXhXhXhXhXhXhXhXhXhXhXhXhXhXhXhXhXhXhX  $ J K H w X   hXhXhXhXhXhXhXhXhXhXhXhXhXhXhXhXhXhXhXhXhXhXhX",
"hXhXhXhXhXhXhXhXhXhXhXhXhXhXhXhXhXhXhXhXhXhXhXhXhXhXhXhXhXhXhXhXhXhXhX  6 I P P I 5   hXhXhXhXhXhXhXhXhXhXhXhXhXhXhXhXhXhXhXhXhXhXhX",
"hXhXhXhXhXhXhXhXhXhXhXhXhXhXhXhXhXhXhXhXhXhXhXhXhXhXhXhXhXhXhXhXhXhXhX  G P K L K 2   hXhXhXhXhXhXhXhXhXhXhXhXhXhXhXhXhXhXhXhXhXhXhX",
"hXhXhXhXhXhXhXhXhXhXhXhXhXhXhXhXhXhXhXhXhXhXhXhXhXhXhXhXhXhXhXhXhXhXhXhX% 6 4 4 6 X hXhXhXhXhXhXhXhXhXhXhXhXhXhXhXhXhXhXhXhXhXhXhXhX",
"hXhXhXhXhXhXhXhXhXhXhXhXhXhXhXhXhXhXhXhXhXhXhXhXhXhXhXhXhXhXhXhXhXhXhXhX          hXhXhXhXhXhXhXhXhXhXhXhXhXhXhXhXhXhXhXhXhXhXhXhXhX",
"hXhXhXhXhXhXhXhXhXhXhXhXhXhXhXhXhXhXhXhXhXhXhXhXhXhXhXhXhXhXhXhXhXhXhXhXhXhXhXhXhXhXhXhXhXhXhXhXhXhXhXhXhXhXhXhXhXhXhXhXhXhXhXhXhXhX",
"hXhXhXhXhXhXhXhXhXhXhXhXhXhXhXhXhXhXhXhXhXhXhXhXhXhXhXhXhXhXhXhXhXhXhXhXhXhXhXhXhXhXhXhXhXhXhXhXhXhXhXhXhXhXhXhXhXhXhXhXhXhXhXhXhXhX",
"hXhXhXhXhXhXhXhXhXhXhXhXhXhXhXhXhXhXhXhXhXhXhXhXhXhXhXhXhXhXhXhXhXhXhXhXhXhXhXhXhXhXhXhXhXhXhXhXhXhXhXhXhXhXhXhXhXhXhXhXhXhXhXhXhXhX",
"hXhXhXhXhXhXhXhXhXhXhXhXhXhXhXhXhXhXhXhXhXhXhXhXhXhXhXhXhXhXhXhXhXhXhXhXhXhXhXhXhXhXhXhXhXhXhXhXhXhXhXhXhXhXhXhXhXhXhXhXhXhXhXhXhXhX",
"hXhXhXhXhXhXhXhXhXhXhXhXhXhXhXhXhXhXhXhXhXhXhXhXhXhXhXhXhXhXhXhXhXhXhXhXhXhXhXhXhXhXhXhXhXhXhXhXhXhXhXhXhXhXhXhXhXhXhXhXhXhXhXhXhXhX",
"hXhXhXhXhXhXhXhXhXhXhXhXhXhXhXhXhXhXhXhXhXhXhXhXhXhXhXhXhXhXhXhXhXhXhXhXhXhXhXhXhXhXhXhXhXhXhXhXhXhXhXhXhXhXhXhXhXhXhXhXhXhXhXhXhXhX",
"hXhXhXhXhXhXhXhXhXhXhXhXhXhXhXhXhXhXhXhXhXhXhXhXhXhXhXhXhXhXhXhXhXhXhXhXhXhXhXhXhXhXhXhXhXhXhXhXhXhXhXhXhXhXhXhXhXhXhXhXhXhXhXhXhXhX",
"hXhXhXhXhXhXhXhXhXhXhXhXhXhXhXhXhXhXhXhXhXhXhXhXhXhXhXhXhXhXhXhXhXhXhXhXhXhXhXhXhXhXhXhXhXhXhXhXhXhXhXhXhXhXhXhXhXhXhXhXhXhXhXhXhXhX",
"hXhXhXhXhXhXhXhXhXhXhXhXhXhXhXhXhXhXhXhXhXhXhXhXhXhXhXhXhXhXhXhXhXhXhXhXhXhXhXhXhXhXhXhXhXhXhXhXhXhXhXhXhXhXhXhXhXhXhXhXhXhXhXhXhXhX",
"hXhXhXhXhXhXhXhXhXhXhXhXhXhXhXhXhXhXhXhXhXhXhXhXhXhXhXhXhXhXhXhXhXhXhXhXhXhXhXhXhXhXhXhXhXhXhXhXhXhXhXhXhXhXhXhXhXhXhXhXhXhXhXhXhXhX",
"hXhXhXhXhXhXhXhXhXhXhXhXhXhXhXhXhXhXhXhXhXhXhXhXhXhXhXhXhXhXhXhXhXhXhXhXhXhXhXhXhXhXhXhXhXhXhXhXhXhXhXhXhXhXhXhXhXhXhXhXhXhXhXhXhXhX",
"hXhXhXhXhXhXhXhXhXhXhXhXhXhXhXhXhXhXhXhXhXhXhXhXhXhXhXhXhXhXhXhXhXhXhXhXhXhXhXhXhXhXhXhXhXhXhXhXhXhXhXhXhXhXhXhXhXhXhXhXhXhXhXhXhXhX",
"hXhXhXhXhXhXhXhXhXhXhXhXhXhXhXhXhXhXhXhXhXhXhXhXhXhXhXhXhXhXhXhXhXhXhXhXhXhXhXhXhXhXhXhXhXhXhXhXhXhXhXhXhXhXhXhXhXhXhXhXhXhXhXhXhXhX",
"hXhXhXhXhXhXhXhXhXhXhXhXhXhXhXhXhXhXhXhXhXhXhXhXhXhXhXhXhXhXhXhXhXhXhXhXhXhXhXhXhXhXhXhXhXhXhXhXhXhXhXhXhXhXhXhXhXhXhXhXhXhXhXhXhXhX",
"hXhXhXhXhXhXhXhXhXhXhXhXhXhXhXhXhXhXhXhXhXhXhXhXhXhXhXhXhXhXhXhXhXhXhXhXhXhXhXhXhXhXhXhXhXhXhXhXhXhXhXhXhXhXhXhXhXhXhXhXhXhXhXhXhXhX",
"hXhXhXhXhXhXhXhXhXhXhXhXhXhXhXhXhXhXhXhXhXhXhXhXhXhXhXhXhXhXhXhXhXhXhXhXhXhXhXhXhXhXhXhXhXhXhXhXhXhXhXhXhXhXhXhXhXhXhXhXhXhXhXhXhXhX"
};
