/* XPM */
static char *result[] = {
/* columns rows colors chars-per-pixel */
"66 72 229 2 ",
"   c #000001",
".  c #0C0104",
"X  c #0A0D05",
"o  c #150B06",
"O  c #120607",
"+  c #0D1B09",
"@  c #051606",
"#  c #19170C",
"$  c #1D1813",
"%  c #21180D",
"&  c #281C1B",
"*  c #360A0D",
"=  c #152608",
"-  c #1A2513",
";  c #162D1D",
":  c #1A3A15",
">  c #0E2F0B",
",  c #29241E",
"<  c #343309",
"1  c #1F3320",
"2  c #252420",
"3  c #4B140D",
"4  c #7D1B19",
"5  c #4D2A0D",
"6  c #5C391B",
"7  c #4F2F11",
"8  c #693818",
"9  c #703E14",
"0  c #6D0024",
"q  c #4E3A2A",
"w  c #653224",
"e  c #612525",
"r  c #025802",
"t  c #036403",
"y  c #12670F",
"u  c #287419",
"i  c #216212",
"p  c #224C21",
"a  c #397B24",
"s  c #306622",
"d  c #344419",
"f  c #424217",
"g  c #59721E",
"h  c #415D37",
"j  c #5C5334",
"k  c #694426",
"l  c #704121",
"z  c #7B4C26",
"x  c #775528",
"c  c #7A4A37",
"v  c #7E5438",
"b  c #62532B",
"n  c #626523",
"m  c #7D6938",
"M  c #4B366A",
"N  c #635949",
"B  c #635E50",
"V  c #715341",
"C  c #727154",
"Z  c #68576B",
"A  c #95191E",
"S  c #810D1C",
"D  c #A01E1D",
"F  c #A2221F",
"G  c #820029",
"H  c #AC102A",
"J  c #FC2D31",
"K  c #F0252E",
"L  c #CD3829",
"P  c #834736",
"I  c #885B38",
"U  c #8E4E26",
"Y  c #99642A",
"T  c #876537",
"R  c #946636",
"E  c #9B703D",
"W  c #A6722A",
"Q  c #845C45",
"!  c #8D6D4D",
"~  c #A96C46",
"^  c #A37A41",
"/  c #A1724C",
"(  c #A47A57",
")  c #A87D61",
"_  c #8D7D6E",
"`  c #079F05",
"'  c #27851C",
"]  c #36811E",
"[  c #269C1F",
"{  c #2A9A0C",
"}  c #03AA04",
"|  c #08B908",
" . c #12A90A",
".. c #2AA71C",
"X. c #28B81B",
"o. c #269520",
"O. c #3B9325",
"+. c #38A629",
"@. c #35B625",
"#. c #518216",
"$. c #49AB16",
"%. c #4E8E29",
"&. c #6C9737",
"*. c #40A028",
"=. c #45AB2B",
"-. c #5BA22F",
";. c #59A238",
":. c #63BF37",
">. c #1DDE12",
",. c #2EC51C",
"<. c #26DA1A",
"1. c #15E80A",
"2. c #03FE04",
"3. c #0DFE06",
"4. c #00F809",
"5. c #0AF808",
"6. c #0BF708",
"7. c #10FA08",
"8. c #18FB08",
"9. c #15F916",
"0. c #0EE40E",
"q. c #20F412",
"w. c #34D320",
"e. c #35CE24",
"r. c #6BF905",
"t. c #6BF50C",
"y. c #6CF30D",
"u. c #5CE021",
"i. c #4AC428",
"p. c #63945E",
"a. c #7A8162",
"s. c #6F9464",
"d. c #5DB460",
"f. c #76A267",
"g. c #99851B",
"h. c #AE9012",
"j. c #92A716",
"k. c #BFA716",
"l. c #B88537",
"z. c #AE8E2A",
"x. c #9FA025",
"c. c #C49A1A",
"v. c #C3AD1D",
"b. c #D0B810",
"n. c #D5BA31",
"m. c #CBAB24",
"M. c #E5BD3A",
"N. c #B5DA0F",
"B. c #A4FF04",
"V. c #D7C517",
"C. c #D0CB0C",
"Z. c #ECDE0D",
"A. c #F4D319",
"S. c #ECD21B",
"D. c #DCE900",
"F. c #ECE605",
"G. c #F4EC0D",
"H. c #F0EA03",
"J. c #FCFC00",
"K. c #F9F404",
"L. c #F9E61B",
"P. c #FAF411",
"I. c #DFC72C",
"U. c #ECCF30",
"Y. c #F5E328",
"T. c #B58849",
"R. c #A9825E",
"E. c #BB965A",
"W. c #B58955",
"Q. c #958065",
"!. c #AA8A67",
"~. c #BB9767",
"^. c #BB9873",
"/. c #B48E6A",
"(. c #92A864",
"). c #B2A972",
"_. c #B9B079",
"`. c #C29153",
"'. c #C7914F",
"]. c #DDB445",
"[. c #CFA34D",
"{. c #E4BC43",
"}. c #D19E78",
"|. c #C39E79",
" X c #CBAA75",
".X c #EECA5D",
"XX c #2633B7",
"oX c #525BA4",
"OX c #3758FF",
"+X c #496AF8",
"@X c #4B75FF",
"#X c #798596",
"$X c #838FA0",
"%X c #C29E80",
"&X c #C9A883",
"*X c #D2B28C",
"=X c #D3B388",
"-X c #D8B896",
";X c #CEB18A",
":X c #E1BC8A",
">X c #D4BBA3",
",X c #E5C69C",
"<X c #FDDB98",
"1X c #DFC6A7",
"2X c #EFC4A3",
"3X c #E7CDA4",
"4X c #EBD2A7",
"5X c #F4D7AC",
"6X c #F9DFB4",
"7X c #F4C9A8",
"8X c #C7F8AD",
"9X c #CEFFB2",
"0X c #CCF2B0",
"qX c #D5FFB4",
"wX c #C0EEA9",
"eX c #FDE3B5",
"rX c #F8E0B8",
"tX c #F1E8B9",
"yX c #8E93DC",
"uX c #B1BEFC",
"iX c #DED8D6",
"pX c #FFECC4",
"aX c #FDEAC5",
"sX c #FFFFCF",
"dX c #FFF9D4",
"fX c #E1DCE9",
"gX c #FAFFFD",
"hX c #EFE8EF",
"jX c None",
/* pixels */
"jXjXjXjXjXjXjXjXjXjXjXjXjXjXjXjXjXjXjXjXjXjXjXjXjXjXjXjXjXjXjXjXjXjXjXjXjXjXjXjXjXjXjXjXjXjXjXjXjXjXjXjXjXjXjXjXjXjXjXjXjXjXjXjXjXjX",
"jXjXjXjXjXjXjXjXjXjXjXjXjXjXjXjXjXjXjXjXjXjXjXjXjXjXjXjXjXjXjXjXjXjXjXjXjXjXjXjXjXjXjXjXjXjXjXjXjXjXjXjXjXjXjXjXjXjXjXjXjXjXjXjXjXjX",
"jXjXjXjXjXjXjXjXjXjXjXjXjXjXjXjXjXjXjXjXjXjXjXjXjXjXjXjXjXjXjXjXjXjXjXjXjXjXjXjXjXjXjXjXjXjXjXjXjXjXjXjXjXjXjXjXjXjXjXjXjXjXjXjXjXjX",
"jXjXjXjXjXjXjXjXjXjXjXjXjXjXjXjXjXjXjXjXjXjXjXjXjXjXjXjXjXjXjXjXjXjXjXjXjXjXjXjXjXjXjXjXjXjXjXjXjXjXjXjXjXjXjXjXjXjXjXjXjXjXjXjXjXjX",
"jXjXjXjXjXjXjXjXjXjXjXjXjXjXjXjXjXjXjXjXjXjXjXjXjXjXjXjXjXjXjXjXjXjXjXjXjXjXjXjXjXjXjXjXjXjXjXjXjXjXjXjXjXjXjXjXjXjXjXjXjXjXjXjXjXjX",
"jXjXjXjXjXjXjXjXjXjXjXjXjXjXjXjXjXjXjXjXjXjXjXjXjXjXjXjXjXjXjXjXjXjXjXjXjXjXjXjXjXjXjXjXjXjXjXjXjXjXjXjXjXjXjXjXjXjXjXjXjXjXjXjXjXjX",
"jXjXjXjXjXjXjXjXjXjXjXjXjXjXjXjXjXjXjXjXjXjXjXjXjXjXjXjXjXjXjXjXjXjXjXjXjXjXjXjXjXjXjXjXjXjXjXjXjXjXjXjXjXjXjXjXjXjXjXjXjXjXjXjXjXjX",
"jXjXjXjXjXjXjXjXjXjXjXjXjXjXjXjXjXjXjXjXjXjXjXjXjXjXjXjXjXjXjXjXjXjXjXjXjXjXjXjXjXjXjXjXjXjXjXjXjXjXjXjXjXjXjXjXjXjXjXjXjXjXjXjXjXjX",
"jXjXjXjXjXjXjXjXjXjXjXjXjXjXjXjXjXjXjXjXjXjXjXjXjXjXjXjXjXjXjXjXjXjXjXjXjXjXjXjXjXjXjXjXjXjXjXjXjXjXjXjXjXjXjXjXjXjXjXjXjXjXjXjXjXjX",
"jXjXjXjXjXjXjXjXjXjXjXjXjXjXjXjXjXjXjXjXjXjXjXjXjXjXjXjXjXjXjXjXjXjXjXjXjXjXjXjXjXjXjXjXjXjXjXjXjXjXjXjXjXjXjXjXjXjXjXjXjXjXjXjXjXjX",
"jXjXjXjXjXjXjXjXjXjXjXjXjXjXjXjXjXjXjXjXjXjXjXjXjXjXjXjXjXjXjXjXjXjXjXjXjXjXjXjXjXjXjXjXjXjXjXjXjXjXjXjXjXjXjXjXjXjXjXjXjXjXjXjXjXjX",
"jXjXjXjXjXjXjXjXjXjXjXjXjXjXjXjXjXjXjXjXjXjXjXjXjXjXjXjXjXjXjXjXjXjXjXjXjXjXjXjXjXjXjXjXjXjXjXjXjXjXjXjXjXjXjXjXjXjXjXjXjXjXjXjXjXjX",
"jXjXjXjXjXjXjXjXjXjXjXjXjXjXjXjXjXjXjXjXjXjXjXjXjXjXjXjXjXjXjXjXjXjXjXjXjXjXjXjXjXjXjXjXjXjXjXjXjXjXjXjXjXjXjXjXjXjXjXjXjXjXjXjXjXjX",
"jXjXjXjXjXjXjXjXjXjXjXjXjXjXjXjXjXjXjXjXjXjXjXjXjXjXjXjXjXjXjXjXjXjXjXjXjXjXjXjXjXjXjXjXjXjXjXjXjXjXjXjXjXjXjXjXjXjXjXjXjXjXjXjXjXjX",
"jXjXjXjXjXjXjXjXjXjXjXjXjXjXjXjXjXjXjXjXjXjXjXjXjXjXjXjXjXjXjXjXjXjXjXjXjXjXjXjXjXjXjXjXjXjXjXjXjXjXjXjXjXjXjXjXjXjXjXjXjXjXjXjXjXjX",
"jXjXjXjXjXjXjXjXjXjXjXjXjXjXjXjXjXjXjXjXjXjXjXjXjXjXjXjXjXjXjXjXjXjXjXjXjXjXjXjXjXjXjXjXjXjXjXjXjXjXjXjXjXjXjXjXjXjXjXjXjXjXjXjXjXjX",
"jXjXjXjXjXjXjXjXjXjXjXjXjXjXjXjXjXjXjXjXjXjXjXjXjXjXjXjXjXjXjXjXjXjXjXjXjXjXjXjXjXjXjXjXjXjXjXjXjXjXjXjXjXjXjXjXjXjXjXjXjXjXjXjXjXjX",
"jXjXjXjXjXjXjXjXjXjXjXjXjXjXjXjXjXjXjXjXjXjXjXjXjXjXjXjX  : *.=.*.*.=.*.:   jXjXjXjXjXjXjXjXjXjXjXjXjXjXjXjXjXjXjXjXjXjXjXjXjXjXjXjX",
"jXjXjXjXjXjXjXjXjXjXjXjXjXjXjXjXjXjXjXjXjXjXjXjXjXjXjX. - u ,.,.,.,.,.,.u -   jXjXjXjXjXjXjXjXjXjXjXjXjXjXjXjXjXjXjXjXjXjXjXjXjXjXjX",
"jXjXjXjXjXjXjXjXjXjXjXjXjXjXjXjXjXjXjXjXjXjXjXjXjXjX  + a w.6.3.7.7.3.6.w.a +   jXjXjXjXjXjXjXjXjXjXjXjXjXjXjXjXjXjXjXjXjXjXjXjXjXjX",
"jXjXjXjXjXjXjXjXjXjXjXjXjXjXjXjXjXjXjXjXjXjXjXjXjX  r  .<.q.3.3.3.3.3.3.q.<. .r   jXjXjXjXjXjXjXjXjXjXjXjXjXjXjXjXjXjXjXjXjXjXjXjXjX",
"jXjXjXjXjXjXjXjXjXjXjXjXjXjXjXjXjXjXjXjXjXjXjXjX  + | 3.2.2.5.5.6.6.6.5.2.2.3. .+ . jXjXjXjXjXjXjXjXjXjXjXjXjXjXjXjXjXjXjXjXjXjXjXjX",
"jXjXjXjXjXjXjXjXjXjXjXjXjXjXjXjXjXjXjXjXjXjXjX  = ' 0.2.2.4.4.4.4.4.4.4.4.2.2.>.a #   jXjXjXjXjXjXjXjXjXjXjXjXjXjXjXjXjXjXjXjXjXjXjX",
"jXjXjXjXjXjXjXjXjXjXjXjXjXjXjXjXjXjXjXjXjXjX@ > s &.:.u.t.r.r.r.r.r.r.r.r.r.i.e.<.' > X jXjXjXjXjXjXjXjXjXjXjXjXjXjXjXjXjXjXjXjXjXjX",
"jXjXjXjXjXjXjXjXjXjXjXjXjXjXjXjXjXjXjXjXjX  + ' &.^ `.{.G.J.K.K.K.J.J.J.J.Z.l.-.6.<.a @   jXjXjXjXjXjXjXjXjXjXjXjXjXjXjXjXjXjXjXjXjX",
"jXjXjXjXjXjXjXjXjXjXjXjXjXjXjXjXjXjXjXjXjX2   d x.V.A.A.K.J.J.J.J.K.K.J.J.J.S.v.-.:.o.X & jXjXjXjXjXjXjXjXjXjXjXjXjXjXjXjXjXjXjXjXjX",
"jXjXjXjXjXjXjXjXjXjXjXjXjXjXjXjXjXjXjXjXjXj O e c.J.J.P.K.J.K.J.K.J.J.J.F.G.J.A.l.&.u o j jXjXjXjXjXjXjXjXjXjXjXjXjXjXjXjXjXjXjXjXjX",
"jXjXjXjXjXjXjXjXjXjXjXjXjXjXjXjXjXjXT.~.;Xv 8 ~ U.J.U.].F.J.J.K.J.J.J.J.v.z.H.J.G.g.7 3 Q ;X|.^ jXjXjXjXjXjXjXjXjXjXjXjXjXjXjXjXjXjX",
"jXjXjXjXjXjXjXjXjXjXjXjXjXjXjXjXjXjXR /.4X) Y I.Y.V.n.U.L.J.J.J.K.L.S.V.T.R.m.F.J.h.P / ;X,X/.R jXjXjXjXjXjXjXjXjXjXjXjXjXjXjXjXjXjX",
"jXjXjXjXjXjXjXjXjXjXjXjXjXjXjXjXjXjX9 !.rX%Xz.H.V.^ b.J.J.K.K.J.G.{.T.^ _.&X/ v.K.v.( 3XsXrXR.l jXjXjXjXjXjXjXjXjXjXjXjXjXjXjXjXjXjX",
"jXjXjXjXjXjXjXjXjXjXjXjXjXjXjXjXjXjXjXI /.|.E.g.g.'.L.J.J.J.J.Y.n.`.R./.|.;X>X.XU.z.( 5X3XR.v jXjXjXjXjXjXjXjXjXjXjXjXjXjXjXjXjXjXjX",
"jXjXjXjXjXjXjXjXjXjXjXjXjXjXjXjXjXjXjXjX5 !.;Xc P [.Y.P.G.P.G.I.W.R R.*X-X1XaX2XE.z.T./.Q 8 jXjXjXjXjXjXjXjXjXjXjXjXjXjXjXjXjXjXjXjX",
"jXjXjXjXjXjXjXjXjXjXjXjXjXjXjXjXjXjXjXjXO _ -X! I T.M..X{.{.n.[.E l T *X6XaX6X/.z b.C.f & jXjXjXjXjXjXjXjXjXjXjXjXjXjXjXjXjXjXjXjXjX",
"jXjXjXjXjXjXjXjXjXjXjXjXjXjXjXjXjXjXjXjX  N [.I.z.I k v T.[.`.E z I !.=X:X~.C w z F.D.+   jXjXjXjXjXjXjXjXjXjXjXjXjXjXjXjXjXjXjXjXjX",
"jXjXjXjXjXjXjXjXjXjXjXjXjXjXjXjXjXjXjXjX  * Y H.C.9 o $ I T.^ k z ^.3X&X/ 3 . & E L.C.<   jXjXjXjXjXjXjXjXjXjXjXjXjXjXjXjXjXjXjXjXjX",
"jXjXjXjXjXjXjXjXjXjXjXjXjXjXjXjXjXjXjXjXjXO 6 I.m.9 Z $XoXZ 9 U ^.4X=XI M oX#X_ Y M.I.<   jXjXjXjXjXjXjXjXjXjXjXjXjXjXjXjXjXjXjXjXjX",
"jXjXjXjXjXjXjXjXjXjXjXjXjXjXjXjXjXjXjXjXjXjX$ ^ ~ U 5XgX+XXXQ ~.4XaX=XI XX@XgX1X7 Y / %   jXjXjXjXjXjXjXjXjXjXjXjXjXjXjXjXjXjXjXjXjX",
"jXjXjXjXjXjXjXjXjXjXjXjXjXjXjXjXjXjXjXjXjXjXjXl W ^ <XfXOX+XiXaX6X6XaXiX+XOXhX_.O % # jXjXjXjXjXjXjXjXjXjXjXjXjXjXjXjXjXjXjXjXjXjXjX",
"jXjXjXjXjXjXjXjXjXjXjXjXjXjXjXjXjXjXjXjXjXjXjXjX5 6 W.>XyXuXgXdXeXeXdXgXuXyX3XQ     jXjXjXjXjXjXjXjXjXjXjXjXjXjXjXjXjXjXjXjXjXjXjXjX",
"jXjXjXjXjXjXjXjXjXjXjXjXjXjXjXjXjXjXjXjXjXjXjXjXjX  6 E.4XpXrXrXrX6XrXtXpX,XE.k   jXjXjXjXjXjXjXjXjXjXjXjXjXjXjXjXjXjXjXjXjXjXjXjXjX",
"jXjXjXjXjXjXjXjXjXjXjXjXjXjXjXjXjXjXjXjXjXjXjXjX; p.V U ~ }.,X7X2X2X7X2X X~ U T s.: jXjXjXjXjXjXjXjXjXjXjXjXjXjXjXjXjXjXjXjXjXjXjXjX",
"jXjXjXjXjXjXjXjXjXjXjXjXjXjXjXjXjXjXjXjXjXjXjX- s.9X(.7 7 T )._.).)._.).T 7 5 (.9Xs.- jXjXjXjXjXjXjXjXjXjXjXjXjXjXjXjXjXjXjXjXjXjXjX",
"jXjXjXjXjXjXjXjXjXjXjXjXjXjXjXjXjXjXjXjX  X @ f.0X9Xd.y ] %.;.;.;.;.;.;.%.] y d.9X0Xf.X     jXjXjXjXjXjXjXjXjXjXjXjXjXjXjXjXjXjXjXjX",
"jXjXjXjXjXjXjXjXjXjXjXjXjXjXjXjXjXjXjX2 B B C 9XwXa.s s +.@.....o.o.o...@.+.u h s.wX9Xa.B N , jXjXjXjXjXjXjXjXjXjXjXjXjXjXjXjXjXjXjX",
"jXjXjXjXjXjXjXjXjXjXjXjXjXjXjXjXjXjX  N 6XaXaX9Xp.  * x %.+.*.+.+.+.*.*.+.%.x *   p.9XaXaXtXN   jXjXjXjXjXjXjXjXjXjXjXjXjXjXjXjXjXjX",
"jXjXjXjXjXjXjXjXjXjXjXjXjXjXjXjXjXjX  B eXsX3XC p i { $.n k b j.N.N.j.b k n $.y   1 C 4XsXrXB   jXjXjXjXjXjXjXjXjXjXjXjXjXjXjXjXjXjX",
"jXjXjXjXjXjXjXjXjXjXjXjXjXjXjXjXjXjX  q !.&X!   @ O.9.7.#.8 k b.J.J.b.l 8 #.8.|     O ! &X!.,   jXjXjXjXjXjXjXjXjXjXjXjXjXjXjXjXjXjX",
"jXjXjXjXjXjXjXjXjXjXjXjXjXjXjXjXjXjXjXX & 2 $ jXjX@ >.7.8.X.%.V.J.J.C.%...6.3.}   jXjX$ , , $ jXjXjXjXjXjXjXjXjXjXjXjXjXjXjXjXjXjXjX",
"jXjXjXjXjXjXjXjXjXjXjXjXjXjXjXjXjXjXjXjX    jXjXjX  r ` } | <.y.B.B.y.<.9.0.} r   jXjX      jXjXjXjXjXjXjXjXjXjXjXjXjXjXjXjXjXjXjXjX",
"jXjXjXjXjXjXjXjXjXjXjXjXjXjXjXjXjXjXjXjXjXjXjXjXjX        y 9.3.7.7.3.7.e.a +         jXjXjXjXjXjXjXjXjXjXjXjXjXjXjXjXjXjXjXjXjXjXjX",
"jXjXjXjXjXjXjXjXjXjXjXjXjXjXjXjXjXjXjXjXjXjXjXjXjXjX  O 3 < t t r t y g b w S S 7 %   jXjXjXjXjXjXjXjXjXjXjXjXjXjXjXjXjXjXjXjXjXjXjX",
"jXjXjXjXjXjXjXjXjXjXjXjXjXjXjXjXjXjXjXjXjXjXjXjXjXjXjXo 6 5         * 0 0 H K L 8 %   jXjXjXjXjXjXjXjXjXjXjXjXjXjXjXjXjXjXjXjXjXjXjX",
"jXjXjXjXjXjXjXjXjXjXjXjXjXjXjXjXjXjXjXjXjXjXjXjXjXjXjXjXo O jXjXjXjX. O A J J F o . jXjXjXjXjXjXjXjXjXjXjXjXjXjXjXjXjXjXjXjXjXjXjXjX",
"jXjXjXjXjXjXjXjXjXjXjXjXjXjXjXjXjXjXjXjXjXjXjXjXjXjXjXjX  jXjXjXjXjXjX  3 D A 3   jXjXjXjXjXjXjXjXjXjXjXjXjXjXjXjXjXjXjXjXjXjXjXjXjX",
"jXjXjXjXjXjXjXjXjXjXjXjXjXjXjXjXjXjXjXjXjXjXjXjXjXjXjXjXjXjXjXjXjXjXjXjX        jXjXjXjXjXjXjXjXjXjXjXjXjXjXjXjXjXjXjXjXjXjXjXjXjXjX",
"jXjXjXjXjXjXjXjXjXjXjXjXjXjXjXjXjXjXjXjXjXjXjXjXjXjXjXjXjXjXjXjXjXjXjXjXjXjXjXjXjXjXjXjXjXjXjXjXjXjXjXjXjXjXjXjXjXjXjXjXjXjXjXjXjXjX",
"jXjXjXjXjXjXjXjXjXjXjXjXjXjXjXjXjXjXjXjXjXjXjXjXjXjXjXjXjXjXjXjXjXjXjXjXjXjXjXjXjXjXjXjXjXjXjXjXjXjXjXjXjXjXjXjXjXjXjXjXjXjXjXjXjXjX",
"jXjXjXjXjXjXjXjXjXjXjXjXjXjXjXjXjXjXjXjXjXjXjXjXjXjXjXjXjXjXjXjXjXjXjXjXjXjXjXjXjXjXjXjXjXjXjXjXjXjXjXjXjXjXjXjXjXjXjXjXjXjXjXjXjXjX",
"jXjXjXjXjXjXjXjXjXjXjXjXjXjXjXjXjXjXjXjXjXjXjXjXjXjXjXjXjXjXjXjXjXjXjXjXjXjXjXjXjXjXjXjXjXjXjXjXjXjXjXjXjXjXjXjXjXjXjXjXjXjXjXjXjXjX",
"jXjXjXjXjXjXjXjXjXjXjXjXjXjXjXjXjXjXjXjXjXjXjXjXjXjXjXjXjXjXjXjXjXjXjXjXjXjXjXjXjXjXjXjXjXjXjXjXjXjXjXjXjXjXjXjXjXjXjXjXjXjXjXjXjXjX",
"jXjXjXjXjXjXjXjXjXjXjXjXjXjXjXjXjXjXjXjXjXjXjXjXjXjXjXjXjXjXjXjXjXjXjXjXjXjXjXjXjXjXjXjXjXjXjXjXjXjXjXjXjXjXjXjXjXjXjXjXjXjXjXjXjXjX",
"jXjXjXjXjXjXjXjXjXjXjXjXjXjXjXjXjXjXjXjXjXjXjXjXjXjXjXjXjXjXjXjXjXjXjXjXjXjXjXjXjXjXjXjXjXjXjXjXjXjXjXjXjXjXjXjXjXjXjXjXjXjXjXjXjXjX",
"jXjXjXjXjXjXjXjXjXjXjXjXjXjXjXjXjXjXjXjXjXjXjXjXjXjXjXjXjXjXjXjXjXjXjXjXjXjXjXjXjXjXjXjXjXjXjXjXjXjXjXjXjXjXjXjXjXjXjXjXjXjXjXjXjXjX",
"jXjXjXjXjXjXjXjXjXjXjXjXjXjXjXjXjXjXjXjXjXjXjXjXjXjXjXjXjXjXjXjXjXjXjXjXjXjXjXjXjXjXjXjXjXjXjXjXjXjXjXjXjXjXjXjXjXjXjXjXjXjXjXjXjXjX",
"jXjXjXjXjXjXjXjXjXjXjXjXjXjXjXjXjXjXjXjXjXjXjXjXjXjXjXjXjXjXjXjXjXjXjXjXjXjXjXjXjXjXjXjXjXjXjXjXjXjXjXjXjXjXjXjXjXjXjXjXjXjXjXjXjXjX",
"jXjXjXjXjXjXjXjXjXjXjXjXjXjXjXjXjXjXjXjXjXjXjXjXjXjXjXjXjXjXjXjXjXjXjXjXjXjXjXjXjXjXjXjXjXjXjXjXjXjXjXjXjXjXjXjXjXjXjXjXjXjXjXjXjXjX",
"jXjXjXjXjXjXjXjXjXjXjXjXjXjXjXjXjXjXjXjXjXjXjXjXjXjXjXjXjXjXjXjXjXjXjXjXjXjXjXjXjXjXjXjXjXjXjXjXjXjXjXjXjXjXjXjXjXjXjXjXjXjXjXjXjXjX",
"jXjXjXjXjXjXjXjXjXjXjXjXjXjXjXjXjXjXjXjXjXjXjXjXjXjXjXjXjXjXjXjXjXjXjXjXjXjXjXjXjXjXjXjXjXjXjXjXjXjXjXjXjXjXjXjXjXjXjXjXjXjXjXjXjXjX",
"jXjXjXjXjXjXjXjXjXjXjXjXjXjXjXjXjXjXjXjXjXjXjXjXjXjXjXjXjXjXjXjXjXjXjXjXjXjXjXjXjXjXjXjXjXjXjXjXjXjXjXjXjXjXjXjXjXjXjXjXjXjXjXjXjXjX",
"jXjXjXjXjXjXjXjXjXjXjXjXjXjXjXjXjXjXjXjXjXjXjXjXjXjXjXjXjXjXjXjXjXjXjXjXjXjXjXjXjXjXjXjXjXjXjXjXjXjXjXjXjXjXjXjXjXjXjXjXjXjXjXjXjXjX",
"jXjXjXjXjXjXjXjXjXjXjXjXjXjXjXjXjXjXjXjXjXjXjXjXjXjXjXjXjXjXjXjXjXjXjXjXjXjXjXjXjXjXjXjXjXjXjXjXjXjXjXjXjXjXjXjXjXjXjXjXjXjXjXjXjXjX",
"jXjXjXjXjXjXjXjXjXjXjXjXjXjXjXjXjXjXjXjXjXjXjXjXjXjXjXjXjXjXjXjXjXjXjXjXjXjXjXjXjXjXjXjXjXjXjXjXjXjXjXjXjXjXjXjXjXjXjXjXjXjXjXjXjXjX"
};
