/* XPM */
static char *result[] = {
/* columns rows colors chars-per-pixel */
"66 72 225 2 ",
"   c #000000",
".  c #070602",
"X  c #140707",
"o  c #0A1907",
"O  c #111608",
"+  c #1D1917",
"@  c #240B04",
"#  c #21180E",
"$  c #29191A",
"%  c #3B1408",
"&  c #132107",
"*  c #1A2810",
"=  c #1A3E14",
"-  c #012A0E",
";  c #322D0B",
":  c #2A281C",
">  c #332D08",
",  c #1D3B22",
"<  c #2F2523",
"1  c #471D07",
"2  c #420D18",
"3  c #5B0716",
"4  c #591110",
"5  c #4A1D13",
"6  c #562E17",
"7  c #553A1B",
"8  c #4B3011",
"9  c #663212",
"0  c #590B21",
"q  c #5A3D36",
"w  c #4B3325",
"e  c #6B3725",
"r  c #621312",
"t  c #045507",
"y  c #125913",
"u  c #0C4C09",
"i  c #265818",
"p  c #036203",
"a  c #006900",
"s  c #2E6C1A",
"d  c #095F21",
"f  c #3B5A2F",
"g  c #397B24",
"h  c #107828",
"j  c #44441A",
"k  c #7D6B01",
"l  c #4E4F34",
"z  c #694425",
"x  c #704021",
"c  c #744B28",
"v  c #725426",
"b  c #7A5838",
"n  c #685C2A",
"m  c #6F682D",
"M  c #646016",
"N  c #4A3568",
"B  c #715A48",
"V  c #5B7747",
"C  c #716E4B",
"Z  c #635074",
"A  c #851919",
"S  c #AE1A2D",
"D  c #962131",
"F  c #D42629",
"G  c #EC2B2B",
"H  c #F22C30",
"J  c #C7182D",
"K  c #88481F",
"L  c #8B571D",
"P  c #85552B",
"I  c #825837",
"U  c #824238",
"Y  c #93612C",
"T  c #956B2C",
"R  c #8B6136",
"E  c #976638",
"W  c #9A7332",
"Q  c #A87736",
"!  c #825A41",
"~  c #8B6645",
"^  c #916F4E",
"/  c #A37B42",
"(  c #A9784A",
")  c #A47958",
"_  c #A86B42",
"`  c #857869",
"'  c #9E7263",
"]  c #B35444",
"[  c #1A9810",
"{  c #308F1E",
"}  c #269C1F",
"|  c #0FB508",
" . c #11A609",
".. c #2CA91A",
"X. c #2E9027",
"o. c #3FBB29",
"O. c #32A726",
"+. c #47A719",
"@. c #4A8E28",
"#. c #7B9A39",
"$. c #41A128",
"%. c #58A22F",
"&. c #48B32D",
"*. c #5BA63A",
"=. c #60AD32",
"-. c #76A932",
";. c #1DDD11",
":. c #20CA13",
">. c #32CE1F",
",. c #28DB1A",
"<. c #03FE04",
"1. c #0DFE06",
"2. c #00F909",
"3. c #0AF808",
"4. c #0BF708",
"5. c #10F908",
"6. c #10F305",
"7. c #1CF612",
"8. c #19E80B",
"9. c #24F716",
"0. c #35D323",
"q. c #36C028",
"w. c #4BC61D",
"e. c #63ED0A",
"r. c #6BF905",
"t. c #7AF412",
"y. c #758B60",
"u. c #9A891C",
"i. c #91A919",
"p. c #BBA21C",
"a. c #B89629",
"s. c #BE833A",
"d. c #A78529",
"f. c #B6AA2A",
"g. c #B49010",
"h. c #C9B315",
"j. c #C39929",
"k. c #D5BA32",
"l. c #C9A933",
"z. c #E7BE38",
"x. c #E5B729",
"c. c #B7DB0F",
"v. c #A3FF03",
"b. c #84C53B",
"n. c #D7DB00",
"m. c #CCC911",
"M. c #D4C912",
"N. c #E9DC0A",
"B. c #E4D416",
"V. c #F2CC16",
"C. c #DCE900",
"Z. c #F2EB09",
"A. c #F5F402",
"S. c #FFF700",
"D. c #FCFC00",
"F. c #FBF20F",
"G. c #F8E915",
"H. c #FDF311",
"J. c #ECE707",
"K. c #C0C12E",
"L. c #E5C734",
"P. c #EAD22A",
"I. c #AE8C4B",
"U. c #A7815C",
"Y. c #B89450",
"T. c #9BAC4F",
"R. c #A0A55E",
"E. c #AA8868",
"W. c #B38B69",
"Q. c #BA9665",
"!. c #B99876",
"~. c #B4A674",
"^. c #B9B079",
"/. c #92A373",
"(. c #CE9F50",
"). c #DFB742",
"_. c #DAAA52",
"`. c #EAAD50",
"'. c #C9A67B",
"]. c #D3B172",
"[. c #D19C77",
"{. c #ACC97F",
"}. c #EBC447",
"|. c #2432B6",
" X c #5D69B0",
".X c #464C98",
"XX c #395AFF",
"oX c #4973FF",
"OX c #4B68F5",
"+X c #7A8596",
"@X c #8894A3",
"#X c #C29E80",
"$X c #CCA883",
"%X c #D1B188",
"&X c #D7B99A",
"*X c #CFAF88",
"=X c #D8BAA2",
"-X c #97CC83",
";X c #BDCD93",
":X c #B8F8A0",
">X c #B4E795",
",X c #C5DC97",
"<X c #E3C699",
"1X c #C0E79F",
"2X c #DEC6A6",
"3X c #EACDA3",
"4X c #EAC6A4",
"5X c #ECD1A8",
"6X c #F6D6AB",
"7X c #F5DDB5",
"8X c #F1CEAC",
"9X c #D7F7B4",
"0X c #F9E0B8",
"qX c #F9E1B6",
"wX c #E3EFBB",
"eX c #8F92DB",
"rX c #B1BEFC",
"tX c #DDD7D6",
"yX c #FFEDC5",
"uX c #F6E8C2",
"iX c #FFFAC9",
"pX c #FFFAD5",
"aX c #FBFFFD",
"sX c #F5F0EB",
"dX c #489848",
/* pixels */
"dXdXdXdXdXdXdXdXdXdXdXdXdXdXdXdXdXdXdXdXdXdXdXdXdXdXdXdXdXdXdXdXdXdXdXdXdXdXdXdXdXdXdXdXdXdXdXdXdXdXdXdXdXdXdXdXdXdXdXdXdXdXdXdXdXdX",
"dXdXdXdXdXdXdXdXdXdXdXdXdXdXdXdXdXdXdXdXdXdXdXdXdXdXdXdXdXdXdXdXdXdXdXdXdXdXdXdXdXdXdXdXdXdXdXdXdXdXdXdXdXdXdXdXdXdXdXdXdXdXdXdXdXdX",
"dXdXdXdXdXdXdXdXdXdXdXdXdXdXdXdXdXdXdXdXdXdXdXdXdXdXdXdXdXdXdXdXdXdXdXdXdXdXdXdXdXdXdXdXdXdXdXdXdXdXdXdXdXdXdXdXdXdXdXdXdXdXdXdXdXdX",
"dXdXdXdXdXdXdXdXdXdXdXdXdXdXdXdXdXdXdXdXdXdXdXdXdXdXdXdXdXdXdXdXdXdXdXdXdXdXdXdXdXdXdXdXdXdXdXdXdXdXdXdXdXdXdXdXdXdXdXdXdXdXdXdXdXdX",
"dXdXdXdXdXdXdXdXdXdXdXdXdXdXdXdXdXdXdXdXdXdXdXdXdXdXdXdXdXdXdXdXdXdXdXdXdXdXdXdXdXdXdXdXdXdXdXdXdXdXdXdXdXdXdXdXdXdXdXdXdXdXdXdXdXdX",
"dXdXdXdXdXdXdXdXdXdXdXdXdXdXdXdXdXdXdXdXdXdXdXdXdXdXdXdXdXdXdXdXdXdXdXdXdXdXdXdXdXdXdXdXdXdXdXdXdXdXdXdXdXdXdXdXdXdXdXdXdXdXdXdXdXdX",
"dXdXdXdXdXdXdXdXdXdXdXdXdXdXdXdXdXdXdXdXdXdXdXdXdXdXdXdXdXdXdXdXdXdXdXdXdXdXdXdXdXdXdXdXdXdXdXdXdXdXdXdXdXdXdXdXdXdXdXdXdXdXdXdXdXdX",
"dXdXdXdXdXdXdXdXdXdXdXdXdXdXdXdXdXdXdXdXdXdXdXdXdXdXdXdXdXdXdXdXdXdXdXdXdXdXdXdXdXdXdXdXdXdXdXdXdXdXdXdXdXdXdXdXdXdXdXdXdXdXdXdXdXdX",
"dXdXdXdXdXdXdXdXdXdXdXdXdXdXdXdXdXdXdXdXdXdXdXdXdXdXdXdXdXdXdXdXdXdXdXdXdXdXdXdXdXdXdXdXdXdXdXdXdXdXdXdXdXdXdXdXdXdXdXdXdXdXdXdXdXdX",
"dXdXdXdXdXdXdXdXdXdXdXdXdXdXdXdXdXdXdXdXdXdXdXdXdXdXdXdXdXdXdXdXdXdXdXdXdXdXdXdXdXdXdXdXdXdXdXdXdXdXdXdXdXdXdXdXdXdXdXdXdXdXdXdXdXdX",
"dXdXdXdXdXdXdXdXdXdXdXdXdXdXdXdXdXdXdXdXdXdXdXdXdXdXdXdXdXdXdXdXdXdXdXdXdXdXdXdXdXdXdXdXdXdXdXdXdXdXdXdXdXdXdXdXdXdXdXdXdXdXdXdXdXdX",
"dXdXdXdXdXdXdXdXdXdXdXdXdXdXdXdXdXdXdXdXdXdXdXdXdXdXdXdXdXdXdXdXdXdXdXdXdXdXdXdXdXdXdXdXdXdXdXdXdXdXdXdXdXdXdXdXdXdXdXdXdXdXdXdXdXdX",
"dXdXdXdXdXdXdXdXdXdXdXdXdXdXdXdXdXdXdXdXdXdXdXdXdXdXdXdXdXdXdXdXdXdXdXdXdXdXdXdXdXdXdXdXdXdXdXdXdXdXdXdXdXdXdXdXdXdXdXdXdXdXdXdXdXdX",
"dXdXdXdXdXdXdXdXdXdXdXdXdXdXdXdXdXdXdXdXdXdXdXdXdXdXdXdXdXdXdXdXdXdXdXdXdXdXdXdXdXdXdXdXdXdXdXdXdXdXdXdXdXdXdXdXdXdXdXdXdXdXdXdXdXdX",
"dXdXdXdXdXdXdXdXdXdXdXdXdXdXdXdXdXdXdXdXdXdXdXdXdXdXdXdXdXdXdXdXdXdXdXdXdXdXdXdXdXdXdXdXdXdXdXdXdXdXdXdXdXdXdXdXdXdXdXdXdXdXdXdXdXdX",
"dXdXdXdXdXdXdXdXdXdXdXdXdXdXdXdXdXdXdXdXdXdXdXdXdXdXdXdXdXdXdXdXdXdXdXdXdXdXdXdXdXdXdXdXdXdXdXdXdXdXdXdXdXdXdXdXdXdXdXdXdXdXdXdXdXdX",
"dXdXdXdXdXdXdXdXdXdXdXdXdXdXdXdXdXdXdXdXdXdXdXdXdXdXdXdXdXdX  i &.&.i   dXdXdXdXdXdXdXdXdXdXdXdXdXdXdXdXdXdXdXdXdXdXdXdXdXdXdXdXdXdX",
"dXdXdXdXdXdXdXdXdXdXdXdXdXdXdXdXdXdXdXdXdXdXdXdXdXdXdXdXdX{ p [ >.>.[ p { dXdXdXdXdXdXdXdXdXdXdXdXdXdXdXdXdXdXdXdXdXdXdXdXdXdXdXdXdX",
"dXdXdXdXdXdXdXdXdXdXdXdXdXdXdXdXdXdXdXdXdXdXdXdXdXdX  o g 0.4.1.5.5.1.5.0.g o   dXdXdXdXdXdXdXdXdXdXdXdXdXdXdXdXdXdXdXdXdXdXdXdXdXdX",
"dXdXdXdXdXdXdXdXdXdXdXdXdXdXdXdXdXdXdXdXdXdXdXdXdX  t  .:.9.5.1.1.1.1.5.7.:. .t   dXdXdXdXdXdXdXdXdXdXdXdXdXdXdXdXdXdXdXdXdXdXdXdXdX",
"dXdXdXdXdXdXdXdXdXdXdXdXdXdXdXdXdXdXdXdXdXdXdXdX. O | 1.<.3.3.4.4.4.4.4.1.<.1.| O . dXdXdXdXdXdXdXdXdXdXdXdXdXdXdXdXdXdXdXdXdXdXdXdX",
"dXdXdXdXdXdXdXdXdXdXdXdXdXdXdXdXdXdXdXdXdXdXdX  * g ;.<.<.2.2.2.2.2.2.2.2.<.<.;.g * . dXdXdXdXdXdXdXdXdXdXdXdXdXdXdXdXdXdXdXdXdXdXdX",
"dXdXdXdXdXdXdXdXdXdXdXdXdXdXdXdXdXdXdXdXdXdXdX  u ,.0.&.e.r.r.r.r.r.r.r.r.e.w.0.,.u   dXdXdXdXdXdXdXdXdXdXdXdXdXdXdXdXdXdXdXdXdXdXdX",
"dXdXdXdXdXdXdXdXdXdXdXdXdXdXdXdXdXdXdXdXdXdXdX  a 5.=.j.N.D.D.A.A.D.A.A.D.N.s.*.5.a   dXdXdXdXdXdXdXdXdXdXdXdXdXdXdXdXdXdXdXdXdXdXdX",
"dXdXdXdXdXdXdXdXdXdXdXdXdXdXdXdXdXdXdXdXdXdX. y { *.f.V.D.D.D.S.D.S.S.S.D.D.V.k.b.$.u . dXdXdXdXdXdXdXdXdXdXdXdXdXdXdXdXdXdXdXdXdXdX",
"dXdXdXdXdXdXdXdXdXdXdXdXdXdXdXdXdXdXdXdXdXq O s #.j.V.D.F.Z.D.A.D.A.D.D.J.J.D.G.`.T.{ O q dXdXdXdXdXdXdXdXdXdXdXdXdXdXdXdXdXdXdXdXdX",
"dXdXdXdXdXdXdXdXdXdXdXdXdXdXdXdXdXdX/ Q.$XB 1 7 u.N.D.A.).L.A.D.A.D.D.D.p.a.Z.D.G.f.b 6 ! $XQ./ dXdXdXdXdXdXdXdXdXdXdXdXdXdXdXdXdXdX",
"dXdXdXdXdXdXdXdXdXdXdXdXdXdXdXdXdXdXR Q.4X*X) U g.D.H.P.).P.D.D.D.D.A.M.I.U.p.J.D.B.a.P W.3XQ.R dXdXdXdXdXdXdXdXdXdXdXdXdXdXdXdXdXdX",
"dXdXdXdXdXdXdXdXdXdXdXdXdXdXdXdXdXdXe U.qXiX4X) p.D.L.).G.D.D.A.D.D.M./ !.$X) p.D.D.C.d.#X0XE.x dXdXdXdXdXdXdXdXdXdXdXdXdXdXdXdXdXdX",
"dXdXdXdXdXdXdXdXdXdXdXdXdXdXdXdXdXdXdXb U.3X6XW.h.D.k.Y.Z.D.D.D.A.h.Y.W.&X7X=X].l.p.l.].'.) I dXdXdXdXdXdXdXdXdXdXdXdXdXdXdXdXdXdXdX",
"dXdXdXdXdXdXdXdXdXdXdXdXdXdXdXdXdXdXdXdX9 ^ E.~ p.G.a.W B.H.Z.H.B.W ' =X7XyXiX*XE T I.!.^ 9 dXdXdXdXdXdXdXdXdXdXdXdXdXdXdXdXdXdXdXdX",
"dXdXdXdXdXdXdXdXdXdXdXdXdXdXdXdXdXdXdXdXdX< $ 6 Q }.Q P l.}.).}.l.x ^ 7XpXyX7XW.x p.m.7 < dXdXdXdXdXdXdXdXdXdXdXdXdXdXdXdXdXdXdXdXdX",
"dXdXdXdXdXdXdXdXdXdXdXdXdXdXdXdXdXdXdXdXdX  . k j.( w % Q `.(.(.E I !.7X<XW.C q P J.C.O   dXdXdXdXdXdXdXdXdXdXdXdXdXdXdXdXdXdXdXdXdX",
"dXdXdXdXdXdXdXdXdXdXdXdXdXdXdXdXdXdXdXdXdX. > n.V.e X + b (._.Y c [.<X%X_ 5   $ / G.n.>   dXdXdXdXdXdXdXdXdXdXdXdXdXdXdXdXdXdXdXdXdX",
"dXdXdXdXdXdXdXdXdXdXdXdXdXdXdXdXdXdXdXdXdX  ; L.x.e C @X XZ L Y W.5X%XP N .X+XE.E z.k.;   dXdXdXdXdXdXdXdXdXdXdXdXdXdXdXdXdXdXdXdXdX",
"dXdXdXdXdXdXdXdXdXdXdXdXdXdXdXdXdXdXdXdXdXdX* E Y 6 2XaXOX|.B Q.6XyX%Xb |.oXaX2X6 Y / #   dXdXdXdXdXdXdXdXdXdXdXdXdXdXdXdXdXdXdXdXdX",
"dXdXdXdXdXdXdXdXdXdXdXdXdXdXdXdXdXdXdXdXdXdXdXX .   ~.sXXXOXtX7X6XqX0XtXOXXXsX#XX # # dXdXdXdXdXdXdXdXdXdXdXdXdXdXdXdXdXdXdXdXdXdXdX",
"dXdXdXdXdXdXdXdXdXdXdXdXdXdXdXdXdXdXdXdXdXdXdX< l f E.=XeXrXaXpXqXqXpXaXrXeX2XC     dXdXdXdXdXdXdXdXdXdXdXdXdXdXdXdXdXdXdXdXdXdXdXdX",
"dXdXdXdXdXdXdXdXdXdXdXdXdXdXdXdXdXdXdXdXdX  : E.wX:XR.( 4XyX7X7XqX0X7X7XyX8X(.7   dXdXdXdXdXdXdXdXdXdXdXdXdXdXdXdXdXdXdXdXdXdXdXdXdX",
"dXdXdXdXdXdXdXdXdXdXdXdXdXdXdXdXdXdXdXdXdX  : '.iX9XR.K _ [.4X4X4X8X8X6X[.E K ;   dXdXdXdXdXdXdXdXdXdXdXdXdXdXdXdXdXdXdXdXdXdXdXdXdX",
"dXdXdXdXdXdXdXdXdXdXdXdXdXdXdXdXdXdXdXdXdX  + ^ ;X-XC 1 8 R ~.^.~.~.~.E.I c b w . dXdXdXdXdXdXdXdXdXdXdXdXdXdXdXdXdXdXdXdXdXdXdXdXdX",
"dXdXdXdXdXdXdXdXdXdXdXdXdXdXdXdXdXdXdXdXdXdXdX+ : : o o s %.*.*.=.=.f $ /.1X>XC . dXdXdXdXdXdXdXdXdXdXdXdXdXdXdXdXdXdXdXdXdXdXdXdXdX",
"dXdXdXdXdXdXdXdXdXdXdXdXdXdXdXdXdXdXdXdXdXdXdXdX    X ; { o...} } O.t o V ,X9X/.@ . dXdXdXdXdXdXdXdXdXdXdXdXdXdXdXdXdXdXdXdXdXdXdXdX",
"dXdXdXdXdXdXdXdXdXdXdXdXdXdXdXdXdXdXdXdXdXdXdXdXdX  5 v @.o.O.$.O.O.} h i b >X-Xx @   dXdXdXdXdXdXdXdXdXdXdXdXdXdXdXdXdXdXdXdXdXdXdX",
"dXdXdXdXdXdXdXdXdXdXdXdXdXdXdXdXdXdXdXdXdXdXdXdX+ s ..+.n e M i.c.c.i.l X w ;XuX*Xw   dXdXdXdXdXdXdXdXdXdXdXdXdXdXdXdXdXdXdXdXdXdXdX",
"dXdXdXdXdXdXdXdXdXdXdXdXdXdXdXdXdXdXdXdXdXdXdX  = &.7.6.@.e x h.D.S.M.c   + =XpXyXB   dXdXdXdXdXdXdXdXdXdXdXdXdXdXdXdXdXdXdXdXdXdXdX",
"dXdXdXdXdXdXdXdXdXdXdXdXdXdXdXdXdXdXdXdXdXdXdX  u &.9.<.8.[ @.m.D.D.m.X.. $ =XpX5Xl . dXdXdXdXdXdXdXdXdXdXdXdXdXdXdXdXdXdXdXdXdXdXdX",
"dXdXdXdXdXdXdXdXdXdXdXdXdXdXdXdXdXdXdXdXdXdXdX  o s ..7.<.<.,.t.v.v.v.o.y i C @XC <   dXdXdXdXdXdXdXdXdXdXdXdXdXdXdXdXdXdXdXdXdXdXdX",
"dXdXdXdXdXdXdXdXdXdXdXdXdXdXdXdXdXdXdXdXdXdXdXdXdX  i o.8.1.5.5.4.1.,.O.X.d o     dXdXdXdXdXdXdXdXdXdXdXdXdXdXdXdXdXdXdXdXdXdXdXdXdX",
"dXdXdXdXdXdXdXdXdXdXdXdXdXdXdXdXdXdXdXdXdXdXdXdXdX  $ m -.$.p p p p u = = -   dXdXdXdXdXdXdXdXdXdXdXdXdXdXdXdXdXdXdXdXdXdXdXdXdXdXdX",
"dXdXdXdXdXdXdXdXdXdXdXdXdXdXdXdXdXdXdXdXdXdXdXdXdXX 3 S ] e                 dXdXdXdXdXdXdXdXdXdXdXdXdXdXdXdXdXdXdXdXdXdXdXdXdXdXdXdX",
"dXdXdXdXdXdXdXdXdXdXdXdXdXdXdXdXdXdXdXdXdXdXdX  X 0 S J D 2   dXdXdXdXdXdXdXdXdXdXdXdXdXdXdXdXdXdXdXdXdXdXdXdXdXdXdXdXdXdXdXdXdXdXdX",
"dXdXdXdXdXdXdXdXdXdXdXdXdXdXdXdXdXdXdXdXdXdXdX  2 S H G J 3   dXdXdXdXdXdXdXdXdXdXdXdXdXdXdXdXdXdXdXdXdXdXdXdXdXdXdXdXdXdXdXdXdXdXdX",
"dXdXdXdXdXdXdXdXdXdXdXdXdXdXdXdXdXdXdXdXdXdXdX  3 G G F H A   dXdXdXdXdXdXdXdXdXdXdXdXdXdXdXdXdXdXdXdXdXdXdXdXdXdXdXdXdXdXdXdXdXdXdX",
"dXdXdXdXdXdXdXdXdXdXdXdXdXdXdXdXdXdXdXdXdXdXdXdXX 4 r 4 r % dXdXdXdXdXdXdXdXdXdXdXdXdXdXdXdXdXdXdXdXdXdXdXdXdXdXdXdXdXdXdXdXdXdXdXdX",
"dXdXdXdXdXdXdXdXdXdXdXdXdXdXdXdXdXdXdXdXdXdXdXdXdX          dXdXdXdXdXdXdXdXdXdXdXdXdXdXdXdXdXdXdXdXdXdXdXdXdXdXdXdXdXdXdXdXdXdXdXdX",
"dXdXdXdXdXdXdXdXdXdXdXdXdXdXdXdXdXdXdXdXdXdXdXdXdXdXdXdXdXdXdXdXdXdXdXdXdXdXdXdXdXdXdXdXdXdXdXdXdXdXdXdXdXdXdXdXdXdXdXdXdXdXdXdXdXdX",
"dXdXdXdXdXdXdXdXdXdXdXdXdXdXdXdXdXdXdXdXdXdXdXdXdXdXdXdXdXdXdXdXdXdXdXdXdXdXdXdXdXdXdXdXdXdXdXdXdXdXdXdXdXdXdXdXdXdXdXdXdXdXdXdXdXdX",
"dXdXdXdXdXdXdXdXdXdXdXdXdXdXdXdXdXdXdXdXdXdXdXdXdXdXdXdXdXdXdXdXdXdXdXdXdXdXdXdXdXdXdXdXdXdXdXdXdXdXdXdXdXdXdXdXdXdXdXdXdXdXdXdXdXdX",
"dXdXdXdXdXdXdXdXdXdXdXdXdXdXdXdXdXdXdXdXdXdXdXdXdXdXdXdXdXdXdXdXdXdXdXdXdXdXdXdXdXdXdXdXdXdXdXdXdXdXdXdXdXdXdXdXdXdXdXdXdXdXdXdXdXdX",
"dXdXdXdXdXdXdXdXdXdXdXdXdXdXdXdXdXdXdXdXdXdXdXdXdXdXdXdXdXdXdXdXdXdXdXdXdXdXdXdXdXdXdXdXdXdXdXdXdXdXdXdXdXdXdXdXdXdXdXdXdXdXdXdXdXdX",
"dXdXdXdXdXdXdXdXdXdXdXdXdXdXdXdXdXdXdXdXdXdXdXdXdXdXdXdXdXdXdXdXdXdXdXdXdXdXdXdXdXdXdXdXdXdXdXdXdXdXdXdXdXdXdXdXdXdXdXdXdXdXdXdXdXdX",
"dXdXdXdXdXdXdXdXdXdXdXdXdXdXdXdXdXdXdXdXdXdXdXdXdXdXdXdXdXdXdXdXdXdXdXdXdXdXdXdXdXdXdXdXdXdXdXdXdXdXdXdXdXdXdXdXdXdXdXdXdXdXdXdXdXdX",
"dXdXdXdXdXdXdXdXdXdXdXdXdXdXdXdXdXdXdXdXdXdXdXdXdXdXdXdXdXdXdXdXdXdXdXdXdXdXdXdXdXdXdXdXdXdXdXdXdXdXdXdXdXdXdXdXdXdXdXdXdXdXdXdXdXdX",
"dXdXdXdXdXdXdXdXdXdXdXdXdXdXdXdXdXdXdXdXdXdXdXdXdXdXdXdXdXdXdXdXdXdXdXdXdXdXdXdXdXdXdXdXdXdXdXdXdXdXdXdXdXdXdXdXdXdXdXdXdXdXdXdXdXdX",
"dXdXdXdXdXdXdXdXdXdXdXdXdXdXdXdXdXdXdXdXdXdXdXdXdXdXdXdXdXdXdXdXdXdXdXdXdXdXdXdXdXdXdXdXdXdXdXdXdXdXdXdXdXdXdXdXdXdXdXdXdXdXdXdXdXdX",
"dXdXdXdXdXdXdXdXdXdXdXdXdXdXdXdXdXdXdXdXdXdXdXdXdXdXdXdXdXdXdXdXdXdXdXdXdXdXdXdXdXdXdXdXdXdXdXdXdXdXdXdXdXdXdXdXdXdXdXdXdXdXdXdXdXdX",
"dXdXdXdXdXdXdXdXdXdXdXdXdXdXdXdXdXdXdXdXdXdXdXdXdXdXdXdXdXdXdXdXdXdXdXdXdXdXdXdXdXdXdXdXdXdXdXdXdXdXdXdXdXdXdXdXdXdXdXdXdXdXdXdXdXdX",
"dXdXdXdXdXdXdXdXdXdXdXdXdXdXdXdXdXdXdXdXdXdXdXdXdXdXdXdXdXdXdXdXdXdXdXdXdXdXdXdXdXdXdXdXdXdXdXdXdXdXdXdXdXdXdXdXdXdXdXdXdXdXdXdXdXdX",
"dXdXdXdXdXdXdXdXdXdXdXdXdXdXdXdXdXdXdXdXdXdXdXdXdXdXdXdXdXdXdXdXdXdXdXdXdXdXdXdXdXdXdXdXdXdXdXdXdXdXdXdXdXdXdXdXdXdXdXdXdXdXdXdXdXdX",
"dXdXdXdXdXdXdXdXdXdXdXdXdXdXdXdXdXdXdXdXdXdXdXdXdXdXdXdXdXdXdXdXdXdXdXdXdXdXdXdXdXdXdXdXdXdXdXdXdXdXdXdXdXdXdXdXdXdXdXdXdXdXdXdXdXdX",
"dXdXdXdXdXdXdXdXdXdXdXdXdXdXdXdXdXdXdXdXdXdXdXdXdXdXdXdXdXdXdXdXdXdXdXdXdXdXdXdXdXdXdXdXdXdXdXdXdXdXdXdXdXdXdXdXdXdXdXdXdXdXdXdXdXdX"
};
