/* XPM */
static char *result[] = {
/* columns rows colors chars-per-pixel */
"22 24 16 1 ",
"  c #000001",
". c #781028",
"X c #107828",
"o c #704020",
"O c #D82828",
"+ c #A07840",
"@ c #40A028",
"# c #10F808",
"$ c #F8F800",
"% c #D8A850",
"& c #3050F8",
"* c #D0B088",
"= c #B8F8A0",
"- c #F8E0B8",
"; c #F8F8F8",
": c None",
/* pixels */
":::::::: @@@@ ::::::::",
"::::::: @@@@@@ :::::::",
":::::: @######@ ::::::",
"::::: @########@ :::::",
"::::: #+$$$$$$+# :::::",
":::: @+$$$$$$$$%@ ::::",
"::+*oo%$$%$$$+$$oo*+::",
"::o--+$$%$$$+*+$+--o::",
":::o*o%+%$$$+*-%+*o:::",
":::: $o+%$$%+-*o$ ::::",
":::: $+ +%%o*o +$ ::::",
":::: +o;&oo-o&;o% ::::",
"::::: +-&;--;&-  :::::",
":::: *=+------+ ::::::",
":::: +=oo****oo ::::::",
"::::: Xo@@@@ == ::::::",
":::::: @o$$o ==o :::::",
"::::: X##$$#X*-* :::::",
":::::: @####@ -- :::::",
"::::::          ::::::",
":::::: .+ ::::::::::::",
"::::: .O. ::::::::::::",
"::::: OOO ::::::::::::",
"::::::   :::::::::::::"
};
