/* XPM */
static char *result[] = {
/* columns rows colors chars-per-pixel */
"66 72 227 2 ",
"   c #000000",
".  c #030A03",
"X  c #0C0602",
"o  c #160708",
"O  c #0B1907",
"+  c #141C00",
"@  c #260708",
"#  c #22170C",
"$  c #281B18",
"%  c #3B1309",
"&  c #162709",
"*  c #1B2811",
"=  c #193B10",
"-  c #032B0D",
";  c #302B0C",
":  c #2F3000",
">  c #3F2B1E",
",  c #331E24",
"<  c #38312C",
"1  c #590B15",
"2  c #591110",
"3  c #451411",
"4  c #620D17",
"5  c #48240E",
"6  c #46281A",
"7  c #533614",
"8  c #693516",
"9  c #6A3215",
"0  c #590B21",
"q  c #593C35",
"w  c #4C382C",
"e  c #693E2B",
"r  c #0C4F10",
"t  c #006900",
"y  c #0D700C",
"u  c #29681B",
"i  c #2D7A1C",
"p  c #327D1E",
"a  c #2F552F",
"s  c #397524",
"d  c #245F20",
"f  c #45451B",
"g  c #64441D",
"h  c #79451E",
"j  c #524A35",
"k  c #6C4E28",
"l  c #704020",
"z  c #7C4D2A",
"x  c #7A4522",
"c  c #7D5636",
"v  c #605C2F",
"b  c #706930",
"n  c #556D2A",
"m  c #503C6F",
"M  c #735B48",
"N  c #746D51",
"B  c #64517B",
"V  c #851919",
"C  c #B41D2C",
"Z  c #A02934",
"A  c #D5282A",
"S  c #EC2B2B",
"D  c #F22C30",
"F  c #C7182D",
"G  c #874918",
"H  c #95671E",
"J  c #8B5C2D",
"K  c #865A39",
"L  c #854930",
"P  c #9A6A28",
"I  c #8D6437",
"U  c #956638",
"Y  c #9D753C",
"T  c #8E6B2C",
"R  c #AD7B2F",
"E  c #AA7D13",
"W  c #886747",
"Q  c #966C48",
"!  c #997349",
"~  c #A46C47",
"^  c #A27A41",
"/  c #A6774C",
"(  c #A67B57",
")  c #B76F48",
"_  c #8B7B6E",
"`  c #A67B60",
"'  c #8C5D52",
"]  c #019905",
"[  c #009701",
"{  c #118A0B",
"}  c #358321",
"|  c #379023",
" . c #3EA62E",
".. c #1AA81D",
"X. c #53841F",
"o. c #61971E",
"O. c #6DBA0F",
"+. c #459A2A",
"@. c #479B3D",
"#. c #41A029",
"$. c #45AB2B",
"%. c #47B12C",
"&. c #55AB35",
"*. c #60AD32",
"=. c #23D415",
"-. c #29DA1A",
";. c #29CB19",
":. c #03FE06",
">. c #00FA08",
",. c #0FFF08",
"<. c #11FA0B",
"1. c #17FF05",
"2. c #10E311",
"3. c #38FF07",
"4. c #26F211",
"5. c #35DC22",
"6. c #15C518",
"7. c #46CD1A",
"8. c #79C20E",
"9. c #53FF04",
"0. c #62EF09",
"q. c #6BF905",
"w. c #309B41",
"e. c #6F874F",
"r. c #679462",
"t. c #7ECA63",
"y. c #B79813",
"u. c #BFA716",
"i. c #9E8D23",
"p. c #B78536",
"a. c #B19334",
"s. c #AEB424",
"d. c #C3AD1D",
"f. c #CCB412",
"g. c #D9BE33",
"h. c #C2A72A",
"j. c #E6BD37",
"k. c #AAFF02",
"l. c #95C409",
"z. c #D4D800",
"x. c #D4C514",
"c. c #CAC80C",
"v. c #E9DC0B",
"b. c #F0CE1A",
"n. c #D5F701",
"m. c #EAE605",
"M. c #FAEB09",
"N. c #FCFC00",
"B. c #FAF505",
"V. c #F6E818",
"C. c #F7EC16",
"Z. c #DAC22C",
"A. c #ECD428",
"S. c #E7C934",
"D. c #F1D436",
"F. c #ECD228",
"G. c #F9E725",
"H. c #FFEA31",
"J. c #8F9156",
"K. c #AA825D",
"L. c #B99457",
"P. c #B08F55",
"I. c #9DA65D",
"U. c #8FB157",
"Y. c #919570",
"T. c #B99666",
"R. c #B68C72",
"E. c #BA9574",
"W. c #AD8D6A",
"Q. c #AFA773",
"!. c #B4A877",
"~. c #A4B671",
"^. c #83AD6C",
"/. c #C18C4E",
"(. c #C49546",
"). c #CC9756",
"_. c #D39E59",
"`. c #DBAF49",
"'. c #D8A850",
"]. c #D39D77",
"[. c #CFA674",
"{. c #E9B769",
"}. c #BDC340",
"|. c #E6C96F",
" X c #2736BA",
".X c #515AA3",
"XX c #3759FF",
"oX c #4973FF",
"OX c #4C68F6",
"+X c #798596",
"@X c #838E9F",
"#X c #9DA08A",
"$X c #CC9C83",
"%X c #CCAB84",
"&X c #CBB28B",
"*X c #D2B48B",
"=X c #D4B398",
"-X c #D6BBA2",
";X c #BCD996",
":X c #9AE48B",
">X c #B8F8A0",
",X c #DDCE97",
"<X c #E7C79A",
"1X c #F0C78D",
"2X c #F1F29F",
"3X c #DCC5A4",
"4X c #E9CDA4",
"5X c #EAC9A5",
"6X c #E7D0A8",
"7X c #F6D3A8",
"8X c #F8D5B0",
"9X c #C8FFB2",
"0X c #DBF4B0",
"qX c #F8E0B8",
"wX c #FBE6B7",
"eX c #E9EFB7",
"rX c #8E92DB",
"tX c #B1BDFC",
"yX c #DDD7D6",
"uX c #D3FFC4",
"iX c #FEECC5",
"pX c #FFF0C7",
"aX c #FFF7D1",
"sX c #FFFFE5",
"dX c #FBFFFD",
"fX c #EBE6EE",
"gX c None",
/* pixels */
"gXgXgXgXgXgXgXgXgXgXgXgXgXgXgXgXgXgXgXgXgXgXgXgXgXgXgXgXgXgXgXgXgXgXgXgXgXgXgXgXgXgXgXgXgXgXgXgXgXgXgXgXgXgXgXgXgXgXgXgXgXgXgXgXgXgX",
"gXgXgXgXgXgXgXgXgXgXgXgXgXgXgXgXgXgXgXgXgXgXgXgXgXgXgXgXgXgXgXgXgXgXgXgXgXgXgXgXgXgXgXgXgXgXgXgXgXgXgXgXgXgXgXgXgXgXgXgXgXgXgXgXgXgX",
"gXgXgXgXgXgXgXgXgXgXgXgXgXgXgXgXgXgXgXgXgXgXgXgXgXgXgXgXgXgXgXgXgXgXgXgXgXgXgXgXgXgXgXgXgXgXgXgXgXgXgXgXgXgXgXgXgXgXgXgXgXgXgXgXgXgX",
"gXgXgXgXgXgXgXgXgXgXgXgXgXgXgXgXgXgXgXgXgXgXgXgXgXgXgXgXgXgXgXgXgXgXgXgXgXgXgXgXgXgXgXgXgXgXgXgXgXgXgXgXgXgXgXgXgXgXgXgXgXgXgXgXgXgX",
"gXgXgXgXgXgXgXgXgXgXgXgXgXgXgXgXgXgXgXgXgXgXgXgXgXgXgXgXgXgXgXgXgXgXgXgXgXgXgXgXgXgXgXgXgXgXgXgXgXgXgXgXgXgXgXgXgXgXgXgXgXgXgXgXgXgX",
"gXgXgXgXgXgXgXgXgXgXgXgXgXgXgXgXgXgXgXgXgXgXgXgXgXgXgXgXgXgXgXgXgXgXgXgXgXgXgXgXgXgXgXgXgXgXgXgXgXgXgXgXgXgXgXgXgXgXgXgXgXgXgXgXgXgX",
"gXgXgXgXgXgXgXgXgXgXgXgXgXgXgXgXgXgXgXgXgXgXgXgXgXgXgXgXgXgXgXgXgXgXgXgXgXgXgXgXgXgXgXgXgXgXgXgXgXgXgXgXgXgXgXgXgXgXgXgXgXgXgXgXgXgX",
"gXgXgXgXgXgXgXgXgXgXgXgXgXgXgXgXgXgXgXgXgXgXgXgXgXgXgXgXgXgXgXgXgXgXgXgXgXgXgXgXgXgXgXgXgXgXgXgXgXgXgXgXgXgXgXgXgXgXgXgXgXgXgXgXgXgX",
"gXgXgXgXgXgXgXgXgXgXgXgXgXgXgXgXgXgXgXgXgXgXgXgXgXgXgXgXgXgXgXgXgXgXgXgXgXgXgXgXgXgXgXgXgXgXgXgXgXgXgXgXgXgXgXgXgXgXgXgXgXgXgXgXgXgX",
"gXgXgXgXgXgXgXgXgXgXgXgXgXgXgXgXgXgXgXgXgXgXgXgXgXgXgXgXgXgXgXgXgXgXgXgXgXgXgXgXgXgXgXgXgXgXgXgXgXgXgXgXgXgXgXgXgXgXgXgXgXgXgXgXgXgX",
"gXgXgXgXgXgXgXgXgXgXgXgXgXgXgXgXgXgXgXgXgXgXgXgXgXgXgXgXgXgXgXgXgXgXgXgXgXgXgXgXgXgXgXgXgXgXgXgXgXgXgXgXgXgXgXgXgXgXgXgXgXgXgXgXgXgX",
"gXgXgXgXgXgXgXgXgXgXgXgXgXgXgXgXgXgXgXgXgXgXgXgXgXgXgXgXgXgXgXgXgXgXgXgXgXgXgXgXgXgXgXgXgXgXgXgXgXgXgXgXgXgXgXgXgXgXgXgXgXgXgXgXgXgX",
"gXgXgXgXgXgXgXgXgXgXgXgXgXgXgXgXgXgXgXgXgXgXgXgXgXgXgXgXgXgXgXgXgXgXgXgXgXgXgXgXgXgXgXgXgXgXgXgXgXgXgXgXgXgXgXgXgXgXgXgXgXgXgXgXgXgX",
"gXgXgXgXgXgXgXgXgXgXgXgXgXgXgXgXgXgXgXgXgXgXgXgXgXgXgXgXgXgXgXgXgXgXgXgXgXgXgXgXgXgXgXgXgXgXgXgXgXgXgXgXgXgXgXgXgXgXgXgXgXgXgXgXgXgX",
"gXgXgXgXgXgXgXgXgXgXgXgXgXgXgXgXgXgXgXgXgXgXgXgXgXgXgXgXgXgXgXgXgXgXgXgXgXgXgXgXgXgXgXgXgXgXgXgXgXgXgXgXgXgXgXgXgXgXgXgXgXgXgXgXgXgX",
"gXgXgXgXgXgXgXgXgXgXgXgXgXgXgXgXgXgXgXgXgXgXgXgXgXgXgXgXgXgXgXgXgXgXgXgXgXgXgXgXgXgXgXgXgXgXgXgXgXgXgXgXgXgXgXgXgXgXgXgXgXgXgXgXgXgX",
"gXgXgXgXgXgXgXgXgXgXgXgXgXgXgXgXgXgXgXgXgXgXgXgXgXgXgXgX  r #.$.#.#.$.| r   gXgXgXgXgXgXgXgXgXgXgXgXgXgXgXgXgXgXgXgXgXgXgXgXgXgXgXgX",
"gXgXgXgXgXgXgXgXgXgXgXgXgXgXgXgXgXgXgXgXgXgXgXgXgXgXgX  * u +.#.+.+.#.+.u *   gXgXgXgXgXgXgXgXgXgXgXgXgXgXgXgXgXgXgXgXgXgXgXgXgXgXgX",
"gXgXgXgXgXgXgXgXgXgXgXgXgXgXgXgXgXgXgXgXgXgXgXgXgXgX  O s &.+. .#.#.+. .&.} O   gXgXgXgXgXgXgXgXgXgXgXgXgXgXgXgXgXgXgXgXgXgXgXgXgXgX",
"gXgXgXgXgXgXgXgXgXgXgXgXgXgXgXgXgXgXgXgXgXgXgXgXgX  * p ;.4.=.=.=.=.=.=.4.;.p *   gXgXgXgXgXgXgXgXgXgXgXgXgXgXgXgXgXgXgXgXgXgXgXgXgX",
"gXgXgXgXgXgXgXgXgXgXgXgXgXgXgXgXgXgXgXgXgXgXgXgXX O p 5.<.:.:.:.:.:.:.,.:.<.5.p O . gXgXgXgXgXgXgXgXgXgXgXgXgXgXgXgXgXgXgXgXgXgXgXgX",
"gXgXgXgXgXgXgXgXgXgXgXgXgXgXgXgXgXgXgXgXgXgXgX  * s =.:.:.:.>.>.:.>.>.>.:.:.:.;.s * . gXgXgXgXgXgXgXgXgXgXgXgXgXgXgXgXgXgXgXgXgXgXgX",
"gXgXgXgXgXgXgXgXgXgXgXgXgXgXgXgXgXgXgXgXgXgXgX  r -.5.7.0.q.q.q.q.q.q.q.q.0.7.5.-.r   gXgXgXgXgXgXgXgXgXgXgXgXgXgXgXgXgXgXgXgXgXgXgX",
"gXgXgXgXgXgXgXgXgXgXgXgXgXgXgXgXgXgXgXgXgXgXgX  t <.*.p.v.N.B.B.B.B.B.N.N.v.R *.<.t   gXgXgXgXgXgXgXgXgXgXgXgXgXgXgXgXgXgXgXgXgXgXgX",
"gXgXgXgXgXgXgXgXgXgXgXgXgXgXgXgXgXgXgXgXgXgX  r | *.s.b.M.N.N.N.N.N.N.N.N.N.b.}.t.@.r . gXgXgXgXgXgXgXgXgXgXgXgXgXgXgXgXgXgXgXgXgXgX",
"gXgXgXgXgXgXgXgXgXgXgXgXgXgXgXgXgXgXgXgXgXq O p e.p.b.N.N.B.C.B.B.B.N.N.m.m.N.H.{.U.i X q gXgXgXgXgXgXgXgXgXgXgXgXgXgXgXgXgXgXgXgXgX",
"gXgXgXgXgXgXgXgXgXgXgXgXgXgXgXgXgXgX^ T.%XK 5 7 Q ).b.N.N.A.`.A.N.B.N.N.d.a.B.B.V.i.7 3 K %XT.^ gXgXgXgXgXgXgXgXgXgXgXgXgXgXgXgXgXgX",
"gXgXgXgXgXgXgXgXgXgXgXgXgXgXgXgXgXgXI T.4X&X! L R D.B.N.V.S.g.V.N.N.m.x.P.K.h.m.B.y.c ~ &X6XT.J gXgXgXgXgXgXgXgXgXgXgXgXgXgXgXgXgXgX",
"gXgXgXgXgXgXgXgXgXgXgXgXgXgXgXgXgXgXl ( qXaX5X` y.B.N.C.`.j.B.N.N.N.f.^ [.%X! d.B.d.( 5XaXqX( l gXgXgXgXgXgXgXgXgXgXgXgXgXgXgXgXgXgX",
"gXgXgXgXgXgXgXgXgXgXgXgXgXgXgXgXgXgXgXz K.iXiX' H D.Z.h.).S.N.N.N.N.x.! W.=X=X|.F.a.( 7X4XK.c gXgXgXgXgXgXgXgXgXgXgXgXgXgXgXgXgXgXgX",
"gXgXgXgXgXgXgXgXgXgXgXgXgXgXgXgXgXgXgXgX8 W.&XT H (./ ~ ).S.N.N.N.B.f.^ E.5XiX<XL.p.a.W.W 9 gXgXgXgXgXgXgXgXgXgXgXgXgXgXgXgXgXgXgXgX",
"gXgXgXgXgXgXgXgXgXgXgXgXgXgXgXgXgXgXgXgXgX, f c.f.z K L._.S.N.N.B.D.(.Y *XiXqXR.z f.x.f $ gXgXgXgXgXgXgXgXgXgXgXgXgXgXgXgXgXgXgXgXgX",
"gXgXgXgXgXgXgXgXgXgXgXgXgXgXgXgXgXgXgXgXgX  + n.M.z 6 g R S.G.H.S.R ~ T.[.[.M q L m.m.&   gXgXgXgXgXgXgXgXgXgXgXgXgXgXgXgXgXgXgXgXgX",
"gXgXgXgXgXgXgXgXgXgXgXgXgXgXgXgXgXgXgXgXgX  : z.V.^ $ X c (.'.`.(.x Q %X( 5   $ ^ V.z.:   gXgXgXgXgXgXgXgXgXgXgXgXgXgXgXgXgXgXgXgXgX",
"gXgXgXgXgXgXgXgXgXgXgXgXgXgXgXgXgXgXgXgXgX  ; Z.j.J _ @X.X.XG G U E.W.K m .X+XY.J j.g.;   gXgXgXgXgXgXgXgXgXgXgXgXgXgXgXgXgXgXgXgXgX",
"gXgXgXgXgXgXgXgXgXgXgXgXgXgXgXgXgXgXgXgXgX  # ! P e 7XdXoX XM h ! wX<XK  XoXdX-X7 J W $ gXgXgXgXgXgXgXgXgXgXgXgXgXgXgXgXgXgXgXgXgXgX",
"gXgXgXgXgXgXgXgXgXgXgXgXgXgXgXgXgXgXgXgXgXgXgX# 5 x 1XfXXXOXyX6X5X8XiXyXOXXXfXE.. X o gXgXgXgXgXgXgXgXgXgXgXgXgXgXgXgXgXgXgXgXgXgXgX",
"gXgXgXgXgXgXgXgXgXgXgXgXgXgXgXgXgXgXgXgXgXgXgXgX  5 P.-XrXtXdXsXiXqXaXdXtXrX-XP.a j < gXgXgXgXgXgXgXgXgXgXgXgXgXgXgXgXgXgXgXgXgXgXgX",
"gXgXgXgXgXgXgXgXgXgXgXgXgXgXgXgXgXgXgXgXgXgXgXgXgX  7 ).5XiXqXqXqXqX8XqXiX5X/ I.>X0XW.$   gXgXgXgXgXgXgXgXgXgXgXgXgXgXgXgXgXgXgXgXgX",
"gXgXgXgXgXgXgXgXgXgXgXgXgXgXgXgXgXgXgXgXgXgXgXgXgX  % L U [.7X8X5X5X7X<X].Y h I.0X2X( $   gXgXgXgXgXgXgXgXgXgXgXgXgXgXgXgXgXgXgXgXgX",
"gXgXgXgXgXgXgXgXgXgXgXgXgXgXgXgXgXgXgXgXgXgXgXgXgX  w c k I W.E.!.!.!.Q.b 7 9 W :XI.k o   gXgXgXgXgXgXgXgXgXgXgXgXgXgXgXgXgXgXgXgXgX",
"gXgXgXgXgXgXgXgXgXgXgXgXgXgXgXgXgXgXgXgXgXgXgXgXgX  e.;X;Xe.$ s &.@.@.@. .X.9 v w.d o gXgXgXgXgXgXgXgXgXgXgXgXgXgXgXgXgXgXgXgXgXgXgX",
"gXgXgXgXgXgXgXgXgXgXgXgXgXgXgXgXgXgXgXgXgXgXgXgXX @ r.uXuXr.  O X.O.8.8.o.n n f - . gXgXgXgXgXgXgXgXgXgXgXgXgXgXgXgXgXgXgXgXgXgXgXgX",
"gXgXgXgXgXgXgXgXgXgXgXgXgXgXgXgXgXgXgXgXgXgXgX  @ z ~.9X9Xr.  @ H v.N.N.E g +.u . gXgXgXgXgXgXgXgXgXgXgXgXgXgXgXgXgXgXgXgXgXgXgXgXgX",
"gXgXgXgXgXgXgXgXgXgXgXgXgXgXgXgXgXgXgXgXgXgXgX  > K.,XeXeXr.r y O.B.N.N.l...2.6.r O   gXgXgXgXgXgXgXgXgXgXgXgXgXgXgXgXgXgXgXgXgXgXgX",
"gXgXgXgXgXgXgXgXgXgXgXgXgXgXgXgXgXgXgXgXgXgXgX  j 5XpXqX$XN w.2.3.k.n.n.9.:.,.6.d -   gXgXgXgXgXgXgXgXgXgXgXgXgXgXgXgXgXgXgXgXgXgXgX",
"gXgXgXgXgXgXgXgXgXgXgXgXgXgXgXgXgXgXgXgXgXgXgX  M iXdX6Xq * $.4.:.3.3.3.1.1.5.i - . gXgXgXgXgXgXgXgXgXgXgXgXgXgXgXgXgXgXgXgXgXgXgXgX",
"gXgXgXgXgXgXgXgXgXgXgXgXgXgXgXgXgXgXgXgXgXgXgX  w Y.#XN   . u { [ [ ] ] [ { u *   gXgXgXgXgXgXgXgXgXgXgXgXgXgXgXgXgXgXgXgXgXgXgXgXgX",
"gXgXgXgXgXgXgXgXgXgXgXgXgXgXgXgXgXgXgXgXgXgXgXgXgX                                gXgXgXgXgXgXgXgXgXgXgXgXgXgXgXgXgXgXgXgXgXgXgXgXgX",
"gXgXgXgXgXgXgXgXgXgXgXgXgXgXgXgXgXgXgXgXgXgXgXgXgXgXgXgXgXgXgXgXgXgX    6 e 0 o   gXgXgXgXgXgXgXgXgXgXgXgXgXgXgXgXgXgXgXgXgXgXgXgXgX",
"gXgXgXgXgXgXgXgXgXgXgXgXgXgXgXgXgXgXgXgXgXgXgXgXgXgXgXgXgXgXgXgXgXgXgX  k ) Z 4 o gXgXgXgXgXgXgXgXgXgXgXgXgXgXgXgXgXgXgXgXgXgXgXgXgX",
"gXgXgXgXgXgXgXgXgXgXgXgXgXgXgXgXgXgXgXgXgXgXgXgXgXgXgXgXgXgXgXgXgXgXgX  , Z F C 0 o   gXgXgXgXgXgXgXgXgXgXgXgXgXgXgXgXgXgXgXgXgXgXgX",
"gXgXgXgXgXgXgXgXgXgXgXgXgXgXgXgXgXgXgXgXgXgXgXgXgXgXgXgXgXgXgXgXgXgXgX  1 F D D C 3   gXgXgXgXgXgXgXgXgXgXgXgXgXgXgXgXgXgXgXgXgXgXgX",
"gXgXgXgXgXgXgXgXgXgXgXgXgXgXgXgXgXgXgXgXgXgXgXgXgXgXgXgXgXgXgXgXgXgXgX  V S A S A 1   gXgXgXgXgXgXgXgXgXgXgXgXgXgXgXgXgXgXgXgXgXgXgX",
"gXgXgXgXgXgXgXgXgXgXgXgXgXgXgXgXgXgXgXgXgXgXgXgXgXgXgXgXgXgXgXgXgXgXgXgX% 4 2 2 2 @ gXgXgXgXgXgXgXgXgXgXgXgXgXgXgXgXgXgXgXgXgXgXgXgX",
"gXgXgXgXgXgXgXgXgXgXgXgXgXgXgXgXgXgXgXgXgXgXgXgXgXgXgXgXgXgXgXgXgXgXgXgX          gXgXgXgXgXgXgXgXgXgXgXgXgXgXgXgXgXgXgXgXgXgXgXgXgX",
"gXgXgXgXgXgXgXgXgXgXgXgXgXgXgXgXgXgXgXgXgXgXgXgXgXgXgXgXgXgXgXgXgXgXgXgXgXgXgXgXgXgXgXgXgXgXgXgXgXgXgXgXgXgXgXgXgXgXgXgXgXgXgXgXgXgX",
"gXgXgXgXgXgXgXgXgXgXgXgXgXgXgXgXgXgXgXgXgXgXgXgXgXgXgXgXgXgXgXgXgXgXgXgXgXgXgXgXgXgXgXgXgXgXgXgXgXgXgXgXgXgXgXgXgXgXgXgXgXgXgXgXgXgX",
"gXgXgXgXgXgXgXgXgXgXgXgXgXgXgXgXgXgXgXgXgXgXgXgXgXgXgXgXgXgXgXgXgXgXgXgXgXgXgXgXgXgXgXgXgXgXgXgXgXgXgXgXgXgXgXgXgXgXgXgXgXgXgXgXgXgX",
"gXgXgXgXgXgXgXgXgXgXgXgXgXgXgXgXgXgXgXgXgXgXgXgXgXgXgXgXgXgXgXgXgXgXgXgXgXgXgXgXgXgXgXgXgXgXgXgXgXgXgXgXgXgXgXgXgXgXgXgXgXgXgXgXgXgX",
"gXgXgXgXgXgXgXgXgXgXgXgXgXgXgXgXgXgXgXgXgXgXgXgXgXgXgXgXgXgXgXgXgXgXgXgXgXgXgXgXgXgXgXgXgXgXgXgXgXgXgXgXgXgXgXgXgXgXgXgXgXgXgXgXgXgX",
"gXgXgXgXgXgXgXgXgXgXgXgXgXgXgXgXgXgXgXgXgXgXgXgXgXgXgXgXgXgXgXgXgXgXgXgXgXgXgXgXgXgXgXgXgXgXgXgXgXgXgXgXgXgXgXgXgXgXgXgXgXgXgXgXgXgX",
"gXgXgXgXgXgXgXgXgXgXgXgXgXgXgXgXgXgXgXgXgXgXgXgXgXgXgXgXgXgXgXgXgXgXgXgXgXgXgXgXgXgXgXgXgXgXgXgXgXgXgXgXgXgXgXgXgXgXgXgXgXgXgXgXgXgX",
"gXgXgXgXgXgXgXgXgXgXgXgXgXgXgXgXgXgXgXgXgXgXgXgXgXgXgXgXgXgXgXgXgXgXgXgXgXgXgXgXgXgXgXgXgXgXgXgXgXgXgXgXgXgXgXgXgXgXgXgXgXgXgXgXgXgX",
"gXgXgXgXgXgXgXgXgXgXgXgXgXgXgXgXgXgXgXgXgXgXgXgXgXgXgXgXgXgXgXgXgXgXgXgXgXgXgXgXgXgXgXgXgXgXgXgXgXgXgXgXgXgXgXgXgXgXgXgXgXgXgXgXgXgX",
"gXgXgXgXgXgXgXgXgXgXgXgXgXgXgXgXgXgXgXgXgXgXgXgXgXgXgXgXgXgXgXgXgXgXgXgXgXgXgXgXgXgXgXgXgXgXgXgXgXgXgXgXgXgXgXgXgXgXgXgXgXgXgXgXgXgX",
"gXgXgXgXgXgXgXgXgXgXgXgXgXgXgXgXgXgXgXgXgXgXgXgXgXgXgXgXgXgXgXgXgXgXgXgXgXgXgXgXgXgXgXgXgXgXgXgXgXgXgXgXgXgXgXgXgXgXgXgXgXgXgXgXgXgX",
"gXgXgXgXgXgXgXgXgXgXgXgXgXgXgXgXgXgXgXgXgXgXgXgXgXgXgXgXgXgXgXgXgXgXgXgXgXgXgXgXgXgXgXgXgXgXgXgXgXgXgXgXgXgXgXgXgXgXgXgXgXgXgXgXgXgX",
"gXgXgXgXgXgXgXgXgXgXgXgXgXgXgXgXgXgXgXgXgXgXgXgXgXgXgXgXgXgXgXgXgXgXgXgXgXgXgXgXgXgXgXgXgXgXgXgXgXgXgXgXgXgXgXgXgXgXgXgXgXgXgXgXgXgX",
"gXgXgXgXgXgXgXgXgXgXgXgXgXgXgXgXgXgXgXgXgXgXgXgXgXgXgXgXgXgXgXgXgXgXgXgXgXgXgXgXgXgXgXgXgXgXgXgXgXgXgXgXgXgXgXgXgXgXgXgXgXgXgXgXgXgX",
"gXgXgXgXgXgXgXgXgXgXgXgXgXgXgXgXgXgXgXgXgXgXgXgXgXgXgXgXgXgXgXgXgXgXgXgXgXgXgXgXgXgXgXgXgXgXgXgXgXgXgXgXgXgXgXgXgXgXgXgXgXgXgXgXgXgX",
"gXgXgXgXgXgXgXgXgXgXgXgXgXgXgXgXgXgXgXgXgXgXgXgXgXgXgXgXgXgXgXgXgXgXgXgXgXgXgXgXgXgXgXgXgXgXgXgXgXgXgXgXgXgXgXgXgXgXgXgXgXgXgXgXgXgX"
};
