/* XPM */
static char *result[] = {
/* columns rows colors chars-per-pixel */
"66 72 228 2 ",
"   c #000000",
".  c #080804",
"X  c #160605",
"o  c #081705",
"O  c #16160A",
"+  c #1C1A16",
"@  c #21190F",
"#  c #291819",
"$  c #34120A",
"%  c #032C02",
"&  c #162A0A",
"*  c #1D2716",
"=  c #193E10",
"-  c #302B0C",
";  c #2F3000",
":  c #282415",
">  c #37251E",
",  c #372928",
"<  c #263321",
"1  c #590B15",
"2  c #461917",
"3  c #591110",
"4  c #46140C",
"5  c #620D17",
"6  c #4D270D",
"7  c #573B1A",
"8  c #512C15",
"9  c #673616",
"0  c #753913",
"q  c #570F22",
"w  c #5B3E36",
"e  c #4D3E37",
"r  c #6C3C2E",
"t  c #074B05",
"y  c #045905",
"u  c #135214",
"i  c #016501",
"p  c #006900",
"a  c #076914",
"s  c #32751B",
"d  c #137A27",
"f  c #397B24",
"g  c #3E672A",
"h  c #394C26",
"j  c #444319",
"k  c #65420B",
"l  c #5A711C",
"z  c #594222",
"x  c #4E4A30",
"c  c #724221",
"v  c #744824",
"b  c #675827",
"n  c #76562A",
"m  c #615339",
"M  c #7E5734",
"N  c #684823",
"B  c #47603E",
"V  c #706D34",
"C  c #483467",
"Z  c #5B5043",
"A  c #685149",
"S  c #766D4F",
"D  c #54436E",
"F  c #851919",
"G  c #B41D2C",
"H  c #9E2633",
"J  c #D5282A",
"K  c #EC2B2B",
"L  c #F22C30",
"P  c #C7182D",
"I  c #87491E",
"U  c #84572B",
"Y  c #845637",
"T  c #9A582C",
"R  c #96682B",
"E  c #9A7929",
"W  c #8D6435",
"Q  c #926333",
"!  c #9A7337",
"~  c #84753C",
"^  c #A3753F",
"/  c #A06B32",
"(  c #9A7014",
")  c #845C45",
"_  c #B05F42",
"`  c #8B6246",
"'  c #996E45",
"]  c #967240",
"[  c #987356",
"{  c #A27941",
"}  c #AA7E4C",
"|  c #A57A59",
" . c #857767",
".. c #A47769",
"X. c #178610",
"o. c #2A931F",
"O. c #0BB207",
"+. c #0EA109",
"@. c #28AA1B",
"#. c #338B29",
"$. c #2A9A26",
"%. c #1DAA28",
"&. c #32A726",
"*. c #4E8F2A",
"=. c #66993A",
"-. c #41A128",
";. c #45AB2B",
":. c #5CA73A",
">. c #40BC24",
",. c #60AD32",
"<. c #17DB12",
"1. c #0CD209",
"2. c #2DC21C",
"3. c #31C91D",
"4. c #28DC1C",
"5. c #00FF05",
"6. c #0DFE06",
"7. c #00F909",
"8. c #0BFB08",
"9. c #07F708",
"0. c #10FA08",
"q. c #1BFF0E",
"w. c #17EC10",
"e. c #35D424",
"r. c #4BC61D",
"t. c #70DE1D",
"y. c #6AF905",
"u. c #72FA0D",
"i. c #63ED0A",
"p. c #9F8D1D",
"a. c #90A818",
"s. c #BFA611",
"d. c #BD873C",
"f. c #B08C2D",
"g. c #BBA124",
"h. c #A2A026",
"j. c #CEBA0E",
"k. c #CDB410",
"l. c #D9BE33",
"z. c #C9B324",
"x. c #E9BB33",
"c. c #C19334",
"v. c #B7DB0F",
"b. c #A4FF04",
"n. c #84C53B",
"m. c #C6C60D",
"M. c #D4D800",
"N. c #D5CB14",
"B. c #E8DD0C",
"V. c #E8D01A",
"C. c #D6E400",
"Z. c #E9E506",
"A. c #F4EB0D",
"S. c #FEF603",
"D. c #FCFC00",
"F. c #F7F405",
"G. c #FAE71A",
"H. c #FCF412",
"J. c #C0C12E",
"K. c #EBD328",
"L. c #E7C834",
"P. c #EBD426",
"I. c #B88748",
"U. c #AA845A",
"Y. c #B3864E",
"T. c #958E71",
"R. c #B38964",
"E. c #B89466",
"W. c #AB926D",
"Q. c #8DAD6D",
"!. c #B3A873",
"~. c #BAA873",
"^. c #939053",
"/. c #C79A47",
"(. c #C69A58",
"). c #D49E4B",
"_. c #D9A754",
"`. c #D4AB43",
"'. c #E5BD4D",
"]. c #F1AF49",
"[. c #CB9B6B",
"{. c #C5A27A",
"}. c #CFAF6F",
"|. c #F3C949",
" X c #2734B8",
".X c #525AA3",
"XX c #395BFF",
"oX c #3C62FF",
"OX c #7B7ECB",
"+X c #4A74FF",
"@X c #4E6AF7",
"#X c #7D8798",
"$X c #9C9C80",
"%X c #AD9D82",
"&X c #A9A586",
"*X c #C29E80",
"=X c #CBAC86",
"-X c #D2B186",
";X c #D4B591",
":X c #E2BF8D",
">X c #CCBBAB",
",X c #97C983",
"<X c #BACAA5",
"1X c #BAFBA3",
"2X c #AAD88A",
"3X c #CFDA9E",
"4X c #FFDE99",
"5X c #DEC9A9",
"6X c #E9CEA5",
"7X c #E9C8A4",
"8X c #EDD2AB",
"9X c #F8D6AB",
"0X c #F5DBB2",
"qX c #F5CAAA",
"wX c #D6FEB4",
"eX c #FAE2BA",
"rX c #FAE3B9",
"tX c #E4F6B8",
"yX c #A6AEED",
"uX c #DED8D6",
"iX c #FFECC4",
"pX c #F5E7C1",
"aX c #FFF4CB",
"sX c #FFFDD6",
"dX c #E2DEEA",
"fX c #FFFFE5",
"gX c #F9FFFD",
"hX c None",
/* pixels */
"hXhXhXhXhXhXhXhXhXhXhXhXhXhXhXhXhXhXhXhXhXhXhXhXhXhXhXhXhXhXhXhXhXhXhXhXhXhXhXhXhXhXhXhXhXhXhXhXhXhXhXhXhXhXhXhXhXhXhXhXhXhXhXhXhXhX",
"hXhXhXhXhXhXhXhXhXhXhXhXhXhXhXhXhXhXhXhXhXhXhXhXhXhXhXhXhXhXhXhXhXhXhXhXhXhXhXhXhXhXhXhXhXhXhXhXhXhXhXhXhXhXhXhXhXhXhXhXhXhXhXhXhXhX",
"hXhXhXhXhXhXhXhXhXhXhXhXhXhXhXhXhXhXhXhXhXhXhXhXhXhXhXhXhXhXhXhXhXhXhXhXhXhXhXhXhXhXhXhXhXhXhXhXhXhXhXhXhXhXhXhXhXhXhXhXhXhXhXhXhXhX",
"hXhXhXhXhXhXhXhXhXhXhXhXhXhXhXhXhXhXhXhXhXhXhXhXhXhXhXhXhXhXhXhXhXhXhXhXhXhXhXhXhXhXhXhXhXhXhXhXhXhXhXhXhXhXhXhXhXhXhXhXhXhXhXhXhXhX",
"hXhXhXhXhXhXhXhXhXhXhXhXhXhXhXhXhXhXhXhXhXhXhXhXhXhXhXhXhXhXhXhXhXhXhXhXhXhXhXhXhXhXhXhXhXhXhXhXhXhXhXhXhXhXhXhXhXhXhXhXhXhXhXhXhXhX",
"hXhXhXhXhXhXhXhXhXhXhXhXhXhXhXhXhXhXhXhXhXhXhXhXhXhXhXhXhXhXhXhXhXhXhXhXhXhXhXhXhXhXhXhXhXhXhXhXhXhXhXhXhXhXhXhXhXhXhXhXhXhXhXhXhXhX",
"hXhXhXhXhXhXhXhXhXhXhXhXhXhXhXhXhXhXhXhXhXhXhXhXhXhXhXhXhXhXhXhXhXhXhXhXhXhXhXhXhXhXhXhXhXhXhXhXhXhXhXhXhXhXhXhXhXhXhXhXhXhXhXhXhXhX",
"hXhXhXhXhXhXhXhXhXhXhXhXhXhXhXhXhXhXhXhXhXhXhXhXhXhXhXhXhXhXhXhXhXhXhXhXhXhXhXhXhXhXhXhXhXhXhXhXhXhXhXhXhXhXhXhXhXhXhXhXhXhXhXhXhXhX",
"hXhXhXhXhXhXhXhXhXhXhXhXhXhXhXhXhXhXhXhXhXhXhXhXhXhXhXhXhXhXhXhXhXhXhXhXhXhXhXhXhXhXhXhXhXhXhXhXhXhXhXhXhXhXhXhXhXhXhXhXhXhXhXhXhXhX",
"hXhXhXhXhXhXhXhXhXhXhXhXhXhXhXhXhXhXhXhXhXhXhXhXhXhXhXhXhXhXhXhXhXhXhXhXhXhXhXhXhXhXhXhXhXhXhXhXhXhXhXhXhXhXhXhXhXhXhXhXhXhXhXhXhXhX",
"hXhXhXhXhXhXhXhXhXhXhXhXhXhXhXhXhXhXhXhXhXhXhXhXhXhXhXhXhXhXhXhXhXhXhXhXhXhXhXhXhXhXhXhXhXhXhXhXhXhXhXhXhXhXhXhXhXhXhXhXhXhXhXhXhXhX",
"hXhXhXhXhXhXhXhXhXhXhXhXhXhXhXhXhXhXhXhXhXhXhXhXhXhXhXhXhXhXhXhXhXhXhXhXhXhXhXhXhXhXhXhXhXhXhXhXhXhXhXhXhXhXhXhXhXhXhXhXhXhXhXhXhXhX",
"hXhXhXhXhXhXhXhXhXhXhXhXhXhXhXhXhXhXhXhXhXhXhXhXhXhXhXhXhXhXhXhXhXhXhXhXhXhXhXhXhXhXhXhXhXhXhXhXhXhXhXhXhXhXhXhXhXhXhXhXhXhXhXhXhXhX",
"hXhXhXhXhXhXhXhXhXhXhXhXhXhXhXhXhXhXhXhXhXhXhXhXhXhXhXhXhXhXhXhXhXhXhXhXhXhXhXhXhXhXhXhXhXhXhXhXhXhXhXhXhXhXhXhXhXhXhXhXhXhXhXhXhXhX",
"hXhXhXhXhXhXhXhXhXhXhXhXhXhXhXhXhXhXhXhXhXhXhXhXhXhXhXhXhXhXhXhXhXhXhXhXhXhXhXhXhXhXhXhXhXhXhXhXhXhXhXhXhXhXhXhXhXhXhXhXhXhXhXhXhXhX",
"hXhXhXhXhXhXhXhXhXhXhXhXhXhXhXhXhXhXhXhXhXhXhXhXhXhXhXhXhXhXhXhXhXhXhXhXhXhXhXhXhXhXhXhXhXhXhXhXhXhXhXhXhXhXhXhXhXhXhXhXhXhXhXhXhXhX",
"hXhXhXhXhXhXhXhXhXhXhXhXhXhXhXhXhXhXhXhXhXhXhXhXhXhXhXhX  = -.;.-.;.;.&.=   hXhXhXhXhXhXhXhXhXhXhXhXhXhXhXhXhXhXhXhXhXhXhXhXhXhXhXhX",
"hXhXhXhXhXhXhXhXhXhXhXhXhXhXhXhXhXhXhXhXhXhXhXhXhXhXhX  t X.2.3.3.@.3.2.X.t   hXhXhXhXhXhXhXhXhXhXhXhXhXhXhXhXhXhXhXhXhXhXhXhXhXhXhX",
"hXhXhXhXhXhXhXhXhXhXhXhXhXhXhXhXhXhXhXhXhXhXhXhXhXhX  % 1.0.0.0.0.0.0.0.0.1.%   hXhXhXhXhXhXhXhXhXhXhXhXhXhXhXhXhXhXhXhXhXhXhXhXhXhX",
"hXhXhXhXhXhXhXhXhXhXhXhXhXhXhXhXhXhXhXhXhXhXhXhXhX  y O.8.0.6.6.6.0.6.6.0.0.O.y   hXhXhXhXhXhXhXhXhXhXhXhXhXhXhXhXhXhXhXhXhXhXhXhXhX",
"hXhXhXhXhXhXhXhXhXhXhXhXhXhXhXhXhXhXhXhXhXhXhXhX. % O.8.6.9.9.9.8.8.8.9.8.8.8.O.o . hXhXhXhXhXhXhXhXhXhXhXhXhXhXhXhXhXhXhXhXhXhXhXhX",
"hXhXhXhXhXhXhXhXhXhXhXhXhXhXhXhXhXhXhXhXhXhXhX  & o.<.7.7.7.7.7.7.7.9.9.9.5.5.4.f *   hXhXhXhXhXhXhXhXhXhXhXhXhXhXhXhXhXhXhXhXhXhXhX",
"hXhXhXhXhXhXhXhXhXhXhXhXhXhXhXhXhXhXhXhXhXhXhX  * =.t.y.y.y.y.y.y.y.y.y.y.i.r.e.4.t   hXhXhXhXhXhXhXhXhXhXhXhXhXhXhXhXhXhXhXhXhXhXhX",
"hXhXhXhXhXhXhXhXhXhXhXhXhXhXhXhXhXhXhXhXhXhXhX  , ! V.D.D.S.F.F.F.F.F.F.D.B.d.,.0.p   hXhXhXhXhXhXhXhXhXhXhXhXhXhXhXhXhXhXhXhXhXhXhX",
"hXhXhXhXhXhXhXhXhXhXhXhXhXhXhXhXhXhXhXhXhXhX. 2 ! N.S.D.D.D.D.D.D.D.D.D.D.D.V.z.n.-.u   hXhXhXhXhXhXhXhXhXhXhXhXhXhXhXhXhXhXhXhXhXhX",
"hXhXhXhXhXhXhXhXhXhXhXhXhXhXhXhXhXhXhXhXhXx X ! P.D.F.G.F.D.F.D.S.A.A.B.B.Z.D.G.].h.f o w hXhXhXhXhXhXhXhXhXhXhXhXhXhXhXhXhXhXhXhXhX",
"hXhXhXhXhXhXhXhXhXhXhXhXhXhXhXhXhXhX{ E.{.A k j.D.D.L.'.A.D.D.D.D.L.c.f.! g.F.D.A.p.8 4 M =XE.{ hXhXhXhXhXhXhXhXhXhXhXhXhXhXhXhXhXhX",
"hXhXhXhXhXhXhXhXhXhXhXhXhXhXhXhXhXhXW E.6X..( F.D.P.l.L.A.D.D.H.L./.R.U...Y.z.Z.D.p.M | ;X6XE.W hXhXhXhXhXhXhXhXhXhXhXhXhXhXhXhXhXhX",
"hXhXhXhXhXhXhXhXhXhXhXhXhXhXhXhXhXhXc U.eX*Xf.Z.G._.K.D.D.D.D.L.(.{ U.-X;X{.[ z.S.s.U.6XaXrX| c hXhXhXhXhXhXhXhXhXhXhXhXhXhXhXhXhXhX",
"hXhXhXhXhXhXhXhXhXhXhXhXhXhXhXhXhXhXhXY U.=X}.E R Y.B.D.D.H.L./.Y.R.=X8X0X6X;X}.z.d.[.9X6X| M hXhXhXhXhXhXhXhXhXhXhXhXhXhXhXhXhXhXhX",
"hXhXhXhXhXhXhXhXhXhXhXhXhXhXhXhXhXhXhXhX9 [ W.Y v W z.H.H.K.(.! ' {.8XeXiXiXaX=X` c.'.~.` 9 hXhXhXhXhXhXhXhXhXhXhXhXhXhXhXhXhXhXhXhX",
"hXhXhXhXhXhXhXhXhXhXhXhXhXhXhXhXhXhXhXhXhX# j m.k.c d.|.|.'._.T v E.6XiXaXiX0XW.c j.N.j # hXhXhXhXhXhXhXhXhXhXhXhXhXhXhXhXhXhXhXhXhX",
"hXhXhXhXhXhXhXhXhXhXhXhXhXhXhXhXhXhXhXhXhX  & C.A.U w A d.)./.! [ =X9X8X:XR.S w U B.C.O   hXhXhXhXhXhXhXhXhXhXhXhXhXhXhXhXhXhXhXhXhX",
"hXhXhXhXhXhXhXhXhXhXhXhXhXhXhXhXhXhXhXhXhX  ; M.G.{ # . M I.] E.;X0X0X=X' 8   # { G.M.;   hXhXhXhXhXhXhXhXhXhXhXhXhXhXhXhXhXhXhXhXhX",
"hXhXhXhXhXhXhXhXhXhXhXhXhXhXhXhXhXhXhXhXhX  - l.x.Q  .$X.XD c } 8XiX-XY C .X$XS U x.l.-   hXhXhXhXhXhXhXhXhXhXhXhXhXhXhXhXhXhXhXhXhX",
"hXhXhXhXhXhXhXhXhXhXhXhXhXhXhXhXhXhXhXhXhXhX@ ' Q 8 5XgX+X X) R.6XiX}.)  X@XgXuXv / ] @   hXhXhXhXhXhXhXhXhXhXhXhXhXhXhXhXhXhXhXhXhX",
"hXhXhXhXhXhXhXhXhXhXhXhXhXhXhXhXhXhXhXhXhXhXhX+ O X >XgXoX@XuXrX9X0XeXuX@XXXdX4X{ 7 + hXhXhXhXhXhXhXhXhXhXhXhXhXhXhXhXhXhXhXhXhXhXhX",
"hXhXhXhXhXhXhXhXhXhXhXhXhXhXhXhXhXhXhXhXhXhXhX. .   S >XOXyXgXsXrXrXsXgXyXOX;XE.N O hXhXhXhXhXhXhXhXhXhXhXhXhXhXhXhXhXhXhXhXhXhXhXhX",
"hXhXhXhXhXhXhXhXhXhXhXhXhXhXhXhXhXhXhXhXhX  O 0 8   # Y [.6XeXeXrXrXrX0X7X{.Y.z   hXhXhXhXhXhXhXhXhXhXhXhXhXhXhXhXhXhXhXhXhXhXhXhXhX",
"hXhXhXhXhXhXhXhXhXhXhXhXhXhXhXhXhXhXhXhX  A W...Q.Q.n 0 T [.7XqXqX7X9X9X[.Q I $   hXhXhXhXhXhXhXhXhXhXhXhXhXhXhXhXhXhXhXhXhXhXhXhXhX",
"hXhXhXhXhXhXhXhXhXhXhXhXhXhXhXhXhXhXhXhX  %XsX0X3X2X^.2 6 V !.~.!.!.!.R.M 9 M 7 X hXhXhXhXhXhXhXhXhXhXhXhXhXhXhXhXhXhXhXhXhXhXhXhXhX",
"hXhXhXhXhXhXhXhXhXhXhXhXhXhXhXhXhXhXhXhX  %XfXsX&X< o o u #.:.:.:.:.g @ 4 W 2XQ.6 X   hXhXhXhXhXhXhXhXhXhXhXhXhXhXhXhXhXhXhXhXhXhXhX",
"hXhXhXhXhXhXhXhXhXhXhXhXhXhXhXhXhXhXhXhX  A $X$XZ   X - d %.&.$.$.$.a o . m 1XwX^.:   hXhXhXhXhXhXhXhXhXhXhXhXhXhXhXhXhXhXhXhXhXhXhX",
"hXhXhXhXhXhXhXhXhXhXhXhXhXhXhXhXhXhXhXhXhX          4 b *.&.-.-.&.-.$.d o + ,XwX1XB   hXhXhXhXhXhXhXhXhXhXhXhXhXhXhXhXhXhXhXhXhXhXhX",
"hXhXhXhXhXhXhXhXhXhXhXhXhXhXhXhXhXhXhXhXhXhXhXhX    h V b N b a.v.v.a.b 2 $ h $XtX3XS + hXhXhXhXhXhXhXhXhXhXhXhXhXhXhXhXhXhXhXhXhXhX",
"hXhXhXhXhXhXhXhXhXhXhXhXhXhXhXhXhXhXhXhXhXhXhXhXhX  X.>.l 9 c k.D.D.j.v n z   e 0XfX5X,   hXhXhXhXhXhXhXhXhXhXhXhXhXhXhXhXhXhXhXhXhX",
"hXhXhXhXhXhXhXhXhXhXhXhXhXhXhXhXhXhXhXhXhXhXhXhXhX  +.0.w.@.*.m.D.D.m.*.-.s   A aXsX*X,   hXhXhXhXhXhXhXhXhXhXhXhXhXhXhXhXhXhXhXhXhX",
"hXhXhXhXhXhXhXhXhXhXhXhXhXhXhXhXhXhXhXhXhXhXhXhXhX  i O.w.w.4.u.b.b.u.4.e.#.o , T.T.m X   hXhXhXhXhXhXhXhXhXhXhXhXhXhXhXhXhXhXhXhXhX",
"hXhXhXhXhXhXhXhXhXhXhXhXhXhXhXhXhXhXhXhXhXhXhXhXhXhX  o f e.0.6.0.0.6.0.e.f o             hXhXhXhXhXhXhXhXhXhXhXhXhXhXhXhXhXhXhXhXhX",
"hXhXhXhXhXhXhXhXhXhXhXhXhXhXhXhXhXhXhXhXhXhXhXhXhX  X q W *.i i y i i p u * o hXhXhXhXhXhXhXhXhXhXhXhXhXhXhXhXhXhXhXhXhXhXhXhXhXhXhX",
"hXhXhXhXhXhXhXhXhXhXhXhXhXhXhXhXhXhXhXhXhXhXhXhX. X 5 H _ w                 hXhXhXhXhXhXhXhXhXhXhXhXhXhXhXhXhXhXhXhXhXhXhXhXhXhXhXhX",
"hXhXhXhXhXhXhXhXhXhXhXhXhXhXhXhXhXhXhXhXhXhXhX  X q G J H 2   hXhXhXhXhXhXhXhXhXhXhXhXhXhXhXhXhXhXhXhXhXhXhXhXhXhXhXhXhXhXhXhXhXhXhX",
"hXhXhXhXhXhXhXhXhXhXhXhXhXhXhXhXhXhXhXhXhXhXhX  q G L L P 1   hXhXhXhXhXhXhXhXhXhXhXhXhXhXhXhXhXhXhXhXhXhXhXhXhXhXhXhXhXhXhXhXhXhXhX",
"hXhXhXhXhXhXhXhXhXhXhXhXhXhXhXhXhXhXhXhXhXhXhX  1 J K J L F . hXhXhXhXhXhXhXhXhXhXhXhXhXhXhXhXhXhXhXhXhXhXhXhXhXhXhXhXhXhXhXhXhXhXhX",
"hXhXhXhXhXhXhXhXhXhXhXhXhXhXhXhXhXhXhXhXhXhXhXhXX 1 3 1 3 $ hXhXhXhXhXhXhXhXhXhXhXhXhXhXhXhXhXhXhXhXhXhXhXhXhXhXhXhXhXhXhXhXhXhXhXhX",
"hXhXhXhXhXhXhXhXhXhXhXhXhXhXhXhXhXhXhXhXhXhXhXhXhX          hXhXhXhXhXhXhXhXhXhXhXhXhXhXhXhXhXhXhXhXhXhXhXhXhXhXhXhXhXhXhXhXhXhXhXhX",
"hXhXhXhXhXhXhXhXhXhXhXhXhXhXhXhXhXhXhXhXhXhXhXhXhXhXhXhXhXhXhXhXhXhXhXhXhXhXhXhXhXhXhXhXhXhXhXhXhXhXhXhXhXhXhXhXhXhXhXhXhXhXhXhXhXhX",
"hXhXhXhXhXhXhXhXhXhXhXhXhXhXhXhXhXhXhXhXhXhXhXhXhXhXhXhXhXhXhXhXhXhXhXhXhXhXhXhXhXhXhXhXhXhXhXhXhXhXhXhXhXhXhXhXhXhXhXhXhXhXhXhXhXhX",
"hXhXhXhXhXhXhXhXhXhXhXhXhXhXhXhXhXhXhXhXhXhXhXhXhXhXhXhXhXhXhXhXhXhXhXhXhXhXhXhXhXhXhXhXhXhXhXhXhXhXhXhXhXhXhXhXhXhXhXhXhXhXhXhXhXhX",
"hXhXhXhXhXhXhXhXhXhXhXhXhXhXhXhXhXhXhXhXhXhXhXhXhXhXhXhXhXhXhXhXhXhXhXhXhXhXhXhXhXhXhXhXhXhXhXhXhXhXhXhXhXhXhXhXhXhXhXhXhXhXhXhXhXhX",
"hXhXhXhXhXhXhXhXhXhXhXhXhXhXhXhXhXhXhXhXhXhXhXhXhXhXhXhXhXhXhXhXhXhXhXhXhXhXhXhXhXhXhXhXhXhXhXhXhXhXhXhXhXhXhXhXhXhXhXhXhXhXhXhXhXhX",
"hXhXhXhXhXhXhXhXhXhXhXhXhXhXhXhXhXhXhXhXhXhXhXhXhXhXhXhXhXhXhXhXhXhXhXhXhXhXhXhXhXhXhXhXhXhXhXhXhXhXhXhXhXhXhXhXhXhXhXhXhXhXhXhXhXhX",
"hXhXhXhXhXhXhXhXhXhXhXhXhXhXhXhXhXhXhXhXhXhXhXhXhXhXhXhXhXhXhXhXhXhXhXhXhXhXhXhXhXhXhXhXhXhXhXhXhXhXhXhXhXhXhXhXhXhXhXhXhXhXhXhXhXhX",
"hXhXhXhXhXhXhXhXhXhXhXhXhXhXhXhXhXhXhXhXhXhXhXhXhXhXhXhXhXhXhXhXhXhXhXhXhXhXhXhXhXhXhXhXhXhXhXhXhXhXhXhXhXhXhXhXhXhXhXhXhXhXhXhXhXhX",
"hXhXhXhXhXhXhXhXhXhXhXhXhXhXhXhXhXhXhXhXhXhXhXhXhXhXhXhXhXhXhXhXhXhXhXhXhXhXhXhXhXhXhXhXhXhXhXhXhXhXhXhXhXhXhXhXhXhXhXhXhXhXhXhXhXhX",
"hXhXhXhXhXhXhXhXhXhXhXhXhXhXhXhXhXhXhXhXhXhXhXhXhXhXhXhXhXhXhXhXhXhXhXhXhXhXhXhXhXhXhXhXhXhXhXhXhXhXhXhXhXhXhXhXhXhXhXhXhXhXhXhXhXhX",
"hXhXhXhXhXhXhXhXhXhXhXhXhXhXhXhXhXhXhXhXhXhXhXhXhXhXhXhXhXhXhXhXhXhXhXhXhXhXhXhXhXhXhXhXhXhXhXhXhXhXhXhXhXhXhXhXhXhXhXhXhXhXhXhXhXhX",
"hXhXhXhXhXhXhXhXhXhXhXhXhXhXhXhXhXhXhXhXhXhXhXhXhXhXhXhXhXhXhXhXhXhXhXhXhXhXhXhXhXhXhXhXhXhXhXhXhXhXhXhXhXhXhXhXhXhXhXhXhXhXhXhXhXhX",
"hXhXhXhXhXhXhXhXhXhXhXhXhXhXhXhXhXhXhXhXhXhXhXhXhXhXhXhXhXhXhXhXhXhXhXhXhXhXhXhXhXhXhXhXhXhXhXhXhXhXhXhXhXhXhXhXhXhXhXhXhXhXhXhXhXhX",
"hXhXhXhXhXhXhXhXhXhXhXhXhXhXhXhXhXhXhXhXhXhXhXhXhXhXhXhXhXhXhXhXhXhXhXhXhXhXhXhXhXhXhXhXhXhXhXhXhXhXhXhXhXhXhXhXhXhXhXhXhXhXhXhXhXhX",
"hXhXhXhXhXhXhXhXhXhXhXhXhXhXhXhXhXhXhXhXhXhXhXhXhXhXhXhXhXhXhXhXhXhXhXhXhXhXhXhXhXhXhXhXhXhXhXhXhXhXhXhXhXhXhXhXhXhXhXhXhXhXhXhXhXhX",
"hXhXhXhXhXhXhXhXhXhXhXhXhXhXhXhXhXhXhXhXhXhXhXhXhXhXhXhXhXhXhXhXhXhXhXhXhXhXhXhXhXhXhXhXhXhXhXhXhXhXhXhXhXhXhXhXhXhXhXhXhXhXhXhXhXhX"
};
