/* XPM */
static char *result[] = {
/* columns rows colors chars-per-pixel */
"66 72 228 2 ",
"   c #000001",
".  c #030A03",
"X  c #0C0503",
"o  c #170708",
"O  c #0B1806",
"+  c #16100B",
"@  c #260708",
"#  c #22160C",
"$  c #281B19",
"%  c #371409",
"&  c #172607",
"*  c #1B2811",
"=  c #193B10",
"-  c #032B0D",
";  c #2F3000",
":  c #332911",
">  c #3A332C",
",  c #441D05",
"<  c #590B15",
"1  c #591110",
"2  c #450E1A",
"3  c #620D17",
"4  c #483A18",
"5  c #563E18",
"6  c #4E2C15",
"7  c #663212",
"8  c #6A3215",
"9  c #590B21",
"0  c #593C35",
"q  c #4C382C",
"w  c #693E2B",
"e  c #0C4F11",
"r  c #006900",
"t  c #0D700C",
"y  c #29681B",
"u  c #2D7A1D",
"i  c #327D1E",
"p  c #225023",
"a  c #397524",
"s  c #245F20",
"d  c #424217",
"f  c #64441D",
"g  c #79451E",
"h  c #5A4831",
"j  c #6C4E28",
"k  c #724121",
"l  c #7C4D29",
"z  c #7D5535",
"x  c #625230",
"c  c #706930",
"v  c #556D2A",
"b  c #503C6F",
"n  c #735B48",
"m  c #756A4C",
"M  c #727154",
"N  c #64517B",
"B  c #851919",
"V  c #B41D2C",
"C  c #A02934",
"Z  c #D5282A",
"A  c #EC2B2B",
"S  c #F22C30",
"D  c #C7182D",
"F  c #874918",
"G  c #93671D",
"H  c #865A39",
"J  c #854C2F",
"K  c #986829",
"L  c #8D6437",
"P  c #956235",
"I  c #9D753C",
"U  c #916A24",
"Y  c #AD7B2F",
"T  c #AA7D13",
"R  c #886747",
"E  c #966C48",
"W  c #93724A",
"Q  c #A46C47",
"!  c #A27A41",
"~  c #A8794B",
"^  c #A67E5C",
"/  c #A57752",
"(  c #B76F48",
")  c #8B7B6E",
"_  c #A67B60",
"`  c #86564C",
"'  c #019905",
"]  c #009701",
"[  c #118A0B",
"{  c #358321",
"}  c #379023",
"|  c #3EA62E",
" . c #1AA81D",
".. c #53841F",
"X. c #61971E",
"o. c #6DBA0F",
"O. c #459A2A",
"+. c #489A3D",
"@. c #41A029",
"#. c #45AB2B",
"$. c #47B12C",
"%. c #55AB35",
"&. c #60AD32",
"*. c #23D415",
"=. c #28DB1C",
"-. c #29CB19",
";. c #03FE06",
":. c #00FA08",
">. c #0FFF08",
",. c #11FA0B",
"<. c #17FF05",
"1. c #10E311",
"2. c #38FF07",
"3. c #26F211",
"4. c #35DC22",
"5. c #15C518",
"6. c #46CD1A",
"7. c #79C20E",
"8. c #53FF04",
"9. c #62EF09",
"0. c #6BF905",
"q. c #309B41",
"w. c #6F874F",
"e. c #679462",
"r. c #9F8D1D",
"t. c #B69814",
"y. c #BFA716",
"u. c #B78536",
"i. c #B29730",
"p. c #91AE3F",
"a. c #AEB424",
"s. c #CBB20D",
"d. c #C3AD1D",
"f. c #CFB91E",
"g. c #C99F2A",
"h. c #C9AE2C",
"j. c #E5BE38",
"k. c #AAFF02",
"l. c #84C53B",
"z. c #95C409",
"x. c #CAC70B",
"c. c #D4D800",
"v. c #D4C514",
"b. c #E9DC0B",
"n. c #F0CE1A",
"m. c #D5F701",
"M. c #EBE506",
"N. c #FBEC09",
"B. c #FCFC00",
"V. c #F9F405",
"C. c #F7E817",
"Z. c #F1EE0F",
"A. c #CDC22D",
"S. c #ECD428",
"D. c #E7C934",
"F. c #F1D436",
"G. c #ECD228",
"H. c #F9E725",
"J. c #8C8F55",
"K. c #AA825D",
"L. c #B99457",
"P. c #BA8B4F",
"I. c #9DA65D",
"U. c #919570",
"Y. c #A88B69",
"T. c #B99665",
"R. c #B68C72",
"E. c #BA9574",
"W. c #B29166",
"Q. c #AFA773",
"!. c #B2AA76",
"~. c #A9B36D",
"^. c #83AD6C",
"/. c #C18C4E",
"(. c #C49546",
"). c #CC9756",
"_. c #D39E59",
"`. c #DBAF49",
"'. c #D8A850",
"]. c #ECB350",
"[. c #D39D77",
"{. c #C7A679",
"}. c #D1AC76",
"|. c #D9C273",
" X c #E6C96F",
".X c #2736BA",
"XX c #515AA3",
"oX c #3758FF",
"OX c #4A6AF9",
"+X c #4B75FF",
"@X c #798596",
"#X c #838F9F",
"$X c #9DA08A",
"%X c #CC9C83",
"&X c #CBAA83",
"*X c #CEB18A",
"=X c #D2B48B",
"-X c #D1B299",
";X c #BCD996",
":X c #9AE48B",
">X c #B8F8A0",
",X c #DDCE97",
"<X c #E7C79A",
"1X c #FED594",
"2X c #DEC5A6",
"3X c #E9CCA4",
"4X c #EAC8A4",
"5X c #EAD1A9",
"6X c #F6D3A8",
"7X c #F8D5B0",
"8X c #C9FFB2",
"9X c #DFE8A7",
"0X c #F8E0B8",
"qX c #FAE4B5",
"wX c #E9EFB7",
"eX c #EDF09E",
"rX c #8D91DB",
"tX c #B1BDFC",
"yX c #DDD7D6",
"uX c #D3FFC4",
"iX c #FEECC5",
"pX c #FFF0C7",
"aX c #FFF7D1",
"sX c #E3DFEA",
"dX c #FFFFE5",
"fX c #FBFFFD",
"gX c #EFE8EF",
"hX c #489848",
/* pixels */
"hXhXhXhXhXhXhXhXhXhXhXhXhXhXhXhXhXhXhXhXhXhXhXhXhXhXhXhXhXhXhXhXhXhXhXhXhXhXhXhXhXhXhXhXhXhXhXhXhXhXhXhXhXhXhXhXhXhXhXhXhXhXhXhXhXhX",
"hXhXhXhXhXhXhXhXhXhXhXhXhXhXhXhXhXhXhXhXhXhXhXhXhXhXhXhXhXhXhXhXhXhXhXhXhXhXhXhXhXhXhXhXhXhXhXhXhXhXhXhXhXhXhXhXhXhXhXhXhXhXhXhXhXhX",
"hXhXhXhXhXhXhXhXhXhXhXhXhXhXhXhXhXhXhXhXhXhXhXhXhXhXhXhXhXhXhXhXhXhXhXhXhXhXhXhXhXhXhXhXhXhXhXhXhXhXhXhXhXhXhXhXhXhXhXhXhXhXhXhXhXhX",
"hXhXhXhXhXhXhXhXhXhXhXhXhXhXhXhXhXhXhXhXhXhXhXhXhXhXhXhXhXhXhXhXhXhXhXhXhXhXhXhXhXhXhXhXhXhXhXhXhXhXhXhXhXhXhXhXhXhXhXhXhXhXhXhXhXhX",
"hXhXhXhXhXhXhXhXhXhXhXhXhXhXhXhXhXhXhXhXhXhXhXhXhXhXhXhXhXhXhXhXhXhXhXhXhXhXhXhXhXhXhXhXhXhXhXhXhXhXhXhXhXhXhXhXhXhXhXhXhXhXhXhXhXhX",
"hXhXhXhXhXhXhXhXhXhXhXhXhXhXhXhXhXhXhXhXhXhXhXhXhXhXhXhXhXhXhXhXhXhXhXhXhXhXhXhXhXhXhXhXhXhXhXhXhXhXhXhXhXhXhXhXhXhXhXhXhXhXhXhXhXhX",
"hXhXhXhXhXhXhXhXhXhXhXhXhXhXhXhXhXhXhXhXhXhXhXhXhXhXhXhXhXhXhXhXhXhXhXhXhXhXhXhXhXhXhXhXhXhXhXhXhXhXhXhXhXhXhXhXhXhXhXhXhXhXhXhXhXhX",
"hXhXhXhXhXhXhXhXhXhXhXhXhXhXhXhXhXhXhXhXhXhXhXhXhXhXhXhXhXhXhXhXhXhXhXhXhXhXhXhXhXhXhXhXhXhXhXhXhXhXhXhXhXhXhXhXhXhXhXhXhXhXhXhXhXhX",
"hXhXhXhXhXhXhXhXhXhXhXhXhXhXhXhXhXhXhXhXhXhXhXhXhXhXhXhXhXhXhXhXhXhXhXhXhXhXhXhXhXhXhXhXhXhXhXhXhXhXhXhXhXhXhXhXhXhXhXhXhXhXhXhXhXhX",
"hXhXhXhXhXhXhXhXhXhXhXhXhXhXhXhXhXhXhXhXhXhXhXhXhXhXhXhXhXhXhXhXhXhXhXhXhXhXhXhXhXhXhXhXhXhXhXhXhXhXhXhXhXhXhXhXhXhXhXhXhXhXhXhXhXhX",
"hXhXhXhXhXhXhXhXhXhXhXhXhXhXhXhXhXhXhXhXhXhXhXhXhXhXhXhXhXhXhXhXhXhXhXhXhXhXhXhXhXhXhXhXhXhXhXhXhXhXhXhXhXhXhXhXhXhXhXhXhXhXhXhXhXhX",
"hXhXhXhXhXhXhXhXhXhXhXhXhXhXhXhXhXhXhXhXhXhXhXhXhXhXhXhXhXhXhXhXhXhXhXhXhXhXhXhXhXhXhXhXhXhXhXhXhXhXhXhXhXhXhXhXhXhXhXhXhXhXhXhXhXhX",
"hXhXhXhXhXhXhXhXhXhXhXhXhXhXhXhXhXhXhXhXhXhXhXhXhXhXhXhXhXhXhXhXhXhXhXhXhXhXhXhXhXhXhXhXhXhXhXhXhXhXhXhXhXhXhXhXhXhXhXhXhXhXhXhXhXhX",
"hXhXhXhXhXhXhXhXhXhXhXhXhXhXhXhXhXhXhXhXhXhXhXhXhXhXhXhXhXhXhXhXhXhXhXhXhXhXhXhXhXhXhXhXhXhXhXhXhXhXhXhXhXhXhXhXhXhXhXhXhXhXhXhXhXhX",
"hXhXhXhXhXhXhXhXhXhXhXhXhXhXhXhXhXhXhXhXhXhXhXhXhXhXhXhXhXhXhXhXhXhXhXhXhXhXhXhXhXhXhXhXhXhXhXhXhXhXhXhXhXhXhXhXhXhXhXhXhXhXhXhXhXhX",
"hXhXhXhXhXhXhXhXhXhXhXhXhXhXhXhXhXhXhXhXhXhXhXhXhXhXhXhXhXhXhXhXhXhXhXhXhXhXhXhXhXhXhXhXhXhXhXhXhXhXhXhXhXhXhXhXhXhXhXhXhXhXhXhXhXhX",
"hXhXhXhXhXhXhXhXhXhXhXhXhXhXhXhXhXhXhXhXhXhXhXhXhXhXhXhX  e @.#.O.| #.| =   hXhXhXhXhXhXhXhXhXhXhXhXhXhXhXhXhXhXhXhXhXhXhXhXhXhXhXhX",
"hXhXhXhXhXhXhXhXhXhXhXhXhXhXhXhXhXhXhXhXhXhXhXhXhXhXhX  * y O.@.O.O.O.O.y *   hXhXhXhXhXhXhXhXhXhXhXhXhXhXhXhXhXhXhXhXhXhXhXhXhXhXhX",
"hXhXhXhXhXhXhXhXhXhXhXhXhXhXhXhXhXhXhXhXhXhXhXhXhXhX  O a $.O.@.| | O.@.$.{ O   hXhXhXhXhXhXhXhXhXhXhXhXhXhXhXhXhXhXhXhXhXhXhXhXhXhX",
"hXhXhXhXhXhXhXhXhXhXhXhXhXhXhXhXhXhXhXhXhXhXhXhXhX  * i -.3.*.*.*.*.*.*.3.-.i *   hXhXhXhXhXhXhXhXhXhXhXhXhXhXhXhXhXhXhXhXhXhXhXhXhX",
"hXhXhXhXhXhXhXhXhXhXhXhXhXhXhXhXhXhXhXhXhXhXhXhXX O i 4.,.;.;.;.;.;.;.;.;.,.4.i O . hXhXhXhXhXhXhXhXhXhXhXhXhXhXhXhXhXhXhXhXhXhXhXhX",
"hXhXhXhXhXhXhXhXhXhXhXhXhXhXhXhXhXhXhXhXhXhXhX  * a *.;.;.;.:.:.:.:.:.;.;.;.;.*.a * . hXhXhXhXhXhXhXhXhXhXhXhXhXhXhXhXhXhXhXhXhXhXhX",
"hXhXhXhXhXhXhXhXhXhXhXhXhXhXhXhXhXhXhXhXhXhXhX  e =.4.6.9.0.0.0.0.0.0.0.0.9.6.4.=.e   hXhXhXhXhXhXhXhXhXhXhXhXhXhXhXhXhXhXhXhXhXhXhX",
"hXhXhXhXhXhXhXhXhXhXhXhXhXhXhXhXhXhXhXhXhXhXhX  r 1.%.g.b.B.V.B.V.B.V.V.B.b.Y &.,.r   hXhXhXhXhXhXhXhXhXhXhXhXhXhXhXhXhXhXhXhXhXhXhX",
"hXhXhXhXhXhXhXhXhXhXhXhXhXhXhXhXhXhXhXhXhXhX  e } o.a.n.V.B.B.B.B.B.B.B.B.B.n.h.p.@.e   hXhXhXhXhXhXhXhXhXhXhXhXhXhXhXhXhXhXhXhXhXhX",
"hXhXhXhXhXhXhXhXhXhXhXhXhXhXhXhXhXhXhXhXhX0 O i w.( n.B.B.V.Z.N.V.V.B.B.M.M.B.C.j.I.u O 0 hXhXhXhXhXhXhXhXhXhXhXhXhXhXhXhXhXhXhXhXhX",
"hXhXhXhXhXhXhXhXhXhXhXhXhXhXhXhXhXhX! T.&XH , 5 L _.S.B.B.S.`.S.B.V.B.B.d.i.V.B.C.r.6 , H &XT.! hXhXhXhXhXhXhXhXhXhXhXhXhXhXhXhXhXhX",
"hXhXhXhXhXhXhXhXhXhXhXhXhXhXhXhXhXhXL T.4X&X/ J Y F.C.B.C.A.j.C.B.B.M.v.P.Y.d.M.B.t.J W *X5XW.L hXhXhXhXhXhXhXhXhXhXhXhXhXhXhXhXhXhX",
"hXhXhXhXhXhXhXhXhXhXhXhXhXhXhXhXhXhXw ^ qXpX4X^ y.V.B.C.`.D.V.B.B.B.v.! E.&X/ y.V.y.K.3XaX0X^ k hXhXhXhXhXhXhXhXhXhXhXhXhXhXhXhXhXhX",
"hXhXhXhXhXhXhXhXhXhXhXhXhXhXhXhXhXhXhXz K.5X4Xn U F.A.g.).D.B.B.B.B.v.E R.-X-X XF.u.^ 6X3X^ z hXhXhXhXhXhXhXhXhXhXhXhXhXhXhXhXhXhXhX",
"hXhXhXhXhXhXhXhXhXhXhXhXhXhXhXhXhXhXhXhX7 W Y.U K (.! ~ ).D.B.B.B.V.f.I E.4XiX<XP.i.P.W.R 8 hXhXhXhXhXhXhXhXhXhXhXhXhXhXhXhXhXhXhXhX",
"hXhXhXhXhXhXhXhXhXhXhXhXhXhXhXhXhXhXhXhXhX$ 4 x.s.J L P._.D.B.B.V.F.(.I =XpXqXR.l s.x.d $ hXhXhXhXhXhXhXhXhXhXhXhXhXhXhXhXhXhXhXhXhX",
"hXhXhXhXhXhXhXhXhXhXhXhXhXhXhXhXhXhXhXhXhX  & M.Z.l 6 f Y D.C.H.D.u.Q T.}.E.m w J M.M.&   hXhXhXhXhXhXhXhXhXhXhXhXhXhXhXhXhXhXhXhXhX",
"hXhXhXhXhXhXhXhXhXhXhXhXhXhXhXhXhXhXhXhXhX  ; c.C.! $ X z ).'.].(.g E &X/ 6   $ ! C.c.;   hXhXhXhXhXhXhXhXhXhXhXhXhXhXhXhXhXhXhXhXhX",
"hXhXhXhXhXhXhXhXhXhXhXhXhXhXhXhXhXhXhXhXhX  : i.g.J ) #XXXXXJ F L E.W.H b XX@X) H j.A.:   hXhXhXhXhXhXhXhXhXhXhXhXhXhXhXhXhXhXhXhXhX",
"hXhXhXhXhXhXhXhXhXhXhXhXhXhXhXhXhXhXhXhXhXhX+ h l k 6XfX+X.Xn k W 0X<XH .X+XfX4X7 K W #   hXhXhXhXhXhXhXhXhXhXhXhXhXhXhXhXhXhXhXhXhX",
"hXhXhXhXhXhXhXhXhXhXhXhXhXhXhXhXhXhXhXhXhXhXhX  % K 1XsXoXOXyX5X<XqXiXyXoXoXgX{.+ # $ hXhXhXhXhXhXhXhXhXhXhXhXhXhXhXhXhXhXhXhXhXhXhX",
"hXhXhXhXhXhXhXhXhXhXhXhXhXhXhXhXhXhXhXhXhXhXhX> m ~.|.-XrXtXfXaXiX0XaXfXtXrX2XI     hXhXhXhXhXhXhXhXhXhXhXhXhXhXhXhXhXhXhXhXhXhXhXhX",
"hXhXhXhXhXhXhXhXhXhXhXhXhXhXhXhXhXhXhXhXhX  $ Y.9X>XI.~ <XiX0X0X0X0X0X0XpX6XL.d   hXhXhXhXhXhXhXhXhXhXhXhXhXhXhXhXhXhXhXhXhXhXhXhXhX",
"hXhXhXhXhXhXhXhXhXhXhXhXhXhXhXhXhXhXhXhXhX  $ / eX8XI.g Q [.4X6X4X4X6X6X[.P F ,   hXhXhXhXhXhXhXhXhXhXhXhXhXhXhXhXhXhXhXhXhXhXhXhXhX",
"hXhXhXhXhXhXhXhXhXhXhXhXhXhXhXhXhXhXhXhXhX  + f I.:XJ.7 6 c Q.!.Q.!.!.Y.m k H 4   hXhXhXhXhXhXhXhXhXhXhXhXhXhXhXhXhXhXhXhXhXhXhXhXhX",
"hXhXhXhXhXhXhXhXhXhXhXhXhXhXhXhXhXhXhXhXhXhXhX+ p q.x f ..@.+.+.+.%.a $ e.,X;Xw.  hXhXhXhXhXhXhXhXhXhXhXhXhXhXhXhXhXhXhXhXhXhXhXhXhX",
"hXhXhXhXhXhXhXhXhXhXhXhXhXhXhXhXhXhXhXhXhXhXhXhX. - p c v X.7.7.o...O   e.uXuXe.# X hXhXhXhXhXhXhXhXhXhXhXhXhXhXhXhXhXhXhXhXhXhXhXhX",
"hXhXhXhXhXhXhXhXhXhXhXhXhXhXhXhXhXhXhXhXhXhXhXhXhX  u +.f T V.B.b.G @   e.8X8X~.w @   hXhXhXhXhXhXhXhXhXhXhXhXhXhXhXhXhXhXhXhXhXhXhX",
"hXhXhXhXhXhXhXhXhXhXhXhXhXhXhXhXhXhXhXhXhXhXhX  O e  .1. .z.B.B.N.o.t e e.iXwX,XP.:   hXhXhXhXhXhXhXhXhXhXhXhXhXhXhXhXhXhXhXhXhXhXhX",
"hXhXhXhXhXhXhXhXhXhXhXhXhXhXhXhXhXhXhXhXhXhXhX  - t 5.:.;.8.m.m.k.2.1.} M %X7XiX4Xh   hXhXhXhXhXhXhXhXhXhXhXhXhXhXhXhXhXhXhXhXhXhXhX",
"hXhXhXhXhXhXhXhXhXhXhXhXhXhXhXhXhXhXhXhXhXhXhXhX. O u 4.,.<.2.2.2.>.3.$.= 0 5XfXpXn   hXhXhXhXhXhXhXhXhXhXhXhXhXhXhXhXhXhXhXhXhXhXhX",
"hXhXhXhXhXhXhXhXhXhXhXhXhXhXhXhXhXhXhXhXhXhXhXhXhX  * y [ ' ' ' ] ' [ y     M $XU.q   hXhXhXhXhXhXhXhXhXhXhXhXhXhXhXhXhXhXhXhXhXhXhX",
"hXhXhXhXhXhXhXhXhXhXhXhXhXhXhXhXhXhXhXhXhXhXhXhXhX                                hXhXhXhXhXhXhXhXhXhXhXhXhXhXhXhXhXhXhXhXhXhXhXhXhX",
"hXhXhXhXhXhXhXhXhXhXhXhXhXhXhXhXhXhXhXhXhXhXhXhXhX  o 2 w 6     hXhXhXhXhXhXhXhXhXhXhXhXhXhXhXhXhXhXhXhXhXhXhXhXhXhXhXhXhXhXhXhXhXhX",
"hXhXhXhXhXhXhXhXhXhXhXhXhXhXhXhXhXhXhXhXhXhXhXhXhXo 3 C ( x   hXhXhXhXhXhXhXhXhXhXhXhXhXhXhXhXhXhXhXhXhXhXhXhXhXhXhXhXhXhXhXhXhXhXhX",
"hXhXhXhXhXhXhXhXhXhXhXhXhXhXhXhXhXhXhXhXhXhXhX  o 9 V Z C 2   hXhXhXhXhXhXhXhXhXhXhXhXhXhXhXhXhXhXhXhXhXhXhXhXhXhXhXhXhXhXhXhXhXhXhX",
"hXhXhXhXhXhXhXhXhXhXhXhXhXhXhXhXhXhXhXhXhXhXhX  2 V S S D 3   hXhXhXhXhXhXhXhXhXhXhXhXhXhXhXhXhXhXhXhXhXhXhXhXhXhXhXhXhXhXhXhXhXhXhX",
"hXhXhXhXhXhXhXhXhXhXhXhXhXhXhXhXhXhXhXhXhXhXhX  < Z A Z A B   hXhXhXhXhXhXhXhXhXhXhXhXhXhXhXhXhXhXhXhXhXhXhXhXhXhXhXhXhXhXhXhXhXhXhX",
"hXhXhXhXhXhXhXhXhXhXhXhXhXhXhXhXhXhXhXhXhXhXhXhX@ 1 1 1 3 % hXhXhXhXhXhXhXhXhXhXhXhXhXhXhXhXhXhXhXhXhXhXhXhXhXhXhXhXhXhXhXhXhXhXhXhX",
"hXhXhXhXhXhXhXhXhXhXhXhXhXhXhXhXhXhXhXhXhXhXhXhXhX          hXhXhXhXhXhXhXhXhXhXhXhXhXhXhXhXhXhXhXhXhXhXhXhXhXhXhXhXhXhXhXhXhXhXhXhX",
"hXhXhXhXhXhXhXhXhXhXhXhXhXhXhXhXhXhXhXhXhXhXhXhXhXhXhXhXhXhXhXhXhXhXhXhXhXhXhXhXhXhXhXhXhXhXhXhXhXhXhXhXhXhXhXhXhXhXhXhXhXhXhXhXhXhX",
"hXhXhXhXhXhXhXhXhXhXhXhXhXhXhXhXhXhXhXhXhXhXhXhXhXhXhXhXhXhXhXhXhXhXhXhXhXhXhXhXhXhXhXhXhXhXhXhXhXhXhXhXhXhXhXhXhXhXhXhXhXhXhXhXhXhX",
"hXhXhXhXhXhXhXhXhXhXhXhXhXhXhXhXhXhXhXhXhXhXhXhXhXhXhXhXhXhXhXhXhXhXhXhXhXhXhXhXhXhXhXhXhXhXhXhXhXhXhXhXhXhXhXhXhXhXhXhXhXhXhXhXhXhX",
"hXhXhXhXhXhXhXhXhXhXhXhXhXhXhXhXhXhXhXhXhXhXhXhXhXhXhXhXhXhXhXhXhXhXhXhXhXhXhXhXhXhXhXhXhXhXhXhXhXhXhXhXhXhXhXhXhXhXhXhXhXhXhXhXhXhX",
"hXhXhXhXhXhXhXhXhXhXhXhXhXhXhXhXhXhXhXhXhXhXhXhXhXhXhXhXhXhXhXhXhXhXhXhXhXhXhXhXhXhXhXhXhXhXhXhXhXhXhXhXhXhXhXhXhXhXhXhXhXhXhXhXhXhX",
"hXhXhXhXhXhXhXhXhXhXhXhXhXhXhXhXhXhXhXhXhXhXhXhXhXhXhXhXhXhXhXhXhXhXhXhXhXhXhXhXhXhXhXhXhXhXhXhXhXhXhXhXhXhXhXhXhXhXhXhXhXhXhXhXhXhX",
"hXhXhXhXhXhXhXhXhXhXhXhXhXhXhXhXhXhXhXhXhXhXhXhXhXhXhXhXhXhXhXhXhXhXhXhXhXhXhXhXhXhXhXhXhXhXhXhXhXhXhXhXhXhXhXhXhXhXhXhXhXhXhXhXhXhX",
"hXhXhXhXhXhXhXhXhXhXhXhXhXhXhXhXhXhXhXhXhXhXhXhXhXhXhXhXhXhXhXhXhXhXhXhXhXhXhXhXhXhXhXhXhXhXhXhXhXhXhXhXhXhXhXhXhXhXhXhXhXhXhXhXhXhX",
"hXhXhXhXhXhXhXhXhXhXhXhXhXhXhXhXhXhXhXhXhXhXhXhXhXhXhXhXhXhXhXhXhXhXhXhXhXhXhXhXhXhXhXhXhXhXhXhXhXhXhXhXhXhXhXhXhXhXhXhXhXhXhXhXhXhX",
"hXhXhXhXhXhXhXhXhXhXhXhXhXhXhXhXhXhXhXhXhXhXhXhXhXhXhXhXhXhXhXhXhXhXhXhXhXhXhXhXhXhXhXhXhXhXhXhXhXhXhXhXhXhXhXhXhXhXhXhXhXhXhXhXhXhX",
"hXhXhXhXhXhXhXhXhXhXhXhXhXhXhXhXhXhXhXhXhXhXhXhXhXhXhXhXhXhXhXhXhXhXhXhXhXhXhXhXhXhXhXhXhXhXhXhXhXhXhXhXhXhXhXhXhXhXhXhXhXhXhXhXhXhX",
"hXhXhXhXhXhXhXhXhXhXhXhXhXhXhXhXhXhXhXhXhXhXhXhXhXhXhXhXhXhXhXhXhXhXhXhXhXhXhXhXhXhXhXhXhXhXhXhXhXhXhXhXhXhXhXhXhXhXhXhXhXhXhXhXhXhX",
"hXhXhXhXhXhXhXhXhXhXhXhXhXhXhXhXhXhXhXhXhXhXhXhXhXhXhXhXhXhXhXhXhXhXhXhXhXhXhXhXhXhXhXhXhXhXhXhXhXhXhXhXhXhXhXhXhXhXhXhXhXhXhXhXhXhX",
"hXhXhXhXhXhXhXhXhXhXhXhXhXhXhXhXhXhXhXhXhXhXhXhXhXhXhXhXhXhXhXhXhXhXhXhXhXhXhXhXhXhXhXhXhXhXhXhXhXhXhXhXhXhXhXhXhXhXhXhXhXhXhXhXhXhX",
"hXhXhXhXhXhXhXhXhXhXhXhXhXhXhXhXhXhXhXhXhXhXhXhXhXhXhXhXhXhXhXhXhXhXhXhXhXhXhXhXhXhXhXhXhXhXhXhXhXhXhXhXhXhXhXhXhXhXhXhXhXhXhXhXhXhX",
"hXhXhXhXhXhXhXhXhXhXhXhXhXhXhXhXhXhXhXhXhXhXhXhXhXhXhXhXhXhXhXhXhXhXhXhXhXhXhXhXhXhXhXhXhXhXhXhXhXhXhXhXhXhXhXhXhXhXhXhXhXhXhXhXhXhX"
};
