/* XPM */
static char *result[] = {
/* columns rows colors chars-per-pixel */
"44 48 15 1 ",
"  c #000001",
". c #781028",
"X c #107828",
"o c #704020",
"O c #A07840",
"+ c #40A028",
"@ c #10F808",
"# c #F8F800",
"$ c #D8A850",
"% c #3050F8",
"& c #D0B088",
"* c #B8F8A0",
"= c #F8E0B8",
"- c #F8F8F8",
"; c #489848",
/* pixels */
";;;;;;;;;;;;;;;;;;  ++++  ;;;;;;;;;;;;;;;;;;",
";;;;;;;;;;;;;;;;;;  ++++  ;;;;;;;;;;;;;;;;;;",
";;;;;;;;;;;;;;    ++++++++    ;;;;;;;;;;;;;;",
";;;;;;;;;;;;;;    ++++++++    ;;;;;;;;;;;;;;",
";;;;;;;;;;;;  ++@@@@@@@@@@@@++  ;;;;;;;;;;;;",
";;;;;;;;;;;;  ++@@@@@@@@@@@@++  ;;;;;;;;;;;;",
";;;;;;;;;;;;  @@@@@@@@@@@@@@@@  ;;;;;;;;;;;;",
";;;;;;;;;;;;  @@@@@@@@@@@@@@@@  ;;;;;;;;;;;;",
";;;;;;;;;;  ++@@@@@@@@@@@@@@@@++  ;;;;;;;;;;",
";;;;;;;;;;  ++@@@@@@@@@@@@@@@@++  ;;;;;;;;;;",
";;;;;;;;;;  @@OO############OO@@  ;;;;;;;;;;",
";;;;;;;;;;  @@OO############OO@@  ;;;;;;;;;;",
";;;;;;;;  ++OO################$$++  ;;;;;;;;",
";;;;;;;;  ++OO################$$++  ;;;;;;;;",
";;;;OO&&oooo$$############OO####oooo&&OO;;;;",
";;;;OO&&oooo$$############OO####oooo&&OO;;;;",
";;;;oo====OO####$$######OO&&OO##OO====oo;;;;",
";;;;oo====OO####$$######OO&&OO##OO====oo;;;;",
";;;;;;oooo$$##$$$$######OO&&==$$OO&&oo;;;;;;",
";;;;;;oooo$$##$$$$######OO&&==$$OO&&oo;;;;;;",
";;;;;;  OOooOO$$OO$$####oo==&&oo##OO  ;;;;;;",
";;;;;;  OOooOO$$OO$$####oo==&&oo##OO  ;;;;;;",
";;;;;;  $$##OO  OO$$OOoo&&oo  OO##$$  ;;;;;;",
";;;;;;  $$##OO  OO$$OOoo&&oo  OO##$$  ;;;;;;",
";;;;;;;;  OOoo--%%oooo&&oo%%--oo$$  ;;;;;;;;",
";;;;;;;;  OOoo--%%oooo&&oo%%--oo$$  ;;;;;;;;",
";;;;;;;;;;  OO==%%--====--%%==OO  ;;;;;;;;;;",
";;;;;;;;;;  OO==%%--====--%%==OO  ;;;;;;;;;;",
";;;;;;;;  oo  OO============OO  ;;;;;;;;;;;;",
";;;;;;;;  oo  OO============OO  ;;;;;;;;;;;;",
";;;;;;  OO****oooo&&&&&&&&oooo  ;;;;;;;;;;;;",
";;;;;;  OO****oooo&&&&&&&&oooo  ;;;;;;;;;;;;",
";;;;;;  &&&&    XX++++++++XX**  ;;;;;;;;;;;;",
";;;;;;  &&&&    XX++++++++XX**  ;;;;;;;;;;;;",
";;;;;;;;      ++oooo####oooo****  ;;;;;;;;;;",
";;;;;;;;      ++oooo####oooo****  ;;;;;;;;;;",
";;;;;;;;;;  ++@@@@++####++  **====  ;;;;;;;;",
";;;;;;;;;;  ++@@@@++####++  **====  ;;;;;;;;",
";;;;;;;;;;    @@@@@@@@@@++++  &&==  ;;;;;;;;",
";;;;;;;;;;    @@@@@@@@@@++++  &&==  ;;;;;;;;",
";;;;;;;;;;  ..  ++@@@@@@@@XX      ;;;;;;;;;;",
";;;;;;;;;;  ..  ++@@@@@@@@XX      ;;;;;;;;;;",
";;;;;;;;;;;;                ;;;;;;;;;;;;;;;;",
";;;;;;;;;;;;                ;;;;;;;;;;;;;;;;",
";;;;;;;;;;;;;;;;;;;;;;;;;;;;;;;;;;;;;;;;;;;;",
";;;;;;;;;;;;;;;;;;;;;;;;;;;;;;;;;;;;;;;;;;;;",
";;;;;;;;;;;;;;;;;;;;;;;;;;;;;;;;;;;;;;;;;;;;",
";;;;;;;;;;;;;;;;;;;;;;;;;;;;;;;;;;;;;;;;;;;;"
};
