/* XPM */
static char *result[] = {
/* columns rows colors chars-per-pixel */
"66 72 221 2 ",
"   c #000001",
".  c #080905",
"X  c #130507",
"o  c #081507",
"O  c #191107",
"+  c #2B0607",
"@  c #391806",
"#  c #2E1411",
"$  c #032D02",
"%  c #092508",
"&  c #1D3513",
"*  c #193E12",
"=  c #152A13",
"-  c #25211C",
";  c #362712",
":  c #28340A",
">  c #141820",
",  c #1F242D",
"<  c #3B2926",
"1  c #39312B",
"2  c #2D2923",
"3  c #530915",
"4  c #46371C",
"5  c #492B0D",
"6  c #67371B",
"7  c #75380E",
"8  c #553A28",
"9  c #472F2D",
"0  c #6B3E29",
"q  c #602B20",
"w  c #6E0F25",
"e  c #015302",
"r  c #0F4B19",
"t  c #3F4D19",
"y  c #117610",
"u  c #2A6D1A",
"i  c #2B791C",
"p  c #3B6A1A",
"a  c #095F21",
"s  c #315A20",
"d  c #1D7626",
"f  c #367922",
"g  c #514F1A",
"h  c #764114",
"j  c #61731D",
"k  c #564B39",
"l  c #5C5234",
"z  c #4D4529",
"x  c #6D4721",
"c  c #734321",
"v  c #7A4B27",
"b  c #654534",
"n  c #6D5031",
"m  c #715131",
"M  c #556F2D",
"N  c #7E6034",
"B  c #5E4F40",
"V  c #695D51",
"C  c #557F4D",
"Z  c #803F1C",
"A  c #9C7D06",
"S  c #87582C",
"D  c #81583B",
"F  c #8B4D2A",
"G  c #8A6639",
"H  c #97673D",
"J  c #97712E",
"K  c #A87A31",
"L  c #895C45",
"P  c #905847",
"I  c #986D49",
"U  c #9A7749",
"Y  c #856B56",
"T  c #9D7257",
"R  c #986B53",
"E  c #A27941",
"W  c #AD7A44",
"Q  c #A67B55",
"!  c #9A7E70",
"~  c #C37752",
"^  c #118F0A",
"/  c #0C900C",
"(  c #0DBF08",
")  c #12BA0A",
"_  c #2CB01C",
"`  c #309429",
"'  c #3EA42B",
"]  c #278E1C",
"[  c #4D8D2A",
"{  c #40A028",
"}  c #47A92D",
"|  c #4ABD26",
" . c #72A52C",
".. c #70AA35",
"X. c #0DCB07",
"o. c #0AD304",
"O. c #1ADC0F",
"+. c #25D916",
"@. c #28CC1D",
"#. c #18E50C",
"$. c #02FF03",
"%. c #0DFD06",
"&. c #00FA09",
"*. c #06F80B",
"=. c #11FA08",
"-. c #1AFA0E",
";. c #1CF810",
":. c #18EF11",
">. c #27E117",
",. c #2AF416",
"<. c #24E80F",
"1. c #3EC32B",
"2. c #3CDD25",
"3. c #2FD02C",
"4. c #7DDF14",
"5. c #73E20F",
"6. c #2E9141",
"7. c #6A8350",
"8. c #6A9B60",
"9. c #B09211",
"0. c #89A60F",
"q. c #BDA41B",
"w. c #BAA501",
"e. c #808D34",
"r. c #B5972F",
"t. c #AB8339",
"y. c #B08B2B",
"u. c #8DAA35",
"i. c #BCA421",
"p. c #CAB91A",
"a. c #CDB907",
"s. c #DB8E35",
"d. c #C39F36",
"f. c #D29E34",
"g. c #C9AD35",
"h. c #CDAE33",
"j. c #EEBD3B",
"k. c #ABD909",
"l. c #9EF803",
"z. c #95E60C",
"x. c #A2FE03",
"c. c #D4C607",
"v. c #DFD609",
"b. c #D6C815",
"n. c #CAD111",
"m. c #EAD81D",
"M. c #E8D615",
"N. c #FBE50B",
"B. c #FCFC00",
"V. c #FBF705",
"C. c #FDF411",
"Z. c #F7EC14",
"A. c #DDCD29",
"S. c #F1DD24",
"D. c #E8CF2B",
"F. c #F3E122",
"G. c #858348",
"H. c #AF8553",
"J. c #91AC5E",
"K. c #869E61",
"L. c #AB8268",
"P. c #B58B65",
"I. c #B89562",
"U. c #BA9478",
"Y. c #A7977B",
"T. c #91AB65",
"R. c #84AD72",
"E. c #B0B14A",
"W. c #C99747",
"Q. c #C69356",
"!. c #D6A74E",
"~. c #D8B542",
"^. c #D8A654",
"/. c #E1AE5B",
"(. c #C69F7B",
"). c #CDA36B",
"_. c #A7CA7B",
"`. c #E7C044",
"'. c #F4C548",
"]. c #3C3485",
"[. c #4A438D",
"{. c #2C42D2",
"}. c #3B65FF",
"|. c #546BD6",
" X c #435CF0",
".X c #406BFF",
"XX c #6883FF",
"oX c #AF9C8A",
"OX c #BE9A85",
"+X c #B0B287",
"@X c #D0B18A",
"#X c #D9BC8D",
"$X c #D1B491",
"%X c #E6BE82",
"&X c #E4BA98",
"*X c #A6DA8C",
"=X c #ABEE97",
"-X c #B5E6A3",
";X c #F5D187",
":X c #E5C59B",
">X c #EAC984",
",X c #E8C7A3",
"<X c #EBD4AC",
"1X c #FADAAB",
"2X c #E7DDB5",
"3X c #F5DBB4",
"4X c #F8DAB1",
"5X c #D6FFB5",
"6X c #FAE8BB",
"7X c #F0E9B2",
"8X c #B8B3D0",
"9X c #B5C2D4",
"0X c #D8CCCF",
"qX c #DCFFC4",
"wX c #FFEDC3",
"eX c #FBF6C9",
"rX c #FFF7D2",
"tX c #D4D7F0",
"yX c #FFFDE6",
"uX c #F7FAFC",
"iX c #489848",
/* pixels */
"iXiXiXiXiXiXiXiXiXiXiXiXiXiXiXiXiXiXiXiXiXiXiXiXiXiXiXiXiXiXiXiXiXiXiXiXiXiXiXiXiXiXiXiXiXiXiXiXiXiXiXiXiXiXiXiXiXiXiXiXiXiXiXiXiXiX",
"iXiXiXiXiXiXiXiXiXiXiXiXiXiXiXiXiXiXiXiXiXiXiXiXiXiXiXiXiXiXiXiXiXiXiXiXiXiXiXiXiXiXiXiXiXiXiXiXiXiXiXiXiXiXiXiXiXiXiXiXiXiXiXiXiXiX",
"iXiXiXiXiXiXiXiXiXiXiXiXiXiXiXiXiXiXiXiXiXiXiXiXiXiXiXiXiXiXiXiXiXiXiXiXiXiXiXiXiXiXiXiXiXiXiXiXiXiXiXiXiXiXiXiXiXiXiXiXiXiXiXiXiXiX",
"iXiXiXiXiXiXiXiXiXiXiXiXiXiXiXiXiXiXiXiXiXiXiXiXiXiXiXiXiXiXiXiXiXiXiXiXiXiXiXiXiXiXiXiXiXiXiXiXiXiXiXiXiXiXiXiXiXiXiXiXiXiXiXiXiXiX",
"iXiXiXiXiXiXiXiXiXiXiXiXiXiXiXiXiXiXiXiXiXiXiXiXiXiXiXiXiXiXiXiXiXiXiXiXiXiXiXiXiXiXiXiXiXiXiXiXiXiXiXiXiXiXiXiXiXiXiXiXiXiXiXiXiXiX",
"iXiXiXiXiXiXiXiXiXiXiXiXiXiXiXiXiXiXiXiXiXiXiXiXiXiXiXiXiXiXiXiXiXiXiXiXiXiXiXiXiXiXiXiXiXiXiXiXiXiXiXiXiXiXiXiXiXiXiXiXiXiXiXiXiXiX",
"iXiXiXiXiXiXiXiXiXiXiXiXiXiXiXiXiXiXiXiXiXiXiXiXiXiXiXiXiXiXiXiXiXiXiXiXiXiXiXiXiXiXiXiXiXiXiXiXiXiXiXiXiXiXiXiXiXiXiXiXiXiXiXiXiXiX",
"iXiXiXiXiXiXiXiXiXiXiXiXiXiXiXiXiXiXiXiXiXiXiXiXiXiXiXiXiXiXiXiXiXiXiXiXiXiXiXiXiXiXiXiXiXiXiXiXiXiXiXiXiXiXiXiXiXiXiXiXiXiXiXiXiXiX",
"iXiXiXiXiXiXiXiXiXiXiXiXiXiXiXiXiXiXiXiXiXiXiXiXiXiXiXiXiXiXiXiXiXiXiXiXiXiXiXiXiXiXiXiXiXiXiXiXiXiXiXiXiXiXiXiXiXiXiXiXiXiXiXiXiXiX",
"iXiXiXiXiXiXiXiXiXiXiXiXiXiXiXiXiXiXiXiXiXiXiXiXiXiXiXiXiXiXiXiXiXiXiXiXiXiXiXiXiXiXiXiXiXiXiXiXiXiXiXiXiXiXiXiXiXiXiXiXiXiXiXiXiXiX",
"iXiXiXiXiXiXiXiXiXiXiXiXiXiXiXiXiXiXiXiXiXiXiXiXiXiXiXiXiXiXiXiXiXiXiXiXiXiXiXiXiXiXiXiXiXiXiXiXiXiXiXiXiXiXiXiXiXiXiXiXiXiXiXiXiXiX",
"iXiXiXiXiXiXiXiXiXiXiXiXiXiXiXiXiXiXiXiXiXiXiXiXiXiXiXiXiXiXiXiXiXiXiXiXiXiXiXiXiXiXiXiXiXiXiXiXiXiXiXiXiXiXiXiXiXiXiXiXiXiXiXiXiXiX",
"iXiXiXiXiXiXiXiXiXiXiXiXiXiXiXiXiXiXiXiXiXiXiXiXiXiXiXiXiXiXiXiXiXiXiXiXiXiXiXiXiXiXiXiXiXiXiXiXiXiXiXiXiXiXiXiXiXiXiXiXiXiXiXiXiXiX",
"iXiXiXiXiXiXiXiXiXiXiXiXiXiXiXiXiXiXiXiXiXiXiXiXiXiXiXiXiXiXiXiXiXiXiXiXiXiXiXiXiXiXiXiXiXiXiXiXiXiXiXiXiXiXiXiXiXiXiXiXiXiXiXiXiXiX",
"iXiXiXiXiXiXiXiXiXiXiXiXiXiXiXiXiXiXiXiXiXiXiXiXiXiXiXiXiXiXiXiXiXiXiXiXiXiXiXiXiXiXiXiXiXiXiXiXiXiXiXiXiXiXiXiXiXiXiXiXiXiXiXiXiXiX",
"iXiXiXiXiXiXiXiXiXiXiXiXiXiXiXiXiXiXiXiXiXiXiXiXiXiXiXiXiXiXiXiXiXiXiXiXiXiXiXiXiXiXiXiXiXiXiXiXiXiXiXiXiXiXiXiXiXiXiXiXiXiXiXiXiXiX",
"iXiXiXiXiXiXiXiXiXiXiXiXiXiXiXiXiXiXiXiXiXiXiXiXiXiXiXiXiXiXiXiXiXiXiXiXiXiXiXiXiXiXiXiXiXiXiXiXiXiXiXiXiXiXiXiXiXiXiXiXiXiXiXiXiXiX",
"iXiXiXiXiXiXiXiXiXiXiXiXiXiXiXiXiXiXiXiXiXiXiXiXiXiXiXiXiXiXiXiXiXiXiXiXiXiXiXiXiXiXiXiXiXiXiXiXiXiXiXiXiXiXiXiXiXiXiXiXiXiXiXiXiXiX",
"iXiXiXiXiXiXiXiXiXiXiXiXiXiXiXiXiXiXiXiXiXiXiXiXiXiXiXiXiX. & f } } f & . iXiXiXiXiXiXiXiXiXiXiXiXiXiXiXiXiXiXiXiXiXiXiXiXiXiXiXiXiX",
"iXiXiXiXiXiXiXiXiXiXiXiXiXiXiXiXiXiXiXiXiXiXiXiXiXiX      * { } { { } { *       iXiXiXiXiXiXiXiXiXiXiXiXiXiXiXiXiXiXiXiXiXiXiXiXiXiX",
"iXiXiXiXiXiXiXiXiXiXiXiXiXiXiXiXiXiXiXiXiXiXiXiXiX  & u ^ ( +.+.+.+.+.>.) ^ u &   iXiXiXiXiXiXiXiXiXiXiXiXiXiXiXiXiXiXiXiXiXiXiXiXiX",
"iXiXiXiXiXiXiXiXiXiXiXiXiXiXiXiXiXiXiXiXiXiXiXiXiX  u 2.-.%.%.%.%.%.%.%.%.-.2.u   iXiXiXiXiXiXiXiXiXiXiXiXiXiXiXiXiXiXiXiXiXiXiXiXiX",
"iXiXiXiXiXiXiXiXiXiXiXiXiXiXiXiXiXiXiXiXiXiXiXiXiX  ^ ;.=.%.=.=.=.=.%.%.=.=.:.^   iXiXiXiXiXiXiXiXiXiXiXiXiXiXiXiXiXiXiXiXiXiXiXiXiX",
"iXiXiXiXiXiXiXiXiXiXiXiXiXiXiXiXiXiXiXiXiXiXiXiXo & ( $.$.&.&.&.&.&.&.&.&.$.$.X.& o iXiXiXiXiXiXiXiXiXiXiXiXiXiXiXiXiXiXiXiXiXiXiXiX",
"iXiXiXiXiXiXiXiXiXiXiXiXiXiXiXiXiXiXiXiXiXiXiX  & { >.%.%.=.=.=.=.=.=.=.=.=.%.+.' &   iXiXiXiXiXiXiXiXiXiXiXiXiXiXiXiXiXiXiXiXiXiXiX",
"iXiXiXiXiXiXiXiXiXiXiXiXiXiXiXiXiXiXiXiXiXiXiX  e :.1. .z.l.l.l.l.l.x.x.x.z. ._ #.e   iXiXiXiXiXiXiXiXiXiXiXiXiXiXiXiXiXiXiXiXiXiXiX",
"iXiXiXiXiXiXiXiXiXiXiXiXiXiXiXiXiXiXiXiXiXiXiXo y <. .s.N.B.B.V.V.V.V.V.B.N.s.u.,.y o iXiXiXiXiXiXiXiXiXiXiXiXiXiXiXiXiXiXiXiXiXiXiX",
"iXiXiXiXiXiXiXiXiXiXiXiXiXiXiXiXiXiXiXiXiXiX  y [ e.p.C.V.B.B.V.V.V.V.V.B.B.Z.A.E...y   iXiXiXiXiXiXiXiXiXiXiXiXiXiXiXiXiXiXiXiXiXiX",
"iXiXiXiXiXiXiXiXiXiXiXiXiXiXiXiXiXiXiXiXiXb O p G.~ m.B.B.B.V.V.V.B.B.B.v.b.B.C.j.u.g O b iXiXiXiXiXiXiXiXiXiXiXiXiXiXiXiXiXiXiXiXiX",
"iXiXiXiXiXiXiXiXiXiXiXiXiXiXiXiXiXiXK I.@XR 6 6 H !.F.B.B.B.V.V.V.B.B.B.r.t.M.B.V.9.q 6 R @XI.K iXiXiXiXiXiXiXiXiXiXiXiXiXiXiXiXiXiX",
"iXiXiXiXiXiXiXiXiXiXiXiXiXiXiXiXiXiXS P.6X2X(.P y.m.V.V.D.A.B.B.V.B.v.g.I.I.r.c.B.w.P U.<X3XP.S iXiXiXiXiXiXiXiXiXiXiXiXiXiXiXiXiXiX",
"iXiXiXiXiXiXiXiXiXiXiXiXiXiXiXiXiXiX6 T ,X2X:XP.p.B.B.m.^.j.B.B.B.B.p.I U.$XL.h.Z.q.L.<XeX,XU 0 iXiXiXiXiXiXiXiXiXiXiXiXiXiXiXiXiXiX",
"iXiXiXiXiXiXiXiXiXiXiXiXiXiXiXiXiXiXiXiXH D H Q.S.B.m.^.^.D.B.B.B.B.b.K Y.$X<X;X~.t.Q $X@XH iXiXiXiXiXiXiXiXiXiXiXiXiXiXiXiXiXiXiXiX",
"iXiXiXiXiXiXiXiXiXiXiXiXiXiXiXiXiXiXiXiX@ 5 F I g.b.`.^.Q.g.m.V.B.B.a.N U.3XwX&XW 9.h.).L @ iXiXiXiXiXiXiXiXiXiXiXiXiXiXiXiXiXiXiXiX",
"iXiXiXiXiXiXiXiXiXiXiXiXiXiXiXiXiXiXiXiX  n t.v v E !.!.Q W ^.S.B.V.w.x OX6X:XT 0 a.C.d.8   iXiXiXiXiXiXiXiXiXiXiXiXiXiXiXiXiXiXiXiX",
"iXiXiXiXiXiXiXiXiXiXiXiXiXiXiXiXiXiXiXiX  G /.c.q.U 4 5 S W./.~.i.9.J L.Q.H < < G v.B.'.m   iXiXiXiXiXiXiXiXiXiXiXiXiXiXiXiXiXiXiXiX",
"iXiXiXiXiXiXiXiXiXiXiXiXiXiXiXiXiXiXiXiX  n ~.Z.M.H < , V P.W.K m 0 R (.Y 9 > 1 H m.Z.~.n   iXiXiXiXiXiXiXiXiXiXiXiXiXiXiXiXiXiXiXiX",
"iXiXiXiXiXiXiXiXiXiXiXiXiXiXiXiXiXiXiXiXiXO 4 r.K c oX9X|.[.7 7 v P.H.c ].|.8XoXv f.~.g O iXiXiXiXiXiXiXiXiXiXiXiXiXiXiXiXiXiXiXiXiX",
"iXiXiXiXiXiXiXiXiXiXiXiXiXiXiXiXiXiXiXiXiXiX  < 0 S 6XuX}.{.! R P.,X>X! {..XuX6XS S n   iXiXiXiXiXiXiXiXiXiXiXiXiXiXiXiXiXiXiXiXiXiX",
"iXiXiXiXiXiXiXiXiXiXiXiXiXiXiXiXiXiXiXiXiXiXiX  ; K ;X0X XXXuXrX4X4XeXuX.X X0X;XE ;   iXiXiXiXiXiXiXiXiXiXiXiXiXiXiXiXiXiXiXiXiXiXiX",
"iXiXiXiXiXiXiXiXiXiXiXiXiXiXiXiXiXiXiXiXiXiX  + + ; G @X8XtXyXrXwXwXeXyXtX8X@XJ 4 . iXiXiXiXiXiXiXiXiXiXiXiXiXiXiXiXiXiXiXiXiXiXiXiX",
"iXiXiXiXiXiXiXiXiXiXiXiXiXiXiXiXiXiXiXiXiXX ; N l > g W %X1X1X4X3X3X4X<X1X%XH.5   iXiXiXiXiXiXiXiXiXiXiXiXiXiXiXiXiXiXiXiXiXiXiXiXiX",
"iXiXiXiXiXiXiXiXiXiXiXiXiXiXiXiXiXiXiXiX. 4 G._.*X*XG.c F P.&X:X&X&X&X&XL.F h @   iXiXiXiXiXiXiXiXiXiXiXiXiXiXiXiXiXiXiXiXiXiXiXiXiX",
"iXiXiXiXiXiXiXiXiXiXiXiXiXiXiXiXiXiXiXiX  Y /.7X5XR.l @ : M J.T.K.K.T.T.M g G.l   iXiXiXiXiXiXiXiXiXiXiXiXiXiXiXiXiXiXiXiXiXiXiXiXiX",
"iXiXiXiXiXiXiXiXiXiXiXiXiXiXiXiXiXiXiXiX  Y :X:XY     o a ` ' } { { { { y 6.=XR.  iXiXiXiXiXiXiXiXiXiXiXiXiXiXiXiXiXiXiXiXiXiXiXiXiX",
"iXiXiXiXiXiXiXiXiXiXiXiXiXiXiXiXiXiXiXiXiX1 b l # . % s z z g 0.k.k.0.j g C =X-X8.= iXiXiXiXiXiXiXiXiXiXiXiXiXiXiXiXiXiXiXiXiXiXiXiX",
"iXiXiXiXiXiXiXiXiXiXiXiXiXiXiXiXiXiXiXiXiXiX      o ] | j x x a.B.B.a.x 3 m *XqX5X7.- iXiXiXiXiXiXiXiXiXiXiXiXiXiXiXiXiXiXiXiXiXiXiX",
"iXiXiXiXiXiXiXiXiXiXiXiXiXiXiXiXiXiXiXiXiXiXiX  & ` +.=.o._ M n.B.B.n.[ . - *XeXwX2XoX-   iXiXiXiXiXiXiXiXiXiXiXiXiXiXiXiXiXiXiXiXiX",
"iXiXiXiXiXiXiXiXiXiXiXiXiXiXiXiXiXiXiXiXiXiXiX  = i O.$.$.*.@.5.l.l.4.' r * C +X3XyX3X1   iXiXiXiXiXiXiXiXiXiXiXiXiXiXiXiXiXiXiXiXiX",
"iXiXiXiXiXiXiXiXiXiXiXiXiXiXiXiXiXiXiXiXiXiXiX      / =.=.-.=.=.=.&.+.' } ] . 9 @XrX$X2   iXiXiXiXiXiXiXiXiXiXiXiXiXiXiXiXiXiXiXiXiX",
"iXiXiXiXiXiXiXiXiXiXiXiXiXiXiXiXiXiXiXiXiXiXiX  + 3 : y _ ,.*.*.&.&.-.,.3.d   X 9 V B o iXiXiXiXiXiXiXiXiXiXiXiXiXiXiXiXiXiXiXiXiXiX",
"iXiXiXiXiXiXiXiXiXiXiXiXiXiXiXiXiXiXiXiXiXiXiX  + w +   s _ X.o.X.X.o.o./ r o         iXiXiXiXiXiXiXiXiXiXiXiXiXiXiXiXiXiXiXiXiXiXiX",
"iXiXiXiXiXiXiXiXiXiXiXiXiXiXiXiXiXiXiXiXiXiXiXiXX X X   o % % $ $ $ $ $ % . iXiXiXiXiXiXiXiXiXiXiXiXiXiXiXiXiXiXiXiXiXiXiXiXiXiXiXiX",
"iXiXiXiXiXiXiXiXiXiXiXiXiXiXiXiXiXiXiXiXiXiXiXiXiX                          iXiXiXiXiXiXiXiXiXiXiXiXiXiXiXiXiXiXiXiXiXiXiXiXiXiXiXiX",
"iXiXiXiXiXiXiXiXiXiXiXiXiXiXiXiXiXiXiXiXiXiXiXiXiX                          iXiXiXiXiXiXiXiXiXiXiXiXiXiXiXiXiXiXiXiXiXiXiXiXiXiXiXiX",
"iXiXiXiXiXiXiXiXiXiXiXiXiXiXiXiXiXiXiXiXiXiXiXiXiXiXiXiXiXiXiXiXiXiXiXiXiXiXiXiXiXiXiXiXiXiXiXiXiXiXiXiXiXiXiXiXiXiXiXiXiXiXiXiXiXiX",
"iXiXiXiXiXiXiXiXiXiXiXiXiXiXiXiXiXiXiXiXiXiXiXiXiXiXiXiXiXiXiXiXiXiXiXiXiXiXiXiXiXiXiXiXiXiXiXiXiXiXiXiXiXiXiXiXiXiXiXiXiXiXiXiXiXiX",
"iXiXiXiXiXiXiXiXiXiXiXiXiXiXiXiXiXiXiXiXiXiXiXiXiXiXiXiXiXiXiXiXiXiXiXiXiXiXiXiXiXiXiXiXiXiXiXiXiXiXiXiXiXiXiXiXiXiXiXiXiXiXiXiXiXiX",
"iXiXiXiXiXiXiXiXiXiXiXiXiXiXiXiXiXiXiXiXiXiXiXiXiXiXiXiXiXiXiXiXiXiXiXiXiXiXiXiXiXiXiXiXiXiXiXiXiXiXiXiXiXiXiXiXiXiXiXiXiXiXiXiXiXiX",
"iXiXiXiXiXiXiXiXiXiXiXiXiXiXiXiXiXiXiXiXiXiXiXiXiXiXiXiXiXiXiXiXiXiXiXiXiXiXiXiXiXiXiXiXiXiXiXiXiXiXiXiXiXiXiXiXiXiXiXiXiXiXiXiXiXiX",
"iXiXiXiXiXiXiXiXiXiXiXiXiXiXiXiXiXiXiXiXiXiXiXiXiXiXiXiXiXiXiXiXiXiXiXiXiXiXiXiXiXiXiXiXiXiXiXiXiXiXiXiXiXiXiXiXiXiXiXiXiXiXiXiXiXiX",
"iXiXiXiXiXiXiXiXiXiXiXiXiXiXiXiXiXiXiXiXiXiXiXiXiXiXiXiXiXiXiXiXiXiXiXiXiXiXiXiXiXiXiXiXiXiXiXiXiXiXiXiXiXiXiXiXiXiXiXiXiXiXiXiXiXiX",
"iXiXiXiXiXiXiXiXiXiXiXiXiXiXiXiXiXiXiXiXiXiXiXiXiXiXiXiXiXiXiXiXiXiXiXiXiXiXiXiXiXiXiXiXiXiXiXiXiXiXiXiXiXiXiXiXiXiXiXiXiXiXiXiXiXiX",
"iXiXiXiXiXiXiXiXiXiXiXiXiXiXiXiXiXiXiXiXiXiXiXiXiXiXiXiXiXiXiXiXiXiXiXiXiXiXiXiXiXiXiXiXiXiXiXiXiXiXiXiXiXiXiXiXiXiXiXiXiXiXiXiXiXiX",
"iXiXiXiXiXiXiXiXiXiXiXiXiXiXiXiXiXiXiXiXiXiXiXiXiXiXiXiXiXiXiXiXiXiXiXiXiXiXiXiXiXiXiXiXiXiXiXiXiXiXiXiXiXiXiXiXiXiXiXiXiXiXiXiXiXiX",
"iXiXiXiXiXiXiXiXiXiXiXiXiXiXiXiXiXiXiXiXiXiXiXiXiXiXiXiXiXiXiXiXiXiXiXiXiXiXiXiXiXiXiXiXiXiXiXiXiXiXiXiXiXiXiXiXiXiXiXiXiXiXiXiXiXiX",
"iXiXiXiXiXiXiXiXiXiXiXiXiXiXiXiXiXiXiXiXiXiXiXiXiXiXiXiXiXiXiXiXiXiXiXiXiXiXiXiXiXiXiXiXiXiXiXiXiXiXiXiXiXiXiXiXiXiXiXiXiXiXiXiXiXiX",
"iXiXiXiXiXiXiXiXiXiXiXiXiXiXiXiXiXiXiXiXiXiXiXiXiXiXiXiXiXiXiXiXiXiXiXiXiXiXiXiXiXiXiXiXiXiXiXiXiXiXiXiXiXiXiXiXiXiXiXiXiXiXiXiXiXiX",
"iXiXiXiXiXiXiXiXiXiXiXiXiXiXiXiXiXiXiXiXiXiXiXiXiXiXiXiXiXiXiXiXiXiXiXiXiXiXiXiXiXiXiXiXiXiXiXiXiXiXiXiXiXiXiXiXiXiXiXiXiXiXiXiXiXiX",
"iXiXiXiXiXiXiXiXiXiXiXiXiXiXiXiXiXiXiXiXiXiXiXiXiXiXiXiXiXiXiXiXiXiXiXiXiXiXiXiXiXiXiXiXiXiXiXiXiXiXiXiXiXiXiXiXiXiXiXiXiXiXiXiXiXiX",
"iXiXiXiXiXiXiXiXiXiXiXiXiXiXiXiXiXiXiXiXiXiXiXiXiXiXiXiXiXiXiXiXiXiXiXiXiXiXiXiXiXiXiXiXiXiXiXiXiXiXiXiXiXiXiXiXiXiXiXiXiXiXiXiXiXiX",
"iXiXiXiXiXiXiXiXiXiXiXiXiXiXiXiXiXiXiXiXiXiXiXiXiXiXiXiXiXiXiXiXiXiXiXiXiXiXiXiXiXiXiXiXiXiXiXiXiXiXiXiXiXiXiXiXiXiXiXiXiXiXiXiXiXiX"
};
