/* XPM */
static char *result[] = {
/* columns rows colors chars-per-pixel */
"66 72 228 2 ",
"   c #000000",
".  c #060802",
"X  c #150707",
"o  c #091808",
"O  c #111608",
"+  c #1B1817",
"@  c #240B04",
"#  c #211A0F",
"$  c #21160B",
"%  c #281918",
"&  c #3B1408",
"*  c #132107",
"=  c #1A2810",
"-  c #1A3E14",
";  c #012A0E",
":  c #322D0B",
">  c #2A291A",
",  c #332D08",
"<  c #1D3B22",
"1  c #2C2E22",
"2  c #471D07",
"3  c #420D18",
"4  c #5B0716",
"5  c #591110",
"6  c #4A1D13",
"7  c #57381A",
"8  c #4E2E12",
"9  c #663212",
"0  c #590B21",
"q  c #5A3D36",
"w  c #4B3325",
"e  c #6B3725",
"r  c #621312",
"t  c #045507",
"y  c #125913",
"u  c #0C4C09",
"i  c #265818",
"p  c #036203",
"a  c #006900",
"s  c #2E6C1A",
"d  c #095F21",
"f  c #3B5A2F",
"g  c #397B24",
"h  c #107828",
"j  c #454210",
"k  c #7D6B01",
"l  c #555131",
"z  c #694425",
"x  c #704021",
"c  c #744B28",
"v  c #725426",
"b  c #7A5838",
"n  c #685C2A",
"m  c #6F682D",
"M  c #507B15",
"N  c #4A3568",
"B  c #715A48",
"V  c #527046",
"C  c #7A644C",
"Z  c #68774A",
"A  c #635074",
"S  c #851919",
"D  c #AE1A2D",
"F  c #962131",
"G  c #D42629",
"H  c #EC2B2B",
"J  c #F22C30",
"K  c #C7182D",
"L  c #88481F",
"P  c #89541B",
"I  c #875729",
"U  c #815838",
"Y  c #824238",
"T  c #93602B",
"R  c #8B6136",
"E  c #976732",
"W  c #9E7534",
"Q  c #A67835",
"!  c #A06D3E",
"~  c #825A41",
"^  c #8B6645",
"/  c #977340",
"(  c #8E6D48",
")  c #A37B42",
"_  c #A8794A",
"`  c #A47958",
"'  c #A86B42",
"]  c #857869",
"[  c #9F7E64",
"{  c #A57A68",
"}  c #B35444",
"|  c #1A9810",
" . c #308F1E",
".. c #269C1F",
"X. c #0FB508",
"o. c #11A609",
"O. c #2CA91A",
"+. c #2E9027",
"@. c #3FBB29",
"#. c #32A726",
"$. c #47A719",
"%. c #4A8E28",
"&. c #7B9A39",
"*. c #41A128",
"=. c #58A22F",
"-. c #48B32D",
";. c #5BA63A",
":. c #60AD32",
">. c #76A932",
",. c #1DDD11",
"<. c #20CA13",
"1. c #32CE1F",
"2. c #28DB1A",
"3. c #03FE04",
"4. c #0DFE06",
"5. c #00F909",
"6. c #0AF808",
"7. c #0BF708",
"8. c #10F908",
"9. c #10F305",
"0. c #1CF612",
"q. c #19E80B",
"w. c #24F716",
"e. c #35D323",
"r. c #36C028",
"t. c #4BC61D",
"y. c #63ED0A",
"u. c #6BF905",
"i. c #7AF412",
"p. c #758B60",
"a. c #9A891C",
"s. c #91A919",
"d. c #BCA41A",
"f. c #B8962A",
"g. c #BE833A",
"h. c #AB8834",
"j. c #BCA123",
"k. c #B3AE2F",
"l. c #B49010",
"z. c #C8B215",
"x. c #C39929",
"c. c #D5BA32",
"v. c #C8AA2F",
"b. c #E7BE38",
"n. c #E5B729",
"m. c #B7DB0F",
"M. c #A3FF03",
"N. c #84C53B",
"B. c #D7DB00",
"V. c #D1C911",
"C. c #E9DC0A",
"Z. c #E5D416",
"A. c #F2CC16",
"S. c #DBE900",
"D. c #F2EB09",
"F. c #F4F402",
"G. c #FFF700",
"H. c #FCFC00",
"J. c #FBF20F",
"K. c #F8E915",
"L. c #FCF311",
"P. c #ECE707",
"I. c #C0C12E",
"U. c #E5C734",
"Y. c #EAD22A",
"T. c #B99445",
"R. c #A7815C",
"E. c #B88D50",
"W. c #AA8868",
"Q. c #B38B69",
"!. c #B99566",
"~. c #BC9877",
"^. c #A9A663",
"/. c #B4A674",
"(. c #B3B06F",
"). c #93A963",
"_. c #CE9F50",
"`. c #DCAF4B",
"'. c #DDB541",
"]. c #DAA856",
"[. c #EAAD50",
"{. c #C7A779",
"}. c #D0AA6C",
"|. c #D19C77",
" X c #ACC97F",
".X c #EAC246",
"XX c #2432B6",
"oX c #5D69B0",
"OX c #464C98",
"+X c #3959FF",
"@X c #4973FF",
"#X c #4B68F5",
"$X c #7A8596",
"%X c #8894A3",
"&X c #C29E80",
"*X c #CBAA83",
"=X c #CEB187",
"-X c #D1B188",
";X c #D7B99A",
":X c #D0AC85",
">X c #D8BAA2",
",X c #97CC83",
"<X c #BFD397",
"1X c #B8F8A0",
"2X c #B4E795",
"3X c #C6D797",
"4X c #E3C598",
"5X c #C0E79F",
"6X c #DDC3A5",
"7X c #EACDA3",
"8X c #E8C8A5",
"9X c #F6D6AB",
"0X c #F5DDB5",
"qX c #EFCFA9",
"wX c #D3FFBA",
"eX c #F9E0B8",
"rX c #F9E1B6",
"tX c #E3EFBB",
"yX c #8F92DB",
"uX c #B1BEFC",
"iX c #DDD7D6",
"pX c #FFEDC5",
"aX c #F6E8C2",
"sX c #FFF5CD",
"dX c #FFFBD6",
"fX c #FBFFFD",
"gX c #F5F0EB",
"hX c None",
/* pixels */
"hXhXhXhXhXhXhXhXhXhXhXhXhXhXhXhXhXhXhXhXhXhXhXhXhXhXhXhXhXhXhXhXhXhXhXhXhXhXhXhXhXhXhXhXhXhXhXhXhXhXhXhXhXhXhXhXhXhXhXhXhXhXhXhXhXhX",
"hXhXhXhXhXhXhXhXhXhXhXhXhXhXhXhXhXhXhXhXhXhXhXhXhXhXhXhXhXhXhXhXhXhXhXhXhXhXhXhXhXhXhXhXhXhXhXhXhXhXhXhXhXhXhXhXhXhXhXhXhXhXhXhXhXhX",
"hXhXhXhXhXhXhXhXhXhXhXhXhXhXhXhXhXhXhXhXhXhXhXhXhXhXhXhXhXhXhXhXhXhXhXhXhXhXhXhXhXhXhXhXhXhXhXhXhXhXhXhXhXhXhXhXhXhXhXhXhXhXhXhXhXhX",
"hXhXhXhXhXhXhXhXhXhXhXhXhXhXhXhXhXhXhXhXhXhXhXhXhXhXhXhXhXhXhXhXhXhXhXhXhXhXhXhXhXhXhXhXhXhXhXhXhXhXhXhXhXhXhXhXhXhXhXhXhXhXhXhXhXhX",
"hXhXhXhXhXhXhXhXhXhXhXhXhXhXhXhXhXhXhXhXhXhXhXhXhXhXhXhXhXhXhXhXhXhXhXhXhXhXhXhXhXhXhXhXhXhXhXhXhXhXhXhXhXhXhXhXhXhXhXhXhXhXhXhXhXhX",
"hXhXhXhXhXhXhXhXhXhXhXhXhXhXhXhXhXhXhXhXhXhXhXhXhXhXhXhXhXhXhXhXhXhXhXhXhXhXhXhXhXhXhXhXhXhXhXhXhXhXhXhXhXhXhXhXhXhXhXhXhXhXhXhXhXhX",
"hXhXhXhXhXhXhXhXhXhXhXhXhXhXhXhXhXhXhXhXhXhXhXhXhXhXhXhXhXhXhXhXhXhXhXhXhXhXhXhXhXhXhXhXhXhXhXhXhXhXhXhXhXhXhXhXhXhXhXhXhXhXhXhXhXhX",
"hXhXhXhXhXhXhXhXhXhXhXhXhXhXhXhXhXhXhXhXhXhXhXhXhXhXhXhXhXhXhXhXhXhXhXhXhXhXhXhXhXhXhXhXhXhXhXhXhXhXhXhXhXhXhXhXhXhXhXhXhXhXhXhXhXhX",
"hXhXhXhXhXhXhXhXhXhXhXhXhXhXhXhXhXhXhXhXhXhXhXhXhXhXhXhXhXhXhXhXhXhXhXhXhXhXhXhXhXhXhXhXhXhXhXhXhXhXhXhXhXhXhXhXhXhXhXhXhXhXhXhXhXhX",
"hXhXhXhXhXhXhXhXhXhXhXhXhXhXhXhXhXhXhXhXhXhXhXhXhXhXhXhXhXhXhXhXhXhXhXhXhXhXhXhXhXhXhXhXhXhXhXhXhXhXhXhXhXhXhXhXhXhXhXhXhXhXhXhXhXhX",
"hXhXhXhXhXhXhXhXhXhXhXhXhXhXhXhXhXhXhXhXhXhXhXhXhXhXhXhXhXhXhXhXhXhXhXhXhXhXhXhXhXhXhXhXhXhXhXhXhXhXhXhXhXhXhXhXhXhXhXhXhXhXhXhXhXhX",
"hXhXhXhXhXhXhXhXhXhXhXhXhXhXhXhXhXhXhXhXhXhXhXhXhXhXhXhXhXhXhXhXhXhXhXhXhXhXhXhXhXhXhXhXhXhXhXhXhXhXhXhXhXhXhXhXhXhXhXhXhXhXhXhXhXhX",
"hXhXhXhXhXhXhXhXhXhXhXhXhXhXhXhXhXhXhXhXhXhXhXhXhXhXhXhXhXhXhXhXhXhXhXhXhXhXhXhXhXhXhXhXhXhXhXhXhXhXhXhXhXhXhXhXhXhXhXhXhXhXhXhXhXhX",
"hXhXhXhXhXhXhXhXhXhXhXhXhXhXhXhXhXhXhXhXhXhXhXhXhXhXhXhXhXhXhXhXhXhXhXhXhXhXhXhXhXhXhXhXhXhXhXhXhXhXhXhXhXhXhXhXhXhXhXhXhXhXhXhXhXhX",
"hXhXhXhXhXhXhXhXhXhXhXhXhXhXhXhXhXhXhXhXhXhXhXhXhXhXhXhXhXhXhXhXhXhXhXhXhXhXhXhXhXhXhXhXhXhXhXhXhXhXhXhXhXhXhXhXhXhXhXhXhXhXhXhXhXhX",
"hXhXhXhXhXhXhXhXhXhXhXhXhXhXhXhXhXhXhXhXhXhXhXhXhXhXhXhXhXhXhXhXhXhXhXhXhXhXhXhXhXhXhXhXhXhXhXhXhXhXhXhXhXhXhXhXhXhXhXhXhXhXhXhXhXhX",
"hXhXhXhXhXhXhXhXhXhXhXhXhXhXhXhXhXhXhXhXhXhXhXhXhXhXhXhXhXhX  i -.-.i   hXhXhXhXhXhXhXhXhXhXhXhXhXhXhXhXhXhXhXhXhXhXhXhXhXhXhXhXhXhX",
"hXhXhXhXhXhXhXhXhXhXhXhXhXhXhXhXhXhXhXhXhXhXhXhXhXhXhXhXhX .p | 1.1.| p  .hXhXhXhXhXhXhXhXhXhXhXhXhXhXhXhXhXhXhXhXhXhXhXhXhXhXhXhXhX",
"hXhXhXhXhXhXhXhXhXhXhXhXhXhXhXhXhXhXhXhXhXhXhXhXhXhX. o g e.8.4.8.8.4.8.e.g o   hXhXhXhXhXhXhXhXhXhXhXhXhXhXhXhXhXhXhXhXhXhXhXhXhXhX",
"hXhXhXhXhXhXhXhXhXhXhXhXhXhXhXhXhXhXhXhXhXhXhXhXhX  t o.<.0.8.4.4.8.4.8.0.<.o.t   hXhXhXhXhXhXhXhXhXhXhXhXhXhXhXhXhXhXhXhXhXhXhXhXhX",
"hXhXhXhXhXhXhXhXhXhXhXhXhXhXhXhXhXhXhXhXhXhXhXhX. O X.4.3.6.7.7.7.7.7.6.4.3.4.X.O . hXhXhXhXhXhXhXhXhXhXhXhXhXhXhXhXhXhXhXhXhXhXhXhX",
"hXhXhXhXhXhXhXhXhXhXhXhXhXhXhXhXhXhXhXhXhXhXhX  = g ,.3.3.5.5.5.5.5.5.5.5.5.3.,.g =   hXhXhXhXhXhXhXhXhXhXhXhXhXhXhXhXhXhXhXhXhXhXhX",
"hXhXhXhXhXhXhXhXhXhXhXhXhXhXhXhXhXhXhXhXhXhXhX  u 2.e.-.y.u.u.u.u.u.u.u.u.y.t.e.2.u   hXhXhXhXhXhXhXhXhXhXhXhXhXhXhXhXhXhXhXhXhXhXhX",
"hXhXhXhXhXhXhXhXhXhXhXhXhXhXhXhXhXhXhXhXhXhXhX  a 8.:.x.C.H.H.F.H.F.H.F.G.Z.x.:.8.a   hXhXhXhXhXhXhXhXhXhXhXhXhXhXhXhXhXhXhXhXhXhXhX",
"hXhXhXhXhXhXhXhXhXhXhXhXhXhXhXhXhXhXhXhXhXhX  t  .:.k.A.H.H.H.G.G.G.G.G.H.H.A.c.N.%.y . hXhXhXhXhXhXhXhXhXhXhXhXhXhXhXhXhXhXhXhXhXhX",
"hXhXhXhXhXhXhXhXhXhXhXhXhXhXhXhXhXhXhXhXhXq O g s._ A.G.J.K.F.H.H.F.H.H.P.P.H.K.[.N.g O q hXhXhXhXhXhXhXhXhXhXhXhXhXhXhXhXhXhXhXhXhX",
"hXhXhXhXhXhXhXhXhXhXhXhXhXhXhXhXhXhX) !.=XB 6 j a.C.G.F.'.U.F.H.F.H.H.H.d.f.F.H.K.k.b 8 ~ *X!.) hXhXhXhXhXhXhXhXhXhXhXhXhXhXhXhXhXhX",
"hXhXhXhXhXhXhXhXhXhXhXhXhXhXhXhXhXhXR !.7X=X` F l.H.L.Y.c.Y.H.H.H.H.F.V.T.R.j.C.H.Z.f.P Q.7X!.R hXhXhXhXhXhXhXhXhXhXhXhXhXhXhXhXhXhX",
"hXhXhXhXhXhXhXhXhXhXhXhXhXhXhXhXhXhXe R.rXsX8X{ d.H.U.`.K.H.H.H.H.H.V./ ~.*X` j.H.H.C.h.&XeXW.x hXhXhXhXhXhXhXhXhXhXhXhXhXhXhXhXhXhX",
"hXhXhXhXhXhXhXhXhXhXhXhXhXhXhXhXhXhXhXb R.7X9XQ.z.H.c.T.D.H.H.H.F.z.T.Q.;X0X>X}.v.j.v.`.}.` U hXhXhXhXhXhXhXhXhXhXhXhXhXhXhXhXhXhXhX",
"hXhXhXhXhXhXhXhXhXhXhXhXhXhXhXhXhXhXhXhX9 ( Q.^ j.K.f.W Z.L.D.L.Z.W { 4XeXpXsX=X^ E h._.E 9 hXhXhXhXhXhXhXhXhXhXhXhXhXhXhXhXhXhXhXhX",
"hXhXhXhXhXhXhXhXhXhXhXhXhXhXhXhXhXhXhXhXhX: % w Q .XQ I _.U.'..X'.W Q.0XsXsXeXW.9 z.V.j % hXhXhXhXhXhXhXhXhXhXhXhXhXhXhXhXhXhXhXhXhX",
"hXhXhXhXhXhXhXhXhXhXhXhXhXhXhXhXhXhXhXhXhX  o P x._ 8 & Q [.[._ / _ =X0X4XQ.C q I C.S.O . hXhXhXhXhXhXhXhXhXhXhXhXhXhXhXhXhXhXhXhXhX",
"hXhXhXhXhXhXhXhXhXhXhXhXhXhXhXhXhXhXhXhXhX  , B.Z.e X X b _.].T c ~.4X-X/ 8 . % _ K.B.,   hXhXhXhXhXhXhXhXhXhXhXhXhXhXhXhXhXhXhXhXhX",
"hXhXhXhXhXhXhXhXhXhXhXhXhXhXhXhXhXhXhXhXhX  , U.n.e ] %XoXA P T Q.qX{.I N OX$X] R b.c.:   hXhXhXhXhXhXhXhXhXhXhXhXhXhXhXhXhXhXhXhXhX",
"hXhXhXhXhXhXhXhXhXhXhXhXhXhXhXhXhXhXhXhXhX  # / E 9 6XfX@XXXC !.0XpX-X~ XX@XfX8X8 E / #   hXhXhXhXhXhXhXhXhXhXhXhXhXhXhXhXhXhXhXhXhX",
"hXhXhXhXhXhXhXhXhXhXhXhXhXhXhXhXhXhXhXhXhXhXhX# $ X {.gX+X#XiX0X9X0XeXiX#X+XgX~.  X % hXhXhXhXhXhXhXhXhXhXhXhXhXhXhXhXhXhXhXhXhXhXhX",
"hXhXhXhXhXhXhXhXhXhXhXhXhXhXhXhXhXhXhXhXhXhXhXhX    ( 6XyXuXfXdXeX0XdXfXuXyX>X^.f o   hXhXhXhXhXhXhXhXhXhXhXhXhXhXhXhXhXhXhXhXhXhXhX",
"hXhXhXhXhXhXhXhXhXhXhXhXhXhXhXhXhXhXhXhXhXhXhXhXhX  j !.qXpX0X0XeXeX0X0XpX7X_ (.1XV   hXhXhXhXhXhXhXhXhXhXhXhXhXhXhXhXhXhXhXhXhXhXhX",
"hXhXhXhXhXhXhXhXhXhXhXhXhXhXhXhXhXhXhXhXhXhXhXhXhX  2 I E |.9X9X8XqXqX8X|.! L ^.wX3XC + hXhXhXhXhXhXhXhXhXhXhXhXhXhXhXhXhXhXhXhXhXhX",
"hXhXhXhXhXhXhXhXhXhXhXhXhXhXhXhXhXhXhXhXhXhXhXhXhX  w b c R W.^././././.R 8 2 m ,X3X{ %   hXhXhXhXhXhXhXhXhXhXhXhXhXhXhXhXhXhXhXhXhX",
"hXhXhXhXhXhXhXhXhXhXhXhXhXhXhXhXhXhXhXhXhXhXhXhXhX  p.2X5Xp.+ f :.:.;.;.=.g O O < 1 % hXhXhXhXhXhXhXhXhXhXhXhXhXhXhXhXhXhXhXhXhXhXhX",
"hXhXhXhXhXhXhXhXhXhXhXhXhXhXhXhXhXhXhXhXhXhXhXhX. @ p.wX3XZ o t #.....#.r.+.: X     hXhXhXhXhXhXhXhXhXhXhXhXhXhXhXhXhXhXhXhXhXhXhXhX",
"hXhXhXhXhXhXhXhXhXhXhXhXhXhXhXhXhXhXhXhXhXhXhX  @ z 2X2XR i h +.*.*.*.*.#.%.v 6   hXhXhXhXhXhXhXhXhXhXhXhXhXhXhXhXhXhXhXhXhXhXhXhXhX",
"hXhXhXhXhXhXhXhXhXhXhXhXhXhXhXhXhXhXhXhXhXhXhX  l &XtX<Xw X l s.m.m.s.n z n $.O.s * hXhXhXhXhXhXhXhXhXhXhXhXhXhXhXhXhXhXhXhXhXhXhXhX",
"hXhXhXhXhXhXhXhXhXhXhXhXhXhXhXhXhXhXhXhXhXhXhX  B pXgX;X+   v V.H.H.z.z 9 M 6.0.-.-   hXhXhXhXhXhXhXhXhXhXhXhXhXhXhXhXhXhXhXhXhXhXhX",
"hXhXhXhXhXhXhXhXhXhXhXhXhXhXhXhXhXhXhXhXhXhXhX  q qXgXqX% . %.V.H.H.V.%.O.q.3.0.-.i   hXhXhXhXhXhXhXhXhXhXhXhXhXhXhXhXhXhXhXhXhXhXhX",
"hXhXhXhXhXhXhXhXhXhXhXhXhXhXhXhXhXhXhXhXhXhXhX  1 C /.Z < y @.i.M.M.i.2.3.3.0.O.i *   hXhXhXhXhXhXhXhXhXhXhXhXhXhXhXhXhXhXhXhXhXhXhX",
"hXhXhXhXhXhXhXhXhXhXhXhXhXhXhXhXhXhXhXhXhXhXhXhXhX    o d +.#.2.4.7.8.8.8.q.-.i   hXhXhXhXhXhXhXhXhXhXhXhXhXhXhXhXhXhXhXhXhXhXhXhXhX",
"hXhXhXhXhXhXhXhXhXhXhXhXhXhXhXhXhXhXhXhXhXhXhXhXhXhXhX  ; - - u p p p p $.>.n %   hXhXhXhXhXhXhXhXhXhXhXhXhXhXhXhXhXhXhXhXhXhXhXhXhX",
"hXhXhXhXhXhXhXhXhXhXhXhXhXhXhXhXhXhXhXhXhXhXhXhXhXhXhXhX                e } F 4 X hXhXhXhXhXhXhXhXhXhXhXhXhXhXhXhXhXhXhXhXhXhXhXhXhX",
"hXhXhXhXhXhXhXhXhXhXhXhXhXhXhXhXhXhXhXhXhXhXhXhXhXhXhXhXhXhXhXhXhXhXhX. 3 F G D 0 X   hXhXhXhXhXhXhXhXhXhXhXhXhXhXhXhXhXhXhXhXhXhXhX",
"hXhXhXhXhXhXhXhXhXhXhXhXhXhXhXhXhXhXhXhXhXhXhXhXhXhXhXhXhXhXhXhXhXhXhX  4 K J J D &   hXhXhXhXhXhXhXhXhXhXhXhXhXhXhXhXhXhXhXhXhXhXhX",
"hXhXhXhXhXhXhXhXhXhXhXhXhXhXhXhXhXhXhXhXhXhXhXhXhXhXhXhXhXhXhXhXhXhXhX  S J G H H 5   hXhXhXhXhXhXhXhXhXhXhXhXhXhXhXhXhXhXhXhXhXhXhX",
"hXhXhXhXhXhXhXhXhXhXhXhXhXhXhXhXhXhXhXhXhXhXhXhXhXhXhXhXhXhXhXhXhXhXhXhX& 0 5 5 4 @ hXhXhXhXhXhXhXhXhXhXhXhXhXhXhXhXhXhXhXhXhXhXhXhX",
"hXhXhXhXhXhXhXhXhXhXhXhXhXhXhXhXhXhXhXhXhXhXhXhXhXhXhXhXhXhXhXhXhXhXhXhX          hXhXhXhXhXhXhXhXhXhXhXhXhXhXhXhXhXhXhXhXhXhXhXhXhX",
"hXhXhXhXhXhXhXhXhXhXhXhXhXhXhXhXhXhXhXhXhXhXhXhXhXhXhXhXhXhXhXhXhXhXhXhXhXhXhXhXhXhXhXhXhXhXhXhXhXhXhXhXhXhXhXhXhXhXhXhXhXhXhXhXhXhX",
"hXhXhXhXhXhXhXhXhXhXhXhXhXhXhXhXhXhXhXhXhXhXhXhXhXhXhXhXhXhXhXhXhXhXhXhXhXhXhXhXhXhXhXhXhXhXhXhXhXhXhXhXhXhXhXhXhXhXhXhXhXhXhXhXhXhX",
"hXhXhXhXhXhXhXhXhXhXhXhXhXhXhXhXhXhXhXhXhXhXhXhXhXhXhXhXhXhXhXhXhXhXhXhXhXhXhXhXhXhXhXhXhXhXhXhXhXhXhXhXhXhXhXhXhXhXhXhXhXhXhXhXhXhX",
"hXhXhXhXhXhXhXhXhXhXhXhXhXhXhXhXhXhXhXhXhXhXhXhXhXhXhXhXhXhXhXhXhXhXhXhXhXhXhXhXhXhXhXhXhXhXhXhXhXhXhXhXhXhXhXhXhXhXhXhXhXhXhXhXhXhX",
"hXhXhXhXhXhXhXhXhXhXhXhXhXhXhXhXhXhXhXhXhXhXhXhXhXhXhXhXhXhXhXhXhXhXhXhXhXhXhXhXhXhXhXhXhXhXhXhXhXhXhXhXhXhXhXhXhXhXhXhXhXhXhXhXhXhX",
"hXhXhXhXhXhXhXhXhXhXhXhXhXhXhXhXhXhXhXhXhXhXhXhXhXhXhXhXhXhXhXhXhXhXhXhXhXhXhXhXhXhXhXhXhXhXhXhXhXhXhXhXhXhXhXhXhXhXhXhXhXhXhXhXhXhX",
"hXhXhXhXhXhXhXhXhXhXhXhXhXhXhXhXhXhXhXhXhXhXhXhXhXhXhXhXhXhXhXhXhXhXhXhXhXhXhXhXhXhXhXhXhXhXhXhXhXhXhXhXhXhXhXhXhXhXhXhXhXhXhXhXhXhX",
"hXhXhXhXhXhXhXhXhXhXhXhXhXhXhXhXhXhXhXhXhXhXhXhXhXhXhXhXhXhXhXhXhXhXhXhXhXhXhXhXhXhXhXhXhXhXhXhXhXhXhXhXhXhXhXhXhXhXhXhXhXhXhXhXhXhX",
"hXhXhXhXhXhXhXhXhXhXhXhXhXhXhXhXhXhXhXhXhXhXhXhXhXhXhXhXhXhXhXhXhXhXhXhXhXhXhXhXhXhXhXhXhXhXhXhXhXhXhXhXhXhXhXhXhXhXhXhXhXhXhXhXhXhX",
"hXhXhXhXhXhXhXhXhXhXhXhXhXhXhXhXhXhXhXhXhXhXhXhXhXhXhXhXhXhXhXhXhXhXhXhXhXhXhXhXhXhXhXhXhXhXhXhXhXhXhXhXhXhXhXhXhXhXhXhXhXhXhXhXhXhX",
"hXhXhXhXhXhXhXhXhXhXhXhXhXhXhXhXhXhXhXhXhXhXhXhXhXhXhXhXhXhXhXhXhXhXhXhXhXhXhXhXhXhXhXhXhXhXhXhXhXhXhXhXhXhXhXhXhXhXhXhXhXhXhXhXhXhX",
"hXhXhXhXhXhXhXhXhXhXhXhXhXhXhXhXhXhXhXhXhXhXhXhXhXhXhXhXhXhXhXhXhXhXhXhXhXhXhXhXhXhXhXhXhXhXhXhXhXhXhXhXhXhXhXhXhXhXhXhXhXhXhXhXhXhX",
"hXhXhXhXhXhXhXhXhXhXhXhXhXhXhXhXhXhXhXhXhXhXhXhXhXhXhXhXhXhXhXhXhXhXhXhXhXhXhXhXhXhXhXhXhXhXhXhXhXhXhXhXhXhXhXhXhXhXhXhXhXhXhXhXhXhX",
"hXhXhXhXhXhXhXhXhXhXhXhXhXhXhXhXhXhXhXhXhXhXhXhXhXhXhXhXhXhXhXhXhXhXhXhXhXhXhXhXhXhXhXhXhXhXhXhXhXhXhXhXhXhXhXhXhXhXhXhXhXhXhXhXhXhX",
"hXhXhXhXhXhXhXhXhXhXhXhXhXhXhXhXhXhXhXhXhXhXhXhXhXhXhXhXhXhXhXhXhXhXhXhXhXhXhXhXhXhXhXhXhXhXhXhXhXhXhXhXhXhXhXhXhXhXhXhXhXhXhXhXhXhX",
"hXhXhXhXhXhXhXhXhXhXhXhXhXhXhXhXhXhXhXhXhXhXhXhXhXhXhXhXhXhXhXhXhXhXhXhXhXhXhXhXhXhXhXhXhXhXhXhXhXhXhXhXhXhXhXhXhXhXhXhXhXhXhXhXhXhX"
};
