/* XPM */
static char *result[] = {
/* columns rows colors chars-per-pixel */
"66 72 221 2 ",
"   c #000001",
".  c #090804",
"X  c #130507",
"o  c #081507",
"O  c #191107",
"+  c #290309",
"@  c #391806",
"#  c #2E1313",
"$  c #032D02",
"%  c #092508",
"&  c #1D3513",
"*  c #193E12",
"=  c #152B10",
"-  c #25211C",
";  c #2F2D0E",
":  c #141820",
">  c #1F242D",
",  c #3A2827",
"<  c #3A322C",
"1  c #2A2E22",
"2  c #530915",
"3  c #462712",
"4  c #41321E",
"5  c #4A2B0B",
"6  c #67371B",
"7  c #73350E",
"8  c #553A28",
"9  c #472F2D",
"0  c #602B20",
"q  c #6E0F25",
"w  c #015302",
"e  c #0F4B19",
"r  c #3F4D19",
"t  c #117610",
"y  c #2A6D1A",
"u  c #2B791C",
"i  c #3B6A1A",
"p  c #095F21",
"a  c #315A20",
"s  c #1D7626",
"d  c #367922",
"f  c #54441C",
"g  c #505219",
"h  c #764114",
"j  c #61731D",
"k  c #564B39",
"l  c #50482D",
"z  c #6C4722",
"x  c #734321",
"c  c #794A26",
"v  c #6A522D",
"b  c #654733",
"n  c #764934",
"m  c #695132",
"M  c #795538",
"N  c #556F2D",
"B  c #7E6034",
"V  c #5E4F40",
"C  c #695D51",
"Z  c #557F4D",
"A  c #803F1C",
"S  c #987801",
"D  c #86572C",
"F  c #84593B",
"G  c #8B4D2A",
"H  c #95673C",
"J  c #916B31",
"K  c #A6763C",
"L  c #925B46",
"P  c #835E46",
"I  c #996E4B",
"U  c #9A7648",
"Y  c #856A55",
"T  c #9D7258",
"R  c #A27941",
"E  c #AD7A43",
"W  c #A07659",
"Q  c #9A7E70",
"!  c #C37752",
"~  c #118F0A",
"^  c #0C900C",
"/  c #0DBF08",
"(  c #12BA0A",
")  c #2CB01C",
"_  c #309429",
"`  c #3EA42B",
"'  c #278E1C",
"]  c #4D8D2A",
"[  c #40A028",
"{  c #47A92D",
"}  c #4ABD26",
"|  c #72A52C",
" . c #70AA35",
".. c #0DCB07",
"X. c #0AD304",
"o. c #1ADC0F",
"O. c #25D916",
"+. c #28CC1D",
"@. c #18E50C",
"#. c #02FF03",
"$. c #0DFD06",
"%. c #00FA09",
"&. c #06F80B",
"*. c #11FA08",
"=. c #1AFA0E",
"-. c #1CF810",
";. c #18EF11",
":. c #27E117",
">. c #2AF416",
",. c #24E80F",
"<. c #3EC32B",
"1. c #3CDD25",
"2. c #2FD02C",
"3. c #7DDF14",
"4. c #73E20F",
"5. c #2E9141",
"6. c #6A8350",
"7. c #6A9B60",
"8. c #B09211",
"9. c #89A60F",
"0. c #BCA31B",
"q. c #BAA501",
"w. c #808D34",
"e. c #B5972F",
"r. c #AB8339",
"t. c #AC8726",
"y. c #8DAA35",
"u. c #BBA320",
"i. c #D1BB0B",
"p. c #CBBD1A",
"a. c #C6B40B",
"s. c #DB8E35",
"d. c #C39F3A",
"f. c #C9AD35",
"g. c #D6A135",
"h. c #CEB32D",
"j. c #EEBD3B",
"k. c #ABD909",
"l. c #9EF803",
"z. c #95E60C",
"x. c #A2FE03",
"c. c #DFD609",
"v. c #D6C815",
"b. c #CECF0B",
"n. c #EAD71E",
"m. c #E9D812",
"M. c #FBE50B",
"N. c #FCFC00",
"B. c #FBF705",
"V. c #F7EC13",
"C. c #FFF813",
"Z. c #DDCD29",
"A. c #F1DD20",
"S. c #E8CF2B",
"D. c #F3E122",
"F. c #868448",
"G. c #AD8457",
"H. c #91AC5E",
"J. c #869E61",
"K. c #AB8268",
"L. c #B58A66",
"P. c #B99364",
"I. c #BA9478",
"U. c #AB9873",
"Y. c #91AB65",
"T. c #84AD72",
"R. c #B0B14A",
"E. c #C99747",
"W. c #C59254",
"Q. c #D6A74E",
"!. c #DAB642",
"~. c #D8A654",
"^. c #E1AE5B",
"/. c #C79E6F",
"(. c #CCA36F",
"). c #A7CA7B",
"_. c #E9C144",
"`. c #F4C548",
"'. c #393182",
"]. c #4A438D",
"[. c #293ECD",
"{. c #3B65FF",
"}. c #2C43D5",
"|. c #536AD6",
" X c #455EF1",
".X c #416CFF",
"XX c #6883FF",
"oX c #B59A87",
"OX c #B3AA8A",
"+X c #D0B189",
"@X c #D6B893",
"#X c #CDB18F",
"$X c #E6BD82",
"%X c #E4BA98",
"&X c #A6DA8C",
"*X c #ACEF97",
"=X c #B6E6A3",
"-X c #DDC09B",
";X c #E7C69A",
":X c #F1CF86",
">X c #DDC6A0",
",X c #E8C7A3",
"<X c #ECD4AA",
"1X c #F9D9AB",
"2X c #E7DDB5",
"3X c #F5DBB4",
"4X c #F8DAB1",
"5X c #D6FFB5",
"6X c #FBE7BB",
"7X c #F0E9B1",
"8X c #B7B7D0",
"9X c #B6C3D5",
"0X c #DCFFC4",
"qX c #FFEDC3",
"wX c #FBF5C9",
"eX c #FFF7D2",
"rX c #D5D7F0",
"tX c #FFFDE6",
"yX c #F9FBFC",
"uX c #E0D2D2",
"iX c None",
/* pixels */
"iXiXiXiXiXiXiXiXiXiXiXiXiXiXiXiXiXiXiXiXiXiXiXiXiXiXiXiXiXiXiXiXiXiXiXiXiXiXiXiXiXiXiXiXiXiXiXiXiXiXiXiXiXiXiXiXiXiXiXiXiXiXiXiXiXiX",
"iXiXiXiXiXiXiXiXiXiXiXiXiXiXiXiXiXiXiXiXiXiXiXiXiXiXiXiXiXiXiXiXiXiXiXiXiXiXiXiXiXiXiXiXiXiXiXiXiXiXiXiXiXiXiXiXiXiXiXiXiXiXiXiXiXiX",
"iXiXiXiXiXiXiXiXiXiXiXiXiXiXiXiXiXiXiXiXiXiXiXiXiXiXiXiXiXiXiXiXiXiXiXiXiXiXiXiXiXiXiXiXiXiXiXiXiXiXiXiXiXiXiXiXiXiXiXiXiXiXiXiXiXiX",
"iXiXiXiXiXiXiXiXiXiXiXiXiXiXiXiXiXiXiXiXiXiXiXiXiXiXiXiXiXiXiXiXiXiXiXiXiXiXiXiXiXiXiXiXiXiXiXiXiXiXiXiXiXiXiXiXiXiXiXiXiXiXiXiXiXiX",
"iXiXiXiXiXiXiXiXiXiXiXiXiXiXiXiXiXiXiXiXiXiXiXiXiXiXiXiXiXiXiXiXiXiXiXiXiXiXiXiXiXiXiXiXiXiXiXiXiXiXiXiXiXiXiXiXiXiXiXiXiXiXiXiXiXiX",
"iXiXiXiXiXiXiXiXiXiXiXiXiXiXiXiXiXiXiXiXiXiXiXiXiXiXiXiXiXiXiXiXiXiXiXiXiXiXiXiXiXiXiXiXiXiXiXiXiXiXiXiXiXiXiXiXiXiXiXiXiXiXiXiXiXiX",
"iXiXiXiXiXiXiXiXiXiXiXiXiXiXiXiXiXiXiXiXiXiXiXiXiXiXiXiXiXiXiXiXiXiXiXiXiXiXiXiXiXiXiXiXiXiXiXiXiXiXiXiXiXiXiXiXiXiXiXiXiXiXiXiXiXiX",
"iXiXiXiXiXiXiXiXiXiXiXiXiXiXiXiXiXiXiXiXiXiXiXiXiXiXiXiXiXiXiXiXiXiXiXiXiXiXiXiXiXiXiXiXiXiXiXiXiXiXiXiXiXiXiXiXiXiXiXiXiXiXiXiXiXiX",
"iXiXiXiXiXiXiXiXiXiXiXiXiXiXiXiXiXiXiXiXiXiXiXiXiXiXiXiXiXiXiXiXiXiXiXiXiXiXiXiXiXiXiXiXiXiXiXiXiXiXiXiXiXiXiXiXiXiXiXiXiXiXiXiXiXiX",
"iXiXiXiXiXiXiXiXiXiXiXiXiXiXiXiXiXiXiXiXiXiXiXiXiXiXiXiXiXiXiXiXiXiXiXiXiXiXiXiXiXiXiXiXiXiXiXiXiXiXiXiXiXiXiXiXiXiXiXiXiXiXiXiXiXiX",
"iXiXiXiXiXiXiXiXiXiXiXiXiXiXiXiXiXiXiXiXiXiXiXiXiXiXiXiXiXiXiXiXiXiXiXiXiXiXiXiXiXiXiXiXiXiXiXiXiXiXiXiXiXiXiXiXiXiXiXiXiXiXiXiXiXiX",
"iXiXiXiXiXiXiXiXiXiXiXiXiXiXiXiXiXiXiXiXiXiXiXiXiXiXiXiXiXiXiXiXiXiXiXiXiXiXiXiXiXiXiXiXiXiXiXiXiXiXiXiXiXiXiXiXiXiXiXiXiXiXiXiXiXiX",
"iXiXiXiXiXiXiXiXiXiXiXiXiXiXiXiXiXiXiXiXiXiXiXiXiXiXiXiXiXiXiXiXiXiXiXiXiXiXiXiXiXiXiXiXiXiXiXiXiXiXiXiXiXiXiXiXiXiXiXiXiXiXiXiXiXiX",
"iXiXiXiXiXiXiXiXiXiXiXiXiXiXiXiXiXiXiXiXiXiXiXiXiXiXiXiXiXiXiXiXiXiXiXiXiXiXiXiXiXiXiXiXiXiXiXiXiXiXiXiXiXiXiXiXiXiXiXiXiXiXiXiXiXiX",
"iXiXiXiXiXiXiXiXiXiXiXiXiXiXiXiXiXiXiXiXiXiXiXiXiXiXiXiXiXiXiXiXiXiXiXiXiXiXiXiXiXiXiXiXiXiXiXiXiXiXiXiXiXiXiXiXiXiXiXiXiXiXiXiXiXiX",
"iXiXiXiXiXiXiXiXiXiXiXiXiXiXiXiXiXiXiXiXiXiXiXiXiXiXiXiXiXiXiXiXiXiXiXiXiXiXiXiXiXiXiXiXiXiXiXiXiXiXiXiXiXiXiXiXiXiXiXiXiXiXiXiXiXiX",
"iXiXiXiXiXiXiXiXiXiXiXiXiXiXiXiXiXiXiXiXiXiXiXiXiXiXiXiXiXiXiXiXiXiXiXiXiXiXiXiXiXiXiXiXiXiXiXiXiXiXiXiXiXiXiXiXiXiXiXiXiXiXiXiXiXiX",
"iXiXiXiXiXiXiXiXiXiXiXiXiXiXiXiXiXiXiXiXiXiXiXiXiXiXiXiXiXiXiXiXiXiXiXiXiXiXiXiXiXiXiXiXiXiXiXiXiXiXiXiXiXiXiXiXiXiXiXiXiXiXiXiXiXiX",
"iXiXiXiXiXiXiXiXiXiXiXiXiXiXiXiXiXiXiXiXiXiXiXiXiXiXiXiXiX. & d { { d & . iXiXiXiXiXiXiXiXiXiXiXiXiXiXiXiXiXiXiXiXiXiXiXiXiXiXiXiXiX",
"iXiXiXiXiXiXiXiXiXiXiXiXiXiXiXiXiXiXiXiXiXiXiXiXiXiX      * [ { [ [ { [ *       iXiXiXiXiXiXiXiXiXiXiXiXiXiXiXiXiXiXiXiXiXiXiXiXiXiX",
"iXiXiXiXiXiXiXiXiXiXiXiXiXiXiXiXiXiXiXiXiXiXiXiXiX  & y ~ / O.O.O.O.O.:.( ~ y &   iXiXiXiXiXiXiXiXiXiXiXiXiXiXiXiXiXiXiXiXiXiXiXiXiX",
"iXiXiXiXiXiXiXiXiXiXiXiXiXiXiXiXiXiXiXiXiXiXiXiXiX  y 1.=.$.$.$.$.$.$.$.$.=.1.y   iXiXiXiXiXiXiXiXiXiXiXiXiXiXiXiXiXiXiXiXiXiXiXiXiX",
"iXiXiXiXiXiXiXiXiXiXiXiXiXiXiXiXiXiXiXiXiXiXiXiXiX  ~ -.*.$.*.*.*.*.$.$.$.*.-.~   iXiXiXiXiXiXiXiXiXiXiXiXiXiXiXiXiXiXiXiXiXiXiXiXiX",
"iXiXiXiXiXiXiXiXiXiXiXiXiXiXiXiXiXiXiXiXiXiXiXiXo & / #.#.%.%.%.%.%.%.%.%.#.#./ & o iXiXiXiXiXiXiXiXiXiXiXiXiXiXiXiXiXiXiXiXiXiXiXiX",
"iXiXiXiXiXiXiXiXiXiXiXiXiXiXiXiXiXiXiXiXiXiXiX  * [ :.$.$.*.*.*.*.*.*.*.*.*.$.O.` &   iXiXiXiXiXiXiXiXiXiXiXiXiXiXiXiXiXiXiXiXiXiXiX",
"iXiXiXiXiXiXiXiXiXiXiXiXiXiXiXiXiXiXiXiXiXiXiX  w ;.<.| z.l.l.l.l.l.x.x.x.z.| ) ;.w   iXiXiXiXiXiXiXiXiXiXiXiXiXiXiXiXiXiXiXiXiXiXiX",
"iXiXiXiXiXiXiXiXiXiXiXiXiXiXiXiXiXiXiXiXiXiXiXo t ,.| s.M.N.N.N.B.B.B.B.N.M.s.y.>.t o iXiXiXiXiXiXiXiXiXiXiXiXiXiXiXiXiXiXiXiXiXiXiX",
"iXiXiXiXiXiXiXiXiXiXiXiXiXiXiXiXiXiXiXiXiXiX  t ] 6.v.M.B.N.B.B.B.B.B.B.N.N.V.Z.R. .t   iXiXiXiXiXiXiXiXiXiXiXiXiXiXiXiXiXiXiXiXiXiX",
"iXiXiXiXiXiXiXiXiXiXiXiXiXiXiXiXiXiXiXiXiXb O i w.! n.N.N.N.B.B.B.B.N.N.c.v.N.C.j.y.i + b iXiXiXiXiXiXiXiXiXiXiXiXiXiXiXiXiXiXiXiXiX",
"iXiXiXiXiXiXiXiXiXiXiXiXiXiXiXiXiXiXK P.+XI 6 6 J ^.D.N.N.N.B.B.B.N.N.B.e.r.m.N.B.8.0 0 I +XP.K iXiXiXiXiXiXiXiXiXiXiXiXiXiXiXiXiXiX",
"iXiXiXiXiXiXiXiXiXiXiXiXiXiXiXiXiXiXD P.3X3X+XL t.A.B.B.S.Z.N.N.N.N.m.h.P.P.e.b.N.0.L I.<X3XP.D iXiXiXiXiXiXiXiXiXiXiXiXiXiXiXiXiXiX",
"iXiXiXiXiXiXiXiXiXiXiXiXiXiXiXiXiXiX6 T ,X2X@XK.a.B.B.n.~.j.N.N.N.N.p.I I.+XQ h.V.0.K.<XwX,XW 6 iXiXiXiXiXiXiXiXiXiXiXiXiXiXiXiXiXiX",
"iXiXiXiXiXiXiXiXiXiXiXiXiXiXiXiXiXiXiXiXI H F I h.N.A.~.^.S.N.N.B.N.i.R L.@X,X:X!.r.W @X+XH iXiXiXiXiXiXiXiXiXiXiXiXiXiXiXiXiXiXiXiX",
"iXiXiXiXiXiXiXiXiXiXiXiXiXiXiXiXiXiXiXiX@ 5 x n t.v.!.~.W.f.n.M.N.N.b.D I.6XeX@XE 8.f.(.P @ iXiXiXiXiXiXiXiXiXiXiXiXiXiXiXiXiXiXiXiX",
"iXiXiXiXiXiXiXiXiXiXiXiXiXiXiXiXiXiXiXiX  v E G c R Q.Q.R E Q.A.N.N.q.z oX6X,XT 6 a.B.f.8   iXiXiXiXiXiXiXiXiXiXiXiXiXiXiXiXiXiXiXiX",
"iXiXiXiXiXiXiXiXiXiXiXiXiXiXiXiXiXiXiXiX  F !.v.0.R 4 5 J E.^.!.u.S J P.W.I 4 , H c.N.`.M   iXiXiXiXiXiXiXiXiXiXiXiXiXiXiXiXiXiXiXiX",
"iXiXiXiXiXiXiXiXiXiXiXiXiXiXiXiXiXiXiXiX  m !.C.n.H < > Y L.d.K C n T /.Y , : 9 I n.V.f.m   iXiXiXiXiXiXiXiXiXiXiXiXiXiXiXiXiXiXiXiX",
"iXiXiXiXiXiXiXiXiXiXiXiXiXiXiXiXiXiXiXiXiXO f !.g.c oX9X|.].7 7 G @X/.x '.|.8XoXD g.!.8 O iXiXiXiXiXiXiXiXiXiXiXiXiXiXiXiXiXiXiXiXiX",
"iXiXiXiXiXiXiXiXiXiXiXiXiXiXiXiXiXiXiXiXiXiX  m D B 3XyX.X}.Q I L.6X<XK.}..XyX,X3 z m   iXiXiXiXiXiXiXiXiXiXiXiXiXiXiXiXiXiXiXiXiXiX",
"iXiXiXiXiXiXiXiXiXiXiXiXiXiXiXiXiXiXiXiXiXiXiX  ; K :XuX X.XyXeX4X4XwXyXXX XuXU.      iXiXiXiXiXiXiXiXiXiXiXiXiXiXiXiXiXiXiXiXiXiXiX",
"iXiXiXiXiXiXiXiXiXiXiXiXiXiXiXiXiXiXiXiXiXiXiXiX. 4 U +X8XrXtXeXqX6XwXtXrX8X@Xc   . +   iXiXiXiXiXiXiXiXiXiXiXiXiXiXiXiXiXiXiXiXiXiX",
"iXiXiXiXiXiXiXiXiXiXiXiXiXiXiXiXiXiXiXiXiXiXiXiXiX  5 E :X1X1X4X3X3X4X1X6X^.G.f 1 m F ; O iXiXiXiXiXiXiXiXiXiXiXiXiXiXiXiXiXiXiXiXiX",
"iXiXiXiXiXiXiXiXiXiXiXiXiXiXiXiXiXiXiXiXiXiXiXiXiX  3 x G W %X,X%X%X%X%XL.G A F.*X=X).w.5   iXiXiXiXiXiXiXiXiXiXiXiXiXiXiXiXiXiXiXiX",
"iXiXiXiXiXiXiXiXiXiXiXiXiXiXiXiXiXiXiXiXiXiXiXiXiX  l F.r N H.Y.J.J.Y.Y.N ; @ k T.=X7X:XF   iXiXiXiXiXiXiXiXiXiXiXiXiXiXiXiXiXiXiXiX",
"iXiXiXiXiXiXiXiXiXiXiXiXiXiXiXiXiXiXiXiXiXiXiXiXiX  T.*X5.t ` ` [ [ [ [ _ p o     Y ;X;XY   iXiXiXiXiXiXiXiXiXiXiXiXiXiXiXiXiXiXiXiX",
"iXiXiXiXiXiXiXiXiXiXiXiXiXiXiXiXiXiXiXiXiXiXiXiX= 7.=X*X6.f g 9.k.k.9.g l l a %   - V m , iXiXiXiXiXiXiXiXiXiXiXiXiXiXiXiXiXiXiXiXiX",
"iXiXiXiXiXiXiXiXiXiXiXiXiXiXiXiXiXiXiXiXiXiXiX- 7.5X0X&Xv 2 z b.N.N.i.z 6 j } ' %       iXiXiXiXiXiXiXiXiXiXiXiXiXiXiXiXiXiXiXiXiXiX",
"iXiXiXiXiXiXiXiXiXiXiXiXiXiXiXiXiXiXiXiXiX  - U.2X7XwX&X- . ] b.N.N.v.] ) @.*.+._ &   iXiXiXiXiXiXiXiXiXiXiXiXiXiXiXiXiXiXiXiXiXiXiX",
"iXiXiXiXiXiXiXiXiXiXiXiXiXiXiXiXiXiXiXiXiX  < 3XtX4XOX6.* e ` 3.l.x.4.+.&.#.#.o.y =   iXiXiXiXiXiXiXiXiXiXiXiXiXiXiXiXiXiXiXiXiXiXiX",
"iXiXiXiXiXiXiXiXiXiXiXiXiXiXiXiXiXiXiXiXiX  > #XwX+X< . _ { ` +.$.*.*.*.*.$.*.^       iXiXiXiXiXiXiXiXiXiXiXiXiXiXiXiXiXiXiXiXiXiXiX",
"iXiXiXiXiXiXiXiXiXiXiXiXiXiXiXiXiXiXiXiXiXiXO V C l .   s 2.>.*.%.%.$.$.>.) t & 2 +   iXiXiXiXiXiXiXiXiXiXiXiXiXiXiXiXiXiXiXiXiXiXiX",
"iXiXiXiXiXiXiXiXiXiXiXiXiXiXiXiXiXiXiXiXiXiXiX        o e ^ X.X.....X...) a   + q +   iXiXiXiXiXiXiXiXiXiXiXiXiXiXiXiXiXiXiXiXiXiXiX",
"iXiXiXiXiXiXiXiXiXiXiXiXiXiXiXiXiXiXiXiXiXiXiXiXiXiXiXiX. % $ $ $ $ $ $ % o   X X X iXiXiXiXiXiXiXiXiXiXiXiXiXiXiXiXiXiXiXiXiXiXiXiX",
"iXiXiXiXiXiXiXiXiXiXiXiXiXiXiXiXiXiXiXiXiXiXiXiXiXiXiXiX                        . iXiXiXiXiXiXiXiXiXiXiXiXiXiXiXiXiXiXiXiXiXiXiXiXiX",
"iXiXiXiXiXiXiXiXiXiXiXiXiXiXiXiXiXiXiXiXiXiXiXiXiXiXiXiX                          iXiXiXiXiXiXiXiXiXiXiXiXiXiXiXiXiXiXiXiXiXiXiXiXiX",
"iXiXiXiXiXiXiXiXiXiXiXiXiXiXiXiXiXiXiXiXiXiXiXiXiXiXiXiXiXiXiXiXiXiXiXiXiXiXiXiXiXiXiXiXiXiXiXiXiXiXiXiXiXiXiXiXiXiXiXiXiXiXiXiXiXiX",
"iXiXiXiXiXiXiXiXiXiXiXiXiXiXiXiXiXiXiXiXiXiXiXiXiXiXiXiXiXiXiXiXiXiXiXiXiXiXiXiXiXiXiXiXiXiXiXiXiXiXiXiXiXiXiXiXiXiXiXiXiXiXiXiXiXiX",
"iXiXiXiXiXiXiXiXiXiXiXiXiXiXiXiXiXiXiXiXiXiXiXiXiXiXiXiXiXiXiXiXiXiXiXiXiXiXiXiXiXiXiXiXiXiXiXiXiXiXiXiXiXiXiXiXiXiXiXiXiXiXiXiXiXiX",
"iXiXiXiXiXiXiXiXiXiXiXiXiXiXiXiXiXiXiXiXiXiXiXiXiXiXiXiXiXiXiXiXiXiXiXiXiXiXiXiXiXiXiXiXiXiXiXiXiXiXiXiXiXiXiXiXiXiXiXiXiXiXiXiXiXiX",
"iXiXiXiXiXiXiXiXiXiXiXiXiXiXiXiXiXiXiXiXiXiXiXiXiXiXiXiXiXiXiXiXiXiXiXiXiXiXiXiXiXiXiXiXiXiXiXiXiXiXiXiXiXiXiXiXiXiXiXiXiXiXiXiXiXiX",
"iXiXiXiXiXiXiXiXiXiXiXiXiXiXiXiXiXiXiXiXiXiXiXiXiXiXiXiXiXiXiXiXiXiXiXiXiXiXiXiXiXiXiXiXiXiXiXiXiXiXiXiXiXiXiXiXiXiXiXiXiXiXiXiXiXiX",
"iXiXiXiXiXiXiXiXiXiXiXiXiXiXiXiXiXiXiXiXiXiXiXiXiXiXiXiXiXiXiXiXiXiXiXiXiXiXiXiXiXiXiXiXiXiXiXiXiXiXiXiXiXiXiXiXiXiXiXiXiXiXiXiXiXiX",
"iXiXiXiXiXiXiXiXiXiXiXiXiXiXiXiXiXiXiXiXiXiXiXiXiXiXiXiXiXiXiXiXiXiXiXiXiXiXiXiXiXiXiXiXiXiXiXiXiXiXiXiXiXiXiXiXiXiXiXiXiXiXiXiXiXiX",
"iXiXiXiXiXiXiXiXiXiXiXiXiXiXiXiXiXiXiXiXiXiXiXiXiXiXiXiXiXiXiXiXiXiXiXiXiXiXiXiXiXiXiXiXiXiXiXiXiXiXiXiXiXiXiXiXiXiXiXiXiXiXiXiXiXiX",
"iXiXiXiXiXiXiXiXiXiXiXiXiXiXiXiXiXiXiXiXiXiXiXiXiXiXiXiXiXiXiXiXiXiXiXiXiXiXiXiXiXiXiXiXiXiXiXiXiXiXiXiXiXiXiXiXiXiXiXiXiXiXiXiXiXiX",
"iXiXiXiXiXiXiXiXiXiXiXiXiXiXiXiXiXiXiXiXiXiXiXiXiXiXiXiXiXiXiXiXiXiXiXiXiXiXiXiXiXiXiXiXiXiXiXiXiXiXiXiXiXiXiXiXiXiXiXiXiXiXiXiXiXiX",
"iXiXiXiXiXiXiXiXiXiXiXiXiXiXiXiXiXiXiXiXiXiXiXiXiXiXiXiXiXiXiXiXiXiXiXiXiXiXiXiXiXiXiXiXiXiXiXiXiXiXiXiXiXiXiXiXiXiXiXiXiXiXiXiXiXiX",
"iXiXiXiXiXiXiXiXiXiXiXiXiXiXiXiXiXiXiXiXiXiXiXiXiXiXiXiXiXiXiXiXiXiXiXiXiXiXiXiXiXiXiXiXiXiXiXiXiXiXiXiXiXiXiXiXiXiXiXiXiXiXiXiXiXiX",
"iXiXiXiXiXiXiXiXiXiXiXiXiXiXiXiXiXiXiXiXiXiXiXiXiXiXiXiXiXiXiXiXiXiXiXiXiXiXiXiXiXiXiXiXiXiXiXiXiXiXiXiXiXiXiXiXiXiXiXiXiXiXiXiXiXiX",
"iXiXiXiXiXiXiXiXiXiXiXiXiXiXiXiXiXiXiXiXiXiXiXiXiXiXiXiXiXiXiXiXiXiXiXiXiXiXiXiXiXiXiXiXiXiXiXiXiXiXiXiXiXiXiXiXiXiXiXiXiXiXiXiXiXiX",
"iXiXiXiXiXiXiXiXiXiXiXiXiXiXiXiXiXiXiXiXiXiXiXiXiXiXiXiXiXiXiXiXiXiXiXiXiXiXiXiXiXiXiXiXiXiXiXiXiXiXiXiXiXiXiXiXiXiXiXiXiXiXiXiXiXiX",
"iXiXiXiXiXiXiXiXiXiXiXiXiXiXiXiXiXiXiXiXiXiXiXiXiXiXiXiXiXiXiXiXiXiXiXiXiXiXiXiXiXiXiXiXiXiXiXiXiXiXiXiXiXiXiXiXiXiXiXiXiXiXiXiXiXiX"
};
