/* XPM */
static char *result[] = {
/* columns rows colors chars-per-pixel */
"66 72 237 2 ",
"   c #000000",
".  c #0B0303",
"X  c #090B06",
"o  c #18090A",
"O  c #051905",
"+  c #161A14",
"@  c #19120E",
"#  c #260608",
"$  c #331309",
"%  c #231C15",
"&  c #30120A",
"*  c #042905",
"=  c #1B2416",
"-  c #193E10",
";  c #08390F",
":  c #26220A",
">  c #2C251C",
",  c #3A2918",
"<  c #223A16",
"1  c #343008",
"2  c #143E20",
"3  c #342C2F",
"4  c #480716",
"5  c #711515",
"6  c #462113",
"7  c #553114",
"8  c #6B3B1B",
"9  c #7D0A28",
"0  c #5D3923",
"q  c #49392F",
"w  c #683725",
"e  c #6F332C",
"r  c #184205",
"t  c #045703",
"y  c #134A0D",
"u  c #28470E",
"i  c #0C6F0E",
"p  c #2F671A",
"a  c #365A26",
"s  c #335431",
"d  c #0E7525",
"f  c #347C25",
"g  c #465E17",
"h  c #77461C",
"j  c #694A09",
"k  c #557C16",
"l  c #5B4324",
"z  c #4D4B38",
"x  c #6D4421",
"c  c #774628",
"v  c #775430",
"b  c #557126",
"n  c #4D6F29",
"m  c #696721",
"M  c #62762A",
"N  c #392E7C",
"B  c #492F47",
"V  c #584F47",
"C  c #72574F",
"Z  c #496D47",
"A  c #716E51",
"S  c #766570",
"D  c #881219",
"F  c #900A27",
"G  c #96281F",
"H  c #D11B2D",
"J  c #CF2E27",
"K  c #F82C2F",
"L  c #86511A",
"P  c #93751A",
"I  c #84562A",
"U  c #875A36",
"Y  c #915228",
"T  c #8D623B",
"R  c #946939",
"E  c #9D733D",
"W  c #956C24",
"Q  c #A87831",
"!  c #956A48",
"~  c #8C6D4F",
"^  c #A67A46",
"/  c #A27959",
"(  c #B67A54",
")  c #159817",
"_  c #2B8B1C",
"`  c #0BB309",
"'  c #28A51C",
"]  c #29BB18",
"[  c #3A8C24",
"{  c #3B8329",
"}  c #239921",
"|  c #399C29",
" . c #3AA729",
".. c #37B627",
"X. c #2FAA20",
"o. c #1E9E20",
"O. c #47A214",
"+. c #7AB31C",
"@. c #5A8D32",
"#. c #628821",
"$. c #738E37",
"%. c #42A129",
"&. c #46B22A",
"*. c #55AC33",
"=. c #6CAB2A",
"-. c #05CE07",
";. c #07DB06",
":. c #10D513",
">. c #29CA1A",
",. c #2CD416",
"<. c #18EA0B",
"1. c #02FF04",
"2. c #0CFD05",
"3. c #01F809",
"4. c #0AF909",
"5. c #13F40A",
"6. c #10FA08",
"7. c #15FF06",
"8. c #0FEF15",
"9. c #29EF12",
"0. c #1EC921",
"q. c #34D121",
"w. c #50D81C",
"e. c #4CF906",
"r. c #48FB07",
"t. c #4CFA0A",
"y. c #4DC92E",
"u. c #63D21A",
"i. c #709356",
"p. c #759566",
"a. c #5DB463",
"s. c #7AA96E",
"d. c #919D1F",
"f. c #AE8F12",
"g. c #B6AA13",
"h. c #8A8F38",
"j. c #BD8737",
"k. c #B08E2F",
"l. c #B4A824",
"z. c #CBB610",
"x. c #C1A927",
"c. c #CBB225",
"v. c #CFB130",
"b. c #E9B931",
"n. c #C18E38",
"m. c #85C21A",
"M. c #AAF508",
"N. c #B8D729",
"B. c #DBD502",
"V. c #D5CA10",
"C. c #E9D413",
"Z. c #C3F902",
"A. c #C6FA03",
"S. c #ECE805",
"D. c #F8E606",
"F. c #F6F403",
"G. c #FCF602",
"H. c #FCFC00",
"J. c #FCF309",
"K. c #F6E618",
"L. c #EEF30A",
"P. c #DECC23",
"I. c #E4CA2B",
"U. c #F4DA27",
"Y. c #E5C537",
"T. c #E8D324",
"R. c #F7E324",
"E. c #FFF423",
"W. c #AC8149",
"Q. c #B68B48",
"!. c #AB855C",
"~. c #B38958",
"^. c #B99559",
"/. c #85A656",
"(. c #91876A",
"). c #A88968",
"_. c #B38B6B",
"`. c #B99B75",
"'. c #B19272",
"]. c #BDA17D",
"[. c #A2B16D",
"{. c #A1A14C",
"}. c #CA954B",
"|. c #D6A94B",
" X c #D3AB49",
".X c #E5B94A",
"XX c #E9B14D",
"oX c #C29E79",
"OX c #C6A47B",
"+X c #D3A67C",
"@X c #CBA36A",
"#X c #E0B37C",
"$X c #8ACB77",
"%X c #F0C84A",
"&X c #2635BB",
"*X c #413981",
"=X c #1C45FF",
"-X c #2B55FF",
";X c #3E4FCB",
":X c #405DEE",
">X c #5065E5",
",X c #BCA98C",
"<X c #CAAA85",
"1X c #D4B48A",
"2X c #D9BC94",
"3X c #CDAF8D",
"4X c #E7BE98",
"5X c #D4BDAD",
"6X c #ADC38F",
"7X c #B0F29B",
"8X c #DEC29B",
"9X c #E7C795",
"0X c #E8CCA3",
"qX c #F3C8A8",
"wX c #E9D8B6",
"eX c #F5DCB4",
"rX c #F7DCB1",
"tX c #F1D4A7",
"yX c #C2F7A8",
"uX c #D7FFBA",
"iX c #FEE4B4",
"pX c #FCE5BA",
"aX c #E5F0B6",
"sX c #B1ACD1",
"dX c #869CFF",
"fX c #A5B3FF",
"gX c #869BCB",
"hX c #C1BDD8",
"jX c #BDC1C7",
"kX c #B0CAFF",
"lX c #FFECC6",
"zX c #FFFDD7",
"xX c #F6EDC4",
"cX c #DBDBED",
"vX c #FFFBE7",
"bX c #F7FAFF",
"nX c None",
/* pixels */
"nXnXnXnXnXnXnXnXnXnXnXnXnXnXnXnXnXnXnXnXnXnXnXnXnXnXnXnXnXnXnXnXnXnXnXnXnXnXnXnXnXnXnXnXnXnXnXnXnXnXnXnXnXnXnXnXnXnXnXnXnXnXnXnXnXnX",
"nXnXnXnXnXnXnXnXnXnXnXnXnXnXnXnXnXnXnXnXnXnXnXnXnXnXnXnXnXnXnXnXnXnXnXnXnXnXnXnXnXnXnXnXnXnXnXnXnXnXnXnXnXnXnXnXnXnXnXnXnXnXnXnXnXnX",
"nXnXnXnXnXnXnXnXnXnXnXnXnXnXnXnXnXnXnXnXnXnXnXnXnXnXnXnXnXnXnXnXnXnXnXnXnXnXnXnXnXnXnXnXnXnXnXnXnXnXnXnXnXnXnXnXnXnXnXnXnXnXnXnXnXnX",
"nXnXnXnXnXnXnXnXnXnXnXnXnXnXnXnXnXnXnXnXnXnXnXnXnXnXnXnXnXnXnXnXnXnXnXnXnXnXnXnXnXnXnXnXnXnXnXnXnXnXnXnXnXnXnXnXnXnXnXnXnXnXnXnXnXnX",
"nXnXnXnXnXnXnXnXnXnXnXnXnXnXnXnXnXnXnXnXnXnXnXnXnXnXnXnXnXnXnXnXnXnXnXnXnXnXnXnXnXnXnXnXnXnXnXnXnXnXnXnXnXnXnXnXnXnXnXnXnXnXnXnXnXnX",
"nXnXnXnXnXnXnXnXnXnXnXnXnXnXnXnXnXnXnXnXnXnXnXnXnXnXnXnXnXnXnXnXnXnXnXnXnXnXnXnXnXnXnXnXnXnXnXnXnXnXnXnXnXnXnXnXnXnXnXnXnXnXnXnXnXnX",
"nXnXnXnXnXnXnXnXnXnXnXnXnXnXnXnXnXnXnXnXnXnXnXnXnXnXnXnXnXnXnXnXnXnXnXnXnXnXnXnXnXnXnXnXnXnXnXnXnXnXnXnXnXnXnXnXnXnXnXnXnXnXnXnXnXnX",
"nXnXnXnXnXnXnXnXnXnXnXnXnXnXnXnXnXnXnXnXnXnXnXnXnXnXnXnXnXnXnXnXnXnXnXnXnXnXnXnXnXnXnXnXnXnXnXnXnXnXnXnXnXnXnXnXnXnXnXnXnXnXnXnXnXnX",
"nXnXnXnXnXnXnXnXnXnXnXnXnXnXnXnXnXnXnXnXnXnXnXnXnXnXnXnXnXnXnXnXnXnXnXnXnXnXnXnXnXnXnXnXnXnXnXnXnXnXnXnXnXnXnXnXnXnXnXnXnXnXnXnXnXnX",
"nXnXnXnXnXnXnXnXnXnXnXnXnXnXnXnXnXnXnXnXnXnXnXnXnXnXnXnXnXnXnXnXnXnXnXnXnXnXnXnXnXnXnXnXnXnXnXnXnXnXnXnXnXnXnXnXnXnXnXnXnXnXnXnXnXnX",
"nXnXnXnXnXnXnXnXnXnXnXnXnXnXnXnXnXnXnXnXnXnXnXnXnXnXnXnXnXnXnXnXnXnXnXnXnXnXnXnXnXnXnXnXnXnXnXnXnXnXnXnXnXnXnXnXnXnXnXnXnXnXnXnXnXnX",
"nXnXnXnXnXnXnXnXnXnXnXnXnXnXnXnXnXnXnXnXnXnXnXnXnXnXnX  - [ &.%.%.%.%.&.[ -   nXnXnXnXnXnXnXnXnXnXnXnXnXnXnXnXnXnXnXnXnXnXnXnXnXnXnX",
"nXnXnXnXnXnXnXnXnXnXnXnXnXnXnXnXnXnXnXnXnXnXnXnXnXnXnX  - [ &. . .%.%.&.[ r   nXnXnXnXnXnXnXnXnXnXnXnXnXnXnXnXnXnXnXnXnXnXnXnXnXnXnX",
"nXnXnXnXnXnXnXnXnXnXnXnXnXnXnXnXnXnXnXnXnXnXnXnXnXnX@ < f ] ,.,.>.>.>.,.] _ u @ nXnXnXnXnXnXnXnXnXnXnXnXnXnXnXnXnXnXnXnXnXnXnXnXnXnX",
"nXnXnXnXnXnXnXnXnXnXnXnXnXnXnXnXnXnXnXnXnXnXnXnXnX. - { q.<.2.6.6.5.6.2.<.q.@.=   nXnXnXnXnXnXnXnXnXnXnXnXnXnXnXnXnXnXnXnXnXnXnXnXnX",
"nXnXnXnXnXnXnXnXnXnXnXnXnXnXnXnXnXnXnXnXnXnXnXnX* t ) q.9.6.1.2.2.2.2.1.6.9.>.) t * nXnXnXnXnXnXnXnXnXnXnXnXnXnXnXnXnXnXnXnXnXnXnXnX",
"nXnXnXnXnXnXnXnXnXnXnXnXnXnXnXnXnXnXnXnXnXnX    i ;.5.5.5.6.6.6.6.5.6.6.6.5.<.<.;.i     nXnXnXnXnXnXnXnXnXnXnXnXnXnXnXnXnXnXnXnXnXnX",
"nXnXnXnXnXnXnXnXnXnXnXnXnXnXnXnXnXnXnXnXnXnXO y ` 1.1.1.3.3.3.3.3.3.3.3.3.1.1.1.2.` - @ nXnXnXnXnXnXnXnXnXnXnXnXnXnXnXnXnXnXnXnXnXnX",
"nXnXnXnXnXnXnXnXnXnXnXnXnXnXnXnXnXnXnXnX    u } ,.1.1.3.3.3.3.3.3.3.3.3.3.3.4.1.1.,.[ -     nXnXnXnXnXnXnXnXnXnXnXnXnXnXnXnXnXnXnXnX",
"nXnXnXnXnXnXnXnXnXnXnXnXnXnXnXnXnXnXnXnXO - n *.y.q.r.t.e.e.e.e.e.e.e.e.e.e.e.9.,.q.q._ - + nXnXnXnXnXnXnXnXnXnXnXnXnXnXnXnXnXnXnXnX",
"nXnXnXnXnXnXnXnXnXnXnXnXnXnXnXnXnXnX  O d [ @.~ Q.{.V.A.A.A.A.M.Z.Z.Z.Z.A.A.Z.l.$...6.:._ u +   nXnXnXnXnXnXnXnXnXnXnXnXnXnXnXnXnXnX",
"nXnXnXnXnXnXnXnXnXnXnXnXnXnXnXnXnXnXX O p @.d.n.}.XXR.J.H.H.H.H.G.G.G.G.H.H.G.b.j.=.,.9.y.f O   nXnXnXnXnXnXnXnXnXnXnXnXnXnXnXnXnXnX",
"nXnXnXnXnXnXnXnXnXnXnXnXnXnXnXnXnXnX+   : m l.C.K.K.J.H.H.H.H.H.G.G.G.G.H.H.H.D.C.l.$.*.&.i X + nXnXnXnXnXnXnXnXnXnXnXnXnXnXnXnXnXnX",
"nXnXnXnXnXnXnXnXnXnXnXnXnXnXnXnXnXnX3 . 6 Y V.H.H.F.F.F.G.H.F.H.G.H.G.H.F.D.S.H.H.I.Q.h.*.y X 6 nXnXnXnXnXnXnXnXnXnXnXnXnXnXnXnXnXnX",
"nXnXnXnXnXnXnXnXnXnXnXnXnXnX^ ^.2X`.w 6 e }.K.H.K.Y.T.F.H.F.F.F.H.H.H.H.H.c.l.C.H.J.C.k.m 1 $ 0 '.9X^.W.nXnXnXnXnXnXnXnXnXnXnXnXnXnX",
"nXnXnXnXnXnXnXnXnXnXnXnXnXnXE ~.1XoXU c j.%XK.S.I.|.Y.F.H.F.H.F.F.F.L.F.S.k.^ c.F.H.G.z.L 0 c ! OX3X^.E nXnXnXnXnXnXnXnXnXnXnXnXnXnX",
"nXnXnXnXnXnXnXnXnXnXnXnXnXnXU !.0X0X/ W c.E.I.l.c.I.K.F.H.H.H.H.H.R.Y.c.l.^.).Q.g.B.H.C.Q ( _.8XeX8X!.I nXnXnXnXnXnXnXnXnXnXnXnXnXnX",
"nXnXnXnXnXnXnXnXnXnXnXnXnXnXh ! 0XtX_.k.B.F.x.^ c.H.H.G.H.L.H.H.K.b.}.^ ^ `.3X'.^ z.F.K.XX#XtXlXlX8X! x nXnXnXnXnXnXnXnXnXnXnXnXnXnX",
"nXnXnXnXnXnXnXnXnXnXnXnXnXnXc U _.<XoX^.g.f.Q }.P.H.H.H.H.H.L.K.Y.}.~.)._.OX3X3X<X.XU.b.}.+XeXeX3X/ v 8 nXnXnXnXnXnXnXnXnXnXnXnXnXnX",
"nXnXnXnXnXnXnXnXnXnXnXnXnXnXnXnX8 U oXOXT h ^ |.U.H.H.F.H.H.K..X}.^ ^ @X3X3X3XqXrX9XXXQ.E ).1X`.~ 8 nXnXnXnXnXnXnXnXnXnXnXnXnXnXnXnX",
"nXnXnXnXnXnXnXnXnXnXnXnXnXnXnXnX$ 0 ,X2X~ e ! |.%XR.R.U.R.R.Y. X^ I U _.8X0XwXlXeX1XE Q l.x.^.! c nXnXnXnXnXnXnXnXnXnXnXnXnXnXnXnXnX",
"nXnXnXnXnXnXnXnXnXnXnXnXnXnXnXnX. , ).2X_.R R W. X.X.X.X|..X XQ.R 8 c ).8XeXpXrX4X/ 8 f.S.V.W e nXnXnXnXnXnXnXnXnXnXnXnXnXnXnXnXnXnX",
"nXnXnXnXnXnXnXnXnXnXnXnXnXnXnXnX  % ~ @Xv.x.k.T v v E }.|.}.^ T v I ! oX2X9X+X!.C l c g.H.B.j $ nXnXnXnXnXnXnXnXnXnXnXnXnXnXnXnXnXnX",
"nXnXnXnXnXnXnXnXnXnXnXnXnXnXnXnX  o q Q C.D.f.8 o   7 ^ }.Q.R h c / <X8X1X~.h & X , ! I.H.z.1 X nXnXnXnXnXnXnXnXnXnXnXnXnXnXnXnXnXnX",
"nXnXnXnXnXnXnXnXnXnXnXnXnXnXnXnX  . # j V.J.f.8 3 3 V S ~ U L c / 1X0X+X~ C B 3 3 z R b.E.g.:   nXnXnXnXnXnXnXnXnXnXnXnXnXnXnXnXnXnX",
"nXnXnXnXnXnXnXnXnXnXnXnXnXnXnXnXnXnXX 6 v.%XQ c ).sXgX;X*X0 L / 3XeX9X^ w N ;XgXsX'.I j.%Xk.:   nXnXnXnXnXnXnXnXnXnXnXnXnXnXnXnXnXnX",
"nXnXnXnXnXnXnXnXnXnXnXnXnXnXnXnXnXnX  @ v W.h 0 2XbXkX-X&XC W.1XrXlX0X!.C &X-XkXbX3X0 8 ^ v @   nXnXnXnXnXnXnXnXnXnXnXnXnXnXnXnXnXnX",
"nXnXnXnXnXnXnXnXnXnXnXnXnXnXnXnXnXnXnXnX> , : % `.vXfX=X-XsXwXtXrXiXeXwXsX-X=XfXzX'.% : , > nXnXnXnXnXnXnXnXnXnXnXnXnXnXnXnXnXnXnXnX",
"nXnXnXnXnXnXnXnXnXnXnXnXnXnXnXnXnXnXnXnX        ~ 0XsX:XdXbXvXlXiXrXlXvXbXdX>XsX0X~     .   nXnXnXnXnXnXnXnXnXnXnXnXnXnXnXnXnXnXnXnX",
"nXnXnXnXnXnXnXnXnXnXnXnXnXnXnXnXnXnXnXnXnXnX    l @X5XhXcXvXzXlXpXpXlXzXvXcXhX5X@Xl     nXnXnXnXnXnXnXnXnXnXnXnXnXnXnXnXnXnXnXnXnXnX",
"nXnXnXnXnXnXnXnXnXnXnXnXnXnXnXnXnXnXnXnXnXnXX + 7 R @XtXiXrXeXeXeXeXeXeXrXiXtX+XE 7 + X nXnXnXnXnXnXnXnXnXnXnXnXnXnXnXnXnXnXnXnXnXnX",
"nXnXnXnXnXnXnXnXnXnXnXnXnXnXnXnXnXnXnXnXnX  s i.~ L R ( +X9XqXqXqXqXqXqX4X+XQ.Y L ~ i.s   nXnXnXnXnXnXnXnXnXnXnXnXnXnXnXnXnXnXnXnXnX",
"nXnXnXnXnXnXnXnXnXnXnXnXnXnXnXnXnXnXnXnXX = s.yX[.8 5 8 R oX1X1X<X3X3X1XOX! 8 7 x [.yXs.>   nXnXnXnXnXnXnXnXnXnXnXnXnXnXnXnXnXnXnXnX",
"nXnXnXnXnXnXnXnXnXnXnXnXnXnXnXnXnX      s p.yXuX$Xp r g M /././././././.h.M g u a $XuXyXp.s       nXnXnXnXnXnXnXnXnXnXnXnXnXnXnXnXnX",
"nXnXnXnXnXnXnXnXnXnXnXnXnXnXnXnX      + s.yXuX7Xa.d d %.%.%.%.%.%.%.%.%.%.%.| i d a.7XuXyXs.+       nXnXnXnXnXnXnXnXnXnXnXnXnXnXnXnX",
"nXnXnXnXnXnXnXnXnXnXnXnXnXnXnX% V S A p.yXuX6XA z a f ....X.' } } } } o.X... .f a z A 6XuXyXp.A A V > nXnXnXnXnXnXnXnXnXnXnXnXnXnXnX",
"nXnXnXnXnXnXnXnXnXnXnXnXnXnX  q ,XaXwXaXuX7XZ X $ w m %. . . .| | | |  . . .%.M x & . Z 7XuXaXwXxX,Xq   nXnXnXnXnXnXnXnXnXnXnXnXnXnX",
"nXnXnXnXnXnXnXnXnXnXnXnXnXnX  z 0XzXzXxX,Xi.2 O r k M b b k #.+.m.m.+.#.b b b #.k r O 2 i.,XwXzXzX8XV   nXnXnXnXnXnXnXnXnXnXnXnXnXnX",
"nXnXnXnXnXnXnXnXnXnXnXnXnXnX  q ].iXiX<Xz + ; d ` :.O.c e 0 P V.L.L.V.P w 5 x O.:.-.d ; = z 3XiXiX].q   nXnXnXnXnXnXnXnXnXnXnXnXnXnX",
"nXnXnXnXnXnXnXnXnXnXnXnXnXnX  > C ).).A # . O d 8.3.:.#.l l P D.H.H.D.P l l #.,.4.:.d O . @ C ).(.C >   nXnXnXnXnXnXnXnXnXnXnXnXnXnX",
"nXnXnXnXnXnXnXnXnXnXnXnXnXnXnXnX% > > % nXnX  * ` 2.7.<.' { d.D.H.H.S.d.{ ' <.6.4.` *   nXnX% > > % nXnXnXnXnXnXnXnXnXnXnXnXnXnXnXnX",
"nXnXnXnXnXnXnXnXnXnXnXnXnXnXnXnX        nXnX    t ` ;.6.8.0.u.M.A.Z.M.u.0.8.;.-.-.t     nXnX        nXnXnXnXnXnXnXnXnXnXnXnXnXnXnXnX",
"nXnXnXnXnXnXnXnXnXnXnXnXnXnXnXnXnXnXnXnX      . O ; ) ] 8.8.7.t.e.e.r.9.5.:.) d ; O     nXnXnXnXnXnXnXnXnXnXnXnXnXnXnXnXnXnXnXnXnXnX",
"nXnXnXnXnXnXnXnXnXnXnXnXnXnXnXnXnXnXnXnX    . @ o o , n ..,.;.-.-.-.;.;.:.' d +         nXnXnXnXnXnXnXnXnXnXnXnXnXnXnXnXnXnXnXnXnXnX",
"nXnXnXnXnXnXnXnXnXnXnXnXnXnXnXnXnXnXnXnX  . $ 7 D D D w l m p y t t t t y g l &     nXnXnXnXnXnXnXnXnXnXnXnXnXnXnXnXnXnXnXnXnXnXnXnX",
"nXnXnXnXnXnXnXnXnXnXnXnXnXnXnXnXnXnXnXnX  X , 8 J J H F F 9 4 o         . 6 w ,   nXnXnXnXnXnXnXnXnXnXnXnXnXnXnXnXnXnXnXnXnXnXnXnXnX",
"nXnXnXnXnXnXnXnXnXnXnXnXnXnXnXnXnXnXnXnXnXnX@ , G K K H F 4 # . nXnXnXnXnX# $ @ nXnXnXnXnXnXnXnXnXnXnXnXnXnXnXnXnXnXnXnXnXnXnXnXnXnX",
"nXnXnXnXnXnXnXnXnXnXnXnXnXnXnXnXnXnXnXnXnXnX  . 5 J K K D o   nXnXnXnXnXnX      nXnXnXnXnXnXnXnXnXnXnXnXnXnXnXnXnXnXnXnXnXnXnXnXnXnX",
"nXnXnXnXnXnXnXnXnXnXnXnXnXnXnXnXnXnXnXnXnXnXnX  $ 5 5 5 $ . nXnXnXnXnXnXnXnXnXnXnXnXnXnXnXnXnXnXnXnXnXnXnXnXnXnXnXnXnXnXnXnXnXnXnXnX",
"nXnXnXnXnXnXnXnXnXnXnXnXnXnXnXnXnXnXnXnXnXnXnXnX  . .     nXnXnXnXnXnXnXnXnXnXnXnXnXnXnXnXnXnXnXnXnXnXnXnXnXnXnXnXnXnXnXnXnXnXnXnXnX",
"nXnXnXnXnXnXnXnXnXnXnXnXnXnXnXnXnXnXnXnXnXnXnXnX          nXnXnXnXnXnXnXnXnXnXnXnXnXnXnXnXnXnXnXnXnXnXnXnXnXnXnXnXnXnXnXnXnXnXnXnXnX",
"nXnXnXnXnXnXnXnXnXnXnXnXnXnXnXnXnXnXnXnXnXnXnXnXnXnXnXnXnXnXnXnXnXnXnXnXnXnXnXnXnXnXnXnXnXnXnXnXnXnXnXnXnXnXnXnXnXnXnXnXnXnXnXnXnXnX",
"nXnXnXnXnXnXnXnXnXnXnXnXnXnXnXnXnXnXnXnXnXnXnXnXnXnXnXnXnXnXnXnXnXnXnXnXnXnXnXnXnXnXnXnXnXnXnXnXnXnXnXnXnXnXnXnXnXnXnXnXnXnXnXnXnXnX",
"nXnXnXnXnXnXnXnXnXnXnXnXnXnXnXnXnXnXnXnXnXnXnXnXnXnXnXnXnXnXnXnXnXnXnXnXnXnXnXnXnXnXnXnXnXnXnXnXnXnXnXnXnXnXnXnXnXnXnXnXnXnXnXnXnXnX",
"nXnXnXnXnXnXnXnXnXnXnXnXnXnXnXnXnXnXnXnXnXnXnXnXnXnXnXnXnXnXnXnXnXnXnXnXnXnXnXnXnXnXnXnXnXnXnXnXnXnXnXnXnXnXnXnXnXnXnXnXnXnXnXnXnXnX",
"nXnXnXnXnXnXnXnXnXnXnXnXnXnXnXnXnXnXnXnXnXnXnXnXnXnXnXnXnXnXnXnXnXnXnXnXnXnXnXnXnXnXnXnXnXnXnXnXnXnXnXnXnXnXnXnXnXnXnXnXnXnXnXnXnXnX",
"nXnXnXnXnXnXnXnXnXnXnXnXnXnXnXnXnXnXnXnXnXnXnXnXnXnXnXnXnXnXnXnXnXnXnXnXnXnXnXnXnXnXnXnXnXnXnXnXnXnXnXnXnXnXnXnXnXnXnXnXnXnXnXnXnXnX",
"nXnXnXnXnXnXnXnXnXnXnXnXnXnXnXnXnXnXnXnXnXnXnXnXnXnXnXnXnXnXnXnXnXnXnXnXnXnXnXnXnXnXnXnXnXnXnXnXnXnXnXnXnXnXnXnXnXnXnXnXnXnXnXnXnXnX",
"nXnXnXnXnXnXnXnXnXnXnXnXnXnXnXnXnXnXnXnXnXnXnXnXnXnXnXnXnXnXnXnXnXnXnXnXnXnXnXnXnXnXnXnXnXnXnXnXnXnXnXnXnXnXnXnXnXnXnXnXnXnXnXnXnXnX",
"nXnXnXnXnXnXnXnXnXnXnXnXnXnXnXnXnXnXnXnXnXnXnXnXnXnXnXnXnXnXnXnXnXnXnXnXnXnXnXnXnXnXnXnXnXnXnXnXnXnXnXnXnXnXnXnXnXnXnXnXnXnXnXnXnXnX",
"nXnXnXnXnXnXnXnXnXnXnXnXnXnXnXnXnXnXnXnXnXnXnXnXnXnXnXnXnXnXnXnXnXnXnXnXnXnXnXnXnXnXnXnXnXnXnXnXnXnXnXnXnXnXnXnXnXnXnXnXnXnXnXnXnXnX",
"nXnXnXnXnXnXnXnXnXnXnXnXnXnXnXnXnXnXnXnXnXnXnXnXnXnXnXnXnXnXnXnXnXnXnXnXnXnXnXnXnXnXnXnXnXnXnXnXnXnXnXnXnXnXnXnXnXnXnXnXnXnXnXnXnXnX"
};
