/* XPM */
static char *result[] = {
/* columns rows colors chars-per-pixel */
"66 72 245 2 ",
"   c #010101",
".  c #0A0304",
"X  c #030B03",
"o  c #090B05",
"O  c #0D0A09",
"+  c #080609",
"@  c #150806",
"#  c #021703",
"$  c #14110D",
"%  c #18160B",
"&  c #191712",
"*  c #160C14",
"=  c #260703",
"-  c #27190A",
";  c #351513",
":  c #2D0E10",
">  c #042606",
",  c #13260D",
"<  c #013701",
"1  c #1A3C1B",
"2  c #132B10",
"3  c #2F2515",
"4  c #362925",
"5  c #3D362A",
"6  c #283230",
"7  c #351A29",
"8  c #4B1310",
"9  c #4A3719",
"0  c #583313",
"q  c #68381B",
"w  c #613C0E",
"e  c #731626",
"r  c #57312F",
"t  c #6A2F29",
"y  c #731715",
"u  c #075706",
"i  c #114C0E",
"p  c #335B12",
"a  c #1B6A12",
"s  c #12781D",
"d  c #256E18",
"f  c #2B462B",
"g  c #3A4526",
"h  c #315821",
"j  c #0F7227",
"k  c #346621",
"l  c #38752B",
"z  c #2E7D20",
"x  c #53561E",
"c  c #4F481C",
"v  c #79481B",
"b  c #68511E",
"n  c #554A2F",
"m  c #774825",
"M  c #745B36",
"N  c #6D512F",
"B  c #596E25",
"V  c #656B28",
"C  c #422A41",
"Z  c #53514C",
"A  c #685342",
"S  c #6F524F",
"D  c #56764D",
"F  c #6D5A68",
"G  c #920D26",
"H  c #B11626",
"J  c #A12B20",
"K  c #CE2826",
"L  c #F02930",
"P  c #967619",
"I  c #8A5935",
"U  c #8B4E26",
"Y  c #8B6337",
"T  c #976835",
"R  c #976A2E",
"E  c #A37D3B",
"W  c #AB7232",
"Q  c #A07E1A",
"!  c #936847",
"~  c #9A795A",
"^  c #906B4F",
"/  c #A57B42",
"(  c #A87A49",
")  c #A37C54",
"_  c #AD6C49",
"`  c #867C6A",
"'  c #98736A",
"]  c #996E53",
"[  c #0A9506",
"{  c #078C08",
"}  c #04B606",
"|  c #10B10B",
" . c #2BA51E",
".. c #38B917",
"X. c #1C9523",
"o. c #048621",
"O. c #399B27",
"+. c #328D22",
"@. c #3CA527",
"#. c #38B825",
"$. c #2CB120",
"%. c #468F10",
"&. c #62871E",
"*. c #489B29",
"=. c #539233",
"-. c #6E902F",
";. c #43AD29",
":. c #46B229",
">. c #57A332",
",. c #03DA14",
"<. c #11CD12",
"1. c #21DD13",
"2. c #23CC17",
"3. c #0CED07",
"4. c #16EE0D",
"5. c #1BE90B",
"6. c #03FD04",
"7. c #0BFE04",
"8. c #02FA09",
"9. c #08F808",
"0. c #03F60A",
"q. c #12FE0A",
"w. c #15FA08",
"e. c #13F114",
"r. c #35F907",
"t. c #37FA07",
"y. c #32EA1C",
"u. c #28F010",
"i. c #33C422",
"p. c #34CF25",
"a. c #30DE22",
"s. c #1ADB20",
"d. c #50E517",
"f. c #47C832",
"g. c #759243",
"h. c #7AA54D",
"j. c #6E9761",
"k. c #74A86C",
"l. c #86AF1C",
"z. c #B4A70B",
"x. c #99832B",
"c. c #AE8F2F",
"v. c #8DA725",
"b. c #AC9A15",
"n. c #CDB615",
"m. c #C68E28",
"M. c #D1B529",
"N. c #E2B22A",
"B. c #9BCE16",
"V. c #95F80A",
"C. c #B1FB03",
"Z. c #ACED0B",
"A. c #A3D729",
"S. c #CBC807",
"D. c #D4C017",
"F. c #D5C70A",
"G. c #F8DC18",
"H. c #EBD410",
"J. c #EBE707",
"K. c #F8EB0A",
"L. c #F6F403",
"P. c #FCF601",
"I. c #FDFC00",
"U. c #FAF607",
"Y. c #F6E718",
"T. c #F1F809",
"R. c #EAD723",
"E. c #E8C837",
"W. c #F2D030",
"Q. c #F9E724",
"!. c #FFF125",
"~. c #908A53",
"^. c #B48C57",
"/. c #B38A4E",
"(. c #95896E",
"). c #A98568",
"_. c #A9926A",
"`. c #B6976E",
"'. c #BC9B76",
"]. c #B48B69",
"[. c #ACAE44",
"{. c #C9964B",
"}. c #D1884D",
"|. c #D7A84C",
" X c #DEB54C",
".X c #D0A150",
"XX c #E6B94A",
"oX c #E9A74F",
"OX c #C19B73",
"+X c #CE9B6A",
"@X c #C5A67D",
"#X c #D0AB77",
"$X c #ADC97F",
"%X c #EDCB44",
"&X c #3A3384",
"*X c #1E30BE",
"=X c #3F52BE",
"-X c #1E31C0",
";X c #3055F8",
":X c #3661F5",
">X c #677AF6",
",X c #4F64CE",
"<X c #AE9F82",
"1X c #BDB088",
"2X c #B7B8B3",
"3X c #C8A887",
"4X c #D3AC85",
"5X c #C8B485",
"6X c #D2B38C",
"7X c #D7B386",
"8X c #D7B996",
"9X c #E7B68F",
"0X c #C19A80",
"qX c #94DD85",
"wX c #A5D392",
"eX c #B0E59C",
"rX c #BBE7A3",
"tX c #DDC098",
"yX c #E5C797",
"uX c #F0CF94",
"iX c #F4C6A7",
"pX c #F5DCB4",
"aX c #F9DCB4",
"sX c #F4DBB8",
"dX c #EBD3AE",
"fX c #C9E8AB",
"gX c #C8F5AE",
"hX c #FCE3B6",
"jX c #F8E4B8",
"kX c #F0F7BE",
"lX c #B3ADD1",
"zX c #869DFF",
"xX c #99ABE1",
"cX c #B7CBFE",
"vX c #CBC3D1",
"bX c #DEFFC2",
"nX c #FAEDC6",
"mX c #E3FFC3",
"MX c #FFF3C5",
"NX c #FEFBD6",
"BX c #EDEACA",
"VX c #DFDEEB",
"CX c #FDFBE6",
"ZX c #EFF5FA",
"AX c None",
/* pixels */
"AXAXAXAXAXAXAXAXAXAXAXAXAXAXAXAXAXAXAXAXAXAXAXAXAXAXAXAXAXAXAXAXAXAXAXAXAXAXAXAXAXAXAXAXAXAXAXAXAXAXAXAXAXAXAXAXAXAXAXAXAXAXAXAXAXAX",
"AXAXAXAXAXAXAXAXAXAXAXAXAXAXAXAXAXAXAXAXAXAXAXAXAXAXAXAXAXAXAXAXAXAXAXAXAXAXAXAXAXAXAXAXAXAXAXAXAXAXAXAXAXAXAXAXAXAXAXAXAXAXAXAXAXAX",
"AXAXAXAXAXAXAXAXAXAXAXAXAXAXAXAXAXAXAXAXAXAXAXAXAXAXAXAXAXAXAXAXAXAXAXAXAXAXAXAXAXAXAXAXAXAXAXAXAXAXAXAXAXAXAXAXAXAXAXAXAXAXAXAXAXAX",
"AXAXAXAXAXAXAXAXAXAXAXAXAXAXAXAXAXAXAXAXAXAXAXAXAXAXAXAXAXAXAXAXAXAXAXAXAXAXAXAXAXAXAXAXAXAXAXAXAXAXAXAXAXAXAXAXAXAXAXAXAXAXAXAXAXAX",
"AXAXAXAXAXAXAXAXAXAXAXAXAXAXAXAXAXAXAXAXAXAXAXAXAXAXAXAXAXAXAXAXAXAXAXAXAXAXAXAXAXAXAXAXAXAXAXAXAXAXAXAXAXAXAXAXAXAXAXAXAXAXAXAXAXAX",
"AXAXAXAXAXAXAXAXAXAXAXAXAXAXAXAXAXAXAXAXAXAXAXAXAXAXAXAXAXAXAXAXAXAXAXAXAXAXAXAXAXAXAXAXAXAXAXAXAXAXAXAXAXAXAXAXAXAXAXAXAXAXAXAXAXAX",
"AXAXAXAXAXAXAXAXAXAXAXAXAXAXAXAXAXAXAXAXAXAXAXAXAXAXAXAXAXAXAXAXAXAXAXAXAXAXAXAXAXAXAXAXAXAXAXAXAXAXAXAXAXAXAXAXAXAXAXAXAXAXAXAXAXAX",
"AXAXAXAXAXAXAXAXAXAXAXAXAXAXAXAXAXAXAXAXAXAXAXAXAXAXAXAXAXAXAXAXAXAXAXAXAXAXAXAXAXAXAXAXAXAXAXAXAXAXAXAXAXAXAXAXAXAXAXAXAXAXAXAXAXAX",
"AXAXAXAXAXAXAXAXAXAXAXAXAXAXAXAXAXAXAXAXAXAXAXAXAXAXAXAXAXAXAXAXAXAXAXAXAXAXAXAXAXAXAXAXAXAXAXAXAXAXAXAXAXAXAXAXAXAXAXAXAXAXAXAXAXAX",
"AXAXAXAXAXAXAXAXAXAXAXAXAXAXAXAXAXAXAXAXAXAXAXAXAXAXAXAXAXAXAXAXAXAXAXAXAXAXAXAXAXAXAXAXAXAXAXAXAXAXAXAXAXAXAXAXAXAXAXAXAXAXAXAXAXAX",
"AXAXAXAXAXAXAXAXAXAXAXAXAXAXAXAXAXAXAXAXAXAXAXAXAXAXAXAXAXAXAXAXAXAXAXAXAXAXAXAXAXAXAXAXAXAXAXAXAXAXAXAXAXAXAXAXAXAXAXAXAXAXAXAXAXAX",
"AXAXAXAXAXAXAXAXAXAXAXAXAXAXAXAXAXAXAXAXAXAXAXAXAXAXAXAXAXAXAXAXAXAXAXAXAXAXAXAXAXAXAXAXAXAXAXAXAXAXAXAXAXAXAXAXAXAXAXAXAXAXAXAXAXAX",
"AXAXAXAXAXAXAXAXAXAXAXAXAXAXAXAXAXAXAXAXAXAXAXAXAXAXAXX 1 +.:.:.@.@.:.:.+.i X AXAXAXAXAXAXAXAXAXAXAXAXAXAXAXAXAXAXAXAXAXAXAXAXAXAXAX",
"AXAXAXAXAXAXAXAXAXAXAXAXAXAXAXAXAXAXAXAXAXAXAXAXAXAX. , d  .i.i.#...i.i. .p , + AXAXAXAXAXAXAXAXAXAXAXAXAXAXAXAXAXAXAXAXAXAXAXAXAXAX",
"AXAXAXAXAXAXAXAXAXAXAXAXAXAXAXAXAXAXAXAXAXAXAXAXAX. & k ..1.4.4.4.5.4.4.1.#.k %   AXAXAXAXAXAXAXAXAXAXAXAXAXAXAXAXAXAXAXAXAXAXAXAXAX",
"AXAXAXAXAXAXAXAXAXAXAXAXAXAXAXAXAXAXAXAXAXAXAXAX# < a #.y.w.6.7.7.7.6.6.q.y.#.a < # AXAXAXAXAXAXAXAXAXAXAXAXAXAXAXAXAXAXAXAXAXAXAXAX",
"AXAXAXAXAXAXAXAXAXAXAXAXAXAXAXAXAXAXAXAXAXAXAXX u } <.5.w.q.6.7.7.7.7.7.q.w.5.<.| u X AXAXAXAXAXAXAXAXAXAXAXAXAXAXAXAXAXAXAXAXAXAXAX",
"AXAXAXAXAXAXAXAXAXAXAXAXAXAXAXAXAXAXAXAXAXAX. > [ 3.6.6.6.9.9.9.9.9.9.9.9.6.6.7.3.[ , . AXAXAXAXAXAXAXAXAXAXAXAXAXAXAXAXAXAXAXAXAXAX",
"AXAXAXAXAXAXAXAXAXAXAXAXAXAXAXAXAXAXAXAXAX  , d 1.6.6.8.8.0.0.0.0.0.0.0.8.9.7.6.6.2.k &   AXAXAXAXAXAXAXAXAXAXAXAXAXAXAXAXAXAXAXAXAX",
"AXAXAXAXAXAXAXAXAXAXAXAXAXAXAXAXAXAXAXAX# 2 h *.f.y.u.t.t.t.r.t.r.t.r.r.r.t.t.1.1.2.i.d 2 o AXAXAXAXAXAXAXAXAXAXAXAXAXAXAXAXAXAXAXAX",
"AXAXAXAXAXAXAXAXAXAXAXAXAXAXAXAXAXAXAXX i z =.^ ~.[.A.Z.C.C.C.C.C.C.C.C.C.C.Z.v.-.p.w.<.d 1 . AXAXAXAXAXAXAXAXAXAXAXAXAXAXAXAXAXAXAX",
"AXAXAXAXAXAXAXAXAXAXAXAXAXAXAXAXAXAX+ X a *.-.c.}.oXW.U.I.P.P.I.P.P.P.P.I.I.K.N./.:.e.u.#.h o . AXAXAXAXAXAXAXAXAXAXAXAXAXAXAXAXAXAX",
"AXAXAXAXAXAXAXAXAXAXAXAXAXAXAXAXAXAX&   , B c.D.G.G.K.P.I.I.I.I.I.P.P.P.I.I.I.G.N.v.>.:.#.a   7 AXAXAXAXAXAXAXAXAXAXAXAXAXAXAXAXAXAX",
"AXAXAXAXAXAXAXAXAXAXAXAXAXAXAXAXAXAXn   : U n.U.I.P.U.P.P.I.L.I.P.P.I.I.P.L.L.I.P.N.( g.O.i . r AXAXAXAXAXAXAXAXAXAXAXAXAXAXAXAXAXAX",
"AXAXAXAXAXAXAXAXAXAXAXAXAXAX/.^.7X@XN ; t _ H.I.U.W.R.J.I.T.L.L.I.I.I.I.I.D.n.J.I.K.N.x.x - = N @X7X^./ AXAXAXAXAXAXAXAXAXAXAXAXAXAX",
"AXAXAXAXAXAXAXAXAXAXAXAXAXAX/ ^.4X3X! q T XXQ.K.R.|.E.K.I.I.I.I.I.L.U.U.J.c.~.n.L.I.L.z.v 0 q ! 4X7X^.E AXAXAXAXAXAXAXAXAXAXAXAXAXAX",
"AXAXAXAXAXAXAXAXAXAXAXAXAXAXI /.8XdX).R n.!.Y.M.M.N.R.T.I.T.T.I.L.Y.R.n.M.^.) /.n.J.I.F.W _ OX8XpX6X~ I AXAXAXAXAXAXAXAXAXAXAXAXAXAX",
"AXAXAXAXAXAXAXAXAXAXAXAXAXAXq ! 8XsXOXE F.L.M./ [.Y.I.L.L.I.I.I.Y.E.{.( / OX3X].E F.I.G.|.#XaXNXMX6XI m AXAXAXAXAXAXAXAXAXAXAXAXAXAX",
"AXAXAXAXAXAXAXAXAXAXAXAXAXAXq I ].4X3X^.z.n.c.( M.I.I.I.I.I.I.Y.E.|.].) ).3X6X0X@X%XR.N.{.7XjXjX6X) m q AXAXAXAXAXAXAXAXAXAXAXAXAXAX",
"AXAXAXAXAXAXAXAXAXAXAXAXAXAXAXAXv ! OX#X! v T .XW.I.I.I.I.I.Y.E.{.( ( '.3X3X8XdXiXuXXXc.( OXtX@X! q AXAXAXAXAXAXAXAXAXAXAXAXAXAXAXAX",
"AXAXAXAXAXAXAXAXAXAXAXAXAXAXAXAX= 9 ].8X' t I {.%X!.!.Q.Y.Y.E.|.( I Y '.8XdXdXnXhX4X( Q c.M.].! q AXAXAXAXAXAXAXAXAXAXAXAXAXAXAXAXAX",
"AXAXAXAXAXAXAXAXAXAXAXAXAXAXAXAX. - (.8XOXY ! ( |.XXXXXX XXX|./.T q m ].yXaXnXjX8X] m b.J.n.R t AXAXAXAXAXAXAXAXAXAXAXAXAXAXAXAXAXAX",
"AXAXAXAXAXAXAXAXAXAXAXAXAXAXAXAX  $ S +X Xb.c.R M m R /.oX.X/.R m m ! @XyXyX#X).S r U S.I.S.w : AXAXAXAXAXAXAXAXAXAXAXAXAXAXAXAXAXAX",
"AXAXAXAXAXAXAXAXAXAXAXAXAXAXAXAX  . r R R.J.n.q : . 9 E {.^.T v m ) 3X8X4X^.v - @ 7 E R.T.z.- . AXAXAXAXAXAXAXAXAXAXAXAXAXAXAXAXAXAX",
"AXAXAXAXAXAXAXAXAXAXAXAXAXAXAXAX    @ w n.U.n.U 7 6 Z F ^ I v m ) 6XdX#X] S r 6 6 A c.W.Y.b.%   AXAXAXAXAXAXAXAXAXAXAXAXAXAXAXAXAXAX",
"AXAXAXAXAXAXAXAXAXAXAXAXAXAXAXAXAXAX. ; c.%Xc.m ' 2XxX,X&Xr v ) 6XsXyX/ r &X-XxX2X' I m.E.x.%   AXAXAXAXAXAXAXAXAXAXAXAXAXAXAXAXAXAX",
"AXAXAXAXAXAXAXAXAXAXAXAXAXAXAXAXAXAXAXO N / v q '.CXcX:X*XF ] #XpXMXuX).S *X;XcXCX'.0 v / N $ AXAXAXAXAXAXAXAXAXAXAXAXAXAXAXAXAXAXAX",
"AXAXAXAXAXAXAXAXAXAXAXAXAXAXAXAXAXAXAXAX& 3 - - _.NXcX;X;XlXdXpXaXjXjXsXlX;X;XcXNX_.% @ 3 - AXAXAXAXAXAXAXAXAXAXAXAXAXAXAXAXAXAXAXAX",
"AXAXAXAXAXAXAXAXAXAXAXAXAXAXAXAXAXAXAXAXAX    o M tXlX>XzXZXCXMXaXaXnXCXZXzX>XlXyXM o     AXAXAXAXAXAXAXAXAXAXAXAXAXAXAXAXAXAXAXAXAX",
"AXAXAXAXAXAXAXAXAXAXAXAXAXAXAXAXAXAXAXAXAXAX    9 ).8XvXVXCXCXnXhXhXnXnXZXVXvX8X^.9 . . AXAXAXAXAXAXAXAXAXAXAXAXAXAXAXAXAXAXAXAXAXAX",
"AXAXAXAXAXAXAXAXAXAXAXAXAXAXAXAXAXAXAXAXAXAXX & 5 R {.uXhXaXaXaXaXpXpXpXaXhXuX+XR c # X AXAXAXAXAXAXAXAXAXAXAXAXAXAXAXAXAXAXAXAXAXAX",
"AXAXAXAXAXAXAXAXAXAXAXAXAXAXAXAXAXAXAXAXAXX f j.~.U U _ +X9XiXdXiXiXiXiXyX#X_ U U ^ j.f X AXAXAXAXAXAXAXAXAXAXAXAXAXAXAXAXAXAXAXAXAX",
"AXAXAXAXAXAXAXAXAXAXAXAXAXAXAXAXAXAXAXAXO 6 k.gX$XV 8 0 Y `.5X5X@X@X5X5X`.Y w 8 m wXgXk.6 o AXAXAXAXAXAXAXAXAXAXAXAXAXAXAXAXAXAXAXAX",
"AXAXAXAXAXAXAXAXAXAXAXAXAXAXAXAXAX      f k.gXmX$Xl i p B h.h.h.h.h.h.h.-.B p i l qXmXgXk.f   .   AXAXAXAXAXAXAXAXAXAXAXAXAXAXAXAXAX",
"AXAXAXAXAXAXAXAXAXAXAXAXAXAXAXAX$ , & 2 j.gXkXeXk.j o.O.;.@.@.O.@.O.O.O.;.;.O.s j k.rXbXgXj.2 * $ O AXAXAXAXAXAXAXAXAXAXAXAXAXAXAXAX",
"AXAXAXAXAXAXAXAXAXAXAXAXAXAX  & Z (.F (.fXkXwXD 5 5 B $.#... .X.X.X.X. .$.#.@.l g g D wXbXfX(.` (.Z &   AXAXAXAXAXAXAXAXAXAXAXAXAXAX",
"AXAXAXAXAXAXAXAXAXAXAXAXAXAX  4 <XnXBXnXmXeXD + = q V ;.@.@.*.@.O.@.O.;.@.@.*.V q = . D eXmXnXBXBX<X4   AXAXAXAXAXAXAXAXAXAXAXAXAXAX",
"AXAXAXAXAXAXAXAXAXAXAXAXAXAX  5 5XNXCXMX5XD 1 > i %.&.V x x &.l.B.B.l.&.x V V &.%.i > 1 D 1XkXCXNX3X5 X AXAXAXAXAXAXAXAXAXAXAXAXAXAX",
"AXAXAXAXAXAXAXAXAXAXAXAXAXAX+ 4 (.pXjX6XA $ > j } e...b t t P S.T.L.S.P t y b ..e.<.j > % A 6XjXpX(.4   AXAXAXAXAXAXAXAXAXAXAXAXAXAX",
"AXAXAXAXAXAXAXAXAXAXAXAXAXAX  $ n ^ ~ A %     j ,.8.5.%.x r P H.I.I.J.P n x %.5.0.,.u +   & A ~ ^ n $   AXAXAXAXAXAXAXAXAXAXAXAXAXAX",
"AXAXAXAXAXAXAXAXAXAXAXAXAXAXAXAXO $ $ O AXAXAX# { 3.q.3.2.+.-.J.I.I.J.v.+.2.3.7.e.{ # AXAXAXO $ $ O AXAXAXAXAXAXAXAXAXAXAXAXAXAXAXAX",
"AXAXAXAXAXAXAXAXAXAXAXAXAXAXAXAXAX      AXAX    < [ <.9.e.5.d.V.C.C.V.d.s.,.,.<.{ i   AXAXAX      AXAXAXAXAXAXAXAXAXAXAXAXAXAXAXAXAX",
"AXAXAXAXAXAXAXAXAXAXAXAXAXAXAXAXAXAXAXAX        X > a $.s.q.w.r.t.t.r.w.e.,.o.i > #     AXAXAXAXAXAXAXAXAXAXAXAXAXAXAXAXAXAXAXAXAXAX",
"AXAXAXAXAXAXAXAXAXAXAXAXAXAXAXAXAXAXAXAX  . O & : = 8 x *...<.} } } } <.| +.f *       AXAXAXAXAXAXAXAXAXAXAXAXAXAXAXAXAXAXAXAXAXAXAX",
"AXAXAXAXAXAXAXAXAXAXAXAXAXAXAXAXAXAXAXAX  X - q J J G e t t c 2 < < < < 2 x b ;     AXAXAXAXAXAXAXAXAXAXAXAXAXAXAXAXAXAXAXAXAXAXAXAX",
"AXAXAXAXAXAXAXAXAXAXAXAXAXAXAXAXAXAXAXAXAX. - q K L L H G e ; *         + 8 0 -   AXAXAXAXAXAXAXAXAXAXAXAXAXAXAXAXAXAXAXAXAXAXAXAXAX",
"AXAXAXAXAXAXAXAXAXAXAXAXAXAXAXAXAXAXAXAXAXAXo - J L L L G 8 @ AXAXAXAXAXAX@ = O AXAXAXAXAXAXAXAXAXAXAXAXAXAXAXAXAXAXAXAXAXAXAXAXAXAX",
"AXAXAXAXAXAXAXAXAXAXAXAXAXAXAXAXAXAXAXAXAXAXAX. 8 H K K y .   AXAXAXAXAXAX    AXAXAXAXAXAXAXAXAXAXAXAXAXAXAXAXAXAXAXAXAXAXAXAXAXAXAX",
"AXAXAXAXAXAXAXAXAXAXAXAXAXAXAXAXAXAXAXAXAXAXAXAX. : 8 8 = AXAXAXAXAXAXAXAXAXAXAXAXAXAXAXAXAXAXAXAXAXAXAXAXAXAXAXAXAXAXAXAXAXAXAXAXAX",
"AXAXAXAXAXAXAXAXAXAXAXAXAXAXAXAXAXAXAXAXAXAXAXAX. . @ . . AXAXAXAXAXAXAXAXAXAXAXAXAXAXAXAXAXAXAXAXAXAXAXAXAXAXAXAXAXAXAXAXAXAXAXAXAX",
"AXAXAXAXAXAXAXAXAXAXAXAXAXAXAXAXAXAXAXAXAXAXAXAXAXAXAXAXAXAXAXAXAXAXAXAXAXAXAXAXAXAXAXAXAXAXAXAXAXAXAXAXAXAXAXAXAXAXAXAXAXAXAXAXAXAX",
"AXAXAXAXAXAXAXAXAXAXAXAXAXAXAXAXAXAXAXAXAXAXAXAXAXAXAXAXAXAXAXAXAXAXAXAXAXAXAXAXAXAXAXAXAXAXAXAXAXAXAXAXAXAXAXAXAXAXAXAXAXAXAXAXAXAX",
"AXAXAXAXAXAXAXAXAXAXAXAXAXAXAXAXAXAXAXAXAXAXAXAXAXAXAXAXAXAXAXAXAXAXAXAXAXAXAXAXAXAXAXAXAXAXAXAXAXAXAXAXAXAXAXAXAXAXAXAXAXAXAXAXAXAX",
"AXAXAXAXAXAXAXAXAXAXAXAXAXAXAXAXAXAXAXAXAXAXAXAXAXAXAXAXAXAXAXAXAXAXAXAXAXAXAXAXAXAXAXAXAXAXAXAXAXAXAXAXAXAXAXAXAXAXAXAXAXAXAXAXAXAX",
"AXAXAXAXAXAXAXAXAXAXAXAXAXAXAXAXAXAXAXAXAXAXAXAXAXAXAXAXAXAXAXAXAXAXAXAXAXAXAXAXAXAXAXAXAXAXAXAXAXAXAXAXAXAXAXAXAXAXAXAXAXAXAXAXAXAX",
"AXAXAXAXAXAXAXAXAXAXAXAXAXAXAXAXAXAXAXAXAXAXAXAXAXAXAXAXAXAXAXAXAXAXAXAXAXAXAXAXAXAXAXAXAXAXAXAXAXAXAXAXAXAXAXAXAXAXAXAXAXAXAXAXAXAX",
"AXAXAXAXAXAXAXAXAXAXAXAXAXAXAXAXAXAXAXAXAXAXAXAXAXAXAXAXAXAXAXAXAXAXAXAXAXAXAXAXAXAXAXAXAXAXAXAXAXAXAXAXAXAXAXAXAXAXAXAXAXAXAXAXAXAX",
"AXAXAXAXAXAXAXAXAXAXAXAXAXAXAXAXAXAXAXAXAXAXAXAXAXAXAXAXAXAXAXAXAXAXAXAXAXAXAXAXAXAXAXAXAXAXAXAXAXAXAXAXAXAXAXAXAXAXAXAXAXAXAXAXAXAX",
"AXAXAXAXAXAXAXAXAXAXAXAXAXAXAXAXAXAXAXAXAXAXAXAXAXAXAXAXAXAXAXAXAXAXAXAXAXAXAXAXAXAXAXAXAXAXAXAXAXAXAXAXAXAXAXAXAXAXAXAXAXAXAXAXAXAX",
"AXAXAXAXAXAXAXAXAXAXAXAXAXAXAXAXAXAXAXAXAXAXAXAXAXAXAXAXAXAXAXAXAXAXAXAXAXAXAXAXAXAXAXAXAXAXAXAXAXAXAXAXAXAXAXAXAXAXAXAXAXAXAXAXAXAX",
"AXAXAXAXAXAXAXAXAXAXAXAXAXAXAXAXAXAXAXAXAXAXAXAXAXAXAXAXAXAXAXAXAXAXAXAXAXAXAXAXAXAXAXAXAXAXAXAXAXAXAXAXAXAXAXAXAXAXAXAXAXAXAXAXAXAX",
"AXAXAXAXAXAXAXAXAXAXAXAXAXAXAXAXAXAXAXAXAXAXAXAXAXAXAXAXAXAXAXAXAXAXAXAXAXAXAXAXAXAXAXAXAXAXAXAXAXAXAXAXAXAXAXAXAXAXAXAXAXAXAXAXAXAX"
};
