/* XPM */
static char *result[] = {
/* columns rows colors chars-per-pixel */
"66 72 223 2 ",
"   c #010101",
".  c #0A0302",
"X  c #0C0906",
"o  c #050906",
"O  c #150906",
"+  c #0B1709",
"@  c #17180A",
"#  c #150D15",
"$  c #28070B",
"%  c #2F1501",
"&  c #340C0E",
"*  c #0D210A",
"=  c #013501",
"-  c #043801",
";  c #182B13",
":  c #18380F",
">  c #323113",
",  c #263823",
"<  c #312A25",
"1  c #4E0D11",
"2  c #671413",
"3  c #473C06",
"4  c #4B2715",
"5  c #583D1B",
"6  c #4F220A",
"7  c #6B3B1A",
"8  c #632E0E",
"9  c #543427",
"0  c #4E362C",
"q  c #6E2D27",
"w  c #6E302A",
"e  c #025301",
"r  c #09591F",
"t  c #0F400D",
"y  c #08701C",
"u  c #037A06",
"i  c #276F17",
"p  c #1B4326",
"a  c #397B24",
"s  c #376823",
"d  c #574C1F",
"f  c #4E4F1C",
"g  c #78461F",
"h  c #714C1B",
"j  c #63601F",
"k  c #435B25",
"l  c #4F4436",
"z  c #574B3B",
"x  c #5D4022",
"c  c #684B23",
"v  c #784A26",
"b  c #765A35",
"n  c #7F4732",
"m  c #6F6C2F",
"M  c #716321",
"N  c #45397A",
"B  c #5C5543",
"V  c #735A46",
"C  c #745347",
"Z  c #576C4A",
"A  c #85191A",
"S  c #863D1E",
"D  c #8D0028",
"F  c #A61722",
"G  c #9D2D20",
"H  c #F82C2F",
"J  c #C8252A",
"K  c #987D1B",
"L  c #895A2D",
"P  c #8A5E31",
"I  c #865B3A",
"U  c #935332",
"Y  c #936738",
"T  c #956A2D",
"R  c #A87C3C",
"E  c #94684A",
"W  c #9F7646",
"Q  c #866A56",
"!  c #8D6E52",
"~  c #A66849",
"^  c #A57D42",
"/  c #A37955",
"(  c #897A69",
")  c #A97C65",
"_  c #099806",
"`  c #25841B",
"'  c #10AC09",
"]  c #11AF11",
"[  c #09B00D",
"{  c #1C9F20",
"}  c #338F23",
"|  c #239923",
" . c #3D9E29",
".. c #2E8621",
"X. c #2FA921",
"o. c #33BA26",
"O. c #419E10",
"+. c #44A010",
"@. c #419929",
"#. c #469327",
"$. c #568E2A",
"%. c #6D8F37",
"&. c #48A12C",
"*. c #43A62A",
"=. c #55A626",
"-. c #4ABB28",
";. c #6BAE38",
":. c #03DA06",
">. c #17CB16",
",. c #13DE12",
"<. c #2DC71B",
"1. c #37C210",
"2. c #23DA16",
"3. c #31DB1F",
"4. c #02FE04",
"5. c #0DFE06",
"6. c #00F809",
"7. c #09F808",
"8. c #09F708",
"9. c #11FC07",
"0. c #12FC08",
"q. c #1BF414",
"w. c #03E512",
"e. c #21F217",
"r. c #35D520",
"t. c #35CE25",
"y. c #53FF0C",
"u. c #75F905",
"i. c #75FA07",
"p. c #6CE90B",
"a. c #66DB26",
"s. c #568953",
"d. c #58B160",
"f. c #7FA271",
"g. c #ADA817",
"h. c #B48D33",
"j. c #B8A725",
"k. c #908D20",
"l. c #C3951D",
"z. c #CCB91C",
"x. c #CDB211",
"c. c #C2813B",
"v. c #D4B634",
"b. c #E6B838",
"n. c #B9CC12",
"m. c #D4C910",
"M. c #E3D908",
"N. c #F6D417",
"B. c #EFDB17",
"V. c #D2E909",
"C. c #E8E306",
"Z. c #F2EB0A",
"A. c #FCF602",
"S. c #FDFC00",
"D. c #F5F203",
"F. c #F7E815",
"G. c #FCF018",
"H. c #E4C726",
"J. c #EACB35",
"K. c #EED42E",
"L. c #F5E422",
"P. c #D8C32B",
"I. c #8F824D",
"U. c #B28248",
"Y. c #A9855B",
"T. c #B58456",
"R. c #B7925A",
"E. c #B2884B",
"W. c #948D75",
"Q. c #A68765",
"!. c #B98A68",
"~. c #AE9A6D",
"^. c #BB986A",
"/. c #BD9876",
"(. c #9FA665",
"). c #8FB86D",
"_. c #85B574",
"`. c #A5AC6B",
"'. c #C68D53",
"]. c #C69753",
"[. c #CC9B4C",
"{. c #DDB345",
"}. c #D1A64A",
"|. c #E6B84A",
" X c #C19C76",
".X c #C6A47B",
"XX c #D8AD74",
"oX c #DAB27D",
"OX c #EBCD74",
"+X c #4B59B4",
"@X c #2538C7",
"#X c #5D6FC5",
"$X c #425DF8",
"%X c #4F72FD",
"&X c #9BA8B7",
"*X c #C9A885",
"=X c #D4B48A",
"-X c #D8BB94",
";X c #E9BD9B",
":X c #D9BBA1",
">X c #B4E9A0",
",X c #DBC29C",
"<X c #E1C499",
"1X c #E9C68E",
"2X c #ECCCA2",
"3X c #ECD2A9",
"4X c #F4D8AD",
"5X c #F5DBB3",
"6X c #F9DEB1",
"7X c #F0C4A5",
"8X c #C6FFAB",
"9X c #D5FEB7",
"0X c #CBE9A8",
"qX c #FEE7B9",
"wX c #A9A7D5",
"eX c #FDEDC5",
"rX c #FEF5C8",
"tX c #F1E2DE",
"yX c #FFFBD5",
"uX c #C4CBF6",
"iX c #FFFFF8",
"pX c #EBE9EC",
"aX c None",
/* pixels */
"aXaXaXaXaXaXaXaXaXaXaXaXaXaXaXaXaXaXaXaXaXaXaXaXaXaXaXaXaXaXaXaXaXaXaXaXaXaXaXaXaXaXaXaXaXaXaXaXaXaXaXaXaXaXaXaXaXaXaXaXaXaXaXaXaXaX",
"aXaXaXaXaXaXaXaXaXaXaXaXaXaXaXaXaXaXaXaXaXaXaXaXaXaXaXaXaXaXaXaXaXaXaXaXaXaXaXaXaXaXaXaXaXaXaXaXaXaXaXaXaXaXaXaXaXaXaXaXaXaXaXaXaXaX",
"aXaXaXaXaXaXaXaXaXaXaXaXaXaXaXaXaXaXaXaXaXaXaXaXaXaXaXaXaXaXaXaXaXaXaXaXaXaXaXaXaXaXaXaXaXaXaXaXaXaXaXaXaXaXaXaXaXaXaXaXaXaXaXaXaXaX",
"aXaXaXaXaXaXaXaXaXaXaXaXaXaXaXaXaXaXaXaXaXaXaXaXaXaXaXaXaXaXaXaXaXaXaXaXaXaXaXaXaXaXaXaXaXaXaXaXaXaXaXaXaXaXaXaXaXaXaXaXaXaXaXaXaXaX",
"aXaXaXaXaXaXaXaXaXaXaXaXaXaXaXaXaXaXaXaXaXaXaXaXaXaXaXaXaXaXaXaXaXaXaXaXaXaXaXaXaXaXaXaXaXaXaXaXaXaXaXaXaXaXaXaXaXaXaXaXaXaXaXaXaXaX",
"aXaXaXaXaXaXaXaXaXaXaXaXaXaXaXaXaXaXaXaXaXaXaXaXaXaXaXaXaXaXaXaXaXaXaXaXaXaXaXaXaXaXaXaXaXaXaXaXaXaXaXaXaXaXaXaXaXaXaXaXaXaXaXaXaXaX",
"aXaXaXaXaXaXaXaXaXaXaXaXaXaXaXaXaXaXaXaXaXaXaXaXaXaXaXaXaXaXaXaXaXaXaXaXaXaXaXaXaXaXaXaXaXaXaXaXaXaXaXaXaXaXaXaXaXaXaXaXaXaXaXaXaXaX",
"aXaXaXaXaXaXaXaXaXaXaXaXaXaXaXaXaXaXaXaXaXaXaXaXaXaXaXaXaXaXaXaXaXaXaXaXaXaXaXaXaXaXaXaXaXaXaXaXaXaXaXaXaXaXaXaXaXaXaXaXaXaXaXaXaXaX",
"aXaXaXaXaXaXaXaXaXaXaXaXaXaXaXaXaXaXaXaXaXaXaXaXaXaXaXaXaXaXaXaXaXaXaXaXaXaXaXaXaXaXaXaXaXaXaXaXaXaXaXaXaXaXaXaXaXaXaXaXaXaXaXaXaXaX",
"aXaXaXaXaXaXaXaXaXaXaXaXaXaXaXaXaXaXaXaXaXaXaXaXaXaXaXaXaXaXaXaXaXaXaXaXaXaXaXaXaXaXaXaXaXaXaXaXaXaXaXaXaXaXaXaXaXaXaXaXaXaXaXaXaXaX",
"aXaXaXaXaXaXaXaXaXaXaXaXaXaXaXaXaXaXaXaXaXaXaXaXaXaXaXaXaXaXaXaXaXaXaXaXaXaXaXaXaXaXaXaXaXaXaXaXaXaXaXaXaXaXaXaXaXaXaXaXaXaXaXaXaXaX",
"aXaXaXaXaXaXaXaXaXaXaXaXaXaXaXaXaXaXaXaXaXaXaXaXaXaXaXaXaXaXaXaXaXaXaXaXaXaXaXaXaXaXaXaXaXaXaXaXaXaXaXaXaXaXaXaXaXaXaXaXaXaXaXaXaXaX",
"aXaXaXaXaXaXaXaXaXaXaXaXaXaXaXaXaXaXaXaXaXaXaXaXaXaXaXaXaXaXaXaXaXaXaXaXaXaXaXaXaXaXaXaXaXaXaXaXaXaXaXaXaXaXaXaXaXaXaXaXaXaXaXaXaXaX",
"aXaXaXaXaXaXaXaXaXaXaXaXaXaXaXaXaXaXaXaXaXaXaXaXaXaXaXaXaXaXaXaXaXaXaXaXaXaXaXaXaXaXaXaXaXaXaXaXaXaXaXaXaXaXaXaXaXaXaXaXaXaXaXaXaXaX",
"aXaXaXaXaXaXaXaXaXaXaXaXaXaXaXaXaXaXaXaXaXaXaXaXaXaXaXaXaXaXaXaXaXaXaXaXaXaXaXaXaXaXaXaXaXaXaXaXaXaXaXaXaXaXaXaXaXaXaXaXaXaXaXaXaXaX",
"aXaXaXaXaXaXaXaXaXaXaXaXaXaXaXaXaXaXaXaXaXaXaXaXaXaXaXaXaXaXaXaXaXaXaXaXaXaXaXaXaXaXaXaXaXaXaXaXaXaXaXaXaXaXaXaXaXaXaXaXaXaXaXaXaXaX",
"aXaXaXaXaXaXaXaXaXaXaXaXaXaXaXaXaXaXaXaXaXaXaXaXaXaXaXaXaXaXaXaXaXaXaXaXaXaXaXaXaXaXaXaXaXaXaXaXaXaXaXaXaXaXaXaXaXaXaXaXaXaXaXaXaXaX",
"aXaXaXaXaXaXaXaXaXaXaXaXaXaXaXaXaXaXaXaXaXaXaXaXaXaXaXaX  t *.*.*.*.*. .t   aXaXaXaXaXaXaXaXaXaXaXaXaXaXaXaXaXaXaXaXaXaXaXaXaXaXaXaX",
"aXaXaXaXaXaXaXaXaXaXaXaXaXaXaXaXaXaXaXaXaXaXaXaXaXaXaX  ; i <.<.<.<.r.<.i ;   aXaXaXaXaXaXaXaXaXaXaXaXaXaXaXaXaXaXaXaXaXaXaXaXaXaXaX",
"aXaXaXaXaXaXaXaXaXaXaXaXaXaXaXaXaXaXaXaXaXaXaXaXaXaX  + a r.0.5.9.8.5.0.r.a +   aXaXaXaXaXaXaXaXaXaXaXaXaXaXaXaXaXaXaXaXaXaXaXaXaXaX",
"aXaXaXaXaXaXaXaXaXaXaXaXaXaXaXaXaXaXaXaXaXaXaXaXaX  e ' 2.e.5.5.9.5.5.5.e.2.' e   aXaXaXaXaXaXaXaXaXaXaXaXaXaXaXaXaXaXaXaXaXaXaXaXaX",
"aXaXaXaXaXaXaXaXaXaXaXaXaXaXaXaXaXaXaXaXaXaXaXaXo * [ 5.4.4.8.8.8.8.8.8.4.5.5.' + o aXaXaXaXaXaXaXaXaXaXaXaXaXaXaXaXaXaXaXaXaXaXaXaX",
"aXaXaXaXaXaXaXaXaXaXaXaXaXaXaXaXaXaXaXaXaXaXaX  * ..,.4.4.6.6.6.6.6.6.6.4.4.4.2.a *   aXaXaXaXaXaXaXaXaXaXaXaXaXaXaXaXaXaXaXaXaXaXaX",
"aXaXaXaXaXaXaXaXaXaXaXaXaXaXaXaXaXaXaXaXaXaXo : s %.;.a.u.u.u.u.u.u.u.u.i.p.-.t.2.i : o aXaXaXaXaXaXaXaXaXaXaXaXaXaXaXaXaXaXaXaXaXaX",
"aXaXaXaXaXaXaXaXaXaXaXaXaXaXaXaXaXaXaXaXaX  + ` ;.^ '.|.F.S.S.A.A.A.A.S.S.B.c.=.0.r.a +   aXaXaXaXaXaXaXaXaXaXaXaXaXaXaXaXaXaXaXaXaX",
"aXaXaXaXaXaXaXaXaXaXaXaXaXaXaXaXaXaXaXaXaX<   > k.m.N.F.A.S.S.S.A.A.S.S.S.S.N.j.%.-.` o < aXaXaXaXaXaXaXaXaXaXaXaXaXaXaXaXaXaXaXaXaX",
"aXaXaXaXaXaXaXaXaXaXaXaXaXaXaXaXaXaXaXaXaXV O q l.S.S.F.D.D.D.S.A.A.S.S.C.C.S.N.c.%.i O C aXaXaXaXaXaXaXaXaXaXaXaXaXaXaXaXaXaXaXaXaX",
"aXaXaXaXaXaXaXaXaXaXaXaXaXaXaXaXaXaXU.R.=X! 8 ~ J.S.K.{.Z.S.S.D.S.S.S.S.j.h.D.S.M.K 4 6 E =XR.^ aXaXaXaXaXaXaXaXaXaXaXaXaXaXaXaXaXaX",
"aXaXaXaXaXaXaXaXaXaXaXaXaXaXaXaXaXaXP Q.3X!.L H.L.z.v.K.Z.S.D.S.A.F.H.z.E.Q.l.C.S.x.~ !.,X3X!.P aXaXaXaXaXaXaXaXaXaXaXaXaXaXaXaXaXaX",
"aXaXaXaXaXaXaXaXaXaXaXaXaXaXaXaXaXaX7 / 5X*Xh.M.m.^ z.S.S.A.D.S.F.{.E.~ .X*X/ z.A.H.XX5XrX3XE 7 aXaXaXaXaXaXaXaXaXaXaXaXaXaXaXaXaXaX",
"aXaXaXaXaXaXaXaXaXaXaXaXaXaXaXaXaXaXaXL /  X XK K '.K.S.S.S.S.L.{.E.Q. X*X=X:XOXJ.h.!.2X=X! v aXaXaXaXaXaXaXaXaXaXaXaXaXaXaXaXaXaXaX",
"aXaXaXaXaXaXaXaXaXaXaXaXaXaXaXaXaXaXaXaX% Q.=XI U ].K.G.F.F.F.{.T.P / -X-X3XeX-XU.h.h.^.E 8 aXaXaXaXaXaXaXaXaXaXaXaXaXaXaXaXaXaXaXaX",
"aXaXaXaXaXaXaXaXaXaXaXaXaXaXaXaXaXaXaXaXo Q -XY.Y U.}.|.|.|.|.[.Y h E *XqXqX4X) v x.M.T 7 aXaXaXaXaXaXaXaXaXaXaXaXaXaXaXaXaXaXaXaXaX",
"aXaXaXaXaXaXaXaXaXaXaXaXaXaXaXaXaXaXaXaX  0 ].P.j.P 9 7 R [.R.Y v I !.-XoXI.z 0 L Z.C.3 & aXaXaXaXaXaXaXaXaXaXaXaXaXaXaXaXaXaXaXaXaX",
"aXaXaXaXaXaXaXaXaXaXaXaXaXaXaXaXaXaXaXaX  $ S D.M.g O # b ^ Y g I .X<X*XE 4 . < h.F.m.@   aXaXaXaXaXaXaXaXaXaXaXaXaXaXaXaXaXaXaXaXaX",
"aXaXaXaXaXaXaXaXaXaXaXaXaXaXaXaXaXaXaXaXaXo > b.b.g W.wX#XN 7 P .X5XXXv N +X&XW.L b.v.@   aXaXaXaXaXaXaXaXaXaXaXaXaXaXaXaXaXaXaXaXaX",
"aXaXaXaXaXaXaXaXaXaXaXaXaXaXaXaXaXaXaXaXaXaXo b L 4 ,XiX%X@X! .X4XeX=XQ @X%XiX-X4 L b O aXaXaXaXaXaXaXaXaXaXaXaXaXaXaXaXaXaXaXaXaXaX",
"aXaXaXaXaXaXaXaXaXaXaXaXaXaXaXaXaXaXaXaXaXaXaXX . . ~.tX$X%XpXeX6X6XeXpX%X$XtX~.. X X aXaXaXaXaXaXaXaXaXaXaXaXaXaXaXaXaXaXaXaXaXaXaX",
"aXaXaXaXaXaXaXaXaXaXaXaXaXaXaXaXaXaXaXaXaXaXaXaX    b -XwXuXiXyXqXqXyXiXuXwX-Xb     aXaXaXaXaXaXaXaXaXaXaXaXaXaXaXaXaXaXaXaXaXaXaXaX",
"aXaXaXaXaXaXaXaXaXaXaXaXaXaXaXaXaXaXaXaXaXaXaXaXaX+ d U.1XqX4X6X5X5X5X4XqX1X^ 9 @ aXaXaXaXaXaXaXaXaXaXaXaXaXaXaXaXaXaXaXaXaXaXaXaXaX",
"aXaXaXaXaXaXaXaXaXaXaXaXaXaXaXaXaXaXaXaXaXaXaX  , _.! S U '.<X7X;X;X7X;X!.U S I._.,   aXaXaXaXaXaXaXaXaXaXaXaXaXaXaXaXaXaXaXaXaXaXaX",
"aXaXaXaXaXaXaXaXaXaXaXaXaXaXaXaXaXaXaXaXaXaXaX, _.9X).> f m (.`.(.(.`.(.m 3 > ).9X_., aXaXaXaXaXaXaXaXaXaXaXaXaXaXaXaXaXaXaXaXaXaXaX",
"aXaXaXaXaXaXaXaXaXaXaXaXaXaXaXaXaXaXaXaX    + _.8X8Xd.y ` @.&.&.&.&.&.&.*.} y d.8X9X_.+     aXaXaXaXaXaXaXaXaXaXaXaXaXaXaXaXaXaXaXaX",
"aXaXaXaXaXaXaXaXaXaXaXaXaXaXaXaXaXaX  < ( W.W.9X>XZ l k  .o.X.| | | | X.o. .k 0 Z >X9XW.W.( <   aXaXaXaXaXaXaXaXaXaXaXaXaXaXaXaXaXaX",
"aXaXaXaXaXaXaXaXaXaXaXaXaXaXaXaXaXaX  l qXyXqX0Xs.  % M $. . .=.=.=.=. .#.$.M %   s.0XqXyXqXz   aXaXaXaXaXaXaXaXaXaXaXaXaXaXaXaXaXaX",
"aXaXaXaXaXaXaXaXaXaXaXaXaXaXaXaXaXaX  l <XrX<XB ; r ] 1.j q c g.V.V.g.c q j 1.] r ; B <XrX2Xl   aXaXaXaXaXaXaXaXaXaXaXaXaXaXaXaXaXaX",
"aXaXaXaXaXaXaXaXaXaXaXaXaXaXaXaXaXaX  < Q Q.V .   r w.9.} d c x.S.S.x.c f +.9.w.r   . V Q.Q <   aXaXaXaXaXaXaXaXaXaXaXaXaXaXaXaXaXaX",
"aXaXaXaXaXaXaXaXaXaXaXaXaXaXaXaXaXaXaXaXo o o aXaX  _ 9.9.>. .n.S.S.n.&.>.5.9._   aXaXo o o aXaXaXaXaXaXaXaXaXaXaXaXaXaXaXaXaXaXaXaX",
"aXaXaXaXaXaXaXaXaXaXaXaXaXaXaXaXaXaXaXaXaXaXaXaX    = u >.e.q.y.i.i.y.e.w.[ u -   aXaXaXaXaXaXaXaXaXaXaXaXaXaXaXaXaXaXaXaXaXaXaXaXaX",
"aXaXaXaXaXaXaXaXaXaXaXaXaXaXaXaXaXaXaXaXaXaXaX    O O $ k &.2.:.:.:.:.:.| p       aXaXaXaXaXaXaXaXaXaXaXaXaXaXaXaXaXaXaXaXaXaXaXaXaX",
"aXaXaXaXaXaXaXaXaXaXaXaXaXaXaXaXaXaXaXaXaXaXaX  @ 7 G F q q v : - = = - f 9 O   aXaXaXaXaXaXaXaXaXaXaXaXaXaXaXaXaXaXaXaXaXaXaXaXaXaX",
"aXaXaXaXaXaXaXaXaXaXaXaXaXaXaXaXaXaXaXaXaXaXaXaX@ 4 J H J D 1 $         & 4 X aXaXaXaXaXaXaXaXaXaXaXaXaXaXaXaXaXaXaXaXaXaXaXaXaXaXaX",
"aXaXaXaXaXaXaXaXaXaXaXaXaXaXaXaXaXaXaXaXaXaXaXaXaX  A H H A   aXaXaXaXaX    aXaXaXaXaXaXaXaXaXaXaXaXaXaXaXaXaXaXaXaXaXaXaXaXaXaXaXaX",
"aXaXaXaXaXaXaXaXaXaXaXaXaXaXaXaXaXaXaXaXaXaXaXaXaXaX$ 2 2 & aXaXaXaXaXaXaXaXaXaXaXaXaXaXaXaXaXaXaXaXaXaXaXaXaXaXaXaXaXaXaXaXaXaXaXaX",
"aXaXaXaXaXaXaXaXaXaXaXaXaXaXaXaXaXaXaXaXaXaXaXaXaXaX        aXaXaXaXaXaXaXaXaXaXaXaXaXaXaXaXaXaXaXaXaXaXaXaXaXaXaXaXaXaXaXaXaXaXaXaX",
"aXaXaXaXaXaXaXaXaXaXaXaXaXaXaXaXaXaXaXaXaXaXaXaXaXaXaXaXaXaXaXaXaXaXaXaXaXaXaXaXaXaXaXaXaXaXaXaXaXaXaXaXaXaXaXaXaXaXaXaXaXaXaXaXaXaX",
"aXaXaXaXaXaXaXaXaXaXaXaXaXaXaXaXaXaXaXaXaXaXaXaXaXaXaXaXaXaXaXaXaXaXaXaXaXaXaXaXaXaXaXaXaXaXaXaXaXaXaXaXaXaXaXaXaXaXaXaXaXaXaXaXaXaX",
"aXaXaXaXaXaXaXaXaXaXaXaXaXaXaXaXaXaXaXaXaXaXaXaXaXaXaXaXaXaXaXaXaXaXaXaXaXaXaXaXaXaXaXaXaXaXaXaXaXaXaXaXaXaXaXaXaXaXaXaXaXaXaXaXaXaX",
"aXaXaXaXaXaXaXaXaXaXaXaXaXaXaXaXaXaXaXaXaXaXaXaXaXaXaXaXaXaXaXaXaXaXaXaXaXaXaXaXaXaXaXaXaXaXaXaXaXaXaXaXaXaXaXaXaXaXaXaXaXaXaXaXaXaX",
"aXaXaXaXaXaXaXaXaXaXaXaXaXaXaXaXaXaXaXaXaXaXaXaXaXaXaXaXaXaXaXaXaXaXaXaXaXaXaXaXaXaXaXaXaXaXaXaXaXaXaXaXaXaXaXaXaXaXaXaXaXaXaXaXaXaX",
"aXaXaXaXaXaXaXaXaXaXaXaXaXaXaXaXaXaXaXaXaXaXaXaXaXaXaXaXaXaXaXaXaXaXaXaXaXaXaXaXaXaXaXaXaXaXaXaXaXaXaXaXaXaXaXaXaXaXaXaXaXaXaXaXaXaX",
"aXaXaXaXaXaXaXaXaXaXaXaXaXaXaXaXaXaXaXaXaXaXaXaXaXaXaXaXaXaXaXaXaXaXaXaXaXaXaXaXaXaXaXaXaXaXaXaXaXaXaXaXaXaXaXaXaXaXaXaXaXaXaXaXaXaX",
"aXaXaXaXaXaXaXaXaXaXaXaXaXaXaXaXaXaXaXaXaXaXaXaXaXaXaXaXaXaXaXaXaXaXaXaXaXaXaXaXaXaXaXaXaXaXaXaXaXaXaXaXaXaXaXaXaXaXaXaXaXaXaXaXaXaX",
"aXaXaXaXaXaXaXaXaXaXaXaXaXaXaXaXaXaXaXaXaXaXaXaXaXaXaXaXaXaXaXaXaXaXaXaXaXaXaXaXaXaXaXaXaXaXaXaXaXaXaXaXaXaXaXaXaXaXaXaXaXaXaXaXaXaX",
"aXaXaXaXaXaXaXaXaXaXaXaXaXaXaXaXaXaXaXaXaXaXaXaXaXaXaXaXaXaXaXaXaXaXaXaXaXaXaXaXaXaXaXaXaXaXaXaXaXaXaXaXaXaXaXaXaXaXaXaXaXaXaXaXaXaX",
"aXaXaXaXaXaXaXaXaXaXaXaXaXaXaXaXaXaXaXaXaXaXaXaXaXaXaXaXaXaXaXaXaXaXaXaXaXaXaXaXaXaXaXaXaXaXaXaXaXaXaXaXaXaXaXaXaXaXaXaXaXaXaXaXaXaX",
"aXaXaXaXaXaXaXaXaXaXaXaXaXaXaXaXaXaXaXaXaXaXaXaXaXaXaXaXaXaXaXaXaXaXaXaXaXaXaXaXaXaXaXaXaXaXaXaXaXaXaXaXaXaXaXaXaXaXaXaXaXaXaXaXaXaX",
"aXaXaXaXaXaXaXaXaXaXaXaXaXaXaXaXaXaXaXaXaXaXaXaXaXaXaXaXaXaXaXaXaXaXaXaXaXaXaXaXaXaXaXaXaXaXaXaXaXaXaXaXaXaXaXaXaXaXaXaXaXaXaXaXaXaX",
"aXaXaXaXaXaXaXaXaXaXaXaXaXaXaXaXaXaXaXaXaXaXaXaXaXaXaXaXaXaXaXaXaXaXaXaXaXaXaXaXaXaXaXaXaXaXaXaXaXaXaXaXaXaXaXaXaXaXaXaXaXaXaXaXaXaX",
"aXaXaXaXaXaXaXaXaXaXaXaXaXaXaXaXaXaXaXaXaXaXaXaXaXaXaXaXaXaXaXaXaXaXaXaXaXaXaXaXaXaXaXaXaXaXaXaXaXaXaXaXaXaXaXaXaXaXaXaXaXaXaXaXaXaX",
"aXaXaXaXaXaXaXaXaXaXaXaXaXaXaXaXaXaXaXaXaXaXaXaXaXaXaXaXaXaXaXaXaXaXaXaXaXaXaXaXaXaXaXaXaXaXaXaXaXaXaXaXaXaXaXaXaXaXaXaXaXaXaXaXaXaX",
"aXaXaXaXaXaXaXaXaXaXaXaXaXaXaXaXaXaXaXaXaXaXaXaXaXaXaXaXaXaXaXaXaXaXaXaXaXaXaXaXaXaXaXaXaXaXaXaXaXaXaXaXaXaXaXaXaXaXaXaXaXaXaXaXaXaX"
};
