/* XPM */
static char *result[] = {
/* columns rows colors chars-per-pixel */
"44 52 12 1 ",
"  c #000001",
". c #107828",
"X c #704020",
"o c #A07840",
"O c #40A028",
"+ c #10F808",
"@ c #F8F800",
"# c #D8A850",
"$ c #D0B088",
"% c #B8F8A0",
"& c #F8E0B8",
"* c #489848",
/* pixels */
"****************  ooooooXX******************",
"****************  ooooooXX******************",
"**************  oo@@@@@@@@##oo**************",
"**************  oo@@@@@@@@##oo**************",
"************  OO++++++++++++OOoo************",
"************  OO++++++++++++OOoo************",
"************  ++++++++++++++++..XX**********",
"************  ++++++++++++++++..XX**********",
"**********  ..++++++++++++++++OOoo**********",
"**********  ..++++++++++++++++OOoo**********",
"**********  OOOO++++++++++++OOOO..XX********",
"**********  OOOO++++++++++++OOOO..XX********",
"******oo$$..OOOOOO++++++++++OOOO..$$oo******",
"******oo$$..OOOOOO++++++++++OOOO..$$oo******",
"****XX&&&&..OO  OOOO++++++OOOO  ..&&&&XX****",
"****XX&&&&..OO  OOOO++++++OOOO  ..&&&&XX****",
"******XXoo....  OOOOOO++++OO  ....ooXX******",
"******XXoo....  OOOOOO++++OO  ....ooXX******",
"********XXXX..  ..OOOOOOOOOO  ..XXXX********",
"********XXXX..  ..OOOOOOOOOO  ..XXXX********",
"********  @@XX..  ..OOOOOO..  XX@@  ********",
"********  @@XX..  ..OOOOOO..  XX@@  ********",
"**********  oo@@..  OOOOOO  @@oo  **********",
"**********  oo@@..  OOOOOO  @@oo  **********",
"************    @@  ..OO..      ************",
"************    @@  ..OO..      ************",
"************  ..OOOO  ....  XX  ************",
"************  ..OOOO  ....  XX  ************",
"************  %%OOOOOO    OO%%  ************",
"************  %%OOOOOO    OO%%  ************",
"**********  %%%%XX..OOOOOOXX  **************",
"**********  %%%%XX..OOOOOOXX  **************",
"********  $$&&$$  XXXXXXXX++OO  ************",
"********  $$&&$$  XXXXXXXX++OO  ************",
"********  &&&&  ..++++++++++OO  ************",
"********  &&&&  ..++++++++++OO  ************",
"**********      OO++++++      **************",
"**********      OO++++++      **************",
"****************        &&$$  **************",
"****************        &&$$  **************",
"**********************  &&&&$$  ************",
"**********************  &&&&$$  ************",
"**********************  &&&&$$  ************",
"**********************  &&&&$$  ************",
"**********************  $$$$XX  ************",
"**********************  $$$$XX  ************",
"************************      **************",
"************************      **************",
"********************************************",
"********************************************",
"********************************************",
"********************************************"
};
