/* XPM */
static char *result[] = {
/* columns rows colors chars-per-pixel */
"64 64 12 1 ",
"  c #000001",
". c #107828",
"X c #704020",
"o c #A07840",
"O c #40A028",
"+ c #10F808",
"@ c #F8F800",
"# c #D8A850",
"$ c #D0B088",
"% c #B8F8A0",
"& c #F8E0B8",
"* c #489848",
/* pixels */
"****************************************************************",
"****************************************************************",
"****************************************************************",
"****************************************************************",
"****************************************************************",
"****************************************************************",
"**************************  ooooooXX****************************",
"**************************  ooooooXX****************************",
"************************  ##@@@@@@@@##oo************************",
"************************  ##@@@@@@@@##oo************************",
"**********************  OO++++++++++++OOoo**********************",
"**********************  OO++++++++++++OOoo**********************",
"**********************  ++++++++++++++++..XX********************",
"**********************  ++++++++++++++++..XX********************",
"********************  ..++++++++++++++++OOoo********************",
"********************  ..++++++++++++++++OOoo********************",
"********************  OO++++++++++++OOOOOO..********************",
"********************  OO++++++++++++OOOOOO..********************",
"****************oo$$..OOOO++++++++++OOOOOO..$$oo****************",
"****************oo$$..OOOO++++++++++OOOOOO..$$oo****************",
"**************XX&&&&..  OOOO++++++OOOO  OO..&&&&XX**************",
"**************XX&&&&..  OOOO++++++OOOO  OO..&&&&XX**************",
"****************XXoo..  ..OOOOOOOOOO..  ....ooXX****************",
"****************XXoo..  ..OOOOOOOOOO..  ....ooXX****************",
"******************XXXX..  OOOOOOOO..  ....XXXX******************",
"******************XXXX..  OOOOOOOO..  ....XXXX******************",
"******************  @@XX  ..OOOOOO..  ..XX@@  ******************",
"******************  @@XX  ..OOOOOO..  ..XX@@  ******************",
"********************  oo@@  OOOO..  @@@@oo  ********************",
"********************  oo@@  OOOO..  @@@@oo  ********************",
"**********************      OOOO  @@      **********************",
"**********************      OOOO  @@      **********************",
"**********************  XX  ....  ......  **********************",
"**********************  XX  ....  ......  **********************",
"**********************  %%OO    ....OO%%  **********************",
"**********************  %%OO    ....OO%%  **********************",
"************************  XXOOOOOOOOXX%%%%  ********************",
"************************  XXOOOOOOOOXX%%%%  ********************",
"**********************  ++++XXXXXXXX  $$&&$$  ******************",
"**********************  ++++XXXXXXXX  $$&&$$  ******************",
"**********************  OO++++++++++..  &&&&  ******************",
"**********************  OO++++++++++..  &&&&  ******************",
"************************      ++++++OO      ********************",
"************************      ++++++OO      ********************",
"************************  $$&&        **************************",
"************************  $$&&        **************************",
"**********************  $$&&&&  ********************************",
"**********************  $$&&&&  ********************************",
"**********************  $$&&&&  ********************************",
"**********************  $$&&&&  ********************************",
"**********************  XX$$$$  ********************************",
"**********************  XX$$$$  ********************************",
"************************      **********************************",
"************************      **********************************",
"****************************************************************",
"****************************************************************",
"****************************************************************",
"****************************************************************",
"****************************************************************",
"****************************************************************",
"****************************************************************",
"****************************************************************",
"****************************************************************",
"****************************************************************"
};
