/* XPM */
static char *result[] = {
/* columns rows colors chars-per-pixel */
"44 52 12 1 ",
"  c #000001",
". c #107828",
"X c #704020",
"o c #A07840",
"O c #40A028",
"+ c #10F808",
"@ c #F8F800",
"# c #D8A850",
"$ c #D0B088",
"% c #B8F8A0",
"& c #F8E0B8",
"* c #489848",
/* pixels */
"******************  ooooooXX****************",
"******************  ooooooXX****************",
"****************  ++++++++++oo**************",
"****************  ++++++++++oo**************",
"**************  ++++++++++++@@oo************",
"**************  ++++++++++++@@oo************",
"************  ++++++++++++++++##XX**********",
"************  ++++++++++++++++##XX**********",
"**********  ..++++++++++++++++OOXX**********",
"**********  ..++++++++++++++++OOXX**********",
"**********  OO++++++++++++++++OOoo**********",
"**********  OO++++++++++++++++OOoo**********",
"**********  OO  ++++++++++++++  ..XX********",
"**********  OO  ++++++++++++++  ..XX********",
"******oo$$..OO  OO++++++++++OO  ..$$oo******",
"******oo$$..OO  OO++++++++++OO  ..$$oo******",
"****XX&&&&..OOOO  OO++++++++OO  ..&&&&XX****",
"****XX&&&&..OOOO  OO++++++++OO  ..&&&&XX****",
"******XXoo....OO  ..OO++++OO  ....ooXX******",
"******XXoo....OO  ..OO++++OO  ....ooXX******",
"********XXXX......  ..OOOOOO  ..XXXX********",
"********XXXX......  ..OOOOOO  ..XXXX********",
"**********  @@XX....  OOOOOO  @@  **********",
"**********  @@XX....  OOOOOO  @@  **********",
"************  ##@@@@  ..OOOO    ************",
"************  ##@@@@  ..OOOO    ************",
"************  XX......  ....    ************",
"************  XX......  ....    ************",
"**********  %%%%..OOOOOO    %%%%  **********",
"**********  %%%%..OOOOOO    %%%%  **********",
"**********  %%  OOOOOOOOOOOOXX%%%%  ********",
"**********  %%  OOOOOOOOOOOOXX%%%%  ********",
"**********    XXOOOOOOOOOOOO  %%&&$$  ******",
"**********    XXOOOOOOOOOOOO  %%&&$$  ******",
"************  ++XXXXXXXXXXXX..  &&&&  ******",
"************  ++XXXXXXXXXXXX..  &&&&  ******",
"************  OO++++++++++++OO..    ********",
"************  OO++++++++++++OO..    ********",
"**************  OO++++++++++OO  ************",
"**************  OO++++++++++OO  ************",
"**************                **************",
"**************                **************",
"************  $$$$XX  **********************",
"************  $$$$XX  **********************",
"************  oooo  ************************",
"************  oooo  ************************",
"**************    **************************",
"**************    **************************",
"********************************************",
"********************************************",
"********************************************",
"********************************************"
};
