/* XPM */
static char *result[] = {
/* columns rows colors chars-per-pixel */
"66 72 230 2 ",
"   c #020201",
".  c #0B0203",
"X  c #040A03",
"o  c #0C0A05",
"O  c #020309",
"+  c #0C0B0B",
"@  c #000B09",
"#  c #1A0102",
"$  c #19050B",
"%  c #011104",
"&  c #0B1403",
"*  c #081907",
"=  c #1D140B",
"-  c #161905",
";  c #1A171B",
":  c #1F0610",
">  c #271704",
",  c #221C16",
"<  c #310B0D",
"1  c #042103",
"2  c #0C2309",
"3  c #052809",
"4  c #07350A",
"5  c #022E12",
"6  c #012B1C",
"7  c #023514",
"8  c #063916",
"9  c #1A3712",
"0  c #182D14",
"q  c #25221D",
"w  c #3B2416",
"e  c #23371C",
"r  c #343103",
"t  c #2E2A23",
"y  c #373128",
"u  c #312F26",
"i  c #401617",
"p  c #482A12",
"a  c #583616",
"s  c #6A3615",
"d  c #6B3917",
"f  c #5A1220",
"g  c #6B0F24",
"h  c #4D392E",
"j  c #663B23",
"k  c #0C4A18",
"l  c #184517",
"z  c #09581F",
"x  c #0D5C08",
"c  c #285C17",
"v  c #264D17",
"b  c #066C04",
"n  c #076919",
"m  c #156719",
"M  c #157318",
"N  c #27761A",
"B  c #357B1E",
"V  c #2C611B",
"C  c #025A27",
"Z  c #355829",
"A  c #2C4C26",
"S  c #046525",
"D  c #047728",
"F  c #187725",
"G  c #0F7030",
"H  c #326428",
"J  c #2C7732",
"K  c #484C03",
"L  c #6B411F",
"P  c #7B411B",
"I  c #615A00",
"U  c #5A6904",
"Y  c #636C01",
"T  c #4B4A33",
"R  c #53482D",
"E  c #6B4320",
"W  c #714221",
"Q  c #7A4724",
"!  c #6C5531",
"~  c #596C26",
"^  c #497B29",
"/  c #527028",
"(  c #617829",
")  c #6A4C56",
"_  c #695350",
"`  c #696E53",
"'  c #803F2C",
"]  c #8F7319",
"[  c #83522C",
"{  c #955427",
"}  c #855A3C",
"|  c #A15E3C",
" . c #866534",
".. c #936B3B",
"X. c #877538",
"o. c #9D753C",
"O. c #87662E",
"+. c #AC6A38",
"@. c #BB7E2F",
"#. c #966A44",
"$. c #896F4D",
"%. c #A87E44",
"&. c #AC7A4C",
"*. c #927B6F",
"=. c #B87D61",
"-. c #089904",
";. c #0D901F",
":. c #2A831A",
">. c #33821F",
",. c #38AA12",
"<. c #36B818",
"1. c #35B50E",
"2. c #058626",
"3. c #1A8629",
"4. c #179224",
"5. c #338922",
"6. c #3B9A26",
"7. c #389526",
"8. c #2C9137",
"9. c #18A236",
"0. c #3EA326",
"q. c #39A52C",
"w. c #3AAB2D",
"e. c #36A92D",
"r. c #3AB224",
"t. c #2AA132",
"y. c #37B533",
"u. c #54961C",
"i. c #689414",
"p. c #5CA318",
"a. c #40BE11",
"s. c #74A710",
"d. c #45862A",
"f. c #459C2A",
"g. c #459929",
"h. c #459E30",
"j. c #67842F",
"k. c #44A529",
"l. c #43AA29",
"z. c #4AAB2C",
"x. c #46A328",
"c. c #4AB62D",
"v. c #4DAA33",
"b. c #02D401",
"n. c #0FD907",
"m. c #1EDF12",
"M. c #0FC611",
"N. c #2BC71A",
"B. c #24D415",
"V. c #37D516",
"C. c #35C410",
"Z. c #17E90D",
"A. c #04FD04",
"S. c #0CFD06",
"D. c #04F808",
"F. c #0DF708",
"G. c #11FB06",
"H. c #11F608",
"J. c #10F908",
"K. c #13F40C",
"L. c #2EF80D",
"P. c #18CF24",
"I. c #35E324",
"U. c #5EF119",
"Y. c #6EFF02",
"T. c #72FE02",
"R. c #7BFC16",
"E. c #4AC430",
"W. c #6AE629",
"Q. c #399246",
"!. c #6F9962",
"~. c #A78C19",
"^. c #BC8711",
"/. c #9FA11F",
"(. c #B1A901",
"). c #B68D32",
"_. c #81AF20",
"`. c #B0BC30",
"'. c #C08A12",
"]. c #DAB328",
"[. c #D1B125",
"{. c #F1AE2A",
"}. c #99D917",
"|. c #BBC704",
" X c #B0D20F",
".X c #B1FF01",
"XX c #80DE26",
"oX c #D5D602",
"OX c #D3CF12",
"+X c #E5C814",
"@X c #E9C60D",
"#X c #DCEE08",
"$X c #F7FB02",
"%X c #F8FD00",
"&X c #EFF408",
"*X c #F4D132",
"=X c #FAE82B",
"-X c #AE8345",
";X c #A7815E",
":X c #8C8E6A",
">X c #A68766",
",X c #B58D68",
"<X c #A2947B",
"1X c #9FBB7F",
"2X c #AFA874",
"3X c #CA9152",
"4X c #CDA24B",
"5X c #CDA87F",
"6X c #D8A276",
"7X c #CFB07C",
"8X c #8CCC7D",
"9X c #A8C772",
"0X c #BBAB82",
"qX c #D0B791",
"wX c #BBC68F",
"eX c #C7CB9B",
"rX c #F3D48F",
"tX c #D2D3AD",
"yX c #F1D3AD",
"uX c #F5DCB4",
"iX c #E2D4AF",
"pX c #DAF9BC",
"aX c #C9EFAB",
"sX c #F9E5BA",
"dX c #E7FDB8",
"fX c #FAEDC9",
"gX c #FDF3C7",
"hX c #FFF6D2",
"jX c #FFFFEB",
"kX c #489848",
/* pixels */
"kXkXkXkXkXkXkXkXkXkXkXkXkXkXkXkXkXkXkXkXkXkXkXkXkXkXkXkXkXkXkXkXkXkXkXkXkXkXkXkXkXkXkXkXkXkXkXkXkXkXkXkXkXkXkXkXkXkXkXkXkXkXkXkXkXkX",
"kXkXkXkXkXkXkXkXkXkXkXkXkXkXkXkXkXkXkXkXkXkXkXkXkXkXkXkXkXkXkXkXkXkXkXkXkXkXkXkXkXkXkXkXkXkXkXkXkXkXkXkXkXkXkXkXkXkXkXkXkXkXkXkXkXkX",
"kXkXkXkXkXkXkXkXkXkXkXkXkXkXkXkXkXkXkXkXkXkXkXkXkXkXkXkXkXkXkXkXkXkXkXkXkXkXkXkXkXkXkXkXkXkXkXkXkXkXkXkXkXkXkXkXkXkXkXkXkXkXkXkXkXkX",
"kXkXkXkXkXkXkXkXkXkXkXkXkXkXkXkXkXkXkXkXkXkXkXkXkXkXkXkXkXkXkXkXkXkXkXkXkXkXkXkXkXkXkXkXkXkXkXkXkXkXkXkXkXkXkXkXkXkXkXkXkXkXkXkXkXkX",
"kXkXkXkXkXkXkXkXkXkXkXkXkXkXkXkXkXkXkXkXkXkXkXkXkXkXkXkXkXkXkXkXkXkXkXkXkXkXkXkXkXkXkXkXkXkXkXkXkXkXkXkXkXkXkXkXkXkXkXkXkXkXkXkXkXkX",
"kXkXkXkXkXkXkXkXkXkXkXkXkXkXkXkXkXkXkXkXkXkXkXkXkXkXkXkXkXkXkXkXkXkXkXkXkXkXkXkXkXkXkXkXkXkXkXkXkXkXkXkXkXkXkXkXkXkXkXkXkXkXkXkXkXkX",
"kXkXkXkXkXkXkXkXkXkXkXkXkXkXkXkXkXkXkXkXkXkXkXkXkXkXkXkXkXkXkXkXkXkXkXkXkXkXkXkXkXkXkXkXkXkXkXkXkXkXkXkXkXkXkXkXkXkXkXkXkXkXkXkXkXkX",
"kXkXkXkXkXkXkXkXkXkXkXkXkXkXkXkXkXkXkXkXkXkXkXkXkXkXkXkXkXkXkXkXkXkXkXkXkXkXkXkXkXkXkXkXkXkXkXkXkXkXkXkXkXkXkXkXkXkXkXkXkXkXkXkXkXkX",
"kXkXkXkXkXkXkXkXkXkXkXkXkXkXkXkXkXkXkXkXkXkXkXkXkXkXkXkXkXkXkXkXkXkXkXkXkXkXkXkXkXkXkXkXkXkXkXkXkXkXkXkXkXkXkXkXkXkXkXkXkXkXkXkXkXkX",
"kXkXkXkXkXkXkXkXkXkXkXkXkXkXkXkXkXkXkXkXkXkXkXkXkXkXkXkXkXkXkXkXkXkXkXkXkXkXkXkXkXkXkXkXkXkXkXkXkXkXkXkXkXkXkXkXkXkXkXkXkXkXkXkXkXkX",
"kXkXkXkXkXkXkXkXkXkXkXkXkXkXkXkXkXkXkXkXkXkXkXkXkXkXkXkXkXkXkXkXkXkXkXkXkXkXkXkXkXkXkXkXkXkXkXkXkXkXkXkXkXkXkXkXkXkXkXkXkXkXkXkXkXkX",
"kXkXkXkXkXkXkXkXkXkXkXkXkXkXkXkXkXkXkXkXkXkXkXkXkXkXkXkXkXkXkXkXkXkXkXkXkXkXkXkXkXkXkXkXkXkXkXkXkXkXkXkXkXkXkXkXkXkXkXkXkXkXkXkXkXkX",
"kXkXkXkXkXkXkXkXkXkXkXkXkXkXkXkXkXkXkXkXkXkXkXkXkXkXkXkXkXkXkXkXkXkXkXkXkXkXkXkXkXkXkXkXkXkXkXkXkXkXkXkXkXkXkXkXkXkXkXkXkXkXkXkXkXkX",
"kXkXkXkXkXkXkXkXkXkXkXkXkXkXkXkXkXkXkXkXkXkXkXkXkXkXkXkXkXkXkXkXkXkXkXkXkXkXkXkXkXkXkXkXkXkXkXkXkXkXkXkXkXkXkXkXkXkXkXkXkXkXkXkXkXkX",
"kXkXkXkXkXkXkXkXkXkXkXkXkXkXkXkXkXkXkXkXkXkXkXkXkXkXkXkXkXkXkXkXkXkXkXkXkXkXkXkXkXkXkXkXkXkXkXkXkXkXkXkXkXkXkXkXkXkXkXkXkXkXkXkXkXkX",
"kXkXkXkXkXkXkXkXkXkXkXkXkXkXkXkXkXkXkXkXkXkXkXkXkXkXkXkXkXkXkXkXkXkXkXkXkXkXkXkXkXkXkXkXkXkXkXkXkXkXkXkXkXkXkXkXkXkXkXkXkXkXkXkXkXkX",
"kXkXkXkXkXkXkXkXkXkXkXkXkXkXkXkXkXkXkXkXkXkXkXkXkXkXkXkXkXkXkXkXkXkXkXkXkXkXkXkXkXkXkXkXkXkXkXkXkXkXkXkXkXkXkXkXkXkXkXkXkXkXkXkXkXkX",
"kXkXkXkXkXkXkXkXkXkXkXkXkXkXkXkXkXkXkXkXkXkXkXkXkXkXkXkXkXkXkXkXkXkXkXkXkXkXkXkXkXkXkXkXkXkXkXkXkXkXkXkXkXkXkXkXkXkXkXkXkXkXkXkXkXkX",
"kXkXkXkXkXkXkXkXkXkXkXkXkXkXkXkXkXkXkXkXkXkXkXkXkXkXkXkXkXo R o.-X-X#.[ Q kXkXkXkXkXkXkXkXkXkXkXkXkXkXkXkXkXkXkXkXkXkXkXkXkXkXkXkXkX",
"kXkXkXkXkXkXkXkXkXkXkXkXkXkXkXkXkXkXkXkXkXkXkXkXkXkXkXkX: j ).].].[.].@.| #.kXkXkXkXkXkXkXkXkXkXkXkXkXkXkXkXkXkXkXkXkXkXkXkXkXkXkXkX",
"kXkXkXkXkXkXkXkXkXkXkXkXkXkXkXkXkXkXkXkXkXkXkXkXkXkXkXX h 4X=X$X$X%X$X*X4X&.%.kXkXkXkXkXkXkXkXkXkXkXkXkXkXkXkXkXkXkXkXkXkXkXkXkXkXkX",
"kXkXkXkXkXkXkXkXkXkXkXkXkXkXkXkXkXkXkXkXkXkXkXkXkXkX% b <.W.R.Y.Y.T.Y.U.W.+X{.@.Q kXkXkXkXkXkXkXkXkXkXkXkXkXkXkXkXkXkXkXkXkXkXkXkXkX",
"kXkXkXkXkXkXkXkXkXkXkXkXkXkXkXkXkXkXkXkXkXkXkXkXkXX b n.A.A.A.D.D.D.D.D.L..XOXX._ Q kXkXkXkXkXkXkXkXkXkXkXkXkXkXkXkXkXkXkXkXkXkXkXkX",
"kXkXkXkXkXkXkXkXkXkXkXkXkXkXkXkXkXkXkXkXkXkXkXkXX b n.G.G.A.F.D.D.D.D.D.G.L.N.B $.3X-X%.kXkXkXkXkXkXkXkXkXkXkXkXkXkXkXkXkXkXkXkXkXkX",
"kXkXkXkXkXkXkXkXkXkXkXkXkXkXkXkXkXkXkXkXkXkXkX+ l M.G.G.G.H.H.H.F.F.G.H.S.A.M.4.`.*X).#.kXkXkXkXkXkXkXkXkXkXkXkXkXkXkXkXkXkXkXkXkXkX",
"kXkXkXkXkXkXkXkXkXkXkXkXkXkXkXkXkXkXkXkXkXkX  9 g.m.S.G.G.H.H.S.H.G.J.H.S.A.M.q.OX&X).#.kXkXkXkXkXkXkXkXkXkXkXkXkXkXkXkXkXkXkXkXkXkX",
"kXkXkXkXkXkXkXkXkXkXkXkXkXkXkXkXkXkXkXkXkXkX. 2 k.E.B.G.A.G.G.G.H.J.H.H.S.A.m.q.p._.kXkXkXkXkXkXkXkXkXkXkXkXkXkXkXkXkXkXkXkXkXkXkXkX",
"kXkXkXkXkXkXkXkXkXkXkXkXkXkXkXkXkXkXkXkXkXkXt 4 6.v.l.B.H.S.S.G.J.H.J.S.S.H.V.w.D G kXkXkXkXkXkXkXkXkXkXkXkXkXkXkXkXkXkXkXkXkXkXkXkX",
"kXkXkXkXkXkXkXkXkXkXkXkXkXkXkXkXkXkXkX..6X2XJ m 6.z.z.0.B.S.A.S.G.J.J.A.H.N.z.z.2.J 0XqXo.kXkXkXkXkXkXkXkXkXkXkXkXkXkXkXkXkXkXkXkXkX",
"kXkXkXkXkXkXkXkXkXkXkXkXkXkXkXkXkXkX..7XyXeXQ.4.x.B V ^ r.B.B.m.J.A.A.K.N.x.^ c x 8.0XiX7X#.Q j kXkXkXkXkXkXkXkXkXkXkXkXkXkXkXkXkXkX",
"kXkXkXkXkXkXkXkXkXkXkXkXkXkXkXkXkXkX&.uXhXeXQ.;.6.9 & N c.x.g.l.Z.A.H.<.x.z.c X 4 Q.eXgXuX;XQ W kXkXkXkXkXkXkXkXkXkXkXkXkXkXkXkXkXkX",
"kXkXkXkXkXkXkXkXkXkXkXkXkXkXkXkXkXkX_ ,X5X2X8.2.3.X X >.E.v.d.f.<.N.N.k.h.t.k   4 8.2XqX,X} d Q kXkXkXkXkXkXkXkXkXkXkXkXkXkXkXkXkXkX",
"kXkXkXkXkXkXkXkXkXkXkXkXkXkXkXkXkXkXkXs { O.Z D D 8 * c 7.q.q.x.g.g.g.k.6.G 8 * 8 J  .{ d kXkXkXkXkXkXkXkXkXkXkXkXkXkXkXkXkXkXkXkXkX",
"kXkXkXkXkXkXkXkXkXkXkXkXkXkXkXkXkXkXkXkXP Q d v D D k X 0 3.e.z.g.g.f.z.5.2 3 S Z E W P kXkXkXkXkXkXkXkXkXkXkXkXkXkXkXkXkXkXkXkXkXkX",
"kXkXkXkXkXkXkXkXkXkXkXkXkXkXkXkXkXkXkXkXp a @.~.H D G 6 % 7 F w.l.f.k.c.>.& O H /.'.s w kXkXkXkXkXkXkXkXkXkXkXkXkXkXkXkXkXkXkXkXkXkX",
"kXkXkXkXkXkXkXkXkXkXkXkXkXkXkXkXkXkXkXkX  r oX@XQ Z 3.2.7   5 3.e.k.l.c.>.% $ W +XoXr   kXkXkXkXkXkXkXkXkXkXkXkXkXkXkXkXkXkXkXkXkXkX",
"kXkXkXkXkXkXkXkXkXkXkXkXkXkXkXkXkXkXkXkXkX& U ] +.[.}.9.C 6 @ 5 F w.l.6.m @ w +.~.Y & kXkXkXkXkXkXkXkXkXkXkXkXkXkXkXkXkXkXkXkXkXkXkX",
"kXkXkXkXkXkXkXkXkXkXkXkXkXkXkXkXkXkXkXkXkXkXX ;  .+XoXs.z.l.9 O 8 3.e.t.S X w } w X kXkXkXkXkXkXkXkXkXkXkXkXkXkXkXkXkXkXkXkXkXkXkXkX",
"kXkXkXkXkXkXkXkXkXkXkXkXkXkXkXkXkXkXkXkXkXkXkX  , r I |.$X#Xp.6 @ 8 3.9.n @ . = + kXkXkXkXkXkXkXkXkXkXkXkXkXkXkXkXkXkXkXkXkXkXkXkXkX",
"kXkXkXkXkXkXkXkXkXkXkXkXkXkXkXkXkXkXkXkXkXkXkXkXkX  - s. X(. Xi.- O 8 z 8 > .   kXkXkXkXkXkXkXkXkXkXkXkXkXkXkXkXkXkXkXkXkXkXkXkXkXkX",
"kXkXkXkXkXkXkXkXkXkXkXkXkXkXkXkXkXkXkXkXkXkXkXkXkX  * M k > (.oXK     O = d a % kXkXkXkXkXkXkXkXkXkXkXkXkXkXkXkXkXkXkXkXkXkXkXkXkXkX",
"kXkXkXkXkXkXkXkXkXkXkXkXkXkXkXkXkXkXkXkXkXkXkXkXkXo p T ;   U }.u.2   & 5.8XwX!.e kXkXkXkXkXkXkXkXkXkXkXkXkXkXkXkXkXkXkXkXkXkXkXkXkX",
"kXkXkXkXkXkXkXkXkXkXkXkXkXkXkXkXkXkXkXkXkXkXkXX 0 _ #.Q w 1 m y.E.N 3 x v.wXpXpX` X kXkXkXkXkXkXkXkXkXkXkXkXkXkXkXkXkXkXkXkXkXkXkXkX",
"kXkXkXkXkXkXkXkXkXkXkXkXkXkXkXkXkXkXkXkXkXkX  A 8XaX0Xw & B e.e.l.6.7.4.n 0 *.fX:X+ kXkXkXkXkXkXkXkXkXkXkXkXkXkXkXkXkXkXkXkXkXkXkXkX",
"kXkXkXkXkXkXkXkXkXkXkXkXkXkXkXkXkXkXkXkXkXo y :XfXpX!.+ & / j.~ ~ ( ( / e - T *.T kXkXkXkXkXkXkXkXkXkXkXkXkXkXkXkXkXkXkXkXkXkXkXkXkX",
"kXkXkXkXkXkXkXkXkXkXkXkXkXkXkXkXkXkXkXkX  , >XsXfX,Xp . > d [ W E W Q d ! h.N & kXkXkXkXkXkXkXkXkXkXkXkXkXkXkXkXkXkXkXkXkXkXkXkXkXkX",
"kXkXkXkXkXkXkXkXkXkXkXkXkXkXkXkXkXkXkXkX  t qXjXhX$.# 3 M ,.a.,.1.1.C.C.V.L.B.m *   kXkXkXkXkXkXkXkXkXkXkXkXkXkXkXkXkXkXkXkXkXkXkXkX",
"kXkXkXkXkXkXkXkXkXkXkXkXkXkXkXkXkXkXkXkXkX; 0XiXqXh   C P.D.A.S.J.Z.b.b.b.b.N.7.9 O kXkXkXkXkXkXkXkXkXkXkXkXkXkXkXkXkXkXkXkXkXkXkXkX",
"kXkXkXkXkXkXkXkXkXkXkXkXkXkXkXkXkXkXkXkXkXkXq y t + + 5.I.S.A.J.I.:.2 & * * 1 * % kXkXkXkXkXkXkXkXkXkXkXkXkXkXkXkXkXkXkXkXkXkXkXkXkX",
"kXkXkXkXkXkXkXkXkXkXkXkXkXkXkXkXkXkXkXkXkXkXkX      + v :.-.-.-.N T ) ) ) ) y . kXkXkXkXkXkXkXkXkXkXkXkXkXkXkXkXkXkXkXkXkXkXkXkXkXkX",
"kXkXkXkXkXkXkXkXkXkXkXkXkXkXkXkXkXkXkXkXkXkXkXkXkXkXkX            _ yXfXfXgX:X, kXkXkXkXkXkXkXkXkXkXkXkXkXkXkXkXkXkXkXkXkXkXkXkXkXkX",
"kXkXkXkXkXkXkXkXkXkXkXkXkXkXkXkXkXkXkXkXkXkXkXkXkXkXkXkXkXkXkXkXkX, ` 2XrXrX=.f #   kXkXkXkXkXkXkXkXkXkXkXkXkXkXkXkXkXkXkXkXkXkXkXkX",
"kXkXkXkXkXkXkXkXkXkXkXkXkXkXkXkXkXkXkXkXkXkXkXkXkXkXkXkXkXkXkXkXkXkXX p O...Q g <   kXkXkXkXkXkXkXkXkXkXkXkXkXkXkXkXkXkXkXkXkXkXkXkX",
"kXkXkXkXkXkXkXkXkXkXkXkXkXkXkXkXkXkXkXkXkXkXkXkXkXkXkXkXkXkXkXkXkXkXkXo = = : $ . kXkXkXkXkXkXkXkXkXkXkXkXkXkXkXkXkXkXkXkXkXkXkXkXkX",
"kXkXkXkXkXkXkXkXkXkXkXkXkXkXkXkXkXkXkXkXkXkXkXkXkXkXkXkXkXkXkXkXkXkXkX    .     kXkXkXkXkXkXkXkXkXkXkXkXkXkXkXkXkXkXkXkXkXkXkXkXkXkX",
"kXkXkXkXkXkXkXkXkXkXkXkXkXkXkXkXkXkXkXkXkXkXkXkXkXkXkXkXkXkXkXkXkXkXkXkXkXkXkXkXkXkXkXkXkXkXkXkXkXkXkXkXkXkXkXkXkXkXkXkXkXkXkXkXkXkX",
"kXkXkXkXkXkXkXkXkXkXkXkXkXkXkXkXkXkXkXkXkXkXkXkXkXkXkXkXkXkXkXkXkXkXkXkXkXkXkXkXkXkXkXkXkXkXkXkXkXkXkXkXkXkXkXkXkXkXkXkXkXkXkXkXkXkX",
"kXkXkXkXkXkXkXkXkXkXkXkXkXkXkXkXkXkXkXkXkXkXkXkXkXkXkXkXkXkXkXkXkXkXkXkXkXkXkXkXkXkXkXkXkXkXkXkXkXkXkXkXkXkXkXkXkXkXkXkXkXkXkXkXkXkX",
"kXkXkXkXkXkXkXkXkXkXkXkXkXkXkXkXkXkXkXkXkXkXkXkXkXkXkXkXkXkXkXkXkXkXkXkXkXkXkXkXkXkXkXkXkXkXkXkXkXkXkXkXkXkXkXkXkXkXkXkXkXkXkXkXkXkX",
"kXkXkXkXkXkXkXkXkXkXkXkXkXkXkXkXkXkXkXkXkXkXkXkXkXkXkXkXkXkXkXkXkXkXkXkXkXkXkXkXkXkXkXkXkXkXkXkXkXkXkXkXkXkXkXkXkXkXkXkXkXkXkXkXkXkX",
"kXkXkXkXkXkXkXkXkXkXkXkXkXkXkXkXkXkXkXkXkXkXkXkXkXkXkXkXkXkXkXkXkXkXkXkXkXkXkXkXkXkXkXkXkXkXkXkXkXkXkXkXkXkXkXkXkXkXkXkXkXkXkXkXkXkX",
"kXkXkXkXkXkXkXkXkXkXkXkXkXkXkXkXkXkXkXkXkXkXkXkXkXkXkXkXkXkXkXkXkXkXkXkXkXkXkXkXkXkXkXkXkXkXkXkXkXkXkXkXkXkXkXkXkXkXkXkXkXkXkXkXkXkX",
"kXkXkXkXkXkXkXkXkXkXkXkXkXkXkXkXkXkXkXkXkXkXkXkXkXkXkXkXkXkXkXkXkXkXkXkXkXkXkXkXkXkXkXkXkXkXkXkXkXkXkXkXkXkXkXkXkXkXkXkXkXkXkXkXkXkX",
"kXkXkXkXkXkXkXkXkXkXkXkXkXkXkXkXkXkXkXkXkXkXkXkXkXkXkXkXkXkXkXkXkXkXkXkXkXkXkXkXkXkXkXkXkXkXkXkXkXkXkXkXkXkXkXkXkXkXkXkXkXkXkXkXkXkX",
"kXkXkXkXkXkXkXkXkXkXkXkXkXkXkXkXkXkXkXkXkXkXkXkXkXkXkXkXkXkXkXkXkXkXkXkXkXkXkXkXkXkXkXkXkXkXkXkXkXkXkXkXkXkXkXkXkXkXkXkXkXkXkXkXkXkX",
"kXkXkXkXkXkXkXkXkXkXkXkXkXkXkXkXkXkXkXkXkXkXkXkXkXkXkXkXkXkXkXkXkXkXkXkXkXkXkXkXkXkXkXkXkXkXkXkXkXkXkXkXkXkXkXkXkXkXkXkXkXkXkXkXkXkX",
"kXkXkXkXkXkXkXkXkXkXkXkXkXkXkXkXkXkXkXkXkXkXkXkXkXkXkXkXkXkXkXkXkXkXkXkXkXkXkXkXkXkXkXkXkXkXkXkXkXkXkXkXkXkXkXkXkXkXkXkXkXkXkXkXkXkX",
"kXkXkXkXkXkXkXkXkXkXkXkXkXkXkXkXkXkXkXkXkXkXkXkXkXkXkXkXkXkXkXkXkXkXkXkXkXkXkXkXkXkXkXkXkXkXkXkXkXkXkXkXkXkXkXkXkXkXkXkXkXkXkXkXkXkX",
"kXkXkXkXkXkXkXkXkXkXkXkXkXkXkXkXkXkXkXkXkXkXkXkXkXkXkXkXkXkXkXkXkXkXkXkXkXkXkXkXkXkXkXkXkXkXkXkXkXkXkXkXkXkXkXkXkXkXkXkXkXkXkXkXkXkX",
"kXkXkXkXkXkXkXkXkXkXkXkXkXkXkXkXkXkXkXkXkXkXkXkXkXkXkXkXkXkXkXkXkXkXkXkXkXkXkXkXkXkXkXkXkXkXkXkXkXkXkXkXkXkXkXkXkXkXkXkXkXkXkXkXkXkX",
"kXkXkXkXkXkXkXkXkXkXkXkXkXkXkXkXkXkXkXkXkXkXkXkXkXkXkXkXkXkXkXkXkXkXkXkXkXkXkXkXkXkXkXkXkXkXkXkXkXkXkXkXkXkXkXkXkXkXkXkXkXkXkXkXkXkX",
"kXkXkXkXkXkXkXkXkXkXkXkXkXkXkXkXkXkXkXkXkXkXkXkXkXkXkXkXkXkXkXkXkXkXkXkXkXkXkXkXkXkXkXkXkXkXkXkXkXkXkXkXkXkXkXkXkXkXkXkXkXkXkXkXkXkX"
};
