/* XPM */
static char *result[] = {
/* columns rows colors chars-per-pixel */
"64 64 12 1 ",
"  c #000001",
". c #107828",
"X c #704020",
"o c #A07840",
"O c #40A028",
"+ c #10F808",
"@ c #F8F800",
"# c #D8A850",
"$ c #D0B088",
"% c #B8F8A0",
"& c #F8E0B8",
"* c #489848",
/* pixels */
"****************************************************************",
"****************************************************************",
"****************************************************************",
"****************************************************************",
"****************************************************************",
"****************************************************************",
"****************************  ooooooXX**************************",
"****************************  ooooooXX**************************",
"**************************  ##@@@@@@##oo************************",
"**************************  ##@@@@@@##oo************************",
"************************  ++++++++++++@@oo**********************",
"************************  ++++++++++++@@oo**********************",
"**********************  ++++++++++++++++..XX********************",
"**********************  ++++++++++++++++..XX********************",
"********************  ..++++++++++++++++OOoo********************",
"********************  ..++++++++++++++++OOoo********************",
"********************  OO++++++++++++++++OOoo********************",
"********************  OO++++++++++++++++OOoo********************",
"****************oo$$..OO++++++++++++++++OO..$$oo****************",
"****************oo$$..OO++++++++++++++++OO..$$oo****************",
"**************XX&&&&..OOOO++++++++++++  OO..&&&&XX**************",
"**************XX&&&&..OOOO++++++++++++  OO..&&&&XX**************",
"****************XXoo....OOOO++++++++OO  ....ooXX****************",
"****************XXoo....OOOO++++++++OO  ....ooXX****************",
"******************XXXX..  OOOO++++OO..  ..XXXX******************",
"******************XXXX..  OOOO++++OO..  ..XXXX******************",
"******************  @@XX  ..OOOOOOOO  ..XX@@  ******************",
"******************  @@XX  ..OOOOOOOO  ..XX@@  ******************",
"********************  oo@@  ..OOOOOO  @@oo  ********************",
"********************  oo@@  ..OOOOOO  @@oo  ********************",
"**********************    @@  OOOO..      **********************",
"**********************    @@  OOOO..      **********************",
"************************  ..  ....  OO%%  **********************",
"************************  ..  ....  OO%%  **********************",
"**********************  XX....    OOOOXX%%  ********************",
"**********************  XX....    OOOOXX%%  ********************",
"**********************  %%XXOOOOOOOOOOXX%%  ********************",
"**********************  %%XXOOOOOOOOOOXX%%  ********************",
"********************  %%%%  XXXXXXXXXXOO  **********************",
"********************  %%%%  XXXXXXXXXXOO  **********************",
"******************  $$&&  ..++++++    ++  **********************",
"******************  $$&&  ..++++++    ++  **********************",
"******************  &&&&  OO++++  &&$$..  **********************",
"******************  &&&&  OO++++  &&$$..  **********************",
"********************    **      XX&&&&  ************************",
"********************    **      XX&&&&  ************************",
"******************************  XX&&&&$$  **********************",
"******************************  XX&&&&$$  **********************",
"********************************  &&&&&&  **********************",
"********************************  &&&&&&  **********************",
"********************************  $$&&&&XX  ********************",
"********************************  $$&&&&XX  ********************",
"********************************  XX$$$$XX  ********************",
"********************************  XX$$$$XX  ********************",
"**********************************        **********************",
"**********************************        **********************",
"****************************************************************",
"****************************************************************",
"****************************************************************",
"****************************************************************",
"****************************************************************",
"****************************************************************",
"****************************************************************",
"****************************************************************"
};
