/* XPM */
static char *result[] = {
/* columns rows colors chars-per-pixel */
"64 64 13 1 ",
"  c #000001",
". c #781028",
"X c #107828",
"o c #704020",
"O c #A07840",
"+ c #40A028",
"@ c #10F808",
"# c #F8F800",
"$ c #D8A850",
"% c #D0B088",
"& c #B8F8A0",
"* c #F8E0B8",
"= c #489848",
/* pixels */
"================================================================",
"================================================================",
"================================================================",
"================================================================",
"================================================================",
"================================================================",
"================================================================",
"================================================================",
"================================================================",
"================================================================",
"============================  OOOOOOoo==========================",
"============================  OOOOOOoo==========================",
"==========================  $$######$$OO========================",
"==========================  $$######$$OO========================",
"========================  @@@@@@@@@@@@##OOoo====================",
"========================  @@@@@@@@@@@@##OOoo====================",
"======================  @@@@@@@@@@@@@@@@XX$$OO==================",
"======================  @@@@@@@@@@@@@@@@XX$$OO==================",
"====================  ++@@@@@@@@@@@@@@@@++##OO==================",
"====================  ++@@@@@@@@@@@@@@@@++##OO==================",
"====================  ++++@@@@@@@@@@@@@@++XX====================",
"====================  ++++@@@@@@@@@@@@@@++XX====================",
"================OO%%XX++++++@@@@@@@@@@++++XX%%OO================",
"================OO%%XX++++++@@@@@@@@@@++++XX%%OO================",
"==============oo****XX++  ++++++@@@@++++  XX****oo==============",
"==============oo****XX++  ++++++@@@@++++  XX****oo==============",
"================ooOOXXXX  ++++++++++++XX  XXOOoo================",
"================ooOOXXXX  ++++++++++++XX  XXOOoo================",
"==================ooooXXXX  XX++++++++  XXoooo==================",
"==================ooooXXXX  XX++++++++  XXoooo==================",
"==================  ##ooXXXX  XX++++++  oo##  ==================",
"==================  ##ooXXXX  XX++++++  oo##  ==================",
"====================  OO##XXXX  XX++XX  OO  ====================",
"====================  OO##XXXX  XX++XX  OO  ====================",
"======================    ####XX  XXXX    ======================",
"======================    ####XX  XXXX    ======================",
"========================  XX  ##      oo  ======================",
"========================  XX  ##      oo  ======================",
"======================  oooo  ++++  ++&&&&  ====================",
"======================  oooo  ++++  ++&&&&  ====================",
"====================  &&&&  ++++++++XX  **  ====================",
"====================  &&&&  ++++++++XX  **  ====================",
"==================  %%**oo  oooooooooo++  ======================",
"==================  %%**oo  oooooooooo++  ======================",
"==================  ****  XX@@@@@@@@@@@@++  ====================",
"==================  ****  XX@@@@@@@@@@@@++  ====================",
"====================      ++@@@@++        ======================",
"====================      ++@@@@++        ======================",
"==========================        ******  ======================",
"==========================        ******  ======================",
"==================================  OOOO..  ====================",
"==================================  OOOO..  ====================",
"====================================      ======================",
"====================================      ======================",
"================================================================",
"================================================================",
"================================================================",
"================================================================",
"================================================================",
"================================================================",
"================================================================",
"================================================================",
"================================================================",
"================================================================"
};
