/* XPM */
static char *result[] = {
/* columns rows colors chars-per-pixel */
"66 72 216 2 ",
"   c #000001",
".  c #0C0001",
"X  c #040D03",
"o  c #180209",
"O  c #091904",
"+  c #171509",
"@  c #051912",
"#  c #191913",
"$  c #1B0C19",
"%  c #27040A",
"&  c #340608",
"*  c #281900",
"=  c #370713",
"-  c #361B19",
";  c #2D1714",
":  c #02230D",
">  c #09270A",
",  c #02360B",
"<  c #012F12",
"1  c #003919",
"2  c #053A15",
"3  c #1A3711",
"4  c #152F0C",
"5  c #323201",
"6  c #25221B",
"7  c #35341D",
"8  c #0B3827",
"9  c #2E2A24",
"0  c #3A3329",
"q  c #5B0618",
"w  c #7A1717",
"e  c #402514",
"r  c #5A3811",
"t  c #643214",
"y  c #75361F",
"u  c #731027",
"i  c #513B25",
"p  c #603524",
"a  c #084618",
"s  c #195218",
"d  c #0B540F",
"f  c #2C531A",
"g  c #284D12",
"h  c #006B1E",
"j  c #0D740F",
"k  c #246E1B",
"l  c #2C6E1B",
"z  c #2D7D1D",
"x  c #327F1C",
"c  c #045F28",
"v  c #005C30",
"b  c #1F4A26",
"n  c #31552D",
"m  c #026A29",
"M  c #186A22",
"N  c #0A7629",
"B  c #117A29",
"V  c #187926",
"C  c #346526",
"Z  c #277C22",
"A  c #357A27",
"S  c #2D6C34",
"D  c #544B00",
"F  c #7D5A08",
"G  c #5B6100",
"H  c #606300",
"J  c #4D4132",
"K  c #55493A",
"L  c #4B543D",
"P  c #704020",
"I  c #794928",
"U  c #695522",
"Y  c #6B4D2B",
"T  c #4E6523",
"R  c #596E27",
"E  c #58653A",
"W  c #607429",
"Q  c #1C7840",
"!  c #6A5E4C",
"~  c #55714A",
"^  c #85111D",
"/  c #A7101D",
"(  c #AD1D28",
")  c #D82827",
"_  c #877217",
"`  c #874C24",
"'  c #855839",
"]  c #866836",
"[  c #956B3B",
"{  c #97692A",
"}  c #A66739",
"|  c #966A47",
" . c #A47B47",
".. c #A57E5B",
"X. c #B47E52",
"o. c #0A9805",
"O. c #039C02",
"+. c #0A8C10",
"@. c #2D851F",
"#. c #0BA304",
"$. c #39AA11",
"%. c #3BA310",
"&. c #35BB16",
"*. c #2DB716",
"=. c #0D8327",
"-. c #12862C",
";. c #1A8529",
":. c #179230",
">. c #388924",
",. c #29972C",
"<. c #399627",
"1. c #29863B",
"2. c #299432",
"3. c #37A62B",
"4. c #3BAB2B",
"5. c #3DA62B",
"6. c #3DBA26",
"7. c #2CA02E",
"8. c #659817",
"9. c #57A51B",
"0. c #6EA719",
"q. c #479B2A",
"w. c #41A128",
"e. c #45A72A",
"r. c #47B42B",
"t. c #4CAB2E",
"y. c #19D518",
"u. c #12D20A",
"i. c #27C918",
"p. c #25D716",
"a. c #33C61C",
"s. c #19E80F",
"d. c #06FF04",
"f. c #0CFD06",
"g. c #02F909",
"h. c #0DFC08",
"j. c #00F70A",
"k. c #12F509",
"l. c #10F808",
"z. c #1AFE0B",
"x. c #16E50C",
"c. c #25E714",
"v. c #2FF506",
"b. c #39DF23",
"n. c #37CA20",
"m. c #70FF00",
"M. c #6EFD0B",
"N. c #49C02E",
"B. c #65E127",
"V. c #389444",
"C. c #358742",
"Z. c #568F57",
"A. c #5EBB62",
"S. c #979000",
"D. c #998819",
"F. c #AD9B00",
"G. c #BA8917",
"H. c #BC9017",
"J. c #8BA30B",
"K. c #8FB50D",
"L. c #B6AB00",
"P. c #B3BA04",
"I. c #81AE22",
"U. c #B49134",
"Y. c #E0BE11",
"T. c #D4AB27",
"R. c #D0B725",
"E. c #F0BB34",
"W. c #CD9632",
"Q. c #9BD214",
"!. c #96C511",
"~. c #B9DF09",
"^. c #B2C007",
"/. c #90FF05",
"(. c #AAFF00",
"). c #CFD400",
"_. c #E5C80C",
"`. c #E8E800",
"'. c #F7EB0C",
"]. c #E8F907",
"[. c #FBFC00",
"{. c #FFF30B",
"}. c #EFEA17",
"|. c #F9C53F",
" X c #FBE523",
".X c #BF8D52",
"XX c #AB8563",
"oX c #AB9070",
"OX c #92B17D",
"+X c #B1A97D",
"@X c #A9A66A",
"#X c #D7A54E",
"$X c #E6BC43",
"%X c #D49D72",
"&X c #CCA97A",
"*X c #D6A174",
"=X c #C9994D",
"-X c #D0B088",
";X c #CABE99",
":X c #AED98A",
">X c #B2D49D",
",X c #BADA8A",
"<X c #B3EE9D",
"1X c #B8F8A0",
"2X c #C8C798",
"3X c #CFD09F",
"4X c #D1D1A3",
"5X c #D2C5A8",
"6X c #EDCEA7",
"7X c #F5D0A0",
"8X c #CDFFB9",
"9X c #DAFFBC",
"0X c #F8E3B6",
"qX c #FFF2C3",
"wX c #FFFBD6",
"eX c #489848",
/* pixels */
"eXeXeXeXeXeXeXeXeXeXeXeXeXeXeXeXeXeXeXeXeXeXeXeXeXeXeXeXeXeXeXeXeXeXeXeXeXeXeXeXeXeXeXeXeXeXeXeXeXeXeXeXeXeXeXeXeXeXeXeXeXeXeXeXeXeX",
"eXeXeXeXeXeXeXeXeXeXeXeXeXeXeXeXeXeXeXeXeXeXeXeXeXeXeXeXeXeXeXeXeXeXeXeXeXeXeXeXeXeXeXeXeXeXeXeXeXeXeXeXeXeXeXeXeXeXeXeXeXeXeXeXeXeX",
"eXeXeXeXeXeXeXeXeXeXeXeXeXeXeXeXeXeXeXeXeXeXeXeXeXeXeXeXeXeXeXeXeXeXeXeXeXeXeXeXeXeXeXeXeXeXeXeXeXeXeXeXeXeXeXeXeXeXeXeXeXeXeXeXeXeX",
"eXeXeXeXeXeXeXeXeXeXeXeXeXeXeXeXeXeXeXeXeXeXeXeXeXeXeXeXeXeXeXeXeXeXeXeXeXeXeXeXeXeXeXeXeXeXeXeXeXeXeXeXeXeXeXeXeXeXeXeXeXeXeXeXeXeX",
"eXeXeXeXeXeXeXeXeXeXeXeXeXeXeXeXeXeXeXeXeXeXeXeXeXeXeXeXeXeXeXeXeXeXeXeXeXeXeXeXeXeXeXeXeXeXeXeXeXeXeXeXeXeXeXeXeXeXeXeXeXeXeXeXeXeX",
"eXeXeXeXeXeXeXeXeXeXeXeXeXeXeXeXeXeXeXeXeXeXeXeXeXeXeXeXeXeXeXeXeXeXeXeXeXeXeXeXeXeXeXeXeXeXeXeXeXeXeXeXeXeXeXeXeXeXeXeXeXeXeXeXeXeX",
"eXeXeXeXeXeXeXeXeXeXeXeXeXeXeXeXeXeXeXeXeXeXeXeXeXeXeXeXeXeXeXeXeXeXeXeXeXeXeXeXeXeXeXeXeXeXeXeXeXeXeXeXeXeXeXeXeXeXeXeXeXeXeXeXeXeX",
"eXeXeXeXeXeXeXeXeXeXeXeXeXeXeXeXeXeXeXeXeXeXeXeXeXeXeXeXeXeXeXeXeXeXeXeXeXeXeXeXeXeXeXeXeXeXeXeXeXeXeXeXeXeXeXeXeXeXeXeXeXeXeXeXeXeX",
"eXeXeXeXeXeXeXeXeXeXeXeXeXeXeXeXeXeXeXeXeXeXeXeXeXeXeXeXeXeXeXeXeXeXeXeXeXeXeXeXeXeXeXeXeXeXeXeXeXeXeXeXeXeXeXeXeXeXeXeXeXeXeXeXeXeX",
"eXeXeXeXeXeXeXeXeXeXeXeXeXeXeXeXeXeXeXeXeXeXeXeXeXeXeXeXeXeXeXeXeXeXeXeXeXeXeXeXeXeXeXeXeXeXeXeXeXeXeXeXeXeXeXeXeXeXeXeXeXeXeXeXeXeX",
"eXeXeXeXeXeXeXeXeXeXeXeXeXeXeXeXeXeXeXeXeXeXeXeXeXeXeXeXeXeXeXeXeXeXeXeXeXeXeXeXeXeXeXeXeXeXeXeXeXeXeXeXeXeXeXeXeXeXeXeXeXeXeXeXeXeX",
"eXeXeXeXeXeXeXeXeXeXeXeXeXeXeXeXeXeXeXeXeXeXeXeXeXeXeXeXeXeXeXeXeXeXeXeXeXeXeXeXeXeXeXeXeXeXeXeXeXeXeXeXeXeXeXeXeXeXeXeXeXeXeXeXeXeX",
"eXeXeXeXeXeXeXeXeXeXeXeXeXeXeXeXeXeXeXeXeXeXeXeXeXeXeXeXeXeXeXeXeXeXeXeXeXeXeXeXeXeXeXeXeXeXeXeXeXeXeXeXeXeXeXeXeXeXeXeXeXeXeXeXeXeX",
"eXeXeXeXeXeXeXeXeXeXeXeXeXeXeXeXeXeXeXeXeXeXeXeXeXeXeXeXeXeXeXeXeXeXeXeXeXeXeXeXeXeXeXeXeXeXeXeXeXeXeXeXeXeXeXeXeXeXeXeXeXeXeXeXeXeX",
"eXeXeXeXeXeXeXeXeXeXeXeXeXeXeXeXeXeXeXeXeXeXeXeXeXeXeXeXeXeXeXeXeXeXeXeXeXeXeXeXeXeXeXeXeXeXeXeXeXeXeXeXeXeXeXeXeXeXeXeXeXeXeXeXeXeX",
"eXeXeXeXeXeXeXeXeXeXeXeXeXeXeXeXeXeXeXeXeXeXeXeXeXeXeXeXeXeXeXeXeXeXeXeXeXeXeXeXeXeXeXeXeXeXeXeXeXeXeXeXeXeXeXeXeXeXeXeXeXeXeXeXeXeX",
"eXeXeXeXeXeXeXeXeXeXeXeXeXeXeXeXeXeXeXeXeXeXeXeXeXeXeXeXeXeXeXeXeXeXeXeXeXeXeXeXeXeXeXeXeXeXeXeXeXeXeXeXeXeXeXeXeXeXeXeXeXeXeXeXeXeX",
"eXeXeXeXeXeXeXeXeXeXeXeXeXeXeXeXeXeXeXeXeXeXeXeXeXeXeXeXeXeXeXeXeXeXeXeXeXeXeXeXeXeXeXeXeXeXeXeXeXeXeXeXeXeXeXeXeXeXeXeXeXeXeXeXeXeX",
"eXeXeXeXeXeXeXeXeXeXeXeXeXeXeXeXeXeXeXeXeXeXeXeXeXeXeXeXeX- } W.T.T.T.T.H.G.#XeXeXeXeXeXeXeXeXeXeXeXeXeXeXeXeXeXeXeXeXeXeXeXeXeXeXeX",
"eXeXeXeXeXeXeXeXeXeXeXeXeXeXeXeXeXeXeXeXeXeXeXeXeXeXeXeX  J #X X[.[.[.[.[.}.$X.X .eXeXeXeXeXeXeXeXeXeXeXeXeXeXeXeXeXeXeXeXeXeXeXeXeX",
"eXeXeXeXeXeXeXeXeXeXeXeXeXeXeXeXeXeXeXeXeXeXeXeXeXeXeX  j *.B.M.m.m.m.m.m./.}.E..X .eXeXeXeXeXeXeXeXeXeXeXeXeXeXeXeXeXeXeXeXeXeXeXeX",
"eXeXeXeXeXeXeXeXeXeXeXeXeXeXeXeXeXeXeXeXeXeXeXeXeXeXO d k.f.d.g.j.j.j.j.g.z.(.}.$X=X| eXeXeXeXeXeXeXeXeXeXeXeXeXeXeXeXeXeXeXeXeXeXeX",
"eXeXeXeXeXeXeXeXeXeXeXeXeXeXeXeXeXeXeXeXeXeXeXeXeX  j u.g.f.f.l.l.h.h.g.g.l.v./.'.|..XI t eXeXeXeXeXeXeXeXeXeXeXeXeXeXeXeXeXeXeXeXeX",
"eXeXeXeXeXeXeXeXeXeXeXeXeXeXeXeXeXeXeXeXeXeXeXeXO 3 u.f.f.k.l.l.l.l.l.k.l.d.g.v.~. XE.{ I eXeXeXeXeXeXeXeXeXeXeXeXeXeXeXeXeXeXeXeXeX",
"eXeXeXeXeXeXeXeXeXeXeXeXeXeXeXeXeXeXeXeXeXeXeX  3 w.c.f.l.l.l.l.l.l.l.l.l.l.d.y.<.~.{.U.| eXeXeXeXeXeXeXeXeXeXeXeXeXeXeXeXeXeXeXeXeX",
"eXeXeXeXeXeXeXeXeXeXeXeXeXeXeXeXeXeXeXeXeXeXeXo > e.r.p.k.d.f.f.l.l.l.l.l.l.f.y.3.9.I.eXeXeXeXeXeXeXeXeXeXeXeXeXeXeXeXeXeXeXeXeXeXeX",
"eXeXeXeXeXeXeXeXeXeXeXeXeXeXeXeXeXeXeXeXeXeXeX6 , w.q.4.p.k.s.k.f.l.l.l.l.f.d.i.>.h B eXeXeXeXeXeXeXeXeXeXeXeXeXeXeXeXeXeXeXeXeXeXeX",
"eXeXeXeXeXeXeXeXeXeXeXeXeXeXeXeXeXeXeXeX[ *X+XS j w.w.w.6.r.&.y.d.d.f.l.l.f.f.#.@ a C.+X%X[ eXeXeXeXeXeXeXeXeXeXeXeXeXeXeXeXeXeXeXeX",
"eXeXeXeXeXeXeXeXeXeXeXeXeXeXeXeXeXeXeX[ &X6X;XC.=.w.e.<.f C t.n.y.i.x.f.d.z.c.j   : V.2X6X&X[ eXeXeXeXeXeXeXeXeXeXeXeXeXeXeXeXeXeXeX",
"eXeXeXeXeXeXeXeXeXeXeXeXeXeXeXeXeXeXP ..0XwX3X1.+.w.r.x X 4 w.e.w.q.a.l.d.s.N.g   , V.3XwX0X..P eXeXeXeXeXeXeXeXeXeXeXeXeXeXeXeXeXeX",
"eXeXeXeXeXeXeXeXeXeXeXeXeXeXeXeXeXeXeX' XX&X@X1.=.w.r.<.s : 4 M ,.t.r.a.a.a.r.f   2 2.@X&XXX' eXeXeXeXeXeXeXeXeXeXeXeXeXeXeXeXeXeXeX",
"eXeXeXeXeXeXeXeXeXeXeXeXeXeXeXeXeXeXeXeXt ` ] C V <.w.<.:.a X < M Z >.<.q.w.e.s . 2 A ] ` t eXeXeXeXeXeXeXeXeXeXeXeXeXeXeXeXeXeXeXeX",
"eXeXeXeXeXeXeXeXeXeXeXeXeXeXeXeXeXeXeXeXeX` ` p n -.-.-.B B c : X O 2 ;.e.w.2.a   ; Y I I eXeXeXeXeXeXeXeXeXeXeXeXeXeXeXeXeXeXeXeXeX",
"eXeXeXeXeXeXeXeXeXeXeXeXeXeXeXeXeXeXeXeXeX- r G.D.f m m N -.;.a @ : : 2 Z 7.:.1   F G.r e eXeXeXeXeXeXeXeXeXeXeXeXeXeXeXeXeXeXeXeXeX",
"eXeXeXeXeXeXeXeXeXeXeXeXeXeXeXeXeXeXeXeXeX  5 )._.y f =.B B N B B -.a   a -.-.1   L.`.5   eXeXeXeXeXeXeXeXeXeXeXeXeXeXeXeXeXeXeXeXeX",
"eXeXeXeXeXeXeXeXeXeXeXeXeXeXeXeXeXeXeXeXeXeXO G _ } R.Q.;.v m N -.-.m < @ @ : f Y _ G + eXeXeXeXeXeXeXeXeXeXeXeXeXeXeXeXeXeXeXeXeXeX",
"eXeXeXeXeXeXeXeXeXeXeXeXeXeXeXeXeXeXeXeXeXeXeX  $ ] Y.).9.@.q.V m N ,.w.f * . e [ 6   eXeXeXeXeXeXeXeXeXeXeXeXeXeXeXeXeXeXeXeXeXeXeX",
"eXeXeXeXeXeXeXeXeXeXeXeXeXeXeXeXeXeXeXeXeXeXeXeXeX. * D ).].].9.v v 9.].`.L.* . . eXeXeXeXeXeXeXeXeXeXeXeXeXeXeXeXeXeXeXeXeXeXeXeXeX",
"eXeXeXeXeXeXeXeXeXeXeXeXeXeXeXeXeXeXeXeXeXeXeXeX# n 8 , K.P.F.J.0.0.J.F.^.!.g b n # eXeXeXeXeXeXeXeXeXeXeXeXeXeXeXeXeXeXeXeXeXeXeXeX",
"eXeXeXeXeXeXeXeXeXeXeXeXeXeXeXeXeXeXeXeXeXeXeX  ~ 1XA.h B 1   S.[.[.S.  1 =.h A.1X~   eXeXeXeXeXeXeXeXeXeXeXeXeXeXeXeXeXeXeXeXeXeXeX",
"eXeXeXeXeXeXeXeXeXeXeXeXeXeXeXeXeXeXeXeX      ~ >X8XZ., V M s 8.Q.Q.8.s V V < Z.8X>X~ X     eXeXeXeXeXeXeXeXeXeXeXeXeXeXeXeXeXeXeXeX",
"eXeXeXeXeXeXeXeXeXeXeXeXeXeXeXeXeXeXeX+ 9 9 L 1X9X,X0   @.N.r.3.,.,.5.r.N.@.  0 :X9X<XL 9 9 + eXeXeXeXeXeXeXeXeXeXeXeXeXeXeXeXeXeXeX",
"eXeXeXeXeXeXeXeXeXeXeXeXeXeXeXeXeXeX  K 2X5X4X9X,X] %   @.r.r.4.3.5.4.4.r.@.  % ] ,X9X4X5X5XK   eXeXeXeXeXeXeXeXeXeXeXeXeXeXeXeXeXeX",
"eXeXeXeXeXeXeXeXeXeXeXeXeXeXeXeXeXeX  ! qXwX0XOXE & + g T W R R R R R R W T g + & E OX0XwXqX!   eXeXeXeXeXeXeXeXeXeXeXeXeXeXeXeXeXeX",
"eXeXeXeXeXeXeXeXeXeXeXeXeXeXeXeXeXeX  K -X6XoX9     k e.U y P P P P P P y U q.k     6 oX7X-XK   eXeXeXeXeXeXeXeXeXeXeXeXeXeXeXeXeXeX",
"eXeXeXeXeXeXeXeXeXeXeXeXeXeXeXeXeXeXeX# i K 0   O k i.c.&.%.$.$.$.$.$.$.%.&.c.i.l O   i K i # eXeXeXeXeXeXeXeXeXeXeXeXeXeXeXeXeXeXeX",
"eXeXeXeXeXeXeXeXeXeXeXeXeXeXeXeXeXeXeXeX        4 <.p.f.d.d.f.d.d.d.d.d.d.d.l.p.<.3         eXeXeXeXeXeXeXeXeXeXeXeXeXeXeXeXeXeXeXeX",
"eXeXeXeXeXeXeXeXeXeXeXeXeXeXeXeXeXeXeXeXeXeXeX  X : z b.z.f.h.h.h.h.l.l.d.z.b.>.> eXeXeXeXeXeXeXeXeXeXeXeXeXeXeXeXeXeXeXeXeXeXeXeXeX",
"eXeXeXeXeXeXeXeXeXeXeXeXeXeXeXeXeXeXeXeXeXeXeX  o = - l +.#.o.o.o.o.o.o.O.o.M >     eXeXeXeXeXeXeXeXeXeXeXeXeXeXeXeXeXeXeXeXeXeXeXeX",
"eXeXeXeXeXeXeXeXeXeXeXeXeXeXeXeXeXeXeXeXeXeXeX  = u =                                 eXeXeXeXeXeXeXeXeXeXeXeXeXeXeXeXeXeXeXeXeXeXeX",
"eXeXeXeXeXeXeXeXeXeXeXeXeXeXeXeXeXeXeXeXeXeXeXeXo = o       eXeXeXeX    q / / ^ q o   eXeXeXeXeXeXeXeXeXeXeXeXeXeXeXeXeXeXeXeXeXeXeX",
"eXeXeXeXeXeXeXeXeXeXeXeXeXeXeXeXeXeXeXeXeXeXeXeXeX        eXeXeXeXeXeX  w ) ) ( u %   eXeXeXeXeXeXeXeXeXeXeXeXeXeXeXeXeXeXeXeXeXeXeX",
"eXeXeXeXeXeXeXeXeXeXeXeXeXeXeXeXeXeXeXeXeXeXeXeXeXeXeXeXeXeXeXeXeXeXeXeXo = & % o X eXeXeXeXeXeXeXeXeXeXeXeXeXeXeXeXeXeXeXeXeXeXeXeX",
"eXeXeXeXeXeXeXeXeXeXeXeXeXeXeXeXeXeXeXeXeXeXeXeXeXeXeXeXeXeXeXeXeXeXeXeX          eXeXeXeXeXeXeXeXeXeXeXeXeXeXeXeXeXeXeXeXeXeXeXeXeX",
"eXeXeXeXeXeXeXeXeXeXeXeXeXeXeXeXeXeXeXeXeXeXeXeXeXeXeXeXeXeXeXeXeXeXeXeX          eXeXeXeXeXeXeXeXeXeXeXeXeXeXeXeXeXeXeXeXeXeXeXeXeX",
"eXeXeXeXeXeXeXeXeXeXeXeXeXeXeXeXeXeXeXeXeXeXeXeXeXeXeXeXeXeXeXeXeXeXeXeXeXeXeXeXeXeXeXeXeXeXeXeXeXeXeXeXeXeXeXeXeXeXeXeXeXeXeXeXeXeX",
"eXeXeXeXeXeXeXeXeXeXeXeXeXeXeXeXeXeXeXeXeXeXeXeXeXeXeXeXeXeXeXeXeXeXeXeXeXeXeXeXeXeXeXeXeXeXeXeXeXeXeXeXeXeXeXeXeXeXeXeXeXeXeXeXeXeX",
"eXeXeXeXeXeXeXeXeXeXeXeXeXeXeXeXeXeXeXeXeXeXeXeXeXeXeXeXeXeXeXeXeXeXeXeXeXeXeXeXeXeXeXeXeXeXeXeXeXeXeXeXeXeXeXeXeXeXeXeXeXeXeXeXeXeX",
"eXeXeXeXeXeXeXeXeXeXeXeXeXeXeXeXeXeXeXeXeXeXeXeXeXeXeXeXeXeXeXeXeXeXeXeXeXeXeXeXeXeXeXeXeXeXeXeXeXeXeXeXeXeXeXeXeXeXeXeXeXeXeXeXeXeX",
"eXeXeXeXeXeXeXeXeXeXeXeXeXeXeXeXeXeXeXeXeXeXeXeXeXeXeXeXeXeXeXeXeXeXeXeXeXeXeXeXeXeXeXeXeXeXeXeXeXeXeXeXeXeXeXeXeXeXeXeXeXeXeXeXeXeX",
"eXeXeXeXeXeXeXeXeXeXeXeXeXeXeXeXeXeXeXeXeXeXeXeXeXeXeXeXeXeXeXeXeXeXeXeXeXeXeXeXeXeXeXeXeXeXeXeXeXeXeXeXeXeXeXeXeXeXeXeXeXeXeXeXeXeX",
"eXeXeXeXeXeXeXeXeXeXeXeXeXeXeXeXeXeXeXeXeXeXeXeXeXeXeXeXeXeXeXeXeXeXeXeXeXeXeXeXeXeXeXeXeXeXeXeXeXeXeXeXeXeXeXeXeXeXeXeXeXeXeXeXeXeX",
"eXeXeXeXeXeXeXeXeXeXeXeXeXeXeXeXeXeXeXeXeXeXeXeXeXeXeXeXeXeXeXeXeXeXeXeXeXeXeXeXeXeXeXeXeXeXeXeXeXeXeXeXeXeXeXeXeXeXeXeXeXeXeXeXeXeX",
"eXeXeXeXeXeXeXeXeXeXeXeXeXeXeXeXeXeXeXeXeXeXeXeXeXeXeXeXeXeXeXeXeXeXeXeXeXeXeXeXeXeXeXeXeXeXeXeXeXeXeXeXeXeXeXeXeXeXeXeXeXeXeXeXeXeX",
"eXeXeXeXeXeXeXeXeXeXeXeXeXeXeXeXeXeXeXeXeXeXeXeXeXeXeXeXeXeXeXeXeXeXeXeXeXeXeXeXeXeXeXeXeXeXeXeXeXeXeXeXeXeXeXeXeXeXeXeXeXeXeXeXeXeX",
"eXeXeXeXeXeXeXeXeXeXeXeXeXeXeXeXeXeXeXeXeXeXeXeXeXeXeXeXeXeXeXeXeXeXeXeXeXeXeXeXeXeXeXeXeXeXeXeXeXeXeXeXeXeXeXeXeXeXeXeXeXeXeXeXeXeX",
"eXeXeXeXeXeXeXeXeXeXeXeXeXeXeXeXeXeXeXeXeXeXeXeXeXeXeXeXeXeXeXeXeXeXeXeXeXeXeXeXeXeXeXeXeXeXeXeXeXeXeXeXeXeXeXeXeXeXeXeXeXeXeXeXeXeX",
"eXeXeXeXeXeXeXeXeXeXeXeXeXeXeXeXeXeXeXeXeXeXeXeXeXeXeXeXeXeXeXeXeXeXeXeXeXeXeXeXeXeXeXeXeXeXeXeXeXeXeXeXeXeXeXeXeXeXeXeXeXeXeXeXeXeX",
"eXeXeXeXeXeXeXeXeXeXeXeXeXeXeXeXeXeXeXeXeXeXeXeXeXeXeXeXeXeXeXeXeXeXeXeXeXeXeXeXeXeXeXeXeXeXeXeXeXeXeXeXeXeXeXeXeXeXeXeXeXeXeXeXeXeX",
"eXeXeXeXeXeXeXeXeXeXeXeXeXeXeXeXeXeXeXeXeXeXeXeXeXeXeXeXeXeXeXeXeXeXeXeXeXeXeXeXeXeXeXeXeXeXeXeXeXeXeXeXeXeXeXeXeXeXeXeXeXeXeXeXeXeX",
"eXeXeXeXeXeXeXeXeXeXeXeXeXeXeXeXeXeXeXeXeXeXeXeXeXeXeXeXeXeXeXeXeXeXeXeXeXeXeXeXeXeXeXeXeXeXeXeXeXeXeXeXeXeXeXeXeXeXeXeXeXeXeXeXeXeX",
"eXeXeXeXeXeXeXeXeXeXeXeXeXeXeXeXeXeXeXeXeXeXeXeXeXeXeXeXeXeXeXeXeXeXeXeXeXeXeXeXeXeXeXeXeXeXeXeXeXeXeXeXeXeXeXeXeXeXeXeXeXeXeXeXeXeX"
};
