/* XPM */
static char *result[] = {
/* columns rows colors chars-per-pixel */
"44 52 13 1 ",
"  c #000001",
". c #781028",
"X c #107828",
"o c #704020",
"O c #A07840",
"+ c #40A028",
"@ c #10F808",
"# c #F8F800",
"$ c #D8A850",
"% c #D0B088",
"& c #B8F8A0",
"* c #F8E0B8",
"= c #489848",
/* pixels */
"============================================",
"============================================",
"============================================",
"============================================",
"==================  OOOOOOoo================",
"==================  OOOOOOoo================",
"================  $$######$$OO==============",
"================  $$######$$OO==============",
"==============  @@@@@@@@@@@@##OOoo==========",
"==============  @@@@@@@@@@@@##OOoo==========",
"============  @@@@@@@@@@@@@@@@XX$$OO========",
"============  @@@@@@@@@@@@@@@@XX$$OO========",
"==========  ++@@@@@@@@@@@@@@@@++##OO========",
"==========  ++@@@@@@@@@@@@@@@@++##OO========",
"==========  ++@@@@@@@@@@@@@@++++XX==========",
"==========  ++@@@@@@@@@@@@@@++++XX==========",
"======OO%%XX++++@@@@@@@@@@++++++XX%%OO======",
"======OO%%XX++++@@@@@@@@@@++++++XX%%OO======",
"====oo****XXXX++@@@@@@++++++  ++XX****oo====",
"====oo****XXXX++@@@@@@++++++  ++XX****oo====",
"======ooOOXX  ++++++++++++++  XXXXOOoo======",
"======ooOOXX  ++++++++++++++  XXXXOOoo======",
"========oooo  XX++++++++XX  XXXXoooo========",
"========oooo  XX++++++++XX  XXXXoooo========",
"========  ##oo  ++++++XX  XXXXoo##  ========",
"========  ##oo  ++++++XX  XXXXoo##  ========",
"==========  OO  ++++XX  XX####OO  ==========",
"==========  OO  ++++XX  XX####OO  ==========",
"============    XXXX  XX##      ============",
"============    XXXX  XX##      ============",
"============    XXXX  ##  XX  ==============",
"============    XXXX  ##  XX  ==============",
"==========  &&      XX++++oooo  ============",
"==========  &&      XX++++oooo  ============",
"==========  **  XX++++++++  &&&&  ==========",
"==========  **  XX++++++++  &&&&  ==========",
"============  ++oooooooooo  oo**%%  ========",
"============  ++oooooooooo  oo**%%  ========",
"==========  ++@@@@@@@@@@@@XX  ****  ========",
"==========  ++@@@@@@@@@@@@XX  ****  ========",
"============        ++@@@@++      ==========",
"============        ++@@@@++      ==========",
"============  ******        ================",
"============  ******        ================",
"==========  ..OOOO  ========================",
"==========  ..OOOO  ========================",
"============      ==========================",
"============      ==========================",
"============================================",
"============================================",
"============================================",
"============================================"
};
