/* XPM */
static char *result[] = {
/* columns rows colors chars-per-pixel */
"66 72 215 2 ",
"   c #000001",
".  c #0C0001",
"X  c #030C03",
"o  c #180209",
"O  c #071906",
"+  c #171509",
"@  c #081711",
"#  c #191913",
"$  c #1B0C19",
"%  c #27040A",
"&  c #340608",
"*  c #370713",
"=  c #361B19",
"-  c #27160A",
";  c #08250A",
":  c #112B0B",
">  c #00340C",
",  c #00380B",
"<  c #19350D",
"1  c #002C13",
"2  c #033212",
"3  c #003A19",
"4  c #053318",
"5  c #1A3711",
"6  c #332600",
"7  c #323201",
"8  c #252019",
"9  c #34331D",
"0  c #0E3A26",
"q  c #2C2A23",
"w  c #3A3329",
"e  c #5B0618",
"r  c #7A1717",
"t  c #402514",
"y  c #5A3811",
"u  c #653214",
"i  c #75361F",
"p  c #731027",
"a  c #513B25",
"s  c #623624",
"d  c #094A19",
"f  c #135119",
"g  c #104F0F",
"h  c #274318",
"j  c #275717",
"k  c #3B4307",
"l  c #006F1D",
"z  c #0C750E",
"x  c #246E1B",
"c  c #286819",
"v  c #2D7D1D",
"b  c #327F1C",
"n  c #005E31",
"m  c #165523",
"M  c #2D5327",
"N  c #355731",
"B  c #056928",
"V  c #186B23",
"C  c #077A28",
"Z  c #127B29",
"A  c #147826",
"S  c #007630",
"D  c #247F26",
"F  c #367A25",
"G  c #307534",
"H  c #7A5708",
"J  c #5B6100",
"K  c #646300",
"L  c #4D4132",
"P  c #55493A",
"I  c #4B543D",
"U  c #704021",
"Y  c #784828",
"T  c #695522",
"R  c #6B4D2B",
"E  c #4E6523",
"W  c #596E27",
"Q  c #58653A",
"!  c #607429",
"~  c #4B5407",
"^  c #1B7640",
"/  c #6A5E4C",
"(  c #55714A",
")  c #85111D",
"_  c #A7101D",
"`  c #AD1D28",
"'  c #D82827",
"]  c #877217",
"[  c #874C24",
"{  c #845533",
"}  c #866836",
"|  c #956A39",
" . c #986A2A",
".. c #A96D3A",
"X. c #A27B42",
"o. c #AC7648",
"O. c #A57E5B",
"+. c #966A47",
"@. c #0A9805",
"#. c #039C02",
"$. c #0B8C0F",
"%. c #2D851F",
"&. c #20961E",
"*. c #39AA11",
"=. c #3BA310",
"-. c #35B911",
";. c #2DB716",
":. c #0B8427",
">. c #12862D",
",. c #1B952F",
"<. c #268825",
"1. c #398923",
"2. c #2B982B",
"3. c #379529",
"4. c #2D8E39",
"5. c #35A52C",
"6. c #3BAC2A",
"7. c #38B723",
"8. c #31A730",
"9. c #47921F",
"0. c #649717",
"q. c #6EA719",
"w. c #67B41D",
"e. c #459C2B",
"r. c #499A28",
"t. c #478E2D",
"y. c #41A129",
"u. c #46A92A",
"i. c #47B62C",
"p. c #4BBA30",
"a. c #4BA713",
"s. c #16D40C",
"d. c #2BC41A",
"f. c #25CB19",
"g. c #26D716",
"h. c #33C01F",
"j. c #0CE50C",
"k. c #19EB0E",
"l. c #1BE30F",
"z. c #06FF04",
"x. c #0CFD06",
"c. c #00F809",
"v. c #0EFC08",
"b. c #00F709",
"n. c #11F609",
"m. c #10F908",
"M. c #1AF90C",
"N. c #26E714",
"B. c #29F618",
"V. c #36CA20",
"C. c #39DF23",
"Z. c #70FF00",
"A. c #6EFD0B",
"S. c #49C02E",
"D. c #65E127",
"F. c #388F44",
"G. c #3BA148",
"H. c #568F57",
"J. c #5EBB62",
"K. c #979000",
"L. c #91860D",
"P. c #AD9B00",
"I. c #BA8917",
"U. c #BC9017",
"Y. c #99B10A",
"T. c #8DB115",
"R. c #ACB505",
"E. c #81B022",
"W. c #B5B324",
"Q. c #B49134",
"!. c #D4AB27",
"~. c #D7B029",
"^. c #EEBE31",
"/. c #CBA424",
"(. c #9CD015",
"). c #B4DF07",
"_. c #90FF07",
"`. c #BCE60C",
"'. c #B2EC08",
"]. c #D9DD00",
"[. c #E9DB00",
"{. c #E5C80C",
"}. c #FBFC00",
"|. c #FFF50C",
" X c #EEEF0D",
".X c #F2C438",
"XX c #FCEC23",
"oX c #AB8563",
"OX c #AB9070",
"+X c #92B17D",
"@X c #ADA773",
"#X c #D9A84F",
"$X c #D49D72",
"%X c #CCA97A",
"&X c #D6A174",
"*X c #EAC246",
"=X c #D0B088",
"-X c #CABD98",
";X c #AED98A",
":X c #B2D49D",
">X c #BADA8A",
",X c #B3EE9D",
"<X c #B8F8A0",
"1X c #C8C899",
"2X c #CFD09F",
"3X c #D1D1A3",
"4X c #D2C5A8",
"5X c #EDCEA7",
"6X c #F5D0A0",
"7X c #CDFFB9",
"8X c #DAFFBC",
"9X c #F8E3B6",
"0X c #FFF2C3",
"qX c #FFFBD6",
"wX c #489848",
/* pixels */
"wXwXwXwXwXwXwXwXwXwXwXwXwXwXwXwXwXwXwXwXwXwXwXwXwXwXwXwXwXwXwXwXwXwXwXwXwXwXwXwXwXwXwXwXwXwXwXwXwXwXwXwXwXwXwXwXwXwXwXwXwXwXwXwXwXwX",
"wXwXwXwXwXwXwXwXwXwXwXwXwXwXwXwXwXwXwXwXwXwXwXwXwXwXwXwXwXwXwXwXwXwXwXwXwXwXwXwXwXwXwXwXwXwXwXwXwXwXwXwXwXwXwXwXwXwXwXwXwXwXwXwXwXwX",
"wXwXwXwXwXwXwXwXwXwXwXwXwXwXwXwXwXwXwXwXwXwXwXwXwXwXwXwXwXwXwXwXwXwXwXwXwXwXwXwXwXwXwXwXwXwXwXwXwXwXwXwXwXwXwXwXwXwXwXwXwXwXwXwXwXwX",
"wXwXwXwXwXwXwXwXwXwXwXwXwXwXwXwXwXwXwXwXwXwXwXwXwXwXwXwXwXwXwXwXwXwXwXwXwXwXwXwXwXwXwXwXwXwXwXwXwXwXwXwXwXwXwXwXwXwXwXwXwXwXwXwXwXwX",
"wXwXwXwXwXwXwXwXwXwXwXwXwXwXwXwXwXwXwXwXwXwXwXwXwXwXwXwXwXwXwXwXwXwXwXwXwXwXwXwXwXwXwXwXwXwXwXwXwXwXwXwXwXwXwXwXwXwXwXwXwXwXwXwXwXwX",
"wXwXwXwXwXwXwXwXwXwXwXwXwXwXwXwXwXwXwXwXwXwXwXwXwXwXwXwXwXwXwXwXwXwXwXwXwXwXwXwXwXwXwXwXwXwXwXwXwXwXwXwXwXwXwXwXwXwXwXwXwXwXwXwXwXwX",
"wXwXwXwXwXwXwXwXwXwXwXwXwXwXwXwXwXwXwXwXwXwXwXwXwXwXwXwXwXwXwXwXwXwXwXwXwXwXwXwXwXwXwXwXwXwXwXwXwXwXwXwXwXwXwXwXwXwXwXwXwXwXwXwXwXwX",
"wXwXwXwXwXwXwXwXwXwXwXwXwXwXwXwXwXwXwXwXwXwXwXwXwXwXwXwXwXwXwXwXwXwXwXwXwXwXwXwXwXwXwXwXwXwXwXwXwXwXwXwXwXwXwXwXwXwXwXwXwXwXwXwXwXwX",
"wXwXwXwXwXwXwXwXwXwXwXwXwXwXwXwXwXwXwXwXwXwXwXwXwXwXwXwXwXwXwXwXwXwXwXwXwXwXwXwXwXwXwXwXwXwXwXwXwXwXwXwXwXwXwXwXwXwXwXwXwXwXwXwXwXwX",
"wXwXwXwXwXwXwXwXwXwXwXwXwXwXwXwXwXwXwXwXwXwXwXwXwXwXwXwXwXwXwXwXwXwXwXwXwXwXwXwXwXwXwXwXwXwXwXwXwXwXwXwXwXwXwXwXwXwXwXwXwXwXwXwXwXwX",
"wXwXwXwXwXwXwXwXwXwXwXwXwXwXwXwXwXwXwXwXwXwXwXwXwXwXwXwXwXwXwXwXwXwXwXwXwXwXwXwXwXwXwXwXwXwXwXwXwXwXwXwXwXwXwXwXwXwXwXwXwXwXwXwXwXwX",
"wXwXwXwXwXwXwXwXwXwXwXwXwXwXwXwXwXwXwXwXwXwXwXwXwXwXwXwXwXwXwXwXwXwXwXwXwXwXwXwXwXwXwXwXwXwXwXwXwXwXwXwXwXwXwXwXwXwXwXwXwXwXwXwXwXwX",
"wXwXwXwXwXwXwXwXwXwXwXwXwXwXwXwXwXwXwXwXwXwXwXwXwXwXwXwXwXwXwXwXwXwXwXwXwXwXwXwXwXwXwXwXwXwXwXwXwXwXwXwXwXwXwXwXwXwXwXwXwXwXwXwXwXwX",
"wXwXwXwXwXwXwXwXwXwXwXwXwXwXwXwXwXwXwXwXwXwXwXwXwXwXwXwXwXwXwXwXwXwXwXwXwXwXwXwXwXwXwXwXwXwXwXwXwXwXwXwXwXwXwXwXwXwXwXwXwXwXwXwXwXwX",
"wXwXwXwXwXwXwXwXwXwXwXwXwXwXwXwXwXwXwXwXwXwXwXwXwXwXwXwXwXwXwXwXwXwXwXwXwXwXwXwXwXwXwXwXwXwXwXwXwXwXwXwXwXwXwXwXwXwXwXwXwXwXwXwXwXwX",
"wXwXwXwXwXwXwXwXwXwXwXwXwXwXwXwXwXwXwXwXwXwXwXwXwXwXwXwXwXwXwXwXwXwXwXwXwXwXwXwXwXwXwXwXwXwXwXwXwXwXwXwXwXwXwXwXwXwXwXwXwXwXwXwXwXwX",
"wXwXwXwXwXwXwXwXwXwXwXwXwXwXwXwXwXwXwXwXwXwXwXwXwXwXwXwXwXwXwXwXwXwXwXwXwXwXwXwXwXwXwXwXwXwXwXwXwXwXwXwXwXwXwXwXwXwXwXwXwXwXwXwXwXwX",
"wXwXwXwXwXwXwXwXwXwXwXwXwXwXwXwXwXwXwXwXwXwXwXwXwXwXwXwXwXwXwXwXwXwXwXwXwXwXwXwXwXwXwXwXwXwXwXwXwXwXwXwXwXwXwXwXwXwXwXwXwXwXwXwXwXwX",
"wXwXwXwXwXwXwXwXwXwXwXwXwXwXwXwXwXwXwXwXwXwXwXwXwXwXwXwXwXwXU | X.X.X.X.Y [ wXwXwXwXwXwXwXwXwXwXwXwXwXwXwXwXwXwXwXwXwXwXwXwXwXwXwXwX",
"wXwXwXwXwXwXwXwXwXwXwXwXwXwXwXwXwXwXwXwXwXwXwXwXwXwXwXwXwX= ../.~.!.!.!.U.U.#XwXwXwXwXwXwXwXwXwXwXwXwXwXwXwXwXwXwXwXwXwXwXwXwXwXwXwX",
"wXwXwXwXwXwXwXwXwXwXwXwXwXwXwXwXwXwXwXwXwXwXwXwXwXwXwXwX  a #XXX}.}.}.|.}. X*Xo.U wXwXwXwXwXwXwXwXwXwXwXwXwXwXwXwXwXwXwXwXwXwXwXwXwX",
"wXwXwXwXwXwXwXwXwXwXwXwXwXwXwXwXwXwXwXwXwXwXwXwXwXwXwX  z ;.D.A.Z.Z.Z.Z.Z._. X.Xo.Y wXwXwXwXwXwXwXwXwXwXwXwXwXwXwXwXwXwXwXwXwXwXwXwX",
"wXwXwXwXwXwXwXwXwXwXwXwXwXwXwXwXwXwXwXwXwXwXwXwXwXwX; g j.x.z.b.b.b.b.b.c.M.'.XX*X..U wXwXwXwXwXwXwXwXwXwXwXwXwXwXwXwXwXwXwXwXwXwXwX",
"wXwXwXwXwXwXwXwXwXwXwXwXwXwXwXwXwXwXwXwXwXwXwXwXwX  z s.m.x.x.x.m.m.b.v.z.j.&.T.|.*Xo.Y u wXwXwXwXwXwXwXwXwXwXwXwXwXwXwXwXwXwXwXwXwX",
"wXwXwXwXwXwXwXwXwXwXwXwXwXwXwXwXwXwXwXwXwXwXwXwXO 5 s.m.v.n.m.m.m.m.m.n.x.j.:.9.`.XX.X .U wXwXwXwXwXwXwXwXwXwXwXwXwXwXwXwXwXwXwXwXwX",
"wXwXwXwXwXwXwXwXwXwXwXwXwXwXwXwXwXwXwXwXwXwXwX  5 u.N.x.x.n.n.m.m.m.m.m.x.k.7.3.3.`.|.Q.+.wXwXwXwXwXwXwXwXwXwXwXwXwXwXwXwXwXwXwXwXwX",
"wXwXwXwXwXwXwXwXwXwXwXwXwXwXwXwXwXwXwXwXwXwXwXo : p.B.z.x.n.m.m.m.n.z.z.l.7.i.5.3.a.E.wXwXwXwXwXwXwXwXwXwXwXwXwXwXwXwXwXwXwXwXwXwXwX",
"wXwXwXwXwXwXwXwXwXwXwXwXwXwXwXwXwXwXwXwXwXwXwXq ; 1.d.n.n.m.m.m.m.x.n.l.7.t.F 1.5.C ^ wXwXwXwXwXwXwXwXwXwXwXwXwXwXwXwXwXwXwXwXwXwXwX",
"wXwXwXwXwXwXwXwXwXwXwXwXwXwXwXwXwXwXwXwX| &X@XG > O c V.k.m.m.x.z.z.l.6.p.1.O 5 y.$.G @X&X| wXwXwXwXwXwXwXwXwXwXwXwXwXwXwXwXwXwXwXwX",
"wXwXwXwXwXwXwXwXwXwXwXwXwXwXwXwXwXwXwX+.%X5X1XG.,   h i.M.z.x.l.g.g.V.u.F h : j u.:.F.-X5X%X+.wXwXwXwXwXwXwXwXwXwXwXwXwXwXwXwXwXwXwX",
"wXwXwXwXwXwXwXwXwXwXwXwXwXwXwXwXwXwXU O.9XqX2X4.>   j 7.k.z.m.d.r.e.u.y.: X %.i.5.z 4.1XqX9XO.U wXwXwXwXwXwXwXwXwXwXwXwXwXwXwXwXwXwX",
"wXwXwXwXwXwXwXwXwXwXwXwXwXwXwXwXwXwXwX{ oX%X@X4.,   j i.7.f.d.u.e.2.V < ; f y.u.<.B 4.@X%XoX{ wXwXwXwXwXwXwXwXwXwXwXwXwXwXwXwXwXwXwX",
"wXwXwXwXwXwXwXwXwXwXwXwXwXwXwXwXwXwXwXwXu [ ! G 4   j u.e.e.e.6.3.V 1 X d ,.3.2.Z B F } [ u wXwXwXwXwXwXwXwXwXwXwXwXwXwXwXwXwXwXwXwX",
"wXwXwXwXwXwXwXwXwXwXwXwXwXwXwXwXwXwXwXwXwX[ [ R =   c i.u.u.u.8.B O O m C Z Z :.:.N s Y [ wXwXwXwXwXwXwXwXwXwXwXwXwXwXwXwXwXwXwXwXwX",
"wXwXwXwXwXwXwXwXwXwXwXwXwXwXwXwXwXwXwXwXwXt y U.H   f 8.5.F j f 2 O d >.:.B B B M L. .y t wXwXwXwXwXwXwXwXwXwXwXwXwXwXwXwXwXwXwXwXwX",
"wXwXwXwXwXwXwXwXwXwXwXwXwXwXwXwXwXwXwXwXwX. 7 [.R.  3 >.>.d     O B >.A Z C C M U [.[.7   wXwXwXwXwXwXwXwXwXwXwXwXwXwXwXwXwXwXwXwXwX",
"wXwXwXwXwXwXwXwXwXwXwXwXwXwXwXwXwXwXwXwXwXwX+ K ] R 9 2 2 2 4 3 d Z S B w.`.`.W.+.] K + wXwXwXwXwXwXwXwXwXwXwXwXwXwXwXwXwXwXwXwXwXwX",
"wXwXwXwXwXwXwXwXwXwXwXwXwXwXwXwXwXwXwXwXwXwXwX  = } t     5 y.2.C S Z =.R.[.[./.} $   wXwXwXwXwXwXwXwXwXwXwXwXwXwXwXwXwXwXwXwXwXwXwX",
"wXwXwXwXwXwXwXwXwXwXwXwXwXwXwXwXwXwXwXwXwXwXwXwXwXo . X   K  Xw.n n w. X] 6 7 - . wXwXwXwXwXwXwXwXwXwXwXwXwXwXwXwXwXwXwXwXwXwXwXwXwX",
"wXwXwXwXwXwXwXwXwXwXwXwXwXwXwXwXwXwXwXwXwXwXwXwX@ N m > , ~ P.Y.q.q.Y.P.k @ @ d N # wXwXwXwXwXwXwXwXwXwXwXwXwXwXwXwXwXwXwXwXwXwXwXwX",
"wXwXwXwXwXwXwXwXwXwXwXwXwXwXwXwXwXwXwXwXwXwXwX  ( <XJ.l Z 3   K.}.}.K.  3 Z l J.<X(   wXwXwXwXwXwXwXwXwXwXwXwXwXwXwXwXwXwXwXwXwXwXwX",
"wXwXwXwXwXwXwXwXwXwXwXwXwXwXwXwXwXwXwXwX    X ( :X7XH.> <.D f 0.(.(.0.f D %., H.7X:X(       wXwXwXwXwXwXwXwXwXwXwXwXwXwXwXwXwXwXwXwX",
"wXwXwXwXwXwXwXwXwXwXwXwXwXwXwXwXwXwXwX+ q q I ,X8X;Xw   b S.i.5.2.2.5.p.S.%.  w ;X8X<XI q q + wXwXwXwXwXwXwXwXwXwXwXwXwXwXwXwXwXwXwX",
"wXwXwXwXwXwXwXwXwXwXwXwXwXwXwXwXwXwX  P -X4X3X8X>X} % X %.i.6.6.6.5.6.6.p.<.  % | >X7X3X4X-XP   wXwXwXwXwXwXwXwXwXwXwXwXwXwXwXwXwXwX",
"wXwXwXwXwXwXwXwXwXwXwXwXwXwXwXwXwXwX  / 0XqX9X+XQ & - h E ! W W W W W W ! E h + & Q +X9XqX0X/   wXwXwXwXwXwXwXwXwXwXwXwXwXwXwXwXwXwX",
"wXwXwXwXwXwXwXwXwXwXwXwXwXwXwXwXwXwX  L =X6XOXq     x r.T i U U U i U U i T u.x     # OX6X=XP   wXwXwXwXwXwXwXwXwXwXwXwXwXwXwXwXwXwX",
"wXwXwXwXwXwXwXwXwXwXwXwXwXwXwXwXwXwXwX8 L P w   O x f.N.-.=.*.*.*.*.*.*.=.-.N.f.x O   a P P # wXwXwXwXwXwXwXwXwXwXwXwXwXwXwXwXwXwXwX",
"wXwXwXwXwXwXwXwXwXwXwXwXwXwXwXwXwXwXwXwX        5 3.g.v.x.z.z.z.z.z.x.z.z.x.v.g.3.<         wXwXwXwXwXwXwXwXwXwXwXwXwXwXwXwXwXwXwXwX",
"wXwXwXwXwXwXwXwXwXwXwXwXwXwXwXwXwXwXwXwXwXwXwXwXwX: v C.M.z.v.v.m.m.m.m.x.M.C.v O X   wXwXwXwXwXwXwXwXwXwXwXwXwXwXwXwXwXwXwXwXwXwXwX",
"wXwXwXwXwXwXwXwXwXwXwXwXwXwXwXwXwXwXwXwXwXwXwXwX    ; x $.#.@.@.@.@.@.@.@.$.c 9 % o   wXwXwXwXwXwXwXwXwXwXwXwXwXwXwXwXwXwXwXwXwXwXwX",
"wXwXwXwXwXwXwXwXwXwXwXwXwXwXwXwXwXwXwXwXwXwXwX                                * p *   wXwXwXwXwXwXwXwXwXwXwXwXwXwXwXwXwXwXwXwXwXwXwX",
"wXwXwXwXwXwXwXwXwXwXwXwXwXwXwXwXwXwXwXwXwXwXwX  o e ) _ _ e     wXwXwXwX      o * o wXwXwXwXwXwXwXwXwXwXwXwXwXwXwXwXwXwXwXwXwXwXwXwX",
"wXwXwXwXwXwXwXwXwXwXwXwXwXwXwXwXwXwXwXwXwXwXwX  % p ` ' ' r   wXwXwXwXwXwX        wXwXwXwXwXwXwXwXwXwXwXwXwXwXwXwXwXwXwXwXwXwXwXwXwX",
"wXwXwXwXwXwXwXwXwXwXwXwXwXwXwXwXwXwXwXwXwXwXwXwXX o % * & o wXwXwXwXwXwXwXwXwXwXwXwXwXwXwXwXwXwXwXwXwXwXwXwXwXwXwXwXwXwXwXwXwXwXwXwX",
"wXwXwXwXwXwXwXwXwXwXwXwXwXwXwXwXwXwXwXwXwXwXwXwXwX          wXwXwXwXwXwXwXwXwXwXwXwXwXwXwXwXwXwXwXwXwXwXwXwXwXwXwXwXwXwXwXwXwXwXwXwX",
"wXwXwXwXwXwXwXwXwXwXwXwXwXwXwXwXwXwXwXwXwXwXwXwXwXwXwXwXwXwXwXwXwXwXwXwXwXwXwXwXwXwXwXwXwXwXwXwXwXwXwXwXwXwXwXwXwXwXwXwXwXwXwXwXwXwX",
"wXwXwXwXwXwXwXwXwXwXwXwXwXwXwXwXwXwXwXwXwXwXwXwXwXwXwXwXwXwXwXwXwXwXwXwXwXwXwXwXwXwXwXwXwXwXwXwXwXwXwXwXwXwXwXwXwXwXwXwXwXwXwXwXwXwX",
"wXwXwXwXwXwXwXwXwXwXwXwXwXwXwXwXwXwXwXwXwXwXwXwXwXwXwXwXwXwXwXwXwXwXwXwXwXwXwXwXwXwXwXwXwXwXwXwXwXwXwXwXwXwXwXwXwXwXwXwXwXwXwXwXwXwX",
"wXwXwXwXwXwXwXwXwXwXwXwXwXwXwXwXwXwXwXwXwXwXwXwXwXwXwXwXwXwXwXwXwXwXwXwXwXwXwXwXwXwXwXwXwXwXwXwXwXwXwXwXwXwXwXwXwXwXwXwXwXwXwXwXwXwX",
"wXwXwXwXwXwXwXwXwXwXwXwXwXwXwXwXwXwXwXwXwXwXwXwXwXwXwXwXwXwXwXwXwXwXwXwXwXwXwXwXwXwXwXwXwXwXwXwXwXwXwXwXwXwXwXwXwXwXwXwXwXwXwXwXwXwX",
"wXwXwXwXwXwXwXwXwXwXwXwXwXwXwXwXwXwXwXwXwXwXwXwXwXwXwXwXwXwXwXwXwXwXwXwXwXwXwXwXwXwXwXwXwXwXwXwXwXwXwXwXwXwXwXwXwXwXwXwXwXwXwXwXwXwX",
"wXwXwXwXwXwXwXwXwXwXwXwXwXwXwXwXwXwXwXwXwXwXwXwXwXwXwXwXwXwXwXwXwXwXwXwXwXwXwXwXwXwXwXwXwXwXwXwXwXwXwXwXwXwXwXwXwXwXwXwXwXwXwXwXwXwX",
"wXwXwXwXwXwXwXwXwXwXwXwXwXwXwXwXwXwXwXwXwXwXwXwXwXwXwXwXwXwXwXwXwXwXwXwXwXwXwXwXwXwXwXwXwXwXwXwXwXwXwXwXwXwXwXwXwXwXwXwXwXwXwXwXwXwX",
"wXwXwXwXwXwXwXwXwXwXwXwXwXwXwXwXwXwXwXwXwXwXwXwXwXwXwXwXwXwXwXwXwXwXwXwXwXwXwXwXwXwXwXwXwXwXwXwXwXwXwXwXwXwXwXwXwXwXwXwXwXwXwXwXwXwX",
"wXwXwXwXwXwXwXwXwXwXwXwXwXwXwXwXwXwXwXwXwXwXwXwXwXwXwXwXwXwXwXwXwXwXwXwXwXwXwXwXwXwXwXwXwXwXwXwXwXwXwXwXwXwXwXwXwXwXwXwXwXwXwXwXwXwX",
"wXwXwXwXwXwXwXwXwXwXwXwXwXwXwXwXwXwXwXwXwXwXwXwXwXwXwXwXwXwXwXwXwXwXwXwXwXwXwXwXwXwXwXwXwXwXwXwXwXwXwXwXwXwXwXwXwXwXwXwXwXwXwXwXwXwX",
"wXwXwXwXwXwXwXwXwXwXwXwXwXwXwXwXwXwXwXwXwXwXwXwXwXwXwXwXwXwXwXwXwXwXwXwXwXwXwXwXwXwXwXwXwXwXwXwXwXwXwXwXwXwXwXwXwXwXwXwXwXwXwXwXwXwX",
"wXwXwXwXwXwXwXwXwXwXwXwXwXwXwXwXwXwXwXwXwXwXwXwXwXwXwXwXwXwXwXwXwXwXwXwXwXwXwXwXwXwXwXwXwXwXwXwXwXwXwXwXwXwXwXwXwXwXwXwXwXwXwXwXwXwX",
"wXwXwXwXwXwXwXwXwXwXwXwXwXwXwXwXwXwXwXwXwXwXwXwXwXwXwXwXwXwXwXwXwXwXwXwXwXwXwXwXwXwXwXwXwXwXwXwXwXwXwXwXwXwXwXwXwXwXwXwXwXwXwXwXwXwX",
"wXwXwXwXwXwXwXwXwXwXwXwXwXwXwXwXwXwXwXwXwXwXwXwXwXwXwXwXwXwXwXwXwXwXwXwXwXwXwXwXwXwXwXwXwXwXwXwXwXwXwXwXwXwXwXwXwXwXwXwXwXwXwXwXwXwX",
"wXwXwXwXwXwXwXwXwXwXwXwXwXwXwXwXwXwXwXwXwXwXwXwXwXwXwXwXwXwXwXwXwXwXwXwXwXwXwXwXwXwXwXwXwXwXwXwXwXwXwXwXwXwXwXwXwXwXwXwXwXwXwXwXwXwX",
"wXwXwXwXwXwXwXwXwXwXwXwXwXwXwXwXwXwXwXwXwXwXwXwXwXwXwXwXwXwXwXwXwXwXwXwXwXwXwXwXwXwXwXwXwXwXwXwXwXwXwXwXwXwXwXwXwXwXwXwXwXwXwXwXwXwX"
};
