/* XPM */
static char *result[] = {
/* columns rows colors chars-per-pixel */
"64 64 12 1 ",
"  c #000001",
". c #107828",
"X c #704020",
"o c #A07840",
"O c #40A028",
"+ c #10F808",
"@ c #F8F800",
"# c #D8A850",
"$ c #D0B088",
"% c #B8F8A0",
"& c #F8E0B8",
"* c #489848",
/* pixels */
"****************************************************************",
"****************************************************************",
"****************************************************************",
"****************************************************************",
"****************************************************************",
"****************************************************************",
"****************************  ooooooXX**************************",
"****************************  ooooooXX**************************",
"**************************  ++++++++++oo************************",
"**************************  ++++++++++oo************************",
"************************  ++++++++++++@@oo**********************",
"************************  ++++++++++++@@oo**********************",
"**********************  ++++++++++++++++##XX********************",
"**********************  ++++++++++++++++##XX********************",
"********************  OO++++++++++++++++OOXX********************",
"********************  OO++++++++++++++++OOXX********************",
"********************  OO++++++++++++++OOOOoo********************",
"********************  OO++++++++++++++OOOOoo********************",
"********************  OO++++++++++++OOOOOO..XX******************",
"********************  OO++++++++++++OOOOOO..XX******************",
"****************oo$$..  OO++++++++OOOO  OO..$$oo****************",
"****************oo$$..  OO++++++++OOOO  OO..$$oo****************",
"**************XX&&&&..  OO++++++OOOO..  OO..&&&&XX**************",
"**************XX&&&&..  OO++++++OOOO..  OO..&&&&XX**************",
"****************XXoo..  ..OO++++OO..  ..OO..ooXX****************",
"****************XXoo..  ..OO++++OO..  ..OO..ooXX****************",
"******************XXXX..  OOOOOO..  ......XXXX******************",
"******************XXXX..  OOOOOO..  ......XXXX******************",
"********************  @@  ..OOOO  ....XX@@  ********************",
"********************  @@  ..OOOO  ....XX@@  ********************",
"**********************      ....  @@@@    **********************",
"**********************      ....  @@@@    **********************",
"**********************  ..  ....  ....XX  **********************",
"**********************  ..  ....  ....XX  **********************",
"********************  %%%%..    OOOO..%%%%  ********************",
"********************  %%%%..    OOOO..%%%%  ********************",
"******************  %%%%XXOOOOOOOOOOOO  %%  ********************",
"******************  %%%%XXOOOOOOOOOOOO  %%  ********************",
"****************  $$&&%%  OOOOOOOOOOOOXX    ********************",
"****************  $$&&%%  OOOOOOOOOOOOXX    ********************",
"****************  &&&&  ..XXXXXXXXXXXX++  **********************",
"****************  &&&&  ..XXXXXXXXXXXX++  **********************",
"******************    ..OO++++++++++++OO  **********************",
"******************    ..OO++++++++++++OO  **********************",
"**********************  OO++++++++++OO  ************************",
"**********************  OO++++++++++OO  ************************",
"************************                ************************",
"************************                ************************",
"********************************  XX$$$$  **********************",
"********************************  XX$$$$  **********************",
"**********************************  oooo  **********************",
"**********************************  oooo  **********************",
"************************************    ************************",
"************************************    ************************",
"****************************************************************",
"****************************************************************",
"****************************************************************",
"****************************************************************",
"****************************************************************",
"****************************************************************",
"****************************************************************",
"****************************************************************",
"****************************************************************",
"****************************************************************"
};
