/* XPM */
static char *result[] = {
/* columns rows colors chars-per-pixel */
"44 52 12 1 ",
"  c #000001",
". c #107828",
"X c #704020",
"o c #A07840",
"O c #40A028",
"+ c #10F808",
"@ c #F8F800",
"# c #D8A850",
"$ c #D0B088",
"% c #B8F8A0",
"& c #F8E0B8",
"* c #489848",
/* pixels */
"********************************************",
"********************************************",
"******************  ooooooXX****************",
"******************  ooooooXX****************",
"****************  ##@@@@@@##oo**************",
"****************  ##@@@@@@##oo**************",
"**************  ++++++++++++@@oo************",
"**************  ++++++++++++@@oo************",
"************  ++++++++++++++++OOXX**********",
"************  ++++++++++++++++OOXX**********",
"**********  ..++++++++++++++++OOoo**********",
"**********  ..++++++++++++++++OOoo**********",
"**********  OO++++++++++++++++OOoo**********",
"**********  OO++++++++++++++++OOoo**********",
"******oo$$..OOOO++++++++++++OOOO..$$oo******",
"******oo$$..OOOO++++++++++++OOOO..$$oo******",
"****XX&&&&..OOOOOO++++++++OOOOOO..&&&&XX****",
"****XX&&&&..OOOOOO++++++++OOOOOO..&&&&XX****",
"******XXoo....  OO++++++++OO  ....ooXX******",
"******XXoo....  OO++++++++OO  ....ooXX******",
"********XXXX..  OOOO++++OOOO  ..XXXX********",
"********XXXX..  OOOO++++OOOO  ..XXXX********",
"********  @@XX  ..OOOOOOOO..  XX@@  ********",
"********  @@XX  ..OOOOOOOO..  XX@@  ********",
"**********  ##@@  ..OOOO..  @@##  **********",
"**********  ##@@  ..OOOO..  @@##  **********",
"************    ..  OOOO  ..    ************",
"************    ..  OOOO  ..    ************",
"************  %%OO  ....  ..  **************",
"************  %%OO  ....  ..  **************",
"**********  %%XXOO..    ..OOXX  ************",
"**********  %%XXOO..    ..OOXX  ************",
"**********  %%XXOOOOOOOOOOXX%%  ************",
"**********  %%XXOOOOOOOOOOXX%%  ************",
"************  OOXXXXXXXXXX  %%%%  **********",
"************  OOXXXXXXXXXX  %%%%  **********",
"************  ++    ++++++..  &&$$  ********",
"************  ++    ++++++..  &&$$  ********",
"************  ..$$&&  ++++OO  &&&&  ********",
"************  ..$$&&  ++++OO  &&&&  ********",
"**************  &&&&XX      **    **********",
"**************  &&&&XX      **    **********",
"************  $$&&&&XX  ********************",
"************  $$&&&&XX  ********************",
"************  &&&&&&  **********************",
"************  &&&&&&  **********************",
"**********  XX&&&&$$  **********************",
"**********  XX&&&&$$  **********************",
"**********  XX$$$$XX  **********************",
"**********  XX$$$$XX  **********************",
"************        ************************",
"************        ************************"
};
