/* XPM */
static char *result[] = {
/* columns rows colors chars-per-pixel */
"32 32 8 1 ",
"  c #704048",
". c #986050",
"X c #408870",
"o c #B88858",
"O c #C8B060",
"+ c #88C868",
"@ c #C0E840",
"# c #E8F890",
/* pixels */
"@@@@#@@@@@@@@@#@@@@#@@@#@@@#@@@@",
"@@@@@#+#+#X#@+@#X@X@+@#X#+#@@@@@",
"@@@++@ @ @ @+ +@ + + +@ @ @++@@@",
"@@+..+.+.+X+X.X..X.X.X+.+.+..+@@",
"@+...X.X.X.X..........X.X.X...+@",
"@@.............oo.............@@",
"@#@+...........OOOo.........+@#@",
"+@X............O.oOo.........X@+",
"@+XX...........O..oOo.......XX+@",
"@@.............O...Oo.........@@",
"@#@............O..oOo........@#@",
"@+X............O..Oo.........X+@",
"+@............oO.oOo..........@+",
"@##..........oOo...Oo........##@",
"@@+@.........Oo...oOo.......@+@@",
"@+.+........oO...oOo........+.+@",
"@+XX.......oOo..oo..........XX+@",
"@@.........Oo.................@@",
"@#@.......oO..oOOOOo.........@#@",
"@+X.......oO..Oo..oOo........X+@",
"+@........oO..O....OOo........@+",
"@##.......oOo.Oo.O.OOo.......##@",
"@@+@.......OOooOOooOOo......@+@@",
"@+.+.......oOOo...OOo.......+.+@",
"+@X.........oOOOOOOo.........X@+",
"@#@+.........oOOOOo.........+@#@",
"@@............oooo............@@",
"@+...X.X................X.X...+@",
"@@+..+.+...@........@...+.+..+@@",
"@@@++@ @@.@#X+@..@+X#@.@@ @++@@@",
"@@@@@#+#@+@@+@@++@@+@@+@#+#@@@@@",
"@@@@#@@@@@@@@@@@@@@@@@@@@@@#@@@@"
};
