/* XPM */
static char *result[] = {
/* columns rows colors chars-per-pixel */
"64 64 226 2 ",
"   c #1E123E",
".  c #270D3E",
"X  c #320D3C",
"o  c #30043A",
"O  c #2D133D",
"+  c #261A3F",
"@  c #2D1C3F",
"#  c #31153E",
"$  c #311B3F",
"%  c #3B143F",
"&  c #2E203F",
"*  c #31223F",
"=  c #38273F",
"-  c #36393D",
";  c #42343F",
":  c #49283D",
">  c #7E713E",
",  c #2D1F40",
"<  c #301F40",
"1  c #2E2240",
"2  c #2C2B43",
"3  c #242342",
"4  c #302040",
"5  c #392341",
"6  c #322B42",
"7  c #3B2D42",
"8  c #2B3245",
"9  c #2D3C46",
"0  c #293646",
"q  c #323343",
"w  c #323B45",
"e  c #3C3B48",
"r  c #4F1E42",
"t  c #422541",
"y  c #492541",
"u  c #442B43",
"i  c #4E2C43",
"p  c #522542",
"a  c #542C43",
"s  c #5B2C44",
"d  c #4B3444",
"f  c #583747",
"g  c #612C43",
"h  c #7E2F43",
"j  c #643D46",
"k  c #6C3E47",
"l  c #613B49",
"z  c #6A3245",
"x  c #7A3345",
"c  c #703A46",
"v  c #7A3B47",
"b  c #763F48",
"n  c #2E4648",
"m  c #2F4B49",
"M  c #284347",
"N  c #344346",
"B  c #314E4A",
"V  c #334848",
"C  c #28524C",
"Z  c #365A4B",
"A  c #2D684D",
"S  c #37684D",
"D  c #3C6853",
"F  c #3B7451",
"G  c #357B52",
"H  c #327153",
"J  c #474E4B",
"K  c #5D4C4A",
"L  c #57444A",
"P  c #59594B",
"I  c #535D50",
"U  c #614B49",
"Y  c #654947",
"T  c #744649",
"R  c #7B4149",
"E  c #764A48",
"W  c #6C534B",
"Q  c #67564A",
"!  c #77574B",
"~  c #436C4A",
"^  c #486A46",
"/  c #52644E",
"(  c #546A4F",
")  c #586749",
"_  c #4B7D4A",
"`  c #487648",
"'  c #567747",
"]  c #597A4A",
"[  c #466652",
"{  c #566850",
"}  c #537550",
"|  c #507D51",
" . c #587550",
".. c #686846",
"X. c #77644B",
"o. c #637948",
"O. c #787A47",
"+. c #6E7352",
"@. c #845A4D",
"#. c #8A5747",
"$. c #945E4D",
"%. c #97684B",
"&. c #837948",
"*. c #927A44",
"=. c #877551",
"-. c #937854",
";. c #AA6E4C",
":. c #A16E50",
">. c #1C925A",
",. c #2E8A54",
"<. c #3A8954",
"1. c #389251",
"2. c #588649",
"3. c #4E954B",
"4. c #55934D",
"5. c #5C944B",
"6. c #539D4D",
"7. c #5D994C",
"8. c #4B8552",
"9. c #458C53",
"0. c #4C8C52",
"q. c #418054",
"w. c #588752",
"e. c #449354",
"r. c #4C9251",
"t. c #4B9E52",
"y. c #469C54",
"u. c #569751",
"i. c #4C874E",
"p. c #698A4B",
"a. c #7B8D45",
"s. c #788345",
"d. c #68994B",
"f. c #789848",
"g. c #6C9B51",
"h. c #748F55",
"j. c #5FA34F",
"k. c #57AB4F",
"l. c #5BB74B",
"z. c #4DAC53",
"x. c #49A753",
"c. c #5BA651",
"v. c #55AB52",
"b. c #5BAB50",
"n. c #56A553",
"m. c #4DB253",
"M. c #55B652",
"N. c #5CB451",
"B. c #57BB52",
"V. c #68AA4B",
"C. c #72A54A",
"Z. c #74AB4A",
"A. c #76A349",
"S. c #62B24E",
"D. c #6CB44D",
"F. c #65BB4F",
"G. c #6BBC4E",
"H. c #60B745",
"J. c #74B34D",
"K. c #73BB4B",
"L. c #7AB849",
"P. c #67B250",
"I. c #65BB50",
"U. c #6EC34E",
"Y. c #65C64A",
"T. c #7ECB47",
"R. c #73C34C",
"E. c #7BC34A",
"W. c #7CCA4A",
"Q. c #74CC4A",
"!. c #70D040",
"~. c #6FCA50",
"^. c #60D348",
"/. c #8A8A42",
"(. c #968F43",
"). c #839349",
"_. c #8D8853",
"`. c #8F9F52",
"'. c #9E9E55",
"]. c #959046",
"[. c #A38C58",
"{. c #A89147",
"}. c #88AA48",
"|. c #98A844",
" X c #84BF4A",
".X c #86B948",
"XX c #99BA44",
"oX c #8BB151",
"OX c #A8A943",
"+X c #B0BD42",
"@X c #AABA42",
"#X c #8EC446",
"$X c #83CC46",
"%X c #82C44A",
"&X c #8BC648",
"*X c #84CA4A",
"=X c #8CCD49",
"-X c #8DCE44",
";X c #94C344",
":X c #94CB47",
">X c #91CC48",
",X c #95C547",
"<X c #84D246",
"1X c #8CD444",
"2X c #8BD349",
"3X c #8CDA45",
"4X c #93D546",
"5X c #9CD546",
"6X c #96DB44",
"7X c #9DDD42",
"8X c #91D348",
"9X c #A7C842",
"0X c #B4C541",
"qX c #A2D445",
"wX c #AAD443",
"eX c #A4DB44",
"rX c #ACDE43",
"tX c #B2D342",
"yX c #B3DD42",
"uX c #9FE040",
"iX c #A0E040",
"pX c #AFE441",
"aX c #B3E242",
"sX c #BCE641",
"dX c #BFE840",
"fX c #C0E840",
/* pixels */
"fXfXfXfXfXfXfXfXfXfXfXfXfXfXfXfXfXfXfXfXfXfXfXfXfXfXfXfXfXfXfXfXfXfXfXfXfXfXfXfXfXfXfXfXfXfXfXfXfXfXfXfXfXfXfXfXfXfXfXfXfXfXfXfX",
"fXfXfXfXfXfXiXfXfXfXfXfXfXfXfXfXfXfXfXfXfXfXfXfXfXfXfXfXfXfXiXfXfXfXfXiXfXfXfXfXfXfXfXfXfXfXfXfXfXfXfXfXfXfXfXfXfXfXfXfXfXfXiXfX",
"fXfXfXfXfXiXfXfXfXfXfXfXfXfXfXfXfXfXfXfXfXfXfXfXfXfXfXfXfXiXfXfXfXfXfXiXfXiXfXfXiXfXiXfXfXfXfXfXfXfXfXfXfXfXfXfXfXfXfXfXfXiXfXfX",
"fXfXiXfXfX!.fXfXfXfXfXfXfXfXfXfXfXfXfXfXfXfXfXfXfXfXiXfXfX!.fXfXfXiXfXiXiXiXfXfXiXiXiXfXiXfXfXfXfXfXfXfXfXfXfXfXfXfXiXfXfX!.fXfX",
"fXfXfXiXfX!.fXfXfXfXfXfXfXfXfXfXfXfXfXfXfXfXfXfXfXfXfXiXfX!.fXfXfXiXfXfXiXfXfXfXfXiXiXiXiXfXiXfXfXfXfXfXfXfXfXfXfXfXfXiXfX!.fXfX",
"fXfXfXiXfXfXfXfXfXfXfXfXfXfXfXfXfXfXfXfXfXfXfXfXfXfXfXiXfXfXfXfXfXfXfXfXfXfXfXfXfXiXfXiXfXfXiXiXfXfXfXfXfXfXfXfXfXfXfXiXfXfXfXfX",
"fXfXfXfXfXfXfXfXfXfXfXfXfXfXfXfXfXfXfXfXfXfXfXfXfXfXfXfXfXfXfXfXfXfXfXfXfXfXfXfXiXfXfXiXfXfXfXiXfXfXfXfXfXfXfXfXfXfXfXfXfXfXfXfX",
"fXfXfXfXfXfXfXfXfXfXfXfXfXfXfXfXfXfXfXfXfXfXfXfXfXfXfXfXfXfXfXfXfXfXfXfXfXfXfXfXiXfXfXfXfXfXfXfXfXfXfXfXfXfXfXfXfXfXfXfXfXfXfXfX",
"fXfXfXfXfXfXfXfXfXiXfXfXfXfXfXfXfXfXfXfXfXfXiXfXfXfXfXfXfXfXfXfXfXfXfXfXfXfXiXfXfXfXfXfXfXfXfXfXfXfXfXfXfXfXiXfXfXfXfXfXfXfXfXfX",
"fXfXfXfXfXfXfXfXiXfXfXfXfXiXfXfXfXfXfXfXiXfXiXfXfXfXfXfXfXfXfXfXfXfXfXfXiXfXiXfXfXfXfXiXfXfXfXfXfXfXfXfXiXfXiXfXfXfXfXfXfXfXfXfX",
"fXfXfXfXfXfXfXfXiXfXiXdXdX!.fXfXuXfXfXfXiXiXiXfXfXfXdXfXfXfXdXdXiXfXfXfXiXiXiXfXfXfXfXiXdXiXfXdXiXfXdXfXiXiXiXfXfXdXdXfXfXfXfXfX",
"fXfXfXfXfXfXfXaX7XpXQ.Q.E.uXdXT.<XN.2XfXfX7XdXfXdXdXdXfXfXeXeX=X$XfXiXsXsXiXdXdXdXiXfXiXuXuXdXaXeX4X<XsXfXiXsXdXdXdXfXfXfXfXfXfX",
"fXfXfXfXfXfXfXfXfXsXiXl.Z.iX-XY.>.v.1XfXfX%XL.fXaX2X*XdXfXtXV.sXR.iX7X5XD.yXdX7X~.4XfXfX#X&XqXfX7.1X6XdXfX9XD.~.4XfXfXfXfXfXfXfX",
"fXfXfXfXfXfXfX0X:X5Xl.H.).;XY.Q.G r.&XeX1Xu.9.5X*XM.t.#XwXOX{ q.eX1XpXD.G E.8XU.y.%XwX0XA.v.}.0X+.T.7XwX,X|.b.5XG.fXfXfXfXfXfXfX",
"fXfXfXfXfXfXfX*.).M.9...X.&.k.H.I ( u.I.B. ./ b.n.| [ u.).*.E I i.b.U.5.P u.v.w./ 0.f.&.w.&Xg.*.E [ N.A.)./.K.W.*XfXfXfXfXfXfXfX",
"fXfXfXfXfXfXfXQ } e.' v h U L.i.Y L D ,.<.K U 8.} K L D / E x l [ .XN./ k } 8./ l D [ E { 7.[ c x W 9._ { f.1XrXeXfXfXfXfXfXfXfX",
"fXfXfXfXfXfXfXL.d.I E v s 7 0 w t f K J w < a Q K a y K W c a a f P V 6 : L K f r L W T L w 8 y c R W { j.v.*X*XaXfXfXfXfXfXiXfX",
"fXfXfXiXfXfXfXc.o.v x f 5 , o , , y g p <   < s p < 5 z c f 4 5 a g % . @ p s t @ s c l : O . , i z h W Z.M.5X*X8XfXfXfXiXfXiXfX",
"fXfXfXiXfXiXfXT E R f 5 , , , , , < 5 5 < < < < 5 , 4 5 5 5 4 4 5 5 < , < 5 = < 1 4 5 5 5 @ 1 1 , u k v ! g.qXaX6XfXfXfXiXiXiXfX",
"fXiXfXiXiX7XsXL f f t & , , , < , , , , < < < < 1 4 4 @ , , 1 , , , , < 1 , 1 , < 1 , @ 1 1 4 $ , 5 i s P C.fXsXiXfXiXfXfXiXfXfX",
"fXeXfXfXiXfXfXA m 6 < $ @ 4 4 4 4 , , , 5 4 < , , 1 , @ @ @ , 1 , , , 4 4 , , , 1 , , @ , 4 4 1 , , # q F P.eXrX4XiXiXfXfXfXfXfX",
"fXfXfXfXfXfXfXP.4.& O $ 4 4 4 4 4 4 4 4 < < < 4 4 4 4 < 4 4 4 4 1 , 4 4 4 < 4 4 < 4 $ 1 < 4 4 4 < , , M qXM.G.I.G.iXfXfXiXfXfXfX",
"fXfXfXfXfXfXfX*X5.* @ $ 4 4 4 4 4 4 4 4 4 4 4 4 4 4 4 4 4 4 < 4 4 4 4 4 4 4 4 4 4 4 4 4 4 4 < < , # O n &X8X5X2X5XfXfXfXiXfXiXfX",
"fXfXfXfXfXfXfX:Xi.4 $ $ 4 4 4 1 < 4 4 4 < 4 4 4 4 4 4 4 4 4 4 4 4 < < 1 4 4 4 4 4 4 1 4 4 4 4 1 < # $ 9 V.z.*X*X=XfXfXfXfXfXiXfX",
"fXfXfXfXfXfXiXr.] 1 @ $ 4 4 4 4 4 4 1 < 4 4 4 4 < 4 4 4 < 4 4 4 4 4 < 4 < 4 4 4 4 4 < 4 4 4 4 4 4 $ $ 0 ,XG.fXfXdXdXfXfXfXfXfXfX",
"fXfXfXfXfXfXfXv.5.* $ $ 4 4 4 4 4 4 4 < < 4 1 < 4 4 4 4 4 4 4 4 4 < 1 4 4 4 4 4 4 4 1 < < 4 4 4 4 # # n t.~.sXfXfXdXfXfXfXfXfXfX",
"fXfXfXfXfXfXfX>Xd.6 $ $ 4 4 4 $ < 4 4 4 4 4 < 4 4 4 < 4 < 4 4 4 4 4 4 4 4 4 < 4 4 4 4 4 4 4 4 < 4 $ # n qXK.aXfXfXfXfXfXfXfXfXfX",
"fXfXfXfXfXfXfXJ.S * $ $ 4 4 4 1 4 4 4 4 4 4 4 4 < 4 4 4 1 4 < 4 4 4 < 4 < 4 4 4 < 4 4 4 4 4 4 4 < $ $ w 0.P.6XfXfXfXfXfXfXfXfXfX",
"fXfXfXfXfXfXfXe.i.$ # $ * 1 4 4 4 4 4 4 4 4 4 4 1 < 4 4 4 4 4 4 4 4 4 4 1 4 4 4 1 < 4 4 4 < 4 4 4 # # w *XG.6XfXdXfXfXfXfXfXfXfX",
"fXfXfXfXfXfXdXK.V.* $ $ * < < 4 4 4 4 < 4 4 4 < 4 4 < 4 1 4 4 < 4 4 4 $ < 4 4 < 4 4 < 4 4 < 1 4 4 < < V D.Y.6XsXsXfXfXfXfXfXfXfX",
"fXfXfXfXfXfXfXc.6.;X9 < $ < < 4 4 1 < 4 < 4 4 < 4 4 4 4 < 4 4 4 4 4 4 1 4 < 4 4 4 < 4 4 4 4 < < < 1 ^ .Xc.M.W.sX5XfXfXfXfXfXfXfX",
"fXfXfXfXfXfXfXJ.6.#XwX* # * 4 4 < 4 4 4 4 4 4 1 4 < 4 4 < 4 4 4 4 4 4 4 4 4 4 4 4 4 4 4 < 4 < < # 2 V.tXJ. XI.aX8XfXfXfXfXfXfXfX",
"fXfXfXfXfXfXfXz.G 8 & $ 4 4 < 4 4 , 4 4 4 4 4 1 4 4 4 4 4 4 4 4 4 4 < 4 4 4 4 4 4 4 4 < 1 $ 4 1 < , , C K.%XD.qXqXfXfXfXfXfXfXfX",
"fXfXfXfXfXfXfXL.9.m q $ < 4 4 1 4 4 4 4 4 4 4 4 4 < 4 4 4 4 4 4 1 4 4 4 4 4 4 , 4 < 4 4 4 4 4 4 $ * q A S.N.V.aXqXfXfXfXfXfXfXfX",
"fXfXfXfXfXfXfX<.e.6.p.* # < 4 4 4 4 < 4 4 4 4 4 4 4 1 < 4 4 1 $ < < 4 4 4 4 * < 4 4 4 4 4 4 4 4 # q 5.u.:Xj.S.eX%XfXfXfXfXfXfXfX",
"fXfXfXfXfXfXfXJ.#X#X] 1 # < 4 < 4 4 4 4 4 4 4 $ < 4 4 4 4 4 4 4 4 4 4 4 4 4 4 < 4 4 4 < 4 4 4 < # 8 4.6.n.S.F.rX5XfXfXfXfXfXiXfX",
"fXfXfXiXfXfXfXrXL.N * & < < < < 4 4 4 * 4 4 4 4 4 4 4 1 4 4 4 4 4 < 4 4 4 4 4 4 < < 1 4 4 4 < < $ * = 2.-XpXeXeXeXfXfXfXiXfXiXfX",
"fXfXfXiXfXiXfX4XL.^ - # < 4 < < < 4 < < 4 < 4 4 4 4 4 $ 4 4 4 < 4 4 4 4 4 < 4 4 * 4 < 4 < 4 4 * @ : > f.:X3XfXfXiXfXfXfXiXiXiXfX",
"fXiXfXiXiXiXdXl.sX^.` * X 4 4 4 4 < 4 4 1 < 4 4 4 4 4 4 4 < 4 4 4 4 4 4 4 4 4 , 4 4 1 4 1 < $ 1 + P tX}.T.Y.pXfXiXfXiXfXfXiXfXfX",
"fXiXfXfXiXfXdXK.V.f.iXV.^ $ $ 4 4 < 1 4 4 4 4 4 4 4 4 4 4 4 4 4 , * < 4 4 4 4 4 < 4 < < * $ $ 2 C.L.(.O.D.F.aXfXiXiXiXfXfXfXfXfX",
"fXfXfXfXfXfXfX2.{ k p.qXS # O 4 4 4 1 $ 4 4 4 4 4 4 4 4 < 4 4 < < 4 4 < 4 4 4 1 4 4 4 < 4 $ $ 6 .X.XW Y | J.sXfXfXiXfXfXiXfXfXfX",
"fXfXfXfXfXfXfXXXO.r d 5Xw $ $ 4 4 4 4 4 4 4 4 4 < 4 4 4 4 4 4 4 4 4 4 4 4 4 4 4 4 4 4 4 4 $ @ 6 ' ' - Y |.yXsXsXsXfXfXfXiXfXiXfX",
"fXfXfXfXfXfXfX0X].N 3 , $ $ * 4 < 4 4 < 1 4 4 4 4 4 < 4 4 , 4 4 4 < 4 4 4 4 4 4 4 < 4 4 4 4 4 < # @ 0 ..OXwXqX8X5XdXdXfXfXfXiXfX",
"fXfXfXfXfXfXiX#...,.C , X * * 4 4 4 4 4 < 4 4 4 < 1 4 4 4 4 4 4 4 4 4 4 4 4 4 4 4 4 4 4 4 4 4 < X 8 6.p.@.+.x.Y.G.dXdXfXfXfXfXfX",
"fXfXfXfXfXfXfXO.p.e.Z 1 O < 4 4 4 4 4 4 4 4 4 4 4 4 4 4 4 4 4 4 4 4 4 4 4 4 4 4 4 4 4 4 4 4 * , O q d.d.p.p.z.I.F.fXfXfXfXfXfXfX",
"fXfXfXfXfXfXiXpXXXW d < + 4 4 < 4 < 1 4 4 4 4 4 4 4 4 4 4 < 4 < 4 4 4 4 4 4 4 4 , * 4 4 < 4 & & + = j f.qXsXyXrXaXfXfXfXfXfXiXfX",
"fXfXfXfXdXuXfXR.g.#.*./.> + & 1 < 4 4 $ X < * 4 4 4 4 4 $ # < < 4 $ X # 4 4 4 1 < 4 $ $ $ < 1 7 s.].#.s.K.6XdXfXdXdXfXfXfXiXfXfX",
"fXfXiXfXfX!.dXz.w.%.OX@XO.+ , 4 4 4 4 4 4 4 < @ $ * $ < 4 4 4 < < 1 2 4 4 $ $ $ 4 $ * 4 4 1 @ u |.+X;.=.b.Q.aXfXdXdXiXfXfX!.fXfX",
"fXfXfXiXfX!.fXG.g.;.{.{.Q @ , 4 $ # * n S n @ O $ @ * $ ^ 3.6 < $ w 2.' 4 # # < & # 2 ~ ^ 1 # 5 /.{.;._.J.2XsXdXdXdXfXiXfX!.fXfX",
"fXfXfXiXfXfXfXaX,X=.$.E d 8 1 < @ o = 3.E.S @ & * & @ 1 S 0.V X # B N.7.4 4 4 1 @ & B r.2.2 $ q Y #.$.}.5XsXdXdXdXdXfXiXfXfXfXfX",
"fXfXfXfXfXfXdXdX=X0.X.@.( A 9 O X o - d.5X> & ` 2.8 3 C V..X) # # ^ 2XZ.7 B A n + M 9.G.p.q M G ! @.+.D.pXsXfXfXfXfXfXfXfXfXfXfX",
"fXfXfXfXfXfXfXsX4Xm.h.-.g.z.^ ; - = ) ;XdXd.C M.Z.J e <.5XfX2.6 ; a.sX;XV 1.y.~ 7 F L.dXXXo._ M._.-.n.~.eXfXfXfXfXfXfXfXfXfXfXfX",
"fXfXfXfXfXfXfXdXdX<X`.[.oXeXyXa.G ` }.sXaXv.1.-X.XX.X.>XsXwXx.F s.yXdXR.,.U.E.).! }.sXfXyXwX9X5X'.[.>XeXsXfXiXfXfXfXfXfXfXfXfXfX",
"fXfXfXfXfXfXfXfXuXfXdXfXfXiXfXfXfXfXfXfXuXdXuXfXfXfXfXfXfXdXfXfXdXdXdXdXiXfXuXdXfXfXdXeXfXfXdXdXfXsXfXfXeXfXiXfXfXfXfXfXfXfXfXfX",
"fXfXfXfXfXfXfXfXuXdXiXfXfX!.fXfXiXfXfXfXuXiXiXfXfXfXfXfXfXfXfXfXiXfXfXfXiXiXiXfXfXfXdXuXfXiXfXfXiXfXfXfXuXiXiXfXfXfXfXfXfXfXfXfX",
"fXfXfXfXfXfXfXfXiXfXiXiXfXiXfXiXiXfXiXfXfXiXfXfXfXfXfXfXfXfXfXfXiXfXiXfXfXiXfXfXfXiXfXiXiXiXfXfXiXfXiXfXfXiXfXfXfXfXfXfXfXfXfXfX",
"fXfXfXfXfXfXfXfXfXfXfX!.iXiXiX!.iXiXiXfXfXfXfXfXfXfXfXfXfXfXfXfXiXiXiXfXfXfXfXfXfXiXfXfXiXfXfXfXiXiXiXfXfXfXfXfXfXfXfXfXfXfXfXfX",
"fXfXfXfXfXfXfXfXiXfXfX!.iXiX!.fXfXiXfXfXiXfXfXfXfXfXfXfXfXfXfXfXfXiXfXfXiXfXfXfXfXfXfXfXfXfXfXfXfXiXfXfXiXfXfXfXfXfXfXfXfXfXfXfX",
"fXfXfXfXfXfXfXfXfXiXfXiXiXiX!.iXfXfXfXfXiXfXiXfXfXfXfXfXfXfXfXfXfXfXfXfXiXfXiXfXfXfXfXfXfXfXfXfXfXfXfXfXiXfXiXfXfXfXfXfXfXfXfXfX",
"fXfXfXfXfXfXfXfXfXiXfXfXfXiXiXfXfXfXfXfXfXfXiXfXfXfXfXfXfXfXfXfXfXfXfXfXfXfXiXfXfXfXfXfXfXfXfXfXfXfXfXfXfXfXiXfXfXfXfXfXfXfXfXfX",
"fXfXfXfXfXfXfXfXfXfXfXfXfXfXfXfXfXfXfXfXfXfXfXfXfXfXfXfXfXfXiXfXfXfXfXfXfXfXfXfXfXfXfXfXfXfXfXfXfXfXfXfXfXfXfXfXfXfXfXfXfXfXiXfX",
"fXfXfXiXfXfXfXfXfXfXfXfXfXfXfXfXfXfXfXiXfXfXfXfXfXfXfXfXiXfXiXfXfXfXfXfXfXfXfXfXfXfXfXfXfXfXfXfXfXfXfXiXfXfXfXfXfXfXfXfXiXfXiXfX",
"fXfXfXiXfXiXfXfXfXfXfXfXfXfXfXfXfXfXfXiXfXiXfXfXiXfXfXfXiXiXiXfXfXfXfXfXfXfXfXfXfXfXfXfXfXfXfXfXfXfXfXiXfXiXfXfXiXfXfXfXiXiXiXfX",
"fXiXfXiXiXiXfXfXfXfXfXfXfXfXfXfXfXiXfXiXiXiXfXfXiXfXiXfXfXiXfXfXfXfXfXfXfXfXfXfXfXfXfXfXfXfXfXfXfXiXfXiXiXiXfXfXiXfXiXfXfXiXfXfX"
};
