/* XPM */
static char *result[] = {
/* columns rows colors chars-per-pixel */
"32 32 8 1 ",
"  c #70D040",
". c #A0E040",
"X c #C0E840",
"o c #60D0C0",
"O c #80C880",
"+ c #D0C8A0",
"@ c #F8D0B8",
"# c #A8F8E0",
/* pixels */
"OX.XXXX.XXXXXX.X.XXXXXXXXXXXXXXX",
"OO.X.XX XX.XXX...XXXXXXXXoXXXXX.",
"OX.X..X.X..X.XX.XXXXXXoXooXX.XX ",
"XXXXX ... ...XXXXXoXXooXo.XXX.X ",
"XX.XX .. XX.XX.XXXooXooX##XXX.XX",
"XXX.X... .XXXX.X.XooXXX#XXXXXXXX",
"XXX.XXX..XXXXXXX.XXXXXo##XXXXXXX",
"XXXXXXXX##XXXXXXXXXXXXXXXXXXXXXX",
".XXXXooX##XXXXXXX.XXXXXXXXXXXXXX",
"XXXXoo..oXXXXXXX...XXXXXXXXXXXXX",
"XXXXXoooXoXXXXOXOOoXXXo##XXXXXXX",
"XXXXXXXXXoOXXOOXO.oXXXX##oXXXXXX",
"XXXXXXXXXXOOXOOX@@XXoooXooXXXXXX",
"XXXXXXXXXXOOXXX@XXXX.ooXXoXXXXXX",
"XXXXXXXXXXXXXXO@@XX#ooXXXXXXXXXX",
"XXXXOOXXXXXo.ooX##@@@@@XXXXXXXXX",
"XXXXO.OXXXoooo.ooXX@XX@@OXXXXXXX",
"XXXXOX@@@XooX###XoO@XXX@.OXXXXXX",
"XXXXX@@++@oX#XX##oOX@@@XOOXXXXXX",
".XXOO@@++@XX#XX##XOXO.OXXXXXXXXX",
"..OO.X@@@XXoX###XoXXOOOXXXXXXXXX",
"X.XOOOXXXOo.ooXoo.OXXOXXXXXXXXXX",
"XXXXXXXXXXoooXXXooOXXXXXXXXXXXXX",
".XX.XXXXXXXXOOXXXXXXXXXXXXXXXXXX",
".X.XXXX.XXX@@OXXXXXXXXXX.XXXXXXX",
".X.X.XX XXX@@XXXXXXXXXX.XXXXXXX.",
"XX.X..X.X.OXXXO@@XXX.XX XXXX.XX ",
"XXXXX ... OXXXX@@OXXX.X XXXXX.X ",
"XX.XX .. XXXOOOXOOXXX.XXXXXXX.XX",
".XX.X... .XX.OOXXOXXXXXXXXXXXXXX",
".XX.XXX..XX@OOXXXXXXXXXXXXXXXXXX",
"XXXXXXXXXXXXXXXXXXXXXXXXXXXXXXXX"
};
