/* XPM */
static char *result[] = {
/* columns rows colors chars-per-pixel */
"32 32 3 1 ",
"  c #A0E040",
". c #C0E840",
"X c #D8F040",
/* pixels */
"........ ..................... .",
"................................",
"................................",
"................ . .............",
"................   . ...........",
".................    . .........",
"................. . ..  ........",
"................ .. ... ........",
"................ ...............",
"................................",
"... ............................",
"... . .. . .....................",
". .   ..   . ...................",
". .. ....    . .................",
"......... . ..  ................",
"........ .. ... ................",
"........ .......................",
"...... .........................",
".... . .... ....................",
" ...   .... . ..................",
" . .. ... .   ..................",
"   ...... .. ...................",
". .. ...........................",
".... . .........................",
"...... .........................",
"...........XX..............XX...",
"...........XX..............XX...",
"............X...............X...",
"....... ....X.......... ....X...",
"......  ..............  ........",
"...... . ... .XX...... . ... .XX",
"..XX....... . XX..XX....... . XX"
};
