/* XPM */
static char *result[] = {
/* columns rows colors chars-per-pixel */
"64 64 239 2 ",
"   c #140C27",
".  c #1B152C",
"X  c #1F1E34",
"o  c #231E33",
"O  c #281934",
"+  c #311E36",
"@  c #331B38",
"#  c #22132D",
"$  c #1F2538",
"%  c #2B2435",
"&  c #202638",
"*  c #2F2638",
"=  c #292737",
"-  c #302838",
";  c #352837",
":  c #3C333E",
">  c #37303B",
",  c #511D30",
"<  c #691E32",
"1  c #452534",
"2  c #462937",
"3  c #5B2A34",
"4  c #42363D",
"5  c #533338",
"6  c #67222F",
"7  c #73262F",
"8  c #7B262E",
"9  c #79282F",
"0  c #6C2832",
"q  c #732730",
"w  c #752830",
"e  c #7B2930",
"r  c #7A3435",
"t  c #67373A",
"y  c #3B3341",
"u  c #443C45",
"i  c #4A3E47",
"p  c #473B48",
"a  c #513C47",
"s  c #432E41",
"d  c #4E4346",
"f  c #49454B",
"g  c #53464A",
"h  c #55494B",
"j  c #5B4D4C",
"k  c #554746",
"l  c #5C524B",
"z  c #5E5152",
"x  c #514554",
"c  c #645954",
"v  c #6D5D54",
"b  c #675655",
"n  c #70524E",
"m  c #6C6159",
"M  c #74635A",
"N  c #78665B",
"B  c #645C69",
"V  c #7B6964",
"C  c #726A75",
"Z  c #757367",
"A  c #5B4660",
"S  c #88242D",
"D  c #942A2F",
"F  c #9A272D",
"G  c #832A30",
"H  c #8C2B30",
"J  c #8B2531",
"K  c #942B31",
"L  c #9B2C30",
"P  c #962530",
"I  c #823338",
"U  c #8C3638",
"Y  c #933534",
"T  c #9A352F",
"R  c #A42C2F",
"E  c #AB2A2D",
"W  c #B42E2F",
"Q  c #BA2E2E",
"!  c #A42B31",
"~  c #AC2D30",
"^  c #A72530",
"/  c #B12E30",
"(  c #BA2F30",
")  c #A63333",
"_  c #B43131",
"`  c #BC3131",
"'  c #B33A31",
"]  c #B83A31",
"[  c #BB312F",
"{  c #C42D2C",
"}  c #D32D32",
"|  c #C33332",
" . c #CB3633",
".. c #CB3935",
"X. c #C73837",
"o. c #D83134",
"O. c #D43B35",
"+. c #DD3D36",
"@. c #DE3D38",
"#. c #D33837",
"$. c #C82834",
"%. c #EF3532",
"&. c #E23B36",
"*. c #EE3B35",
"=. c #E63B39",
"-. c #F03C34",
";. c #974A3B",
":. c #8F413F",
">. c #DD4039",
",. c #D64C3D",
"<. c #C84B3B",
"1. c #E34037",
"2. c #E4423A",
"3. c #EA453D",
"4. c #EE473D",
"5. c #F2453B",
"6. c #F7453B",
"7. c #E6503E",
"8. c #D43743",
"9. c #F83C43",
"0. c #835A55",
"q. c #8F4E4C",
"w. c #81685A",
"e. c #97745D",
"r. c #B26D59",
"t. c #836E65",
"y. c #85726A",
"u. c #8E796C",
"i. c #897468",
"p. c #937C6B",
"a. c #98766C",
"s. c #897A76",
"d. c #947F71",
"f. c #9C7F71",
"g. c #9C6372",
"h. c #B36F63",
"j. c #B0544D",
"k. c #CA4642",
"l. c #C84745",
"z. c #D74243",
"x. c #DD544C",
"c. c #E34A45",
"v. c #ED4941",
"b. c #EB4641",
"n. c #F44C44",
"m. c #F94B46",
"M. c #F94E48",
"N. c #F64644",
"B. c #E95944",
"V. c #F55046",
"C. c #FD5147",
"Z. c #F65248",
"A. c #FA5249",
"S. c #F85B4B",
"D. c #F75B48",
"F. c #E35A52",
"G. c #C96B54",
"H. c #FA634D",
"J. c #F86B4F",
"K. c #F46749",
"L. c #F17A4F",
"P. c #F5744E",
"I. c #F96D51",
"U. c #FB6650",
"Y. c #FA7452",
"T. c #F97B53",
"R. c #F97B55",
"E. c #E9704C",
"W. c #CA6F63",
"Q. c #7C847D",
"!. c #70D040",
"~. c #9D8574",
"^. c #9B887A",
"/. c #A18979",
"(. c #A78B79",
"). c #AA917E",
"_. c #A5927F",
"`. c #AE975E",
"'. c #FA8455",
"]. c #F88C56",
"[. c #FE865C",
"{. c #FA8D5A",
"}. c #F58956",
"|. c #FA9157",
" X c #F89259",
".X c #F89B5C",
"XX c #F3955C",
"oX c #E78E58",
"OX c #F9A15F",
"+X c #F1A461",
"@X c #FBA461",
"#X c #F9AC64",
"$X c #F5AB64",
"%X c #FAB266",
"&X c #FAB468",
"*X c #F9BC6B",
"=X c #ED8E5E",
"-X c #A0E040",
";X c #C0E840",
":X c #F9C36E",
">X c #F8C86F",
",X c #F8C970",
"<X c #F8C771",
"1X c #F8D474",
"2X c #FADC77",
"3X c #F9E37A",
"4X c #8B7D80",
"5X c #969994",
"6X c #988D8C",
"7X c #AA9485",
"8X c #AC9D9A",
"9X c #AA9A95",
"0X c #B29B98",
"qX c #B09184",
"wX c #B4A29B",
"eX c #BCA79C",
"rX c #BCA28D",
"tX c #B3A4A3",
"yX c #BCA9A5",
"uX c #BAAAA9",
"iX c #BAB5A7",
"pX c #AFACA2",
"aX c #A2A19E",
"sX c #C3AFA5",
"dX c #C5B4AC",
"fX c #C2B2B2",
"gX c #C9BAB7",
"hX c #D0BFAE",
"jX c #D2C3B6",
"kX c #CAC1B8",
"lX c #CEC5C6",
"zX c #D4C9C7",
"xX c #DBD8D4",
"cX c #E8DDD9",
"vX c #EDE5D9",
"bX c #EDE4D4",
"nX c #F1E8D9",
"mX c #F9F2E9",
"MX c #F0E9EA",
/* pixels */
";X;X;X;X;X;X;X;X;X;X;X;X;X;X;X;X;X;X;X;X;Xo o o ;X;X;X;X;X;X;X;X;X;X;X;X;X;X;X;X;X;X;X;X;X;X;X;X;X;X;X;X;X;X;X;X;X;X;X;X;X;X;X;X",
";X;X;X;X;X;X-X;X;X;X;X;X;X;X;X;X;X;X;Xo & L.5.` o o ;X;X;X;X-X;X;X;X;X-X;X;X;X;X;X;X;X;X;X;X;X;X;X;X;X;X;X;X;X;X;X;X;X;X;X;X-X;X",
";X;X;X;X;X-X;X;X;X;X;X;X;X;X;X;X;X;Xo $.:XU.3.2.&.~ o o ;X-X;X;X;X;X;X-X;X-X;X;X-X;X-X;X;X;X;X;X;X;X;X;X;X;X;X;X;X;X;X;X;X-X;X;X",
";X;X-X;X;X!.;X;X;X;X;X;X;X;X;X;X;X% 8.C.#XS.M.@._  .*.8.o !.;X;X;X-X;X-X-X-X;X;X-X-X-X;X-X;X;X;X;X;X;X;X;X;X;X;X;X;X-X;X;X!.;X;X",
";X;X;X-X;X!.;X;X;X;X;X;X;X;X;X;XX 8.Y.#XT.n.n.@...W [ 4.8.o ;X;X;X-X;X-X-X;X;X;X;X-X-X-X-X;X-X-X;X;X;X;X;X;X;X;X;X;X;X-X;X!.;X;X",
";X;X;X-X;X;X;X;X;X;X;X;X;X;X;X;XX [.R.3XI.m.A.2.+.W _ Q 2.8.o % o + * o o o o o o o o o + * -X-X;X;X;X;X;X;X;X;X;X;X;X-X;X;X;X;X",
";X;X;X;X;X;X;X;X;X;X;X;Xo o o o L.&X$X&XH.M.Z.n.1.] K Q O.C.o J F , X o o o , < P P P ^ ^ < o o o o o o o o ;X;X;X;X;X;X;X;X;X;X",
";X;X;X;X;X;X;X;Xo o o o 6 E J k *X].&X#XS.n.Z.=.~ H _ _ W +.c.3 G 8 q 0 q 0 9 9 G G G G G D ~ ^ ^ R ^ ^ J o o o o ;X;X;X;X;X;X;X",
";X;X;X;X;X;X* = w ( ~ ~ / G 6 l :X].|.|.|.D.S.n.+.>.O.W ( O.M.2 w 8 w e e w e w e w w w 9 9 8 9 e e e e G W ~ D 1 o o ;X;X;X;X;X",
";X;X;X;X;X% 1 R ! 8 w w 8 e 6 l :X].|.].Z.'.'.A.n.+...W / O.M.; 9 7 q 7 q q q q w w w 9 9 8 9 9 e 8 e w 9 9 G H H S o o ;X;X;X;X",
";X;X;X;X;X; L  .X.#.) G 7 q 3 5 |.OX XH.2.4.n.b.2...| ` W @.2.t $.L K K L P S P S 8 S 8 7 7 q q q q q 7 G R O.&.] Q L 2 o ;X;X;X",
";X;X;X;XO 3 +.3.M.A.N.,.) F 9 , G.:X|.H.M.4.O...X.>.2.| W M.G P.[.R.R.R.R.T.K.P.x.,.,.<.q.) ! ! F D L T O.>. .W G L | F o ;X;X;X",
";X;X;X;Xo ~ 1.2.n.A.H. XY.K.@.G d #XOXD.N.C.4.C.n.v.| W n.#.r `.:X1X1X1X1X1X2X1X1X%X%X%X%XOX[.[.'.K.6.=. .W _ | H R R [ o ;X;X;X",
";X;X;X;Xo | 1.4.A.N.'. X.X.XI.F.g ' :X#XY.m.m.N.=.@.v.n.#.q.s.6Xh.,X>X>X>X>X,X,X>X1X1X>X,X1X1X1X1X*XY.3.~ [ [ | G R e / o ;X;X;X",
";X;X;X;Xo | 2.b.A.N.T..X|.J.'.F.5Xg.T +X,X&X%X#X'.Y.z.F q.y./.zXV >X>X>X>X>X>X,X>X,X>X,X,X,X,X,X,X,X&XZ. ._ R T ~ _ G H t ;X;X;X",
";X;X;X;X% O.| 4.A.m.'.J.].A.'.F.dX9X; :.;.;.;.q.T T q.f.b j V zXt.1X>X>X>X>X>X,X>X>X,X,X,X,X,X:X,X,X<XZ.+.Q L D | ` G 7 ) ;X;X;X",
";X;X;X;Xo &.[ 4.A.N.'.S.Z.S.'.F.iXjXd d i.0X0Xa.i.n j y g u.V lXV >X<X>X>X>X,X,X>X>X,X,X,X,X<X,X,X<X:XZ.O.[ L D ` ` G 9 ] ;X-X;X",
";X;X;X-Xo +.X.A.A.M.'.S.'.S.'.x.iXjX0Xc ; : y : y > % g u 6XZ zXt.,X<X,X<X,X,X<X<X>X,X,X<X<X,X,X,X,X:XM.=.O.L 0 R | G 9 ' ;X-X;X",
";X;X;X-Xo +.X.A.N.R..XS.}.H.'.x.iXjXdXC k N M M ; ; o d 4 6Xy.zXN 1X>X<X,X,X,X<X,X>X,X,X,X,X,X<X<X<X:XV.2.O.D H | H w 9 ' -X-X;X",
";X-X;X-Xo +.X.n.=.T..XS.'. X'.x.iXbX7X7Xi.i.a.V j k p f V /.7XgXe.1X,X,X<X>X>X,X,X<X,X,X,X,X,X<X<X<X:XV.1.+.D K | S e e ' -X;X;X",
";X-X;X;Xo &.O.n.=.P. XS.}. X=XoXpXmXgXdXeXs.6XB B s.yXtXs.tXMXN |.1X>X>X<X,X,X<X>X>X>X>X<X<X<X,X<X<X,XV.2.@.D D _ e W G ' ;X;X;X",
";X;X;X;Xo 1.3.3.+.P..XS.}. X].}.qXxXmXgX9X0XgXyXiXwXy.m tXMXlXV |.>X>X>X,X,X<X,X>X>X>X>X<X<X<X,X,X1X&Xn.b.v.D K R 0 ~ G ' ;X;X;X",
";X;X;X;Xo 1.2.2.3.Y..XZ.'.]. X X=.(.iXcXjXjXsX8X8X8XyXzXmXzXZ j. X>X>X>X,X,X,X,X,X,X,X1X1X1X1X1X*X&XY.3.3.b.K D | R W e ] ;X-X;X",
";X;X;X;Xo 2.b.Z.n.T..XT.].].*X:XC.=.0.Q.5X5X5X5X5X5X5X5X5XZ j.T.:X,X>X1X1X1X1X1X1X$X$X+XR.R.R.R.B.7.=.3.2.b.H H ` ` [ e Y ;X-X;X",
";X;X;X;Xo 1.4.n.v.S.'. X X*X<XXX[.Y.B.l.k.k.k.k.k.k.k.k.k.l.M.S.Y.OXOX].I.I.I.I.I.S.S.Z.9.S.T.Y.L.L.L.T.N.c.R W [ ` [ e r ;X;X;X",
";X;X;X;Xo 1.3.v.3.m.T. X|.@X<X*X,X%X'.@X|.'.'.'.'.'.'.'.'.'.].'.'. X X}.T.'.'.T.'.T.L.'.'.|..XY.S.S.|. XT.5. ._ ` H W e r ;X;X;X",
";X;X;X;Xo &.4.v.3.m.T. X*X X@X*X X$X:X,X<X X XXX'.S.H.S.S.S.S.S.S.Z.S.S.S.S.S.S.S.|. X}.Z.Z.S.M.Y.}.|. X'.N...W { G e 9 r ;X;X;X",
";X;X;X;X& +.X.v.3.m.T.:XXX].|. X|. X X X.X.X X XY.I.,X*X*X:X*X*X:X:X,X$X+X<X>X<XS.M.S.|.}.I.U. X X X X|..XP.} Q [ G ~ G r ;X;X;X",
";X;X;X;Xo +.| 1.b.A.'.*XXX X|.}. X X].%X>X:X*X}.N.Y..X X.X|. XXX>X:X*X$X.X:X*X:XS.@.M.Z.S.S.S.L. X|.|.]. X'.V. .T 6 E G r ;X;X;X",
";X;X;X;Xo +.| 1.3.Y.<X.X].].Y.Z.}. X X X X}.}.}.2.@X1X1X1X$X>X1X1X:XXX.X.X.XXXOXS.| n.S..X XXX X X X XXX.X XK. .W T / G r ;X;X;X",
";X;X;X;Xo +.` O.*.R.,X&X|.}.H.H.J.Y.Y.Y.P.]. XP.o.Y.1X*X$X%X%X%X$X,X1X,X1X,X1X1XS.! 2.H..X]. X]. X].Y.Y.P.J.J.,.E { [ 8 T ;X;X;X",
";X;X;X;Xo +._ #.n.%X:X$X%X$X X.X'.J.Z.H.J. X|.b.Q Y.3X:X#X%X%X$X&X1X1X1X,X1X1X2X,.8 2.Z.'. X X]. X XJ.J.A.'.OXB.Q R W 8 ' ;X;X;X",
";X;X;X;Xo =.` &.L.*X X}.#X#X]. X X}.Z.S.P.H.}.3.Q B.[.[.{.{.{.{.{.[.[.[.[.[.[.{.Y e O.M.H..X]. X X X XJ.M.T..XJ.o.9 ~ G ' ;X;X;X",
";X;X;X;Xo  .O.%.XX%X}.].].}. X X X'.T.T.M.I.|.` X.b.} o.o.o.o.o.} } o.} o.o.o.o.] e ` A.A.T. X X X].|.Y.T.T.|.|.,.G G e ' ;X;X;X",
";X;X;X;Xo | &.B..X.X]. X X]. X]. X XXX X'. X|.W ..c.6 ; 1 1 1 1 n n 1 1 1 1 2 7 >.G | C.m.I. X X X X|. X X X X.XB.H L e ' ;X;X;X",
";X;X;X-Xo | 2.I.T.M.'. X X X X XT.n.R. X X X}.` =.X.1 f v c c c M m b b z m : % ~ ~ K 3.3.M.T. X].].|. X X XT.S.6.H ..H ' ;X-X;X",
";X;X;X-Xo | B..XY.M.Z.A.}.].].].]. XY.M.S.S.Z.| c.3 - > > > > ; m c - > > ; > = 0 O.G =.=.@.J. X].].|.'.V.Z.Z.b.2.` >.G ' ;X-X;X",
";X;X;X-Xo { B. X}.}.H.M.M.Z.M.M.H. X|.S.R.'.}.` | r w.N w.w.w.0.0.0.0.0.w.0.0.w.U ~ G 2.>.b.Z.n.Z.Z.Z.M.2.@.2.v.S.X.O.H ' -X-X;X",
";X-X;X-Xo  .B.Y.m.N.M.n.M.A.Z.M.v.N.M.Z.M.n.N.~ K 3.%.Y.%XOXOXT.Y.Y.Y.H.H.H.H.H.A.G G &.4.S.A.A.V.M.Z.A.b.>.Z.A.A.4.+.G ' -X;X;X",
";X-X;X;Xo N.C.M.A.A.A.A.Z.M.Z.n.3.b.v.v.n.Z.Z... .>.=.L.$X+XOXOX+X+XXXL.T.L.L.L.B.X.R n.A.M.n.n.@.b.v.v.3.3.b.A.A.A.| 9 ' ;X;X;X",
";X;X;X;X* 1.A.n.Z.3.4.Z.A.A.Z.M.A.n.3.2.3.A.C.A.5.5.5.-.%.%.%.%.%.%.%.-.*.*.*.*.-.6.6.A.A.A.n.3.b.b.3.b.A.A.A.Z.A.M.| D ) ;X;X;X",
";X;X;X;X+ ~ 4.1.v.v.2.3.b.3.M.A.A.Z.n.2.3.O.=.:.I I G I I I I I I I I I I I I I I I Y =.=.6.n.A.A.Z.A.A.A.A.n.3.v.2.[ ` 5 ;X-X;X",
";X;X;X;XO 6 5.+.2.v.2.v.>.v.S.M.Z.M.n.v.N.r.3 $ & $ $ $ $ $ $ $ & & & & & & & & & & = t j.{ 2.A.A.A.3.3.b.2.4.n.2.2.O.` > ;X-X;X",
";X;X;X;X;X1 +.>.+.>.1.2.2.3.2.4.A.A.A.m.W.^.y * - - - - - - - - - - - - - * - - - * = f ).q.S _ 2.3.n.v.2.Z.v.3.2.+.n.K > ;X;X;X",
";X;X;X;X;XO r A.4.>.>.>.>.>.+.1.2.1.*.h.^.^.> - - - - - - - * - - - - * - - - - - - % i 7X^.r F ` +.2.2.>.2.2.>.>.4.6.2 > ;X;X;X",
";X;X;X;X;X;Xo r N.Z.3.1.1.1.1.>.1.1.&.h.^.^.; - - - - % - - - - - - - - - - * - * - % i ).7Xq.8 R >.1.2.1.&.4.Z.V.4.3 o ;X;X-X;X",
";X;X;X;X;X-X@ y = q >.c.c.n.3.3.3.*.W.^././.y * - - - - - - - - - - - * * - - - - - % i )./._.n ^ 4.n.c.c.c.3.r o : : o ;X-X;X;X",
";X;X-X;X;X!.a eXV & y i o D z.k.k.O.r.6X/./.; * - - - - - - - * - - - - - - * - - - % i ).^.).n S D D % & y f : t.).).o ;X!.;X;X",
";X;X;X-X;X!.A sXf.(.u.i.g x f f f o V )././.y * - - - - - - * - - - * - * - - - - * % i ).~.7Xb u f x h b ^.i.p.^.~./.o ;X!.;X;X",
";X;X;X-X;X;XA sXqXe.* . k V V V p.).(.^.~./.; - * - * - - - - - - - - - - - - - - - % i )././.(.).i.V V V 4   u p.7X7Xo ;X;X;X;X",
";X;X;X;X;X;X@ 6XgXy.x j % o u   i ).~.~.~./.; - - * - - - * * - * - - - - - - - - - % i )./././.).> X 4 . - j j ^.fX^.o ;X;X;X;X",
";X;X;X;X;X;X  C cX7Xz i h l M h M 9XwXwX0XwX> - - - - - - - - - - - - * - - - - * - % p )./././.p.> j M j j u c 0XlXz o ;X;X;X;X",
";X;X;X;X;X;X# C MXsX4   : d c 4 k 7XgXfXfXfXy * - - - - * - * - - - - - * - - * - - % i )./.~./.V > u c u ;   l sXlXp o ;X;X;X;X",
";X;X;X;X;X;X# B vXwXtX8Xy.* z . + 6XgXuXfXfX> * * - - * - - - - - * - - - - - - - - % i )./././.N - % z * ~.uX9X0XeXu o ;X;X;X;X",
";X;X;X;X;X;XO h gXvXbXnXbXlXzXlXzXlXfXuXuXfXy % - - - * * - - - - - - * * - - * - - % i )././.~.wXgXlXzXlXcXnXzXfXu.> O ;X;X;X;X",
";X;X;X;X;X;Xs i C gXgXfXxXnXnXnXvXlXuXfXfXfXy * - - * - - - * - - % - - - - - - - - % i ).^.~.wXfXbXnXnXnXvXzXfXgXx z o ;X;X;X;X",
";X;X;X;X;X;Xs j j 0XwXtXtXyXyXfXgXfXfXfXfXgXy % - - * - - = - - - - - - - % - - * - % i ).(.^.eXgXfXfXuXyXwXtXtX9Xd c o ;X;X;X;X",
";X;X;X;X;X;Xa (.t.w.M m m p.~.wX8X8X9X8X8X8Xy * - - * - - - - - - - * - - - - - - * * u u.i.i.7X0X8X8Xd.u.v v v M N b o ;X;X;X;X",
";X;X;X;X;X;X@ v t.t.b h j m v v v v v v v v ; - - * - - - - - - - - - - * * - - * * - * o . g M v v v v k j j j j z ; o ;X;X;X;X",
";X;X;X;X;X;X;X@ O & # + % g g g g g k k k k * % % % o % % % % % % o % % % % % % % % % % - % u h g g g d % o o o o o o ;X;X;X;X;X",
";X;X;X;X;X;X;X;X;X;X;X;X* % % % + + % % % % g k g h h h d d d d d d d d d d d d d d k i * ; * ; % O % % ; + % ;X;X;X;X;X;X;X-X;X",
";X;X;X-X;X;X;X;X;X;X;X;X;X;X;X-X;X* + * * * v v M v M v i.~.~.u.~.p.p.p.p.p.p.p.p.p.f.N O * ; ; + ;X;X-X;X;X;X;X;X;X;X;X-X;X-X;X",
";X;X;X-X;X-X;X;X;X;X;X;X;X;X;X;X;X;X@ - * * p.f.f./.d.p.~.(././.eXyXyXyXyXyXeXyXyXyXsX6Xo * @ -X;X;X;X-X;X-X;X;X-X;X;X;X-X-X-X;X",
";X-X;X-X-X-X;X;X;X;X;X;X;X;X;X;X;X-X-X-X-X-X;X;X-X;X-X-X;X-X;X;X;X;X;X;X;X;X;X;X;X;X;X;X;X;X;X;X;X-X;X-X-X-X;X;X-X;X-X;X;X-X;X;X"
};
