/* XPM */
static char *result[] = {
/* columns rows colors chars-per-pixel */
"64 64 13 1 ",
"  c #302040",
". c #305840",
"X c #307840",
"o c #704048",
"O c #986050",
"+ c #309040",
"@ c #408870",
"# c #38C040",
"$ c #68E048",
"% c #B88858",
"& c #90F050",
"* c #88C868",
"= c #C0E840",
/* pixels */
"================............................====================",
"================......++++......+++....++###.===================",
"==============  ##+..###+++$$$#++###+++#####X    ===============",
"============== ####+######$$$$$$#####++######X++ ===============",
"==========   X+#$$$$$$###$$$$$$$$###$$$$$$###+++X.....==========",
"========== +++++$$$$$$$$#$$$$$$$$$#$$$$$$$###+++XXXXX ==========",
"==========X+####$$$$$$$$$$$$$$$$$$#$$$$$$$##$$$$$$XXX ==========",
"========  XX####$$$$&&&&&$$$$$$$$$$$$$$$$$#$$$$$$$XXX...@=======",
"======   X#+####$$$$&&&&&&$$$$$$$$$$$$$$$$$$$$$$$$###+X    =====",
"======X###$$$$$$#$$$&&&&$$$$$$$$$$$$$$$$&&&&$$$$$$####XX++ =====",
"======X###$$$$$$#$$$&&$$$$$$$$$$$$$$$$$$&&&&&$$$$$####XXXX.=====",
"===XXXX+#+$$$$$$$$$$$$$$$$$$$$$$$$$$$$$$$&&&&$$$######XX.... ===",
"===X##+X++$$$$$$$$$$$$$$$$$$$$$$$$$$$$$$$$$&&$$#$$$$#+++X.XX ===",
"===X##+###$$$$$$$$$$$$$$$$$$$$$$$$$$$$$$$$$$$$$$$$$$$++++.XX ===",
"===X+++####$$$$&&$$$$$$$$$$$$$$$$$$$$$$$$$$$$$$$$$$$$$+++..X ===",
"=   XX+#####$$&&&&$$$$$$$$$$$$$$$$$$$$$$$$$$$$$$$$$$$$+++.....==",
"= ###++##$$$$&&&&&$$$$$$$$$$$$$$$$$$$$$$$$$$$$$$$$$$$$+++.X++..=",
"= ####+#$$$$$&&&&&&$$$$$$$$$$$$$$$$$$$$$$$$$$$$$$$$$$$##XXX+++ =",
"= #####+$$$$$&&&&&&$$$$$$$$$$$$$$$$$$$$$$$$$$$$#$$$$$####XX+++ =",
"= #####+$$$$$&&&&&&$$$$$$$$$$$$$$$$$$$$$$$$$$$$$##########XX+X =",
"=.X##+++$$$$$&&&&&$$$$$$$$$$$$$$$$$$$$$$$$$$$$$#$$########.XXX =",
"== X#$$#$$$$$$$$$$$$$$$$$$$$$$$$$$$$$$$$$$$$$$$$$$$$$####+..  ==",
"=  .$$$#$$$$#$$$$$$$$&&$$$$$$$$$$$$$$$$$$$$$$$$$$$$$$$###X... ==",
" XX.$$$$######$$$$$$$&&&$$$$$$$$$$$$$$$$$&&&&$$$$$$$$$##+XXXXX.=",
".XXX$$$$$$$##$$$$$$$$&&&$$$$$$$$$$$$$$$$&&&&&&$$$$$$$$+XXXXXXXX ",
" ++X$$$$$$$#$&&&&&$$$$$$$$$$$$$$$$$$$$$$&&&&&&$$$$$$$$+++++XX++ ",
" ##+#$$$$$##&&&&&&&$$$$$$$$$$$$$$$$$$$$$&&&&&&$$$$$$$$+++++X+++ ",
" ##+XX++####&&&&&&&$$$$$$$$$&&&&$$$$$$$$&&&&&&$#$$$$$$+++++.++. ",
".   .X#$$$##&&&&&&&#$$$$$$$&&&&&&&$$$$$$$&&&&&$#########+++.    ",
"=== .#$$$$$#&&&&&&$#$$$$$$$&&&&&&&$$$$$$$$$$$$$##$$$#####++... =",
"==.XX$$$$$$#&&&&&$##&&$$$$$$&&&&&$$$$$$$$$$$$$$#$$$$$####++.... ",
"==.++$$$$$$########&&&&&$$$$$&&&$$$$$#$$$$$$$$$#$$$$$####X..XX. ",
"==.##$$$$$#$$######&&&&&&$$$$$$$$$$$$$#$$$$$$$$#$$$$$####XX.XXX ",
"==.##$$$$$$$$$$$###&&&&&&$$#$$$$$$$$$$#$$$$$$$$##########XXX.XX ",
"=..###++++$$$$$$###&&&&&$$###$$$$$$$$####$$$$$$##++######XXX... ",
"...XX+++++$$$$$$##############$$$$$$##############++++XXX+++.. @",
" XXXX###++$$$$$$$$$#########$###$$#################++++XX+++ . *",
" ++XX###++$$$$##$$$$$#####$$$$$##########+#########++++XX+++ .. ",
" ++XX###+++++++#$$$$$$++$$$$$$$####$$$$##++########X+++X..   .. ",
" +++X...X++++++#$$$$$$++$$$$$$$#+$$$$$$$#++########X+++X.....XX ",
"    ....X###+++#$$$$$#++#$$$$$#++#$$$$$$++XX######+..XXX....XXX ",
"== ....X.####+X+$$$$$+++++$$$#++++#$$$$$++XXXX.....XXXXX.  .XXX ",
"== .XXXX.####+XXXXXXX+##+++++++++++#$$$+++XXXX...XXXXXXX  .     ",
"== .++XXX..XXXXXXXXX####++++X###+++++#++++X+++X.XXXXX    ..  @@@",
"= o +++XXXX++++XXXXX#####++XX+##+X+##+++++X+++X.XXX++   .... @@*",
"= o   ..XXX++++X+++X+####++XXX++XXX#####XXXX++X.XX+++  ...XX @@=",
"= o%%Oo.++X.....###+XXXXXXXXXXXXXXXX###+X.......XX+++   ..XX @@*",
"= oOOOo ++XX....###++XXXXX++++XXXXXXXXXXX.........           @@@",
"=@ oOOoo ++X.  .####+X...+###+++X+++XXXX...XXXX ...     o    @@@",
"=* o@ooo        ..........#####+.X++++X+..XXXXX  ..  ..   @ @@@*",
"=*@ *ooo     ..   ....XX...###+...+++++...XXXX.  ..  ..  @  @@@*",
"==*@*    @   ........XXXX..........+++.. ..XXX. .XX      @ @@@*=",
"====== @ *   XX...  .XX................        ..XX   @  @@@@@*=",
"======*@@*@  XX..        ..XXX. ....    ...        .. @@@@@*@*==",
"======*****       ...   .XXXX.   ..     XXX           @@***=====",
"======..*** OOOo  XXX.   .X.          ..XXX   ..    @@@@@=======",
"=========== OO%Ooo            ...            ...    @@@@@=======",
"=========== oO%%%%OOo                   OOO         @*@@@=======",
"============ @%%%OOooo   @       * *  oooOOOOooo @ @@*@@*=======",
"============ o*OOOooo@  *    @*@@@ @   oo@oooooo*  @@@@@========",
"============  *o*ooo*   * * @@@@@@@@@ *  o*ooo  * @@@@@*========",
"============ **o*oo *   @@@@@@***====**   * *  @@@@@@@*=========",
"============ **@*@@@*@@@@@@****========*@@@@@@@@*****===========",
"============..=*************==============*********============="
};
