/* XPM */
static char *result[] = {
/* columns rows colors chars-per-pixel */
"64 64 238 2 ",
"   c #010001",
".  c #0A0202",
"X  c #0C0B0B",
"o  c #03070D",
"O  c #170704",
"+  c #060B15",
"@  c #081518",
"#  c #181616",
"$  c #141608",
"%  c #240904",
"&  c #251807",
"*  c #3E1F07",
"=  c #231819",
"-  c #3E0B08",
";  c #07241C",
":  c #1D211F",
">  c #2D2308",
",  c #272418",
"<  c #392911",
"1  c #121E24",
"2  c #071A22",
"3  c #002C2B",
"4  c #062327",
"5  c #142726",
"6  c #13362D",
"7  c #062C35",
"8  c #132C37",
"9  c #0D343B",
"0  c #053437",
"q  c #11353E",
"w  c #163B39",
"e  c #00312F",
"r  c #30332F",
"t  c #510E0B",
"y  c #69150F",
"u  c #781913",
"i  c #71120D",
"p  c #4B2908",
"a  c #573200",
"s  c #54350A",
"d  c #673800",
"f  c #72330C",
"g  c #4D3B2A",
"h  c #663E21",
"j  c #324937",
"k  c #554413",
"l  c #6A4601",
"z  c #764B00",
"x  c #795606",
"c  c #77461C",
"v  c #675418",
"b  c #765715",
"n  c #654817",
"m  c #4C4728",
"M  c #574629",
"N  c #58573C",
"B  c #4E483E",
"V  c #654527",
"C  c #6E512D",
"Z  c #6D6938",
"A  c #0D3C43",
"S  c #053345",
"D  c #123A43",
"F  c #163D4A",
"G  c #193845",
"H  c #0D3450",
"J  c #3B3D42",
"K  c #0D4249",
"L  c #15434A",
"P  c #1A4859",
"I  c #0F4155",
"U  c #295547",
"Y  c #2C4A53",
"T  c #326956",
"R  c #2E6757",
"E  c #1D4D63",
"W  c #1A4660",
"Q  c #1A516F",
"!  c #234D62",
"~  c #225364",
"^  c #24546B",
"/  c #29576C",
"(  c #2A5B74",
")  c #275A75",
"_  c #345F6A",
"`  c #2C617D",
"'  c #386271",
"]  c #474544",
"[  c #564747",
"{  c #585355",
"}  c #555C40",
"|  c #675858",
" . c #4F6E55",
".. c #6B6F52",
"X. c #477C63",
"o. c #476975",
"O. c #5D786F",
"+. c #6C6A6A",
"@. c #766665",
"#. c #615D67",
"$. c #851A13",
"%. c #8D2116",
"&. c #9A2919",
"*. c #843010",
"=. c #AE3017",
"-. c #C63A19",
";. c #D23A16",
":. c #CE3D20",
">. c #865702",
",. c #96541B",
"<. c #854E18",
"1. c #A15B1C",
"2. c #976909",
"3. c #896913",
"4. c #93731B",
"5. c #976F10",
"6. c #AD7515",
"7. c #985B24",
"8. c #A25E22",
"9. c #A96325",
"0. c #B96922",
"q. c #AD7A29",
"w. c #8A7125",
"e. c #FD560E",
"r. c #F45112",
"t. c #D24121",
"y. c #EC4C22",
"u. c #C36F24",
"i. c #CC7926",
"p. c #DE4314",
"a. c #837373",
"s. c #8B7A7A",
"d. c #826C6B",
"f. c #3E856D",
"g. c #3D8C74",
"h. c #3C8F78",
"j. c #3B917A",
"k. c #408870",
"l. c #46957B",
"z. c #489A7E",
"x. c #449076",
"c. c #49856B",
"v. c #B78415",
"b. c #B1860F",
"n. c #B18E33",
"m. c #CC9717",
"M. c #CA911B",
"N. c #D7AA1C",
"B. c #E3AD1A",
"V. c #E7B318",
"C. c #EFB311",
"Z. c #C88C24",
"A. c #EA9527",
"S. c #DBA824",
"D. c #ECBD21",
"F. c #E9B520",
"G. c #F5B233",
"H. c #F8C915",
"J. c #F6C624",
"K. c #FDD825",
"L. c #EECE2F",
"P. c #FBE826",
"I. c #F6F231",
"U. c #FFF41F",
"Y. c #978E4B",
"T. c #BDA74F",
"R. c #B5B168",
"E. c #96926C",
"W. c #C9BD5E",
"Q. c #CAA543",
"!. c #D1BE74",
"~. c #BCC077",
"^. c #EBCB47",
"/. c #F4D54B",
"(. c #F6DA51",
"). c #D5C669",
"_. c #EEDE5D",
"`. c #2B6485",
"'. c #366A85",
"]. c #3D728B",
"[. c #367599",
"{. c #286B97",
"}. c #225E83",
"|. c #437489",
" X c #577E83",
".X c #457C95",
"XX c #3E85B3",
"oX c #389881",
"OX c #499B80",
"+X c #4D859D",
"@X c #45809E",
"#X c #55899B",
"$X c #588389",
"%X c #4CA184",
"&X c #51B293",
"*X c #4C89A7",
"=X c #518AA2",
"-X c #548EA9",
";X c #5A94AC",
":X c #5790AA",
">X c #5797B6",
",X c #6C9CAE",
"<X c #4B9DCB",
"1X c #938383",
"2X c #9A8A8A",
"3X c #929990",
"4X c #AA9A9A",
"5X c #A39494",
"6X c #A38C8D",
"7X c #B2A1A1",
"8X c #BCAEAE",
"9X c #AAAE96",
"0X c #CDBBBB",
"qX c #C5B5B5",
"wX c #D5D48C",
"eX c #E6D48E",
"rX c #FFFF8B",
"tX c #FFFF9A",
"yX c #FDFE94",
"uX c #F2E59B",
"iX c #D6C9A8",
"pX c #FFFDAC",
"aX c #FFFFB3",
"sX c #FFFFBB",
"dX c #F4E8A5",
"fX c #BEBEC2",
"gX c #DBCBCB",
"hX c #D9D5D5",
"jX c #CDC8C8",
"kX c #E7D6D6",
"lX c #FFFED8",
"zX c #ECEFCC",
"xX c #F5EEEE",
"cX c #F3E4E4",
"vX c #FFFEFF",
"bX c #F8F5F3",
"nX c #F1F6EF",
"mX c #489848",
/* pixels */
"mXmXmXmXmXmXmXmXmXmXmXmXmXmXmXmXmXmXmXmXmXmXmXmXmXmXmXmXmXmXmXmXmXmXmXmXmXmXmXmXmXmXmXmXmXmXmXmXmXmXmXmXmXmXmXmXmXmXmXmXmXmXmXmX",
"mXmXmXmXmXmXmXmXmXmXmXmXmXmXmXmXmXmXmXmXmXmXmXmXmXmXmXmXmXmXmXmXmXmXmXmXmXmXmXmXmXmXmXmXmXmXmXmXmXmXmXmXmXmXmXmXmXmXmXmXmXmXmXmX",
"mXmXmXmXmXmXmXmXmXmXmXmXmXmXmXmXmXmXmXmXmXmXmXmXmXmXmXmXmXmXmXmXmXmXmXmXmXmXmXmXmXmXmXmXmXmXmXmXmXmXmXmXmXmXmXmXmXmXmXmXmXmXmXmX",
"mXmXmXmXmXmXmXmXmXmXmXmXmXmXmXmXmXmXmXmXmXmXmXmXmXmXmXmXmXmXmXmXmXmXmXmXmXmXmXmXmXmXmXmXmXmXmXmXmXmXmXmXmXmXmXmXmXmXmXmXmXmXmXmX",
"mXmXmXmXmXmXmXmXmXmXmXmXmXmXmXmXmXmXmXmXmXmXmXmXmXmXmXmXmXmXmXmXmXmXmXmXmXmXmXmXmXmXmXmXmXmXmXmXmXmXmXmXmXmXmXmXmXmXmXmXmXmXmXmX",
"mXmXmXmXmXmXmXmXmXmXmXmXmXmXmXmXmXmXmXmXmXmXmXmXmXmXmXmXmXmXmXmXmXmXmXmXmXmXmXmXmXmXmXmXmXmXmXmXmXmXmXmXmXmXmXmXmXmXmXmXmXmXmXmX",
"mXmXmXmXmXmXmXmXmXmXmXmXmXmXmXmXmXmXmXmXmXmXmXmXmXmXmXmXd d d z x mXmXmXmXmXmXmXmXmXmXmXmXmXmXmXmXmXmXmXmXmXmXmXmXmXmXmXmXmXmXmX",
"mXmXmXmXmXmXmXmXmXmXmXmXmXmXmXmXmXmXmXmXmXmXmXmXmXmXmXmX4.4.4.x z mXmXmXmXmXmXmXmXmXmXmXmXmXmXmXmXmXmXmXmXmXmXmXmXmXmXmXmXmXmXmX",
"mXmXmXmXmXmXmXmXmXmXmXmXmXmXmXmXmXmXmXmXmXmXmXmXmXd >.6.yXaXpXn.z mXmXmXmXmXmXmXmXmXmXmXmXmXmXmXmXmXmXmXmXmXmXmXmXmXmXmXmXmXmXmX",
"mXmXmXmXmXmXmXmXmXmXmXmXmXmXmXmXmXmXmXmXmXmXz 2.Z.W.).).^.^./.k & mXmXmXmXmXmXmXmXmXmXmXmXmXmXmXmXmXmXmXmXmXmXmXmXmXmXmXmXmXmXmX",
"mXmXmXmXmXmXmXmXmXmXmXmXmXmXmXmXmXmXmXmXmXmX>.2.Z.yXyXyXD.B.H.> . mXmXmXmXmXmXmXmXmXmXmXmXmXmXmXmXmXmXmXmXmXmXmXmXmXmXmXmXmXmXmX",
"mXmXmXmXmXmXmXmXmXmXmXmXmXmXmXmXmXmXmX    $ C.M.6.J.J.J.V.J.K.>.a l l l mXmXmXmXmXmXmXmXmXmXmXmXmXmXmXmXmXmXmXmXmXmXmXmXmXmXmXmX",
"mXmXmXmXmXmXmXmXmXmXmXmXmXmXmXmXmXmX0 G > l _.S.m.m.m.m.N.M.6.b.v.b.6.2.Z.2.l z mXmXmXmXmXmXmXmXmXmXmXmXmXmXmXmXmXmXmXmXmXmXmXmX",
"mXmXmXmXmXmXmXmXmXmXmXmXmXmXmXmXmX3 A {.v 6.lX_.C.6.v.6.6.3.p N.K.K.m.v.v.2.z x x mXmXmXmXmXmXmXmXmXmXmXmXmXmXmXmXmXmXmXmXmXmXmX",
"mXmXmXmXmXmXmXmXmXmXmXmXmXmXmXmX@ e ! -X+Xc.f ^.aXtXtXtXpXR.. b.C.C.B.V.F.B.S.D.6.p mXmXmXmXmXmXmXmXmXmXmXmXmXmXmXmXmXmXmXmXmXmX",
"mXmXmXmXmXmXmXmXmXmXmXmXmXmXmXmXO.5 G >X:X#XN Y.!.W.W.W.).Y.+ T.(././.^.F.D.J.J.N.b.mXmXmXmXmXmXmXmXmXmXmXmXmXmXmXmXmXmXmXmXmXmX",
"mXmXmXmXmXmXmXmXmXmXmXk x w.mXmXlX> @ >X-X-X<X} d d d d f a S wXaXpXpXtXV.V.V.B.K.I.2.l mXmXmXmXmXmXmXmXmXmXmXmXmXmXmXmXmXmXmXmX",
"mXmXmXmXmXmXmXmXmXmXmXb 9XzX7 4 Y       D ^ ` |.$X$X X X$Xo.W U j < , m rXyXrXV.H.U.2.z mXmXmXmXmXmXmXmXmXmXmXmXmXmXmXmXmXmXmXmX",
"mXmXmXmXmXmXmXmXmXmXmX3.iXvXL 7 P Y B g 5 7 P ].>X*X-X*X:X.X'.0 @     @ ~.~.R.^.L.I.x a mXmXmXmXmXmXmXmXmXmXmXmXmXmXmXmXmXmXmXmX",
"mXmXmXmXmXmXmXmXmXmXmX3.iXvXj E >XvXvXaXM   7 ( *X*X*X+X=X*X*XI 3 A A 9       pXpXlX,   mXmXmXmXmXmXmXmXmXmXmXmXmXmXmXmXmXmXmXmX",
"mXmXmXmXmXmXmXmXmXmXmX> E.lXw ~ ,XY @.nXB   4 3XzX@X].@X@X,XzXr + ^ E ! P G 5 m m m Y F e mXmXmXmXmXmXmXmXmXmXmXmXmXmXmXmXmXmXmX",
"mXmXmXmXmXmXmXmXmXmXmX  ..dXj Y =Xo r nX{ @ + E.dX,X,X,X-X3XuX< o `.( ( `.E A       ) ) 3 mXmXmXmXmXmXmXmXmXmXmXmXmXmXmXmXmXmXmX",
"mXmXmXmXmXmXmXmXmXmXmXmXmXn.n...7 +X,XXX<X[.    X vXvXvXvXfX    @ ` / ^ ^ ^ ~ 3 K '.( P 9 mXmXmXmXmXmXmXmXmXmXmXmXmXmXmXmXmXmXmX",
"mXmXmXmXmXmXmXmXmXmXmXmXM < p : S I  .d.c...v , 4 +.+.+.+. .b w F / '.].|.|.].P I D / ( ~ @ mXmXmXmXmXmXmXmXmXmXmXmXmXmXmXmXmXmX",
"mXmXmXmXmXmXmXmXmXmXmXmX      2 L A j n.q.w.n.} S         & n.o.}.^ .X;X-X:X-X'.P ; E ( `.5   mXmXmXmXmXmXmXmXmXmXmXmXmXmXmXmXmX",
"mXmXmXmXmXmXmXmXmXmXmXmX. X dXwXl kXvXvXlXuXv. .Q S 9 D 7 F ' ( '.=X+X=X=X+X#X:X].P e A '.1 . mXmXmXmXmXmXmXmXmXmXmXmXmXmXmXmXmX",
"mXmXmXmXmXmXmXmXmXmXmXmX  X wXeXQ.zXlXnXiXT..._ ^ ! F 9 P E ) P ^ -X#X=X=X+X=X=X@X].0 e ~ @ . mXmXmXmXmXmXmXmXmXmXmXmXmXmXmXmXmX",
"mXmXmXmXmXmXmXmXmXmXmXmX. . Y.eXlXdXuXpXn.v Q ) ( `.P 9 ( ( ) 9 F :X#X=X=X=X=X=X#X;XK 3 D @   mXmXmXmXmXmXmXmXmXmXmXmXmXmXmXmXmX",
"mXmXmXmXmXmXmXmXmXmXmXmXmXmX# , , = g Q.O.( ` ` ( F D 9 ^ ( ( 0 L ;X=X=X+X+X=X+X+X-XA e F @ . mXmXmXmXmXmXmXmXmXmXmXmXmXmXmXmXmX",
"mXmXmXmXmXmXmXmXmXmXmXmXmXmX        $ v Y H F P P 9 9 A ^ ( ( 4 8 .X+X=X=X=X=X=X+X-XA 3 A @ . mXmXmXmXmXmXmXmXmXmXmXmXmXmXmXmXmX",
"mXmX  ] | mXmXmXmXmXmXmXmXmXmXmXmXX o     .   @ e 3 0 D / ( ` X X ) .X;X=X=X+X=X+X=XK 3 e mXmXmXmXmXmXmXmXmXmXmXmXmXmXmXmXmXmXmX",
"mXmX  hXjX[ | | mXmXmXmXmXmXmXmXmXmXmXmXmXmXmXX @ A A w D P `.G 4 @ ! ].( .X:X+X*X-X# @ 0 mXmXmXmXmXmXmXmXmXmXmXmXmXmXmXmXmXmXmX",
"mXmX  xXxXa.a.a.mXmXmXmXmXmXmXmXmXmXmXmXmXmXmXmX. 8 9 9 9 L ^ P 8   8 ! E '.+X+X#X-X#   3 mXmXmXmXmXmXmXmXmXmXmXmXmXmXmXmXmXmXmX",
"mXmX  0XvXvXgX7X2X@.| mXmXmXmXmXmXmXmXmXmXmXmXmXmX  @ 0 A D 9 w D K + X ( ^ ! +X:X;X5   . mXmXmXmXmXmXmXmXmXmXmXmXmXmXmXmXmXmXmX",
"mXmXmX2XhXvXkX0X7X2Xa.@.r   mXmXmXmXmXmXmXmXmXmXmXmXmXmX@ 4 0 A D K @ X / ` .X=X@X` @   mXmXmXmXmXmXmXmXmXmXmXmXmXmXmXmXmXmXmXmX",
"mXmXmX@.5XvXxXkX0X7X2X@.g # mXmXmXmXmXmXmXmXmXmXmXmXmXmX. X 3 7 q w + X / .X;X:X].E #   mXmXmXmXmXmXmXmXmXmXmXmXmXmXmXmXmXmXmXmX",
"mXmXmX  ] vXvXbXkX0X7X1X1X2Xa.r       mXmXmXmXmXmXmXmXmX.           . 1 =X=X=XXX[.` @ . mXmXmXmXmXmXmXmXmXmXmXmXmXmXmXmXmXmXmXmX",
"mXmXmXmXr 7XxXvXbXkX0X7X5X1Xs.@.[ { { a.#     mXmXu u u mX    v 4.4.& + =X*X*XR...8 $ mXmXmXmXmXmXmXmXmXmXmXmXmXmXmXmXmXmXmXmXmX",
"mXmXmXmXmX[ jXbXvXxXkX0X7X1X2X5X4X7X6X@.: o . mXmXu u y mXmX. M.P.P.k o #X=X#XH.5.  mXmXmXmXmXmXmXmXmXmXmXmXmXmXmXmXmXmXmXmXmXmX",
"mXmXmXmXmXmX# J vXvXvXkX0X7X8X4Xs.1X1XE.E.a.{ | @.&.&.%.u y y y *.B.< X S.L.P.D.<.  mXmXmXmXmXmXmXmXmXmXmXmXmXmXmXmXmXmXmXmXmXmX",
"mXmXmXmXmXmXmX# 3XhXvXxXkX0XgXqX5X4X5X4X7X4Xa.a.d.&.=.-.=.%.i $.&.1.& $ V.K.P.3.*   mXmXmXmXmXmXmXmXmXmXmXmXmXmXmXmXmXmXmXmXmXmX",
"mXmXmXmXmXmXmXmX  5XvXvXbXkXcXgXqXqXqXqX0XqX5X5X2X&.;.e.y.=.t :.t.y O $ V.K.P.  2 mXmXmXmXmXmXmXmXmXmXmXmXmXmXmXmXmXmXmXmXmXmXmX",
"mXmXmXmXmXmXmXmXmX{ 2X2XhXvXvXvXxXkXgXcX{ # X X = u =.y.&.&.t.y.;.i #.|.>.M.S.  w &Xj.h.j.mXmXmXmXmXmXmXmXmXmXmXmXmXmXmXmXmXmXmX",
"mXmXmXmXmXmXmXmXmXmX| s.8XhXhXxXvXcXcXvXr . @ o   - u -.t y :.1.&.t o.*Xk v <.& j c. .X. .mXmXmXmXmXmXmXmXmXmXmXmXmXmXmXmXmXmXmX",
"mXmXmXmXmXmXmXmXmXmXmXmX| [ @.0XvXvXvXvX[   &Xw     % $.  O $.$.t . F `.`.7   V C h h h f T oXh.j.h.mXmXmXmXmXmXmXmXmXmXmXmXmXmX",
"mXmXmXmXmXmXmXmXmXmXmXmXmXmXmXmXr s.6X5X=   %X6 . u t O   . O O O   7 ~ '.S . 7.9.1.9.9.7.Z } [ N } g.h.j.mXmXmXmXmXmXmXmXmXmXmX",
"mXmXmXmXmXmXmXmXmXmXmXmXmXmXmXmX. ] { .., 1 %X6   ;.u .             @ 9 ^ 8 . <.,.,.,.,.0.<.h <.c c X.X.X.mXmXmXmXmXmXmXmXmXmXmX",
"mXmXmXmXmXmXmXmXmXmXmXmXmXmXg.k.x.g.g.g.k.x.%X6 . e.-.t .               .             % i.u.i.u.0.1.V V V h g M     mXmXmXmXmXmX",
"mXmXmXmXmXmXmXmXmXmXmXmXmXmXk.k.k.k.k.k.k.k.OX6 . e.;.u . @ R U U U U U U U U U U U U j p * * * <.u.7.7.7.0.q.q.9.n   mXmXmXmXmX",
"mXmXmXmXmXmXmXmXmXmXmXmXmXmXk.k.k.k.k.k.f.k.OX6 . r.p.&.O 5 %Xz.z.OXOXz.OXl.OXOXOXOX&XT   o     s 9.1.8.1.A.A.A.G.i.  mXmXmXmXmX",
"mXmXmXmXmXmXmXmXmXmXmXmXmXmXmXmXk.k.k.k.k.k.z.6 . e.e.r.=.y   T l.f.k.k.k.k.k.k.g.f.k.k.f.f.f.z.5   .   . 9.i.0.G.Z.. mXmXmXmXmX",
"mXmXmXmXmXmXmXmXmXmXmXmXmXmXmXmXk.k.k.k.k.k.OX6 . =.r.e.p.*.  T l.k.k.k.k.k.k.k.k.k.k.k.k.g.k.l.R 6     o p s s <.s   mXmXmXmXmX",
"mXmXmXmXmXmXmXmXmXmXmXmXmXmXmXmXmXmXmXk.k.k.OX6 . u -.e.e.=.  T l.k.k.k.k.k.k.k.k.k.k.k.k.k.k.f.l.OXmXmXmX          mXmXmXmXmXmX",
"mXmXmXmXmXmXmXmXmXmXmXmXmXmXmXmXmXmXmXmXmXmXmXmXmX. O O $ O   T l.k.k.k.k.k.k.k.k.k.f.k.mXmXmXmXmXmXmXmXmXmXmXmXmXmXmXmXmXmXmXmX",
"mXmXmXmXmXmXmXmXmXmXmXmXmXmXmXmXmXmXmXmXmXmXmXmXmX.           T l.k.k.k.k.k.k.k.k.k.k.k.mXmXmXmXmXmXmXmXmXmXmXmXmXmXmXmXmXmXmXmX",
"mXmXmXmXmXmXmXmXmXmXmXmXmXmXmXmXmXmXmXmXmXmXmXmXmXmXmXmXmXmXmXmXmXmXmXmXmXmXmXmXmXmXmXmXmXmXmXmXmXmXmXmXmXmXmXmXmXmXmXmXmXmXmXmX",
"mXmXmXmXmXmXmXmXmXmXmXmXmXmXmXmXmXmXmXmXmXmXmXmXmXmXmXmXmXmXmXmXmXmXmXmXmXmXmXmXmXmXmXmXmXmXmXmXmXmXmXmXmXmXmXmXmXmXmXmXmXmXmXmX",
"mXmXmXmXmXmXmXmXmXmXmXmXmXmXmXmXmXmXmXmXmXmXmXmXmXmXmXmXmXmXmXmXmXmXmXmXmXmXmXmXmXmXmXmXmXmXmXmXmXmXmXmXmXmXmXmXmXmXmXmXmXmXmXmX",
"mXmXmXmXmXmXmXmXmXmXmXmXmXmXmXmXmXmXmXmXmXmXmXmXmXmXmXmXmXmXmXmXmXmXmXmXmXmXmXmXmXmXmXmXmXmXmXmXmXmXmXmXmXmXmXmXmXmXmXmXmXmXmXmX",
"mXmXmXmXmXmXmXmXmXmXmXmXmXmXmXmXmXmXmXmXmXmXmXmXmXmXmXmXmXmXmXmXmXmXmXmXmXmXmXmXmXmXmXmXmXmXmXmXmXmXmXmXmXmXmXmXmXmXmXmXmXmXmXmX",
"mXmXmXmXmXmXmXmXmXmXmXmXmXmXmXmXmXmXmXmXmXmXmXmXmXmXmXmXmXmXmXmXmXmXmXmXmXmXmXmXmXmXmXmXmXmXmXmXmXmXmXmXmXmXmXmXmXmXmXmXmXmXmXmX",
"mXmXmXmXmXmXmXmXmXmXmXmXmXmXmXmXmXmXmXmXmXmXmXmXmXmXmXmXmXmXmXmXmXmXmXmXmXmXmXmXmXmXmXmXmXmXmXmXmXmXmXmXmXmXmXmXmXmXmXmXmXmXmXmX",
"mXmXmXmXmXmXmXmXmXmXmXmXmXmXmXmXmXmXmXmXmXmXmXmXmXmXmXmXmXmXmXmXmXmXmXmXmXmXmXmXmXmXmXmXmXmXmXmXmXmXmXmXmXmXmXmXmXmXmXmXmXmXmXmX",
"mXmXmXmXmXmXmXmXmXmXmXmXmXmXmXmXmXmXmXmXmXmXmXmXmXmXmXmXmXmXmXmXmXmXmXmXmXmXmXmXmXmXmXmXmXmXmXmXmXmXmXmXmXmXmXmXmXmXmXmXmXmXmXmX"
};
