/* XPM */
static char *result[] = {
/* columns rows colors chars-per-pixel */
"64 64 224 2 ",
"   c #010001",
".  c #090201",
"X  c #05070B",
"o  c #160802",
"O  c #1C1303",
"+  c #161009",
"@  c #0C1C1C",
"#  c #071618",
"$  c #191816",
"%  c #090D10",
"&  c #241A08",
"*  c #2E120C",
"=  c #05221D",
"-  c #15241E",
";  c #3B2906",
":  c #282717",
">  c #342817",
",  c #0C1B26",
"<  c #012522",
"1  c #02292C",
"2  c #052828",
"3  c #142323",
"4  c #073028",
"5  c #15362D",
"6  c #0C2D32",
"7  c #052D31",
"8  c #112732",
"9  c #043334",
"0  c #0B3136",
"q  c #0D343A",
"w  c #06383A",
"e  c #15353D",
"r  c #3B3939",
"t  c #30302A",
"y  c #460D07",
"u  c #57150C",
"i  c #671911",
"p  c #721711",
"a  c #472A03",
"s  c #483307",
"d  c #583804",
"f  c #4C2A1A",
"g  c #633D00",
"h  c #6E3C00",
"j  c #61371D",
"k  c #483329",
"l  c #453D3D",
"z  c #5C3B23",
"x  c #603E23",
"c  c #304A37",
"v  c #1B4236",
"b  c #544415",
"n  c #6D4400",
"m  c #674606",
"M  c #774A00",
"N  c #795505",
"B  c #79461D",
"V  c #5D4128",
"C  c #4F5234",
"Z  c #655425",
"A  c #635635",
"S  c #714926",
"D  c #706D30",
"F  c #7D7512",
"G  c #002845",
"H  c #073747",
"J  c #163A46",
"K  c #123851",
"L  c #14414D",
"P  c #19434D",
"I  c #1D4C5D",
"U  c #194755",
"Y  c #0A4853",
"T  c #29584A",
"R  c #224D5D",
"E  c #2A4F55",
"W  c #36735F",
"Q  c #2E6452",
"!  c #1E4D64",
"~  c #154A6A",
"^  c #0D4975",
"/  c #144F6F",
"(  c #214E63",
")  c #235265",
"_  c #23536B",
"`  c #29586B",
"'  c #295972",
"]  c #2D5E79",
"[  c #255670",
"{  c #355D6C",
"}  c #397964",
"|  c #2E617B",
" . c #2F6074",
".. c #34647A",
"X. c #277264",
"o. c #4A5645",
"O. c #555843",
"+. c #525755",
"@. c #4D504F",
"#. c #6A5C5C",
"$. c #586755",
"%. c #507459",
"&. c #686848",
"*. c #687056",
"=. c #45756D",
"-. c #696767",
";. c #647165",
":. c #726D6D",
">. c #952615",
",. c #8F2916",
"<. c #B22C1A",
"1. c #B12F19",
"2. c #A22719",
"3. c #CE351A",
"4. c #DB3E1E",
"5. c #865404",
"6. c #905115",
"7. c #976808",
"8. c #8E6E11",
"9. c #A56705",
"0. c #BA7B04",
"q. c #AA7413",
"w. c #AE7714",
"e. c #835828",
"r. c #975620",
"t. c #A9442D",
"y. c #947034",
"u. c #AE6926",
"i. c #B1782C",
"p. c #C86717",
"a. c #F85327",
"s. c #C67C26",
"d. c #D74218",
"f. c #8D7878",
"g. c #3E846D",
"h. c #33836F",
"j. c #3D8B74",
"k. c #3C917A",
"l. c #408870",
"z. c #46957B",
"x. c #47967C",
"c. c #4A8067",
"v. c #B7820C",
"b. c #BB8516",
"n. c #A78F1A",
"m. c #B29637",
"M. c #AC9237",
"N. c #9F951F",
"B. c #C78C1B",
"V. c #D69417",
"C. c #E39718",
"Z. c #DAAB19",
"A. c #CDA318",
"S. c #EAB307",
"D. c #E7B21A",
"F. c #E7B51B",
"G. c #EFA50D",
"H. c #D1962F",
"J. c #E89428",
"K. c #FDA42B",
"L. c #E9BA20",
"P. c #E8B924",
"I. c #F8B52A",
"U. c #F2DF18",
"Y. c #EAC02E",
"T. c #FAD727",
"R. c #E5C532",
"E. c #F2C92E",
"W. c #FDF82D",
"Q. c #FFE721",
"!. c #C69F58",
"~. c #F4D750",
"^. c #FDF84E",
"/. c #EBDD6D",
"(. c #F4E168",
"). c #376C86",
"_. c #3B7385",
"`. c #3D7189",
"'. c #307094",
"]. c #196191",
"[. c #41768D",
"{. c #467B8F",
"}. c #447A94",
"|. c #447B95",
" X c #349783",
".X c #4A9D81",
"XX c #4D849C",
"oX c #4D859A",
"OX c #51879C",
"+X c #528396",
"@X c #4FA88A",
"#X c #50AA8C",
"$X c #4F89A4",
"%X c #538CA4",
"&X c #558FA9",
"*X c #5087A0",
"=X c #5691AA",
"-X c #5994AD",
";X c #5C9AB4",
":X c #5C99B3",
">X c #4D93B9",
",X c #619BB5",
"<X c #67A9C8",
"1X c #978686",
"2X c #AB9999",
"3X c #BBA9A9",
"4X c #B3B2A7",
"5X c #C5B3B3",
"6X c #F8F58A",
"7X c #F9FA99",
"8X c #F3E98C",
"9X c #CECEB3",
"0X c #FFFFA5",
"qX c #FFFFAB",
"wX c #F9F7B7",
"eX c #DAC7C7",
"rX c #D5D3D3",
"tX c #CED1D1",
"yX c #E8DBDB",
"uX c #E7E6E6",
"iX c #F6EAEA",
"pX c #FEFDFD",
"aX c #F6F4F4",
"sX c #489848",
/* pixels */
"sXsXsXsXsXsXsXsXsXsXsXsXsXsXsXsXsXsXsXsXsXsXsXsXsXsXsXsXsXsXsXsXsXsXsXsXsXsXsXsXsXsXsXsXsXsXsXsXsXsXsXsXsXsXsXsXsXsXsXsXsXsXsXsX",
"sXsXsXsXsXsXsXsXsXsXsXsXsXsXsXsXsXsXsXsXsXsXsXsXsXsXsXsXsXsXsXsXsXsXsXsXsXsXsXsXsXsXsXsXsXsXsXsXsXsXsXsXsXsXsXsXsXsXsXsXsXsXsXsX",
"sXsXsXsXsXsXsXsXsXsXsXsXsXsXsXsXsXsXsXsXsXsXsXsXsXsXsXsXsXsXsXsXsXsXsXsXsXsXsXsXsXsXsXsXsXsXsXsXsXsXsXsXsXsXsXsXsXsXsXsXsXsXsXsX",
"sXsXsXsXsXsXsXsXsXsXsXsXsXsXsXsXsXsXsXsXsXsXsXsXsXsXsXsXsXsXsXsXsXsXsXsXsXsXsXsXsXsXsXsXsXsXsXsXsXsXsXsXsXsXsXsXsXsXsXsXsXsXsXsX",
"sXsXsXsXsXsXsXsXsXsXsXsXsXsXsXsXsXsXsXsXsXsXsXsXsXsXsXsXsXsXsXsXsXsXsXsXsXsXsXsXsXsXsXsXsXsXsXsXsXsXsXsXsXsXsXsXsXsXsXsXsXsXsXsX",
"sXsXsXsXsXsXsXsXsXsXsXsXsXsXsXsXsXsXsXsXsXsXsXsXsXsXsXsXsXsXsXsXsXsXsXsXsXsXsXsXsXsXsXsXsXsXsXsXsXsXsXsXsXsXsXsXsXsXsXsXsXsXsXsX",
"sXsXsXsXsXsXsXsXsXsXsXsXsXsXsXsXsXsXsXsXsXsXsXsXsXsXsXsXsXsXsXsXsXsXsXsXsXsXsXsXsXsXsXsXsXsXsXsXsXsXsXsXsXsXsXsXsXsXsXsXsXsXsXsX",
"sXsXsXsXsXsXsXsXsXsXsXsXsXsXsXsXsXsXsXsXsXsXsXsXsXsXsXsXsXsXsXsXsXsXsXsXsXsXsXsXsXsXsXsXsXsXsXsXsXsXsXsXsXsXsXsXsXsXsXsXsXsXsXsX",
"sXsXsXsXsXsXsXsXsXsXsXsXsXsXsXsXsX      sXsXsXsXsXsXsXsXsXsXsXsXsXsXsXsXsXsXsXsXsXsXsXsXsXsXsXsXsXsXsXsXsXsXsXsXsXsXsXsXsXsXsXsX",
"sXsXsXsXsXsXsXsXsXsXsXsXsXsXsX$ 3 rXl   sXsXsXsXsXsXsXsXsXsXsXsXsXsXsXsXsXsXsXsXsXsXsXsXsXsXsXsXsXsXsXsXsXsXsXsXsXsXsXsXsXsXsXsX",
"sXsXsXsXsXsXsXsXsXsXsXsXsXsXsXr -.pX@.  sXsXsXsXsXsXsXsXsXsXsXsXsXsXsXsXsXsXsXsXsXsXsXsXsXsXsXsXsXsXsXsXsXsXsXsXsXsXsXsXsXsXsXsX",
"sXsXsXsXsXsXsXsXsXsXsXsXsXsX  rXpXiXr   sXsXsXsXsXsXsXsXsXsXsXsXsXsXw.w.w.sXsXsXsXsXsXsXsXsXsXsXsXsXsXsXsXsXsXsXsXsXsXsXsXsXsXsX",
"sXsXsXsXsXsXsXsXsXsXsXsX  $ tXaXaXeXr   sXsXsXsXsXsXsXsXsXsXsXsXw.A.U.U.Z.q.sXsXsXsXsXsXsXsXsXsXsXsXsXsXsXsXsXsXsXsXsXsXsXsXsXsX",
"sXsXsXsXsXsXsXsXsXsXsXsX@.-.pXaXyX3Xt   sXsXsXsXsXsXsXsXsXsXsXsXb.P.^.^.R.b.sXsXsXsXsXsXsXsXsXsXsXsXsXsXsXsXsXsXsXsXsXsXsXsXsXsX",
"sXsXsXsXsXsXsXsXsXsXsXsX5XyXpXiXeX1Xt   sXsXsXsXsXsXsXsXsXsXq.b.D.(.wXwX(.F.b.q.sXsXsXsXsXsXsXsXsXsXsXsXsXsXsXsXsXsXsXsXsXsXsXsX",
"sXsXsXsXsXsXsXsXsXsXsX  4XpXpXrX5X2Xt   sXsXsXsXsXsXsXsXsXn q.E.D.E.W.W.T.D.E.v.M sXsXsXsXsXsXsXsXsXsXsXsXsXsXsXsXsXsXsXsXsXsXsX",
"sXsXsXsXsXsXsXsXsXsXsX$ rXpXpX5X2X:.$   sXsXsXsXsXsXsXsXsXn v.Y.Z.~.^.^.E.D.E.v.M sXsXsXsXsXsXsXsXsXsXsXsXsXsXsXsXsXsXsXsXsXsXsX",
"sXsXsXsXsXsXsXsXsXsXsX#.yXpXyX3X#.            sXsXsXsX1 2 M 9.B.S.8XpXpXwXS.V.7.M 4 7 sXsXsXsXsXsXsXsXsXsXsXsXsXsXsXsXsXsXsXsXsX",
"sXsXsXsXsXsXsXsXsXsXsXf.uXpXyX3X#.  u ,.1.*   sXsXsX2 H ! { Z 5.0.H.!.!.H.b.7.Z { R J 2 sXsXsXsXsXsXsXsXsXsXsXsXsXsXsXsXsXsXsXsX",
"sXsXsXsXsXsXsXsXsXsXsX1XuXaXyX3X#.  p 4.a.u o sXsXsX9 _ ).^ C 7.b.w.0.0.v.b.7.Z ^ ).` 9 sXsXsXsXsXsXsXsXsXsXsXsXsXsXsXsXsXsXsXsX",
"sXsXsXsXsXsXsXsXsXsXsXf.uXaXiX3X#.  p <.a.2.i < 1 q ( |.%X  N.W.Y.L.L.L.P.Y.W.N.  +X$X_ J < < sXsXsXsXsXsXsXsXsXsXsXsXsXsXsXsXsX",
"sXsXsXsXsXsXsXsXsXsXsX1XuXaXeX3X-.  >.4.,.y $ `._.[.XX|.]   F W.F.L.L.L.L.P.W.N.  ` |.XX[._._.sXsXsXsXsXsXsXsXsXsXsXsXsXsXsXsXsX",
"sXsXsXsXsXsXsXsXsXsXsXf.iXuX1X2X#.  2.3.p o , $XOXOXOX .J : N.W.L.L.L.L.F.F.W.n.: J ' XXXX$X*XsXsXsXsXsXsXsXsXsXsXsXsXsXsXsXsXsX",
"sXsXsXsXsXsXsXsXsXsXsX1XpXrX  +.+.  y >.3.* X 0 9 0 <   $ qX~.G.F.L.L.L.F.F.G.~.qX>   < 7 0 6 sXsXsXsXsXsXsXsXsXsXsXsXsXsXsXsXsX",
"sXsXsXsXsXsXsXsXsXsXsX1X-.@.p t.t.,.y * k 3 8 ! U I ).8 o 7X6X(.F.D.D.D.D.F.~.6X0X& , _.R U ( J 0 q sXsXsXsXsXsXsXsXsXsXsXsXsXsX",
"sXsXsXsXsXsXsXsXsXsXsX3X  . <.3.4.a.* % Y L U ] ] ).<XJ . 8X6X6XR.P.Y.Y.Y.Y.6X6X8X& 8 <X).] ] R J P sXsXsXsXsXsXsXsXsXsXsXsXsXsX",
"sXsXsXsXsXsXsXsXsXsXsXsX+     p d.G.b H &X%X|._ [.&X;XJ . h 9.V.0XqX0X0X0X0XC.9.M . , ;X&X{.( |.&X-XP < sXsXsXsXsXsXsXsXsXsXsXsX",
"sXsXsXsXsXsXsXsXsXsXsXsX  o i <.t.Z +.'.&X&XOX_ [.&X&X=.E $.*.&.M.m.m.m.m.m.&.$.;.E ..&X&X}.( |.&X&X[.` q sXsXsXsXsXsXsXsXsXsXsX",
"sXsXsXsXsXsXsXsXsXsXsXsX  * <.4.t.7 `.,X%X&X|.( [.&X*X-X;X>X'./ d g g g g g ~ '.>X;X:XXX&X{.! }.%XOX;XoXq sXsXsXsXsXsXsXsXsXsXsX",
"sXsXsXsXsXsXsXsXsXsXsXsXsXsX  >.t.~ [.&XXX-XoX1 ).;X*X*X*X_ ).&XOXOXOXOXOXOX=X`._ |.%X*X-X[.1 {.-XOX&X|.! sXsXsXsXsXsXsXsXsXsXsX",
"sXsXsXsXsXsXsXsXsXsXsXsXsXsXr f l '.oX%X&X}...7 ` }.*X&X*X_ `.&X%X%X$X$X$X$X-X`._ oX%X%X}.' 7 ] |.$X$XoX}.L sXsXsXsXsXsXsXsXsXsX",
"sXsXsXsXsXsXsXsXsXsXsXsXsXsXf.9 H :X%XOX&X| U q K ] *X*X|._ `.&X$XOX$XXX%X$X=X[.( {.%X%X| U 0 U  .&XOX%X,XI < sXsXsXsXsXsXsXsXsX",
"sXsXsXsXsXsXsXsXsXsXsXsXsXsXsXe U =X$XOX,X) 0 H I ] -X}.[ 1  .;X&X&X&X&X&X&X,X..1 _ `.:X..( H q R -X%XOX=X) 9 sXsXsXsXsXsXsXsXsX",
"sXsXsXsXsXsXsXsXsXsXsXsXsXsXsX1 U =X%XOX{.I 6 @ P ).}.` L L { }.`._.`.`.[.).{...L L _ |.| I # 6 U [.oX&X:XR 2 sXsXsXsXsXsXsXsXsX",
"sXsXsXsXsXsXsXsXsXsXsXsXsXsXsX< L &X%X}.) L 6   J ).[ J q ] ' ) ) _ _ _ _ _ ( ` | e J _ ] P   8 L ! [.&X-XU = sXsXsXsXsXsXsXsXsX",
"sXsXsXsXsXsXsXsXsXsXsXsXsXsXsXX 3 ).| _ J w 1 . 6 U ] ' _ [ [ ' [ [ ` [ ` [ ' [ ' _ ` | I 0 . 2 w J ) ] ).8   sXsXsXsXsXsXsXsXsX",
"sXsXsXsXsXsXsXsXsXsXsXsXsXsXsX. # ( ` ) q w 1   # 6 I _ ] _ ' ' ' ' ' [ [ ' ' ` [ ] _ R 8 #   < 9 q ) [ ) = . sXsXsXsXsXsXsXsXsX",
"sXsXsXsXsXsXsXsXsXsXsXsXsXsXsX. % 9 ) _ q 9 9 sX  . 6 I | [ [ ` ' [ ' [ [ ' ' [ [ | I 9 % . sX7 w q _ [ q # . sXsXsXsXsXsXsXsXsX",
"sXsXsXsXsXsXsXsXsXsXsXsXsXsXsXsXsX9 / ^ G , X sXsXsX. 6 I ' ] ] ' ' ' ] ] ' ' ]  .I 0 X sXsXsX% # G ^ / w sXsXsXsXsXsXsXsXsXsXsX",
"sXsXsXsXsXsXsXsXsXsXsXsXsXsXsXsXsX# o.*.D :   sXsXsX. # 6 I R ( R ( I ( I R ( R R 8 @ . sXsXsX  $ D &.o.# sXsXsXsXsXsXsXsXsXsXsX",
"sXsXsXsXsXsXsXsXsXsXsXsXsXsXsXsXsX  7.G.Q.m   sXsXsXsX    q q q q q q q q q q q q X   sXsXsXsX  s Q.G.9.  sXsXsXsXsXsXsXsXsXsXsX",
"sXsXsXsXsXsXsXsXsXsXsXsXsXsXsXsXsXsXX ; V.$.~ X sXsX  ; d X X # H G H G H H @ X X d a   sXsX  K $.G.b + sXsXsXsXsXsXsXsXsXsXsXsX",
"sXsXsXsXsXsXsXsXsXsXsXsXsXsXsXsXsXsX$ > C.O.H X sXsXX m v.s O   t c C C c t   + a w.N   sXsX  ! =.y.$   sXsXsXsXsXsXsXsXsXsXsXsX",
"sXsXsXsXsXsXsXsXsXsXsXsXsXsXsXsXsXsXS e.K.a   X sXsX  8.T.D.j   N 0.C.C.0.5.  s C.T.n.  sXsX. R ).].2 . sXsXsXsXsXsXsXsXsXsXsXsX",
"sXsXsXsXsXsXsXsXsXsXsXsXsXsXsXsXsXsXV e.K.e.>   sXsXX 8.Q.B.6.d O O & & & O s 5.B.T.n.  sXsXsX# , @ sXsXsXsXsXsXsXsXsXsXsXsXsXsX",
"sXsXsXsXsXsXsXsXsXsXsXsXsXsXsXsXsXsXV e.J.i.x   sXsX  N Z.q.7.M             m 7.q.D.8.  sXsXsX      sXsXsXsXsXsXsXsXsXsXsXsXsXsX",
"sXsXsXsXsXsXsXsXsXsXsXsXsXsXsXsXsXsXV e.K.s.6.  sXsX  a N M M M .           n M M M a   sXsXsXsXsXsXsXsXsXsXsXsXsXsXsXsXsXsXsXsX",
"sXsXsXsXsXsXsXsXsXsXsXsXsXsXsXsXsXsXsXsXS s.s.f %. X  a 7.&.F N   3 } } 5   M 8.&.8.d   } z.sXsXsXsXsXsXsXsXsXsXsXsXsXsXsXsXsXsX",
"sXsXsXsXsXsXsXsXsXsXsXsXsXsXsXsXsXsXsXsXk B.J.j ;.h.3 ; m :.A d @ T #X#XQ - a Z ;.m ; - W z.sXsXsXsXsXsXsXsXsXsXsXsXsXsXsXsXsXsX",
"sXsXsXsXsXsXsXsXsXsXsXsXsXsXsXsXsXsXsXsXz s.H.j $.k.#X5   *.:   l.z.l.j.l.x.  $ :.  = @Xl.g.l.l.l.l.sXsXsXsXsXsXsXsXsXsXsXsXsXsX",
"sXsXsXsXsXsXsXsXsXsXsXsXsXsXsXsXsXl.k.c.j s.J.6.c. X@X= . 9XO.  g.l.l.l.l.l.  k 9X+ # x.l.l.l.l.l.l.l.l.l.sXsXsXsXsXsXsXsXsXsXsX",
"sXsXsXsXsXsXsXsXsXsXsXsXsXsXsXsXsXg.k.=.C i.J.p.D X.x.v $ 4X+.@ g.l.l.l.l.l.$ T 9X: 5 z.l.l.l.l.l.l.l.l.l.l.sXsXsXsXsXsXsXsXsXsX",
"sXsXsXsXsXsXsXsXsXsXsXsXsXsXsXl.l.l.l.g. Xy.p.I.d   j.x.g.  5 #Xl.l.l.l.l.l.@Xc   W .Xg.l.l.g.l.l.l.l.l.l.l.l.sXsXsXsXsXsXsXsXsX",
"sXsXsXsXsXsXsXsXsXsXsXsXsXsXsXl.l.l.l.l.j.O.r.K.a X z.z.g.T } l.l.l.l.l.l.j.l.} T g.l.j.l.l.l.l.l.l.l.l.l.l.l.sXsXsXsXsXsXsXsXsX",
"sXsXsXsXsXsXsXsXsXsXsXsXsXsXsXl.l.l.l.j.k.o.B K.j X W } l..Xz.g.l.l.l.l.l.l.g.z..Xl.g.l.l.l.l.l.l.l.l.l.l.l.l.sXsXsXsXsXsXsXsXsX",
"sXsXsXsXsXsXsXsXsXsXsXsXsXsXsXsXsXl.l.g.j.o.B K.y.f   c .Xj.g.l.l.l.l.l.l.l.g.l.l.l.l.l.l.l.l.l.l.l.l.l.l.sXsXsXsXsXsXsXsXsXsXsX",
"sXsXsXsXsXsXsXsXsXsXsXsXsXsXsXsXsXsXsXl.k.O.B s.u.B   v .Xl.l.l.l.l.l.l.l.g.l.l.l.l.l.l.l.l.l.l.l.l.l.sXsXsXsXsXsXsXsXsXsXsXsXsX",
"sXsXsXsXsXsXsXsXsXsXsXsXsXsXsXsXsXsXsXsXk.O.B r.u.r.% T x.l.l.l.l.l.l.l.l.l.l.l.l.l.l.l.g.l.l.l.l.l.sXsXsXsXsXsXsXsXsXsXsXsXsXsX",
"sXsXsXsXsXsXsXsXsXsXsXsXsXsXsXsXsXsXsXsXsXsXsXS S Z l.l.l.l.l.l.l.l.l.l.l.l.l.l.l.l.l.l.sXsXsXsXsXsXsXsXsXsXsXsXsXsXsXsXsXsXsXsX",
"sXsXsXsXsXsXsXsXsXsXsXsXsXsXsXsXsXsXsXsXsXsXsXsXsXsXsXsXsXsXsXsXsXsXsXsXsXsXsXsXsXsXsXsXsXsXsXsXsXsXsXsXsXsXsXsXsXsXsXsXsXsXsXsX",
"sXsXsXsXsXsXsXsXsXsXsXsXsXsXsXsXsXsXsXsXsXsXsXsXsXsXsXsXsXsXsXsXsXsXsXsXsXsXsXsXsXsXsXsXsXsXsXsXsXsXsXsXsXsXsXsXsXsXsXsXsXsXsXsX",
"sXsXsXsXsXsXsXsXsXsXsXsXsXsXsXsXsXsXsXsXsXsXsXsXsXsXsXsXsXsXsXsXsXsXsXsXsXsXsXsXsXsXsXsXsXsXsXsXsXsXsXsXsXsXsXsXsXsXsXsXsXsXsXsX",
"sXsXsXsXsXsXsXsXsXsXsXsXsXsXsXsXsXsXsXsXsXsXsXsXsXsXsXsXsXsXsXsXsXsXsXsXsXsXsXsXsXsXsXsXsXsXsXsXsXsXsXsXsXsXsXsXsXsXsXsXsXsXsXsX",
"sXsXsXsXsXsXsXsXsXsXsXsXsXsXsXsXsXsXsXsXsXsXsXsXsXsXsXsXsXsXsXsXsXsXsXsXsXsXsXsXsXsXsXsXsXsXsXsXsXsXsXsXsXsXsXsXsXsXsXsXsXsXsXsX"
};
