/* XPM */
static char *result[] = {
/* columns rows colors chars-per-pixel */
"64 64 234 2 ",
"   c #010000",
".  c #0B0202",
"X  c #08080A",
"o  c #140C03",
"O  c #07140E",
"+  c #050B16",
"@  c #091515",
"#  c #161A16",
"$  c #1C1306",
"%  c #271705",
"&  c #2C0206",
"*  c #0A221C",
"=  c #1B2617",
"-  c #362504",
";  c #363C19",
":  c #051A23",
">  c #061B30",
",  c #022523",
"<  c #002A26",
"1  c #012C2C",
"2  c #082528",
"3  c #162926",
"4  c #00302E",
"5  c #18352B",
"6  c #072935",
"7  c #033233",
"8  c #093235",
"9  c #0C343B",
"0  c #05373C",
"q  c #12383D",
"w  c #142F3E",
"e  c #292B26",
"r  c #213137",
"t  c #34332D",
"y  c #6C180E",
"u  c #463607",
"i  c #533400",
"p  c #532E00",
"a  c #673610",
"s  c #4B3725",
"d  c #583A24",
"f  c #463E3C",
"g  c #603920",
"h  c #41170C",
"j  c #1F4539",
"k  c #234C3F",
"l  c #36482E",
"z  c #524314",
"x  c #66470A",
"c  c #7A4B00",
"v  c #744D06",
"b  c #7B4F1D",
"n  c #47473A",
"m  c #4E5436",
"M  c #514C2E",
"N  c #654629",
"B  c #724B25",
"V  c #63532E",
"C  c #6A6234",
"Z  c #002944",
"A  c #083945",
"S  c #123A42",
"D  c #153E4B",
"F  c #113641",
"G  c #033B54",
"H  c #3F3F4B",
"J  c #0B424A",
"K  c #13424B",
"L  c #144147",
"P  c #1A4454",
"I  c #1D4C5D",
"U  c #174551",
"Y  c #2A5546",
"T  c #234958",
"R  c #324542",
"E  c #34705C",
"W  c #1D4C63",
"Q  c #114969",
"!  c #16537B",
"~  c #0F4F61",
"^  c #214D63",
"/  c #225265",
"(  c #25546C",
")  c #2B596E",
"_  c #295972",
"`  c #2D5E7A",
"'  c #275771",
"]  c #305A68",
"[  c #397963",
"{  c #2F617D",
"}  c #32647E",
"|  c #37687C",
" . c #575A47",
".. c #51504B",
"X. c #615858",
"o. c #4A765C",
"O. c #516D57",
"+. c #686C57",
"@. c #63664E",
"#. c #507375",
"$. c #717069",
"%. c #9E2312",
"&. c #AA3319",
"*. c #9E3125",
"=. c #D23316",
"-. c #844900",
";. c #875602",
":. c #945800",
">. c #95561A",
",. c #A85719",
"<. c #976202",
"1. c #906B12",
"2. c #A96B05",
"3. c #A8730B",
"4. c #B47309",
"5. c #A87616",
"6. c #B3751A",
"7. c #AE6F11",
"8. c #885928",
"9. c #9B5824",
"0. c #87642A",
"q. c #966D26",
"w. c #B66822",
"e. c #BE7521",
"r. c #A36C27",
"t. c #D4441F",
"y. c #C0761A",
"u. c #CB7E26",
"i. c #F74D27",
"p. c #9F7645",
"a. c #837676",
"s. c #3F856E",
"d. c #3D8C74",
"f. c #3B917A",
"g. c #5B815E",
"h. c #40876F",
"j. c #408870",
"k. c #408770",
"l. c #46947A",
"z. c #48987D",
"x. c #7F806B",
"c. c #968C17",
"v. c #B98914",
"b. c #AF9532",
"n. c #A9B42D",
"m. c #CB9919",
"M. c #CF8D0E",
"N. c #E89F1B",
"B. c #DCA71B",
"V. c #D8A00E",
"C. c #FFBF0F",
"Z. c #E8AD14",
"A. c #E8B518",
"S. c #ECAC0E",
"D. c #D68C29",
"F. c #D68929",
"G. c #D49A24",
"H. c #F99D29",
"J. c #E48F28",
"K. c #CFAA31",
"L. c #E9BA21",
"P. c #E8BA27",
"I. c #FEA52A",
"U. c #F2CA0F",
"Y. c #FBEB15",
"T. c #FFFF1A",
"R. c #F6E107",
"E. c #F6C725",
"W. c #FFDA23",
"Q. c #ECC928",
"!. c #FCE822",
"~. c #FFFD29",
"^. c #FFE035",
"/. c #929356",
"(. c #BFB552",
"). c #A3A84F",
"_. c #81816C",
"`. c #909079",
"'. c #A39860",
"]. c #E3BE4F",
"[. c #C9A942",
"{. c #F7E568",
"}. c #F9F67D",
"|. c #FCF570",
" X c #E8C97E",
".X c #2B6585",
"XX c #326682",
"oX c #386C84",
"OX c #3E738A",
"+X c #3A7695",
"@X c #2B6990",
"#X c #165683",
"$X c #44778C",
"%X c #467C94",
"&X c #309481",
"*X c #4A9D81",
"=X c #4D849C",
"-X c #4D8097",
";X c #51AB8D",
":X c #52AE8F",
">X c #4F8AA4",
",X c #528AA2",
"<X c #568FA9",
"1X c #5992AC",
"2X c #5891A9",
"3X c #498EB2",
"4X c #5796B4",
"5X c #619CB8",
"6X c #3A8AC5",
"7X c #549DC2",
"8X c #63A4C2",
"9X c #91908F",
"0X c #AC9B9D",
"qX c #B7B799",
"wX c #C8B5B4",
"eX c #D0B485",
"rX c #FAF884",
"tX c #F8FA98",
"yX c #EFEE8F",
"uX c #D6CEBB",
"iX c #FFFFA6",
"pX c #F0EBA0",
"aX c #EEDEA3",
"sX c #E7D5D5",
"dX c #FFFBD7",
"fX c #DCD1E1",
"gX c #E6E6E6",
"hX c #F4EDED",
"jX c #FEFDE7",
"kX c #FFFFFF",
"lX c #F8F0F0",
"zX c #EFEEF6",
"xX c gray79",
"cX c #489848",
/* pixels */
"cXcXcXcXcXcXcXcXcXcXcXcXcXcXcXcXcXcXcXcXcXcXcXcXcXcXcXcXcXcXcXcXcXcXcXcXcXcXcXcXcXcXcXcXcXcXcXcXcXcXcXcXcXcXcXcXcXcXcXcXcXcXcXcX",
"cXcXcXcXcXcXcXcXcXcXcXcXcXcXcXcXcXcXcXcXcXcXcXcXcXcXcXcXcXcXcXcXcXcXcXcXcXcXcXcXcXcXcXcXcXcXcXcXcXcXcXcXcXcXcXcXcXcXcXcXcXcXcXcX",
"cXcXcXcXcXcXcXcXcXcXcXcXcXcXcXcXcXcXcXcXcXcXcXcXcXcXcXcXcXcXcXcXcXcXcXcXcXcXcXcXcXcXcXcXcXcXcXcXcXcXcXcXcXcXcXcXcXcXcXcXcXcXcXcX",
"cXcXcXcXcXcXcXcXcXcXcXcXcXcXcXcXcXcXcXcXcXcXcXcXcXcXcXcXcXcXcXcXcXcXcXcXcXcXcXcXcXcXcXcXcXcXcXcXcXcXcXcXcXcXcXcXcXcXcXcXcXcXcXcX",
"cXcXcXcXcXcXcXcXcXcXcXcXcXcXcXcXcXcXcXcXcXcXcXcXcXcXcXcXcXcXcXcXcXcXcXcXcXcXcXcXcXcXcXcXcXcXcXcXcXcXcXcXcXcXcXcXcXcXcXcXcXcXcXcX",
"cXcXcXcXcXcXcXcXcXcXcXcXcXcXcXcXcXcXcXcXcXcXcXcXcXcX      cXcXcXcXcXcXcXcXcXcXcXcXcXcXcXcXcXcXcXcXcXcXcXcXcXcXcXcXcXcXcXcXcXcXcX",
"cXcXcXcXcXcXcXcXcXcXcXcXcXcXcXcXcXcXcXcXcXcXcXcXcXcX  9XgX  cXcXcXcXcXcXcXcXcXcXcXcXcXcXcXcXcXcXcXcXcXcXcXcXcXcXcXcXcXcXcXcXcXcX",
"cXcXcXcXcXcXcXcXcXcXcXcXcXcXcXcXcXcXcXcXcXcXcXcXcXcX  0XkX+.r cXcXcXcXcXcXcXcXcXcXcXcXcXcXcXcXcXcXcXcXcXcXcXcXcXcXcXcXcXcXcXcXcX",
"cXcXcXcXcXcXcXcXcXcXcXcXcXcXcXcXcXcXcXcXcXcXcXcXcXcX  a.kXkX9X  cXcXcXcXcXcXcXcXcXcXcXcXcXcXcXcXcXcXcXcXcXcXcXcXcXcXcXcXcXcXcXcX",
"cXcXcXcXcXcXcXcXcXcXcXcXcXcXcXcXcXcXcXcXcXcXcXcXcXcX  $.sXkXgXxX  cXcXcXcXcXcXcXcXcXcXcXcXcXcXcXcXcXcXcXcXcXcXcXcXcXcXcXcXcXcXcX",
"cXcXcXcXcXcXcXcXcXcXcXcXcXcXcXcXcXcXcXcXcXcXcXcXcXcX  X.wXlXkXkX..H cXcXcXcXcXcXcXcXcXcXcXcXcXcXcXcXcXcXcXcXcXcXcXcXcXcXcXcXcXcX",
"cXcXcXcXcXcXcXcXcXcXcXcXcXcXcXcXcXcXcXcXcXcXcXcXcXcX  ..0XsXlXkXfXcXcXcXcXcXcXcXcXcXcXcXcXcXcXcXcXcXcXcXcXcXcXcXcXcXcXcXcXcXcXcX",
"cXcXcXcXcXcXcXcXcXcXcXcXcXcXcXcXcXcXcXcXcXcXcXcXcXcX  X.wXwXhXkXb.w.4.cXcXcXcXcXcXcXcXcXcXcXcXcXcXcXcXcXcXcXcXcXcXcXcXcXcXcXcXcX",
"cXcXcXcXcXcXcXcXcXcXcXcXcXcXcXcXcXcXcXcXcXcXcXcXcXcX  t $X0XwXaXm.M.m.cXcXcXcXcXcXcXcXcXcXcXcXcXcXcXcXcXcXcXcXcXcXcXcXcXcXcXcXcX",
"cXcXcXcXcXcXcXcXcXcXcXcXcXcXcXcXcXcXcXcXcXcXcX    .       9Xp.4.Y.~.Y.6.6.cXcXcXcXcXcXcXcXcXcXcXcXcXcXcXcXcXcXcXcXcXcXcXcXcXcXcX",
"cXcXcXcXcXcXcXcXcXcXcXcXcXcXcXcXcXcXcXcXcXcXcX  y &.%.& X q.m.A.rXrXrXP.m.6.cXcXcXcXcXcXcXcXcXcXcXcXcXcXcXcXcXcXcXcXcXcXcXcXcXcX",
"cXcXcXcXcXcXcXcXcXcXcXcXcXcXcXcXcXcXcXcXcXcXcXo *.i.*.- % 4.Z.E.}.rX}.Q.B.v.cXcXcXcXcXcXcXcXcXcXcXcXcXcXcXcXcXcXcXcXcXcXcXcXcXcX",
"cXcXcXcXcXcXcXcXcXcXcXcXcXcXcXcXcXcXcXcXcXcXcXy =.t.: ; 2.E.A.V.R.Y.!.A.L.E.<.u 1 cXcXcXcXcXcXcXcXcXcXcXcXcXcXcXcXcXcXcXcXcXcXcX",
"cXcXcXcXcXcXcXcXcXcXcXcXcXcXcXcXcXcXcXcXcXcXcX# e f +XC :.M. XdXdXrXY.E.A.m.:.z Q F 1 < cXcXcXcXcXcXcXcXcXcXcXcXcXcXcXcXcXcXcXcX",
"cXcXcXcXcXcXcXcXcXcXcXcXcXcXcXcXcXcXcXcXcXcXcXJ J ~ 3X..a :. XgXhXyXU.L.m.>.8. .@XT K L cXcXcXcXcXcXcXcXcXcXcXcXcXcXcXcXcXcXcXcX",
"cXcXcXcXcXcXcXcXcXcXcXcXcXcXcXcXcXcXcXcXcX< L 8X8X<XZ +   i :.6.2.7.5.6.:.c 1X7X2X<X<X5XK < cXcXcXcXcXcXcXcXcXcXcXcXcXcXcXcXcXcX",
"cXcXcXcXcXcXcXcXcXcXcXcXcXcXcXcXcXcXcXcXcXcXcXr 6 5 n.b.c.v.B.B.B.B.B.Q.c.% 3 T +X<X>XoXA < cXcXcXcXcXcXcXcXcXcXcXcXcXcXcXcXcXcX",
"cXcXcXcXcXcXcXcXcXcXcXcXcXcXcXcXcXcXcXcXcXcXcX  . u ~.!.E.E.L.L.L.L.Q.~.c.    : ^ $X| P 0 1 cXcXcXcXcXcXcXcXcXcXcXcXcXcXcXcXcXcX",
"cXcXcXcXcXcXcXcXcXcXcXcXcXcXcXcXcXcXcXcXcXF 0 > n.T.Z.S.S.L.L.P.L.L.L.T.c.  } T       . cXcXcXcXcXcXcXcXcXcXcXcXcXcXcXcXcXcXcXcX",
"cXcXcXcXcXcXcXcXcXcXcXcXcXcXcXcXcXcXcXS ` / K + ).}.|.{.{.L.Z.L.L.A.L.|.).@ J 6 . : 2 2 cXcXcXcXcXcXcXcXcXcXcXcXcXcXcXcXcXcXcXcX",
"cXcXcXcXcXcXcXcXcXcXcXcXcXcXcXcXcXcX9 P _ .X)   /.pXyXyXyXQ.P.P.L.L.L.iX`.* 4 , + F P K cXcXcXcXcXcXcXcXcXcXcXcXcXcXcXcXcXcXcXcX",
"cXcXcXcXcXcXcXcXcXcXcXcXcXcXcXcXcX< I ` ( =X$X  p :.c 2.B.iXiXtXA.V.Z.tX/.  , D ' ( ( ( S w cXcXcXcXcXcXcXcXcXcXcXcXcXcXcXcXcXcX",
"cXcXcXcXcXcXcXcXcXcXcXcXcXcXcXcXcX8 W ` ( -X-Xw R n ; M V b.[.].{.{.{.iX/.  ] OXOXOX$X$X/ K q cXcXcXcXcXcXcXcXcXcXcXcXcXcXcXcXcX",
"cXcXcXcXcXcXcXcXcXcXcXcXcXcXcXcXcXq / _ / %X,XXX.X! G G A p c 5.yXtXyXyX/.+ -X4X2X2X<X2XOX/ 9 cXcXcXcXcXcXcXcXcXcXcXcXcXcXcXcXcX",
"cXcXcXcXcXcXcXcXcXcXcXcXcXcXcX4 7 9 ( _ 8 | 2X2X| ' =X,X-X( K 3 c ;.;.-.C 3X_ XX,X,X=X,X1XoX1 cXcXcXcXcXcXcXcXcXcXcXcXcXcXcXcXcX",
"cXcXcXcXcXcXcXcXcXcXcXcXcXcXcX4 7 F P P 8 oX1X1XXX' ,X,X>XOXXX) +. .n @.#.4X_ | <X=X,X,X2X$XU cXcXcXcXcXcXcXcXcXcXcXcXcXcXcXcXcX",
"cXcXcXcXcXcXcXcXcXcXcXcXcXcXcX1 7 S 9 9 6 | 2X,X} ' ,X,X>X,X1X4X7X@X! 3X1X=X( } ,X,X=X,X,X%X` cXcXcXcXcXcXcXcXcXcXcXcXcXcXcXcXcX",
"cXcXcXcXcXcXcXcXcXcXcXcXcXcXcX0 0 S S 9 < I ` XXL q <X,X,X=X=X,X<XOX' 1X%X( S P XX=X,X=X,X=X2XL * cXcXcXcXcXcXcXcXcXcXcXcXcXcXcX",
"cXcXcXcXcXcXcXcXcXcXcXcXcXcXcX@ , S S 0 < I _ P U I OX-X,X,X,X,X1XXXD OXXX( S S K %X<X>X,X,X1XP 1 cXcXcXcXcXcXcXcXcXcXcXcXcXcXcX",
"cXcXcXcXcXcXcXcXcXcXcXcXcXcXcX. X D j 9 < W _ 8 W { I OX2X=X,X=X1X) 1 ^ ( _ D 7 , $X2X=X=X=X<XT 9 cXcXcXcXcXcXcXcXcXcXcXcXcXcXcX",
"cXcXcXcXcXcXcXcXcXcXcXcXcXcXcXcXcX0 q.q.6 A P ( ( _ ' _ ) { _ _ { _ / q P } D 8 1 / $X5X} _ ` K 9 cXcXcXcXcXcXcXcXcXcXcXcXcXcXcX",
"cXcXcXcXcXcXcXcXcXcXcXcXcXcXcXcXcX: b 3.z 3 6 _ _ ' ' ' ) ( ' ) ( ' ' P P T S 9 < K ' %X{ / ' L 8 cXcXcXcXcXcXcXcXcXcXcXcXcXcXcX",
"cXcXcXcXcXcXcXcXcXcXcXcXcXcXcXcXcX  i c :.% + ' _ _ ' ' ' ' ' ' ' ' ' } I 8 S 9 4 7 D ( ' _ _ 0 < cXcXcXcXcXcXcXcXcXcXcXcXcXcXcX",
"cXcXcXcXcXcXcXcXcXcXcXcXcXcXcXcXcX  1 A S @ X D / } ' ' ) _ ' ' ' ) ' } W S @ X X , L } ! ! #XA < cXcXcXcXcXcXcXcXcXcXcXcXcXcXcX",
"cXcXcXcXcXcXcXcXcXcXcXcXcXcXcXcXcX  M  .R @   2 D / ' ) ' ' ) _ ' ) ' / D 2 X   X , 0 W O.@.@.q 1 cXcXcXcXcXcXcXcXcXcXcXcXcXcXcX",
"cXcXcXcXcXcXcXcXcXcXcXcXcXcXcXcXcX  6.H.B cXcX. : G ' ' ' ' ) _ _ _ _ D :       cXcXcX0 5.M.M.l 6 cXcXcXcXcXcXcXcXcXcXcXcXcXcXcX",
"cXcXcXcXcXcXcXcXcXcXcXcXcXcXcX  o s u.D.N cXcX  1.K.X > G U G Z A , @ + - v o   cXcXcXx V.C.C.:.z cXcXcXcXcXcXcXcXcXcXcXcXcXcXcX",
"cXcXcXcXcXcXcXcXcXcXcXcXcXcXcX  $ 8.F.F.N cXcX  v.!.i M l 2 t m m =     - <.o   cXcX- ;.b.(.(.1.c cXcXcXcXcXcXcXcXcXcXcXcXcXcXcX",
"cXcXcXcXcXcXcXcXcXcXcXcXcXcXcX  % w.D.D.N cXcX  c.~.W.N.6.  x N.S.v     - <.o   cX  % :.$X6X6XC ;.cXcXcXcXcXcXcXcXcXcXcXcXcXcXcX",
"cXcXcXcXcXcXcXcXcXcXcXcXcXcXcXs B J.r.B cXcXcX  c.W.E.V.7.  x N.- o       $ cXcXcX  3 #.` ` XXe o cXcXcXcXcXcXcXcXcXcXcXcXcXcXcX",
"cXcXcXcXcXcXcXcXcXcXcXcXcXcXcXN 0.I.8.s cXcXcX  1.E.K.K.0.  u 1.      e #   cXcXcX  + W ( ( _ :   cXcXcXcXcXcXcXcXcXcXcXcXcXcXcX",
"cXcXcXcXcXcXcXcXcXcXcXcXcXcXcXd 8.H.8.d cXcXcX  c.W.9X$...X     cXcX  qX+.  cXcXcXcXcX  ^ XXXX3 . cXcXcXcXcXcXcXcXcXcXcXcXcXcXcX",
"cXcXcXcXcXcXcXcXcXcXcXcXcXcXcX9.r.I.>.g cXcXj.[ ; u 9Xx. .  5 [ :XY   # .   h.l.k.;XE cX+ + + cXcXcXcXcXcXcXcXcXcXcXcXcXcXcXcXcX",
"cXcXcXcXcXcXcXcXcXcXcXcXcXcXcX>.u.J.8. .cXd.j.;X,   `._. .  Y ;Xz.Y * O @ * [ j.j.j.h.cX5 O # cXcXcXcXcXcXcXcXcXcXcXcXcXcXcXcXcX",
"cXcXcXcXcXcXcXcXcXcXcXcXcXcX  6.H.w.+.&Xd.s.k.z.3 . 9X_. .  j *Xj.j.l.l.z.z.j.h.j.j.j.j.l.l.l.cXcXcXcXcXcXcXcXcXcXcXcXcXcXcXcXcX",
"cXcXcXcXcXcXcXcXcXcXcXcXcXcX  6.J.a o.f.s.j.j.*X3   +.+. .  j *Xj.j.j.j.j.j.j.j.j.j.j.j.j.j.j.j.j.j.cXcXcXcXcXcXcXcXcXcXcXcXcXcX",
"cXcXcXcXcXcXcXcXcXcXcXcXcXcXo e.F.d o.f.d.j.j.*X3 . $.`.$.  j *Xj.j.j.j.j.j.j.h.j.j.j.j.j.j.j.j.j.j.cXcXcXcXcXcXcXcXcXcXcXcXcXcX",
"cXcXcXcXcXcXcXcXcXcXcXcX  # N D.D.d o.f.j.j.j.*X* . uXjXjX  5 *Xj.j.j.j.j.h.j.j.j.j.j.j.j.j.j.j.k.j.j.h.cXcXcXcXcXcXcXcXcXcXcXcX",
"cXcXcXcXcXcXcXcXcXcXcXcX  % 9.u.w.g o.f.j.j.j.j.E k t n ..Y E l.j.j.j.j.j.j.j.j.j.j.j.h.s.j.j.j.j.j.j.j.cXcXcXcXcXcXcXcXcXcXcXcX",
"cXcXcXcXcXcXcXcXcXcXcXcXX % y.9.8.V o.f.j.j.j.s.z.j.      z.l.s.j.j.j.j.h.j.j.h.j.j.j.j.j.h.j.k.j.j.j.j.cXcXcXcXcXcXcXcXcXcXcXcX",
"cXcXcXcXcXcXcXcXcXcXcXcXcXcXB g V f.j.j.j.j.j.j.j.j.l.j.j.d.s.j.j.j.j.j.j.j.j.j.j.j.h.j.j.j.j.j.j.h.cXcXcXcXcXcXcXcXcXcXcXcXcXcX",
"cXcXcXcXcXcXcXcXcXcXcXcXcXcXcXcXV f.j.k.k.j.j.k.j.j.j.j.j.j.j.j.h.j.j.h.j.j.k.j.j.j.k.j.j.h.j.j.cXcXcXcXcXcXcXcXcXcXcXcXcXcXcXcX",
"cXcXcXcXcXcXcXcXcXcXcXcXcXcXcXcXcXd.j.d.j.j.j.j.j.j.j.j.j.j.j.j.j.j.j.j.j.j.j.j.j.j.j.j.j.j.j.cXcXcXcXcXcXcXcXcXcXcXcXcXcXcXcXcX",
"cXcXcXcXcXcXcXcXcXcXcXcXcXcXcXcXcXcXcXcXcXcXcXj.j.j.j.j.s.j.j.j.j.j.j.j.j.j.s.j.j.cXcXcXcXcXcXcXcXcXcXcXcXcXcXcXcXcXcXcXcXcXcXcX",
"cXcXcXcXcXcXcXcXcXcXcXcXcXcXcXcXcXcXcXcXcXcXcXcXcXcXcXcXcXcXcXcXcXcXcXcXcXcXcXcXcXcXcXcXcXcXcXcXcXcXcXcXcXcXcXcXcXcXcXcXcXcXcXcX",
"cXcXcXcXcXcXcXcXcXcXcXcXcXcXcXcXcXcXcXcXcXcXcXcXcXcXcXcXcXcXcXcXcXcXcXcXcXcXcXcXcXcXcXcXcXcXcXcXcXcXcXcXcXcXcXcXcXcXcXcXcXcXcXcX",
"cXcXcXcXcXcXcXcXcXcXcXcXcXcXcXcXcXcXcXcXcXcXcXcXcXcXcXcXcXcXcXcXcXcXcXcXcXcXcXcXcXcXcXcXcXcXcXcXcXcXcXcXcXcXcXcXcXcXcXcXcXcXcXcX",
"cXcXcXcXcXcXcXcXcXcXcXcXcXcXcXcXcXcXcXcXcXcXcXcXcXcXcXcXcXcXcXcXcXcXcXcXcXcXcXcXcXcXcXcXcXcXcXcXcXcXcXcXcXcXcXcXcXcXcXcXcXcXcXcX",
"cXcXcXcXcXcXcXcXcXcXcXcXcXcXcXcXcXcXcXcXcXcXcXcXcXcXcXcXcXcXcXcXcXcXcXcXcXcXcXcXcXcXcXcXcXcXcXcXcXcXcXcXcXcXcXcXcXcXcXcXcXcXcXcX"
};
