/* XPM */
static char *result[] = {
/* columns rows colors chars-per-pixel */
"64 64 231 2 ",
"   c #010000",
".  c #0B0302",
"X  c #0A090B",
"o  c #070909",
"O  c #120B07",
"+  c #1C1302",
"@  c #19130B",
"#  c #040A12",
"$  c #041513",
"%  c #061B1A",
"&  c #121414",
"*  c #01120F",
"=  c #271803",
"-  c #261616",
";  c #08201B",
":  c #1F2F1F",
">  c #25231C",
",  c #332C10",
"<  c #010723",
"1  c #071D23",
"2  c #041A3A",
"3  c #002523",
"4  c #002925",
"5  c #012C2C",
"6  c #07262A",
"7  c #132B28",
"8  c #00302F",
"9  c #052C32",
"0  c #042935",
"q  c #023233",
"w  c #0A3136",
"e  c #0D343B",
"r  c #08383C",
"t  c #11343D",
"y  c #14373D",
"u  c #1A2937",
"i  c #3B3C38",
"p  c #2E3B35",
"a  c #483507",
"s  c #543804",
"d  c #43300A",
"f  c #603700",
"g  c #563C28",
"h  c #423F38",
"j  c #49372A",
"k  c #3F411F",
"l  c #284C3F",
"z  c #314D35",
"x  c #59450C",
"c  c #524D15",
"v  c #624704",
"b  c #7A4803",
"n  c #7A5405",
"m  c #77461A",
"M  c #694D12",
"N  c #5A4829",
"B  c #505230",
"V  c #6A4A2B",
"C  c #665831",
"Z  c #74522B",
"A  c #5F7D2C",
"S  c #6D662B",
"D  c #0E3B43",
"F  c #043445",
"G  c #123A43",
"H  c #183C4B",
"J  c #003655",
"K  c #002844",
"L  c #14424D",
"P  c #18434B",
"I  c #1A4453",
"U  c #1D495A",
"Y  c #174553",
"T  c #0B4157",
"R  c #285648",
"E  c #244759",
"W  c #214E50",
"Q  c #316A57",
"!  c #336C59",
"~  c #1B4C62",
"^  c #18547C",
"/  c #154B69",
"(  c #214E63",
")  c #235165",
"_  c #25546C",
"`  c #28576F",
"'  c #2B5B6B",
"]  c #285966",
"[  c #295A72",
"{  c #2D5E79",
"}  c #265671",
"|  c #305F77",
" . c #397864",
".. c #2E617A",
"X. c #31637C",
"o. c #396679",
"O. c #585C47",
"+. c #545252",
"@. c #4A534E",
"#. c #4D684F",
"$. c #546348",
"%. c #596B5A",
"&. c #656A4C",
"*. c #686857",
"=. c #76784E",
"-. c #587168",
";. c #737778",
":. c #6B6F64",
">. c #864B00",
",. c #894E00",
"<. c #8B5400",
"1. c #975C00",
"2. c #824918",
"3. c #AF5413",
"4. c #9C6500",
"5. c #906C15",
"6. c #AB7507",
"7. c #B87909",
"8. c #AA6918",
"9. c #A77114",
"0. c #B27717",
"q. c #AE6415",
"w. c #835326",
"e. c #95712A",
"r. c #AB6F26",
"t. c #AE7429",
"y. c #C9790E",
"u. c #C77A26",
"i. c #3F866E",
"p. c #3E8A73",
"a. c #3F8771",
"s. c #3A927C",
"d. c #43846C",
"f. c #40886F",
"g. c #408870",
"h. c #46967B",
"j. c #46957B",
"k. c #BB8B14",
"l. c #B1922F",
"z. c #A09C30",
"x. c #C88517",
"c. c #D39C1D",
"v. c #CF9310",
"b. c #E5920B",
"n. c #C6A51E",
"m. c #DAA71D",
"M. c #CBBF15",
"N. c #E3A908",
"B. c #E5AE15",
"V. c #E8B519",
"C. c #F1B11A",
"Z. c #C28029",
"A. c #EC9728",
"S. c #F59E2A",
"D. c #E48E26",
"F. c #D9B730",
"G. c #FBA525",
"H. c #EABB21",
"J. c #E8B923",
"K. c #FFAC30",
"L. c #FFC50F",
"P. c #F1D018",
"I. c #FFFA19",
"U. c #FDEC15",
"Y. c #FBC923",
"T. c #FDD726",
"R. c #ECC732",
"E. c #FDE922",
"W. c #FFFB25",
"Q. c #FFFF30",
"!. c #CFCC25",
"~. c #A6824A",
"^. c #898A75",
"/. c #8E8D73",
"(. c #C6964A",
"). c #CEB04D",
"_. c #C1BE6C",
"`. c #E1B653",
"'. c #FFF45B",
"]. c #D1D172",
"[. c #F1DA60",
"{. c #F7E76A",
"}. c #FFFE7C",
"|. c #F6EA73",
" X c #EBCA41",
".X c #195885",
"XX c #366A85",
"oX c #3F738B",
"OX c #39748E",
"+X c #336B8A",
"@X c #42758B",
"#X c #447A93",
"$X c #467C94",
"%X c #877E91",
"&X c #3D82AA",
"*X c #329D8A",
"=X c #4A9C81",
"-X c #4E869E",
";X c #4B8197",
":X c #648681",
">X c #4DA387",
",X c #51AB8D",
"<X c #4785A2",
"1X c #528AA3",
"2X c #508FAE",
"3X c #5691AA",
"4X c #5A94AD",
"5X c #5896B4",
"6X c #5FA0BD",
"7X c #61A2BF",
"8X c #2D8BD4",
"9X c #66A4C2",
"0X c #51A3D4",
"qX c #B09F9F",
"wX c #B0A791",
"eX c #978886",
"rX c #CAD68E",
"tX c #EBED8F",
"yX c #FCFB8B",
"uX c #F2ED9A",
"iX c #F6F897",
"pX c #FDFEAB",
"aX c #F8F1B7",
"sX c #D0CCCC",
"dX c #E6DBDF",
"fX c #FFFAD6",
"gX c #F4EDED",
"hX c #FAF8E7",
"jX c white",
"kX c #FAF6F6",
"lX c None",
/* pixels */
"lXlXlXlXlXlXlXlXlXlXlXlXlXlXlXlXlXlXlXlXlXlXlXlXlXlXlXlXlXlXlXlXlXlXlXlXlXlXlXlXlXlXlXlXlXlXlXlXlXlXlXlXlXlXlXlXlXlXlXlXlXlXlXlX",
"lXlXlXlXlXlXlXlXlXlXlXlXlXlXlXlXlXlXlXlXlXlXlXlXlXlXlXlXlXlXlXlXlXlXlXlXlXlXlXlXlXlXlXlXlXlXlXlXlXlXlXlXlXlXlXlXlXlXlXlXlXlXlXlX",
"lXlXlXlXlXlXlXlXlXlXlXlXlXlXlXlXlXlXlXlXlXlXlXlXlXlXlXlXlXlXlXlXlXlXlXlXlXlXlXlXlXlXlXlXlXlXlXlXlXlXlXlXlXlXlXlXlXlXlXlXlXlXlXlX",
"lXlXlXlXlXlXlXlXlXlXlXlXlXlXlXlXlXlXlXlXlXlXlXlXlXlXlXlXlXlXlXlXlXlXlXlXlXlXlXlXlXlXlXlXlXlXlXlXlXlXlXlXlXlXlXlXlXlXlXlXlXlXlXlX",
"lXlXlXlXlXlXlXlXlXlXlXlXlXlXlXlXlXlXlXlXlXlXlXlXlXlXlXlXlXlXlXlXlXlXlXlXlXlXlXlXlXlXlXlXlXlXlXlXlXlXlXlXlXlXlXlXlXlXlXlXlXlXlXlX",
"lXlXlXlXlXlXlXlXlXlXlXlXlXlXlXlXlXlXlXlXlXlXlXlXlXlXlXlXlXlXlXlXlXlXlXlXlXlXlXlXlXlXlXlXlXlXlXlXlXlXlXlXlXlXlXlXlXlXlXlXlXlXlXlX",
"lXlXlXlXlXlXlXlXlXlXlXlXlXlXlXlXlXlXlXlXlXlXlXlXlXlXlXlXlXlXlXlXlXlXlXlXlXlXlXlXlXlXlXlXlXlXlXlXlXlXlXlXlXlXlXlXlXlXlXlXlXlXlXlX",
"lXlXlXlXlXlXlXlXlXlXlXlXlXlXlXlXlXlXlXlXlXlXlXlXlXlXlXlXlXlXlXlXlXlXlXlXlXlXlXlXlXlXlXlXlXlXlXlXlXlXlXlXlXlXlXlXlXlXlXlXlXlXlXlX",
"lXlXlXlXlXlXlXlXlXlXlXlXlXlXlXlXlXlXlXlXlXlXlXlXlXlXlXlXlXlXlXlXlXlXlXlXlXlXlXlXlXlXlXlXlXlXlXlXlXlXlXlXlXlXlXlXlXlXlXlXlXlXlXlX",
"lXlXlXlXlXlXlXlXlXlXlXlXlXlXlXlXlXlXlXlXlXlXlXlX      lXlXlXlXlXlXlXlXlXlXlXlXlXlXlXlXlXlXlXlXlXlXlXlXlXlXlXlXlXlXlXlXlXlXlXlXlX",
"lXlXlXlXlXlXlXlXlXlXlXlXlXlXlXlXlXlXlXlXlXlXlXlX  +.@.lXlXlXlXlXlXlXlXlXlXlXlXlXlXlXlXlXlXlXlXlXlXlXlXlXlXlXlXlXlXlXlXlXlXlXlXlX",
"lXlXlXlXlXlXlXlXlXlXlXlXlXlXlXlXlXlXlXlXlXlXlXlX  jXsX  lXlXlXlXlXlXlXlXlXlXlXlXlXlXlXlXlXlXlXlXlXlXlXlXlXlXlXlXlXlXlXlXlXlXlXlX",
"lXlXlXlXlXlXlXlXlXlXlXlXlXlXlXlXlXlXlXlXlXlXlXlX  sXgXsX< . y.0.0.lXlXlXlXlXlXlXlXlXlXlXlXlXlXlXlXlXlXlXlXlXlXlXlXlXlXlXlXlXlXlX",
"lXlXlXlXlXlXlXlXlXlXlXlXlXlXlXlXlXlXlXlXlXlXlXlX  qXkXjXB d m.n.n.lXlXlXlXlXlXlXlXlXlXlXlXlXlXlXlXlXlXlXlXlXlXlXlXlXlXlXlXlXlXlX",
"lXlXlXlXlXlXlXlXlXlXlXlXlXlXlXlXlXlXlXlXlXlXlXlX# eXdXjX(.N.W.I.P.8.lXlXlXlXlXlXlXlXlXlXlXlXlXlXlXlXlXlXlXlXlXlXlXlXlXlXlXlXlXlX",
"lXlXlXlXlXlXlXlXlXlXlXlXlXlXlXlXlXlXlXlXlXlXlXlX  eXwXZ.n.F.yXyX|.m.k.0.lXlXlXlXlXlXlXlXlXlXlXlXlXlXlXlXlXlXlXlXlXlXlXlXlXlXlXlX",
"lXlXlXlXlXlXlXlXlXlXlXlXlXlXlXlXlXlXlXlXlXlXlXlXo :.~.y.N.R.iXyX{.V.c.k.lXlXlXlXlXlXlXlXlXlXlXlXlXlXlXlXlXlXlXlXlXlXlXlXlXlXlXlX",
"lXlXlXlXlXlXlXlXlXlXlXlXlXlXlXlXlXlXlXlXlXlXlXlX5 s 6.Y.J.P.U.U.U.N.Y.m.b : 6 lXlXlXlXlXlXlXlXlXlXlXlXlXlXlXlXlXlXlXlXlXlXlXlXlX",
"lXlXlXlXlXlXlXlXlXlXlXlXlXlXlXlXlXlXlXlXlX3 9 G / v 4.c.J.Y.I.aXfXfX`.7.,.-.OXw 5 4 lXlXlXlXlXlXlXlXlXlXlXlXlXlXlXlXlXlXlXlXlXlX",
"lXlXlXlXlXlXlXlXlXlXlXlXlXlXlXlXlXlXlXlXr L P ] +XN 5.9.c.J.P.aXgXgX(.1.s -.&XY Y D lXlXlXlXlXlXlXlXlXlXlXlXlXlXlXlXlXlXlXlXlXlX",
"lXlXlXlXlXlXlXlXlXlXlXlXlXlXlXlXlXlXlX3 ] 9X3X3X4X0X:X>.8.0.9.6.6.6.,.d   # J 7X9X3X5 8 lXlXlXlXlXlXlXlXlXlXlXlXlXlXlXlXlXlXlXlX",
"lXlXlXlXlXlXlXlXlXlXlXlXlXlXlXlXlXlXlX4 Y OX4X-XXXH > = n.P.c.m.m.m.v.k.k.z.z.2 u y lXlXlXlXlXlXlXlXlXlXlXlXlXlXlXlXlXlXlXlXlXlX",
"lXlXlXlXlXlXlXlXlXlXlXlXlXlXlXlXlXlXlX5 D U @Xo.I #     !.W.V.R.R.V.Y.Y.Y.W.E.+ .   lXlXlXlXlXlXlXlXlXlXlXlXlXlXlXlXlXlXlXlXlXlX",
"lXlXlXlXlXlXlXlXlXlXlXlXlXlXlXlXlXlXlXlXlX.   . . { (   M.E.J.H.V.J.J.V.B.N.V.I.A 2 w lXlXlXlXlXlXlXlXlXlXlXlXlXlXlXlXlXlXlXlXlX",
"lXlXlXlXlXlXlXlXlXlXlXlXlXlXlXlXlXlXlXlXlX6 7 % . D D % ].'.B.H.V.V.B.J.|.{.|.}.S # ~ } } e lXlXlXlXlXlXlXlXlXlXlXlXlXlXlXlXlXlX",
"lXlXlXlXlXlXlXlXlXlXlXlXlXlXlXlXlXlXlXlXlXL Y e X 3 9 1 rXyXB.V.J.R.R.K.iXtXtXuXN   +X{ _ H w lXlXlXlXlXlXlXlXlXlXlXlXlXlXlXlXlX",
"lXlXlXlXlXlXlXlXlXlXlXlXlXlXlXlXlXlXlXw L } _ _ ` r 1   ].}.N.N.R.pXpXtXv.4.b 1.= # 3XXX_ { L 3 lXlXlXlXlXlXlXlXlXlXlXlXlXlXlXlX",
"lXlXlXlXlXlXlXlXlXlXlXlXlXlXlXlXlXlXG H [ #XoXoXoXoXE   rXyX[.{.[.).).z.N k p O.p H 3XoX_ { Y q lXlXlXlXlXlXlXlXlXlXlXlXlXlXlXlX",
"lXlXlXlXlXlXlXlXlXlXlXlXlXlXlXlXlXD G ` @X4X1X3X3X6Xo.# ].tXuXpX].1.b d F F J .X.XoX3Xo.~ ..U t lXlXlXlXlXlXlXlXlXlXlXlXlXlXlXlX",
"lXlXlXlXlXlXlXlXlXlXlXlXlXlXlXlXlXlXt $X1X1X-X1X1X[ X.3Xn >.<.,.v 0 I ..1X1X$X_ oX3X4X] w X.U w 9 q lXlXlXlXlXlXlXlXlXlXlXlXlXlX",
"lXlXlXlXlXlXlXlXlXlXlXlXlXlXlXlXlXlXU ;X1X1X1X1X1X[ X.5X-.+.B $.*.[ XX@X1X3X-X_ @X4X4X] 9 U L t 8 q lXlXlXlXlXlXlXlXlXlXlXlXlXlX",
"lXlXlXlXlXlXlXlXlXlXlXlXlXlXlXlXlX~ XX-X1X1X-X-X-X` X.1X5X$X.X&X5X4X4X1X1X1X$X( @X1X4X' 9 e t t q 8 lXlXlXlXlXlXlXlXlXlXlXlXlXlX",
"lXlXlXlXlXlXlXlXlXlXlXlXlXlXlXlX; ] 4X-X-X1X3X@X{ D L { 1X1X_ $X3X1X-X1X-X4X;X5 ) +X{ L 5 D y t r q lXlXlXlXlXlXlXlXlXlXlXlXlXlX",
"lXlXlXlXlXlXlXlXlXlXlXlXlXlXlXlX4 ' 4X1X1X-X4XoXG D H } oXX.H #X3X1X1X-X3X$Xo.I Y U { D 3 D G e ; % lXlXlXlXlXlXlXlXlXlXlXlXlXlX",
"lXlXlXlXlXlXlXlXlXlXlXlXlXlXlXlX9 | 3X-X-X1X4X..% q H { _ U 5 @X3X-X-X-X1XX.~ XXH w { L 5 G G t . . lXlXlXlXlXlXlXlXlXlXlXlXlXlX",
"lXlXlXlXlXlXlXlXlXlXlXlXlXlXlXlXe U X._ @X4X+XU 5 w I XXG D ` [ [ { [ { { [ } } ` _ Y q 9 x.B r lXlXlXlXlXlXlXlXlXlXlXlXlXlXlXlX",
"lXlXlXlXlXlXlXlXlXlXlXlXlXlXlXlXw L { ) X.#X( H 5 w L ~ L U { ` _ ` ` ` _ ` [ ` { _ 1 > c 7.c 1 lXlXlXlXlXlXlXlXlXlXlXlXlXlXlXlX",
"lXlXlXlXlXlXlXlXlXlXlXlXlXlXlXlX3 L { [ _ ( G 9 8 t y w ` { ` ` [ ` ` } ` ` ` [ { (   s 1.<.=   lXlXlXlXlXlXlXlXlXlXlXlXlXlXlXlX",
"lXlXlXlXlXlXlXlXlXlXlXlXlXlXlXlX4 T .X^ ^ | r 3 o o 6 L ` { ` ` ` ` [ ` } [ [ ..~ G . 7 I W %   lXlXlXlXlXlXlXlXlXlXlXlXlXlXlXlX",
"lXlXlXlXlXlXlXlXlXlXlXlXlXlXlXlX5 l *.&.Q U r % . . X 6 I _ [ [ ` [ ` ` [ } ` ( t % . % 0 9 p +.lXlXlXlXlXlXlXlXlXlXlXlXlXlXlXlX",
"lXlXlXlXlXlXlXlXlXlXlXlXlXlXlXlX0 N b.b.S 0 lXlXlX      6 Y ..[ [ ` ` [ { { _ q $ X lXX .   ;.kXlXlXlXlXlXlXlXlXlXlXlXlXlXlXlXlX",
"lXlXlXlXlXlXlXlXlXlXlXlXlXlXlXlXa k.L.L.k.x lXlXlX  = n @ $ % 0 F J L L J < & F.a   lXlXlXlXlXlXlXlXlXlXlXlXlXlXlXlXlXlXlXlXlXlX",
"lXlXlXlXlXlXlXlXlXlXlXlXlXlXlXlXb e.)._.l.b lXlXlX  = 4.+     , B B 7 6 B d n E.x   lXlXlXlXlXlXlXlXlXlXlXlXlXlXlXlXlXlXlXlXlXlX",
"lXlXlXlXlXlXlXlXlXlXlXlXlXlXlXlX>.%.8X8X-.>.O o lX  = 4.+     9.B.b.= . x.H.E.Q.M   lXlXlXlXlXlXlXlXlXlXlXlXlXlXlXlXlXlXlXlXlXlX",
"lXlXlXlXlXlXlXlXlXlXlXlXlXlXlXlX. V `.Z @.o.&   lXlXlX+       + a G.= O x.N.C.T.c   lXlXlXlXlXlXlXlXlXlXlXlXlXlXlXlXlXlXlXlXlXlX",
"lXlXlXlXlXlXlXlXlXlXlXlXlXlXlXlXO 2.S.2.i T   lXlXlXlX  > >       9.+ O l.l.F.Y.x   lXlXlXlXlXlXlXlXlXlXlXlXlXlXlXlXlXlXlXlXlXlX",
"lXlXlXlXlXlXlXlXlXlXlXlXlXlX  o g r.A.w.,   lXlXlXlXlX  wX^.  lXlX    & %.$X_.Y.x   lXlXlXlXlXlXlXlXlXlXlXlXlXlXlXlXlXlXlXlXlXlX",
"lXlXlXlXlXlXlXlXlXlXlXlXlXlX    m u.S.w., lXg.=Xi.=XQ   @ X .  .>X .$ O *.^.^.d z  .h.lXlXlXlXlXlXlXlXlXlXlXlXlXlXlXlXlXlXlXlXlX",
"lXlXlXlXlXlXlXlXlXlXlXlXlXlX@ - r.u.u.C #.lXf.f.f.j.Q % $ $ % ! h.,X% . *./.;.  W ,Xg.g.lXlXlXlXlXlXlXlXlXlXlXlXlXlXlXlXlXlXlXlX",
"lXlXlXlXlXlXlXlXlXlXlXlXlXlXV Z A.r.j p.j.g.g.g.g.a.g.h.j.h.h.g.d.h.% . *./.^.  R =Xg.f.g.g.g.g.lXlXlXlXlXlXlXlXlXlXlXlXlXlXlXlX",
"lXlXlXlXlXlXlXlXlXlXlXlXlXlXlXV A.r.N -.p.a.g.g.g.g.g.g.f.g.g.g.g.h.% . &.:.O.  R h.g.g.g.g.g.g.g.g.g.lXlXlXlXlXlXlXlXlXlXlXlXlX",
"lXlXlXlXlXlXlXlXlXlXlXlXlXlX$.2.D.r.N d.p.p.g.g.g.g.g.g.f.f.f.g.g.h.$ O ^.^.*.  R =Xg.f.g.g.f.f.g.g.g.lXlXlXlXlXlXlXlXlXlXlXlXlX",
"lXlXlXlXlXlXlXlXlXlXlXlXlX*X=.3.S.r.g d.p.g.g.f.g.g.d.g.g.g.g.g.g.h.. - kXhXwX  l >Xi.i.g.g.g.a.g.g.g.f.g.lXlXlXlXlXlXlXlXlXlXlX",
"lXlXlXlXlXlXlXlXlXlXlXlXlX7 Z A.u.e.#.d.p.g.f.f.g.g.g.g.g.g.g.g.g.j.Q R @.B i R  .p.i.p.g.f.g.g.g.g.g.g.g.lXlXlXlXlXlXlXlXlXlXlX",
"lXlXlXlXlXlXlXlXlXlXlXlXlX  >.K.3.&.*Xp.f.g.f.f.g.g.g.g.g.g.g.g.g.i.>X .    * >Xj.i.g.f.f.f.f.g.g.p.f.g.g.lXlXlXlXlXlXlXlXlXlXlX",
"lXlXlXlXlXlXlXlXlXlXlXlXlX  m K.g $.s.g.g.g.g.g.g.g.g.g.g.g.g.g.f.g.g.g.g.j.g.i.i.g.g.g.f.f.f.g.g.g.g.lXlXlXlXlXlXlXlXlXlXlXlXlX",
"lXlXlXlXlXlXlXlXlXlXlX  . > 8.S.m #.*Xs.i.i.g.g.g.f.g.g.f.f.g.g.g.g.g.g.g.g.g.g.g.g.g.g.g.g.g.g.lXlXlXlXlXlXlXlXlXlXlXlXlXlXlXlX",
"lXlXlXlXlXlXlXlXlXlXlX  o V t.D.m #.p.-.p.i.g.g.g.f.f.g.f.f.g.g.g.g.g.g.g.g.g.g.g.g.f.g.f.f.g.g.lXlXlXlXlXlXlXlXlXlXlXlXlXlXlXlX",
"lXlXlXlXlXlXlXlXlXlXlX  O 3.r.q.V C lXlXlXlXlXlXg.g.g.g.f.f.g.g.g.g.g.g.g.g.p.f.g.g.lXlXlXlXlXlXlXlXlXlXlXlXlXlXlXlXlXlXlXlXlXlX",
"lXlXlXlXlXlXlXlXlXlXlXlXlXw.w.w.lXlXlXlXlXlXlXlXlXlXlXlXlXlXlXlXlXlXlXlXlXlXlXlXlXlXlXlXlXlXlXlXlXlXlXlXlXlXlXlXlXlXlXlXlXlXlXlX",
"lXlXlXlXlXlXlXlXlXlXlXlXlXV N V lXlXlXlXlXlXlXlXlXlXlXlXlXlXlXlXlXlXlXlXlXlXlXlXlXlXlXlXlXlXlXlXlXlXlXlXlXlXlXlXlXlXlXlXlXlXlXlX",
"lXlXlXlXlXlXlXlXlXlXlXlXlXlXlXlXlXlXlXlXlXlXlXlXlXlXlXlXlXlXlXlXlXlXlXlXlXlXlXlXlXlXlXlXlXlXlXlXlXlXlXlXlXlXlXlXlXlXlXlXlXlXlXlX",
"lXlXlXlXlXlXlXlXlXlXlXlXlXlXlXlXlXlXlXlXlXlXlXlXlXlXlXlXlXlXlXlXlXlXlXlXlXlXlXlXlXlXlXlXlXlXlXlXlXlXlXlXlXlXlXlXlXlXlXlXlXlXlXlX",
"lXlXlXlXlXlXlXlXlXlXlXlXlXlXlXlXlXlXlXlXlXlXlXlXlXlXlXlXlXlXlXlXlXlXlXlXlXlXlXlXlXlXlXlXlXlXlXlXlXlXlXlXlXlXlXlXlXlXlXlXlXlXlXlX"
};
