/* XPM */
static char *result[] = {
/* columns rows colors chars-per-pixel */
"64 64 239 2 ",
"   c #010001",
".  c #0A0201",
"X  c #00030B",
"o  c #0A0B0C",
"O  c #060B09",
"+  c #140A05",
"@  c #1B1302",
"#  c #000113",
"$  c #0B0E11",
"%  c #0A1213",
"&  c #021D1B",
"*  c #0C1B1C",
"=  c #071516",
"-  c #101211",
";  c #280902",
":  c #241703",
">  c #31120D",
",  c #00221E",
"<  c #11231D",
"1  c #3B2907",
"2  c #2D2F19",
"3  c #081D24",
"4  c #001F3B",
"5  c #022524",
"6  c #022A2B",
"7  c #082727",
"8  c #122728",
"9  c #0A2E33",
"0  c #062B35",
"q  c #033434",
"w  c #0A3137",
"e  c #0D353B",
"r  c #07383B",
"t  c #13373C",
"y  c #102C30",
"u  c #3B3535",
"i  c #292C29",
"p  c #52130D",
"a  c #6E1910",
"s  c #4A3704",
"d  c #5A3903",
"f  c #4A2C13",
"g  c #633D00",
"h  c #693B00",
"j  c #762E16",
"k  c #553D28",
"l  c #423B3B",
"z  c #54382F",
"x  c #673837",
"c  c #384535",
"v  c #244C3E",
"b  c #59490A",
"n  c #534214",
"m  c #684503",
"M  c #754901",
"N  c #6A4916",
"B  c #755A0E",
"V  c #57442D",
"C  c #4F4D32",
"Z  c #664829",
"A  c #735328",
"S  c #6A6A34",
"D  c #70671C",
"F  c #0E3B42",
"G  c #013748",
"H  c #173A47",
"J  c #05324E",
"K  c #043F66",
"L  c #413E40",
"P  c #15414C",
"I  c #18434D",
"U  c #194454",
"Y  c #1A475D",
"T  c #1E4B5D",
"R  c #164654",
"E  c #0A4A5D",
"W  c #2A5B4C",
"Q  c #254C5B",
"!  c #2D5053",
"~  c #35715D",
"^  c #2E6654",
"/  c #1D4D62",
"(  c #11486F",
")  c #125078",
"_  c #214E64",
"`  c #235365",
"'  c #24536A",
"]  c #29596B",
"[  c #295972",
"{  c #295A74",
"}  c #325968",
"|  c #377863",
" . c #2E617D",
".. c #2F6170",
"X. c #31637B",
"o. c #376879",
"O. c #34616E",
"+. c #1E6170",
"@. c #4F5452",
"#. c #655951",
"$. c #5A6147",
"%. c #4A6C53",
"&. c #5C6855",
"*. c #666A56",
"=. c #6E6F4F",
"-. c #415F61",
";. c #4A716A",
":. c #646868",
">. c #787072",
",. c #756F6F",
"<. c #851916",
"1. c #8B2715",
"2. c #A22717",
"3. c #B72E17",
"4. c #9E2B1B",
"5. c #C3341D",
"6. c #CE2A0F",
"7. c #D13E20",
"8. c #885700",
"9. c #8F5609",
"0. c #966807",
"q. c #916A13",
"w. c #B87A05",
"e. c #AC7117",
"r. c #B37A17",
"t. c #A96C0B",
"y. c #8F5626",
"u. c #95692B",
"i. c #A76B27",
"p. c #B67328",
"a. c #B4523D",
"s. c #F1471C",
"d. c #E74B23",
"f. c #CA7824",
"g. c #D17E23",
"h. c #DC6C17",
"j. c #8A7878",
"k. c #907E7E",
"l. c #3E856E",
"z. c #3F8972",
"x. c #3B8F79",
"c. c #3B927B",
"v. c #41876F",
"b. c #408870",
"n. c #4D8F74",
"m. c #45957B",
"M. c #46957B",
"N. c #508E70",
"B. c #7F8272",
"V. c #BB8219",
"C. c #B58910",
"Z. c #B49739",
"A. c #A18C3A",
"S. c #C38918",
"D. c #CA971A",
"F. c #D6941E",
"G. c #CD8409",
"H. c #E9980F",
"J. c #DBB31B",
"K. c #E3A908",
"L. c #E6B31C",
"P. c #E9B61E",
"I. c #F1B013",
"U. c #D28D2A",
"Y. c #EB9829",
"T. c #F19928",
"R. c #D6AE24",
"E. c #EABA21",
"W. c #EABE2A",
"Q. c #F4B02A",
"!. c #F6D81B",
"~. c #F3C015",
"^. c #FFE51F",
"/. c #CEC524",
"(. c #ECC328",
"). c #F6D52D",
"_. c #FCE82B",
"`. c #FEF82C",
"'. c #FFFF30",
"]. c #898876",
"[. c #C59D53",
"{. c #C3BF69",
"}. c #F2D547",
"|. c #FFFF4C",
" X c #FAEF50",
".X c #F7ED73",
"XX c #F7D86B",
"oX c #135482",
"OX c #3A6D85",
"+X c #376B86",
"@X c #3D728A",
"#X c #3B7386",
"$X c #306F8F",
"%X c #266F9F",
"&X c #41758C",
"*X c #44788F",
"=X c #457C94",
"-X c #447B94",
";X c #379580",
":X c #4A9D81",
">X c #4D859C",
",X c #4A8296",
"<X c #51879D",
"1X c #508A9E",
"2X c #4EA487",
"3X c #53A88A",
"4X c #4F89A3",
"5X c #538CA4",
"6X c #558FA9",
"7X c #5690A8",
"8X c #5993AD",
"9X c #5D9AB4",
"0X c #5997B4",
"qX c #488DB5",
"wX c #629CB7",
"eX c #64A0BD",
"rX c #61A2C0",
"tX c #968787",
"yX c #A79898",
"uX c #B09E9E",
"iX c #A08E8E",
"pX c #AAAA95",
"aX c #BAA8A8",
"sX c #B7B5B5",
"dX c #CAB9B9",
"fX c #F2EC8A",
"gX c #F7F999",
"hX c #FCF483",
"jX c #FFFFA8",
"kX c #FDFFB3",
"lX c #D4D797",
"zX c #DAC9C9",
"xX c #D8D9D0",
"cX c #EAE4E4",
"vX c #F5EAEA",
"bX c #FDFEFE",
"nX c #FBF6E7",
"mX c #E4D1D1",
"MX c #489848",
/* pixels */
"MXMXMXMXMXMXMXMXMXMXMXMXMXMXMXMXMXMXMXMXMXMXMXMXMXMXMXMXMXMXMXMXMXMXMXMXMXMXMXMXMXMXMXMXMXMXMXMXMXMXMXMXMXMXMXMXMXMXMXMXMXMXMXMX",
"MXMXMXMXMXMXMXMXMXMXMXMXMXMXMXMXMXMXMXMXMXMXMXMXMXMXMXMXMXMXMXMXMXMXMXMXMXMXMXMXMXMXMXMXMXMXMXMXMXMXMXMXMXMXMXMXMXMXMXMXMXMXMXMX",
"MXMXMXMXMXMXMXMXMXMXMXMXMXMXMXMXMXMXMXMXMXMXMXMXMXMXMXMXMXMXMXMXMXMXMXMXMXMXMXMXMXMXMXMXMXMXMXMXMXMXMXMXMXMXMXMXMXMXMXMXMXMXMXMX",
"MXMXMXMXMXMXMXMXMXMXMXMXMXMXMXMXMXMXMXMXMXMXMXMXMXMXMXMXMXMXMXMXMXMXMXMXMXMXMXMXMXMXMXMXMXMXMXMXMXMXMXMXMXMXMXMXMXMXMXMXMXMXMXMX",
"MXMXMXMXMXMXMXMXMXMXMXMXMXMXMXMXMXMXMXMXMXMXMXMXMXMXMXMXMXMXMXMXMXMXMXMXMXMXMXMXMXMXMXMXMXMXMXMXMXMXMXMXMXMXMXMXMXMXMXMXMXMXMXMX",
"MXMXMXMXMXMXMXMXMXMXMXMXMXMXMXMXMXMXMXMXMXMXMXMXMXMXMXMXMXMXMXMXMXMXMXMXMXMXMXMXMXMXMXMXMXMXMXMXMXMXMXMXMXMXMXMXMXMXMXMXMXMXMXMX",
"MXMXMXMXMXMXMXMXMXMXMXMXMXMXMXMXMXMXMXMXMXMXMXMXMXMXMXMXMXMXMXMXMXMXMXMXMXMXMXMXMXMXMXMXMXMXMXMXMXMXMXMXMXMXMXMXMXMXMXMXMXMXMXMX",
"MXMXMXMXMXMXMXMXMXMXMXMXMXMXMXMXMXMXMXMXMXMXMXMXMXMXMXMXMXMXMXMXMXMXMXMXMXMXMXMXMXMXMXMXMXMXMXMXMXMXMXMXMXMXMXMXMXMXMXMXMXMXMXMX",
"MXMXMXMXMXMXMXMXMXMXMXMXMXMX        MXMXMXMXMXMXMXMXMXMXMXMXMXMXMXMXMXMXMXMXMXMXMXMXMXMXMXMXMXMXMXMXMXMXMXMXMXMXMXMXMXMXMXMXMXMX",
"MXMXMXMXMXMXMXMXMXMXMXMXMX  :.xXo   MXMXMXMXMXMXMXMXMXMXMXMXMXMXMXMXMXMXMXMXMXMXMXMXMXMXMXMXMXMXMXMXMXMXMXMXMXMXMXMXMXMXMXMXMXMX",
"MXMXMXMXMXMXMXMXMXMXMXMXMX@.sXbX-   MXMXMXMXMXMXMXMXMXMXMXMXMXMXMXMXMXMXMXMXMXMXMXMXMXMXMXMXMXMXMXMXMXMXMXMXMXMXMXMXMXMXMXMXMXMX",
"MXMXMXMXMXMXMXMXMXMXMX  o bXbXzXo   MXMXMXMXMXMXMXMXMXMXMXMXMXV.r.r.MXMXMXMXMXMXMXMXMXMXMXMXMXMXMXMXMXMXMXMXMXMXMXMXMXMXMXMXMXMX",
"MXMXMXMXMXMXMXMXMXMX  :.xXbXcXaXo   MXMXMXMXMXMXMXMXMXMXMXMXe.J.!.!.S.e.MXMXMXMXMXMXMXMXMXMXMXMXMXMXMXMXMXMXMXMXMXMXMXMXMXMXMXMX",
"MXMXMXMXMXMXMXMXMXMXu sXbXbXzXtXo   MXMXMXMXMXMXMXMXMXMXMXV.S.).|.|.R.V.MXMXMXMXMXMXMXMXMXMXMXMXMXMXMXMXMXMXMXMXMXMXMXMXMXMXMXMX",
"MXMXMXMXMXMXMXMXMXMXdXcXbXvXdX,.o   MXMXMXMXMXMXMXMXMXMXe.D.~.fXkXkX}.K.r.MXMXMXMXMXMXMXMXMXMXMXMXMXMXMXMXMXMXMXMXMXMXMXMXMXMXMX",
"MXMXMXMXMXMXMXMX    cXbXvXdXdXtXo MXMXMXMXMXMXMXMXMXMXm D.(.J._._.`.(.J.(.0.M MXMXMXMXMXMXMXMXMXMXMXMXMXMXMXMXMXMXMXMXMXMXMXMXMX",
"MXMXMXMXMXMXMXMX$ u bXbXcXdXtX#.o   MXMXMXMXMXMXMXMX2 M R.E.I._. X X(.L.P.t.d MXMXMXMXMXMXMXMXMXMXMXMXMXMXMXMXMXMXMXMXMXMXMXMXMX",
"MXMXMXMXMXMXMXMX#.j.bXcXzXyXu             MXMXMXMX0 2 8.e.D.I.nXbXbXXXK.V.0.m 6 MXMXMXMXMXMXMXMXMXMXMXMXMXMXMXMXMXMXMXMXMXMXMXMX",
"MXMXMXMXMXMXMXMX,.tXbXvXzXuXl   a 1.4.    MXMXMX6 H Q -.N 0.D.[.[.[.U.C.8.C } / r 5 MXMXMXMXMXMXMXMXMXMXMXMXMXMXMXMXMXMXMXMXMXMX",
"MXMXMXMXMXMXMXMXtXyXbXvXmXuXl   4.7.d.; % MXMXe r { +X( B 0.S.w.w.C.S.V.0.! ) @XR q MXMXMXMXMXMXMXMXMXMXMXMXMXMXMXMXMXMXMXMXMXMX",
"MXMXMXMXMXMXMXMXj.yXbXvXmXyXl   1.3.s.2.f 6 6 H { 0X;.  /.`.L.E.P.(.P.~.'.b X wX@XT w 6 , MXMXMXMXMXMXMXMXMXMXMXMXMXMXMXMXMXMXMX",
"MXMXMXMXMXMXMXMXj.yXbXcXdXuX@.  5.3.<.; u $X@X-X>X-XY X /._.L.E.P.P.P.(.`.b X +X=X,X&X@Xo.o MXMXMXMXMXMXMXMXMXMXMXMXMXMXMXMXMXMX",
"MXMXMXMXMXMXMXMXj.yXbXdXtXyXL   7.2.p . H 0X4X>X,X] H 2 /._.E.E.E.P.P.(.`.D 8 U o.4X>X5X*Xo   MXMXMXMXMXMXMXMXMXMXMXMXMXMXMXMXMX",
"MXMXMXMXMXMXMXMXj.yXbX:.  ,.y   a 4.3.. = F w 6 &   C kXW.K.E.E.P.P.P.L.K..XlX  = 5 9 e 9 . MXMXMXMXMXMXMXMXMXMXMXMXMXMXMXMXMXMX",
"MXMXMXMXMXMXMXMXiXtX&.x <.a.4.j ; > l * e ` U ` o.X C kXfX}.L.L.L.L.K.W..XgXlX  I OXQ Q T 3 9 F MXMXMXMXMXMXMXMXMXMXMXMXMXMXMXMX",
"MXMXMXMXMXMXMXMXaXk.  p 5.6.d.d.  3 E R `  .{ *XeX# n fXgXXXE.W.(.(.E.}.gXfX{.  o.rXX.{ { U U H MXMXMXMXMXMXMXMXMXMXMXMXMXMXMXMX",
"MXMXMXMXMXMXMXMXMXMX      <.s.I.7 ' 8X7X@X' >X5X6XX + 8.w.Q.kXjXjXjXkXhXG.0.d   ! 9X6X+X] 4X5X>Xw MXMXMXMXMXMXMXMXMXMXMXMXMXMXMX",
"MXMXMXMXMXMXMXMXMXMX  > j 6.y.Z O.@X6X7X@X' >X5X5X} -.:.$.=.Z.Z.Z.Z.Z.A.S *.:.! &X6X6XOX[ <X5X>X#XQ 9 MXMXMXMXMXMXMXMXMXMXMXMXMX",
"MXMXMXMXMXMXMXMXMXMX  p 5.s.z J 7X7X<X7X@X_ ,X5X<X9X0XqX%XU h g g g g n oX%X0X0X6X>X6Xo.` >X<X5XwXo.w MXMXMXMXMXMXMXMXMXMXMXMXMX",
"MXMXMXMXMXMXMXMXMXMXMX  . 6.#.) >X5X>X9Xo.0 >X8X<X5X-X_ -X4X<X<X<X<X<X<X4X+X{ 5X4X4XwX] e 6X6X<X7X@X/ MXMXMXMXMXMXMXMXMXMXMXMXMX",
"MXMXMXMXMXMXMXMXMXMXMXu u p @.,X1X5X>X-X] 9 X.=X5X7X*X_ =X6X4X4X4X4X4X4X7XX.{ 5X5X>X-XQ e OX=X6X5X=X+Xq MXMXMXMXMXMXMXMXMXMXMXMX",
"MXMXMXMXMXMXMXMXMXMXMXj.,.3 +.9X4X1X4X[ U e Y X.6X5X&X_ =X6X4X5X<X4X5X<X6XX.' 4X4X>X' H e Y OX7X<X6X6Xr 5 MXMXMXMXMXMXMXMXMXMXMX",
"MXMXMXMXMXMXMXMXMXMXMXMXMX0 ..8X4X5X7XP F F / @X9X@X/ 6 *X9X6X6X7X6X6X6XwXQ w { >X7X{ Y F w o.9X>X5X>XH 9 MXMXMXMXMXMXMXMXMXMXMX",
"MXMXMXMXMXMXMXMXMXMXMXMXMX6 ..9X5X,X+XH y 3 _ X.&X/ H R o.&X@X@XOX@X@X@X&X` H U X.@X{ H 3 9 ] -X5X5X4XF 6 MXMXMXMXMXMXMXMXMXMXMX",
"MXMXMXMXMXMXMXMXMXMXMXMXMX, ] 8X7X+XY P 3 . _ { ' w H +X' ' ` _ ' ' _ _ ` { { 9 U ' +X8   e R [ ,X5X>Xq 5 MXMXMXMXMXMXMXMXMXMXMX",
"MXMXMXMXMXMXMXMXMXMXMXMXMX  H $X .T e r 3 . t / +X' ` [ [ [ [ [ [ ] [ [ [ [ [ ' { [ R 3 . 6 r H [  .X.= . MXMXMXMXMXMXMXMXMXMXMX",
"MXMXMXMXMXMXMXMXMXMXMXMXMX  y ` [ T w q & . * t / [ { ' [ [ [ [ [ [ [ [ ' [ ' { ] U 7 % . 6 r H ] ` U o   MXMXMXMXMXMXMXMXMXMXMX",
"MXMXMXMXMXMXMXMXMXMXMXMXMX. * H { T w q MXMX  % F _ { [ [ [ ' [ ] [ [ [ [ [ { { U 7 . MXMXq q F { Y 6 o . MXMXMXMXMXMXMXMXMXMXMX",
"MXMXMXMXMXMXMXMXMXMXMXMXMXMX5 G oXE 0 $ $ MXMXo o e / { { { { { { { { { { { [ R 7 . MXMXMXO 6 J oXE q MXMXMXMXMXMXMXMXMXMXMXMXMX",
"MXMXMXMXMXMXMXMXMXMXMXMXMXMXMX7 &.$.S o . MXMXMX. * H ` / Q _ Q Q T / Q _ _ T 7 % . MXMXMX  2 S =.c 3 MXMXMXMXMXMXMXMXMXMXMXMXMX",
"MXMXMXMXMXMXMXMXMXMXMXMXMXMX  + w.I.!.@   MXMXMXMX  = F e e w w e 9 e e e F 9   MXMXMXMXMX  q.^.I.M   MXMXMXMXMXMXMXMXMXMXMXMXMX",
"MXMXMXMXMXMXMXMXMXMXMXMXMXMXMXMX+ N F.o.H . MXMX  d 1 # o 3 G G G J J 0 o # X m :   MXMX- ( u.H.> o MXMXMXMXMXMXMXMXMXMXMXMXMXMX",
"MXMXMXMXMXMXMXMXMXMXMXMXMXMXMXMXo N F.Q y   MXMX  0.q.1 . - c c C C c i   : g C.1   MX. % oX*.u.X MXMXMXMXMXMXMXMXMXMXMXMXMXMXMX",
"MXMXMXMXMXMXMXMXMXMXMXMXMXMXMXMXZ p.T..   % MXMX. R.~.F.+ . 0.G.F.F.w.m   9.Q._.b   MX. % ..oX) % . MXMXMXMXMXMXMXMXMXMXMXMXMXMX",
"MXMXMXMXMXMXMXMXMXMXMXMXMXMXMXMXk i.Y.Z >   MXMX  R.E.S.M s @ : : : @ : b 0.F._.b . MXMXMX* 3 * MXMXMXMXMXMXMXMXMXMXMXMXMXMXMXMX",
"MXMXMXMXMXMXMXMXMXMXMXMXMXMXMXMXk i.T.i.f X MXMX  C.D.t.0.d           + 8.0.e.J.s   MXMXMX. .   MXMXMXMXMXMXMXMXMXMXMXMXMXMXMXMX",
"MXMXMXMXMXMXMXMXMXMXMXMXMXMXMXMXk i.T.g.f X MXMX  d M M 8.d           @ 8.M M 8.: X MXMXMXMXMXMXMXMXMXMXMXMXMXMXMXMXMXMXMXMXMXMX",
"MXMXMXMXMXMXMXMXMXMXMXMXMXMXMXMXMXA y.U.i.f 3X^   m q.*.q.d   v ~ | = . 9.S S 9.:   M.MXMXMXMXMXMXMXMXMXMXMXMXMXMXMXMXMXMXMXMXMX",
"MXMXMXMXMXMXMXMXMXMXMXMXMXMXMXMXMXMXV T.p.Z n.^ < s N :.N s < | 2X2Xv - g $.*.m 2 8 b.b.MXMXMXMXMXMXMXMXMXMXMXMXMXMXMXMXMXMXMXMX",
"MXMXMXMXMXMXMXMXMXMXMXMXMXMXMXMXMXMXZ Y.i.k ;.m.M.O - ,.  & 2Xz.z.z.M.~   @.$.  W 3Xb.b.b.b.b.b.MXMXMXMXMXMXMXMXMXMXMXMXMXMXMXMX",
"MXMXMXMXMXMXMXMXMXMXMXMXMXMXMXb.;X&.j Y.f.y.;.;Xz.  i xX+ O M.b.v.b.M.~   ].pX  v :Xz.v.b.b.v.b.b.b.b.MXMXMXMXMXMXMXMXMXMXMXMXMX",
"MXMXMXMXMXMXMXMXMXMXMXMXMXMXb.b.;X%.Z U.U.e.%.| m.< u lXi 7 M.b.b.b.M.~ < >.pX< W m.v.b.b.b.z.v.b.b.b.MXMXMXMXMXMXMXMXMXMXMXMXMX",
"MXMXMXMXMXMXMXMXMXMXMXMXMXb.b.b.b.x.b.u.f.Y.. 7 M.2XW   ~ 2Xb.b.b.v.v.b.2XO   M.z.l.b.b.b.b.b.b.b.b.b.b.b.MXMXMXMXMXMXMXMXMXMXMX",
"MXMXMXMXMXMXMXMXMXMXMXMXMXb.b.b.b.b.b.Z i.T.. 6 2Xm.| W l.b.b.b.v.z.b.b.n.^ W z.z.z.b.b.b.b.v.z.b.b.b.b.b.MXMXMXMXMXMXMXMXMXMXMX",
"MXMXMXMXMXMXMXMXMXMXMXMXMXb.b.b.b.b.| C i.T.> 7 l.l.b.M.b.l.b.b.v.z.b.b.b.M.M.v.b.b.b.b.b.b.b.b.b.b.b.b.b.MXMXMXMXMXMXMXMXMXMXMX",
"MXMXMXMXMXMXMXMXMXMXMXMXMXMXb.v.b.b.b.k i.T.y.1   ~ M.b.l.b.b.b.b.b.b.b.b.b.b.b.b.b.b.b.v.z.v.b.b.b.b.MXMXMXMXMXMXMXMXMXMXMXMXMX",
"MXMXMXMXMXMXMXMXMXMXMXMXMXMXMXMXMXz.v.V y.U.p.f   ~ M.b.b.v.b.b.b.b.b.b.b.b.b.b.b.b.b.b.b.z.b.b.MXMXMXMXMXMXMXMXMXMXMXMXMXMXMXMX",
"MXMXMXMXMXMXMXMXMXMXMXMXMXMXMXMXMXMXv.V y.y.p.N % ~ m.b.z.b.b.b.b.b.b.b.b.b.b.b.b.b.v.b.b.v.b.b.MXMXMXMXMXMXMXMXMXMXMXMXMXMXMXMX",
"MXMXMXMXMXMXMXMXMXMXMXMXMXMXMXMXMXMXMXMXMXZ j $.c.z.b.b.v.b.b.b.b.b.b.b.b.b.b.z.b.b.MXMXMXMXMXMXMXMXMXMXMXMXMXMXMXMXMXMXMXMXMXMX",
"MXMXMXMXMXMXMXMXMXMXMXMXMXMXMXMXMXMXMXMXMXMXMXMXMXMXMXMXMXMXMXMXMXMXMXMXMXMXMXMXMXMXMXMXMXMXMXMXMXMXMXMXMXMXMXMXMXMXMXMXMXMXMXMX",
"MXMXMXMXMXMXMXMXMXMXMXMXMXMXMXMXMXMXMXMXMXMXMXMXMXMXMXMXMXMXMXMXMXMXMXMXMXMXMXMXMXMXMXMXMXMXMXMXMXMXMXMXMXMXMXMXMXMXMXMXMXMXMXMX",
"MXMXMXMXMXMXMXMXMXMXMXMXMXMXMXMXMXMXMXMXMXMXMXMXMXMXMXMXMXMXMXMXMXMXMXMXMXMXMXMXMXMXMXMXMXMXMXMXMXMXMXMXMXMXMXMXMXMXMXMXMXMXMXMX",
"MXMXMXMXMXMXMXMXMXMXMXMXMXMXMXMXMXMXMXMXMXMXMXMXMXMXMXMXMXMXMXMXMXMXMXMXMXMXMXMXMXMXMXMXMXMXMXMXMXMXMXMXMXMXMXMXMXMXMXMXMXMXMXMX",
"MXMXMXMXMXMXMXMXMXMXMXMXMXMXMXMXMXMXMXMXMXMXMXMXMXMXMXMXMXMXMXMXMXMXMXMXMXMXMXMXMXMXMXMXMXMXMXMXMXMXMXMXMXMXMXMXMXMXMXMXMXMXMXMX"
};
