/* XPM */
static char *result[] = {
/* columns rows colors chars-per-pixel */
"66 72 236 2 ",
"   c #000001",
".  c #080905",
"X  c #150906",
"o  c #0A1807",
"O  c #15110B",
"+  c #161615",
"@  c #0A0E14",
"#  c #25040A",
"$  c #32050A",
"%  c #380613",
"&  c #38111A",
"*  c #2F140D",
"=  c #062A06",
"-  c #023413",
";  c #083316",
":  c #183818",
">  c #122E11",
",  c #242603",
"<  c #3C230F",
"1  c #2C321D",
"2  c #3C1421",
"3  c #162226",
"4  c #292929",
"5  c #2C2823",
"6  c #393939",
"7  c #30322B",
"8  c #4C0B1B",
"9  c #550A19",
"0  c #471619",
"q  c #43110A",
"w  c #641412",
"e  c #731017",
"r  c #4D3111",
"t  c #693916",
"y  c #70351E",
"u  c #7A1128",
"i  c #781029",
"p  c #5C3A3C",
"a  c #49352F",
"s  c #71302A",
"d  c #06571E",
"f  c #1F5618",
"g  c #0D4914",
"h  c #29591E",
"j  c #067403",
"k  c #057716",
"l  c #1A6D15",
"z  c #326B1D",
"x  c #364636",
"c  c #196527",
"v  c #137C29",
"b  c #2E772C",
"n  c #145828",
"m  c #68441E",
"M  c #7A471A",
"N  c #56721E",
"B  c #6B6800",
"V  c #48453A",
"C  c #574426",
"Z  c #7C5439",
"A  c #7A4D29",
"S  c #58762A",
"D  c #4A6B24",
"F  c #657127",
"G  c #393455",
"H  c #5A3F41",
"J  c #4E3B69",
"K  c #4E4E4C",
"L  c #454146",
"P  c #5A4C48",
"I  c #585757",
"U  c #645958",
"Y  c #6E5E4E",
"T  c #50674D",
"R  c #7E7948",
"E  c #6E6A4C",
"W  c #656866",
"Q  c #797778",
"!  c #66746D",
"~  c #88011A",
"^  c #86122B",
"/  c #93132D",
"(  c #AA182D",
")  c #AC2021",
"_  c #CE2528",
"`  c #DA282A",
"'  c #FC2F2F",
"]  c #825614",
"[  c #8B7E17",
"{  c #8E582E",
"}  c #935F2C",
"|  c #97693D",
" . c #8C584E",
".. c #917753",
"X. c #A87A4A",
"o. c #B27854",
"O. c #A07657",
"+. c #847662",
"@. c #C17E41",
"#. c #088104",
"$. c #14990B",
"%. c #2B9317",
"&. c #32971A",
"*. c #229700",
"=. c #0CAE07",
"-. c #34BD1F",
";. c #36B410",
":. c #14812A",
">. c #158A2D",
",. c #0C9A24",
"<. c #228028",
"1. c #358924",
"2. c #259629",
"3. c #349B2A",
"4. c #3A9629",
"5. c #389B37",
"6. c #2A923C",
"7. c #3DA529",
"8. c #39B62C",
"9. c #459416",
"0. c #788900",
"q. c #65AA1B",
"w. c #4D8525",
"e. c #419D28",
"r. c #43962A",
"t. c #599632",
"y. c #43A228",
"u. c #45A829",
"i. c #48A437",
"p. c #61B03D",
"a. c #11CE10",
"s. c #2ACB1A",
"d. c #28C918",
"f. c #31D719",
"g. c #17EB0D",
"h. c #03FE03",
"j. c #0CFD06",
"k. c #0FFA08",
"l. c #03F70A",
"z. c #12F50A",
"x. c #10F908",
"c. c #16F808",
"v. c #1DE411",
"b. c #03EA02",
"n. c #25E314",
"m. c #2BF412",
"M. c #3ACA24",
"N. c #52F00B",
"B. c #7CFA05",
"V. c #3B8A4D",
"C. c #4E8E52",
"Z. c #4A9C62",
"A. c #6A8E6A",
"S. c #6FAA71",
"D. c #698E5C",
"F. c #4DE744",
"G. c #8F8F00",
"H. c #AF9A14",
"J. c #9FBE11",
"K. c #A58335",
"L. c #B58935",
"P. c #BDA32D",
"I. c #B1B218",
"U. c #CDB50F",
"Y. c #C1AD17",
"T. c #D1B336",
"R. c #F1BC3B",
"E. c #A3F705",
"W. c #D7C51A",
"Q. c #D0CD07",
"!. c #E6DD14",
"~. c #CBF400",
"^. c #EDEA04",
"/. c #EEF802",
"(. c #FEFE00",
"). c #F5F603",
"_. c #FDF613",
"`. c #F3E813",
"'. c #F4ED23",
"]. c #EDCA33",
"[. c #968359",
"{. c #B48A45",
"}. c #AD8C58",
"|. c #B58551",
" X c #B49249",
".X c #8BAE4D",
"XX c #938E6B",
"oX c #AA9772",
"OX c #B89577",
"+X c #B28B6F",
"@X c #88BE66",
"#X c #B4AA7C",
"$X c #CDA94C",
"%X c #D6A74F",
"&X c #D3A850",
"*X c #EAB349",
"=X c #C8A976",
"-X c #93C66F",
";X c #FEFD74",
":X c #E3D356",
">X c #2A4BFA",
",X c #666ED1",
"<X c #7AB389",
"1X c #938286",
"2X c #B59482",
"3X c #BBA98D",
"4X c #CDB38C",
"5X c #D1AE8D",
"6X c #C9AFAA",
"7X c #9FCC90",
"8X c #B4F69D",
"9X c #A3EA89",
"0X c #9FDA88",
"qX c #DEDC9B",
"wX c #E1C39A",
"eX c #F2E783",
"rX c #D8C5AA",
"tX c #E6CAA8",
"yX c #FBD9AB",
"uX c #F8DBB5",
"iX c #E9D7AA",
"pX c #CDFEB5",
"aX c #CEFDAC",
"sX c #FDE4B8",
"dX c #87A4FF",
"fX c #B2B8EC",
"gX c #D3BDC9",
"hX c #E4BEC6",
"jX c #FDEDC5",
"kX c #FFF6C9",
"lX c #FFF9D5",
"zX c #ECFFD4",
"xX c #FFFFFC",
"cX c #FFFAE5",
"vX c #C5D0D0",
"bX c None",
/* pixels */
"bXbXbXbXbXbXbXbXbXbXbXbXbXbXbXbXbXbXbXbXbXbXbXbXbXbXbXbXbXbXbXbXbXbXbXbXbXbXbXbXbXbXbXbXbXbXbXbXbXbXbXbXbXbXbXbXbXbXbXbXbXbXbXbXbXbX",
"bXbXbXbXbXbXbXbXbXbXbXbXbXbXbXbXbXbXbXbXbXbXbXbXbXbXbXbXbXbXbXbXbXbXbXbXbXbXbXbXbXbXbXbXbXbXbXbXbXbXbXbXbXbXbXbXbXbXbXbXbXbXbXbXbXbX",
"bXbXbXbXbXbXbXbXbXbXbXbXbXbXbXbXbXbXbXbXbXbXbXbXbXbXbXbXbXbXbXbXbXbXbXbXbXbXbXbXbXbXbXbXbXbXbXbXbXbXbXbXbXbXbXbXbXbXbXbXbXbXbXbXbXbX",
"bXbXbXbXbXbXbXbXbXbXbXbXbXbXbXbXbXbXbXbXbXbXbXbXbXbXbXbXbXbXbXbXbXbXbXbXbXbXbXbXbXbXbXbXbXbXbXbXbXbXbXbXbXbXbXbXbXbXbXbXbXbXbXbXbXbX",
"bXbXbXbXbXbXbXbXbXbXbXbXbXbXbXbXbXbXbXbXbXbXbXbXbXbXbXbXbXbXbXbXbXbXbXbXbXbXbXbXbXbXbXbXbXbXbXbXbXbXbXbXbXbXbXbXbXbXbXbXbXbXbXbXbXbX",
"bXbXbXbXbXbXbXbXbXbXbXbXbXbXbXbXbXbXbXbXbXbXbXbXbXbXbXbXbXbXbXbXbXbXbXbXbXbXbXbXbXbXbXbXbXbXbXbXbXbXbXbXbXbXbXbXbXbXbXbXbXbXbXbXbXbX",
"bXbXbXbXbXbXbXbXbXbXbXbXbXbXbXbXbXbXbXbXbXbXbXbXbXbXbXbXbXbXbXbXbXbXbXbXbXbXbXbXbXbXbXbXbXbXbXbXbXbXbXbXbXbXbXbXbXbXbXbXbXbXbXbXbXbX",
"bXbXbXbXbXbXbXbXbXbXbXbXbXbXbXbXbXbXbXbXbXbXbXbXbXbXbXbXbXbXbXbXbXbXbXbXbXbXbXbXbXbXbXbXbXbXbXbXbXbXbXbXbXbXbXbXbXbXbXbXbXbXbXbXbXbX",
"bXbXbXbXbXbXbXbXbXbXbXbXbXbXbXbXbXbXbXbXbXbXbXbXbXbXbXbXbXbXbXbXbXbXbXbXbXbXbXbXbXbXbXbXbXbXbXbXbXbXbXbXbXbXbXbXbXbXbXbXbXbXbXbXbXbX",
"bXbXbXbXbXbXbXbXbXbXbXbXbXbXbXbXbXbXbXbXbXbXbXbXbXbXbXbXbXbXbXbXbXbXbXbXbXbXbXbXbXbXbXbXbXbXbXbXbXbXbXbXbXbXbXbXbXbXbXbXbXbXbXbXbXbX",
"bXbXbXbXbXbXbXbXbXbXbXbXbXbXbXbXbXbXbXbXbXbXbXbXbXbXbXbXbXbXbXbXbXbXbXbXbXbXbXbXbXbXbXbXbXbXbXbXbXbXbXbXbXbXbXbXbXbXbXbXbXbXbXbXbXbX",
"bXbXbXbXbXbXbXbXbXbXbXbXbXbXbXbXbXbXbXbXbXbXbXbXbXbXbXbXbXbXbXbXbXbXbXbXbXbXbXbXbXbXbXbXbXbXbXbXbXbXbXbXbXbXbXbXbXbXbXbXbXbXbXbXbXbX",
"bXbXbXbXbXbXbXbXbXbXbXbXbXbXbXbXbXbXbXbXbXbXbXbXbXbXbXbXbXbXbXbXbXbXbXbXbXbXbXbXbXbXbXbXbXbXbXbXbXbXbXbXbXbXbXbXbXbXbXbXbXbXbXbXbXbX",
"bXbXbXbXbXbXbXbXbXbXbXbXbXbXbXbXbXbXbXbXbXbXbXbXbXbXbXbXbXbXbXbXbXbXbXbXbXbXbXbXbXbXbXbXbXbXbXbXbXbXbXbXbXbXbXbXbXbXbXbXbXbXbXbXbXbX",
"bXbXbXbXbXbXbXbXbXbXbXbXbXbXbXbXbXbXbXbXbXbXbXbXbXbXbXbXbXbXbXbXbXbXbXbXbXbXbXbXbXbXbXbXbXbXbXbXbXbXbXbXbXbXbXbXbXbXbXbXbXbXbXbXbXbX",
"bXbXbXbXbXbXbXbXbXbXbXbXbXbXbXbXbXbXbXbXbXbXbXbXbXbXbXbXbXbXbXbXbXbXbXbXbXbXbXbXbXbXbXbXbXbXbXbXbXbXbXbXbXbXbXbXbXbXbXbXbXbXbXbXbXbX",
"bXbXbXbXbXbXbXbXbXbXbXbXbXbXbXbXbXbXbXbXbXbXbXbXbXbXbXbXbXbXbXbXbXbXbXbXbXbXbXbXbXbXbXbXbXbXbXbXbXbXbXbXbXbXbXbXbXbXbXbXbXbXbXbXbXbX",
"bXbXbXbXbXbXbXbXbXbXbXbXbXbXbXbXbXbXbXbXbXbXbXbXbXbXbXbXbXbXbXbXbXbXbXbXbXbXbXbXbXbXbXbXbXbXbXbXbXbXbXbXbXbXbXbXbXbXbXbXbXbXbXbXbXbX",
"bXbXbXbXbXbXbXbXbXbXbXbXbXbXbXbXbXbXbXbXbXbXbXbXbXbXbXbXbXbXbXbXbXbXbXbXbXbXbXbXbXbXbXbXbXbXbXbXbXbXbXbXbXbXbXbXbXbXbXbXbXbXbXbXbXbX",
"bXbXbXbXbXbXbXbXbXbXbXbXbXbXbXbXbXbXbXbXbXbXbXbXbXbXbX0X7.v.j.k.z.j.j.s.w.m { }.bXbXbXbXbXbXbXbXbXbXbXbXbXbXbXbXbXbXbXbXbXbXbXbXbXbX",
"bXbXbXbXbXbXbXbXbXbXbXbXbXbXbXbXbXbXbXbXbXbXbXbXbXbXbXF.d.g.k.x.z.h.h.N.J.H.L.|.5XbXbXbXbXbXbXbXbXbXbXbXbXbXbXbXbXbXbXbXbXbXbXbXbXbX",
"bXbXbXbXbXbXbXbXbXbXbXbXbXbXbXbXbXbXbXbXbXbXbXv 1.-.z.j.j.x.x.x.j.l.g.E.(.(.'.%X{.#XbXbXbXbXbXbXbXbXbXbXbXbXbXbXbXbXbXbXbXbXbXbXbXbX",
"bXbXbXbXbXbXbXbXbXbXbXbXbXbXbXbXbXbXbXbXbX<XC.2.d.g.z.k.j.x.x.x.c.M..X%X].(.(.`.!.T.OXbXbXbXbXbXbXbXbXbXbXbXbXbXbXbXbXbXbXbXbXbXbXbX",
"bXbXbXbXbXbXbXbXbXbXbXbXbXbXbXbXbXbXbXbXbXV.<.y.n.h.k.x.x.x.x.k.h.N.R.*XT.W.!._.(.^.P.4XbXbXbXbXbXbXbXbXbXbXbXbXbXbXbXbXbXbXbXbXbXbX",
"bXbXbXbXbXbXbXbXbXbXbXbXbXbXbXbXbXbXbXbXbXZ.>.e.n.j.x.x.x.x.x.z.h.N./.(.^.K.|.*X_.(.).T.+XbXbXbXbXbXbXbXbXbXbXbXbXbXbXbXbXbXbXbXbXbX",
"bXbXbXbXbXbXbXbXbXbXbXbXbXbXbXbXbXbXbXbXS.C.4.y.v.j.x.x.x.z.x.x.h.N./.(.^.X.A { T.'.(.H. .bXbXbXbXbXbXbXbXbXbXbXbXbXbXbXbXbXbXbXbXbX",
"bXbXbXbXbXbXbXbXbXbXbXbXbXbXbXbXbXbXbXA.:.3.y.y.d.g.x.j.j.j.j.x.m.B./.^.W. X .A X.T.Q.K.1XbXbXbXbXbXbXbXbXbXbXbXbXbXbXbXbXbXbXbXbXbX",
"bXbXbXbXbXbXbXbXbXbXbXbXbXbXbXbXbXbX+ ; :.3.y.e.e.-.z.h.j.j.h.c.E./.(.Y.X.=X4XOX} M { bXbXbXbXbXbXbXbXbXbXbXbXbXbXbXbXbXbXbXbXbXbXbX",
"bXbXbXbXbXbXbXbXbXbXbXbXbXbXbXbXbXbX  - :.3.y.y.r.y.s.d.s.s.a.s.~.(./.T.2XyXsX4Xa $ s bXbXbXbXbXbXbXbXbXbXbXbXbXbXbXbXbXbXbXbXbXbXbX",
"bXbXbXbXbXbXbXbXbXbXbXbXbXbXbXbXbXbX  - :.3.u.e.7.e.e.e.r.4.5.t.Q.).).:X6XrXwX+X+ O Z bXbXbXbXbXbXbXbXbXbXbXbXbXbXbXbXbXbXbXbXbXbXbX",
"bXbXbXbXbXbXbXbXbXbXbXbXbXbXbXbXbXbX  - :.3.u.e.y.3.&.&.%.k w.$X{.I.(.;X6X1 r M . I bXbXbXbXbXbXbXbXbXbXbXbXbXbXbXbXbXbXbXbXbXbXbXbX",
"bXbXbXbXbXbXbXbXbXbXbXbXbXbXbXbXbXbX  ; >.3.u.y.&.i.@X-X@XC.R @.o.L.W.eXrXW G J P E bXbXbXbXbXbXbXbXbXbXbXbXbXbXbXbXbXbXbXbXbXbXbXbX",
"bXbXbXbXbXbXbXbXbXbXbXbXbXbXbXbXbXbX. ; v 4.u.4.k C.iXjXuXtXO.y {.%X| =XlXxXdX>X6X..  bXbXbXbXbXbXbXbXbXbXbXbXbXbXbXbXbXbXbXbXbXbXbX",
"bXbXbXbXbXbXbXbXbXbXbXbXbXbXbXbXbXbXbXW > 1.8.2.- 1 +XyXlXlX+Xt U.U.{ OXlXxXdX>XgX X  bXbXbXbXbXbXbXbXbXbXbXbXbXbXbXbXbXbXbXbXbXbXbX",
"bXbXbXbXbXbXbXbXbXbXbXbXbXbXbXbXbXbXbXbX  z 7.d     r }.iXyXOX{ ^.Q.t +XlXcXfX,X1XY K bXbXbXbXbXbXbXbXbXbXbXbXbXbXbXbXbXbXbXbXbXbXbX",
"bXbXbXbXbXbXbXbXbXbXbXbXbXbXbXbXbXbXbXbXo 1.1.        C |.X.|.%X_.Q.t OXkXsXuX2X7 I bXbXbXbXbXbXbXbXbXbXbXbXbXbXbXbXbXbXbXbXbXbXbXbX",
"bXbXbXbXbXbXbXbXbXbXbXbXbXbXbXbXbXbXbXbX. :.c   B I.[.p < < G.'.U.K.+X4XuXsXOXC Q bXbXbXbXbXbXbXbXbXbXbXbXbXbXbXbXbXbXbXbXbXbXbXbXbX",
"bXbXbXbXbXbXbXbXbXbXbXbXbXbXbXbXbXbXbXbX6 n -   G.'.=XK     B `.] p #X#XoXoXV K bXbXbXbXbXbXbXbXbXbXbXbXbXbXbXbXbXbXbXbXbXbXbXbXbXbX",
"bXbXbXbXbXbXbXbXbXbXbXbXbXbXbXbXbXbXbXbXbXx     X , + g d   t R.t o b V.c @ Q bXbXbXbXbXbXbXbXbXbXbXbXbXbXbXbXbXbXbXbXbXbXbXbXbXbXbX",
"bXbXbXbXbXbXbXbXbXbXbXbXbXbXbXbXbXbXbXbXbXK + D.3   X z 2.f D .XO   k ,.&.0...bXbXbXbXbXbXbXbXbXbXbXbXbXbXbXbXbXbXbXbXbXbXbXbXbXbXbX",
"bXbXbXbXbXbXbXbXbXbXbXbXbXbXbXbXbXbXbXbXbXK T 8XT o y F u.u.u.r.> : i.5.q./.G.= bXbXbXL X X Q bXbXbXbXbXbXbXbXbXbXbXbXbXbXbXbXbXbXbX",
"bXbXbXbXbXbXbXbXbXbXbXbXbXbXbXbXbXbXbXbXL 3X3X7 f D y F 8.8.w.F .X7X9XD o , *.a.x 6 6 & ^ ) s 6 bXbXbXbXbXbXbXbXbXbXbXbXbXbXbXbXbXbX",
"bXbXbXbXbXbXbXbXbXbXbXbXbXbXbXbXbXbXbXbX@ XX[.= $.M.9.N S S r 0 7XzXpXA.x L k =.! U $ 9 ) ' ^   bXbXbXbXbXbXbXbXbXbXbXbXbXbXbXbXbXbX",
"bXbXbXbXbXbXbXbXbXbXbXbXbXbXbXbXbXbXbXbX    > 7.n.h.k.9.y M * . @XpX8X8XaXkXY @ vXhX^ 9 / ` w   bXbXbXbXbXbXbXbXbXbXbXbXbXbXbXbXbXbX",
"bXbXbXbXbXbXbXbXbXbXbXbXbXbXbXbXbXbXI 4   $ $ = #.m.h.m.;.;.%.h 7 V ..qXlXkXrX2X! P ^ ^ i 9 U bXbXbXbXbXbXbXbXbXbXbXbXbXbXbXbXbXbXbX",
"bXbXbXbXbXbXbXbXbXbXbXbXbXbXbXbXbXbX  # q i i a E p.=.l.h.h.m.M.g . q O.rXsXjX3X* X u i 0 6 bXbXbXbXbXbXbXbXbXbXbXbXbXbXbXbXbXbXbXbX",
"bXbXbXbXbXbXbXbXbXbXbXbXbXbXbXbXbXbX  w _ ~  .uXyX[.O j k.j.j.c.M.z . . V sXXX+ 9 ^ i $ 6 bXbXbXbXbXbXbXbXbXbXbXbXbXbXbXbXbXbXbXbXbX",
"bXbXbXbXbXbXbXbXbXbXbXbXbXbXbXbXbXbX  e ' ( p +.+.P bXT j j j j l >   U Q E U bX& 8 % I bXbXbXbXbXbXbXbXbXbXbXbXbXbXbXbXbXbXbXbXbXbX",
"bXbXbXbXbXbXbXbXbXbXbXbXbXbXbXbXbXbX  w _ ( 8   + W bXbX4 4 4 4 4 4 4 bXbX6 bXbXW 4 4 bXbXbXbXbXbXbXbXbXbXbXbXbXbXbXbXbXbXbXbXbXbXbX",
"bXbXbXbXbXbXbXbXbXbXbXbXbXbXbXbXbXbX  % ^ / 8   bXbXbXbXbXbXbXbXbXbXbXbXbXbXbXbXbXbXbXbXbXbXbXbXbXbXbXbXbXbXbXbXbXbXbXbXbXbXbXbXbXbX",
"bXbXbXbXbXbXbXbXbXbXbXbXbXbXbXbXbXbX  % ^ / 9   bXbXbXbXbXbXbXbXbXbXbXbXbXbXbXbXbXbXbXbXbXbXbXbXbXbXbXbXbXbXbXbXbXbXbXbXbXbXbXbXbXbX",
"bXbXbXbXbXbXbXbXbXbXbXbXbXbXbXbXbXbX+ & i u 8 3 bXbXbXbXbXbXbXbXbXbXbXbXbXbXbXbXbXbXbXbXbXbXbXbXbXbXbXbXbXbXbXbXbXbXbXbXbXbXbXbXbXbX",
"bXbXbXbXbXbXbXbXbXbXbXbXbXbXbXbXbXbXbXU # # 6 bXbXbXbXbXbXbXbXbXbXbXbXbXbXbXbXbXbXbXbXbXbXbXbXbXbXbXbXbXbXbXbXbXbXbXbXbXbXbXbXbXbXbX",
"bXbXbXbXbXbXbXbXbXbXbXbXbXbXbXbXbXbXbXbX    I bXbXbXbXbXbXbXbXbXbXbXbXbXbXbXbXbXbXbXbXbXbXbXbXbXbXbXbXbXbXbXbXbXbXbXbXbXbXbXbXbXbXbX",
"bXbXbXbXbXbXbXbXbXbXbXbXbXbXbXbXbXbXbXbXbXbXbXbXbXbXbXbXbXbXbXbXbXbXbXbXbXbXbXbXbXbXbXbXbXbXbXbXbXbXbXbXbXbXbXbXbXbXbXbXbXbXbXbXbXbX",
"bXbXbXbXbXbXbXbXbXbXbXbXbXbXbXbXbXbXbXbXbXbXbXbXbXbXbXbXbXbXbXbXbXbXbXbXbXbXbXbXbXbXbXbXbXbXbXbXbXbXbXbXbXbXbXbXbXbXbXbXbXbXbXbXbXbX",
"bXbXbXbXbXbXbXbXbXbXbXbXbXbXbXbXbXbXbXbXbXbXbXbXbXbXbXbXbXbXbXbXbXbXbXbXbXbXbXbXbXbXbXbXbXbXbXbXbXbXbXbXbXbXbXbXbXbXbXbXbXbXbXbXbXbX",
"bXbXbXbXbXbXbXbXbXbXbXbXbXbXbXbXbXbXbXbXbXbXbXbXbXbXbXbXbXbXbXbXbXbXbXbXbXbXbXbXbXbXbXbXbXbXbXbXbXbXbXbXbXbXbXbXbXbXbXbXbXbXbXbXbXbX",
"bXbXbXbXbXbXbXbXbXbXbXbXbXbXbXbXbXbXbXbXbXbXbXbXbXbXbXbXbXbXbXbXbXbXbXbXbXbXbXbXbXbXbXbXbXbXbXbXbXbXbXbXbXbXbXbXbXbXbXbXbXbXbXbXbXbX",
"bXbXbXbXbXbXbXbXbXbXbXbXbXbXbXbXbXbXbXbXbXbXbXbXbXbXbXbXbXbXbXbXbXbXbXbXbXbXbXbXbXbXbXbXbXbXbXbXbXbXbXbXbXbXbXbXbXbXbXbXbXbXbXbXbXbX",
"bXbXbXbXbXbXbXbXbXbXbXbXbXbXbXbXbXbXbXbXbXbXbXbXbXbXbXbXbXbXbXbXbXbXbXbXbXbXbXbXbXbXbXbXbXbXbXbXbXbXbXbXbXbXbXbXbXbXbXbXbXbXbXbXbXbX",
"bXbXbXbXbXbXbXbXbXbXbXbXbXbXbXbXbXbXbXbXbXbXbXbXbXbXbXbXbXbXbXbXbXbXbXbXbXbXbXbXbXbXbXbXbXbXbXbXbXbXbXbXbXbXbXbXbXbXbXbXbXbXbXbXbXbX",
"bXbXbXbXbXbXbXbXbXbXbXbXbXbXbXbXbXbXbXbXbXbXbXbXbXbXbXbXbXbXbXbXbXbXbXbXbXbXbXbXbXbXbXbXbXbXbXbXbXbXbXbXbXbXbXbXbXbXbXbXbXbXbXbXbXbX",
"bXbXbXbXbXbXbXbXbXbXbXbXbXbXbXbXbXbXbXbXbXbXbXbXbXbXbXbXbXbXbXbXbXbXbXbXbXbXbXbXbXbXbXbXbXbXbXbXbXbXbXbXbXbXbXbXbXbXbXbXbXbXbXbXbXbX",
"bXbXbXbXbXbXbXbXbXbXbXbXbXbXbXbXbXbXbXbXbXbXbXbXbXbXbXbXbXbXbXbXbXbXbXbXbXbXbXbXbXbXbXbXbXbXbXbXbXbXbXbXbXbXbXbXbXbXbXbXbXbXbXbXbXbX",
"bXbXbXbXbXbXbXbXbXbXbXbXbXbXbXbXbXbXbXbXbXbXbXbXbXbXbXbXbXbXbXbXbXbXbXbXbXbXbXbXbXbXbXbXbXbXbXbXbXbXbXbXbXbXbXbXbXbXbXbXbXbXbXbXbXbX",
"bXbXbXbXbXbXbXbXbXbXbXbXbXbXbXbXbXbXbXbXbXbXbXbXbXbXbXbXbXbXbXbXbXbXbXbXbXbXbXbXbXbXbXbXbXbXbXbXbXbXbXbXbXbXbXbXbXbXbXbXbXbXbXbXbXbX",
"bXbXbXbXbXbXbXbXbXbXbXbXbXbXbXbXbXbXbXbXbXbXbXbXbXbXbXbXbXbXbXbXbXbXbXbXbXbXbXbXbXbXbXbXbXbXbXbXbXbXbXbXbXbXbXbXbXbXbXbXbXbXbXbXbXbX",
"bXbXbXbXbXbXbXbXbXbXbXbXbXbXbXbXbXbXbXbXbXbXbXbXbXbXbXbXbXbXbXbXbXbXbXbXbXbXbXbXbXbXbXbXbXbXbXbXbXbXbXbXbXbXbXbXbXbXbXbXbXbXbXbXbXbX",
"bXbXbXbXbXbXbXbXbXbXbXbXbXbXbXbXbXbXbXbXbXbXbXbXbXbXbXbXbXbXbXbXbXbXbXbXbXbXbXbXbXbXbXbXbXbXbXbXbXbXbXbXbXbXbXbXbXbXbXbXbXbXbXbXbXbX",
"bXbXbXbXbXbXbXbXbXbXbXbXbXbXbXbXbXbXbXbXbXbXbXbXbXbXbXbXbXbXbXbXbXbXbXbXbXbXbXbXbXbXbXbXbXbXbXbXbXbXbXbXbXbXbXbXbXbXbXbXbXbXbXbXbXbX",
"bXbXbXbXbXbXbXbXbXbXbXbXbXbXbXbXbXbXbXbXbXbXbXbXbXbXbXbXbXbXbXbXbXbXbXbXbXbXbXbXbXbXbXbXbXbXbXbXbXbXbXbXbXbXbXbXbXbXbXbXbXbXbXbXbXbX"
};
