/* XPM */
static char *result[] = {
/* columns rows colors chars-per-pixel */
"48 46 16 1 ",
"  c #000001",
". c #781028",
"X c #107828",
"o c #704020",
"O c #D82828",
"+ c #A07840",
"@ c #40A028",
"# c #10F808",
"$ c #F8F800",
"% c #D8A850",
"& c #3050F8",
"* c #D0B088",
"= c #B8F8A0",
"- c #F8E0B8",
"; c #F8F8F8",
": c #489848",
/* pixels */
"::::::::::::::::::@@########@@oo++::::::::::::::",
"::::::::::::::::::@@########@@oo++::::::::::::::",
"::::::::::::::@@@@##########$$$$$$%%++::::::::::",
"::::::::::::::@@@@##########$$$$$$%%++::::::::::",
"::::::::::XX@@############%%%%%%$$$$$$++::::::::",
"::::::::::XX@@############%%%%%%$$$$$$++::::::::",
"::::::::XX@@@@############$$$$++%%%%$$$$++::::::",
"::::::::XX@@@@############$$$$++%%%%$$$$++::::::",
"::::::  XX@@@@@@##########$$$$++oo%%%%$$++::::::",
"::::::  XX@@@@@@##########$$$$++oo%%%%$$++::::::",
"::::::  @@@@@@@@@@######$$$$++****++++oo::::::::",
"::::::  @@@@@@@@@@######$$$$++****++++oo::::::::",
"::::::  @@@@@@@@@@@@@@@@$$$$**--**  ::::::::::::",
"::::::  @@@@@@@@@@@@@@@@$$$$**--**  ::::::::::::",
"::::  XX@@@@@@@@XXXX@@%%++$$--  oo  ::::::::::::",
"::::  XX@@@@@@@@XXXX@@%%++$$--  oo  ::::::::::::",
"::::  XX@@@@XXXX----**oo%%++--;;&&**  ::::::::::",
"::::  XX@@@@XXXX----**oo%%++--;;&&**  ::::::::::",
"::::::  @@XX    ++----oo$$oo--;;&&**  ::::::::::",
"::::::  @@XX    ++----oo$$oo--;;&&**  ::::::::::",
"::::::  XX  ::    ++++%%$$oo----**  ::::::::::::",
"::::::  XX  ::    ++++%%$$oo----**  ::::::::::::",
"::::::::  ::::$$%%    $$oo******  ::::::::::::::",
"::::::::  ::::$$%%    $$oo******  ::::::::::::::",
"::::::::::::::    XX  %%  XXXX      ::::::::::::",
"::::::::::::::    XX  %%  XXXX      ::::::::::::",
"::::::::::::::::::    ==  @@XX  ==--  ::::::::::",
"::::::::::::::::::    ==  @@XX  ==--  ::::::::::",
"::::::::::::::::    ====oo@@@@$$  **  ::::::::::",
"::::::::::::::::    ====oo@@@@$$  **  ::::::::::",
"::::::::::::::    --====  @@@@$$##  ::::::::::::",
"::::::::::::::    --====  @@@@$$##  ::::::::::::",
"::::::::::::    ------  oooooo####  ::::::::::::",
"::::::::::::    ------  oooooo####  ::::::::::::",
"::::::::::::  OO**--  @@########@@        ::::::",
"::::::::::::  OO**--  @@########@@        ::::::",
"::::::::::::  ..    @@########@@    OOOOOO  ::::",
"::::::::::::  ..    @@########@@    OOOOOO  ::::",
"::::::::::::::  ..              ;;....OOOO  ::::",
"::::::::::::::  ..              ;;....OOOO  ::::",
"::::::::::::::::    ::::::::::  ......    ::::::",
"::::::::::::::::    ::::::::::  ......    ::::::",
"::::::::::::::::::::::::::::::::      ::::::::::",
"::::::::::::::::::::::::::::::::      ::::::::::",
"::::::::::::::::::::::::::::::::::::::::::::::::",
"::::::::::::::::::::::::::::::::::::::::::::::::"
};
