/* XPM */
static char *result[] = {
/* columns rows colors chars-per-pixel */
"66 72 228 2 ",
"   c #000000",
".  c #080703",
"X  c #120308",
"o  c #140608",
"O  c #041804",
"+  c #151705",
"@  c #190D11",
"#  c #151815",
"$  c #240609",
"%  c #211409",
"&  c #341408",
"*  c #3C0514",
"=  c #241414",
"-  c #360A0B",
";  c #022303",
":  c #062907",
">  c #00370D",
",  c #043A15",
"<  c #033614",
"1  c #183418",
"2  c #1C2C11",
"3  c #29241D",
"4  c #2D2E10",
"5  c #153F23",
"6  c #242424",
"7  c #2B2124",
"8  c #2B2A2A",
"9  c #372926",
"0  c #373536",
"q  c #5A0D1D",
"w  c #441E17",
"e  c #781617",
"r  c #6E0A12",
"t  c #4C2E17",
"y  c #593518",
"u  c #590B22",
"i  c #660D24",
"p  c #751025",
"a  c #5A3B38",
"s  c #513232",
"d  c #6C322C",
"f  c #0B571D",
"g  c #38471E",
"h  c #2A591E",
"j  c #0E6D15",
"k  c #107B1B",
"l  c #2F6E17",
"z  c #1B5228",
"x  c #394538",
"c  c #2E5432",
"v  c #076A23",
"b  c #147B27",
"n  c #117E2D",
"m  c #22692E",
"M  c #3A712F",
"N  c #554516",
"B  c #644A1C",
"V  c #734906",
"C  c #565427",
"Z  c #53553D",
"A  c #6F4829",
"S  c #456426",
"D  c #796B17",
"F  c #356044",
"G  c #484848",
"H  c #635649",
"J  c #715E4B",
"K  c #4E6C48",
"L  c #726745",
"P  c #7B6B5D",
"I  c #626554",
"U  c #6C6C6B",
"Y  c #757473",
"T  c #7E7E7E",
"R  c #6B6E6F",
"E  c #9D1E1E",
"W  c #861718",
"Q  c #97152E",
"!  c #8B1129",
"~  c #BD1D2A",
"^  c #952037",
"/  c #B62122",
"(  c #DC2928",
")  c #C32220",
"_  c #FC2C2B",
"`  c #F83837",
"'  c #ED2C2E",
"]  c #C51313",
"[  c #A07D11",
"{  c #87562C",
"}  c #825131",
"|  c #8F692E",
" . c #A6763B",
".. c #95724B",
"X. c #A77C4B",
"o. c #A96550",
"O. c #A27766",
"+. c #C34342",
"@. c #C57F53",
"#. c #138F11",
"$. c #33921D",
"%. c #00B304",
"&. c #2AB91A",
"*. c #1A872A",
"=. c #1B9829",
"-. c #2C832A",
";. c #398C24",
":. c #3A9C29",
">. c #379A27",
",. c #2D923A",
"<. c #309332",
"1. c #1DA423",
"2. c #39AD23",
"3. c #3BA326",
"4. c #32AD2B",
"5. c #44992A",
"6. c #4A8A29",
"7. c #44A428",
"8. c #4AA72A",
"9. c #43B427",
"0. c #46A435",
"q. c #5BB031",
"w. c #758932",
"e. c #1EDD14",
"r. c #08D308",
"t. c #2DC41B",
"y. c #26D417",
"u. c #23D10F",
"i. c #04E608",
"p. c #17EB0B",
"a. c #02FE03",
"s. c #0CFD05",
"d. c #03F809",
"f. c #12F509",
"g. c #10F808",
"h. c #1FF807",
"j. c #19F612",
"k. c #2EFC06",
"l. c #2CF513",
"z. c #44F50D",
"x. c #64C629",
"c. c #319144",
"v. c #5BB043",
"b. c #4D9960",
"n. c #7E836A",
"m. c #6CAB7B",
"M. c #73FB6E",
"N. c #B59813",
"B. c #AE8B37",
"V. c #B79036",
"C. c #A29B22",
"Z. c #C1AD02",
"A. c #C1A828",
"S. c #CCAF2E",
"D. c #90F207",
"F. c #A9FF00",
"G. c #A0D00D",
"H. c #CFC016",
"J. c #E1D609",
"K. c #EBD617",
"L. c #D7FC00",
"P. c #D9E608",
"I. c #E7E307",
"U. c #FAEB05",
"Y. c #F3F302",
"T. c #FEFE01",
"R. c #F0EC12",
"E. c #D8CE2D",
"W. c #E5CD2B",
"Q. c #ECD42C",
"!. c #F7CE34",
"~. c #F9EA22",
"^. c #88954C",
"/. c #B68A59",
"(. c #B89157",
"). c #9FB743",
"_. c #8C8C72",
"`. c #B18C76",
"'. c #BC9D77",
"]. c #A79272",
"[. c #80B66E",
"{. c #B3A176",
"}. c #CA9A57",
"|. c #CA9652",
" X c #D7A947",
".X c #E3BA40",
"XX c #C09E7B",
"oX c #D2B675",
"OX c #F4F152",
"+X c #FAF76D",
"@X c #7F7F80",
"#X c #3F4DCC",
"$X c #294EFF",
"%X c #4D5EDB",
"&X c #7586D8",
"*X c #AE978D",
"=X c #AA938D",
"-X c #8ABB94",
";X c #B5A884",
":X c #D7919E",
">X c #C5AA83",
",X c #C7AA95",
"<X c #CBB190",
"1X c #E4BA9B",
"2X c #CFB6A5",
"3X c #9FC596",
"4X c #AEDC98",
"5X c #A7C48C",
"6X c #B1F19B",
"7X c #96E78B",
"8X c #E0C299",
"9X c #D9C5B3",
"0X c #EBD8AA",
"qX c #F8D7B2",
"wX c #F4CFB1",
"eX c #CDF7B3",
"rX c #FBE8BC",
"tX c #EAE7B8",
"yX c #CCC594",
"uX c #8EA7FA",
"iX c #DBDBD0",
"pX c #F4DCC2",
"aX c #FCECC8",
"sX c #FFF8CA",
"dX c #FFF8D4",
"fX c #E1FFC9",
"gX c #F7F4EE",
"hX c None",
/* pixels */
"hXhXhXhXhXhXhXhXhXhXhXhXhXhXhXhXhXhXhXhXhXhXhXhXhXhXhXhXhXhXhXhXhXhXhXhXhXhXhXhXhXhXhXhXhXhXhXhXhXhXhXhXhXhXhXhXhXhXhXhXhXhXhXhXhXhX",
"hXhXhXhXhXhXhXhXhXhXhXhXhXhXhXhXhXhXhXhXhXhXhXhXhXhXhXhXhXhXhXhXhXhXhXhXhXhXhXhXhXhXhXhXhXhXhXhXhXhXhXhXhXhXhXhXhXhXhXhXhXhXhXhXhXhX",
"hXhXhXhXhXhXhXhXhXhXhXhXhXhXhXhXhXhXhXhXhXhXhXhXhXhXhXhXhXhXhXhXhXhXhXhXhXhXhXhXhXhXhXhXhXhXhXhXhXhXhXhXhXhXhXhXhXhXhXhXhXhXhXhXhXhX",
"hXhXhXhXhXhXhXhXhXhXhXhXhXhXhXhXhXhXhXhXhXhXhXhXhXhXhXhXhXhXhXhXhXhXhXhXhXhXhXhXhXhXhXhXhXhXhXhXhXhXhXhXhXhXhXhXhXhXhXhXhXhXhXhXhXhX",
"hXhXhXhXhXhXhXhXhXhXhXhXhXhXhXhXhXhXhXhXhXhXhXhXhXhXhXhXhXhXhXhXhXhXhXhXhXhXhXhXhXhXhXhXhXhXhXhXhXhXhXhXhXhXhXhXhXhXhXhXhXhXhXhXhXhX",
"hXhXhXhXhXhXhXhXhXhXhXhXhXhXhXhXhXhXhXhXhXhXhXhXhXhXhXhXhXhXhXhXhXhXhXhXhXhXhXhXhXhXhXhXhXhXhXhXhXhXhXhXhXhXhXhXhXhXhXhXhXhXhXhXhXhX",
"hXhXhXhXhXhXhXhXhXhXhXhXhXhXhXhXhXhXhXhXhXhXhXhXhXhXhXhXhXhXhXhXhXhXhXhXhXhXhXhXhXhXhXhXhXhXhXhXhXhXhXhXhXhXhXhXhXhXhXhXhXhXhXhXhXhX",
"hXhXhXhXhXhXhXhXhXhXhXhXhXhXhXhXhXhXhXhXhXhXhXhXhXhXhXhXhXhXhXhXhXhXhXhXhXhXhXhXhXhXhXhXhXhXhXhXhXhXhXhXhXhXhXhXhXhXhXhXhXhXhXhXhXhX",
"hXhXhXhXhXhXhXhXhXhXhXhXhXhXhXhXhXhXhXhXhXhXhXhXhXhXhXhXhXhXhXhXhXhXhXhXhXhXhXhXhXhXhXhXhXhXhXhXhXhXhXhXhXhXhXhXhXhXhXhXhXhXhXhXhXhX",
"hXhXhXhXhXhXhXhXhXhXhXhXhXhXhXhXhXhXhXhXhXhXhXhXhXhXhXhXhXhXhXhXhXhXhXhXhXhXhXhXhXhXhXhXhXhXhXhXhXhXhXhXhXhXhXhXhXhXhXhXhXhXhXhXhXhX",
"hXhXhXhXhXhXhXhXhXhXhXhXhXhXhXhXhXhXhXhXhXhXhXhXhXhXhXhXhXhXhXhXhXhXhXhXhXhXhXhXhXhXhXhXhXhXhXhXhXhXhXhXhXhXhXhXhXhXhXhXhXhXhXhXhXhX",
"hXhXhXhXhXhXhXhXhXhXhXhXhXhXhXhXhXhXhXhXhXhXhXhXhXhXhXhXhXhXhXhXhXhXhXhXhXhXhXhXhXhXhXhXhXhXhXhXhXhXhXhXhXhXhXhXhXhXhXhXhXhXhXhXhXhX",
"hXhXhXhXhXhXhXhXhXhXhXhXhXhXhXhXhXhXhXhXhXhXhXhXhXhXhXhXhXhXhXhXhXhXhXhXhXhXhXhXhXhXhXhXhXhXhXhXhXhXhXhXhXhXhXhXhXhXhXhXhXhXhXhXhXhX",
"hXhXhXhXhXhXhXhXhXhXhXhXhXhXhXhXhXhXhXhXhXhXhXhXhXhXhXhXhXhXhXhXhXhXhXhXhXhXhXhXhXhXhXhXhXhXhXhXhXhXhXhXhXhXhXhXhXhXhXhXhXhXhXhXhXhX",
"hXhXhXhXhXhXhXhXhXhXhXhXhXhXhXhXhXhXhXhXhXhXhXhXhXhXhXhXhXhXhXhXhXhXhXhXhXhXhXhXhXhXhXhXhXhXhXhXhXhXhXhXhXhXhXhXhXhXhXhXhXhXhXhXhXhX",
"hXhXhXhXhXhXhXhXhXhXhXhXhXhXhXhXhXhXhXhXhXhXhXhXhXhXhXhXhXhXhXhXhXhXhXhXhXhXhXhXhXhXhXhXhXhXhXhXhXhXhXhXhXhXhXhXhXhXhXhXhXhXhXhXhXhX",
"hXhXhXhXhXhXhXhXhXhXhXhXhXhXhXhXhXhXhXhXhXhXhXhXhXhXhXhXhXhXhXhXhXhXhXhXhXhXhXhXhXhXhXhXhXhXhXhXhXhXhXhXhXhXhXhXhXhXhXhXhXhXhXhXhXhX",
"hXhXhXhXhXhXhXhXhXhXhXhXhXhXhXhXhXhXhXhXhXhXhXhXhXhXhXhXhXhXhXhXhXhXhXhXhXhXhXhXhXhXhXhXhXhXhXhXhXhXhXhXhXhXhXhXhXhXhXhXhXhXhXhXhXhX",
"hXhXhXhXhXhXhXhXhXhXhXhXhXhXhXhXhXhXhXhXhXhXhXhXhXhXhXhXhXhXhXhXhXhXhXhXhXhXhXhXhXhXhXhXhXhXhXhXhXhXhXhXhXhXhXhXhXhXhXhXhXhXhXhXhXhX",
"hXhXhXhXhXhXhXhXhXhXhXhXhXhXhXhXhXhXhXhXhXhXhXhXhXhXhXhXhXhXhXhXhXhXhXhXhXhXhXhXhXhXhXhXhXhXhXhXhXhXhXhXhXhXhXhXhXhXhXhXhXhXhXhXhXhX",
"hXhXhXhXhXhXhXhXhXhXhXhXhXhXhXhXhXhXhXhXhXhXhXhXhXhXhXv.t.s.g.g.g.s.y.6.B { (.hXhXhXhXhXhXhXhXhXhXhXhXhXhXhXhXhXhXhXhXhXhXhXhXhXhXhX",
"hXhXhXhXhXhXhXhXhXhXhXhXhXhXhXhXhXhXhXhXhXhXhX-X3X7XM.y.e.s.g.g.s.a.z.G.N.V./.,XhXhXhXhXhXhXhXhXhXhXhXhXhXhXhXhXhXhXhXhXhXhXhXhXhXhX",
"hXhXhXhXhXhXhXhXhXhXhXhXhXhXhXhXhXhXhXhXhXhXm.*.3.y.s.s.s.g.g.g.f.l.G.T.T.~. XB.<XhXhXhXhXhXhXhXhXhXhXhXhXhXhXhXhXhXhXhXhXhXhXhXhXhX",
"hXhXhXhXhXhXhXhXhXhXhXhXhXhXhXhXhXhXhXhXhXb.<.3.e.g.g.g.g.g.g.a.l.).}..XT.T.Y.R.S.`.hXhXhXhXhXhXhXhXhXhXhXhXhXhXhXhXhXhXhXhXhXhXhXhX",
"hXhXhXhXhXhXhXhXhXhXhXhXhXhXhXhXhXhXhXhXhXn -.9.f.s.g.g.g.g.g.a.l.E.!.W.W.!.~.Y.R.A.<XhXhXhXhXhXhXhXhXhXhXhXhXhXhXhXhXhXhXhXhXhXhXhX",
"hXhXhXhXhXhXhXhXhXhXhXhXhXhXhXhXhXhXhXhXhXc.<.7.p.s.g.g.g.g.g.d.k.L.T.Y. X|.|.K.T.Y.B.,XhXhXhXhXhXhXhXhXhXhXhXhXhXhXhXhXhXhXhXhXhXhX",
"hXhXhXhXhXhXhXhXhXhXhXhXhXhXhXhXhXhXhXhXc.:.5.2.f.s.g.g.g.g.g.d.k.L.T.Y.V.A {  X~.T.B.2XhXhXhXhXhXhXhXhXhXhXhXhXhXhXhXhXhXhXhXhXhXhX",
"hXhXhXhXhXhXhXhXhXhXhXhXhXhXhXhXhXhX@XF *.:.8.2.t.p.s.s.s.s.a.k.D.Y.J.A.(.O.....S.Q.B.,XhXhXhXhXhXhXhXhXhXhXhXhXhXhXhXhXhXhXhXhXhXhX",
"hXhXhXhXhXhXhXhXhXhXhXhXhXhXhXhXhXhX  , *.:.7.5.5.&.f.p.p.p.d.D.T.T.A.O.<XwXXXy { }./.hXhXhXhXhXhXhXhXhXhXhXhXhXhXhXhXhXhXhXhXhXhXhX",
"hXhXhXhXhXhXhXhXhXhXhXhXhXhXhXhXhXhX  , *.:.7.5.5.7.2.2.2.2.1.G.T.T.E.,XrXrX'.= & ..hXhXhXhXhXhXhXhXhXhXhXhXhXhXhXhXhXhXhXhXhXhXhXhX",
"hXhXhXhXhXhXhXhXhXhXhXhXhXhXhXhXhXhX  , =.:.7.7.7.:.$.;.*.-.^.A.H.T.OX2XP ..| . G hXhXhXhXhXhXhXhXhXhXhXhXhXhXhXhXhXhXhXhXhXhXhXhXhX",
"hXhXhXhXhXhXhXhXhXhXhXhXhXhXhXhXhXhX6 5 b :.0.>.:.0.q.v.<.M |.|. .J.+X9X6 = a 7 n.hXhXhXhXhXhXhXhXhXhXhXhXhXhXhXhXhXhXhXhXhXhXhXhXhX",
"hXhXhXhXhXhXhXhXhXhXhXhXhXhXhXhXhXhXhXR : ;.=.*.#.[.tX0XyX].A o.}.V.oXaXiX&X#X*XJ G hXhXhXhXhXhXhXhXhXhXhXhXhXhXhXhXhXhXhXhXhXhXhXhX",
"hXhXhXhXhXhXhXhXhXhXhXhXhXhXhXhXhXhXhXhXO ;.4.v > L qXaXsX1Xd [ W.{ `.sXgXuX$XiX..  hXhXhXhXhXhXhXhXhXhXhXhXhXhXhXhXhXhXhXhXhXhXhXhX",
"hXhXhXhXhXhXhXhXhXhXhXhXhXhXhXhXhXhXhXT # ;.<.f   & ..1XaX8X} Z.Y.V O.dXgXuX%X*XL G hXhXhXhXhXhXhXhXhXhXhXhXhXhXhXhXhXhXhXhXhXhXhXhX",
"hXhXhXhXhXhXhXhXhXhXhXhXhXhXhXhXhXhXhXY O b f .     & ^.}.(.|.~.Y.V O.sXsXpX*X9 Y hXhXhXhXhXhXhXhXhXhXhXhXhXhXhXhXhXhXhXhXhXhXhXhXhX",
"hXhXhXhXhXhXhXhXhXhXhXhXhXhXhXhXhXhXhXhXU < x _.C.C.G t t B W.J.N.X.>XqXrX}.y   hXhXhXhXhXhXhXhXhXhXhXhXhXhXhXhXhXhXhXhXhXhXhXhXhXhX",
"hXhXhXhXhXhXhXhXhXhXhXhXhXhXhXhXhXhXhXhXhX0 hXhXH.OX=X#   + I.N.s '.>X{.XXZ # 6 Y hXhXhXhXhXhXhXhXhXhXhXhXhXhXhXhXhXhXhXhXhXhXhXhXhX",
"hXhXhXhXhXhXhXhXhXhXhXhXhXhXhXhXhXhXhXhXhXhXhXhX4 4 1 v : %  X| X m ,.m @ K eXtXP 8 hXhXhXhXhXhXhXhXhXhXhXhXhXhXhXhXhXhXhXhXhXhXhXhX",
"hXhXhXhXhXhXhXhXhXhXhXhXhXhXhXhXhXhXhXhXhXhXhXhXhXG   c 2   w.g   j =.j f c _._.P T hXhXhXhXhXhXhXhXhXhXhXhXhXhXhXhXhXhXhXhXhXhXhXhX",
"hXhXhXhXhXhXhXhXhXhXhXhXhXhXhXhXhXhXhXhXhXhXhXhXhXn.# y w 1 :.h + 6.9.8.x.h .   hXhXhXhXhXhXhXhXhXhXhXhXhXhXhXhXhXhXhXhXhXhXhXhXhXhX",
"hXhXhXhXhXhXhXhXhXhXhXhXhXhXhXhXhXhXhXhXhXhXhX6 7 z v   Z 4X6X^.y 5.4.q.P.D.%.O hXhXhXhX6 7 6 6 hXhXhXhXhXhXhXhXhXhXhXhXhXhXhXhXhXhX",
"hXhXhXhXhXhXhXhXhXhXhXhXhXhXhXhXhXhXhXhXhXhXa e X ; > H 5XeXfX_.& C S D U.F.d.; x @Xn.a e e -   hXhXhXhXhXhXhXhXhXhXhXhXhXhXhXhXhXhX",
"hXhXhXhXhXhXhXhXhXhXhXhXhXhXhXhXhXhXhXhXhX= E ( o # s wXsX6X4XK O N B D P.D.r.O @ 8 @ W ` _ e   hXhXhXhXhXhXhXhXhXhXhXhXhXhXhXhXhXhX",
"hXhXhXhXhXhXhXhXhXhXhXhXhXhXhXhXhXhXhXhX9 E ' ) X I tXaXrX'.9 2 :.u.p.p.k.z.;.  @XiX+.] ( _ e   hXhXhXhXhXhXhXhXhXhXhXhXhXhXhXhXhXhX",
"hXhXhXhXhXhXhXhXhXhXhXhXhXhXhXhXhXhXhXY $ ( _ W . x ;XaX<XC 1 #.l.s.h.y.#.j g H =X:X` _ ( ! a @XhXhXhXhXhXhXhXhXhXhXhXhXhXhXhXhXhXhX",
"hXhXhXhXhXhXhXhXhXhXhXhXhXhXhXhXhXhXhXT o ~ ~ u X # 8 <XP   M t.i.i.&.M 6 # @ >Xo.i ~ ( E 6 hXhXhXhXhXhXhXhXhXhXhXhXhXhXhXhXhXhXhXhX",
"hXhXhXhXhXhXhXhXhXhXhXhXhXhXhXhXhXhXhXT X p Q i o hXhX8 @   O : ; ; O # hXY X d ^ p Q i = hXhXhXhXhXhXhXhXhXhXhXhXhXhXhXhXhXhXhXhXhX",
"hXhXhXhXhXhXhXhXhXhXhXhXhXhXhXhXhXhXhXY X i Q p X hXhXhX@X@X@X@X@X@X@XhXhXhXU $ * * * 0 hXhXhXhXhXhXhXhXhXhXhXhXhXhXhXhXhXhXhXhXhXhX",
"hXhXhXhXhXhXhXhXhXhXhXhXhXhXhXhXhXhXhXhX7 q p q 7 hXhXhXhXhXhXhXhXhXhXhXhXhXhXG 6 6 6 hXhXhXhXhXhXhXhXhXhXhXhXhXhXhXhXhXhXhXhXhXhXhX",
"hXhXhXhXhXhXhXhXhXhXhXhXhXhXhXhXhXhXhXhXhX@ o @ hXhXhXhXhXhXhXhXhXhXhXhXhXhXhXhXhXhXhXhXhXhXhXhXhXhXhXhXhXhXhXhXhXhXhXhXhXhXhXhXhXhX",
"hXhXhXhXhXhXhXhXhXhXhXhXhXhXhXhXhXhXhXhXhX7   6 hXhXhXhXhXhXhXhXhXhXhXhXhXhXhXhXhXhXhXhXhXhXhXhXhXhXhXhXhXhXhXhXhXhXhXhXhXhXhXhXhXhX",
"hXhXhXhXhXhXhXhXhXhXhXhXhXhXhXhXhXhXhXhXhXhXhXhXhXhXhXhXhXhXhXhXhXhXhXhXhXhXhXhXhXhXhXhXhXhXhXhXhXhXhXhXhXhXhXhXhXhXhXhXhXhXhXhXhXhX",
"hXhXhXhXhXhXhXhXhXhXhXhXhXhXhXhXhXhXhXhXhXhXhXhXhXhXhXhXhXhXhXhXhXhXhXhXhXhXhXhXhXhXhXhXhXhXhXhXhXhXhXhXhXhXhXhXhXhXhXhXhXhXhXhXhXhX",
"hXhXhXhXhXhXhXhXhXhXhXhXhXhXhXhXhXhXhXhXhXhXhXhXhXhXhXhXhXhXhXhXhXhXhXhXhXhXhXhXhXhXhXhXhXhXhXhXhXhXhXhXhXhXhXhXhXhXhXhXhXhXhXhXhXhX",
"hXhXhXhXhXhXhXhXhXhXhXhXhXhXhXhXhXhXhXhXhXhXhXhXhXhXhXhXhXhXhXhXhXhXhXhXhXhXhXhXhXhXhXhXhXhXhXhXhXhXhXhXhXhXhXhXhXhXhXhXhXhXhXhXhXhX",
"hXhXhXhXhXhXhXhXhXhXhXhXhXhXhXhXhXhXhXhXhXhXhXhXhXhXhXhXhXhXhXhXhXhXhXhXhXhXhXhXhXhXhXhXhXhXhXhXhXhXhXhXhXhXhXhXhXhXhXhXhXhXhXhXhXhX",
"hXhXhXhXhXhXhXhXhXhXhXhXhXhXhXhXhXhXhXhXhXhXhXhXhXhXhXhXhXhXhXhXhXhXhXhXhXhXhXhXhXhXhXhXhXhXhXhXhXhXhXhXhXhXhXhXhXhXhXhXhXhXhXhXhXhX",
"hXhXhXhXhXhXhXhXhXhXhXhXhXhXhXhXhXhXhXhXhXhXhXhXhXhXhXhXhXhXhXhXhXhXhXhXhXhXhXhXhXhXhXhXhXhXhXhXhXhXhXhXhXhXhXhXhXhXhXhXhXhXhXhXhXhX",
"hXhXhXhXhXhXhXhXhXhXhXhXhXhXhXhXhXhXhXhXhXhXhXhXhXhXhXhXhXhXhXhXhXhXhXhXhXhXhXhXhXhXhXhXhXhXhXhXhXhXhXhXhXhXhXhXhXhXhXhXhXhXhXhXhXhX",
"hXhXhXhXhXhXhXhXhXhXhXhXhXhXhXhXhXhXhXhXhXhXhXhXhXhXhXhXhXhXhXhXhXhXhXhXhXhXhXhXhXhXhXhXhXhXhXhXhXhXhXhXhXhXhXhXhXhXhXhXhXhXhXhXhXhX",
"hXhXhXhXhXhXhXhXhXhXhXhXhXhXhXhXhXhXhXhXhXhXhXhXhXhXhXhXhXhXhXhXhXhXhXhXhXhXhXhXhXhXhXhXhXhXhXhXhXhXhXhXhXhXhXhXhXhXhXhXhXhXhXhXhXhX",
"hXhXhXhXhXhXhXhXhXhXhXhXhXhXhXhXhXhXhXhXhXhXhXhXhXhXhXhXhXhXhXhXhXhXhXhXhXhXhXhXhXhXhXhXhXhXhXhXhXhXhXhXhXhXhXhXhXhXhXhXhXhXhXhXhXhX",
"hXhXhXhXhXhXhXhXhXhXhXhXhXhXhXhXhXhXhXhXhXhXhXhXhXhXhXhXhXhXhXhXhXhXhXhXhXhXhXhXhXhXhXhXhXhXhXhXhXhXhXhXhXhXhXhXhXhXhXhXhXhXhXhXhXhX",
"hXhXhXhXhXhXhXhXhXhXhXhXhXhXhXhXhXhXhXhXhXhXhXhXhXhXhXhXhXhXhXhXhXhXhXhXhXhXhXhXhXhXhXhXhXhXhXhXhXhXhXhXhXhXhXhXhXhXhXhXhXhXhXhXhXhX",
"hXhXhXhXhXhXhXhXhXhXhXhXhXhXhXhXhXhXhXhXhXhXhXhXhXhXhXhXhXhXhXhXhXhXhXhXhXhXhXhXhXhXhXhXhXhXhXhXhXhXhXhXhXhXhXhXhXhXhXhXhXhXhXhXhXhX",
"hXhXhXhXhXhXhXhXhXhXhXhXhXhXhXhXhXhXhXhXhXhXhXhXhXhXhXhXhXhXhXhXhXhXhXhXhXhXhXhXhXhXhXhXhXhXhXhXhXhXhXhXhXhXhXhXhXhXhXhXhXhXhXhXhXhX",
"hXhXhXhXhXhXhXhXhXhXhXhXhXhXhXhXhXhXhXhXhXhXhXhXhXhXhXhXhXhXhXhXhXhXhXhXhXhXhXhXhXhXhXhXhXhXhXhXhXhXhXhXhXhXhXhXhXhXhXhXhXhXhXhXhXhX",
"hXhXhXhXhXhXhXhXhXhXhXhXhXhXhXhXhXhXhXhXhXhXhXhXhXhXhXhXhXhXhXhXhXhXhXhXhXhXhXhXhXhXhXhXhXhXhXhXhXhXhXhXhXhXhXhXhXhXhXhXhXhXhXhXhXhX",
"hXhXhXhXhXhXhXhXhXhXhXhXhXhXhXhXhXhXhXhXhXhXhXhXhXhXhXhXhXhXhXhXhXhXhXhXhXhXhXhXhXhXhXhXhXhXhXhXhXhXhXhXhXhXhXhXhXhXhXhXhXhXhXhXhXhX",
"hXhXhXhXhXhXhXhXhXhXhXhXhXhXhXhXhXhXhXhXhXhXhXhXhXhXhXhXhXhXhXhXhXhXhXhXhXhXhXhXhXhXhXhXhXhXhXhXhXhXhXhXhXhXhXhXhXhXhXhXhXhXhXhXhXhX",
"hXhXhXhXhXhXhXhXhXhXhXhXhXhXhXhXhXhXhXhXhXhXhXhXhXhXhXhXhXhXhXhXhXhXhXhXhXhXhXhXhXhXhXhXhXhXhXhXhXhXhXhXhXhXhXhXhXhXhXhXhXhXhXhXhXhX"
};
