/* XPM */
static char *result[] = {
/* columns rows colors chars-per-pixel */
"66 72 225 2 ",
"   c #010101",
".  c #060705",
"X  c #160707",
"o  c #021805",
"O  c #171708",
"+  c #191716",
"@  c #25010A",
"#  c #3B060D",
"$  c #341C0E",
"%  c #022707",
"&  c #033706",
"*  c #092A14",
"=  c #063613",
"-  c #1A391B",
";  c #162512",
":  c #3C250D",
">  c #292C14",
",  c #3C1B23",
"<  c #143D21",
"1  c #3C252D",
"2  c #3A3A39",
"3  c #2B2A29",
"4  c #490115",
"5  c #550219",
"6  c #561514",
"7  c #4B0E0E",
"8  c #741D17",
"9  c #473214",
"0  c #6F3A1E",
"q  c #590B22",
"w  c #680C23",
"e  c #7D1128",
"r  c #700F26",
"t  c #4E3132",
"y  c #6E372A",
"u  c #0C4E0D",
"i  c #295A1B",
"p  c #2E520E",
"a  c #047619",
"s  c #0B7016",
"d  c #2B731C",
"f  c #3D493C",
"g  c #1B6B27",
"h  c #147828",
"j  c #0B6B25",
"k  c #287626",
"l  c #534F00",
"z  c #724608",
"x  c #43771E",
"c  c #73660B",
"v  c #5D4834",
"b  c #644A29",
"n  c #754721",
"m  c #6E572E",
"M  c #58692B",
"N  c #637922",
"B  c #363454",
"V  c #4C3A6C",
"C  c #3A4C40",
"Z  c #4B4C4B",
"A  c #424243",
"S  c #595454",
"D  c #665A49",
"F  c #645C58",
"G  c #755D5D",
"H  c #587258",
"J  c #54734C",
"K  c #756952",
"L  c #676867",
"P  c #737373",
"I  c #7C7B79",
"U  c #8C1A1A",
"Y  c #A41E1E",
"T  c #AE231F",
"R  c #B81C33",
"E  c #BB2127",
"W  c #8A112F",
"Q  c #EB2A2C",
"!  c #83551F",
"~  c #895730",
"^  c #946836",
"/  c #A67A38",
"(  c #9B780B",
")  c #8E5643",
"_  c #A87B51",
"`  c #A17B41",
"'  c #907872",
"]  c #A2796B",
"[  c #8D6750",
"{  c #10900F",
"}  c #11A51D",
"|  c #13812A",
" . c #1C8824",
".. c #1F9C30",
"X. c #378829",
"o. c #2B952A",
"O. c #3B9329",
"+. c #389B28",
"@. c #2C9036",
"#. c #3CA726",
"$. c #37B522",
"%. c #36B410",
"&. c #478724",
"*. c #429D2A",
"=. c #49952B",
"-. c #42A228",
";. c #47A929",
":. c #46B12C",
">. c #52AF37",
",. c #5BA713",
"<. c #1ED517",
"1. c #13D30C",
"2. c #2DCC19",
"3. c #2AD017",
"4. c #09ED06",
"5. c #1AE70E",
"6. c #17EC0C",
"7. c #03FE05",
"8. c #0DFD06",
"9. c #07F809",
"0. c #11F509",
"q. c #10F808",
"w. c #17FA07",
"e. c #2EF807",
"r. c #34F122",
"t. c #49FD01",
"y. c #69F905",
"u. c #4CC433",
"i. c #57C33C",
"p. c #65D62A",
"a. c #3A904A",
"s. c #4B9152",
"d. c #779B5C",
"f. c #509961",
"g. c #689C61",
"h. c #6BA866",
"j. c #5AEF53",
"k. c #B89C0D",
"l. c #B6B304",
"z. c #A7892A",
"x. c #C8B612",
"c. c #CAB41C",
"v. c #C49936",
"b. c #CBB628",
"n. c #C3A82B",
"m. c #E6BA3F",
"M. c #F3BF3F",
"N. c #84CD1E",
"B. c #ABC016",
"V. c #85FB05",
"C. c #9AE11D",
"Z. c #B5F812",
"A. c #9DD726",
"S. c #DED308",
"D. c #DBCA12",
"F. c #E1DB05",
"G. c #E9D91A",
"H. c #D8F801",
"J. c #F3ED08",
"K. c #E7F901",
"L. c #FEFE00",
"P. c #F7F306",
"I. c #F4E71A",
"U. c #F2EA0F",
"Y. c #FFF028",
"T. c #F1D426",
"R. c #809458",
"E. c #B68A49",
"W. c #B7935D",
"Q. c #B0894F",
"!. c #A6A65E",
"~. c #958A71",
"^. c #848471",
"/. c #AD8468",
"(. c #AB996C",
"). c #B79868",
"_. c #B09474",
"`. c #91AD76",
"'. c #B1B176",
"]. c #D29D58",
"[. c #D9AB4D",
"{. c #DEB643",
"}. c #D8BD55",
"|. c #ECBF4B",
" X c #C29F75",
".X c #C5A77C",
"XX c #C8A468",
"oX c #8CE175",
"OX c #E8DA45",
"+X c #FFFF5B",
"@X c #D6D87B",
"#X c #EFEA73",
"$X c #1B45FF",
"%X c #2E4FFE",
"&X c #6A74DC",
"*X c #8B7F93",
"=X c #7BB588",
"-X c #B3998A",
";X c #AEAF85",
":X c #CBA788",
">X c #D4B494",
",X c #94C783",
"<X c #ABF093",
"1X c #D7C89B",
"2X c #E5C89C",
"3X c #FBD09E",
"4X c #D9C3A7",
"5X c #EFCFAB",
"6X c #EDD9AE",
"7X c #FCD4A7",
"8X c #F3DAB9",
"9X c #CBFFAF",
"0X c #FEE5BA",
"qX c #A99DC2",
"wX c #A4BCFF",
"eX c #B6AAD5",
"rX c #D6FFC3",
"tX c #FFEDC5",
"yX c #FFF2CB",
"uX c #FFF9CB",
"iX c #FFFCD7",
"pX c #C2C6EC",
"aX c #FFFFF9",
"sX c #FFFBE4",
"dX c #489848",
/* pixels */
"dXdXdXdXdXdXdXdXdXdXdXdXdXdXdXdXdXdXdXdXdXdXdXdXdXdXdXdXdXdXdXdXdXdXdXdXdXdXdXdXdXdXdXdXdXdXdXdXdXdXdXdXdXdXdXdXdXdXdXdXdXdXdXdXdXdX",
"dXdXdXdXdXdXdXdXdXdXdXdXdXdXdXdXdXdXdXdXdXdXdXdXdXdXdXdXdXdXdXdXdXdXdXdXdXdXdXdXdXdXdXdXdXdXdXdXdXdXdXdXdXdXdXdXdXdXdXdXdXdXdXdXdXdX",
"dXdXdXdXdXdXdXdXdXdXdXdXdXdXdXdXdXdXdXdXdXdXdXdXdXdXdXdXdXdXdXdXdXdXdXdXdXdXdXdXdXdXdXdXdXdXdXdXdXdXdXdXdXdXdXdXdXdXdXdXdXdXdXdXdXdX",
"dXdXdXdXdXdXdXdXdXdXdXdXdXdXdXdXdXdXdXdXdXdXdXdXdXdXdXdXdXdXdXdXdXdXdXdXdXdXdXdXdXdXdXdXdXdXdXdXdXdXdXdXdXdXdXdXdXdXdXdXdXdXdXdXdXdX",
"dXdXdXdXdXdXdXdXdXdXdXdXdXdXdXdXdXdXdXdXdXdXdXdXdXdXdXdXdXdXdXdXdXdXdXdXdXdXdXdXdXdXdXdXdXdXdXdXdXdXdXdXdXdXdXdXdXdXdXdXdXdXdXdXdXdX",
"dXdXdXdXdXdXdXdXdXdXdXdXdXdXdXdXdXdXdXdXdXdXdXdXdXdXdXdXdXdXdXdXdXdXdXdXdXdXdXdXdXdXdXdXdXdXdXdXdXdXdXdXdXdXdXdXdXdXdXdXdXdXdXdXdXdX",
"dXdXdXdXdXdXdXdXdXdXdXdXdXdXdXdXdXdXdXdXdXdXdXdXdXdXdXdXdXdXdXdXdXdXdXdXdXdXdXdXdXdXdXdXdXdXdXdXdXdXdXdXdXdXdXdXdXdXdXdXdXdXdXdXdXdX",
"dXdXdXdXdXdXdXdXdXdXdXdXdXdXdXdXdXdXdXdXdXdXdXdXdXdXdXdXdXdXdXdXdXdXdXdXdXdXdXdXdXdXdXdXdXdXdXdXdXdXdXdXdXdXdXdXdXdXdXdXdXdXdXdXdXdX",
"dXdXdXdXdXdXdXdXdXdXdXdXdXdXdXdXdXdXdXdXdXdXdXdXdXdXdXdXdXdXdXdXdXdXdXdXdXdXdXdXdXdXdXdXdXdXdXdXdXdXdXdXdXdXdXdXdXdXdXdXdXdXdXdXdXdX",
"dXdXdXdXdXdXdXdXdXdXdXdXdXdXdXdXdXdXdXdXdXdXdXdXdXdXdXdXdXdXdXdXdXdXdXdXdXdXdXdXdXdXdXdXdXdXdXdXdXdXdXdXdXdXdXdXdXdXdXdXdXdXdXdXdXdX",
"dXdXdXdXdXdXdXdXdXdXdXdXdXdXdXdXdXdXdXdXdXdXdXdXdXdXdXdXdXdXdXdXdXdXdXdXdXdXdXdXdXdXdXdXdXdXdXdXdXdXdXdXdXdXdXdXdXdXdXdXdXdXdXdXdXdX",
"dXdXdXdXdXdXdXdXdXdXdXdXdXdXdXdXdXdXdXdXdXdXdXdXdXdXdXdXdXdXdXdXdXdXdXdXdXdXdXdXdXdXdXdXdXdXdXdXdXdXdXdXdXdXdXdXdXdXdXdXdXdXdXdXdXdX",
"dXdXdXdXdXdXdXdXdXdXdXdXdXdXdXdXdXdXdXdXdXdXdXdXdXdXdXdXdXdXdXdXdXdXdXdXdXdXdXdXdXdXdXdXdXdXdXdXdXdXdXdXdXdXdXdXdXdXdXdXdXdXdXdXdXdX",
"dXdXdXdXdXdXdXdXdXdXdXdXdXdXdXdXdXdXdXdXdXdXdXdXdXdXdXdXdXdXdXdXdXdXdXdXdXdXdXdXdXdXdXdXdXdXdXdXdXdXdXdXdXdXdXdXdXdXdXdXdXdXdXdXdXdX",
"dXdXdXdXdXdXdXdXdXdXdXdXdXdXdXdXdXdXdXdXdXdXdXdXdXdXdXdXdXdXdXdXdXdXdXdXdXdXdXdXdXdXdXdXdXdXdXdXdXdXdXdXdXdXdXdXdXdXdXdXdXdXdXdXdXdX",
"dXdXdXdXdXdXdXdXdXdXdXdXdXdXdXdXdXdXdXdXdXdXdXdXdXdXdXdXdXdXdXdXdXdXdXdXdXdXdXdXdXdXdXdXdXdXdXdXdXdXdXdXdXdXdXdXdXdXdXdXdXdXdXdXdXdX",
"dXdXdXdXdXdXdXdXdXdXdXdXdXdXdXdXdXdXdXdXdXdXdXdXdXdXdXdXdXdXdXdXdXdXdXdXdXdXdXdXdXdXdXdXdXdXdXdXdXdXdXdXdXdXdXdXdXdXdXdXdXdXdXdXdXdX",
"dXdXdXdXdXdXdXdXdXdXdXdXdXdXdXdXdXdXdXdXdXdXdXdXdXdXdXdXdXdXdXdXdXdXdXdXdXdXdXdXdXdXdXdXdXdXdXdXdXdXdXdXdXdXdXdXdXdXdXdXdXdXdXdXdXdX",
"dXdXdXdXdXdXdXdXdXdXdXdXdXdXdXdXdXdXdXdXdXdXdXdXdXdXdXdXdXdXdXdXdXdXdXdXdXdXdXdXdXdXdXdXdXdXdXdXdXdXdXdXdXdXdXdXdXdXdXdXdXdXdXdXdXdX",
"dXdXdXdXdXdXdXdXdXdXdXdXdXdXdXdXdXdXdXdXdXdXdXdXdXdXdXdXdXdXdX-.<.8.w.8.5.$.M 0 ^ >XdXdXdXdXdXdXdXdXdXdXdXdXdXdXdXdXdXdXdXdXdXdXdXdX",
"dXdXdXdXdXdXdXdXdXdXdXdXdXdXdXdXdXdXdXdXdXdXdXdXdXdXdXdXdXdXj.2.6.8.q.8.6.<.,.k.c.}.dXdXdXdXdXdXdXdXdXdXdXdXdXdXdXdXdXdXdXdXdXdXdXdX",
"dXdXdXdXdXdXdXdXdXdXdXdXdXdXdXdXdXdXdXdXdXdXdXdXdXdXdX,X$.5.7.8.q.q.q.q.9.7.V.L.L.I.[.E.).dXdXdXdXdXdXdXdXdXdXdXdXdXdXdXdXdXdXdXdXdX",
"dXdXdXdXdXdXdXdXdXdXdXdXdXdXdXdXdXdXdXdXdXdXdXdXdXf.h.u.5.0.8.q.8.q.q.q.9.7.p.M.P.L.J.U.b.(.dXdXdXdXdXdXdXdXdXdXdXdXdXdXdXdXdXdXdXdX",
"dXdXdXdXdXdXdXdXdXdXdXdXdXdXdXdXdXdXdXdXdXdXdXdXs.o.$.5.7.q.q.q.0.0.0.8.w.t.A.|.T.I.U.L.P.b..XdXdXdXdXdXdXdXdXdXdXdXdXdXdXdXdXdXdXdX",
"dXdXdXdXdXdXdXdXdXdXdXdXdXdXdXdXdXdXdXdXdXdXdXh X.$.0.8.q.q.q.q.0.8.9.9.e.H.L.J.|.].[.I.L.L.n./ dXdXdXdXdXdXdXdXdXdXdXdXdXdXdXdXdXdX",
"dXdXdXdXdXdXdXdXdXdXdXdXdXdXdXdXdXdXdXdXdXdXf.o.=.$.8.7.8.q.q.q.q.0.q.9.e.K.L.L.v.~ ~ v.Y.L.x.~ dXdXdXdXdXdXdXdXdXdXdXdXdXdXdXdXdXdX",
"dXdXdXdXdXdXdXdXdXdXdXdXdXdXdXdXdXdXdXdXdXa. .-.=.$.<.6.5.q.8.8.8.q.8.e.y.K.J.D.E.[ n _ {.F.z.[ dXdXdXdXdXdXdXdXdXdXdXdXdXdXdXdXdXdX",
"dXdXdXdXdXdXdXdXdXdXdXdXdXdXdXdXdXdXdXdXdXf. .-.;.-.#.-.$.6.7.8.8.7.7.V.K.L.x.` ).:X:X]./ n -XdXdXdXdXdXdXdXdXdXdXdXdXdXdXdXdXdXdXdX",
"dXdXdXdXdXdXdXdXdXdXdXdXdXdXdXdXdXdXdXdX=Xa.o.*.-.*.*.=.#.2.3.2.2.<.<.Z.L.L.b._.5XtX1XD v -XdXdXdXdXdXdXdXdXdXdXdXdXdXdXdXdXdXdXdXdX",
"dXdXdXdXdXdXdXdXdXdXdXdXdXdXdXdXdXdXdXdXh +.;.*.-.-.-.#.#.&.O.X.O.X.X.l.P.L.OX>X4X2X X3 A dXdXdXdXdXdXdXdXdXdXdXdXdXdXdXdXdXdXdXdXdX",
"dXdXdXdXdXdXdXdXdXdXdXdXdXdXdXdXdXdXdXdX| +.-.;.;.:.:.:.+.h a a a g n ^ n.P.+X4Xt : ! X Z dXdXdXdXdXdXdXdXdXdXdXdXdXdXdXdXdXdXdXdXdX",
"dXdXdXdXdXdXdXdXdXdXdXdXdXdXdXdXdXdXdXH | #.;.o.k i i d +.h.h.g.f.M y ~ E.b.#X8XL B V S D dXdXdXdXdXdXdXdXdXdXdXdXdXdXdXdXdXdXdXdXdX",
"dXdXdXdXdXdXdXdXdXdXdXdXdXdXdXdXdXdX  = | #.o.h * . . = @.1XyX0X5X/.0 / [.^  XtXaXwX%XqXW.. dXdXdXdXdXdXdXdXdXdXdXdXdXdXdXdXdXdXdXdX",
"dXdXdXdXdXdXdXdXdXdXdXdXdXdXdXdXdXdX  = | ..g * L dXdXS < Q.7XiXiX:X0 k.G.! ] yXaXwX$XeXXXO I dXdXdXdXdXdXdXdXdXdXdXdXdXdXdXdXdXdXdX",
"dXdXdXdXdXdXdXdXdXdXdXdXdXdXdXdXdXdX  = | j < Z dXdXdXdX  : Q.2X6X:X~ F.J.z ] yXsXpX&X*XK Z dXdXdXdXdXdXdXdXdXdXdXdXdXdXdXdXdXdXdXdX",
"dXdXdXdXdXdXdXdXdXdXdXdXdXdXdXdXdXdX  u h % Z dXdXdXdXI     : Q.Q.Q.].I.S.z ] tXtX8X:Xv 2 dXdXdXdXdXdXdXdXdXdXdXdXdXdXdXdXdXdXdXdXdX",
"dXdXdXdXdXdXdXdXdXdXdXdXdXdXdXdXdXdXdXC = L dXdXdXdXdX@Xl.z.v $ , c I.D.z._ >X7X0X.Xb L dXdXdXdXdXdXdXdXdXdXdXdXdXdXdXdXdXdXdXdXdXdX",
"dXdXdXdXdXdXdXdXdXdXdXdXdXdXdXdXdXdXdXdX2 dXdXdXdXdXdX#XS.m.m .   l P.( t (.;X_._.D 2 dXdXdXdXdXdXdXdXdXdXdXdXdXdXdXdXdXdXdXdXdXdXdX",
"dXdXdXdXdXdXdXdXdXdXdXdXdXdXdXdXdXdXdXdXdXdXdXdXdXdXdX^.O $ - j   9 OXy . g @.k > L dXdXdXdXdXdXdXdXdXdXdXdXdXdXdXdXdXdXdXdXdXdXdXdX",
"dXdXdXdXdXdXdXdXdXdXdXdXdXdXdXdXdXdXdXdXdXdXdXdXdXdXdXdXdX+ % o.i p b > u s }  .u C dXdXdXdXdXdXdXdXdXdXdXdXdXdXdXdXdXdXdXdXdXdXdXdX",
"dXdXdXdXdXdXdXdXdXdXdXdXdXdXdXdXdXdXdXdXdXdXdXdXdXdXdXdXdXv i ;.i.d   i i.>.=.+.:.d O dXdXdXdXdXdXdXdXdXdXdXdXdXdXdXdXdXdXdXdXdXdXdX",
"dXdXdXdXdXdXdXdXdXdXdXdXdXdXdXdXdXdXdXdXdXdXdXdXdXdXdXdX2 ,XoX#.$.x 9 R.<X<XJ ;  .N.D.m P dXdXdXdXdXdXdXdXdXdXdXdXdXdXdXdXdXdXdXdXdX",
"dXdXdXdXdXdXdXdXdXdXdXdXdXdXdXdXdXdXdXdXdXdXdXdXdXdXdXL L h.d.M +.&.! '.9XrXJ   j Z.L.c + dXdXdXdXdXdXdXdXdXdXdXdXdXdXdXdXdXdXdXdXdX",
"dXdXdXdXdXdXdXdXdXdXdXdXdXdXdXdXdXdXdXdXdXdXdXdXdXdX+ ~.6X3 X n &.&.0 (.9X9XH   g C.K.l   .     dXdXdXdXdXdXdXdXdXdXdXdXdXdXdXdXdXdX",
"dXdXdXdXdXdXdXdXdXdXdXdXdXdXdXdXdXdXdXdXdXdXdXdXdXdXdX^.D i { %.N 6 @ `.9X!.(.~.; p N.u @ T 6 . dXdXdXdXdXdXdXdXdXdXdXdXdXdXdXdXdXdX",
"dXdXdXdXdXdXdXdXdXdXdXdXdXdXdXdXdXdXdXdXdXdXdXdXdXdXdXL   &.r.7.-.l & a.`.Q.3XtXG - j * 4 E y A dXdXdXdXdXdXdXdXdXdXdXdXdXdXdXdXdXdX",
"dXdXdXdXdXdXdXdXdXdXdXdXdXdXdXdXdXdXdXdXdXdXdXdXdXdX3 . o d r.7.0.4.4.u t 4XyX0XuX^.. 4 w X ^.dXdXdXdXdXdXdXdXdXdXdXdXdXdXdXdXdXdXdX",
"dXdXdXdXdXdXdXdXdXdXdXdXdXdXdXdXdXdXdXdXdXdXdXdXdXdX. 6 8 > u s 4.8.w.{ * D 4XyX'.v 4 4 7 dXdXdXdXdXdXdXdXdXdXdXdXdXdXdXdXdXdXdXdXdX",
"dXdXdXdXdXdXdXdXdXdXdXdXdXdXdXdXdXdXdXdXdXdXdXdXdXdX+ U Q # . X { 1.1.} u   D >X+ . r , L dXdXdXdXdXdXdXdXdXdXdXdXdXdXdXdXdXdXdXdXdX",
"dXdXdXdXdXdXdXdXdXdXdXdXdXdXdXdXdXdXdXdXdXdXdXdXdXdX. U Q W q w O % % o .   + > .   X dXdXdXdXdXdXdXdXdXdXdXdXdXdXdXdXdXdXdXdXdXdXdX",
"dXdXdXdXdXdXdXdXdXdXdXdXdXdXdXdXdXdXdXdXdXdXdXdXdXdXdXy U E R W 5 @   2 P P P P P P P dXdXdXdXdXdXdXdXdXdXdXdXdXdXdXdXdXdXdXdXdXdXdX",
"dXdXdXdXdXdXdXdXdXdXdXdXdXdXdXdXdXdXdXdXdXdXdXdXdXdXdXdX+ T E r e 6 + dXdXdXdXdXdXdXdXdXdXdXdXdXdXdXdXdXdXdXdXdXdXdXdXdXdXdXdXdXdXdX",
"dXdXdXdXdXdXdXdXdXdXdXdXdXdXdXdXdXdXdXdXdXdXdXdXdXdXdXdXdX, # X @ 1 dXdXdXdXdXdXdXdXdXdXdXdXdXdXdXdXdXdXdXdXdXdXdXdXdXdXdXdXdXdXdXdX",
"dXdXdXdXdXdXdXdXdXdXdXdXdXdXdXdXdXdXdXdXdXdXdXdXdXdXdXdXdX2       Z dXdXdXdXdXdXdXdXdXdXdXdXdXdXdXdXdXdXdXdXdXdXdXdXdXdXdXdXdXdXdXdX",
"dXdXdXdXdXdXdXdXdXdXdXdXdXdXdXdXdXdXdXdXdXdXdXdXdXdXdXdXdXdXdXdXdXdXdXdXdXdXdXdXdXdXdXdXdXdXdXdXdXdXdXdXdXdXdXdXdXdXdXdXdXdXdXdXdXdX",
"dXdXdXdXdXdXdXdXdXdXdXdXdXdXdXdXdXdXdXdXdXdXdXdXdXdXdXdXdXdXdXdXdXdXdXdXdXdXdXdXdXdXdXdXdXdXdXdXdXdXdXdXdXdXdXdXdXdXdXdXdXdXdXdXdXdX",
"dXdXdXdXdXdXdXdXdXdXdXdXdXdXdXdXdXdXdXdXdXdXdXdXdXdXdXdXdXdXdXdXdXdXdXdXdXdXdXdXdXdXdXdXdXdXdXdXdXdXdXdXdXdXdXdXdXdXdXdXdXdXdXdXdXdX",
"dXdXdXdXdXdXdXdXdXdXdXdXdXdXdXdXdXdXdXdXdXdXdXdXdXdXdXdXdXdXdXdXdXdXdXdXdXdXdXdXdXdXdXdXdXdXdXdXdXdXdXdXdXdXdXdXdXdXdXdXdXdXdXdXdXdX",
"dXdXdXdXdXdXdXdXdXdXdXdXdXdXdXdXdXdXdXdXdXdXdXdXdXdXdXdXdXdXdXdXdXdXdXdXdXdXdXdXdXdXdXdXdXdXdXdXdXdXdXdXdXdXdXdXdXdXdXdXdXdXdXdXdXdX",
"dXdXdXdXdXdXdXdXdXdXdXdXdXdXdXdXdXdXdXdXdXdXdXdXdXdXdXdXdXdXdXdXdXdXdXdXdXdXdXdXdXdXdXdXdXdXdXdXdXdXdXdXdXdXdXdXdXdXdXdXdXdXdXdXdXdX",
"dXdXdXdXdXdXdXdXdXdXdXdXdXdXdXdXdXdXdXdXdXdXdXdXdXdXdXdXdXdXdXdXdXdXdXdXdXdXdXdXdXdXdXdXdXdXdXdXdXdXdXdXdXdXdXdXdXdXdXdXdXdXdXdXdXdX",
"dXdXdXdXdXdXdXdXdXdXdXdXdXdXdXdXdXdXdXdXdXdXdXdXdXdXdXdXdXdXdXdXdXdXdXdXdXdXdXdXdXdXdXdXdXdXdXdXdXdXdXdXdXdXdXdXdXdXdXdXdXdXdXdXdXdX",
"dXdXdXdXdXdXdXdXdXdXdXdXdXdXdXdXdXdXdXdXdXdXdXdXdXdXdXdXdXdXdXdXdXdXdXdXdXdXdXdXdXdXdXdXdXdXdXdXdXdXdXdXdXdXdXdXdXdXdXdXdXdXdXdXdXdX",
"dXdXdXdXdXdXdXdXdXdXdXdXdXdXdXdXdXdXdXdXdXdXdXdXdXdXdXdXdXdXdXdXdXdXdXdXdXdXdXdXdXdXdXdXdXdXdXdXdXdXdXdXdXdXdXdXdXdXdXdXdXdXdXdXdXdX",
"dXdXdXdXdXdXdXdXdXdXdXdXdXdXdXdXdXdXdXdXdXdXdXdXdXdXdXdXdXdXdXdXdXdXdXdXdXdXdXdXdXdXdXdXdXdXdXdXdXdXdXdXdXdXdXdXdXdXdXdXdXdXdXdXdXdX",
"dXdXdXdXdXdXdXdXdXdXdXdXdXdXdXdXdXdXdXdXdXdXdXdXdXdXdXdXdXdXdXdXdXdXdXdXdXdXdXdXdXdXdXdXdXdXdXdXdXdXdXdXdXdXdXdXdXdXdXdXdXdXdXdXdXdX",
"dXdXdXdXdXdXdXdXdXdXdXdXdXdXdXdXdXdXdXdXdXdXdXdXdXdXdXdXdXdXdXdXdXdXdXdXdXdXdXdXdXdXdXdXdXdXdXdXdXdXdXdXdXdXdXdXdXdXdXdXdXdXdXdXdXdX",
"dXdXdXdXdXdXdXdXdXdXdXdXdXdXdXdXdXdXdXdXdXdXdXdXdXdXdXdXdXdXdXdXdXdXdXdXdXdXdXdXdXdXdXdXdXdXdXdXdXdXdXdXdXdXdXdXdXdXdXdXdXdXdXdXdXdX",
"dXdXdXdXdXdXdXdXdXdXdXdXdXdXdXdXdXdXdXdXdXdXdXdXdXdXdXdXdXdXdXdXdXdXdXdXdXdXdXdXdXdXdXdXdXdXdXdXdXdXdXdXdXdXdXdXdXdXdXdXdXdXdXdXdXdX",
"dXdXdXdXdXdXdXdXdXdXdXdXdXdXdXdXdXdXdXdXdXdXdXdXdXdXdXdXdXdXdXdXdXdXdXdXdXdXdXdXdXdXdXdXdXdXdXdXdXdXdXdXdXdXdXdXdXdXdXdXdXdXdXdXdXdX",
"dXdXdXdXdXdXdXdXdXdXdXdXdXdXdXdXdXdXdXdXdXdXdXdXdXdXdXdXdXdXdXdXdXdXdXdXdXdXdXdXdXdXdXdXdXdXdXdXdXdXdXdXdXdXdXdXdXdXdXdXdXdXdXdXdXdX",
"dXdXdXdXdXdXdXdXdXdXdXdXdXdXdXdXdXdXdXdXdXdXdXdXdXdXdXdXdXdXdXdXdXdXdXdXdXdXdXdXdXdXdXdXdXdXdXdXdXdXdXdXdXdXdXdXdXdXdXdXdXdXdXdXdXdX"
};
