/* XPM */
static char *result[] = {
/* columns rows colors chars-per-pixel */
"66 72 238 2 ",
"   c #010101",
".  c #060704",
"X  c #140407",
"o  c #001807",
"O  c #16160B",
"+  c #171817",
"@  c #041911",
"#  c #220507",
"$  c #350513",
"%  c #370E11",
"&  c #07280A",
"*  c #043806",
"=  c #033412",
"-  c #093B14",
";  c #17290F",
":  c #2E3518",
">  c #1C1926",
",  c #281A20",
"<  c #292929",
"1  c #262626",
"2  c #373737",
"3  c #2F3228",
"4  c #470B1A",
"5  c #540A1A",
"6  c #571D1C",
"7  c #7C151E",
"8  c #610C1F",
"9  c #452615",
"0  c #562A19",
"q  c #453419",
"w  c #56310E",
"e  c #6C3B1E",
"r  c #511F26",
"t  c #7C1029",
"y  c #640E22",
"u  c #4E322F",
"i  c #773E22",
"p  c #0B4A1A",
"a  c #094C11",
"s  c #0C4716",
"d  c #235416",
"f  c #087304",
"g  c #046C1D",
"h  c #186F1A",
"j  c #2E791C",
"k  c #32751D",
"l  c #2A671C",
"z  c #115023",
"x  c #324635",
"c  c #066623",
"v  c #306B28",
"b  c #4D4D0F",
"n  c #724D1A",
"m  c #57482B",
"M  c #544A39",
"N  c #78483A",
"B  c #7E5735",
"V  c #6F562D",
"C  c #4F672C",
"Z  c #666C2C",
"A  c #7A6F3D",
"S  c #5F6B16",
"D  c #443865",
"F  c #424943",
"G  c #47564B",
"H  c #5C5858",
"J  c #534F4B",
"K  c #6C5A48",
"L  c #785646",
"P  c #457C42",
"I  c #62695A",
"U  c #6D7052",
"Y  c #564360",
"T  c #646464",
"R  c #727273",
"E  c #7C7778",
"W  c #72706C",
"Q  c #891C1C",
"!  c #A41F1E",
"~  c #A7201C",
"^  c #86122C",
"/  c #94142F",
"(  c #B42221",
")  c #CC2429",
"_  c #E12731",
"`  c #FA2E2F",
"'  c #805905",
"]  c #835027",
"[  c #956837",
"{  c #8B643A",
"}  c #A66E3C",
"|  c #816B5A",
" . c #947357",
".. c #A47B43",
"X. c #A57753",
"o. c #BE7548",
"O. c #8A7868",
"+. c #837D7B",
"@. c #875748",
"#. c #2B9719",
"$. c #288A15",
"%. c #32B71A",
"&. c #14832A",
"*. c #198729",
"=. c #139725",
"-. c #268B29",
";. c #378B28",
":. c #25942A",
">. c #359C2A",
",. c #3A9B24",
"<. c #288A39",
"1. c #3EA42A",
"2. c #3DA829",
"3. c #37B423",
"4. c #28B52F",
"5. c #0DA511",
"6. c #598327",
"7. c #44962B",
"8. c #429D29",
"9. c #49992B",
"0. c #419232",
"q. c #7A9C3E",
"w. c #42A228",
"e. c #44AA2A",
"r. c #47B32C",
"t. c #4AAB33",
"y. c #488C0B",
"u. c #06CA05",
"i. c #0CC519",
"p. c #2BC71A",
"a. c #22D814",
"s. c #26DC0B",
"d. c #17EB0D",
"f. c #03FE05",
"g. c #0CFD06",
"h. c #06F709",
"j. c #12F509",
"k. c #10F808",
"l. c #15FB06",
"z. c #1EE917",
"x. c #39FC05",
"c. c #2BF21A",
"v. c #55DA06",
"b. c #66DC0C",
"n. c #4CF709",
"m. c #61CF2E",
"M. c #49825B",
"N. c #73AB50",
"B. c #4C9A62",
"V. c #6FB065",
"C. c #62C150",
"Z. c #988200",
"A. c #8B9A00",
"S. c #AC8A14",
"D. c #B49711",
"F. c #AEB10F",
"G. c #B18935",
"H. c #AEA821",
"J. c #86B125",
"K. c #C5B31D",
"L. c #C08F3A",
"P. c #C3A924",
"I. c #C8A93B",
"U. c #C9B429",
"Y. c #E7BB3F",
"T. c #80D90E",
"R. c #95F902",
"E. c #B4ED0A",
"W. c #9CD328",
"Q. c #DDCB0A",
"!. c #D4CC13",
"~. c #EADF16",
"^. c #D8F801",
"/. c #E8E209",
"(. c #FEFE01",
"). c #F6F702",
"_. c #F4E718",
"`. c #F1F110",
"'. c #E9D337",
"]. c #E8D230",
"[. c #F9E523",
"{. c #AA8444",
"}. c #B48848",
"|. c #AC8559",
" X c #B18C52",
".X c #9CAD43",
"XX c #BEAD4B",
"oX c #9D8566",
"OX c #B79767",
"+X c #B29875",
"@X c #8CBA7A",
"#X c #8CB56D",
"$X c #A9A674",
"%X c #CB9D4E",
"&X c #C99657",
"*X c #C28E57",
"=X c #D7A94D",
"-X c #D8AE51",
";X c #EFBA46",
":X c #C5A97D",
">X c #CA947C",
",X c #92C46F",
"<X c #7272B4",
"1X c #3966FF",
"2X c #636FDE",
"3X c #4B6FFF",
"4X c #6171F1",
"5X c #73B782",
"6X c #A29E96",
"7X c #BBBB86",
"8X c #C8AB88",
"9X c #D9B98C",
"0X c #D1AC92",
"qX c #EABC86",
"wX c #D8BDAD",
"eX c #9CD18D",
"rX c #A9D294",
"tX c #BEFFA5",
"yX c #AFEC98",
"uX c #DBC280",
"iX c #EAC59B",
"pX c #F1CC9B",
"aX c #D0C5A5",
"sX c #E9CBA4",
"dX c #F8DBB5",
"fX c #EFD9AE",
"gX c #C8FFAD",
"hX c #D3FFB6",
"jX c #FEE8B6",
"kX c #F9EFA6",
"lX c #8792E9",
"zX c #FFE8C3",
"xX c #E6FFC8",
"cX c #FCFAC9",
"vX c #FFFEDC",
"bX c #FFFFE7",
"nX c #ECEFF8",
"mX c #489848",
/* pixels */
"mXmXmXmXmXmXmXmXmXmXmXmXmXmXmXmXmXmXmXmXmXmXmXmXmXmXmXmXmXmXmXmXmXmXmXmXmXmXmXmXmXmXmXmXmXmXmXmXmXmXmXmXmXmXmXmXmXmXmXmXmXmXmXmXmXmX",
"mXmXmXmXmXmXmXmXmXmXmXmXmXmXmXmXmXmXmXmXmXmXmXmXmXmXmXmXmXmXmXmXmXmXmXmXmXmXmXmXmXmXmXmXmXmXmXmXmXmXmXmXmXmXmXmXmXmXmXmXmXmXmXmXmXmX",
"mXmXmXmXmXmXmXmXmXmXmXmXmXmXmXmXmXmXmXmXmXmXmXmXmXmXmXmXmXmXmXmXmXmXmXmXmXmXmXmXmXmXmXmXmXmXmXmXmXmXmXmXmXmXmXmXmXmXmXmXmXmXmXmXmXmX",
"mXmXmXmXmXmXmXmXmXmXmXmXmXmXmXmXmXmXmXmXmXmXmXmXmXmXmXmXmXmXmXmXmXmXmXmXmXmXmXmXmXmXmXmXmXmXmXmXmXmXmXmXmXmXmXmXmXmXmXmXmXmXmXmXmXmX",
"mXmXmXmXmXmXmXmXmXmXmXmXmXmXmXmXmXmXmXmXmXmXmXmXmXmXmXmXmXmXmXmXmXmXmXmXmXmXmXmXmXmXmXmXmXmXmXmXmXmXmXmXmXmXmXmXmXmXmXmXmXmXmXmXmXmX",
"mXmXmXmXmXmXmXmXmXmXmXmXmXmXmXmXmXmXmXmXmXmXmXmXmXmXmXmXmXmXmXmXmXmXmXmXmXmXmXmXmXmXmXmXmXmXmXmXmXmXmXmXmXmXmXmXmXmXmXmXmXmXmXmXmXmX",
"mXmXmXmXmXmXmXmXmXmXmXmXmXmXmXmXmXmXmXmXmXmXmXmXmXmXmXmXmXmXmXmXmXmXmXmXmXmXmXmXmXmXmXmXmXmXmXmXmXmXmXmXmXmXmXmXmXmXmXmXmXmXmXmXmXmX",
"mXmXmXmXmXmXmXmXmXmXmXmXmXmXmXmXmXmXmXmXmXmXmXmXmXmXmXmXmXmXmXmXmXmXmXmXmXmXmXmXmXmXmXmXmXmXmXmXmXmXmXmXmXmXmXmXmXmXmXmXmXmXmXmXmXmX",
"mXmXmXmXmXmXmXmXmXmXmXmXmXmXmXmXmXmXmXmXmXmXmXmXmXmXmXmXmXmXmXmXmXmXmXmXmXmXmXmXmXmXmXmXmXmXmXmXmXmXmXmXmXmXmXmXmXmXmXmXmXmXmXmXmXmX",
"mXmXmXmXmXmXmXmXmXmXmXmXmXmXmXmXmXmXmXmXmXmXmXmXmXmXmXmXmXmXmXmXmXmXmXmXmXmXmXmXmXmXmXmXmXmXmXmXmXmXmXmXmXmXmXmXmXmXmXmXmXmXmXmXmXmX",
"mXmXmXmXmXmXmXmXmXmXmXmXmXmXmXmXmXmXmXmXmXmXmXmXmXmXmXmXmXmXmXmXmXmXmXmXmXmXmXmXmXmXmXmXmXmXmXmXmXmXmXmXmXmXmXmXmXmXmXmXmXmXmXmXmXmX",
"mXmXmXmXmXmXmXmXmXmXmXmXmXmXmXmXmXmXmXmXmXmXmXmXmXmXmXmXmXmXmXmXmXmXmXmXmXmXmXmXmXmXmXmXmXmXmXmXmXmXmXmXmXmXmXmXmXmXmXmXmXmXmXmXmXmX",
"mXmXmXmXmXmXmXmXmXmXmXmXmXmXmXmXmXmXmXmXmXmXmXmXmXmXmXmXmXmXmXmXmXmXmXmXmXmXmXmXmXmXmXmXmXmXmXmXmXmXmXmXmXmXmXmXmXmXmXmXmXmXmXmXmXmX",
"mXmXmXmXmXmXmXmXmXmXmXmXmXmXmXmXmXmXmXmXmXmXmXmXmXmXmXmXmXmXmXmXmXmXmXmXmXmXmXmXmXmXmXmXmXmXmXmXmXmXmXmXmXmXmXmXmXmXmXmXmXmXmXmXmXmX",
"mXmXmXmXmXmXmXmXmXmXmXmXmXmXmXmXmXmXmXmXmXmXmXmXmXmXmXmXmXmXmXmXmXmXmXmXmXmXmXmXmXmXmXmXmXmXmXmXmXmXmXmXmXmXmXmXmXmXmXmXmXmXmXmXmXmX",
"mXmXmXmXmXmXmXmXmXmXmXmXmXmXmXmXmXmXmXmXmXmXmXmXmXmXmXmXmXmXmXmXmXmXmXmXmXmXmXmXmXmXmXmXmXmXmXmXmXmXmXmXmXmXmXmXmXmXmXmXmXmXmXmXmXmX",
"mXmXmXmXmXmXmXmXmXmXmXmXmXmXmXmXmXmXmXmXmXmXmXmXmXmXmXmXmXmXmXmXmXmXmXmXmXmXmXmXmXmXmXmXmXmXmXmXmXmXmXmXmXmXmXmXmXmXmXmXmXmXmXmXmXmX",
"mXmXmXmXmXmXmXmXmXmXmXmXmXmXmXmXmXmXmXmXmXmXmXmXmXmXmXmXmXmXmXmXmXmXmXmXmXmXmXmXmXmXmXmXmXmXmXmXmXmXmXmXmXmXmXmXmXmXmXmXmXmXmXmXmXmX",
"mXmXmXmXmXmXmXmXmXmXmXmXmXmXmXmXmXmXmXmXmXmXmXmXmXmXmXmXmXmXmXmXmXmXmXmXmXmXmXmXmXmXmXmXmXmXmXmXmXmXmXmXmXmXmXmXmXmXmXmXmXmXmXmXmXmX",
"mXmXmXmXmXmXmXmXmXmXmXmXmXmXmXmXmXmXmXmXmXmXmXmXmXmXmXeXw.8.p.k.g.k.k.g.d.3.C i { 9XmXmXmXmXmXmXmXmXmXmXmXmXmXmXmXmXmXmXmXmXmXmXmXmX",
"mXmXmXmXmXmXmXmXmXmXmXmXmXmXmXmXmXmXmXmXmXmXmXmXmXmXmXN.p.p.a.g.k.k.k.f.l.T.F.D.K.-XmXmXmXmXmXmXmXmXmXmXmXmXmXmXmXmXmXmXmXmXmXmXmXmX",
"mXmXmXmXmXmXmXmXmXmXmXmXmXmXmXmXmXmXmXmXmXmXmXmXmXmXt.a.g.g.g.k.k.k.k.h.n.^.(.(.(._.-X}.OXmXmXmXmXmXmXmXmXmXmXmXmXmXmXmXmXmXmXmXmXmX",
"mXmXmXmXmXmXmXmXmXmXmXmXmXmXmXmXmXmXmXmXmXmXmXB.V.C.s.j.g.g.g.j.l.h.g.m.%X;X;X].(.(.`./.U.+XmXmXmXmXmXmXmXmXmXmXmXmXmXmXmXmXmXmXmXmX",
"mXmXmXmXmXmXmXmXmXmXmXmXmXmXmXmXmXmXmXmXmXmX5X*.;.3.g.f.k.k.k.k.j.f.h.W.Y.Y.%X&X]._._.(.).P.:XmXmXmXmXmXmXmXmXmXmXmXmXmXmXmXmXmXmXmX",
"mXmXmXmXmXmXmXmXmXmXmXmXmXmXmXmXmXmXmXmXmXM.:.1.9.3.j.g.k.k.k.k.k.f.f.R.(.(.K...&X-X=X].(.(.U...mXmXmXmXmXmXmXmXmXmXmXmXmXmXmXmXmXmX",
"mXmXmXmXmXmXmXmXmXmXmXmXmXmXmXmXmXmXmXmXH v 2.2.w.2.3.d.g.g.j.k.k.h.f.R.(.(.!.{ ] ..-X;X[.(.!...mXmXmXmXmXmXmXmXmXmXmXmXmXmXmXmXmXmX",
"mXmXmXmXmXmXmXmXmXmXmXmXmXmXmXmXmXmXmXmX. j r.w.8.8.7.%.d.g.g.g.h.l.x.E.)./.I.X.N [ =X&XI.Q.I.OXmXmXmXmXmXmXmXmXmXmXmXmXmXmXmXmXmXmX",
"mXmXmXmXmXmXmXmXmXmXmXmXmXmXmXmXmXmXmXmX  k r.w.1.w.8.8.3.j.g.g.f.n.^.)./.G.|.8X8XOX}.{.[ ] 8XmXmXmXmXmXmXmXmXmXmXmXmXmXmXmXmXmXmXmX",
"mXmXmXmXmXmXmXmXmXmXmXmXmXmXmXmXmXmXE G p ;.e.w.8.1.,.8.8.p.p.p.i.b.(.(./. X0XzXdXoXq +XmXmXmXmXmXmXmXmXmXmXmXmXmXmXmXmXmXmXmXmXmXmX",
"mXmXmXmXmXmXmXmXmXmXmXmXmXmXmXmXmXmX  = *.>.w.8.8.w.1.1.,.7.,.,.>.J./.(._.uXwXaX9XK X mXmXmXmXmXmXmXmXmXmXmXmXmXmXmXmXmXmXmXmXmXmXmX",
"mXmXmXmXmXmXmXmXmXmXmXmXmXmXmXmXmXmX  = &.>.w.1.w.e.e.,.#.#.#.>..X%XG.Q.[.kXO.O n w . mXmXmXmXmXmXmXmXmXmXmXmXmXmXmXmXmXmXmXmXmXmXmX",
"mXmXmXmXmXmXmXmXmXmXmXmXmXmXmXmXmXmX  = &.>.e.w.>.:.:.N.,X#X.XN.{.o.|.H.'.kX6XY D Y M W mXmXmXmXmXmXmXmXmXmXmXmXmXmXmXmXmXmXmXmXmXmX",
"mXmXmXmXmXmXmXmXmXmXmXmXmXmXmXmXmXmX  = h >.e.>.*.c c #XzXzXdX8XB ] =XG.|.sXbXnX3X2X9Xm 2 mXmXmXmXmXmXmXmXmXmXmXmXmXmXmXmXmXmXmXmXmX",
"mXmXmXmXmXmXmXmXmXmXmXmXmXmXmXmXmXmX  = &.>.2.:.p o @ Z qXjXvXdXL ' _.S.@.iXbXnX1X4XpXm 1 mXmXmXmXmXmXmXmXmXmXmXmXmXmXmXmXmXmXmXmXmX",
"mXmXmXmXmXmXmXmXmXmXmXmXmXmXmXmXmXmX  = &.2.;.z x F . # V 8XfXiXX.S.).D.i sXbXnXlX<X .J E mXmXmXmXmXmXmXmXmXmXmXmXmXmXmXmXmXmXmXmXmX",
"mXmXmXmXmXmXmXmXmXmXmXmXmXmXmXmXmXmX  = <.4.k   mXmX+   O [ }.{.*X'.(.' L sXcXdXfX| . mXmXmXmXmXmXmXmXmXmXmXmXmXmXmXmXmXmXmXmXmXmXmX",
"mXmXmXmXmXmXmXmXmXmXmXmXmXmXmXmXmXmXmXG - :.h   mXmXH.H.{ 9 % q K._.D.o.8XiXdXiX .M mXmXmXmXmXmXmXmXmXmXmXmXmXmXmXmXmXmXmXmXmXmXmXmX",
"mXmXmXmXmXmXmXmXmXmXmXmXmXmXmXmXmXmXmXmX3 p z 3 mXmX!.].} ; .   F.Q.0 U 7X+X+XO.2 mXmXmXmXmXmXmXmXmXmXmXmXmXmXmXmXmXmXmXmXmXmXmXmXmX",
"mXmXmXmXmXmXmXmXmXmXmXmXmXmXmXmXmXmXmXmXmX+ < mXmXmXx ; O c =   L.L.X s <.<.1 > mXmXmXmXmXmXmXmXmXmXmXmXmXmXmXmXmXmXmXmXmXmXmXmXmXmX",
"mXmXmXmXmXmXmXmXmXmXmXmXmXmXmXmXmXmXmXmXmXmXmXmXmXmX+   : -.*.d q.Z   * =.=.y.S 6XmXmXmXmXmXmXmXmXmXmXmXmXmXmXmXmXmXmXmXmXmXmXmXmXmX",
"mXmXmXmXmXmXmXmXmXmXmXmXmXmXmXmXmXmXmXmXmXmXmXmXmXmX3 9 n 7.r.e.w.l @ v r.;.E.(.b G mXmXmXmXmXmXmXmXmXmXmXmXmXmXmXmXmXmXmXmXmXmXmXmX",
"mXmXmXmXmXmXmXmXmXmXmXmXmXmXmXmXmXmXmXmXmXmXmXmXmXF eXU X 0 6.2.S A @XrXV.o Z.(.v.&.2 mXmXmXmXmXmXmXmXmXmXmXmXmXmXmXmXmXmXmXmXmXmXmX",
"mXmXmXmXmXmXmXmXmXmXmXmXmXmXmXmXmXmXmXmXmXmXmXmXH U @XC ; m Z S % L hXxXeXG b A.x.u.  T mXmXmXmXmXmXmXmXmXmXmXmXmXmXmXmXmXmXmXmXmXmX",
"mXmXmXmXmXmXmXmXmXmXmXmXmXmXmXmXmXmXmXmXmXmXmX. oX+X. a r.3.6.e X x yXgXgXhXI   u.5.    . . mXmXmXmXmXmXmXmXmXmXmXmXmXmXmXmXmXmXmXmX",
"mXmXmXmXmXmXmXmXmXmXmXmXmXmXmXmXmXmXmXmXmXmXmXmXI 3   - 4.z.s.%.$.: 2 @XxXxXaX+.h a 5 7 ! ( 6 u mXmXmXmXmXmXmXmXmXmXmXmXmXmXmXmXmXmX",
"mXmXmXmXmXmXmXmXmXmXmXmXmXmXmXmXmXmXmXmXmXmXmXmXJ # # + g i.f.g.c.$.o C rXfXvXzX,   ^ _ ` ) 6 < mXmXmXmXmXmXmXmXmXmXmXmXmXmXmXmXmXmX",
"mXmXmXmXmXmXmXmXmXmXmXmXmXmXmXmXmXmXmXmXmXmXmX+ Q ) ^ $ o c i.l.g.c.2.* , :XcXfX3   ^ _ ( X +.mXmXmXmXmXmXmXmXmXmXmXmXmXmXmXmXmXmXmX",
"mXmXmXmXmXmXmXmXmXmXmXmXmXmXmXmXmXmXmXmXmXmXmX  ~ ` / $   @ a f f f d .   u U K r y ^ 7 6 mXmXmXmXmXmXmXmXmXmXmXmXmXmXmXmXmXmXmXmXmX",
"mXmXmXmXmXmXmXmXmXmXmXmXmXmXmXmXmXmXmXmXmXmXmX. Q ) / $ . 1 < < < < < < +       5 ^ y , T mXmXmXmXmXmXmXmXmXmXmXmXmXmXmXmXmXmXmXmXmX",
"mXmXmXmXmXmXmXmXmXmXmXmXmXmXmXmXmXmXmXmXmXmXmX  5 / ^ $ + mXmXmXmXmXmXmXmX.     X X X mXmXmXmXmXmXmXmXmXmXmXmXmXmXmXmXmXmXmXmXmXmXmX",
"mXmXmXmXmXmXmXmXmXmXmXmXmXmXmXmXmXmXmXmXmXmXmX  4 / ^ 4 @ mXmXmXmXmXmXmXmXmXR R R R E mXmXmXmXmXmXmXmXmXmXmXmXmXmXmXmXmXmXmXmXmXmXmX",
"mXmXmXmXmXmXmXmXmXmXmXmXmXmXmXmXmXmXmXmXmXmXmX+ 4 t t % 2 mXmXmXmXmXmXmXmXmXmXmXmXmXmXmXmXmXmXmXmXmXmXmXmXmXmXmXmXmXmXmXmXmXmXmXmXmX",
"mXmXmXmXmXmXmXmXmXmXmXmXmXmXmXmXmXmXmXmXmXmXmXmX2 $ # H mXmXmXmXmXmXmXmXmXmXmXmXmXmXmXmXmXmXmXmXmXmXmXmXmXmXmXmXmXmXmXmXmXmXmXmXmXmX",
"mXmXmXmXmXmXmXmXmXmXmXmXmXmXmXmXmXmXmXmXmXmXmXmXT     mXmXmXmXmXmXmXmXmXmXmXmXmXmXmXmXmXmXmXmXmXmXmXmXmXmXmXmXmXmXmXmXmXmXmXmXmXmXmX",
"mXmXmXmXmXmXmXmXmXmXmXmXmXmXmXmXmXmXmXmXmXmXmXmXmXmXmXmXmXmXmXmXmXmXmXmXmXmXmXmXmXmXmXmXmXmXmXmXmXmXmXmXmXmXmXmXmXmXmXmXmXmXmXmXmXmX",
"mXmXmXmXmXmXmXmXmXmXmXmXmXmXmXmXmXmXmXmXmXmXmXmXmXmXmXmXmXmXmXmXmXmXmXmXmXmXmXmXmXmXmXmXmXmXmXmXmXmXmXmXmXmXmXmXmXmXmXmXmXmXmXmXmXmX",
"mXmXmXmXmXmXmXmXmXmXmXmXmXmXmXmXmXmXmXmXmXmXmXmXmXmXmXmXmXmXmXmXmXmXmXmXmXmXmXmXmXmXmXmXmXmXmXmXmXmXmXmXmXmXmXmXmXmXmXmXmXmXmXmXmXmX",
"mXmXmXmXmXmXmXmXmXmXmXmXmXmXmXmXmXmXmXmXmXmXmXmXmXmXmXmXmXmXmXmXmXmXmXmXmXmXmXmXmXmXmXmXmXmXmXmXmXmXmXmXmXmXmXmXmXmXmXmXmXmXmXmXmXmX",
"mXmXmXmXmXmXmXmXmXmXmXmXmXmXmXmXmXmXmXmXmXmXmXmXmXmXmXmXmXmXmXmXmXmXmXmXmXmXmXmXmXmXmXmXmXmXmXmXmXmXmXmXmXmXmXmXmXmXmXmXmXmXmXmXmXmX",
"mXmXmXmXmXmXmXmXmXmXmXmXmXmXmXmXmXmXmXmXmXmXmXmXmXmXmXmXmXmXmXmXmXmXmXmXmXmXmXmXmXmXmXmXmXmXmXmXmXmXmXmXmXmXmXmXmXmXmXmXmXmXmXmXmXmX",
"mXmXmXmXmXmXmXmXmXmXmXmXmXmXmXmXmXmXmXmXmXmXmXmXmXmXmXmXmXmXmXmXmXmXmXmXmXmXmXmXmXmXmXmXmXmXmXmXmXmXmXmXmXmXmXmXmXmXmXmXmXmXmXmXmXmX",
"mXmXmXmXmXmXmXmXmXmXmXmXmXmXmXmXmXmXmXmXmXmXmXmXmXmXmXmXmXmXmXmXmXmXmXmXmXmXmXmXmXmXmXmXmXmXmXmXmXmXmXmXmXmXmXmXmXmXmXmXmXmXmXmXmXmX",
"mXmXmXmXmXmXmXmXmXmXmXmXmXmXmXmXmXmXmXmXmXmXmXmXmXmXmXmXmXmXmXmXmXmXmXmXmXmXmXmXmXmXmXmXmXmXmXmXmXmXmXmXmXmXmXmXmXmXmXmXmXmXmXmXmXmX",
"mXmXmXmXmXmXmXmXmXmXmXmXmXmXmXmXmXmXmXmXmXmXmXmXmXmXmXmXmXmXmXmXmXmXmXmXmXmXmXmXmXmXmXmXmXmXmXmXmXmXmXmXmXmXmXmXmXmXmXmXmXmXmXmXmXmX",
"mXmXmXmXmXmXmXmXmXmXmXmXmXmXmXmXmXmXmXmXmXmXmXmXmXmXmXmXmXmXmXmXmXmXmXmXmXmXmXmXmXmXmXmXmXmXmXmXmXmXmXmXmXmXmXmXmXmXmXmXmXmXmXmXmXmX",
"mXmXmXmXmXmXmXmXmXmXmXmXmXmXmXmXmXmXmXmXmXmXmXmXmXmXmXmXmXmXmXmXmXmXmXmXmXmXmXmXmXmXmXmXmXmXmXmXmXmXmXmXmXmXmXmXmXmXmXmXmXmXmXmXmXmX",
"mXmXmXmXmXmXmXmXmXmXmXmXmXmXmXmXmXmXmXmXmXmXmXmXmXmXmXmXmXmXmXmXmXmXmXmXmXmXmXmXmXmXmXmXmXmXmXmXmXmXmXmXmXmXmXmXmXmXmXmXmXmXmXmXmXmX",
"mXmXmXmXmXmXmXmXmXmXmXmXmXmXmXmXmXmXmXmXmXmXmXmXmXmXmXmXmXmXmXmXmXmXmXmXmXmXmXmXmXmXmXmXmXmXmXmXmXmXmXmXmXmXmXmXmXmXmXmXmXmXmXmXmXmX",
"mXmXmXmXmXmXmXmXmXmXmXmXmXmXmXmXmXmXmXmXmXmXmXmXmXmXmXmXmXmXmXmXmXmXmXmXmXmXmXmXmXmXmXmXmXmXmXmXmXmXmXmXmXmXmXmXmXmXmXmXmXmXmXmXmXmX",
"mXmXmXmXmXmXmXmXmXmXmXmXmXmXmXmXmXmXmXmXmXmXmXmXmXmXmXmXmXmXmXmXmXmXmXmXmXmXmXmXmXmXmXmXmXmXmXmXmXmXmXmXmXmXmXmXmXmXmXmXmXmXmXmXmXmX",
"mXmXmXmXmXmXmXmXmXmXmXmXmXmXmXmXmXmXmXmXmXmXmXmXmXmXmXmXmXmXmXmXmXmXmXmXmXmXmXmXmXmXmXmXmXmXmXmXmXmXmXmXmXmXmXmXmXmXmXmXmXmXmXmXmXmX",
"mXmXmXmXmXmXmXmXmXmXmXmXmXmXmXmXmXmXmXmXmXmXmXmXmXmXmXmXmXmXmXmXmXmXmXmXmXmXmXmXmXmXmXmXmXmXmXmXmXmXmXmXmXmXmXmXmXmXmXmXmXmXmXmXmXmX"
};
