/* XPM */
static char *result[] = {
/* columns rows colors chars-per-pixel */
"66 72 226 2 ",
"   c #010101",
".  c #090806",
"X  c #180506",
"o  c #041404",
"O  c #13120D",
"+  c #0C0E12",
"@  c #160E12",
"#  c #131212",
"$  c #191C17",
"%  c #0D1915",
"&  c #210607",
"*  c #280000",
"=  c #3A010A",
"-  c #2A1B0B",
";  c #261C16",
":  c #3C0816",
">  c #043C16",
",  c #193517",
"<  c #102F0B",
"1  c #27241A",
"2  c #332C0D",
"3  c #211A23",
"4  c #1E2A23",
"5  c #242324",
"6  c gray16",
"7  c #36312A",
"8  c #31322B",
"9  c #470A18",
"0  c #500E15",
"q  c #740515",
"w  c #4A2E13",
"e  c #693C14",
"r  c #6B0C25",
"t  c #4B3327",
"y  c #4F3632",
"u  c #662021",
"i  c #763B23",
"p  c #72382E",
"a  c #11531A",
"s  c #114912",
"d  c #255016",
"f  c #077D04",
"g  c #1B6A11",
"h  c #0D7B1D",
"j  c #1A7D18",
"k  c #1C7800",
"l  c #2B4E28",
"z  c #0F6C26",
"x  c #2D7923",
"c  c #4E5E17",
"v  c #64441B",
"b  c #5E4F2E",
"n  c #6D4D2E",
"m  c #586324",
"M  c #484848",
"N  c #415347",
"B  c #695B48",
"V  c #745759",
"C  c #516F50",
"Z  c #716256",
"A  c #6C674D",
"S  c #696767",
"D  c #747473",
"F  c #7D7D7D",
"G  c #7C7576",
"H  c #801819",
"J  c #A61F1D",
"K  c #8B142D",
"L  c #8C1428",
"P  c #A41926",
"I  c #BC2323",
"U  c #95362E",
"Y  c #C92524",
"T  c #D12726",
"R  c #FF3332",
"E  c #EB3234",
"W  c #895E16",
"Q  c #845724",
"!  c #8B5D3A",
"~  c #896732",
"^  c #A67238",
"/  c #912E44",
"(  c #875847",
")  c #94774B",
"_  c #946F51",
"`  c #A8764B",
"'  c #976D61",
"]  c #8C716F",
"[  c #038201",
"{  c #19881C",
"}  c #2A911F",
"|  c #32B91E",
" . c #1E8D2C",
".. c #19932B",
"X. c #018223",
"o. c #298C29",
"O. c #398A24",
"+. c #2A982C",
"@. c #3A9C24",
"#. c #3A9D2A",
"$. c #3B9526",
"%. c #30893B",
"&. c #2F8D3C",
"*. c #1FA426",
"=. c #3BA727",
"-. c #38B326",
";. c #2BA62D",
":. c #449114",
">. c #509215",
",. c #4CAE18",
"<. c #429E2A",
"1. c #47962C",
"2. c #439E34",
"3. c #679F37",
"4. c #42A128",
"5. c #46A829",
"6. c #45B02D",
"7. c #1CD60E",
"8. c #2EC21C",
"9. c #26D616",
"0. c #17EC0D",
"q. c #03FF03",
"w. c #0CFD06",
"e. c #0CFA08",
"r. c #04F80B",
"t. c #12F509",
"y. c #10F908",
"u. c #15FE04",
"i. c #04EA0E",
"p. c #2EF60F",
"a. c #3ED227",
"s. c #73F905",
"d. c #62D22B",
"f. c #4DEB13",
"g. c #2D8643",
"h. c #51A24F",
"j. c #61BD4F",
"k. c #7AA771",
"l. c #8B8904",
"z. c #B09B06",
"x. c #B6AD0B",
"c. c #AC8737",
"v. c #B4922F",
"b. c #BDAB27",
"n. c #C9B517",
"m. c #C7B60F",
"M. c #C9A832",
"N. c #90D40F",
"B. c #A3C213",
"V. c #85EE0E",
"C. c #D2C11B",
"Z. c #E4DE02",
"A. c #C5FE02",
"S. c #CEEE15",
"D. c #EAE40B",
"F. c #F4ED06",
"G. c #E7F604",
"H. c #FEFE01",
"J. c #F8F505",
"K. c #EFE118",
"L. c #F6EC16",
"P. c #FFFF11",
"I. c #EACA34",
"U. c #F0CD2B",
"Y. c #F8E522",
"T. c #F5F021",
"R. c #B8894D",
"E. c #BB9C44",
"W. c #A7895B",
"Q. c #BB8C59",
"!. c #9EA441",
"~. c #A8A741",
"^. c #8F9172",
"/. c #908873",
"(. c #AD8767",
"). c #B78369",
"_. c #B38F7C",
"`. c #84B275",
"'. c #B7B37A",
"]. c #CC995C",
"[. c #CE944F",
"{. c #D7AA4A",
"}. c #D5AA4D",
"|. c #E4B64F",
" X c #C6A469",
".X c #C7A97C",
"XX c #E4BD7F",
"oX c #8FCA7C",
"OX c #E0C365",
"+X c #F8F87B",
"@X c #7F7F80",
"#X c #7C78B6",
"$X c #2A5AFF",
"%X c #4158DD",
"&X c #5971F3",
"*X c #7B8486",
"=X c #A38F89",
"-X c #B7A88B",
";X c #C6B68A",
":X c #CBB193",
">X c #D895A5",
",X c #CFB8A4",
"<X c #A2CA95",
"1X c #B3E595",
"2X c #ABED9C",
"3X c #BAF3A2",
"4X c #D5CA9E",
"5X c #C3CF9D",
"6X c #E4C59E",
"7X c #E8C798",
"8X c #EEE096",
"9X c #E8C8A8",
"0X c #EFCFA9",
"qX c #D2F0B3",
"wX c #F9E5BB",
"eX c #FFF9B1",
"rX c #B6BDD8",
"tX c #8A8EEC",
"yX c #E3DDDF",
"uX c #DAFFC4",
"iX c #FDEAC4",
"pX c #FFFCD5",
"aX c #F4F2CF",
"sX c #DEE1F5",
"dX c #F8FCF1",
"fX c #489848",
/* pixels */
"fXfXfXfXfXfXfXfXfXfXfXfXfXfXfXfXfXfXfXfXfXfXfXfXfXfXfXfXfXfXfXfXfXfXfXfXfXfXfXfXfXfXfXfXfXfXfXfXfXfXfXfXfXfXfXfXfXfXfXfXfXfXfXfXfXfX",
"fXfXfXfXfXfXfXfXfXfXfXfXfXfXfXfXfXfXfXfXfXfXfXfXfXfXfXfXfXfXfXfXfXfXfXfXfXfXfXfXfXfXfXfXfXfXfXfXfXfXfXfXfXfXfXfXfXfXfXfXfXfXfXfXfXfX",
"fXfXfXfXfXfXfXfXfXfXfXfXfXfXfXfXfXfXfXfXfXfXfXfXfXfXfXfXfXfXfXfXfXfXfXfXfXfXfXfXfXfXfXfXfXfXfXfXfXfXfXfXfXfXfXfXfXfXfXfXfXfXfXfXfXfX",
"fXfXfXfXfXfXfXfXfXfXfXfXfXfXfXfXfXfXfXfXfXfXfXfXfXfXfXfXfXfXfXfXfXfXfXfXfXfXfXfXfXfXfXfXfXfXfXfXfXfXfXfXfXfXfXfXfXfXfXfXfXfXfXfXfXfX",
"fXfXfXfXfXfXfXfXfXfXfXfXfXfXfXfXfXfXfXfXfXfXfXfXfXfXfXfXfXfXfXfXfXfXfXfXfXfXfXfXfXfXfXfXfXfXfXfXfXfXfXfXfXfXfXfXfXfXfXfXfXfXfXfXfXfX",
"fXfXfXfXfXfXfXfXfXfXfXfXfXfXfXfXfXfXfXfXfXfXfXfXfXfXfXfXfXfXfXfXfXfXfXfXfXfXfXfXfXfXfXfXfXfXfXfXfXfXfXfXfXfXfXfXfXfXfXfXfXfXfXfXfXfX",
"fXfXfXfXfXfXfXfXfXfXfXfXfXfXfXfXfXfXfXfXfXfXfXfXfXfXfXfXfXfXfXfXfXfXfXfXfXfXfXfXfXfXfXfXfXfXfXfXfXfXfXfXfXfXfXfXfXfXfXfXfXfXfXfXfXfX",
"fXfXfXfXfXfXfXfXfXfXfXfXfXfXfXfXfXfXfXfXfXfXfXfXfXfXfXfXfXfXfXfXfXfXfXfXfXfXfXfXfXfXfXfXfXfXfXfXfXfXfXfXfXfXfXfXfXfXfXfXfXfXfXfXfXfX",
"fXfXfXfXfXfXfXfXfXfXfXfXfXfXfXfXfXfXfXfXfXfXfXfXfXfXfXfXfXfXfXfXfXfXfXfXfXfXfXfXfXfXfXfXfXfXfXfXfXfXfXfXfXfXfXfXfXfXfXfXfXfXfXfXfXfX",
"fXfXfXfXfXfXfXfXfXfXfXfXfXfXfXfXfXfXfXfXfXfXfXfXfXfXfXfXfXfXfXfXfXfXfXfXfXfXfXfXfXfXfXfXfXfXfXfXfXfXfXfXfXfXfXfXfXfXfXfXfXfXfXfXfXfX",
"fXfXfXfXfXfXfXfXfXfXfXfXfXfXfXfXfXfXfXfXfXfXfXfXfXfXfXfXfXfXfXfXfXfXfXfXfXfXfXfXfXfXfXfXfXfXfXfXfXfXfXfXfXfXfXfXfXfXfXfXfXfXfXfXfXfX",
"fXfXfXfXfXfXfXfXfXfXfXfXfXfXfXfXfXfXfXfXfXfXfXfXfXfXfXfXfXfXfXfXfXfXfXfXfXfXfXfXfXfXfXfXfXfXfXfXfXfXfXfXfXfXfXfXfXfXfXfXfXfXfXfXfXfX",
"fXfXfXfXfXfXfXfXfXfXfXfXfXfXfXfXfXfXfXfXfXfXfXfXfXfXfXfXfXfXfXfXfXfXfXfXfXfXfXfXfXfXfXfXfXfXfXfXfXfXfXfXfXfXfXfXfXfXfXfXfXfXfXfXfXfX",
"fXfXfXfXfXfXfXfXfXfXfXfXfXfXfXfXfXfXfXfXfXfXfXfXfXfXfXfXfXfXfXfXfXfXfXfXfXfXfXfXfXfXfXfXfXfXfXfXfXfXfXfXfXfXfXfXfXfXfXfXfXfXfXfXfXfX",
"fXfXfXfXfXfXfXfXfXfXfXfXfXfXfXfXfXfXfXfXfXfXfXfXfXfXfXfXfXfXfXfXfXfXfXfXfXfXfXfXfXfXfXfXfXfXfXfXfXfXfXfXfXfXfXfXfXfXfXfXfXfXfXfXfXfX",
"fXfXfXfXfXfXfXfXfXfXfXfXfXfXfXfXfXfXfXfXfXfXfXfXfXfXfXfXfXfXfXfXfXfXfXfXfXfXfXfXfXfXfXfXfXfXfXfXfXfXfXfXfXfXfXfXfXfXfXfXfXfXfXfXfXfX",
"fXfXfXfXfXfXfXfXfXfXfXfXfXfXfXfXfXfXfXfXfXfXfXfXfXfXfXfXfXfXfXfXfXfXfXfXfXfXfXfXfXfXfXfXfXfXfXfXfXfXfXfXfXfXfXfXfXfXfXfXfXfXfXfXfXfX",
"fXfXfXfXfXfXfXfXfXfXfXfXfXfXfXfXfXfXfXfXfXfXfXfXfXfXfXfXfXfXfXfXfXfXfXfXfXfXfXfXfXfXfXfXfXfXfXfXfXfXfXfXfXfXfXfXfXfXfXfXfXfXfXfXfXfX",
"fXfXfXfXfXfXfXfXfXfXfXfXfXfXfXfXfXfXfXfXfXfXfXfXfXfXfXfXfXfXfXfXfXfXfXfXfXfXfXfXfXfXfXfXfXfXfXfXfXfXfXfXfXfXfXfXfXfXfXfXfXfXfXfXfXfX",
"fXfXfXfXfXfXfXfXfXfXfXfXfXfXfXfXfXfXfXfXfXfXfXfXfXfXfXfXfXfXfXfXfXfXfXfXfXfXfXfXfXfXfXfXfXfXfXfXfXfXfXfXfXfXfXfXfXfXfXfXfXfXfXfXfXfX",
"fXfXfXfXfXfXfXfXfXfXfXfXfXfXfXfXfXfXfXfXfXfXfXfXfXfXfXfX<X=.0.w.u.y.u.0.-.m i ( 9XfXfXfXfXfXfXfXfXfXfXfXfXfXfXfXfXfXfXfXfXfXfXfXfXfX",
"fXfXfXfXfXfXfXfXfXfXfXfXfXfXfXfXfXfXfXfXfXfXfXfXfXfX<X<Xj.9.t.q.t.t.q.u.V.x.x.n.OX0X,XfXfXfXfXfXfXfXfXfXfXfXfXfXfXfXfXfXfXfXfXfXfXfX",
"fXfXfXfXfXfXfXfXfXfXfXfXfXfXfXfXfXfXfXfXfXfXfXfXfXoX=.=.7.w.w.t.e.w.t.f.G.P.H.H.Y.}.c.;XfXfXfXfXfXfXfXfXfXfXfXfXfXfXfXfXfXfXfXfXfXfX",
"fXfXfXfXfXfXfXfXfXfXfXfXfXfXfXfXfXfXfXfXfXfXfXg.h.a.t.0.y.u.t.t.e.q.d.].}.}.I.J.H.J.F.M.=XfXfXfXfXfXfXfXfXfXfXfXfXfXfXfXfXfXfXfXfXfX",
"fXfXfXfXfXfXfXfXfXfXfXfXfXfXfXfXfXfXfXfXfXfXh.o.1.9.q.q.w.y.y.t.e.q.V.U.U.{.R.I.U.L.H.D.M.;XfXfXfXfXfXfXfXfXfXfXfXfXfXfXfXfXfXfXfXfX",
"fXfXfXfXfXfXfXfXfXfXfXfXfXfXfXfXfXfXfXfXfXz +.5.2.8.t.y.y.y.y.y.e.r.V.H.J.n._ R.].}.K.H.J.c.:XfXfXfXfXfXfXfXfXfXfXfXfXfXfXfXfXfXfXfX",
"fXfXfXfXfXfXfXfXfXfXfXfXfXfXfXfXfXfXfXfX4 z +.5.4.4.| t.w.y.y.e.r.r.s.H.H.C.! i ^ |.|.L.H.c.:XfXfXfXfXfXfXfXfXfXfXfXfXfXfXfXfXfXfXfX",
"fXfXfXfXfXfXfXfXfXfXfXfXfXfXfXfXfXfXfXD o x =.4.=.1.4.| 0.w.q.q.u.s.A.F.m.E.W._ ` [.[.v.z.:XfXfXfXfXfXfXfXfXfXfXfXfXfXfXfXfXfXfXfXfX",
"fXfXfXfXfXfXfXfXfXfXfXfXfXfXfXfXfXfXfXfXo O.6.<.<.#.<.1.8.t.0.i.p.G.H.D.c._.9X7X(.! W._ ' fXfXfXfXfXfXfXfXfXfXfXfXfXfXfXfXfXfXfXfXfX",
"fXfXfXfXfXfXfXfXfXfXfXfXfXfXfXfXfXfXfXfX. O.6.4.4.4.<.4.5.=.=.*.,.G.H.D. X9XiX0XB 7 fXfXfXfXfXfXfXfXfXfXfXfXfXfXfXfXfXfXfXfXfXfXfXfX",
"fXfXfXfXfXfXfXfXfXfXfXfXfXfXfXfXfXfX=XN a $.5.4.4.5.<.{ h j } 3.v.b.Z.P.8X=XB R.2 6 fXfXfXfXfXfXfXfXfXfXfXfXfXfXfXfXfXfXfXfXfXfXfXfX",
"fXfXfXfXfXfXfXfXfXfXfXfXfXfXfXfXfXfX  > ..=.4.<.#.#.@.%.%.%.2.!.[.` n.T.eXG + t t 7 fXfXfXfXfXfXfXfXfXfXfXfXfXfXfXfXfXfXfXfXfXfXfXfX",
"fXfXfXfXfXfXfXfXfXfXfXfXfXfXfXfXfXfX  s ..#.5.#...h &.5XqX4X-X) ! [.v.[.0XaXrX%X#XW.6 fXfXfXfXfXfXfXfXfXfXfXfXfXfXfXfXfXfXfXfXfXfXfX",
"fXfXfXfXfXfXfXfXfXfXfXfXfXfXfXfXfXfX@XN a $.6. .s < l .XwXpXiX' e C.v.( 6XdXsX$XtXXX; S fXfXfXfXfXfXfXfXfXfXfXfXfXfXfXfXfXfXfXfXfXfX",
"fXfXfXfXfXfXfXfXfXfXfXfXfXfXfXfXfXfXfXfX. O.+.a 3 % . e  XwXwX(.W F.z.n 7XdXsX&XtXc.7 fXfXfXfXfXfXfXfXfXfXfXfXfXfXfXfXfXfXfXfXfXfXfX",
"fXfXfXfXfXfXfXfXfXfXfXfXfXfXfXfXfXfXfXF o z z % fXfX    b ].Q.R.{.H.z.p 9XpXaX9XZ 1 fXfXfXfXfXfXfXfXfXfXfXfXfXfXfXfXfXfXfXfXfXfXfXfX",
"fXfXfXfXfXfXfXfXfXfXfXfXfXfXfXfXfXfXfXfXS > 8 fXfXfXl.~ t w w v.L.m.c.).7XwX7X_ Z fXfXfXfXfXfXfXfXfXfXfXfXfXfXfXfXfXfXfXfXfXfXfXfXfX",
"fXfXfXfXfXfXfXfXfXfXfXfXfXfXfXfXfXfXfXfXfX8 fXfXfX8XD.I.b     l.F.v V ;X'.;X'   G fXfXfXfXfXfXfXfXfXfXfXfXfXfXfXfXfXfXfXfXfXfXfXfXfX",
"fXfXfXfXfXfXfXfXfXfXfXfXfXfXfXfXfXfXfXfXfXfXfXfXfX^.2 - s z o n M.= > %.&.l O   # M fXfXfXfXfXfXfXfXfXfXfXfXfXfXfXfXfXfXfXfXfXfXfXfX",
"fXfXfXfXfXfXfXfXfXfXfXfXfXfXfXfXfXfXfXfXfXfXfXfXfXfXfXfXC s   A '.+ < { X.o . C ^.Z D fXfXfXfXfXfXfXfXfXfXfXfXfXfXfXfXfXfXfXfXfXfXfX",
"fXfXfXfXfXfXfXfXfXfXfXfXfXfXfXfXfXfXfXfXfXfXfXfXfXfXfXfXG   $ k.2X1 d 5. .< 2 oXpX0X1 D fXfXfXfXfXfXfXfXfXfXfXfXfXfXfXfXfXfXfXfXfXfX",
"fXfXfXfXfXfXfXfXfXfXfXfXfXfXfXfXfXfXfXfXfXfXfXfXfXfXfXM # o `.qX1Xn c =.+.B.C.- ] ;X1 D fXfXfXfXfXfXfXfXfXfXfXfXfXfXfXfXfXfXfXfXfXfX",
"fXfXfXfXfXfXfXfXfXfXfXfXfXfXfXfXfXfXfXfXfXfXfXfXfXfXS   7 ^.3XuX1Xt d 6.;.S.H.k d B D fXfXfXfXfXfXfXfXfXfXfXfXfXfXfXfXfXfXfXfXfXfXfX",
"fXfXfXfXfXfXfXfXfXfXfXfXfXfXfXfXfXfXfXfXfXfXfXfXfXS   ; /.pXqX3X`.$ < >.1.B.A.p.[ 6 fXfXfXfXfXfXfXfXfXfXfXfXfXfXfXfXfXfXfXfXfXfXfXfX",
"fXfXfXfXfXfXfXfXfXfXfXfXfXfXfXfXfXfXfXfXfXfXfXfXM o % -XiXeXaX/.O u i i u >.u.u.[ 6 fXfXfXfXfXfXfXfXfXfXfXfXfXfXfXfXfXfXfXfXfXfXfXfX",
"fXfXfXfXfXfXfXfXfXfXfXfXfXfXfXfXfXfXfXfXfXfXfXfXO = U 0XpXwX' 7 s $.,.:.>.7.q.p.g # S =X*XF fXfXfXfXfXfXfXfXfXfXfXfXfXfXfXfXfXfXfXfX",
"fXfXfXfXfXfXfXfXfXfXfXfXfXfXfXfXfXfXfXfXfXfXfXfX5 q E ).4X-XO s a.w.q.q.e.e.9.@.,   X & & & S fXfXfXfXfXfXfXfXfXfXfXfXfXfXfXfXfXfXfX",
"fXfXfXfXfXfXfXfXfXfXfXfXfXfXfXfXfXfXfXfXfXfXfXfX# 0 K ; $ 5 x 9.u.u.w.u.u.p.@.o   X J T I Y u 5 fXfXfXfXfXfXfXfXfXfXfXfXfXfXfXfXfXfX",
"fXfXfXfXfXfXfXfXfXfXfXfXfXfXfXfXfXfXfXfXfXfXfXfXfXy : : X   d j [ f f f [ g l *XV 9 P E R R H   fXfXfXfXfXfXfXfXfXfXfXfXfXfXfXfXfXfX",
"fXfXfXfXfXfXfXfXfXfXfXfXfXfXfXfXfXfXfXfXfXfXfXfXfXfX5 r 9   $ 5 5 5 5 5 5 # 3 yX>Xq r K Y Y u 5 fXfXfXfXfXfXfXfXfXfXfXfXfXfXfXfXfXfX",
"fXfXfXfXfXfXfXfXfXfXfXfXfXfXfXfXfXfXfXfXfXfXfXfXfXfXfX@ . + fXfXfXfXfXfXfXS @ / / K K 9 X & S fXfXfXfXfXfXfXfXfXfXfXfXfXfXfXfXfXfXfX",
"fXfXfXfXfXfXfXfXfXfXfXfXfXfXfXfXfXfXfXfXfXfXfXfXfXfXfXfX@XfXfXfXfXfXfXfXfXfXS * = 9 : y *X] fXfXfXfXfXfXfXfXfXfXfXfXfXfXfXfXfXfXfXfX",
"fXfXfXfXfXfXfXfXfXfXfXfXfXfXfXfXfXfXfXfXfXfXfXfXfXfXfXfXfXfXfXfXfXfXfXfXfXfXfX5       @XfXfXfXfXfXfXfXfXfXfXfXfXfXfXfXfXfXfXfXfXfXfX",
"fXfXfXfXfXfXfXfXfXfXfXfXfXfXfXfXfXfXfXfXfXfXfXfXfXfXfXfXfXfXfXfXfXfXfXfXfXfXfXfXfXfXfXfXfXfXfXfXfXfXfXfXfXfXfXfXfXfXfXfXfXfXfXfXfXfX",
"fXfXfXfXfXfXfXfXfXfXfXfXfXfXfXfXfXfXfXfXfXfXfXfXfXfXfXfXfXfXfXfXfXfXfXfXfXfXfXfXfXfXfXfXfXfXfXfXfXfXfXfXfXfXfXfXfXfXfXfXfXfXfXfXfXfX",
"fXfXfXfXfXfXfXfXfXfXfXfXfXfXfXfXfXfXfXfXfXfXfXfXfXfXfXfXfXfXfXfXfXfXfXfXfXfXfXfXfXfXfXfXfXfXfXfXfXfXfXfXfXfXfXfXfXfXfXfXfXfXfXfXfXfX",
"fXfXfXfXfXfXfXfXfXfXfXfXfXfXfXfXfXfXfXfXfXfXfXfXfXfXfXfXfXfXfXfXfXfXfXfXfXfXfXfXfXfXfXfXfXfXfXfXfXfXfXfXfXfXfXfXfXfXfXfXfXfXfXfXfXfX",
"fXfXfXfXfXfXfXfXfXfXfXfXfXfXfXfXfXfXfXfXfXfXfXfXfXfXfXfXfXfXfXfXfXfXfXfXfXfXfXfXfXfXfXfXfXfXfXfXfXfXfXfXfXfXfXfXfXfXfXfXfXfXfXfXfXfX",
"fXfXfXfXfXfXfXfXfXfXfXfXfXfXfXfXfXfXfXfXfXfXfXfXfXfXfXfXfXfXfXfXfXfXfXfXfXfXfXfXfXfXfXfXfXfXfXfXfXfXfXfXfXfXfXfXfXfXfXfXfXfXfXfXfXfX",
"fXfXfXfXfXfXfXfXfXfXfXfXfXfXfXfXfXfXfXfXfXfXfXfXfXfXfXfXfXfXfXfXfXfXfXfXfXfXfXfXfXfXfXfXfXfXfXfXfXfXfXfXfXfXfXfXfXfXfXfXfXfXfXfXfXfX",
"fXfXfXfXfXfXfXfXfXfXfXfXfXfXfXfXfXfXfXfXfXfXfXfXfXfXfXfXfXfXfXfXfXfXfXfXfXfXfXfXfXfXfXfXfXfXfXfXfXfXfXfXfXfXfXfXfXfXfXfXfXfXfXfXfXfX",
"fXfXfXfXfXfXfXfXfXfXfXfXfXfXfXfXfXfXfXfXfXfXfXfXfXfXfXfXfXfXfXfXfXfXfXfXfXfXfXfXfXfXfXfXfXfXfXfXfXfXfXfXfXfXfXfXfXfXfXfXfXfXfXfXfXfX",
"fXfXfXfXfXfXfXfXfXfXfXfXfXfXfXfXfXfXfXfXfXfXfXfXfXfXfXfXfXfXfXfXfXfXfXfXfXfXfXfXfXfXfXfXfXfXfXfXfXfXfXfXfXfXfXfXfXfXfXfXfXfXfXfXfXfX",
"fXfXfXfXfXfXfXfXfXfXfXfXfXfXfXfXfXfXfXfXfXfXfXfXfXfXfXfXfXfXfXfXfXfXfXfXfXfXfXfXfXfXfXfXfXfXfXfXfXfXfXfXfXfXfXfXfXfXfXfXfXfXfXfXfXfX",
"fXfXfXfXfXfXfXfXfXfXfXfXfXfXfXfXfXfXfXfXfXfXfXfXfXfXfXfXfXfXfXfXfXfXfXfXfXfXfXfXfXfXfXfXfXfXfXfXfXfXfXfXfXfXfXfXfXfXfXfXfXfXfXfXfXfX",
"fXfXfXfXfXfXfXfXfXfXfXfXfXfXfXfXfXfXfXfXfXfXfXfXfXfXfXfXfXfXfXfXfXfXfXfXfXfXfXfXfXfXfXfXfXfXfXfXfXfXfXfXfXfXfXfXfXfXfXfXfXfXfXfXfXfX",
"fXfXfXfXfXfXfXfXfXfXfXfXfXfXfXfXfXfXfXfXfXfXfXfXfXfXfXfXfXfXfXfXfXfXfXfXfXfXfXfXfXfXfXfXfXfXfXfXfXfXfXfXfXfXfXfXfXfXfXfXfXfXfXfXfXfX",
"fXfXfXfXfXfXfXfXfXfXfXfXfXfXfXfXfXfXfXfXfXfXfXfXfXfXfXfXfXfXfXfXfXfXfXfXfXfXfXfXfXfXfXfXfXfXfXfXfXfXfXfXfXfXfXfXfXfXfXfXfXfXfXfXfXfX",
"fXfXfXfXfXfXfXfXfXfXfXfXfXfXfXfXfXfXfXfXfXfXfXfXfXfXfXfXfXfXfXfXfXfXfXfXfXfXfXfXfXfXfXfXfXfXfXfXfXfXfXfXfXfXfXfXfXfXfXfXfXfXfXfXfXfX",
"fXfXfXfXfXfXfXfXfXfXfXfXfXfXfXfXfXfXfXfXfXfXfXfXfXfXfXfXfXfXfXfXfXfXfXfXfXfXfXfXfXfXfXfXfXfXfXfXfXfXfXfXfXfXfXfXfXfXfXfXfXfXfXfXfXfX",
"fXfXfXfXfXfXfXfXfXfXfXfXfXfXfXfXfXfXfXfXfXfXfXfXfXfXfXfXfXfXfXfXfXfXfXfXfXfXfXfXfXfXfXfXfXfXfXfXfXfXfXfXfXfXfXfXfXfXfXfXfXfXfXfXfXfX",
"fXfXfXfXfXfXfXfXfXfXfXfXfXfXfXfXfXfXfXfXfXfXfXfXfXfXfXfXfXfXfXfXfXfXfXfXfXfXfXfXfXfXfXfXfXfXfXfXfXfXfXfXfXfXfXfXfXfXfXfXfXfXfXfXfXfX"
};
