/* XPM */
static char *result[] = {
/* columns rows colors chars-per-pixel */
"66 72 221 2 ",
"   c #000101",
".  c #090605",
"X  c #150308",
"o  c #081606",
"O  c #181909",
"+  c #1F1E1D",
"@  c #181B15",
"#  c #1A0314",
"$  c #380811",
"%  c #261214",
"&  c #2A0D0D",
"*  c #042508",
"=  c #013609",
"-  c #1F2316",
";  c #063A15",
":  c #1B3917",
">  c #102B0A",
",  c #292907",
"<  c #27241A",
"1  c #383718",
"2  c #242424",
"3  c #272A2C",
"4  c #263123",
"5  c gray22",
"6  c #382F29",
"7  c #46090D",
"8  c #4A0A19",
"9  c #570D1B",
"0  c #6F1516",
"q  c #4D2D13",
"w  c #52331C",
"e  c #653C1E",
"r  c #451723",
"t  c #7D112A",
"y  c #770C29",
"u  c #5D3A38",
"i  c #4D2F34",
"p  c #753F27",
"a  c #12490A",
"s  c #11520B",
"d  c #134C16",
"f  c #2C591C",
"g  c #147B1D",
"h  c #0A680D",
"j  c #2B6C16",
"k  c #164426",
"l  c #2A4530",
"z  c #147526",
"x  c #11702B",
"c  c #236C2F",
"v  c #2F7626",
"b  c #734805",
"n  c #63511E",
"m  c #525425",
"M  c #784A32",
"N  c #6C4E30",
"B  c #516426",
"V  c gray29",
"C  c #434544",
"Z  c #5A4846",
"A  c #495B47",
"S  c #6B5D40",
"D  c #54694A",
"F  c #536D4F",
"G  c #767153",
"H  c #686867",
"J  c #787777",
"K  c #8C1A1B",
"L  c #A21F1D",
"P  c #AE1624",
"I  c #853629",
"U  c #BE202E",
"Y  c #8C122F",
"T  c #D62728",
"R  c #FE2F2F",
"E  c #E62B2B",
"W  c #8C641D",
"Q  c #864F2C",
"!  c #926431",
"~  c #825347",
"^  c #977543",
"/  c #987558",
"(  c #8E6D4D",
")  c #A77C4B",
"_  c #8B7B73",
"`  c #A27766",
"'  c #3C9312",
"]  c #18862B",
"[  c #189628",
"{  c #0A8220",
"}  c #288C27",
"|  c #368822",
" . c #3C9D29",
".. c #389728",
"X. c #28843D",
"o. c #2F9435",
"O. c #2AAC25",
"+. c #38A727",
"@. c #3CB124",
"#. c #35B622",
"$. c #38B10F",
"%. c #429D29",
"&. c #45952C",
"*. c #4E8F24",
"=. c #42A228",
"-. c #4AA62A",
";. c #46AC2B",
":. c #48B52D",
">. c #47A730",
",. c #5CA310",
"<. c #1DDA15",
"1. c #00C50C",
"2. c #2BC71A",
"3. c #26D615",
"4. c #24CB0D",
"5. c #0AE60B",
"6. c #17EB0D",
"7. c #04FF03",
"8. c #0CFD06",
"9. c #07FA09",
"0. c #12F50A",
"q. c #10F808",
"w. c #15FB07",
"e. c #29F808",
"r. c #3EC02D",
"t. c #41F410",
"y. c #6CFC01",
"u. c #47DB2C",
"i. c #68CD31",
"p. c #2D8641",
"a. c #318C41",
"s. c #489445",
"d. c #6B8959",
"f. c #58B243",
"g. c #4D9961",
"h. c #6E866C",
"j. c #74AF75",
"k. c #73FB6E",
"l. c #8F801A",
"z. c #AE9010",
"x. c #BDAA0E",
"c. c #938426",
"v. c #B28D38",
"b. c #AF8C35",
"n. c #A4A728",
"m. c #C5B50C",
"M. c #C1A928",
"N. c #C8AA33",
"B. c #CBA82B",
"V. c #9CD912",
"C. c #8FF906",
"Z. c #B6E01F",
"A. c #DACA15",
"S. c #C9DA06",
"D. c #E1DA06",
"F. c #ECDF16",
"G. c #D7F701",
"H. c #EAFA01",
"J. c #F4F302",
"K. c #FFFF00",
"L. c #FEF907",
"P. c #F6E61F",
"I. c #EFE909",
"U. c #D9C738",
"Y. c #ECD52B",
"T. c #EDCE2F",
"R. c #F7F822",
"E. c #AD8645",
"W. c #B49256",
"Q. c #B18C76",
"!. c #AD9878",
"~. c #B2956B",
"^. c #BAA179",
"/. c #C2895D",
"(. c #CB9C57",
"). c #CB9C45",
"_. c #D2A647",
"`. c #F2B445",
"'. c #CBAD72",
"]. c #88DC6C",
"[. c #DDD346",
"{. c #F4ED4D",
"}. c #E0C365",
"|. c #FAF76D",
" X c #7F7F80",
".X c #3F4DCC",
"XX c #294EFF",
"oX c #4D5EDB",
"OX c #73AF82",
"+X c #7586D8",
"@X c #AD958B",
"#X c #B5958D",
"$X c #83AA8F",
"%X c #B8A78C",
"&X c #CAAF86",
"*X c #C7B88B",
"=X c #C6A793",
"-X c #D4AA8D",
";X c #E5BB9B",
":X c #D2B8A6",
">X c #94E58B",
",X c #CAC58D",
"<X c #E0C29A",
"1X c #DBCDAB",
"2X c #E6CBA6",
"3X c #FBD9B2",
"4X c #F1D4AF",
"5X c #CBFFB4",
"6X c #D0F9AF",
"7X c #FFE6BA",
"8X c #E2E0B8",
"9X c #8EA7FA",
"0X c #DBDBD0",
"qX c #F4DCC2",
"wX c #FBECC6",
"eX c #FFF4CD",
"rX c #FFF9D4",
"tX c #E7ECC3",
"yX c #FFFEEA",
"uX c white",
"iX c #489848",
/* pixels */
"iXiXiXiXiXiXiXiXiXiXiXiXiXiXiXiXiXiXiXiXiXiXiXiXiXiXiXiXiXiXiXiXiXiXiXiXiXiXiXiXiXiXiXiXiXiXiXiXiXiXiXiXiXiXiXiXiXiXiXiXiXiXiXiXiXiX",
"iXiXiXiXiXiXiXiXiXiXiXiXiXiXiXiXiXiXiXiXiXiXiXiXiXiXiXiXiXiXiXiXiXiXiXiXiXiXiXiXiXiXiXiXiXiXiXiXiXiXiXiXiXiXiXiXiXiXiXiXiXiXiXiXiXiX",
"iXiXiXiXiXiXiXiXiXiXiXiXiXiXiXiXiXiXiXiXiXiXiXiXiXiXiXiXiXiXiXiXiXiXiXiXiXiXiXiXiXiXiXiXiXiXiXiXiXiXiXiXiXiXiXiXiXiXiXiXiXiXiXiXiXiX",
"iXiXiXiXiXiXiXiXiXiXiXiXiXiXiXiXiXiXiXiXiXiXiXiXiXiXiXiXiXiXiXiXiXiXiXiXiXiXiXiXiXiXiXiXiXiXiXiXiXiXiXiXiXiXiXiXiXiXiXiXiXiXiXiXiXiX",
"iXiXiXiXiXiXiXiXiXiXiXiXiXiXiXiXiXiXiXiXiXiXiXiXiXiXiXiXiXiXiXiXiXiXiXiXiXiXiXiXiXiXiXiXiXiXiXiXiXiXiXiXiXiXiXiXiXiXiXiXiXiXiXiXiXiX",
"iXiXiXiXiXiXiXiXiXiXiXiXiXiXiXiXiXiXiXiXiXiXiXiXiXiXiXiXiXiXiXiXiXiXiXiXiXiXiXiXiXiXiXiXiXiXiXiXiXiXiXiXiXiXiXiXiXiXiXiXiXiXiXiXiXiX",
"iXiXiXiXiXiXiXiXiXiXiXiXiXiXiXiXiXiXiXiXiXiXiXiXiXiXiXiXiXiXiXiXiXiXiXiXiXiXiXiXiXiXiXiXiXiXiXiXiXiXiXiXiXiXiXiXiXiXiXiXiXiXiXiXiXiX",
"iXiXiXiXiXiXiXiXiXiXiXiXiXiXiXiXiXiXiXiXiXiXiXiXiXiXiXiXiXiXiXiXiXiXiXiXiXiXiXiXiXiXiXiXiXiXiXiXiXiXiXiXiXiXiXiXiXiXiXiXiXiXiXiXiXiX",
"iXiXiXiXiXiXiXiXiXiXiXiXiXiXiXiXiXiXiXiXiXiXiXiXiXiXiXiXiXiXiXiXiXiXiXiXiXiXiXiXiXiXiXiXiXiXiXiXiXiXiXiXiXiXiXiXiXiXiXiXiXiXiXiXiXiX",
"iXiXiXiXiXiXiXiXiXiXiXiXiXiXiXiXiXiXiXiXiXiXiXiXiXiXiXiXiXiXiXiXiXiXiXiXiXiXiXiXiXiXiXiXiXiXiXiXiXiXiXiXiXiXiXiXiXiXiXiXiXiXiXiXiXiX",
"iXiXiXiXiXiXiXiXiXiXiXiXiXiXiXiXiXiXiXiXiXiXiXiXiXiXiXiXiXiXiXiXiXiXiXiXiXiXiXiXiXiXiXiXiXiXiXiXiXiXiXiXiXiXiXiXiXiXiXiXiXiXiXiXiXiX",
"iXiXiXiXiXiXiXiXiXiXiXiXiXiXiXiXiXiXiXiXiXiXiXiXiXiXiXiXiXiXiXiXiXiXiXiXiXiXiXiXiXiXiXiXiXiXiXiXiXiXiXiXiXiXiXiXiXiXiXiXiXiXiXiXiXiX",
"iXiXiXiXiXiXiXiXiXiXiXiXiXiXiXiXiXiXiXiXiXiXiXiXiXiXiXiXiXiXiXiXiXiXiXiXiXiXiXiXiXiXiXiXiXiXiXiXiXiXiXiXiXiXiXiXiXiXiXiXiXiXiXiXiXiX",
"iXiXiXiXiXiXiXiXiXiXiXiXiXiXiXiXiXiXiXiXiXiXiXiXiXiXiXiXiXiXiXiXiXiXiXiXiXiXiXiXiXiXiXiXiXiXiXiXiXiXiXiXiXiXiXiXiXiXiXiXiXiXiXiXiXiX",
"iXiXiXiXiXiXiXiXiXiXiXiXiXiXiXiXiXiXiXiXiXiXiXiXiXiXiXiXiXiXiXiXiXiXiXiXiXiXiXiXiXiXiXiXiXiXiXiXiXiXiXiXiXiXiXiXiXiXiXiXiXiXiXiXiXiX",
"iXiXiXiXiXiXiXiXiXiXiXiXiXiXiXiXiXiXiXiXiXiXiXiXiXiXiXiXiXiXiXiXiXiXiXiXiXiXiXiXiXiXiXiXiXiXiXiXiXiXiXiXiXiXiXiXiXiXiXiXiXiXiXiXiXiX",
"iXiXiXiXiXiXiXiXiXiXiXiXiXiXiXiXiXiXiXiXiXiXiXiXiXiXiXiXiXiXiXiXiXiXiXiXiXiXiXiXiXiXiXiXiXiXiXiXiXiXiXiXiXiXiXiXiXiXiXiXiXiXiXiXiXiX",
"iXiXiXiXiXiXiXiXiXiXiXiXiXiXiXiXiXiXiXiXiXiXiXiXiXiXiXiXiXiXiXiXiXiXiXiXiXiXiXiXiXiXiXiXiXiXiXiXiXiXiXiXiXiXiXiXiXiXiXiXiXiXiXiXiXiX",
"iXiXiXiXiXiXiXiXiXiXiXiXiXiXiXiXiXiXiXiXiXiXiXiXiXiXiXiXiXiXiXiXiXiXiXiXiXiXiXiXiXiXiXiXiXiXiXiXiXiXiXiXiXiXiXiXiXiXiXiXiXiXiXiXiXiX",
"iXiXiXiXiXiXiXiXiXiXiXiXiXiXiXiXiXiXiXiXiXiXiXiXiXiXiXiXiXiXiXiXiXiXiXiXiXiXiXiXiXiXiXiXiXiXiXiXiXiXiXiXiXiXiXiXiXiXiXiXiXiXiXiXiXiX",
"iXiXiXiXiXiXiXiXiXiXiXiXiXiXiXiXiXiXiXiXiXiXiXiXiXiXiXiXiXiXf.2.8.w.8.6.#.B M ! 2XiXiXiXiXiXiXiXiXiXiXiXiXiXiXiXiXiXiXiXiXiXiXiXiXiX",
"iXiXiXiXiXiXiXiXiXiXiXiXiXiXiXiXiXiXiXiXiXiXiXiXiXiXiXiX>Xk.2.<.8.w.8.0.<.,.m.B.}.1X:XiXiXiXiXiXiXiXiXiXiXiXiXiXiXiXiXiXiXiXiXiXiXiX",
"iXiXiXiXiXiXiXiXiXiXiXiXiXiXiXiXiXiXiXiXiXiXiXiXiXiXiX;.3.8.8.8.q.q.q.9.7.C.L.K.P._.v.&XiXiXiXiXiXiXiXiXiXiXiXiXiXiXiXiXiXiXiXiXiXiX",
"iXiXiXiXiXiXiXiXiXiXiXiXiXiXiXiXiXiXiXiXiXiXiXiXg.s.f.<.w.8.8.q.q.q.q.9.7.i.`.L.L.L.I.N.Q.iXiXiXiXiXiXiXiXiXiXiXiXiXiXiXiXiXiXiXiXiX",
"iXiXiXiXiXiXiXiXiXiXiXiXiXiXiXiXiXiXiXiXiXiXiXOX} O.3.q.8.q.q.q.q.q.0.e.y.Z.T.T.T.P.L.I.M.*XiXiXiXiXiXiXiXiXiXiXiXiXiXiXiXiXiXiXiXiX",
"iXiXiXiXiXiXiXiXiXiXiXiXiXiXiXiXiXiXiXiXiXiXOX] &.3.7.8.q.q.q.q.q.q.8.e.H.K.J._.W.).F.K.J.b.=XiXiXiXiXiXiXiXiXiXiXiXiXiXiXiXiXiXiXiX",
"iXiXiXiXiXiXiXiXiXiXiXiXiXiXiXiXiXiXiXiXiXg.o.%.%.3.7.8.w.q.q.w.q.q.9.e.G.K.J.v.Q Q _.R.J.W @XiXiXiXiXiXiXiXiXiXiXiXiXiXiXiXiXiXiXiX",
"iXiXiXiXiXiXiXiXiXiXiXiXiXiXiXiXiXiXiXiXiXc } -.%.#.2.2.6.7.8.7.8.7.e.C.H.D.M.W./ / /.N.z.Q.iXiXiXiXiXiXiXiXiXiXiXiXiXiXiXiXiXiXiXiX",
"iXiXiXiXiXiXiXiXiXiXiXiXiXiXiXiXiXiXiXiXiXa.} -.=.%.&.&.2.6.6.6.0.5.C.K.K.M.` -X2X&X^ M / iXiXiXiXiXiXiXiXiXiXiXiXiXiXiXiXiXiXiXiXiX",
"iXiXiXiXiXiXiXiXiXiXiXiXiXiXiXiXiXiXiXiXa.o.+.=.=.%.%.%.=.@.@.;.@.O.V.K.K.U.-X7X7X^.< _ iXiXiXiXiXiXiXiXiXiXiXiXiXiXiXiXiXiXiXiXiXiX",
"iXiXiXiXiXiXiXiXiXiXiXiXiXiXiXiXiXiXiX$X] %.-.-.;.-.=.-.} g g g z B ! A.J.|.:XG ( !   iXiXiXiXiXiXiXiXiXiXiXiXiXiXiXiXiXiXiXiXiXiXiX",
"iXiXiXiXiXiXiXiXiXiXiXiXiXiXiXiXiXiXiXh.] +.=...| ..+. ...X.X.X.c n Q E.D.|.1X3 % u < J iXiXiXiXiXiXiXiXiXiXiXiXiXiXiXiXiXiXiXiXiXiX",
"iXiXiXiXiXiXiXiXiXiXiXiXiXiXiXiXiXiX2 k ] +.+.x o d [ { j.8X8X,X~.p ! _.v.'.wX0X+X.X@XN C iXiXiXiXiXiXiXiXiXiXiXiXiXiXiXiXiXiXiXiXiX",
"iXiXiXiXiXiXiXiXiXiXiXiXiXiXiXiXiXiX  ; ] o.x * J V ; = G 3XeXrX;Xp W T.! Q.eXuX9XXXqX(   iXiXiXiXiXiXiXiXiXiXiXiXiXiXiXiXiXiXiXiXiX",
"iXiXiXiXiXiXiXiXiXiXiXiXiXiXiXiXiXiX  ; ] x : V iXiX< . , ^ <XwX;X~ m.J.b ` eXyX9XoX%XS C iXiXiXiXiXiXiXiXiXiXiXiXiXiXiXiXiXiXiXiXiX",
"iXiXiXiXiXiXiXiXiXiXiXiXiXiXiXiXiXiX  d ] * H iXiXiXiX%   & ^ (.~.#XY.J.b ` eXeXqX@X5 H iXiXiXiXiXiXiXiXiXiXiXiXiXiXiXiXiXiXiXiXiXiX",
"iXiXiXiXiXiXiXiXiXiXiXiXiXiXiXiXiXiXOX3 ; H iXiXiXiXiXn.l.N q q n [.Y.z.) -X3X3X'.N H iXiXiXiXiXiXiXiXiXiXiXiXiXiXiXiXiXiXiXiXiXiXiX",
"iXiXiXiXiXiXiXiXiXiXiXiXiXiXiXiXiXiXiXiX5 iXiXiXiXiXiXR.T.E.@   O D.x.i !.*X!.'.Z V iXiXiXiXiXiXiXiXiXiXiXiXiXiXiXiXiXiXiXiXiXiXiXiX",
"iXiXiXiXiXiXiXiXiXiXiXiXiXiXiXiXiXiXiXiXiXiXiXiXiXiXiX1 , < x * X B.W . c o.c @ _ iXiXiXiXiXiXiXiXiXiXiXiXiXiXiXiXiXiXiXiXiXiXiXiXiX",
"iXiXiXiXiXiXiXiXiXiXiXiXiXiXiXiXiXiXiXiXiXiXiXiXiXiXiXiXl   ]  .d.*XS   h [ ] s A iXiXiXiXiXiXiXiXiXiXiXiXiXiXiXiXiXiXiXiXiXiXiXiXiX",
"iXiXiXiXiXiXiXiXiXiXiXiXiXiXiXiXiXiXiXiXiXiXiXiXiXiXiXiXiXo j ].6X5XF . | ;.-.:.j , iXiXiXiXiXiXiXiXiXiXiXiXiXiXiXiXiXiXiXiXiXiXiXiX",
"iXiXiXiXiXiXiXiXiXiXiXiXiXiXiXiXiXiXiXiXiXiXiXiXiXiXiXiXiX  o d.5X5XF   | -.+.+.V.m.1 iXiXV 2 2 iXiXiXiXiXiXiXiXiXiXiXiXiXiXiXiXiXiX",
"iXiXiXiXiXiXiXiXiXiXiXiXiXiXiXiXiXiXiXiXiXiXiXiXiXiXiXiXD d   A 5X6XF . | u...B A.K., C J 9 7   iXiXiXiXiXiXiXiXiXiXiXiXiXiXiXiXiXiX",
"iXiXiXiXiXiXiXiXiXiXiXiXiXiXiXiXiXiXiXiXiXiXiXiXiXiXiX- j | % d.6X6XD   v &.*.n x.S., X 7 E K   iXiXiXiXiXiXiXiXiXiXiXiXiXiXiXiXiXiX",
"iXiXiXiXiXiXiXiXiXiXiXiXiXiXiXiXiXiXiXiXiXiXiXiXiXiX4 v s < %XtX4X'.w   w I n 4.e.*.o 7 T R 0 . iXiXiXiXiXiXiXiXiXiXiXiXiXiXiXiXiXiX",
"iXiXiXiXiXiXiXiXiXiXiXiXiXiXiXiXiXiXiXiXiXiXiXiXiXH * :.s # <XyX3Xn , j ' ' $.8.1.: & P R K u  XiXiXiXiXiXiXiXiXiXiXiXiXiXiXiXiXiXiX",
"iXiXiXiXiXiXiXiXiXiXiXiXiXiXiXiXiXiXiXiXiXiXiXiXiXiX4 | a . / 1X%XX * #.w.w.q.5.h X y U L 2 iXiXiXiXiXiXiXiXiXiXiXiXiXiXiXiXiXiXiXiX",
"iXiXiXiXiXiXiXiXiXiXiXiXiXiXiXiXiXiXiXiXiXiXiXiXiXiXiX4 .   o % @     : +.u.+.= $ t Y 9 & iXiXiXiXiXiXiXiXiXiXiXiXiXiXiXiXiXiXiXiXiX",
"iXiXiXiXiXiXiXiXiXiXiXiXiXiXiXiXiXiXiXiXiXiXiXiXiXiXiX@ # 8 7 .         : f : J Z 8 r i iXiXiXiXiXiXiXiXiXiXiXiXiXiXiXiXiXiXiXiXiXiX",
"iXiXiXiXiXiXiXiXiXiXiXiXiXiXiXiXiXiXiXiXiXiXiXiXiXiXiXC r t t $   + 2 2 2 2 V iXiX2 2 iXiXiXiXiXiXiXiXiXiXiXiXiXiXiXiXiXiXiXiXiXiXiX",
"iXiXiXiXiXiXiXiXiXiXiXiXiXiXiXiXiXiXiXiXiXiXiXiXiXiXiXiXH X X . . iXiXiXiXiXiXiXiXiXiXiXiXiXiXiXiXiXiXiXiXiXiXiXiXiXiXiXiXiXiXiXiXiX",
"iXiXiXiXiXiXiXiXiXiXiXiXiXiXiXiXiXiXiXiXiXiXiXiXiXiXiXiX X      3 iXiXiXiXiXiXiXiXiXiXiXiXiXiXiXiXiXiXiXiXiXiXiXiXiXiXiXiXiXiXiXiXiX",
"iXiXiXiXiXiXiXiXiXiXiXiXiXiXiXiXiXiXiXiXiXiXiXiXiXiXiXiXiXiXiXiXiXiXiXiXiXiXiXiXiXiXiXiXiXiXiXiXiXiXiXiXiXiXiXiXiXiXiXiXiXiXiXiXiXiX",
"iXiXiXiXiXiXiXiXiXiXiXiXiXiXiXiXiXiXiXiXiXiXiXiXiXiXiXiXiXiXiXiXiXiXiXiXiXiXiXiXiXiXiXiXiXiXiXiXiXiXiXiXiXiXiXiXiXiXiXiXiXiXiXiXiXiX",
"iXiXiXiXiXiXiXiXiXiXiXiXiXiXiXiXiXiXiXiXiXiXiXiXiXiXiXiXiXiXiXiXiXiXiXiXiXiXiXiXiXiXiXiXiXiXiXiXiXiXiXiXiXiXiXiXiXiXiXiXiXiXiXiXiXiX",
"iXiXiXiXiXiXiXiXiXiXiXiXiXiXiXiXiXiXiXiXiXiXiXiXiXiXiXiXiXiXiXiXiXiXiXiXiXiXiXiXiXiXiXiXiXiXiXiXiXiXiXiXiXiXiXiXiXiXiXiXiXiXiXiXiXiX",
"iXiXiXiXiXiXiXiXiXiXiXiXiXiXiXiXiXiXiXiXiXiXiXiXiXiXiXiXiXiXiXiXiXiXiXiXiXiXiXiXiXiXiXiXiXiXiXiXiXiXiXiXiXiXiXiXiXiXiXiXiXiXiXiXiXiX",
"iXiXiXiXiXiXiXiXiXiXiXiXiXiXiXiXiXiXiXiXiXiXiXiXiXiXiXiXiXiXiXiXiXiXiXiXiXiXiXiXiXiXiXiXiXiXiXiXiXiXiXiXiXiXiXiXiXiXiXiXiXiXiXiXiXiX",
"iXiXiXiXiXiXiXiXiXiXiXiXiXiXiXiXiXiXiXiXiXiXiXiXiXiXiXiXiXiXiXiXiXiXiXiXiXiXiXiXiXiXiXiXiXiXiXiXiXiXiXiXiXiXiXiXiXiXiXiXiXiXiXiXiXiX",
"iXiXiXiXiXiXiXiXiXiXiXiXiXiXiXiXiXiXiXiXiXiXiXiXiXiXiXiXiXiXiXiXiXiXiXiXiXiXiXiXiXiXiXiXiXiXiXiXiXiXiXiXiXiXiXiXiXiXiXiXiXiXiXiXiXiX",
"iXiXiXiXiXiXiXiXiXiXiXiXiXiXiXiXiXiXiXiXiXiXiXiXiXiXiXiXiXiXiXiXiXiXiXiXiXiXiXiXiXiXiXiXiXiXiXiXiXiXiXiXiXiXiXiXiXiXiXiXiXiXiXiXiXiX",
"iXiXiXiXiXiXiXiXiXiXiXiXiXiXiXiXiXiXiXiXiXiXiXiXiXiXiXiXiXiXiXiXiXiXiXiXiXiXiXiXiXiXiXiXiXiXiXiXiXiXiXiXiXiXiXiXiXiXiXiXiXiXiXiXiXiX",
"iXiXiXiXiXiXiXiXiXiXiXiXiXiXiXiXiXiXiXiXiXiXiXiXiXiXiXiXiXiXiXiXiXiXiXiXiXiXiXiXiXiXiXiXiXiXiXiXiXiXiXiXiXiXiXiXiXiXiXiXiXiXiXiXiXiX",
"iXiXiXiXiXiXiXiXiXiXiXiXiXiXiXiXiXiXiXiXiXiXiXiXiXiXiXiXiXiXiXiXiXiXiXiXiXiXiXiXiXiXiXiXiXiXiXiXiXiXiXiXiXiXiXiXiXiXiXiXiXiXiXiXiXiX",
"iXiXiXiXiXiXiXiXiXiXiXiXiXiXiXiXiXiXiXiXiXiXiXiXiXiXiXiXiXiXiXiXiXiXiXiXiXiXiXiXiXiXiXiXiXiXiXiXiXiXiXiXiXiXiXiXiXiXiXiXiXiXiXiXiXiX",
"iXiXiXiXiXiXiXiXiXiXiXiXiXiXiXiXiXiXiXiXiXiXiXiXiXiXiXiXiXiXiXiXiXiXiXiXiXiXiXiXiXiXiXiXiXiXiXiXiXiXiXiXiXiXiXiXiXiXiXiXiXiXiXiXiXiX",
"iXiXiXiXiXiXiXiXiXiXiXiXiXiXiXiXiXiXiXiXiXiXiXiXiXiXiXiXiXiXiXiXiXiXiXiXiXiXiXiXiXiXiXiXiXiXiXiXiXiXiXiXiXiXiXiXiXiXiXiXiXiXiXiXiXiX",
"iXiXiXiXiXiXiXiXiXiXiXiXiXiXiXiXiXiXiXiXiXiXiXiXiXiXiXiXiXiXiXiXiXiXiXiXiXiXiXiXiXiXiXiXiXiXiXiXiXiXiXiXiXiXiXiXiXiXiXiXiXiXiXiXiXiX",
"iXiXiXiXiXiXiXiXiXiXiXiXiXiXiXiXiXiXiXiXiXiXiXiXiXiXiXiXiXiXiXiXiXiXiXiXiXiXiXiXiXiXiXiXiXiXiXiXiXiXiXiXiXiXiXiXiXiXiXiXiXiXiXiXiXiX",
"iXiXiXiXiXiXiXiXiXiXiXiXiXiXiXiXiXiXiXiXiXiXiXiXiXiXiXiXiXiXiXiXiXiXiXiXiXiXiXiXiXiXiXiXiXiXiXiXiXiXiXiXiXiXiXiXiXiXiXiXiXiXiXiXiXiX",
"iXiXiXiXiXiXiXiXiXiXiXiXiXiXiXiXiXiXiXiXiXiXiXiXiXiXiXiXiXiXiXiXiXiXiXiXiXiXiXiXiXiXiXiXiXiXiXiXiXiXiXiXiXiXiXiXiXiXiXiXiXiXiXiXiXiX",
"iXiXiXiXiXiXiXiXiXiXiXiXiXiXiXiXiXiXiXiXiXiXiXiXiXiXiXiXiXiXiXiXiXiXiXiXiXiXiXiXiXiXiXiXiXiXiXiXiXiXiXiXiXiXiXiXiXiXiXiXiXiXiXiXiXiX"
};
