/* XPM */
static char *result[] = {
/* columns rows colors chars-per-pixel */
"66 72 223 2 ",
"   c #020101",
".  c #0A0809",
"X  c #130205",
"o  c #1D0304",
"O  c #15050C",
"+  c #051A08",
"@  c #18170A",
"#  c #1F1F1F",
"$  c #151413",
"%  c #26050B",
"&  c #271213",
"*  c #2E0D0F",
"=  c #042608",
"-  c #152208",
";  c #023607",
":  c #043915",
">  c #152B17",
",  c #24251B",
"<  c #333215",
"1  c #282D07",
"2  c #331621",
"3  c #173B21",
"4  c #252525",
"5  c #272A2C",
"6  c #372625",
"7  c #383A36",
"8  c #29322A",
"9  c #441508",
"0  c #4D0B19",
"q  c #6B1114",
"w  c #4B2D17",
"e  c #513417",
"r  c #6C201E",
"t  c #6E0D26",
"y  c #7E1128",
"u  c #513133",
"i  c #733729",
"p  c #0B4715",
"a  c #144A16",
"s  c #09440A",
"d  c #245115",
"f  c #096D10",
"g  c #366F14",
"h  c #0F5623",
"j  c #2D4D32",
"k  c #066324",
"l  c #137927",
"z  c #106A23",
"x  c #257722",
"c  c #2C7533",
"v  c #534015",
"b  c #724E11",
"n  c #57661F",
"m  c #444429",
"M  c #5A5026",
"N  c #6A4D24",
"B  c #794B27",
"V  c #69542B",
"C  c #765A39",
"Z  c #715A2E",
"A  c #464847",
"S  c #4E5244",
"D  c #6E5E48",
"F  c #557753",
"G  c #556F56",
"H  c #676958",
"J  c #6F6D52",
"K  c #686967",
"L  c #7E7E7E",
"P  c #757474",
"I  c #6F716F",
"U  c #A5201E",
"Y  c #B31822",
"T  c #A41733",
"R  c #B72028",
"E  c #AF2121",
"W  c #8C132F",
"Q  c #C82132",
"!  c #E72C2A",
"~  c #805717",
"^  c #A07D11",
"/  c #84542A",
"(  c #83523F",
")  c #966938",
"_  c #886426",
"`  c #A6763B",
"'  c #8D6B46",
"]  c #9D7742",
"[  c #89745A",
"{  c #95744F",
"}  c #A67D4B",
"|  c #A27766",
" . c #C57F53",
".. c #058402",
"X. c #188F1C",
"o. c #379419",
"O. c #0CB60D",
"+. c #33B81F",
"@. c #0C8626",
"#. c #1B8528",
"$. c #1C952C",
"%. c #278A29",
"&. c #3A8A22",
"*. c #3D9E29",
"=. c #379726",
"-. c #2E9631",
";. c #1DA423",
":. c #39AD23",
">. c #3BA529",
",. c #558C28",
"<. c #439C2A",
"1. c #49982C",
"2. c #42A228",
"3. c #47A929",
"4. c #48B42D",
"5. c #57AB39",
"6. c #14D710",
"7. c #2CC51B",
"8. c #05ED09",
"9. c #16EC0D",
"0. c #1AE70C",
"q. c #03FE04",
"w. c #0BFE05",
"e. c #08F808",
"r. c #11F609",
"t. c #10F808",
"y. c #1BF70D",
"u. c #1EE011",
"i. c #2AEF14",
"p. c #3CCE28",
"a. c #60C80B",
"s. c #40FB06",
"d. c #7DFF00",
"f. c #65C529",
"g. c #5BCF2E",
"h. c #309C40",
"j. c #479453",
"k. c #67855A",
"l. c #5EAD43",
"z. c #58B245",
"x. c #62A14B",
"c. c #4C9962",
"v. c #758B62",
"b. c #6CB37D",
"n. c #76F770",
"m. c #8F801A",
"M. c #BA9719",
"N. c #B49909",
"B. c #B49331",
"V. c #B1B033",
"C. c #C6B00B",
"Z. c #CAB623",
"A. c #CDB623",
"S. c #8CDA07",
"D. c #95F704",
"F. c #8BF405",
"G. c #B4FF02",
"H. c #D5CD10",
"J. c #E5D713",
"K. c #E6E405",
"L. c #F1EB07",
"P. c #FEFE00",
"I. c #F8F507",
"U. c #EEFF00",
"Y. c #D9C738",
"T. c #E3CA2B",
"R. c #ECD228",
"E. c #EBCC35",
"W. c #F4EB24",
"Q. c #D3ED0C",
"!. c #88984D",
"~. c #A98644",
"^. c #B98A5A",
"/. c #B8915B",
"(. c #B58D4C",
"). c #80806E",
"_. c #B69C7A",
"`. c #AC926F",
"'. c #80B56E",
"]. c #B7A279",
"[. c #C29745",
"{. c #CA9C59",
"}. c #CD935B",
"|. c #CFB346",
" X c #E8AB51",
".X c #C8AA78",
"XX c #89C37B",
"oX c #FAF76D",
"OX c #F7F356",
"+X c #7F7F80",
"@X c #3F4DCC",
"#X c #294EFF",
"$X c #4D5EDB",
"%X c #73B081",
"&X c #7586D8",
"*X c #AE968D",
"=X c #B39990",
"-X c #D7B798",
";X c #C9AC8C",
":X c #E4BA9B",
">X c #D4B8A8",
",X c #9ED192",
"<X c #A4DD8E",
"1X c #88FA84",
"2X c #E3C599",
"3X c #D5CFA9",
"4X c #E6D6AD",
"5X c #FBD4A7",
"6X c #EFD0B4",
"7X c #D0FFB9",
"8X c #FFE6BB",
"9X c #EAE7B8",
"0X c #CCC594",
"qX c #8EA7FA",
"wX c #DBDBD0",
"eX c #F4DCC2",
"rX c #DDFFC1",
"tX c #FCECC8",
"yX c #FFF5CD",
"uX c #FFF8D4",
"iX c #FFFEEC",
"pX c white",
"aX c #489848",
/* pixels */
"aXaXaXaXaXaXaXaXaXaXaXaXaXaXaXaXaXaXaXaXaXaXaXaXaXaXaXaXaXaXaXaXaXaXaXaXaXaXaXaXaXaXaXaXaXaXaXaXaXaXaXaXaXaXaXaXaXaXaXaXaXaXaXaXaXaX",
"aXaXaXaXaXaXaXaXaXaXaXaXaXaXaXaXaXaXaXaXaXaXaXaXaXaXaXaXaXaXaXaXaXaXaXaXaXaXaXaXaXaXaXaXaXaXaXaXaXaXaXaXaXaXaXaXaXaXaXaXaXaXaXaXaXaX",
"aXaXaXaXaXaXaXaXaXaXaXaXaXaXaXaXaXaXaXaXaXaXaXaXaXaXaXaXaXaXaXaXaXaXaXaXaXaXaXaXaXaXaXaXaXaXaXaXaXaXaXaXaXaXaXaXaXaXaXaXaXaXaXaXaXaX",
"aXaXaXaXaXaXaXaXaXaXaXaXaXaXaXaXaXaXaXaXaXaXaXaXaXaXaXaXaXaXaXaXaXaXaXaXaXaXaXaXaXaXaXaXaXaXaXaXaXaXaXaXaXaXaXaXaXaXaXaXaXaXaXaXaXaX",
"aXaXaXaXaXaXaXaXaXaXaXaXaXaXaXaXaXaXaXaXaXaXaXaXaXaXaXaXaXaXaXaXaXaXaXaXaXaXaXaXaXaXaXaXaXaXaXaXaXaXaXaXaXaXaXaXaXaXaXaXaXaXaXaXaXaX",
"aXaXaXaXaXaXaXaXaXaXaXaXaXaXaXaXaXaXaXaXaXaXaXaXaXaXaXaXaXaXaXaXaXaXaXaXaXaXaXaXaXaXaXaXaXaXaXaXaXaXaXaXaXaXaXaXaXaXaXaXaXaXaXaXaXaX",
"aXaXaXaXaXaXaXaXaXaXaXaXaXaXaXaXaXaXaXaXaXaXaXaXaXaXaXaXaXaXaXaXaXaXaXaXaXaXaXaXaXaXaXaXaXaXaXaXaXaXaXaXaXaXaXaXaXaXaXaXaXaXaXaXaXaX",
"aXaXaXaXaXaXaXaXaXaXaXaXaXaXaXaXaXaXaXaXaXaXaXaXaXaXaXaXaXaXaXaXaXaXaXaXaXaXaXaXaXaXaXaXaXaXaXaXaXaXaXaXaXaXaXaXaXaXaXaXaXaXaXaXaXaX",
"aXaXaXaXaXaXaXaXaXaXaXaXaXaXaXaXaXaXaXaXaXaXaXaXaXaXaXaXaXaXaXaXaXaXaXaXaXaXaXaXaXaXaXaXaXaXaXaXaXaXaXaXaXaXaXaXaXaXaXaXaXaXaXaXaXaX",
"aXaXaXaXaXaXaXaXaXaXaXaXaXaXaXaXaXaXaXaXaXaXaXaXaXaXaXaXaXaXaXaXaXaXaXaXaXaXaXaXaXaXaXaXaXaXaXaXaXaXaXaXaXaXaXaXaXaXaXaXaXaXaXaXaXaX",
"aXaXaXaXaXaXaXaXaXaXaXaXaXaXaXaXaXaXaXaXaXaXaXaXaXaXaXaXaXaXaXaXaXaXaXaXaXaXaXaXaXaXaXaXaXaXaXaXaXaXaXaXaXaXaXaXaXaXaXaXaXaXaXaXaXaX",
"aXaXaXaXaXaXaXaXaXaXaXaXaXaXaXaXaXaXaXaXaXaXaXaXaXaXaXaXaXaXaXaXaXaXaXaXaXaXaXaXaXaXaXaXaXaXaXaXaXaXaXaXaXaXaXaXaXaXaXaXaXaXaXaXaXaX",
"aXaXaXaXaXaXaXaXaXaXaXaXaXaXaXaXaXaXaXaXaXaXaXaXaXaXaXaXaXaXaXaXaXaXaXaXaXaXaXaXaXaXaXaXaXaXaXaXaXaXaXaXaXaXaXaXaXaXaXaXaXaXaXaXaXaX",
"aXaXaXaXaXaXaXaXaXaXaXaXaXaXaXaXaXaXaXaXaXaXaXaXaXaXaXaXaXaXaXaXaXaXaXaXaXaXaXaXaXaXaXaXaXaXaXaXaXaXaXaXaXaXaXaXaXaXaXaXaXaXaXaXaXaX",
"aXaXaXaXaXaXaXaXaXaXaXaXaXaXaXaXaXaXaXaXaXaXaXaXaXaXaXaXaXaXaXaXaXaXaXaXaXaXaXaXaXaXaXaXaXaXaXaXaXaXaXaXaXaXaXaXaXaXaXaXaXaXaXaXaXaX",
"aXaXaXaXaXaXaXaXaXaXaXaXaXaXaXaXaXaXaXaXaXaXaXaXaXaXaXaXaXaXaXaXaXaXaXaXaXaXaXaXaXaXaXaXaXaXaXaXaXaXaXaXaXaXaXaXaXaXaXaXaXaXaXaXaXaX",
"aXaXaXaXaXaXaXaXaXaXaXaXaXaXaXaXaXaXaXaXaXaXaXaXaXaXaXaXaXaXaXaXaXaXaXaXaXaXaXaXaXaXaXaXaXaXaXaXaXaXaXaXaXaXaXaXaXaXaXaXaXaXaXaXaXaX",
"aXaXaXaXaXaXaXaXaXaXaXaXaXaXaXaXaXaXaXaXaXaXaXaXaXaXaXaXaXaXaXaXaXaXaXaXaXaXaXaXaXaXaXaXaXaXaXaXaXaXaXaXaXaXaXaXaXaXaXaXaXaXaXaXaXaX",
"aXaXaXaXaXaXaXaXaXaXaXaXaXaXaXaXaXaXaXaXaXaXaXaXaXaXaXaXaXaXaXaXaXaXaXaXaXaXaXaXaXaXaXaXaXaXaXaXaXaXaXaXaXaXaXaXaXaXaXaXaXaXaXaXaXaX",
"aXaXaXaXaXaXaXaXaXaXaXaXaXaXaXaXaXaXaXaXaXaXaXaXaXaXaXaXaXaXaXaXaXaXaXaXaXaXaXaXaXaXaXaXaXaXaXaXaXaXaXaXaXaXaXaXaXaXaXaXaXaXaXaXaXaX",
"aXaXaXaXaXaXaXaXaXaXaXaXaXaXaXaXaXaXaXaXaXaXaXaXaXaXaXaXaXaXaXaXaXz.7.w.q.o./ ] ] /.aXaXaXaXaXaXaXaXaXaXaXaXaXaXaXaXaXaXaXaXaXaXaXaX",
"aXaXaXaXaXaXaXaXaXaXaXaXaXaXaXaXaXaXaXaXaXaXaXaXaXaXaXaXaX<X1XXXn.7.u.w.q.a.M.C.Y.Z.2X3XaXaXaXaXaXaXaXaXaXaXaXaXaXaXaXaXaXaXaXaXaXaX",
"aXaXaXaXaXaXaXaXaXaXaXaXaXaXaXaXaXaXaXaXaXaXaXaXaXaXaXaXXX7.9.w.t.w.w.t.e.F.P.P.P.P.E.[.B.aXaXaXaXaXaXaXaXaXaXaXaXaXaXaXaXaXaXaXaXaX",
"aXaXaXaXaXaXaXaXaXaXaXaXaXaXaXaXaXaXaXaXaXaXaXaXc.j.l.x.p.y.t.t.t.t.t.e.q.d.P.P.P.P.I.L.H./.aXaXaXaXaXaXaXaXaXaXaXaXaXaXaXaXaXaXaXaX",
"aXaXaXaXaXaXaXaXaXaXaXaXaXaXaXaXaXaXaXaXaXaXaX%X%.=.2.7.9.w.w.t.t.t.w.y.g.|.R.P.I.E.R.I.P.J.{.;XaXaXaXaXaXaXaXaXaXaXaXaXaXaXaXaXaXaX",
"aXaXaXaXaXaXaXaXaXaXaXaXaXaXaXaXaXaXaXaXaXaXb.#.*.1.:.r.w.t.t.t.t.t.w.i.A. X|.L.A.}.}.E.L.L.Z.} aXaXaXaXaXaXaXaXaXaXaXaXaXaXaXaXaXaX",
"aXaXaXaXaXaXaXaXaXaXaXaXaXaXaXaXaXaXaXaXaXc.-.<.<.1.:.r.w.t.t.t.t.t.q.y.Q.I.L.B.B /  X[.b ~ ].aXaXaXaXaXaXaXaXaXaXaXaXaXaXaXaXaXaXaX",
"aXaXaXaXaXaXaXaXaXaXaXaXaXaXaXaXaXaXaXaXI x >.2.2.<.>.7.9.w.w.w.w.q.i.D.I.K.Z./.| ' Z [ =X=XaXaXaXaXaXaXaXaXaXaXaXaXaXaXaXaXaXaXaXaX",
"aXaXaXaXaXaXaXaXaXaXaXaXaXaXaXaXaXaXaXP + =.4.*.<.>.<.1.+.t.9.9.0.8.D.P.P.Z.| ;X5X].. aXaXaXaXaXaXaXaXaXaXaXaXaXaXaXaXaXaXaXaXaXaXaX",
"aXaXaXaXaXaXaXaXaXaXaXaXaXaXaXaXaXaXaXaX. &.4.<.2.2.2.<.>.:.:.:.:.;.S.P.P.Y.;XtXtX_.$ aXaXaXaXaXaXaXaXaXaXaXaXaXaXaXaXaXaXaXaXaXaXaX",
"aXaXaXaXaXaXaXaXaXaXaXaXaXaXaXaXaXaX+XA a =.3.*.=.$.%.2.o.o.o.#.%.!.V.A.P.OX>XJ ' )   aXaXaXaXaXaXaXaXaXaXaXaXaXaXaXaXaXaXaXaXaXaXaX",
"aXaXaXaXaXaXaXaXaXaXaXaXaXaXaXaXaXaX  : $.>.3.=.z k #.-.5.5.l.-.c [. .} J.oX>X5 & i , P aXaXaXaXaXaXaXaXaXaXaXaXaXaXaXaXaXaXaXaXaXaX",
"aXaXaXaXaXaXaXaXaXaXaXaXaXaXaXaXaXaX  : #.>.>.l + p @.l b.9X9X0X`./ ` }.B..X8XwX&X@X*XD A aXaXaXaXaXaXaXaXaXaXaXaXaXaXaXaXaXaXaXaXaX",
"aXaXaXaXaXaXaXaXaXaXaXaXaXaXaXaXaXaX  : $.>.x 3 P A p : J 5XtXuX:Xi ^ R./ `.yXpXqX#X6X'   aXaXaXaXaXaXaXaXaXaXaXaXaXaXaXaXaXaXaXaXaX",
"aXaXaXaXaXaXaXaXaXaXaXaXaXaXaXaXaXaX5 3 l >.d 4 aXaX#   1 ` 2XtX2X( C.L.b | yXiXqX$X=XC A aXaXaXaXaXaXaXaXaXaXaXaXaXaXaXaXaXaXaXaXaX",
"aXaXaXaXaXaXaXaXaXaXaXaXaXaXaXaXaXaXaXK = #.p $ aXaXaX,   * { {./.^.W.L.b | yXtXtX*X6 I aXaXaXaXaXaXaXaXaXaXaXaXaXaXaXaXaXaXaXaXaXaX",
"aXaXaXaXaXaXaXaXaXaXaXaXaXaXaXaXaXaXaXaXK : j aXaXaXaXV.^ M w w v T.J.M.} ;X5X8X.XV I aXaXaXaXaXaXaXaXaXaXaXaXaXaXaXaXaXaXaXaXaXaXaX",
"aXaXaXaXaXaXaXaXaXaXaXaXaXaXaXaXaXaXaXaXaX7 aXaXaXaXaXW.R.~.$   @ K.N.u `.;X]..XS A aXaXaXaXaXaXaXaXaXaXaXaXaXaXaXaXaXaXaXaXaXaXaXaX",
"aXaXaXaXaXaXaXaXaXaXaXaXaXaXaXaXaXaXaXaXaXaXaXaXaXaXaXm 1 @ h = % Y._   c h.x # +XaXaXaXaXaXaXaXaXaXaXaXaXaXaXaXaXaXaXaXaXaXaXaXaXaX",
"aXaXaXaXaXaXaXaXaXaXaXaXaXaXaXaXaXaXaXaXaXaXaXaXaXaXaX4   < =.X.< N C V : f f   A aXaXaXaXaXaXaXaXaXaXaXaXaXaXaXaXaXaXaXaXaXaXaXaXaX",
"aXaXaXaXaXaXaXaXaXaXaXaXaXaXaXaXaXaXaXaXaXaXaXaXaXaXaX7 w N ,.4.=.  N (.X a 3.1 - = aXaXaXaXaXaXaXaXaXaXaXaXaXaXaXaXaXaXaXaXaXaXaXaX",
"aXaXaXaXaXaXaXaXaXaXaXaXaXaXaXaXaXaXaXaXaXaXaXaXaXaX8 <Xk.X e ,.>.N 9 X   p f.H.F.O.3 aXaXaXaXaXaXaXaXaXaXaXaXaXaXaXaXaXaXaXaXaXaXaX",
"aXaXaXaXaXaXaXaXaXaXaXaXaXaXaXaXaXaXaXaXaXaXaXaXaXH [ v.j : r / n w m F J j g P.G.8.= P aXaXaXaXaXaXaXaXaXaXaXaXaXaXaXaXaXaXaXaXaXaX",
"aXaXaXaXaXaXaXaXaXaXaXaXaXaXaXaXaXaXaXaXaXaXaXaX$ D _.O s $.n B v   F rX7XG o C.S.6.= L aXaXaXaXaXaXaXaXaXaXaXaXaXaXaXaXaXaXaXaXaXaX",
"aXaXaXaXaXaXaXaXaXaXaXaXaXaXaXaXaXaXaXaXaXaXaXaX$ O , h O.t.0.u.O.  H 7X7X!.* * g +.= +XaXaXaXaXaXaXaXaXaXaXaXaXaXaXaXaXaXaXaXaXaXaX",
"aXaXaXaXaXaXaXaXaXaXaXaXaXaXaXaXaXaXaXaXaXaXaXaXaXj   : $.i.w.q.t.d j v.3X3X|   + a   aXaXaXaXaXaXaXaXaXaXaXaXaXaXaXaXaXaXaXaXaXaXaX",
"aXaXaXaXaXaXaXaXaXaXaXaXaXaXaXaXaXaXaXaXaXaXaXaXaXaX  o < >.u.t.y.p.s X 0XiX4X,   X X I aXaXaXaXaXaXaXaXaXaXaXaXaXaXaXaXaXaXaXaXaXaX",
"aXaXaXaXaXaXaXaXaXaXaXaXaXaXaXaXaXaXaXaXaXaXaXaXaXaXo E q = <.i.w.y.f O 6XiX4X# o t t & 4 4 aXaXaXaXaXaXaXaXaXaXaXaXaXaXaXaXaXaXaXaX",
"aXaXaXaXaXaXaXaXaXaXaXaXaXaXaXaXaXaXaXaXaXaXaXaXaXP % ! Y * , f ....; O H v.D $ * T Q T q X K aXaXaXaXaXaXaXaXaXaXaXaXaXaXaXaXaXaXaX",
"aXaXaXaXaXaXaXaXaXaXaXaXaXaXaXaXaXaXaXaXaXaXaXaXaXaX6 U R t O     # 4 4 4 4 #   * W Y ! E 6 aXaXaXaXaXaXaXaXaXaXaXaXaXaXaXaXaXaXaXaX",
"aXaXaXaXaXaXaXaXaXaXaXaXaXaXaXaXaXaXaXaXaXaXaXaXaXaXaX& 0 W W * # aXaXaXaXaXaX. . X % % & aXaXaXaXaXaXaXaXaXaXaXaXaXaXaXaXaXaXaXaXaX",
"aXaXaXaXaXaXaXaXaXaXaXaXaXaXaXaXaXaXaXaXaXaXaXaXaXaXaXaX7 0 0 % $ aXaXaXaXaXaXaX+X+X%X[ aXaXaXaXaXaXaXaXaXaXaXaXaXaXaXaXaXaXaXaXaXaX",
"aXaXaXaXaXaXaXaXaXaXaXaXaXaXaXaXaXaXaXaXaXaXaXaXaXaXaXaX+X      4 aXaXaXaXaXaXaXaXaXaXaXaXaXaXaXaXaXaXaXaXaXaXaXaXaXaXaXaXaXaXaXaXaX",
"aXaXaXaXaXaXaXaXaXaXaXaXaXaXaXaXaXaXaXaXaXaXaXaXaXaXaXaXaXaXaXaXaXaXaXaXaXaXaXaXaXaXaXaXaXaXaXaXaXaXaXaXaXaXaXaXaXaXaXaXaXaXaXaXaXaX",
"aXaXaXaXaXaXaXaXaXaXaXaXaXaXaXaXaXaXaXaXaXaXaXaXaXaXaXaXaXaXaXaXaXaXaXaXaXaXaXaXaXaXaXaXaXaXaXaXaXaXaXaXaXaXaXaXaXaXaXaXaXaXaXaXaXaX",
"aXaXaXaXaXaXaXaXaXaXaXaXaXaXaXaXaXaXaXaXaXaXaXaXaXaXaXaXaXaXaXaXaXaXaXaXaXaXaXaXaXaXaXaXaXaXaXaXaXaXaXaXaXaXaXaXaXaXaXaXaXaXaXaXaXaX",
"aXaXaXaXaXaXaXaXaXaXaXaXaXaXaXaXaXaXaXaXaXaXaXaXaXaXaXaXaXaXaXaXaXaXaXaXaXaXaXaXaXaXaXaXaXaXaXaXaXaXaXaXaXaXaXaXaXaXaXaXaXaXaXaXaXaX",
"aXaXaXaXaXaXaXaXaXaXaXaXaXaXaXaXaXaXaXaXaXaXaXaXaXaXaXaXaXaXaXaXaXaXaXaXaXaXaXaXaXaXaXaXaXaXaXaXaXaXaXaXaXaXaXaXaXaXaXaXaXaXaXaXaXaX",
"aXaXaXaXaXaXaXaXaXaXaXaXaXaXaXaXaXaXaXaXaXaXaXaXaXaXaXaXaXaXaXaXaXaXaXaXaXaXaXaXaXaXaXaXaXaXaXaXaXaXaXaXaXaXaXaXaXaXaXaXaXaXaXaXaXaX",
"aXaXaXaXaXaXaXaXaXaXaXaXaXaXaXaXaXaXaXaXaXaXaXaXaXaXaXaXaXaXaXaXaXaXaXaXaXaXaXaXaXaXaXaXaXaXaXaXaXaXaXaXaXaXaXaXaXaXaXaXaXaXaXaXaXaX",
"aXaXaXaXaXaXaXaXaXaXaXaXaXaXaXaXaXaXaXaXaXaXaXaXaXaXaXaXaXaXaXaXaXaXaXaXaXaXaXaXaXaXaXaXaXaXaXaXaXaXaXaXaXaXaXaXaXaXaXaXaXaXaXaXaXaX",
"aXaXaXaXaXaXaXaXaXaXaXaXaXaXaXaXaXaXaXaXaXaXaXaXaXaXaXaXaXaXaXaXaXaXaXaXaXaXaXaXaXaXaXaXaXaXaXaXaXaXaXaXaXaXaXaXaXaXaXaXaXaXaXaXaXaX",
"aXaXaXaXaXaXaXaXaXaXaXaXaXaXaXaXaXaXaXaXaXaXaXaXaXaXaXaXaXaXaXaXaXaXaXaXaXaXaXaXaXaXaXaXaXaXaXaXaXaXaXaXaXaXaXaXaXaXaXaXaXaXaXaXaXaX",
"aXaXaXaXaXaXaXaXaXaXaXaXaXaXaXaXaXaXaXaXaXaXaXaXaXaXaXaXaXaXaXaXaXaXaXaXaXaXaXaXaXaXaXaXaXaXaXaXaXaXaXaXaXaXaXaXaXaXaXaXaXaXaXaXaXaX",
"aXaXaXaXaXaXaXaXaXaXaXaXaXaXaXaXaXaXaXaXaXaXaXaXaXaXaXaXaXaXaXaXaXaXaXaXaXaXaXaXaXaXaXaXaXaXaXaXaXaXaXaXaXaXaXaXaXaXaXaXaXaXaXaXaXaX",
"aXaXaXaXaXaXaXaXaXaXaXaXaXaXaXaXaXaXaXaXaXaXaXaXaXaXaXaXaXaXaXaXaXaXaXaXaXaXaXaXaXaXaXaXaXaXaXaXaXaXaXaXaXaXaXaXaXaXaXaXaXaXaXaXaXaX",
"aXaXaXaXaXaXaXaXaXaXaXaXaXaXaXaXaXaXaXaXaXaXaXaXaXaXaXaXaXaXaXaXaXaXaXaXaXaXaXaXaXaXaXaXaXaXaXaXaXaXaXaXaXaXaXaXaXaXaXaXaXaXaXaXaXaX",
"aXaXaXaXaXaXaXaXaXaXaXaXaXaXaXaXaXaXaXaXaXaXaXaXaXaXaXaXaXaXaXaXaXaXaXaXaXaXaXaXaXaXaXaXaXaXaXaXaXaXaXaXaXaXaXaXaXaXaXaXaXaXaXaXaXaX",
"aXaXaXaXaXaXaXaXaXaXaXaXaXaXaXaXaXaXaXaXaXaXaXaXaXaXaXaXaXaXaXaXaXaXaXaXaXaXaXaXaXaXaXaXaXaXaXaXaXaXaXaXaXaXaXaXaXaXaXaXaXaXaXaXaXaX",
"aXaXaXaXaXaXaXaXaXaXaXaXaXaXaXaXaXaXaXaXaXaXaXaXaXaXaXaXaXaXaXaXaXaXaXaXaXaXaXaXaXaXaXaXaXaXaXaXaXaXaXaXaXaXaXaXaXaXaXaXaXaXaXaXaXaX",
"aXaXaXaXaXaXaXaXaXaXaXaXaXaXaXaXaXaXaXaXaXaXaXaXaXaXaXaXaXaXaXaXaXaXaXaXaXaXaXaXaXaXaXaXaXaXaXaXaXaXaXaXaXaXaXaXaXaXaXaXaXaXaXaXaXaX",
"aXaXaXaXaXaXaXaXaXaXaXaXaXaXaXaXaXaXaXaXaXaXaXaXaXaXaXaXaXaXaXaXaXaXaXaXaXaXaXaXaXaXaXaXaXaXaXaXaXaXaXaXaXaXaXaXaXaXaXaXaXaXaXaXaXaX"
};
