/* XPM */
static char *result[] = {
/* columns rows colors chars-per-pixel */
"66 72 226 2 ",
"   c #000000",
".  c #0C0205",
"X  c #010903",
"o  c #0D0A08",
"O  c #130306",
"+  c #1B0506",
"@  c #120308",
"#  c #120D09",
"$  c #091407",
"%  c #021C02",
"&  c #021707",
"*  c #151705",
"=  c #141613",
"-  c #190B10",
";  c #260709",
":  c #350A0A",
">  c #211409",
",  c #341408",
"<  c #3C0514",
"1  c #221917",
"2  c #022303",
"3  c #062907",
"4  c #00370D",
"5  c #043A15",
"6  c #033313",
"7  c #183418",
"8  c #1C2C11",
"9  c #252607",
"0  c #29241D",
"q  c #292627",
"w  c #382F29",
"e  c #590D1C",
"r  c #441E17",
"t  c #771617",
"y  c #791617",
"u  c #6E0A12",
"i  c #4C2E17",
"p  c #593518",
"a  c #590B22",
"s  c #660D24",
"d  c #751025",
"f  c #5A3C34",
"g  c #513232",
"h  c #633828",
"j  c #7F2734",
"k  c #0A501B",
"l  c #38471E",
"z  c #2A591E",
"x  c #0E6D15",
"c  c #107B1B",
"v  c #2F6E17",
"b  c #364A34",
"n  c #076A23",
"m  c #0A7726",
"M  c #137A28",
"N  c #22692E",
"B  c #39712E",
"V  c #554516",
"C  c #734906",
"Z  c #644A1C",
"A  c #796B17",
"S  c #565427",
"D  c #514E3B",
"F  c #665332",
"G  c #6F4829",
"H  c #456426",
"J  c #635649",
"K  c #705D55",
"L  c #4E6C48",
"P  c #716A55",
"I  c #63707C",
"U  c #9E1D1D",
"Y  c #861718",
"T  c #97152E",
"R  c #8B1129",
"E  c #BD1D2A",
"W  c #952037",
"Q  c #B62122",
"!  c #C51313",
"~  c #DC2928",
"^  c #C32220",
"/  c #FC2C2B",
"(  c #F83837",
")  c #ED2C2E",
"_  c #A07D11",
"`  c #87562C",
"'  c #825131",
"]  c #8D672B",
"[  c #A47E3C",
"{  c #A56D3A",
"}  c #976B48",
"|  c #95744A",
" . c #A67C48",
".. c #A96550",
"X. c #A27766",
"o. c #C34342",
"O. c #C57F53",
"+. c #138F11",
"@. c #33921D",
"#. c #00B304",
"$. c #2AB91A",
"%. c #18882B",
"&. c #1A852A",
"*. c #1B9829",
"=. c #2A822A",
"-. c #398C24",
";. c #3A9C29",
":. c #369A27",
">. c #2D923A",
",. c #2B9B2C",
"<. c #1DA423",
"1. c #3CA426",
"2. c #39AD23",
"3. c #32AD2B",
"4. c #458B2C",
"5. c #44992A",
"6. c #44A428",
"7. c #4AA72A",
"8. c #43B427",
"9. c #46A435",
"0. c #5BB031",
"q. c #758932",
"w. c #1EDD14",
"e. c #08D308",
"r. c #2DC41B",
"t. c #28D317",
"y. c #23D10F",
"u. c #04E608",
"i. c #16EC0D",
"p. c #1AE809",
"a. c #02FE03",
"s. c #0CFD05",
"d. c #03F809",
"f. c #12F509",
"g. c #10F808",
"h. c #1FF807",
"j. c #19F612",
"k. c #2EFC06",
"l. c #2CF513",
"z. c #44F50D",
"x. c #64C629",
"c. c #5DAD40",
"v. c #7E836A",
"b. c #808100",
"n. c #B59813",
"m. c #B4A50E",
"M. c #AC8938",
"N. c #B79036",
"B. c #B7A938",
"V. c #91922E",
"C. c #C1AD02",
"Z. c #C1A827",
"A. c #D0B12A",
"S. c #97D80C",
"D. c #A8C80E",
"F. c #95F605",
"G. c #8CF008",
"H. c #A9FF00",
"J. c #CEC80B",
"K. c #E1D609",
"L. c #EBD617",
"P. c #D7FC00",
"I. c #D9E608",
"U. c #E7E307",
"Y. c #FAEB05",
"T. c #F3F302",
"R. c #FEFE01",
"E. c #F0EC12",
"W. c #DACB31",
"Q. c #E5CD2B",
"!. c #ECD42C",
"~. c #F7CE34",
"^. c #F7E523",
"/. c #FFF520",
"(. c #88954C",
"). c #BA8656",
"_. c #B89157",
"`. c #AA8044",
"'. c #9FB743",
"]. c #8F926D",
"[. c #BC9D77",
"{. c #AA9072",
"}. c #80B66E",
"|. c #B3A176",
" X c #C79B48",
".X c #CB9A57",
"XX c #CD905C",
"oX c #D7A947",
"OX c #E3BA40",
"+X c #C09E7B",
"@X c #D2B675",
"#X c #F4F152",
"$X c #FAF76D",
"%X c #3F4DCC",
"&X c #294EFF",
"*X c #4D5EDB",
"=X c #7586D8",
"-X c #AE978D",
";X c #AA938D",
":X c #B5A884",
">X c #D7919E",
",X c #CBAD8D",
"<X c #E4BA9B",
"1X c #D4B8A8",
"2X c #AEDC98",
"3X c #A7C48C",
"4X c #B1F19B",
"5X c #CCC594",
"6X c #E0C299",
"7X c #D9C5B3",
"8X c #EBD8AA",
"9X c #F8D7B2",
"0X c #F4CFB1",
"qX c #CDF7B3",
"wX c #FBE8BC",
"eX c #EAE7B8",
"rX c #8EA7FA",
"tX c #DBDBD0",
"yX c #F4DCC2",
"uX c #FCECC8",
"iX c #FFF5CC",
"pX c #FFFFC5",
"aX c #FFF8D4",
"sX c #E1FFC9",
"dX c #F7F4EE",
"fX c #489848",
/* pixels */
"fXfXfXfXfXfXfXfXfXfXfXfXfXfXfXfXfXfXfXfXfXfXfXfXfXfXfXfXfXfXfXfXfXfXfXfXfXfXfXfXfXfXfXfXfXfXfXfXfXfXfXfXfXfXfXfXfXfXfXfXfXfXfXfXfXfX",
"fXfXfXfXfXfXfXfXfXfXfXfXfXfXfXfXfXfXfXfXfXfXfXfXfXfXfXfXfXfXfXfXfXfXfXfXfXfXfXfXfXfXfXfXfXfXfXfXfXfXfXfXfXfXfXfXfXfXfXfXfXfXfXfXfXfX",
"fXfXfXfXfXfXfXfXfXfXfXfXfXfXfXfXfXfXfXfXfXfXfXfXfXfXfXfXfXfXfXfXfXfXfXfXfXfXfXfXfXfXfXfXfXfXfXfXfXfXfXfXfXfXfXfXfXfXfXfXfXfXfXfXfXfX",
"fXfXfXfXfXfXfXfXfXfXfXfXfXfXfXfXfXfXfXfXfXfXfXfXfXfXfXfXfXfXfXfXfXfXfXfXfXfXfXfXfXfXfXfXfXfXfXfXfXfXfXfXfXfXfXfXfXfXfXfXfXfXfXfXfXfX",
"fXfXfXfXfXfXfXfXfXfXfXfXfXfXfXfXfXfXfXfXfXfXfXfXfXfXfXfXfXfXfXfXfXfXfXfXfXfXfXfXfXfXfXfXfXfXfXfXfXfXfXfXfXfXfXfXfXfXfXfXfXfXfXfXfXfX",
"fXfXfXfXfXfXfXfXfXfXfXfXfXfXfXfXfXfXfXfXfXfXfXfXfXfXfXfXfXfXfXfXfXfXfXfXfXfXfXfXfXfXfXfXfXfXfXfXfXfXfXfXfXfXfXfXfXfXfXfXfXfXfXfXfXfX",
"fXfXfXfXfXfXfXfXfXfXfXfXfXfXfXfXfXfXfXfXfXfXfXfXfXfXfXfXfXfXfXfXfXfXfXfXfXfXfXfXfXfXfXfXfXfXfXfXfXfXfXfXfXfXfXfXfXfXfXfXfXfXfXfXfXfX",
"fXfXfXfXfXfXfXfXfXfXfXfXfXfXfXfXfXfXfXfXfXfXfXfXfXfXfXfXfXfXfXfXfXfXfXfXfXfXfXfXfXfXfXfXfXfXfXfXfXfXfXfXfXfXfXfXfXfXfXfXfXfXfXfXfXfX",
"fXfXfXfXfXfXfXfXfXfXfXfXfXfXfXfXfXfXfXfXfXfXfXfXfXfXfXfXfXfXfXfXfXfXfXfXfXfXfXfXfXfXfXfXfXfXfXfXfXfXfXfXfXfXfXfXfXfXfXfXfXfXfXfXfXfX",
"fXfXfXfXfXfXfXfXfXfXfXfXfXfXfXfXfXfXfXfXfXfXfXfXfXfXfXfXfXfXfXfXfXfXfXfXfXfXfXfXfXfXfXfXfXfXfXfXfXfXfXfXfXfXfXfXfXfXfXfXfXfXfXfXfXfX",
"fXfXfXfXfXfXfXfXfXfXfXfXfXfXfXfXfXfXfXfXfXfXfXfXfXfXfXfXfXfXfXfXfXfXfXfXfXfXfXfXfXfXfXfXfXfXfXfXfXfXfXfXfXfXfXfXfXfXfXfXfXfXfXfXfXfX",
"fXfXfXfXfXfXfXfXfXfXfXfXfXfXfXfXfXfXfXfXfXfXfXfXfXfXfXfXfXfXfXfXfXfXfXfXfXfXfXfXfXfXfXfXfXfXfXfXfXfXfXfXfXfXfXfXfXfXfXfXfXfXfXfXfXfX",
"fXfXfXfXfXfXfXfXfXfXfXfXfXfXfXfXfXfXfXfXfXfXfXfXfXfXfXfXfXfXfXfXfXfXfXfXfXfXfXfXfXfXfXfXfXfXfXfXfXfXfXfXfXfXfXfXfXfXfXfXfXfXfXfXfXfX",
"fXfXfXfXfXfXfXfXfXfXfXfXfXfXfXfXfXfXfXfXfXfXfXfXfXfXfXfXfXfXfXfXfXfXfXfXfXfXfXfXfXfXfXfXfXfXfXfXfXfXfXfXfXfXfXfXfXfXfXfXfXfXfXfXfXfX",
"fXfXfXfXfXfXfXfXfXfXfXfXfXfXfXfXfXfXfXfXfXfXfXfXfXfXfXfXfXfXfXfXfXfXfXfXfXfXfXfXfXfXfXfXfXfXfXfXfXfXfXfXfXfXfXfXfXfXfXfXfXfXfXfXfXfX",
"fXfXfXfXfXfXfXfXfXfXfXfXfXfXfXfXfXfXfXfXfXfXfXfXfXfXfXfXfXfXfXfXfXfXfXfXfXfXfXfXfXfXfXfXfXfXfXfXfXfXfXfXfXfXfXfXfXfXfXfXfXfXfXfXfXfX",
"fXfXfXfXfXfXfXfXfXfXfXfXfXfXfXfXfXfXfXfXfXfXfXfXfXfXfXfXfXfXfXfXfXfXfXfXfXfXfXfXfXfXfXfXfXfXfXfXfXfXfXfXfXfXfXfXfXfXfXfXfXfXfXfXfXfX",
"fXfXfXfXfXfXfXfXfXfXfXfXfXfXfXfXfXfXfXfXfXfXfXfXfXfXfXfXfXfXfXfXfXfXfXfXfXfXfXfXfXfXfXfXfXfXfXfXfXfXfXfXfXfXfXfXfXfXfXfXfXfXfXfXfXfX",
"fXfXfXfXfXfXfXfXfXfXfXfXfXfXfXfXfXfXfXfXfXfXfXfXfXfXfXfXfXfXfXfXfXfXfXfXfXfXfXfXfXfXfXfXfXfXfXfXfXfXfXfXfXfXfXfXfXfXfXfXfXfXfXfXfXfX",
"fXfXfXfXfXfXfXfXfXfXfXfXfXfXfXfXfXfXfXfXfXfXfXfXfXfXfXfXfXfXfXfXfXfXfXfXfXfXfXfXfXfXfXfXfXfXfXfXfXfXfXfXfXfXfXfXfXfXfXfXfXfXfXfXfXfX",
"fXfXfXfXfXfXfXfXfXfXfXfXfXfXfXfXfXfXfXfXfXfXfXfXfXfXfX .` G 4.r.s.s.f.s.s.r.1.fXfXfXfXfXfXfXfXfXfXfXfXfXfXfXfXfXfXfXfXfXfXfXfXfXfXfX",
"fXfXfXfXfXfXfXfXfXfXfXfXfXfXfXfXfXfXfXfXfXfXfXfXfXfX} ).N.m.D.z.a.s.f.f.s.y.t.s.t.4.M fXfXfXfXfXfXfXfXfXfXfXfXfXfXfXfXfXfXfXfXfXfXfX",
"fXfXfXfXfXfXfXfXfXfXfXfXfXfXfXfXfXfXfXfXfXfXfXfXfX .`.oX^.R.R.F.i.f.s.f.g.s.s.s.t.;.=.m fXfXfXfXfXfXfXfXfXfXfXfXfXfXfXfXfXfXfXfXfXfX",
"fXfXfXfXfXfXfXfXfXfXfXfXfXfXfXfXfXfXfXfXfXfXfXfX} Z.R.T.R.R.OXXX'.l.a.f.g.g.s.g.g.w.3.=.m fXfXfXfXfXfXfXfXfXfXfXfXfXfXfXfXfXfXfXfXfX",
"fXfXfXfXfXfXfXfXfXfXfXfXfXfXfXfXfXfXfXfXfXfXfXM.B.U.R.^.!.!.Q.~.W.l.a.g.g.g.g.g.s.f.8.=.m fXfXfXfXfXfXfXfXfXfXfXfXfXfXfXfXfXfXfXfXfX",
"fXfXfXfXfXfXfXfXfXfXfXfXfXfXfXfXfXfXfXfXfXfX} N.T.R.E. XO.oXY.R.P.k.d.g.g.g.g.g.s.i.2.-.M fXfXfXfXfXfXfXfXfXfXfXfXfXfXfXfXfXfXfXfXfX",
"fXfXfXfXfXfXfXfXfXfXfXfXfXfXfXfXfXfXfXfXfXfX} M.Y./.oX' G N.T.R.P.h.d.g.s.s.g.f.s.f.2.5.,.%.fXfXfXfXfXfXfXfXfXfXfXfXfXfXfXfXfXfXfXfX",
"fXfXfXfXfXfXfXfXfXfXfXfXfXfXfXfXfXfXfXfXfXfX} M.!.A.} } X._.Z.K.T.F.k.s.s.s.s.s.p.r.1.6.5.%.5   fXfXfXfXfXfXfXfXfXfXfXfXfXfXfXfXfXfX",
"fXfXfXfXfXfXfXfXfXfXfXfXfXfXfXfXfXfXfXfXfXfXfX`..X` h ,X0X,XX.Z.R.R.F.u.i.i.i.f.r.4.6.6.;.%.5   fXfXfXfXfXfXfXfXfXfXfXfXfXfXfXfXfXfX",
"fXfXfXfXfXfXfXfXfXfXfXfXfXfXfXfXfXfXfXfXfXfXfXfX] , 1 [.wXwX,XOXR.R.S.<.2.2.2.2.1.5.6.6.;.%.5   fXfXfXfXfXfXfXfXfXfXfXfXfXfXfXfXfXfX",
"fXfXfXfXfXfXfXfXfXfXfXfXfXfXfXfXfXfXfXfXfXfXfXfXfX    ] ] P 1X#XR.J.B.(.v &.@.@.;.7.6.6.;.*.5   fXfXfXfXfXfXfXfXfXfXfXfXfXfXfXfXfXfX",
"fXfXfXfXfXfXfXfXfXfXfXfXfXfXfXfXfXfXfXfXfXfXfXfXfX# 0 f 1 q tX$XK. .O..X-.>.c.c.9.;.;.5.;.M 6   fXfXfXfXfXfXfXfXfXfXfXfXfXfXfXfXfXfX",
"fXfXfXfXfXfXfXfXfXfXfXfXfXfXfXfXfXfXfXfXfXfXfXfX  F ;X*X=XtXuX@XM..X .' {.5X8XeX}.+.m ,.-.3 X fXfXfXfXfXfXfXfXfXfXfXfXfXfXfXfXfXfXfX",
"fXfXfXfXfXfXfXfXfXfXfXfXfXfXfXfXfXfXfXfXfXfXfXfX  | 0X&XrXdXiX{.` Q._ h <XaXuX0XP 4 n 3.4.o fXfXfXfXfXfXfXfXfXfXfXfXfXfXfXfXfXfXfXfX",
"fXfXfXfXfXfXfXfXfXfXfXfXfXfXfXfXfXfXfXfXfXfXfXfX  F -X*XrXdXiXX.C T.C.' 6XuX6X[ ,   k ,.-.$   fXfXfXfXfXfXfXfXfXfXfXfXfXfXfXfXfXfXfX",
"fXfXfXfXfXfXfXfXfXfXfXfXfXfXfXfXfXfXfXfXfXfXfXfXfX# w -XyXiXpXX.C T.^.)._..X .*     & k &.&   fXfXfXfXfXfXfXfXfXfXfXfXfXfXfXfXfXfXfX",
"fXfXfXfXfXfXfXfXfXfXfXfXfXfXfXfXfXfXfXfXfXfXfXfXfXfX  p [.9X9X,X .n.L.Q.Z i i J V.q.+ % 5 X fXfXfXfXfXfXfXfXfXfXfXfXfXfXfXfXfXfXfXfX",
"fXfXfXfXfXfXfXfXfXfXfXfXfXfXfXfXfXfXfXfXfXfXfXfXfX= q = J +X|.,X{.h n.L.*   = {.#XJ.fXfX  fXfXfXfXfXfXfXfXfXfXfXfXfXfXfXfXfXfXfXfXfX",
"fXfXfXfXfXfXfXfXfXfXfXfXfXfXfXfXfXfXfXfXfXfXfXfX  P eXqXL > N >.N @ ] A.; 6 n 7 9 9 fXfXfXfXfXfXfXfXfXfXfXfXfXfXfXfXfXfXfXfXfXfXfXfX",
"fXfXfXfXfXfXfXfXfXfXfXfXfXfXfXfXfXfXfXfXfXfXfXfX  D ].v.b 4 c <.x   l q.  8 H     fXfXfXfXfXfXfXfXfXfXfXfXfXfXfXfXfXfXfXfXfXfXfXfXfX",
"fXfXfXfXfXfXfXfXfXfXfXfXfXfXfXfXfXfXfXfXfXfXfXfXfXfX  X v x.8.8.-.* z 9.7 w p # X fXfXfXfXfXfXfXfXfXfXfXfXfXfXfXfXfXfXfXfXfXfXfXfXfX",
"fXfXfXfXfXfXfXfXfXfXfXfXfXfXfXfXfXfX        fXfXfXfX% #.G.I.7.3.5.p (.4X2XD   x k     fXfXfXfXfXfXfXfXfXfXfXfXfXfXfXfXfXfXfXfXfXfXfX",
"fXfXfXfXfXfXfXfXfXfXfXfXfXfXfXfXfXfX  : y y ;       3 u.H.Y.] S S , ].sXsX3XJ 5 2 # u : fXfXfXfXfXfXfXfXfXfXfXfXfXfXfXfXfXfXfXfXfXfX",
"fXfXfXfXfXfXfXfXfXfXfXfXfXfXfXfXfXfX  t ( / Y ; q = % e.z.Y.A Z V X L 2X4XpX8Xg o + ~ U + fXfXfXfXfXfXfXfXfXfXfXfXfXfXfXfXfXfXfXfXfX",
"fXfXfXfXfXfXfXfXfXfXfXfXfXfXfXfXfXfX  t / ) ! o.tXI . ,.l.k.p.p.y.:.7 w +XwXuXeXP   Q ) U + fXfXfXfXfXfXfXfXfXfXfXfXfXfXfXfXfXfXfXfX",
"fXfXfXfXfXfXfXfXfXfXfXfXfXfXfXfXfXfX  : Y ~ / ( >X;XJ l x +.y.j.s.l.+.7 S ,XiX:Xw . R ( ~ ;   fXfXfXfXfXfXfXfXfXfXfXfXfXfXfXfXfXfXfX",
"fXfXfXfXfXfXfXfXfXfXfXfXfXfXfXfXfXfXfXfX. U ~ E u ..+X-   . B $.u.u.r.v   K ,X# X @ a E Q +   fXfXfXfXfXfXfXfXfXfXfXfXfXfXfXfXfXfXfX",
"fXfXfXfXfXfXfXfXfXfXfXfXfXfXfXfXfXfXfXfXfX+ e T d W W @   fX$ % 2 2 2 $   - 0 fXfX@ s T t @   fXfXfXfXfXfXfXfXfXfXfXfXfXfXfXfXfXfXfX",
"fXfXfXfXfXfXfXfXfXfXfXfXfXfXfXfXfXfXfXfXfXfX@ < < < ; . fXfXfX              fXfXfX@ d T s @   fXfXfXfXfXfXfXfXfXfXfXfXfXfXfXfXfXfXfX",
"fXfXfXfXfXfXfXfXfXfXfXfXfXfXfXfXfXfXfXfXfXfXfX        fXfXfXfXfXfXfXfXfXfXfXfXfXfX@ a d e . fXfXfXfXfXfXfXfXfXfXfXfXfXfXfXfXfXfXfXfX",
"fXfXfXfXfXfXfXfXfXfXfXfXfXfXfXfXfXfXfXfXfXfXfXfXfXfXfXfXfXfXfXfXfXfXfXfXfXfXfXfXfXfX@ @ @ fXfXfXfXfXfXfXfXfXfXfXfXfXfXfXfXfXfXfXfXfX",
"fXfXfXfXfXfXfXfXfXfXfXfXfXfXfXfXfXfXfXfXfXfXfXfXfXfXfXfXfXfXfXfXfXfXfXfXfXfXfXfXfXfX      fXfXfXfXfXfXfXfXfXfXfXfXfXfXfXfXfXfXfXfXfX",
"fXfXfXfXfXfXfXfXfXfXfXfXfXfXfXfXfXfXfXfXfXfXfXfXfXfXfXfXfXfXfXfXfXfXfXfXfXfXfXfXfXfXfXfXfXfXfXfXfXfXfXfXfXfXfXfXfXfXfXfXfXfXfXfXfXfX",
"fXfXfXfXfXfXfXfXfXfXfXfXfXfXfXfXfXfXfXfXfXfXfXfXfXfXfXfXfXfXfXfXfXfXfXfXfXfXfXfXfXfXfXfXfXfXfXfXfXfXfXfXfXfXfXfXfXfXfXfXfXfXfXfXfXfX",
"fXfXfXfXfXfXfXfXfXfXfXfXfXfXfXfXfXfXfXfXfXfXfXfXfXfXfXfXfXfXfXfXfXfXfXfXfXfXfXfXfXfXfXfXfXfXfXfXfXfXfXfXfXfXfXfXfXfXfXfXfXfXfXfXfXfX",
"fXfXfXfXfXfXfXfXfXfXfXfXfXfXfXfXfXfXfXfXfXfXfXfXfXfXfXfXfXfXfXfXfXfXfXfXfXfXfXfXfXfXfXfXfXfXfXfXfXfXfXfXfXfXfXfXfXfXfXfXfXfXfXfXfXfX",
"fXfXfXfXfXfXfXfXfXfXfXfXfXfXfXfXfXfXfXfXfXfXfXfXfXfXfXfXfXfXfXfXfXfXfXfXfXfXfXfXfXfXfXfXfXfXfXfXfXfXfXfXfXfXfXfXfXfXfXfXfXfXfXfXfXfX",
"fXfXfXfXfXfXfXfXfXfXfXfXfXfXfXfXfXfXfXfXfXfXfXfXfXfXfXfXfXfXfXfXfXfXfXfXfXfXfXfXfXfXfXfXfXfXfXfXfXfXfXfXfXfXfXfXfXfXfXfXfXfXfXfXfXfX",
"fXfXfXfXfXfXfXfXfXfXfXfXfXfXfXfXfXfXfXfXfXfXfXfXfXfXfXfXfXfXfXfXfXfXfXfXfXfXfXfXfXfXfXfXfXfXfXfXfXfXfXfXfXfXfXfXfXfXfXfXfXfXfXfXfXfX",
"fXfXfXfXfXfXfXfXfXfXfXfXfXfXfXfXfXfXfXfXfXfXfXfXfXfXfXfXfXfXfXfXfXfXfXfXfXfXfXfXfXfXfXfXfXfXfXfXfXfXfXfXfXfXfXfXfXfXfXfXfXfXfXfXfXfX",
"fXfXfXfXfXfXfXfXfXfXfXfXfXfXfXfXfXfXfXfXfXfXfXfXfXfXfXfXfXfXfXfXfXfXfXfXfXfXfXfXfXfXfXfXfXfXfXfXfXfXfXfXfXfXfXfXfXfXfXfXfXfXfXfXfXfX",
"fXfXfXfXfXfXfXfXfXfXfXfXfXfXfXfXfXfXfXfXfXfXfXfXfXfXfXfXfXfXfXfXfXfXfXfXfXfXfXfXfXfXfXfXfXfXfXfXfXfXfXfXfXfXfXfXfXfXfXfXfXfXfXfXfXfX",
"fXfXfXfXfXfXfXfXfXfXfXfXfXfXfXfXfXfXfXfXfXfXfXfXfXfXfXfXfXfXfXfXfXfXfXfXfXfXfXfXfXfXfXfXfXfXfXfXfXfXfXfXfXfXfXfXfXfXfXfXfXfXfXfXfXfX",
"fXfXfXfXfXfXfXfXfXfXfXfXfXfXfXfXfXfXfXfXfXfXfXfXfXfXfXfXfXfXfXfXfXfXfXfXfXfXfXfXfXfXfXfXfXfXfXfXfXfXfXfXfXfXfXfXfXfXfXfXfXfXfXfXfXfX",
"fXfXfXfXfXfXfXfXfXfXfXfXfXfXfXfXfXfXfXfXfXfXfXfXfXfXfXfXfXfXfXfXfXfXfXfXfXfXfXfXfXfXfXfXfXfXfXfXfXfXfXfXfXfXfXfXfXfXfXfXfXfXfXfXfXfX",
"fXfXfXfXfXfXfXfXfXfXfXfXfXfXfXfXfXfXfXfXfXfXfXfXfXfXfXfXfXfXfXfXfXfXfXfXfXfXfXfXfXfXfXfXfXfXfXfXfXfXfXfXfXfXfXfXfXfXfXfXfXfXfXfXfXfX",
"fXfXfXfXfXfXfXfXfXfXfXfXfXfXfXfXfXfXfXfXfXfXfXfXfXfXfXfXfXfXfXfXfXfXfXfXfXfXfXfXfXfXfXfXfXfXfXfXfXfXfXfXfXfXfXfXfXfXfXfXfXfXfXfXfXfX",
"fXfXfXfXfXfXfXfXfXfXfXfXfXfXfXfXfXfXfXfXfXfXfXfXfXfXfXfXfXfXfXfXfXfXfXfXfXfXfXfXfXfXfXfXfXfXfXfXfXfXfXfXfXfXfXfXfXfXfXfXfXfXfXfXfXfX",
"fXfXfXfXfXfXfXfXfXfXfXfXfXfXfXfXfXfXfXfXfXfXfXfXfXfXfXfXfXfXfXfXfXfXfXfXfXfXfXfXfXfXfXfXfXfXfXfXfXfXfXfXfXfXfXfXfXfXfXfXfXfXfXfXfXfX",
"fXfXfXfXfXfXfXfXfXfXfXfXfXfXfXfXfXfXfXfXfXfXfXfXfXfXfXfXfXfXfXfXfXfXfXfXfXfXfXfXfXfXfXfXfXfXfXfXfXfXfXfXfXfXfXfXfXfXfXfXfXfXfXfXfXfX",
"fXfXfXfXfXfXfXfXfXfXfXfXfXfXfXfXfXfXfXfXfXfXfXfXfXfXfXfXfXfXfXfXfXfXfXfXfXfXfXfXfXfXfXfXfXfXfXfXfXfXfXfXfXfXfXfXfXfXfXfXfXfXfXfXfXfX",
"fXfXfXfXfXfXfXfXfXfXfXfXfXfXfXfXfXfXfXfXfXfXfXfXfXfXfXfXfXfXfXfXfXfXfXfXfXfXfXfXfXfXfXfXfXfXfXfXfXfXfXfXfXfXfXfXfXfXfXfXfXfXfXfXfXfX"
};
