/* XPM */
static char *result[] = {
/* columns rows colors chars-per-pixel */
"66 72 235 2 ",
"   c #000000",
".  c #010B03",
"X  c #0B0308",
"o  c #140204",
"O  c #140708",
"+  c #011707",
"@  c #16150C",
"#  c #121910",
"$  c #041911",
"%  c #220507",
"&  c #350613",
"*  c #350E0C",
"=  c #07280A",
"-  c #043806",
";  c #162616",
":  c #033412",
">  c #093B14",
",  c #182D09",
"<  c #342C16",
"1  c #223010",
"2  c #2C3227",
"3  c #312B29",
"4  c #490E0D",
"5  c #460919",
"6  c #540A1A",
"7  c #520F0F",
"8  c #7C151E",
"9  c #610C1F",
"0  c #452615",
"q  c #562A19",
"w  c #443318",
"e  c #56310E",
"r  c #6C3B1E",
"t  c #511F26",
"y  c #7C1029",
"u  c #640E22",
"i  c #473A2D",
"p  c #773E22",
"a  c #094A17",
"s  c #07541D",
"d  c #0F4113",
"f  c #235416",
"g  c #067405",
"h  c #046C1D",
"j  c #1C681C",
"k  c #25691D",
"l  c #2E791C",
"z  c #32751D",
"x  c #115023",
"c  c #2A432C",
"v  c #066623",
"b  c #0A7428",
"n  c #356526",
"m  c #53520A",
"M  c #724D1A",
"N  c #576E1C",
"B  c #57482B",
"V  c #544736",
"C  c #78483A",
"Z  c #7E5735",
"A  c #6F562D",
"S  c #4F672C",
"D  c #666C2C",
"F  c #7A6F3D",
"G  c #443865",
"H  c #424F4F",
"J  c #6C5A48",
"K  c #785646",
"L  c #457C42",
"P  c #6A6F53",
"I  c #564360",
"U  c #7F7072",
"Y  c #881919",
"T  c #A41F1E",
"R  c #A7201C",
"E  c #86122C",
"W  c #98162E",
"Q  c #8C1131",
"!  c #B42221",
"~  c #CC2429",
"^  c #E12731",
"/  c #FA2E2F",
"(  c #805905",
")  c #835027",
"_  c #896537",
"`  c #956837",
"'  c #966F34",
"]  c #A66E3C",
"[  c #875748",
"{  c #816B5A",
"}  c #8D7557",
"|  c #987253",
" . c #A17A41",
".. c #A77A44",
"X. c #A57753",
"o. c #BE7548",
"O. c #867A6E",
"+. c #2B9719",
"@. c #288A15",
"#. c #32B71A",
"$. c #14832B",
"%. c #198729",
"&. c #139725",
"*. c #268B29",
"=. c #358A29",
"-. c #24942A",
";. c #359C2A",
":. c #3A9B24",
">. c #288A39",
",. c #3EA42A",
"<. c #3DA829",
"1. c #36B322",
"2. c #3BB424",
"3. c #28B52F",
"4. c #0DA511",
"5. c #598327",
"6. c #44962B",
"7. c #429D29",
"8. c #49992B",
"9. c #419232",
"0. c #7A9C3E",
"q. c #42A228",
"w. c #44AA2A",
"e. c #47B32C",
"r. c #4BB235",
"t. c #488C0B",
"y. c #06CA05",
"u. c #0CC519",
"i. c #2BC71A",
"p. c #22D814",
"a. c #26DC0B",
"s. c #17EB0D",
"d. c #03FE05",
"f. c #0CFD06",
"g. c #01F808",
"h. c #0BF709",
"j. c #12F509",
"k. c #10F808",
"l. c #15FB06",
"z. c #1EE917",
"x. c #39FC05",
"c. c #2BF21A",
"v. c #55DA06",
"b. c #66DC0C",
"n. c #4CF709",
"m. c #61CF2E",
"M. c #73AB50",
"N. c #78B86A",
"B. c #988200",
"V. c #8B9A00",
"C. c #AC8A14",
"Z. c #B49711",
"A. c #9FA100",
"S. c #B1B409",
"D. c #AF8836",
"F. c #86B125",
"G. c #B5A621",
"H. c #C8B81D",
"J. c #C1AB1D",
"K. c #C08F3A",
"L. c #C3A924",
"P. c #CCAE33",
"I. c #E7BB3F",
"U. c #80D90E",
"Y. c #95F902",
"T. c #B4ED0A",
"R. c #9CD328",
"E. c #DDCB0A",
"W. c #D2C418",
"Q. c #D5D200",
"!. c #EADF16",
"~. c #D8F801",
"^. c #E8E209",
"/. c #FEFE01",
"(. c #F6F702",
"). c #F4E718",
"_. c #F1F110",
"`. c #E9D337",
"'. c #E8D230",
"]. c #F9E523",
"[. c #AA8444",
"{. c #B48848",
"}. c #AC8559",
"|. c #B8904E",
" X c #9CAD43",
".X c #BEAD4B",
"XX c #9D8566",
"oX c #B39976",
"OX c #BE9969",
"+X c #8CBA7A",
"@X c #8CB56D",
"#X c #A9A674",
"$X c #CB9D4E",
"%X c #C99657",
"&X c #C28E57",
"*X c #D7A94D",
"=X c #D9AA50",
"-X c #EFBA46",
";X c #CA947C",
":X c #C7A97F",
">X c #92C46F",
",X c #7272B4",
"<X c #3966FF",
"1X c #636FDE",
"2X c #4B6FFF",
"3X c #6171F1",
"4X c #A29E96",
"5X c #BBBB86",
"6X c #DBB98C",
"7X c #CEAB8B",
"8X c #EABC86",
"9X c #D8BDAD",
"0X c #9BD387",
"qX c #A9D294",
"wX c #BEFFA5",
"eX c #AFEC98",
"rX c #DBC280",
"tX c #EAC59B",
"yX c #F1CC9B",
"uX c #D0C5A5",
"iX c #E9CBA4",
"pX c #F8DBB5",
"aX c #EFD9AE",
"sX c #C8FFAD",
"dX c #D3FFB6",
"fX c #FEE8B6",
"gX c #F9EFA6",
"hX c #8792E9",
"jX c #FFE8C3",
"kX c #E6FFC8",
"lX c #FCFAC9",
"zX c #FFFEDC",
"xX c #FFFFE7",
"cX c #ECEFF8",
"vX c None",
/* pixels */
"vXvXvXvXvXvXvXvXvXvXvXvXvXvXvXvXvXvXvXvXvXvXvXvXvXvXvXvXvXvXvXvXvXvXvXvXvXvXvXvXvXvXvXvXvXvXvXvXvXvXvXvXvXvXvXvXvXvXvXvXvXvXvXvXvXvX",
"vXvXvXvXvXvXvXvXvXvXvXvXvXvXvXvXvXvXvXvXvXvXvXvXvXvXvXvXvXvXvXvXvXvXvXvXvXvXvXvXvXvXvXvXvXvXvXvXvXvXvXvXvXvXvXvXvXvXvXvXvXvXvXvXvXvX",
"vXvXvXvXvXvXvXvXvXvXvXvXvXvXvXvXvXvXvXvXvXvXvXvXvXvXvXvXvXvXvXvXvXvXvXvXvXvXvXvXvXvXvXvXvXvXvXvXvXvXvXvXvXvXvXvXvXvXvXvXvXvXvXvXvXvX",
"vXvXvXvXvXvXvXvXvXvXvXvXvXvXvXvXvXvXvXvXvXvXvXvXvXvXvXvXvXvXvXvXvXvXvXvXvXvXvXvXvXvXvXvXvXvXvXvXvXvXvXvXvXvXvXvXvXvXvXvXvXvXvXvXvXvX",
"vXvXvXvXvXvXvXvXvXvXvXvXvXvXvXvXvXvXvXvXvXvXvXvXvXvXvXvXvXvXvXvXvXvXvXvXvXvXvXvXvXvXvXvXvXvXvXvXvXvXvXvXvXvXvXvXvXvXvXvXvXvXvXvXvXvX",
"vXvXvXvXvXvXvXvXvXvXvXvXvXvXvXvXvXvXvXvXvXvXvXvXvXvXvXvXvXvXvXvXvXvXvXvXvXvXvXvXvXvXvXvXvXvXvXvXvXvXvXvXvXvXvXvXvXvXvXvXvXvXvXvXvXvX",
"vXvXvXvXvXvXvXvXvXvXvXvXvXvXvXvXvXvXvXvXvXvXvXvXvXvXvXvXvXvXvXvXvXvXvXvXvXvXvXvXvXvXvXvXvXvXvXvXvXvXvXvXvXvXvXvXvXvXvXvXvXvXvXvXvXvX",
"vXvXvXvXvXvXvXvXvXvXvXvXvXvXvXvXvXvXvXvXvXvXvXvXvXvXvXvXvXvXvXvXvXvXvXvXvXvXvXvXvXvXvXvXvXvXvXvXvXvXvXvXvXvXvXvXvXvXvXvXvXvXvXvXvXvX",
"vXvXvXvXvXvXvXvXvXvXvXvXvXvXvXvXvXvXvXvXvXvXvXvXvXvXvXvXvXvXvXvXvXvXvXvXvXvXvXvXvXvXvXvXvXvXvXvXvXvXvXvXvXvXvXvXvXvXvXvXvXvXvXvXvXvX",
"vXvXvXvXvXvXvXvXvXvXvXvXvXvXvXvXvXvXvXvXvXvXvXvXvXvXvXvXvXvXvXvXvXvXvXvXvXvXvXvXvXvXvXvXvXvXvXvXvXvXvXvXvXvXvXvXvXvXvXvXvXvXvXvXvXvX",
"vXvXvXvXvXvXvXvXvXvXvXvXvXvXvXvXvXvXvXvXvXvXvXvXvXvXvXvXvXvXvXvXvXvXvXvXvXvXvXvXvXvXvXvXvXvXvXvXvXvXvXvXvXvXvXvXvXvXvXvXvXvXvXvXvXvX",
"vXvXvXvXvXvXvXvXvXvXvXvXvXvXvXvXvXvXvXvXvXvXvXvXvXvXvXvXvXvXvXvXvXvXvXvXvXvXvXvXvXvXvXvXvXvXvXvXvXvXvXvXvXvXvXvXvXvXvXvXvXvXvXvXvXvX",
"vXvXvXvXvXvXvXvXvXvXvXvXvXvXvXvXvXvXvXvXvXvXvXvXvXvXvXvXvXvXvXvXvXvXvXvXvXvXvXvXvXvXvXvXvXvXvXvXvXvXvXvXvXvXvXvXvXvXvXvXvXvXvXvXvXvX",
"vXvXvXvXvXvXvXvXvXvXvXvXvXvXvXvXvXvXvXvXvXvXvXvXvXvXvXvXvXvXvXvXvXvXvXvXvXvXvXvXvXvXvXvXvXvXvXvXvXvXvXvXvXvXvXvXvXvXvXvXvXvXvXvXvXvX",
"vXvXvXvXvXvXvXvXvXvXvXvXvXvXvXvXvXvXvXvXvXvXvXvXvXvXvXvXvXvXvXvXvXvXvXvXvXvXvXvXvXvXvXvXvXvXvXvXvXvXvXvXvXvXvXvXvXvXvXvXvXvXvXvXvXvX",
"vXvXvXvXvXvXvXvXvXvXvXvXvXvXvXvXvXvXvXvXvXvXvXvXvXvXvXvXvXvXvXvXvXvXvXvXvXvXvXvXvXvXvXvXvXvXvXvXvXvXvXvXvXvXvXvXvXvXvXvXvXvXvXvXvXvX",
"vXvXvXvXvXvXvXvXvXvXvXvXvXvXvXvXvXvXvXvXvXvXvXvXvXvXvXvXvXvXvXvXvXvXvXvXvXvXvXvXvXvXvXvXvXvXvXvXvXvXvXvXvXvXvXvXvXvXvXvXvXvXvXvXvXvX",
"vXvXvXvXvXvXvXvXvXvXvXvXvXvXvXvXvXvXvXvXvXvXvXvXvXvXvXvXvXvXvXvXvXvXvXvXvXvXvXvXvXvXvXvXvXvXvXvXvXvXvXvXvXvXvXvXvXvXvXvXvXvXvXvXvXvX",
"vXvXvXvXvXvXvXvXvXvXvXvXvXvXvXvXvXvXvXvXvXvXvXvXvXvXvXvXvXvXvXvXvXvXvXvXvXvXvXvXvXvXvXvXvXvXvXvXvXvXvXvXvXvXvXvXvXvXvXvXvXvXvXvXvXvX",
"vXvXvXvXvXvXvXvXvXvXvXvXvXvXvXvXvXvXvXvXvXvXvXvX|.` p S 1.s.f.k.k.f.k.i.6.7.q.vXvXvXvXvXvXvXvXvXvXvXvXvXvXvXvXvXvXvXvXvXvXvXvXvXvXvX",
"vXvXvXvXvXvXvXvXvXvXvXvXvXvXvXvXvXvXvXvXvXvXvXvXP.L.Z.S.U.j.d.k.k.f.k.p.i.i.1.vXvXvXvXvXvXvXvXvXvXvXvXvXvXvXvXvXvXvXvXvXvXvXvXvXvXvX",
"vXvXvXvXvXvXvXvXvXvXvXvXvXvXvXvXvXvXvXvXvX] {.=X)./././._.n.h.k.k.k.k.f.f.f.p.7.vXvXvXvXvXvXvXvXvXvXvXvXvXvXvXvXvXvXvXvXvXvXvXvXvXvX",
"vXvXvXvXvXvXvXvXvXvXvXvXvXvXvXvXvXvXvXvX .H._._././.'.-XI..Xm.f.f.k.k.k.f.f.j.p.2.=.b vXvXvXvXvXvXvXvXvXvXvXvXvXvXvXvXvXvXvXvXvXvXvX",
"vXvXvXvXvXvXvXvXvXvXvXvXvXvXvXvXvXvXvX] L.(./.^.).'.&X$XI.I.R.d.d.k.k.k.k.k.d.f.2.=.*.$.vXvXvXvXvXvXvXvXvXvXvXvXvXvXvXvXvXvXvXvXvXvX",
"vXvXvXvXvXvXvXvXvXvXvXvXvXvXvXvXvXvX[.L././.!.=X=X%X..H././.Y.h.g.k.k.k.k.f.f.j.#.8.7.-.s vXvXvXvXvXvXvXvXvXvXvXvXvXvXvXvXvXvXvXvXvX",
"vXvXvXvXvXvXvXvXvXvXvXvXvXvXvXvXvXvX .W./.].-X=XX.) _ H././.Y.g.g.k.k.k.k.f.z.#.<.7.q.<.k . vXvXvXvXvXvXvXvXvXvXvXvXvXvXvXvXvXvXvXvX",
"vXvXvXvXvXvXvXvXvXvXvXvXvXvXvXvXvXvX .G.E.P.%X*X` Z X.P.^./.T.x.l.f.f.f.k.s.#.6.7.7.q.e.l . vXvXvXvXvXvXvXvXvXvXvXvXvXvXvXvXvXvXvXvX",
"vXvXvXvXvXvXvXvXvXvXvXvXvXvXvXvXvXvXvX_ ) ' ..{.OX7X7X}.D.^.(.~.n.d.f.d.s.1.7.7.q.q.q.e.z   vXvXvXvXvXvXvXvXvXvXvXvXvXvXvXvXvXvXvXvX",
"vXvXvXvXvXvXvXvXvXvXvXvXvXvXvXvXvXvXvXvXvXvX_ w XXpXfX7X}.!././.b.u.i.p.i.7.6.q.q.q.7.w.=.a $   vXvXvXvXvXvXvXvXvXvXvXvXvXvXvXvXvXvX",
"vXvXvXvXvXvXvXvXvXvXvXvXvXvXvXvXvXvXvXvXvXvXvX  A 6XuX9XrX).(.^.F.6.6.7.7.:.,.q.q.7.,.q.,.%.:   vXvXvXvXvXvXvXvXvXvXvXvXvXvXvXvXvXvX",
"vXvXvXvXvXvXvXvXvXvXvXvXvXvXvXvXvXvXvXvXvXvXvX  e M @ U gX_.^.D.$XF.:.+.+.+.:.q.w.q.,.q.;.$.:   vXvXvXvXvXvXvXvXvXvXvXvXvXvXvXvXvXvX",
"vXvXvXvXvXvXvXvXvXvXvXvXvXvXvXvXvXvXvXvXvXvX@ V I G I 4XfX`.L.X.o.{.M.M.>X>XM.-.-.;.q.q.;.$.:   vXvXvXvXvXvXvXvXvXvXvXvXvXvXvXvXvXvX",
"vXvXvXvXvXvXvXvXvXvXvXvXvXvXvXvXvXvXvXvXvX  B 6X1X2XcXxXiXX.D.=X) ) 7XpXjXjX@Xv v %.,.w.;.b :   vXvXvXvXvXvXvXvXvXvXvXvXvXvXvXvXvXvX",
"vXvXvXvXvXvXvXvXvXvXvXvXvXvXvXvXvXvXvXvXvX  B yX3X<XcXxXiX[ C.).( K pXzXjX8XA + $ a -.,.;.%.:   vXvXvXvXvXvXvXvXvXvXvXvXvXvXvXvXvXvX",
"vXvXvXvXvXvXvXvXvXvXvXvXvXvXvXvXvXvXvXvXvX  < } ,XhXcXxXiXC A./.C.| iXpX7XA O     + s =.w.%.>   vXvXvXvXvXvXvXvXvXvXvXvXvXvXvXvXvXvX",
"vXvXvXvXvXvXvXvXvXvXvXvXvXvXvXvXvXvXvXvXvXvXvXO { iXpXlXiXC ( /.-X%X..|._ @     vXvX. z <.$.:   vXvXvXvXvXvXvXvXvXvXvXvXvXvXvXvXvXvX",
"vXvXvXvXvXvXvXvXvXvXvXvXvXvXvXvXvXvXvXvXvXvXvXvX< } tXfX8X7X..Z.).H.w 0 0 Z G.A.vXvX  j *.> + vXvXvXvXvXvXvXvXvXvXvXvXvXvXvXvXvXvXvX",
"vXvXvXvXvXvXvXvXvXvXvXvXvXvXvXvXvXvXvXvXvXvXvXvXvX@ } oX#X5X{ 6 E.S.    , [.'.Q.vXvX  a a   vXvXvXvXvXvXvXvXvXvXvXvXvXvXvXvXvXvXvXvX",
"vXvXvXvXvXvXvXvXvXvXvXvXvXvXvXvXvXvXvXvXvXvXvXvXvXvXX x >.>.> O K.D.  : s # , , vXvXvX. . vXvXvXvXvXvXvXvXvXvXvXvXvXvXvXvXvXvXvXvXvX",
"vXvXvXvXvXvXvXvXvXvXvXvXvXvXvXvXvXvXvXvXvXvXvXvXvXo m t.&.&.-   D F.f %.-.<     vXvXvXvXvXvXvXvXvXvXvXvXvXvXvXvXvXvXvXvXvXvXvXvXvXvX",
"vXvXvXvXvXvXvXvXvXvXvXvXvXvXvXvXvXvXvXvXvXvXvXvX  m (.T.*.r.n $ n ,.q.w.5.M 0 ; vXvXvXvXvXvXvXvXvXvXvXvXvXvXvXvXvXvXvXvXvXvXvXvXvXvX",
"vXvXvXvXvXvXvXvXvXvXvXvXvXvXvXvXvXvXvXvXvXvXvX  g v./.B.. N.qX0XF N <.5.q o P 0X; vXvXvXvXvXvXvXvXvXvXvXvXvXvXvXvXvXvXvXvXvXvXvXvXvX",
"vXvXvXvXvXvXvXvXvXvXvXvXvXvXvXvXvXvXvXvXvXvX    y.x.V.B H qXkXdXF * S D B - L +XP i vXvXvXvXvXvXvXvXvXvXvXvXvXvXvXvXvXvXvXvXvXvXvXvX",
"vXvXvXvXvXvXvXvXvXvXvXvXvXvXvXvXvXvXvXvX        y.y.. P sXwXsXeXc o p 5.1.e.d O oXXX  vXvXvXvXvXvXvXvXvXvXvXvXvXvXvXvXvXvXvXvXvXvXvX",
"vXvXvXvXvXvXvXvXvXvXvXvXvXvXvXvXvXvX  4 ! T 8 6 - k O.uXlXkX+Xc 2 @.#.a.z.3.:   2 2 vXvXvXvXvXvXvXvXvXvXvXvXvXvXvXvXvXvXvXvXvXvXvXvX",
"vXvXvXvXvXvXvXvXvXvXvXvXvXvXvXvXvXvX  7 ~ / ^ E   3 jXzXiXqXS + @.c.f.f.y.h # % % o vXvXvXvXvXvXvXvXvXvXvXvXvXvXvXvXvXvXvXvXvXvXvXvX",
"vXvXvXvXvXvXvXvXvXvXvXvXvXvXvXvXvXvXvXX % ! ^ y   2 pXlX5X& = w.z.l.l.u.v + & y ~ Y   vXvXvXvXvXvXvXvXvXvXvXvXvXvXvXvXvXvXvXvXvXvXvX",
"vXvXvXvXvXvXvXvXvXvXvXvXvXvXvXvXvXvXvXvXvX4 y E u t J P i   . f g g g a #   & W / R   vXvXvXvXvXvXvXvXvXvXvXvXvXvXvXvXvXvXvXvXvXvXvX",
"vXvXvXvXvXvXvXvXvXvXvXvXvXvXvXvXvXvXvXvXvX  O u E 6                         & Q ~ E   vXvXvXvXvXvXvXvXvXvXvXvXvXvXvXvXvXvXvXvXvXvXvX",
"vXvXvXvXvXvXvXvXvXvXvXvXvXvXvXvXvXvXvXvXvXvXvXO O X       vXvXvXvXvXvXvXvX  & E W 6   vXvXvXvXvXvXvXvXvXvXvXvXvXvXvXvXvXvXvXvXvXvXvX",
"vXvXvXvXvXvXvXvXvXvXvXvXvXvXvXvXvXvXvXvXvXvXvX          vXvXvXvXvXvXvXvXvX  & Q Q 6   vXvXvXvXvXvXvXvXvXvXvXvXvXvXvXvXvXvXvXvXvXvXvX",
"vXvXvXvXvXvXvXvXvXvXvXvXvXvXvXvXvXvXvXvXvXvXvXvXvXvXvXvXvXvXvXvXvXvXvXvXvX  & y y 5   vXvXvXvXvXvXvXvXvXvXvXvXvXvXvXvXvXvXvXvXvXvXvX",
"vXvXvXvXvXvXvXvXvXvXvXvXvXvXvXvXvXvXvXvXvXvXvXvXvXvXvXvXvXvXvXvXvXvXvXvXvXvXO % % O vXvXvXvXvXvXvXvXvXvXvXvXvXvXvXvXvXvXvXvXvXvXvXvX",
"vXvXvXvXvXvXvXvXvXvXvXvXvXvXvXvXvXvXvXvXvXvXvXvXvXvXvXvXvXvXvXvXvXvXvXvXvXvXvX      vXvXvXvXvXvXvXvXvXvXvXvXvXvXvXvXvXvXvXvXvXvXvXvX",
"vXvXvXvXvXvXvXvXvXvXvXvXvXvXvXvXvXvXvXvXvXvXvXvXvXvXvXvXvXvXvXvXvXvXvXvXvXvXvXvXvXvXvXvXvXvXvXvXvXvXvXvXvXvXvXvXvXvXvXvXvXvXvXvXvXvX",
"vXvXvXvXvXvXvXvXvXvXvXvXvXvXvXvXvXvXvXvXvXvXvXvXvXvXvXvXvXvXvXvXvXvXvXvXvXvXvXvXvXvXvXvXvXvXvXvXvXvXvXvXvXvXvXvXvXvXvXvXvXvXvXvXvXvX",
"vXvXvXvXvXvXvXvXvXvXvXvXvXvXvXvXvXvXvXvXvXvXvXvXvXvXvXvXvXvXvXvXvXvXvXvXvXvXvXvXvXvXvXvXvXvXvXvXvXvXvXvXvXvXvXvXvXvXvXvXvXvXvXvXvXvX",
"vXvXvXvXvXvXvXvXvXvXvXvXvXvXvXvXvXvXvXvXvXvXvXvXvXvXvXvXvXvXvXvXvXvXvXvXvXvXvXvXvXvXvXvXvXvXvXvXvXvXvXvXvXvXvXvXvXvXvXvXvXvXvXvXvXvX",
"vXvXvXvXvXvXvXvXvXvXvXvXvXvXvXvXvXvXvXvXvXvXvXvXvXvXvXvXvXvXvXvXvXvXvXvXvXvXvXvXvXvXvXvXvXvXvXvXvXvXvXvXvXvXvXvXvXvXvXvXvXvXvXvXvXvX",
"vXvXvXvXvXvXvXvXvXvXvXvXvXvXvXvXvXvXvXvXvXvXvXvXvXvXvXvXvXvXvXvXvXvXvXvXvXvXvXvXvXvXvXvXvXvXvXvXvXvXvXvXvXvXvXvXvXvXvXvXvXvXvXvXvXvX",
"vXvXvXvXvXvXvXvXvXvXvXvXvXvXvXvXvXvXvXvXvXvXvXvXvXvXvXvXvXvXvXvXvXvXvXvXvXvXvXvXvXvXvXvXvXvXvXvXvXvXvXvXvXvXvXvXvXvXvXvXvXvXvXvXvXvX",
"vXvXvXvXvXvXvXvXvXvXvXvXvXvXvXvXvXvXvXvXvXvXvXvXvXvXvXvXvXvXvXvXvXvXvXvXvXvXvXvXvXvXvXvXvXvXvXvXvXvXvXvXvXvXvXvXvXvXvXvXvXvXvXvXvXvX",
"vXvXvXvXvXvXvXvXvXvXvXvXvXvXvXvXvXvXvXvXvXvXvXvXvXvXvXvXvXvXvXvXvXvXvXvXvXvXvXvXvXvXvXvXvXvXvXvXvXvXvXvXvXvXvXvXvXvXvXvXvXvXvXvXvXvX",
"vXvXvXvXvXvXvXvXvXvXvXvXvXvXvXvXvXvXvXvXvXvXvXvXvXvXvXvXvXvXvXvXvXvXvXvXvXvXvXvXvXvXvXvXvXvXvXvXvXvXvXvXvXvXvXvXvXvXvXvXvXvXvXvXvXvX",
"vXvXvXvXvXvXvXvXvXvXvXvXvXvXvXvXvXvXvXvXvXvXvXvXvXvXvXvXvXvXvXvXvXvXvXvXvXvXvXvXvXvXvXvXvXvXvXvXvXvXvXvXvXvXvXvXvXvXvXvXvXvXvXvXvXvX",
"vXvXvXvXvXvXvXvXvXvXvXvXvXvXvXvXvXvXvXvXvXvXvXvXvXvXvXvXvXvXvXvXvXvXvXvXvXvXvXvXvXvXvXvXvXvXvXvXvXvXvXvXvXvXvXvXvXvXvXvXvXvXvXvXvXvX",
"vXvXvXvXvXvXvXvXvXvXvXvXvXvXvXvXvXvXvXvXvXvXvXvXvXvXvXvXvXvXvXvXvXvXvXvXvXvXvXvXvXvXvXvXvXvXvXvXvXvXvXvXvXvXvXvXvXvXvXvXvXvXvXvXvXvX",
"vXvXvXvXvXvXvXvXvXvXvXvXvXvXvXvXvXvXvXvXvXvXvXvXvXvXvXvXvXvXvXvXvXvXvXvXvXvXvXvXvXvXvXvXvXvXvXvXvXvXvXvXvXvXvXvXvXvXvXvXvXvXvXvXvXvX",
"vXvXvXvXvXvXvXvXvXvXvXvXvXvXvXvXvXvXvXvXvXvXvXvXvXvXvXvXvXvXvXvXvXvXvXvXvXvXvXvXvXvXvXvXvXvXvXvXvXvXvXvXvXvXvXvXvXvXvXvXvXvXvXvXvXvX",
"vXvXvXvXvXvXvXvXvXvXvXvXvXvXvXvXvXvXvXvXvXvXvXvXvXvXvXvXvXvXvXvXvXvXvXvXvXvXvXvXvXvXvXvXvXvXvXvXvXvXvXvXvXvXvXvXvXvXvXvXvXvXvXvXvXvX",
"vXvXvXvXvXvXvXvXvXvXvXvXvXvXvXvXvXvXvXvXvXvXvXvXvXvXvXvXvXvXvXvXvXvXvXvXvXvXvXvXvXvXvXvXvXvXvXvXvXvXvXvXvXvXvXvXvXvXvXvXvXvXvXvXvXvX",
"vXvXvXvXvXvXvXvXvXvXvXvXvXvXvXvXvXvXvXvXvXvXvXvXvXvXvXvXvXvXvXvXvXvXvXvXvXvXvXvXvXvXvXvXvXvXvXvXvXvXvXvXvXvXvXvXvXvXvXvXvXvXvXvXvXvX"
};
