/* XPM */
static char *result[] = {
/* columns rows colors chars-per-pixel */
"66 72 233 2 ",
"   c #000001",
".  c #0A0302",
"X  c #020C05",
"o  c #090808",
"O  c #140806",
"+  c #071605",
"@  c #15110B",
"#  c #171612",
"$  c #0A0E14",
"%  c #25040A",
"&  c #32050A",
"*  c #330712",
"=  c #3D0614",
"-  c #2F140D",
";  c #002500",
":  c #0A2C09",
">  c #182714",
",  c #033313",
"<  c #1C3616",
"1  c #0C340F",
"2  c #242603",
"3  c #3C230F",
"4  c #33321E",
"5  c #162226",
"6  c #293729",
"7  c #322D26",
"8  c #4B0A1A",
"9  c #550A19",
"0  c #49130E",
"q  c #641312",
"w  c #731017",
"e  c #4A2C0D",
"r  c #523412",
"t  c #673917",
"y  c #70351E",
"u  c #7A1128",
"i  c #781029",
"p  c #4A392C",
"a  c #493134",
"s  c #5C3A3C",
"d  c #75322A",
"f  c #0B4B1E",
"g  c #06571E",
"h  c #1F5618",
"j  c #0B4A08",
"k  c #29591E",
"l  c #067403",
"z  c #057716",
"x  c #1A6D15",
"c  c #326B1D",
"v  c #3C4939",
"b  c #196527",
"n  c #0A7529",
"m  c #167C29",
"M  c #2E772C",
"N  c #68441E",
"B  c #7C4D1C",
"V  c #56721E",
"C  c #6B6800",
"Z  c #4B4638",
"A  c #574426",
"S  c #7C4726",
"D  c #774236",
"F  c #72562F",
"G  c #58762A",
"H  c #4A6B24",
"J  c #657127",
"K  c #393455",
"L  c #4E3B69",
"P  c #4A4748",
"I  c #5A4B4A",
"U  c #6A5A51",
"Y  c #54694F",
"T  c #727C46",
"R  c #66746D",
"E  c #88011A",
"W  c #86122B",
"Q  c #93132D",
"!  c #AA182D",
"~  c #AC2021",
"^  c #CE2528",
"/  c #DA282A",
"(  c #FC2F2F",
")  c #825614",
"_  c #8E7714",
"`  c #8E582E",
"'  c #935F2C",
"]  c #9D753D",
"[  c #92603C",
"{  c #915850",
"}  c #9D784B",
"|  c #91704F",
" . c #A77B48",
".. c #B27854",
"X. c #A07657",
"o. c #847662",
"O. c #C17E41",
"+. c #088104",
"@. c #14990B",
"#. c #2B9317",
"$. c #32971A",
"%. c #229700",
"&. c #0CAE07",
"*. c #34BD1F",
"=. c #36B410",
"-. c #14812A",
";. c #158A2D",
":. c #0C9A24",
">. c #238529",
",. c #358924",
"<. c #259629",
"1. c #349B2A",
"2. c #3A9629",
"3. c #309836",
"4. c #3DA529",
"5. c #39B62C",
"6. c #459416",
"7. c #788900",
"8. c #65AA1B",
"9. c #4D8525",
"0. c #419D28",
"q. c #43962A",
"w. c #599632",
"e. c #43A228",
"r. c #45A829",
"t. c #48A437",
"y. c #61B03D",
"u. c #11CE10",
"i. c #2ACB1A",
"p. c #28C918",
"a. c #31D719",
"s. c #17EB0D",
"d. c #03FE03",
"f. c #0CFD06",
"g. c #0FFA08",
"h. c #03F70A",
"j. c #12F50A",
"k. c #10F908",
"l. c #16F808",
"z. c #1DE311",
"x. c #03EA02",
"c. c #25E314",
"v. c #2BF412",
"b. c #3ACA24",
"n. c #52F00B",
"m. c #7CFA05",
"M. c #3F8648",
"N. c #568D55",
"B. c #698E5C",
"V. c #719B67",
"C. c #79A86E",
"Z. c #8F8F00",
"A. c #AF9A14",
"S. c #9FBE11",
"D. c #A78238",
"F. c #B98D3B",
"G. c #B1862F",
"H. c #BDA22C",
"J. c #B1B218",
"K. c #CDB50F",
"L. c #C1AD17",
"P. c #DBB936",
"I. c #C9AC31",
"U. c #F1BC3B",
"Y. c #A3F705",
"T. c #D7C51A",
"R. c #D0CE07",
"E. c #E6DD14",
"W. c #CBF400",
"Q. c #EDEA04",
"!. c #EEF802",
"~. c #FEFE00",
"^. c #F5F603",
"/. c #F7EA17",
"(. c #FDF613",
"). c #EFE610",
"_. c #F4ED23",
"`. c #EDCA33",
"'. c #968359",
"]. c #B48A45",
"[. c #AE8E59",
"{. c #B58551",
"}. c #B49249",
"|. c #8BAE4D",
" X c #938E6B",
".X c #AA9772",
"XX c #BB9677",
"oX c #B58C6C",
"OX c #88BE66",
"+X c #B1AF7E",
"@X c #CDA94C",
"#X c #D6A74F",
"$X c #D3A850",
"%X c #EAB349",
"&X c #C8A976",
"*X c #93C66F",
"=X c #E3D356",
"-X c #FEFD74",
";X c #2A4BFA",
":X c #666ED1",
">X c #938286",
",X c #B59482",
"<X c #BAA78B",
"1X c #D3AF8B",
"2X c #C9AFAA",
"3X c #9FCC90",
"4X c #B4F69D",
"5X c #A3EA89",
"6X c #AED088",
"7X c #DEDC9B",
"8X c #E1C39A",
"9X c #F2E783",
"0X c #D7C3A4",
"qX c #DBCBB7",
"wX c #E6CAA8",
"eX c #E9D7AA",
"rX c #FBD9AB",
"tX c #F8DBB5",
"yX c #CDFEB5",
"uX c #CEFDAC",
"iX c #FDE4B8",
"pX c #87A4FF",
"aX c #B2B8EC",
"sX c #D3BDC9",
"dX c #E4BEC6",
"fX c #FDEDC5",
"gX c #FFF6C9",
"hX c #FFF9D5",
"jX c #ECFFD4",
"kX c #FFFFFC",
"lX c #FFFAE5",
"zX c #C5D0D0",
"xX c #489848",
/* pixels */
"xXxXxXxXxXxXxXxXxXxXxXxXxXxXxXxXxXxXxXxXxXxXxXxXxXxXxXxXxXxXxXxXxXxXxXxXxXxXxXxXxXxXxXxXxXxXxXxXxXxXxXxXxXxXxXxXxXxXxXxXxXxXxXxXxXxX",
"xXxXxXxXxXxXxXxXxXxXxXxXxXxXxXxXxXxXxXxXxXxXxXxXxXxXxXxXxXxXxXxXxXxXxXxXxXxXxXxXxXxXxXxXxXxXxXxXxXxXxXxXxXxXxXxXxXxXxXxXxXxXxXxXxXxX",
"xXxXxXxXxXxXxXxXxXxXxXxXxXxXxXxXxXxXxXxXxXxXxXxXxXxXxXxXxXxXxXxXxXxXxXxXxXxXxXxXxXxXxXxXxXxXxXxXxXxXxXxXxXxXxXxXxXxXxXxXxXxXxXxXxXxX",
"xXxXxXxXxXxXxXxXxXxXxXxXxXxXxXxXxXxXxXxXxXxXxXxXxXxXxXxXxXxXxXxXxXxXxXxXxXxXxXxXxXxXxXxXxXxXxXxXxXxXxXxXxXxXxXxXxXxXxXxXxXxXxXxXxXxX",
"xXxXxXxXxXxXxXxXxXxXxXxXxXxXxXxXxXxXxXxXxXxXxXxXxXxXxXxXxXxXxXxXxXxXxXxXxXxXxXxXxXxXxXxXxXxXxXxXxXxXxXxXxXxXxXxXxXxXxXxXxXxXxXxXxXxX",
"xXxXxXxXxXxXxXxXxXxXxXxXxXxXxXxXxXxXxXxXxXxXxXxXxXxXxXxXxXxXxXxXxXxXxXxXxXxXxXxXxXxXxXxXxXxXxXxXxXxXxXxXxXxXxXxXxXxXxXxXxXxXxXxXxXxX",
"xXxXxXxXxXxXxXxXxXxXxXxXxXxXxXxXxXxXxXxXxXxXxXxXxXxXxXxXxXxXxXxXxXxXxXxXxXxXxXxXxXxXxXxXxXxXxXxXxXxXxXxXxXxXxXxXxXxXxXxXxXxXxXxXxXxX",
"xXxXxXxXxXxXxXxXxXxXxXxXxXxXxXxXxXxXxXxXxXxXxXxXxXxXxXxXxXxXxXxXxXxXxXxXxXxXxXxXxXxXxXxXxXxXxXxXxXxXxXxXxXxXxXxXxXxXxXxXxXxXxXxXxXxX",
"xXxXxXxXxXxXxXxXxXxXxXxXxXxXxXxXxXxXxXxXxXxXxXxXxXxXxXxXxXxXxXxXxXxXxXxXxXxXxXxXxXxXxXxXxXxXxXxXxXxXxXxXxXxXxXxXxXxXxXxXxXxXxXxXxXxX",
"xXxXxXxXxXxXxXxXxXxXxXxXxXxXxXxXxXxXxXxXxXxXxXxXxXxXxXxXxXxXxXxXxXxXxXxXxXxXxXxXxXxXxXxXxXxXxXxXxXxXxXxXxXxXxXxXxXxXxXxXxXxXxXxXxXxX",
"xXxXxXxXxXxXxXxXxXxXxXxXxXxXxXxXxXxXxXxXxXxXxXxXxXxXxXxXxXxXxXxXxXxXxXxXxXxXxXxXxXxXxXxXxXxXxXxXxXxXxXxXxXxXxXxXxXxXxXxXxXxXxXxXxXxX",
"xXxXxXxXxXxXxXxXxXxXxXxXxXxXxXxXxXxXxXxXxXxXxXxXxXxXxXxXxXxXxXxXxXxXxXxXxXxXxXxXxXxXxXxXxXxXxXxXxXxXxXxXxXxXxXxXxXxXxXxXxXxXxXxXxXxX",
"xXxXxXxXxXxXxXxXxXxXxXxXxXxXxXxXxXxXxXxXxXxXxXxXxXxXxXxXxXxXxXxXxXxXxXxXxXxXxXxXxXxXxXxXxXxXxXxXxXxXxXxXxXxXxXxXxXxXxXxXxXxXxXxXxXxX",
"xXxXxXxXxXxXxXxXxXxXxXxXxXxXxXxXxXxXxXxXxXxXxXxXxXxXxXxXxXxXxXxXxXxXxXxXxXxXxXxXxXxXxXxXxXxXxXxXxXxXxXxXxXxXxXxXxXxXxXxXxXxXxXxXxXxX",
"xXxXxXxXxXxXxXxXxXxXxXxXxXxXxXxXxXxXxXxXxXxXxXxXxXxXxXxXxXxXxXxXxXxXxXxXxXxXxXxXxXxXxXxXxXxXxXxXxXxXxXxXxXxXxXxXxXxXxXxXxXxXxXxXxXxX",
"xXxXxXxXxXxXxXxXxXxXxXxXxXxXxXxXxXxXxXxXxXxXxXxXxXxXxXxXxXxXxXxXxXxXxXxXxXxXxXxXxXxXxXxXxXxXxXxXxXxXxXxXxXxXxXxXxXxXxXxXxXxXxXxXxXxX",
"xXxXxXxXxXxXxXxXxXxXxXxXxXxXxXxXxXxXxXxXxXxXxXxXxXxXxXxXxXxXxXxXxXxXxXxXxXxXxXxXxXxXxXxXxXxXxXxXxXxXxXxXxXxXxXxXxXxXxXxXxXxXxXxXxXxX",
"xXxXxXxXxXxXxXxXxXxXxXxXxXxXxXxXxXxXxXxXxXxXxXxXxXxXxXxXxXxXxXxXxXxXxXxXxXxXxXxXxXxXxXxXxXxXxXxXxXxXxXxXxXxXxXxXxXxXxXxXxXxXxXxXxXxX",
"xXxXxXxXxXxXxXxXxXxXxXxXxXxXxXxXxXxXxXxXxXxXxXxXxXxXxXxXxXxXxXxXxXxXxXxXxXxXxXxXxXxXxXxXxXxXxXxXxXxXxXxXxXxXxXxXxXxXxXxXxXxXxXxXxXxX",
"xXxXxXxXxXxXxXxXxXxXxXxXxXxXxXxXxXxXxXxXxXxXxXxXxXxX .` N 9.i.g.f.l.g.f.z.e.p.xXxXxXxXxXxXxXxXxXxXxXxXxXxXxXxXxXxXxXxXxXxXxXxXxXxXxX",
"xXxXxXxXxXxXxXxXxXxXxXxXxXxXxXxXxXxXxXxXxXxXxXxXxX} {.G.A.S.n.d.d.j.k.g.s.p.z.xXxXxXxXxXxXxXxXxXxXxXxXxXxXxXxXxXxXxXxXxXxXxXxXxXxXxX",
"xXxXxXxXxXxXxXxXxXxXxXxXxXxXxXxXxXxXxXxXxXxXxXxX] F.#X_.~.~.Y.v.h.g.k.g.g.f.f.j.*.2.m xXxXxXxXxXxXxXxXxXxXxXxXxXxXxXxXxXxXxXxXxXxXxX",
"xXxXxXxXxXxXxXxXxXxXxXxXxXxXxXxXxXxXxXxXxXxXxX| I.E./.~.~.`.#X|.a.d.k.k.k.g.f.l.s.p.2.m n xXxXxXxXxXxXxXxXxXxXxXxXxXxXxXxXxXxXxXxXxX",
"xXxXxXxXxXxXxXxXxXxXxXxXxXxXxXxXxXxXxXxXxXxX .H.Q.~.(.E.T.P.%XU.n.d.k.k.k.k.k.k.d.z.e.M n xXxXxXxXxXxXxXxXxXxXxXxXxXxXxXxXxXxXxXxXxX",
"xXxXxXxXxXxXxXxXxXxXxXxXxXxXxXxXxXxXxXxXxX| H.^.~.(.%X{.D.Q.^.!.n.h.k.k.k.k.k.k.f.c.2.>.n xXxXxXxXxXxXxXxXxXxXxXxXxXxXxXxXxXxXxXxXxX",
"xXxXxXxXxXxXxXxXxXxXxXxXxXxXxXxXxXxXxXxXxXd A.~.(.#X` D D.Q.~.!.n.h.k.k.k.k.k.g.d.c.0.2.<.m xXxXxXxXxXxXxXxXxXxXxXxXxXxXxXxXxXxXxXxX",
"xXxXxXxXxXxXxXxXxXxXxXxXxXxXxXxXxXxXxXxXxXy _ R.P. .F { }.T.Q.!.m.l.l.f.f.f.f.k.s.p.0.r.1.-., xXxXxXxXxXxXxXxXxXxXxXxXxXxXxXxXxXxXxX",
"xXxXxXxXxXxXxXxXxXxXxXxXxXxXxXxXxXxXxXxXxXxXxXB B [ XX1X&X .L.^.!.Y.l.d.f.f.f.j.*.0.e.e.1.-.,   xXxXxXxXxXxXxXxXxXxXxXxXxXxXxXxXxXxX",
"xXxXxXxXxXxXxXxXxXxXxXxXxXxXxXxXxXxXxXxXxXxXxXd & p 1XfXtXXXI.~.^.W.p.p.i.p.p.p.e.q.e.e.1.-.,   xXxXxXxXxXxXxXxXxXxXxXxXxXxXxXxXxXxX",
"xXxXxXxXxXxXxXxXxXxXxXxXxXxXxXxXxXxXxXxXxXxXxXt . # oX8X0X2X=X^.!.R.w.,.2.q.q.q.0.0.0.r.1.-.,   xXxXxXxXxXxXxXxXxXxXxXxXxXxXxXxXxXxX",
"xXxXxXxXxXxXxXxXxXxXxXxXxXxXxXxXxXxXxXxXxXxXxXxX  . ) e 7 2X-X^.L.}.I.w.z #.$.$.4.e.0.r.1.-.,   xXxXxXxXxXxXxXxXxXxXxXxXxXxXxXxXxXxX",
"xXxXxXxXxXxXxXxXxXxXxXxXxXxXxXxXxXxXxXxXxXxXxXxX4 I L K U qX9XT.F...O.B.N.OX*XOXt.<.r.r.1.;.,   xXxXxXxXxXxXxXxXxXxXxXxXxXxXxXxXxXxX",
"xXxXxXxXxXxXxXxXxXxXxXxXxXxXxXxXxXxXxXxXxXxXxX  } 2X;XpXkXhX&X] @XF.y X.8XtXfXeXM.z 4.e.1.m ,   xXxXxXxXxXxXxXxXxXxXxXxXxXxXxXxXxXxX",
"xXxXxXxXxXxXxXxXxXxXxXxXxXxXxXxXxXxXxXxXxXxXxX  [.sX;XpXkXhXXXS K.L.t oXhXhXrXoX4 , <.5.M 1 X xXxXxXxXxXxXxXxXxXxXxXxXxXxXxXxXxXxXxX",
"xXxXxXxXxXxXxXxXxXxXxXxXxXxXxXxXxXxXxXxXxXxXxXX F >X:XaXlXhXoXt E.Q.` XXrXeX[.r     g 1.c   xXxXxXxXxXxXxXxXxXxXxXxXxXxXxXxXxXxXxXxX",
"xXxXxXxXxXxXxXxXxXxXxXxXxXxXxXxXxXxXxXxXxXxXxXxXX 7 ,XtXfXgXXXt R.(.#X{. .{.A         ,.$.@ xXxXxXxXxXxXxXxXxXxXxXxXxXxXxXxXxXxXxXxX",
"xXxXxXxXxXxXxXxXxXxXxXxXxXxXxXxXxXxXxXxXxXxXxXxXxXo A XXtXrX1XoXG.K._._ 3 3 s '.J.C   b m X xXxXxXxXxXxXxXxXxXxXxXxXxXxXxXxXxXxXxXxX",
"xXxXxXxXxXxXxXxXxXxXxXxXxXxXxXxXxXxXxXxXxXxXxXxXxXxX  p .X.X<X<Xs B ^.C   X I &X_.Z.  , f X xXxXxXxXxXxXxXxXxXxXxXxXxXxXxXxXxXxXxXxX",
"xXxXxXxXxXxXxXxXxXxXxXxXxXxXxXxXxXxXxXxXxXxXxXxXxXxXxX  $ b 3.M + r %Xt   g f # 2 O     X xXxXxXxXxXxXxXxXxXxXxXxXxXxXxXxXxXxXxXxXxX",
"xXxXxXxXxXxXxXxXxXxXxXxXxXxXxXxXxXxXxXxXxXxXxXxXxXxXxXe 7.$.:.z   @ |.G h <.c O   5 B.>   xXxXxXxXxXxXxXxXxXxXxXxXxXxXxXxXxXxXxXxXxX",
"xXxXxXxXxXxXxXxXxXxXxXxXxXxXxXxXxXxXxX. O . . xXxXxX+ Z.!.8.3.t.< < $.r.r.5.J y O Y 5XY # xXxXxXxXxXxXxXxXxXxXxXxXxXxXxXxXxXxXxXxXxX",
"xXxXxXxXxXxXxXxXxXxXxXxXxXxXxXxXxXxXX q ~ W *     + u.%.2 + M 5X3X XF 9.5.5.J y V h 6 <X<X$ xXxXxXxXxXxXxXxXxXxXxXxXxXxXxXxXxXxXxXxX",
"xXxXxXxXxXxXxXxXxXxXxXxXxXxXxXxXxXxX  w ( ^ 9 * U N.&.x P v V.yXjX6Xe e G G V 6.b.@.: '. X@ xXxXxXxXxXxXxXxXxXxXxXxXxXxXxXxXxXxXxXxX",
"xXxXxXxXxXxXxXxXxXxXxXxXxXxXxXxXxXxX  q / Q 9 i dXzXo U gXuX4X4XuXC.X - S d 6.d.d.c.4.>     xXxXxXxXxXxXxXxXxXxXxXxXxXxXxXxXxXxXxXxX",
"xXxXxXxXxXxXxXxXxXxXxXxXxXxXxXxXxXxXxX% 9 i W W I R ,XqXgXhX7X'.Z 6 k $.=.=.v.f.z.+.: & &       xXxXxXxXxXxXxXxXxXxXxXxXxXxXxXxXxXxX",
"xXxXxXxXxXxXxXxXxXxXxXxXxXxXxXxXxXxXxXxX  = i u O - <XfXiX0X| 0 . j b.l.d.f.x.&.y.T K u i 0 O   xXxXxXxXxXxXxXxXxXxXxXxXxXxXxXxXxXxX",
"xXxXxXxXxXxXxXxXxXxXxXxXxXxXxXxXxXxXxXxXxX. * u W 9 $ .XiXZ o o c b.l.f.g.k.+.#  XrXtX{ E ^ q   xXxXxXxXxXxXxXxXxXxXxXxXxXxXxXxXxXxX",
"xXxXxXxXxXxXxXxXxXxXxXxXxXxXxXxXxXxXxXxXxXxX. * 8 % xX7 U X     < x l l l l ; xXa o.o.d ! ( w   xXxXxXxXxXxXxXxXxXxXxXxXxXxXxXxXxXxX",
"xXxXxXxXxXxXxXxXxXxXxXxXxXxXxXxXxXxXxXxXxXxXxX      xXxX  xXxX              xXxX      8 ! ^ q   xXxXxXxXxXxXxXxXxXxXxXxXxXxXxXxXxXxX",
"xXxXxXxXxXxXxXxXxXxXxXxXxXxXxXxXxXxXxXxXxXxXxXxXxXxXxXxXxXxXxXxXxXxXxXxXxXxXxXxXxXxX  8 W Q =   xXxXxXxXxXxXxXxXxXxXxXxXxXxXxXxXxXxX",
"xXxXxXxXxXxXxXxXxXxXxXxXxXxXxXxXxXxXxXxXxXxXxXxXxXxXxXxXxXxXxXxXxXxXxXxXxXxXxXxXxXxX  9 Q W *   xXxXxXxXxXxXxXxXxXxXxXxXxXxXxXxXxXxX",
"xXxXxXxXxXxXxXxXxXxXxXxXxXxXxXxXxXxXxXxXxXxXxXxXxXxXxXxXxXxXxXxXxXxXxXxXxXxXxXxXxXxXX 8 u i *   xXxXxXxXxXxXxXxXxXxXxXxXxXxXxXxXxXxX",
"xXxXxXxXxXxXxXxXxXxXxXxXxXxXxXxXxXxXxXxXxXxXxXxXxXxXxXxXxXxXxXxXxXxXxXxXxXxXxXxXxXxXxXO % % o xXxXxXxXxXxXxXxXxXxXxXxXxXxXxXxXxXxXxX",
"xXxXxXxXxXxXxXxXxXxXxXxXxXxXxXxXxXxXxXxXxXxXxXxXxXxXxXxXxXxXxXxXxXxXxXxXxXxXxXxXxXxXxX      xXxXxXxXxXxXxXxXxXxXxXxXxXxXxXxXxXxXxXxX",
"xXxXxXxXxXxXxXxXxXxXxXxXxXxXxXxXxXxXxXxXxXxXxXxXxXxXxXxXxXxXxXxXxXxXxXxXxXxXxXxXxXxXxXxXxXxXxXxXxXxXxXxXxXxXxXxXxXxXxXxXxXxXxXxXxXxX",
"xXxXxXxXxXxXxXxXxXxXxXxXxXxXxXxXxXxXxXxXxXxXxXxXxXxXxXxXxXxXxXxXxXxXxXxXxXxXxXxXxXxXxXxXxXxXxXxXxXxXxXxXxXxXxXxXxXxXxXxXxXxXxXxXxXxX",
"xXxXxXxXxXxXxXxXxXxXxXxXxXxXxXxXxXxXxXxXxXxXxXxXxXxXxXxXxXxXxXxXxXxXxXxXxXxXxXxXxXxXxXxXxXxXxXxXxXxXxXxXxXxXxXxXxXxXxXxXxXxXxXxXxXxX",
"xXxXxXxXxXxXxXxXxXxXxXxXxXxXxXxXxXxXxXxXxXxXxXxXxXxXxXxXxXxXxXxXxXxXxXxXxXxXxXxXxXxXxXxXxXxXxXxXxXxXxXxXxXxXxXxXxXxXxXxXxXxXxXxXxXxX",
"xXxXxXxXxXxXxXxXxXxXxXxXxXxXxXxXxXxXxXxXxXxXxXxXxXxXxXxXxXxXxXxXxXxXxXxXxXxXxXxXxXxXxXxXxXxXxXxXxXxXxXxXxXxXxXxXxXxXxXxXxXxXxXxXxXxX",
"xXxXxXxXxXxXxXxXxXxXxXxXxXxXxXxXxXxXxXxXxXxXxXxXxXxXxXxXxXxXxXxXxXxXxXxXxXxXxXxXxXxXxXxXxXxXxXxXxXxXxXxXxXxXxXxXxXxXxXxXxXxXxXxXxXxX",
"xXxXxXxXxXxXxXxXxXxXxXxXxXxXxXxXxXxXxXxXxXxXxXxXxXxXxXxXxXxXxXxXxXxXxXxXxXxXxXxXxXxXxXxXxXxXxXxXxXxXxXxXxXxXxXxXxXxXxXxXxXxXxXxXxXxX",
"xXxXxXxXxXxXxXxXxXxXxXxXxXxXxXxXxXxXxXxXxXxXxXxXxXxXxXxXxXxXxXxXxXxXxXxXxXxXxXxXxXxXxXxXxXxXxXxXxXxXxXxXxXxXxXxXxXxXxXxXxXxXxXxXxXxX",
"xXxXxXxXxXxXxXxXxXxXxXxXxXxXxXxXxXxXxXxXxXxXxXxXxXxXxXxXxXxXxXxXxXxXxXxXxXxXxXxXxXxXxXxXxXxXxXxXxXxXxXxXxXxXxXxXxXxXxXxXxXxXxXxXxXxX",
"xXxXxXxXxXxXxXxXxXxXxXxXxXxXxXxXxXxXxXxXxXxXxXxXxXxXxXxXxXxXxXxXxXxXxXxXxXxXxXxXxXxXxXxXxXxXxXxXxXxXxXxXxXxXxXxXxXxXxXxXxXxXxXxXxXxX",
"xXxXxXxXxXxXxXxXxXxXxXxXxXxXxXxXxXxXxXxXxXxXxXxXxXxXxXxXxXxXxXxXxXxXxXxXxXxXxXxXxXxXxXxXxXxXxXxXxXxXxXxXxXxXxXxXxXxXxXxXxXxXxXxXxXxX",
"xXxXxXxXxXxXxXxXxXxXxXxXxXxXxXxXxXxXxXxXxXxXxXxXxXxXxXxXxXxXxXxXxXxXxXxXxXxXxXxXxXxXxXxXxXxXxXxXxXxXxXxXxXxXxXxXxXxXxXxXxXxXxXxXxXxX",
"xXxXxXxXxXxXxXxXxXxXxXxXxXxXxXxXxXxXxXxXxXxXxXxXxXxXxXxXxXxXxXxXxXxXxXxXxXxXxXxXxXxXxXxXxXxXxXxXxXxXxXxXxXxXxXxXxXxXxXxXxXxXxXxXxXxX",
"xXxXxXxXxXxXxXxXxXxXxXxXxXxXxXxXxXxXxXxXxXxXxXxXxXxXxXxXxXxXxXxXxXxXxXxXxXxXxXxXxXxXxXxXxXxXxXxXxXxXxXxXxXxXxXxXxXxXxXxXxXxXxXxXxXxX",
"xXxXxXxXxXxXxXxXxXxXxXxXxXxXxXxXxXxXxXxXxXxXxXxXxXxXxXxXxXxXxXxXxXxXxXxXxXxXxXxXxXxXxXxXxXxXxXxXxXxXxXxXxXxXxXxXxXxXxXxXxXxXxXxXxXxX",
"xXxXxXxXxXxXxXxXxXxXxXxXxXxXxXxXxXxXxXxXxXxXxXxXxXxXxXxXxXxXxXxXxXxXxXxXxXxXxXxXxXxXxXxXxXxXxXxXxXxXxXxXxXxXxXxXxXxXxXxXxXxXxXxXxXxX",
"xXxXxXxXxXxXxXxXxXxXxXxXxXxXxXxXxXxXxXxXxXxXxXxXxXxXxXxXxXxXxXxXxXxXxXxXxXxXxXxXxXxXxXxXxXxXxXxXxXxXxXxXxXxXxXxXxXxXxXxXxXxXxXxXxXxX",
"xXxXxXxXxXxXxXxXxXxXxXxXxXxXxXxXxXxXxXxXxXxXxXxXxXxXxXxXxXxXxXxXxXxXxXxXxXxXxXxXxXxXxXxXxXxXxXxXxXxXxXxXxXxXxXxXxXxXxXxXxXxXxXxXxXxX"
};
