/* XPM */
static char *result[] = {
/* columns rows colors chars-per-pixel */
"66 72 227 2 ",
"   c #000000",
".  c #0C0204",
"X  c #010B05",
"o  c #090C07",
"O  c #160507",
"+  c #031707",
"@  c #1B150E",
"#  c #13110D",
"$  c #191914",
"%  c #0D1113",
"&  c #210607",
"*  c #240307",
"=  c #3A010A",
"-  c #2A1B0B",
";  c #3C0816",
":  c #261C16",
">  c #002806",
",  c #043C16",
"<  c #193517",
"1  c #14300D",
"2  c #282702",
"3  c #282519",
"4  c #3A2F12",
"5  c #211A23",
"6  c #352E26",
"7  c #470A18",
"8  c #5B1514",
"9  c #4D0713",
"0  c #740515",
"q  c #4A2E13",
"w  c #693C14",
"e  c #6B0C25",
"r  c #4B3327",
"t  c #573629",
"y  c #763B23",
"u  c #70382C",
"i  c #1A4409",
"p  c #11531A",
"a  c #0C4C15",
"s  c #255016",
"d  c #077D04",
"f  c #1B6A11",
"g  c #0D7B1D",
"h  c #1A7D18",
"j  c #1C7800",
"k  c #2B4E28",
"l  c #076422",
"z  c #167C29",
"x  c #2D7923",
"c  c #4E5E17",
"v  c #64441B",
"b  c #5E4F2E",
"n  c #7C4F30",
"m  c #614E35",
"M  c #586324",
"N  c #695B46",
"B  c #745759",
"V  c #567A4E",
"C  c #716256",
"Z  c #6C6741",
"A  c #7C7576",
"S  c #801819",
"D  c #A61F1D",
"F  c #8B142D",
"G  c #8C1428",
"H  c #A41926",
"J  c #BC2323",
"K  c #95362E",
"L  c #C92524",
"P  c #D12726",
"I  c #FF3332",
"U  c #EB3234",
"Y  c #895E16",
"T  c #835928",
"R  c #8B5D3A",
"E  c #8C6A32",
"W  c #A37939",
"Q  c #912E44",
"!  c #875847",
"~  c #976B46",
"^  c #92644A",
"/  c #977747",
"(  c #957559",
")  c #A77849",
"_  c #A36E4F",
"`  c #91706A",
"'  c #038201",
"]  c #19881C",
"[  c #2A911F",
"{  c #32B91E",
"}  c #1D8D2C",
"|  c #19932B",
" . c #018223",
".. c #298C29",
"X. c #398A24",
"o. c #2A982C",
"O. c #3A9C24",
"+. c #3A9D2A",
"@. c #3B9427",
"#. c #2C8A3B",
"$. c #30893B",
"%. c #34943E",
"&. c #1FA426",
"*. c #3AAD24",
"=. c #3DA129",
"-. c #3CA728",
";. c #38B326",
":. c #2BA62D",
">. c #449114",
",. c #509215",
"<. c #4CAE18",
"1. c #45962C",
"2. c #439C2A",
"3. c #4A962C",
"4. c #439E34",
"5. c #679F37",
"6. c #42A128",
"7. c #46A928",
"8. c #45B02D",
"9. c #1CD60E",
"0. c #2EC21C",
"q. c #26D616",
"w. c #31CA1A",
"e. c #17EC0D",
"r. c #03FF03",
"t. c #0CFD06",
"y. c #0CFA08",
"u. c #04F80B",
"i. c #12F509",
"p. c #10F908",
"a. c #15FE04",
"s. c #04EA0E",
"d. c #2EF60F",
"f. c #3DD826",
"g. c #73F905",
"h. c #62D22B",
"j. c #4DEB13",
"k. c #268040",
"l. c #7AA771",
"z. c #8B8904",
"x. c #B09B06",
"c. c #B6AD0B",
"v. c #AA8638",
"b. c #B4922F",
"n. c #BDAB27",
"m. c #C9B517",
"M. c #C7B60F",
"N. c #C1A828",
"B. c #D7AC3C",
"V. c #90D40F",
"C. c #A3C213",
"Z. c #85EE0E",
"A. c #D2C11B",
"S. c #E4DE02",
"D. c #C5FE02",
"F. c #CEEE15",
"G. c #EAE40B",
"H. c #F4ED06",
"J. c #E7F604",
"K. c #F4F402",
"L. c #FEFE01",
"P. c #FFF80A",
"I. c #EFE118",
"U. c #F6EC16",
"Y. c #FFFF11",
"T. c #EACA34",
"R. c #F0CD2B",
"E. c #F8E522",
"W. c #F5F021",
"Q. c #B8894D",
"!. c #BB9C44",
"~. c #A5895C",
"^. c #BC8959",
"/. c #BA9259",
"(. c #9EA441",
"). c #A8A741",
"_. c #8F9172",
"`. c #938872",
"'. c #AD8767",
"]. c #B78369",
"[. c #B68E7B",
"{. c #84B275",
"}. c #B7B37A",
"|. c #CA9B4E",
" X c #CC985B",
".X c #CE9050",
"XX c #D7AA4A",
"oX c #D5AA4D",
"OX c #E4B64F",
"+X c #C6A469",
"@X c #C7A97C",
"#X c #E4BD7F",
"$X c #92C87F",
"%X c #7C78B6",
"&X c #2A5AFF",
"*X c #4158DD",
"=X c #5971F3",
"-X c #7B8486",
";X c #A38F89",
":X c #B7A88B",
">X c #C3B987",
",X c #DDBB93",
"<X c #D895A5",
"1X c #B3E595",
"2X c #ABED9C",
"3X c #BAF3A2",
"4X c #D5CA9E",
"5X c #C3CF9D",
"6X c #E4C59E",
"7X c #E8C798",
"8X c #EEE096",
"9X c #E9C7A7",
"0X c #EFCFA9",
"qX c #D2F0B3",
"wX c #F9E5BB",
"eX c #FFF9B1",
"rX c #B6BDD8",
"tX c #8A8EEC",
"yX c #E3DDDF",
"uX c #DAFFC4",
"iX c #FDEAC4",
"pX c #FFFDD3",
"aX c #FFFBD9",
"sX c #F4F2CF",
"dX c #DEE1F5",
"fX c #F8FCF1",
"gX c #489848",
/* pixels */
"gXgXgXgXgXgXgXgXgXgXgXgXgXgXgXgXgXgXgXgXgXgXgXgXgXgXgXgXgXgXgXgXgXgXgXgXgXgXgXgXgXgXgXgXgXgXgXgXgXgXgXgXgXgXgXgXgXgXgXgXgXgXgXgXgXgX",
"gXgXgXgXgXgXgXgXgXgXgXgXgXgXgXgXgXgXgXgXgXgXgXgXgXgXgXgXgXgXgXgXgXgXgXgXgXgXgXgXgXgXgXgXgXgXgXgXgXgXgXgXgXgXgXgXgXgXgXgXgXgXgXgXgXgX",
"gXgXgXgXgXgXgXgXgXgXgXgXgXgXgXgXgXgXgXgXgXgXgXgXgXgXgXgXgXgXgXgXgXgXgXgXgXgXgXgXgXgXgXgXgXgXgXgXgXgXgXgXgXgXgXgXgXgXgXgXgXgXgXgXgXgX",
"gXgXgXgXgXgXgXgXgXgXgXgXgXgXgXgXgXgXgXgXgXgXgXgXgXgXgXgXgXgXgXgXgXgXgXgXgXgXgXgXgXgXgXgXgXgXgXgXgXgXgXgXgXgXgXgXgXgXgXgXgXgXgXgXgXgX",
"gXgXgXgXgXgXgXgXgXgXgXgXgXgXgXgXgXgXgXgXgXgXgXgXgXgXgXgXgXgXgXgXgXgXgXgXgXgXgXgXgXgXgXgXgXgXgXgXgXgXgXgXgXgXgXgXgXgXgXgXgXgXgXgXgXgX",
"gXgXgXgXgXgXgXgXgXgXgXgXgXgXgXgXgXgXgXgXgXgXgXgXgXgXgXgXgXgXgXgXgXgXgXgXgXgXgXgXgXgXgXgXgXgXgXgXgXgXgXgXgXgXgXgXgXgXgXgXgXgXgXgXgXgX",
"gXgXgXgXgXgXgXgXgXgXgXgXgXgXgXgXgXgXgXgXgXgXgXgXgXgXgXgXgXgXgXgXgXgXgXgXgXgXgXgXgXgXgXgXgXgXgXgXgXgXgXgXgXgXgXgXgXgXgXgXgXgXgXgXgXgX",
"gXgXgXgXgXgXgXgXgXgXgXgXgXgXgXgXgXgXgXgXgXgXgXgXgXgXgXgXgXgXgXgXgXgXgXgXgXgXgXgXgXgXgXgXgXgXgXgXgXgXgXgXgXgXgXgXgXgXgXgXgXgXgXgXgXgX",
"gXgXgXgXgXgXgXgXgXgXgXgXgXgXgXgXgXgXgXgXgXgXgXgXgXgXgXgXgXgXgXgXgXgXgXgXgXgXgXgXgXgXgXgXgXgXgXgXgXgXgXgXgXgXgXgXgXgXgXgXgXgXgXgXgXgX",
"gXgXgXgXgXgXgXgXgXgXgXgXgXgXgXgXgXgXgXgXgXgXgXgXgXgXgXgXgXgXgXgXgXgXgXgXgXgXgXgXgXgXgXgXgXgXgXgXgXgXgXgXgXgXgXgXgXgXgXgXgXgXgXgXgXgX",
"gXgXgXgXgXgXgXgXgXgXgXgXgXgXgXgXgXgXgXgXgXgXgXgXgXgXgXgXgXgXgXgXgXgXgXgXgXgXgXgXgXgXgXgXgXgXgXgXgXgXgXgXgXgXgXgXgXgXgXgXgXgXgXgXgXgX",
"gXgXgXgXgXgXgXgXgXgXgXgXgXgXgXgXgXgXgXgXgXgXgXgXgXgXgXgXgXgXgXgXgXgXgXgXgXgXgXgXgXgXgXgXgXgXgXgXgXgXgXgXgXgXgXgXgXgXgXgXgXgXgXgXgXgX",
"gXgXgXgXgXgXgXgXgXgXgXgXgXgXgXgXgXgXgXgXgXgXgXgXgXgXgXgXgXgXgXgXgXgXgXgXgXgXgXgXgXgXgXgXgXgXgXgXgXgXgXgXgXgXgXgXgXgXgXgXgXgXgXgXgXgX",
"gXgXgXgXgXgXgXgXgXgXgXgXgXgXgXgXgXgXgXgXgXgXgXgXgXgXgXgXgXgXgXgXgXgXgXgXgXgXgXgXgXgXgXgXgXgXgXgXgXgXgXgXgXgXgXgXgXgXgXgXgXgXgXgXgXgX",
"gXgXgXgXgXgXgXgXgXgXgXgXgXgXgXgXgXgXgXgXgXgXgXgXgXgXgXgXgXgXgXgXgXgXgXgXgXgXgXgXgXgXgXgXgXgXgXgXgXgXgXgXgXgXgXgXgXgXgXgXgXgXgXgXgXgX",
"gXgXgXgXgXgXgXgXgXgXgXgXgXgXgXgXgXgXgXgXgXgXgXgXgXgXgXgXgXgXgXgXgXgXgXgXgXgXgXgXgXgXgXgXgXgXgXgXgXgXgXgXgXgXgXgXgXgXgXgXgXgXgXgXgXgX",
"gXgXgXgXgXgXgXgXgXgXgXgXgXgXgXgXgXgXgXgXgXgXgXgXgXgXgXgXgXgXgXgXgXgXgXgXgXgXgXgXgXgXgXgXgXgXgXgXgXgXgXgXgXgXgXgXgXgXgXgXgXgXgXgXgXgX",
"gXgXgXgXgXgXgXgXgXgXgXgXgXgXgXgXgXgXgXgXgXgXgXgXgXgXgXgXgXgXgXgXgXgXgXgXgXgXgXgXgXgXgXgXgXgXgXgXgXgXgXgXgXgXgXgXgXgXgXgXgXgXgXgXgXgX",
"gXgXgXgXgXgXgXgXgXgXgXgXgXgXgXgXgXgXgXgXgXgXgXgXgXgXgXgXgXgXgXgXgXgXgXgXgXgXgXgXgXgXgXgXgXgXgXgXgXgXgXgXgXgXgXgXgXgXgXgXgXgXgXgXgXgX",
"gXgXgXgXgXgXgXgXgXgXgXgXgXgXgXgXgXgXgXgXgXgXgXgXgXgXgXgXgXgXgXgXgXgXgXgXgXgXgXgXgXgXgXgXgXgXgXgXgXgXgXgXgXgXgXgXgXgXgXgXgXgXgXgXgXgX",
"gXgXgXgXgXgXgXgXgXgXgXgXgXgXgXgXgXgXgXgXgXgXgXgXgX|.E K M ;.e.t.p.p.t.e.*.1.gXgXgXgXgXgXgXgXgXgXgXgXgXgXgXgXgXgXgXgXgXgXgXgXgXgXgXgX",
"gXgXgXgXgXgXgXgXgXgXgXgXgXgXgXgXgXgXgXgXgXgXgX_  XB.m.c.c.Z.t.u.i.p.t.i.9.*.3.3.gXgXgXgXgXgXgXgXgXgXgXgXgXgXgXgXgXgXgXgXgXgXgXgXgXgX",
"gXgXgXgXgXgXgXgXgXgXgXgXgXgXgXgXgXgXgXgXgXgXW b.oXE.L.Y.P.J.j.e.y.i.i.y.t.q.=.*.7.gXgXgXgXgXgXgXgXgXgXgXgXgXgXgXgXgXgXgXgXgXgXgXgXgX",
"gXgXgXgXgXgXgXgXgXgXgXgXgXgXgXgXgXgXgXgXgX^ n.U.K.L.K.T.oXoXoXh.r.y.p.p.y.i.e.i.w.@.z gXgXgXgXgXgXgXgXgXgXgXgXgXgXgXgXgXgXgXgXgXgXgX",
"gXgXgXgXgXgXgXgXgXgXgXgXgXgXgXgXgXgXgXgXv.N.G.L.I.E.T.^.|.R.R.Z.r.y.p.p.p.p.r.r.q.1...} gXgXgXgXgXgXgXgXgXgXgXgXgXgXgXgXgXgXgXgXgXgX",
"gXgXgXgXgXgXgXgXgXgXgXgXgXgXgXgXgXgXgX~ v.K.L.I.oX XQ.~ m.L.L.Z.u.y.p.i.p.p.p.i.0.2.7.o.l gXgXgXgXgXgXgXgXgXgXgXgXgXgXgXgXgXgXgXgXgX",
"gXgXgXgXgXgXgXgXgXgXgXgXgXgXgXgXgXgXgX~ b.Y.U.oXOXW v R m.Y.L.g.u.u.i.t.p.r.i.{ 6.2.6.o.l X gXgXgXgXgXgXgXgXgXgXgXgXgXgXgXgXgXgXgXgX",
"gXgXgXgXgXgXgXgXgXgXgXgXgXgXgXgXgXgXgXgXW x.b..X.XQ._ ].N.m.H.D.g.a.r.t.t.e.{ 2.1.6.6.-.x +   gXgXgXgXgXgXgXgXgXgXgXgXgXgXgXgXgXgXgX",
"gXgXgXgXgXgXgXgXgXgXgXgXgXgXgXgXgXgXgXgXgXu n / n '.6X6X[.v.G.L.K.d.s.e.i.0.3.2.=.6.6.8.X.+ gXgXgXgXgXgXgXgXgXgXgXgXgXgXgXgXgXgXgXgX",
"gXgXgXgXgXgXgXgXgXgXgXgXgXgXgXgXgXgXgXgXgXgXgXgX@ N 0XiX9X+XH.L.J.<.&.*.*.7.6.=.2.2.2.8.X.o gXgXgXgXgXgXgXgXgXgXgXgXgXgXgXgXgXgXgXgX",
"gXgXgXgXgXgXgXgXgXgXgXgXgXgXgXgXgXgXgXgXgXgXgXgXX 4 ) N ;X8XY.S.n.b.5...h g ] O.7.7.6.7.@.p +   gXgXgXgXgXgXgXgXgXgXgXgXgXgXgXgXgXgX",
"gXgXgXgXgXgXgXgXgXgXgXgXgXgXgXgXgXgXgXgXgXgXgXgX@ r t % A eXW.N.)  X(.4.$.#.$.O.+.+.6.6.+.| a   gXgXgXgXgXgXgXgXgXgXgXgXgXgXgXgXgXgX",
"gXgXgXgXgXgXgXgXgXgXgXgXgXgXgXgXgXgXgXgXgXgXgX@ ~.%X&XrXsX0X|.b..XT ~ >X4XwX5X%.g } +.7.+.| a   gXgXgXgXgXgXgXgXgXgXgXgXgXgXgXgXgXgX",
"gXgXgXgXgXgXgXgXgXgXgXgXgXgXgXgXgXgXgXgXgXgX  3 #XtX&XdXfX6X! b.A.w ` iXsXwX}.k , a ..-.@.p +   gXgXgXgXgXgXgXgXgXgXgXgXgXgXgXgXgXgX",
"gXgXgXgXgXgXgXgXgXgXgXgXgXgXgXgXgXgXgXgXgXgXgX@ ~.%X=XdXaX9Xn x.K.Y '.wXwX+Xw .     a :.X.o gXgXgXgXgXgXgXgXgXgXgXgXgXgXgXgXgXgXgXgX",
"gXgXgXgXgXgXgXgXgXgXgXgXgXgXgXgXgXgXgXgXgXgXgXgX- C 9XiXaX6Xu x.Y.XX^./. Xb     gXgXX p z o   gXgXgXgXgXgXgXgXgXgXgXgXgXgXgXgXgXgXgX",
"gXgXgXgXgXgXgXgXgXgXgXgXgXgXgXgXgXgXgXgXgXgXgXgXgX3 / 7XwX7X].v.M.E.b.q q t E z.gXgXgX+ , X gXgXgXgXgXgXgXgXgXgXgXgXgXgXgXgXgXgXgXgX",
"gXgXgXgXgXgXgXgXgXgXgXgXgXgXgXgXgXgXgXgXgXgXgXgXgX    ~.@X}.>XB w H.,.    b OXG.K.gXgXgX  gXgXgXgXgXgXgXgXgXgXgXgXgXgXgXgXgXgXgXgXgX",
"gXgXgXgXgXgXgXgXgXgXgXgXgXgXgXgXgXgXgXgXgXgXgXgX      # k #.#.< = B.n X l p 2 2 2 gXgXgXgXgXgXgXgXgXgXgXgXgXgXgXgXgXgXgXgXgXgXgXgXgX",
"gXgXgXgXgXgXgXgXgXgXgXgXgXgXgXgXgXgXgXgXgXgXgX# C _.V   X  .| > o }.Z . , > gXgXgXgXgXgXgXgXgXgXgXgXgXgXgXgXgXgXgXgXgXgXgXgXgXgXgXgX",
"gXgXgXgXgXgXgXgXgXgXgXgXgXgXgXgXgXgXgXgXgXgX  3 0XpX$X4 i | 8.i 3 1Xl.$     gXgXgXgXgXgXgXgXgXgXgXgXgXgXgXgXgXgXgXgXgXgXgXgXgXgXgXgX",
"gXgXgXgXgXgXgXgXgXgXgXgXgXgXgXgXgXgXgXgXgXgX  : 4X` - M.V.o.*.c n 1XqXl.X     gXgXgXgXgXgXgXgXgXgXgXgXgXgXgXgXgXgXgXgXgXgXgXgXgXgXgX",
"gXgXgXgXgXgXgXgXgXgXgXgXgXgXgXgXgXgXgXgXgXgXgX# m k j L.F.:.;.s r 2XqX3X_.6     gXgXgXgXgXgXgXgXgXgXgXgXgXgXgXgXgXgXgXgXgXgXgXgXgXgX",
"gXgXgXgXgXgXgXgXgXgXgXgXgXgXgXgXgXgXgXgXgXgXgXgX  ' d.D.c.@.1.1 $ {.3XqXaX`.3 X   gXgXgXgXgXgXgXgXgXgXgXgXgXgXgXgXgXgXgXgXgXgXgXgXgX",
"gXgXgXgXgXgXgXgXgXgXgXgXgXgXgXgXgXgXgXgXgXgXgXgX  ' a.a.,.u y y 8 # _.pXwXwX:X$     gXgXgXgXgXgXgXgXgXgXgXgXgXgXgXgXgXgXgXgXgXgXgXgX",
"gXgXgXgXgXgXgXgXgXgXgXgXgXgXgXgXgXgXgXgX          f d.u.9.>.>.<.O.i 6 ` wXaX0XK =   gXgXgXgXgXgXgXgXgXgXgXgXgXgXgXgXgXgXgXgXgXgXgXgX",
"gXgXgXgXgXgXgXgXgXgXgXgXgXgXgXgXgXgXgX. & O & O   < O.9.i.y.t.r.a.f.a @ :X4X_ I 0   gXgXgXgXgXgXgXgXgXgXgXgXgXgXgXgXgXgXgXgXgXgXgXgX",
"gXgXgXgXgXgXgXgXgXgXgXgXgXgXgXgXgXgX. 8 L L P D O   + @.d.p.p.p.t.a.q.x 3 < 5 F 9   gXgXgXgXgXgXgXgXgXgXgXgXgXgXgXgXgXgXgXgXgXgXgXgX",
"gXgXgXgXgXgXgXgXgXgXgXgXgXgXgXgXgXgX  S I I U H 9 B %Xs f ' d d d ' h s   O ; ; & gXgXgXgXgXgXgXgXgXgXgXgXgXgXgXgXgXgXgXgXgXgXgXgXgX",
"gXgXgXgXgXgXgXgXgXgXgXgXgXgXgXgXgXgX  8 L L G e 0 <XyX:                   ; e . gXgXgXgXgXgXgXgXgXgXgXgXgXgXgXgXgXgXgXgXgXgXgXgXgXgX",
"gXgXgXgXgXgXgXgXgXgXgXgXgXgXgXgXgXgXgX. & & 9 F G Q Q .   gXgXgXgXgXgXgX  . O gXgXgXgXgXgXgXgXgXgXgXgXgXgXgXgXgXgXgXgXgXgXgXgXgXgXgX",
"gXgXgXgXgXgXgXgXgXgXgXgXgXgXgXgXgXgXgXgX    O 7 ; = * . gXgXgXgXgXgXgXgXgX  gXgXgXgXgXgXgXgXgXgXgXgXgXgXgXgXgXgXgXgXgXgXgXgXgXgXgXgX",
"gXgXgXgXgXgXgXgXgXgXgXgXgXgXgXgXgXgXgXgXgXgX          gXgXgXgXgXgXgXgXgXgXgXgXgXgXgXgXgXgXgXgXgXgXgXgXgXgXgXgXgXgXgXgXgXgXgXgXgXgXgX",
"gXgXgXgXgXgXgXgXgXgXgXgXgXgXgXgXgXgXgXgXgXgXgXgXgXgXgXgXgXgXgXgXgXgXgXgXgXgXgXgXgXgXgXgXgXgXgXgXgXgXgXgXgXgXgXgXgXgXgXgXgXgXgXgXgXgX",
"gXgXgXgXgXgXgXgXgXgXgXgXgXgXgXgXgXgXgXgXgXgXgXgXgXgXgXgXgXgXgXgXgXgXgXgXgXgXgXgXgXgXgXgXgXgXgXgXgXgXgXgXgXgXgXgXgXgXgXgXgXgXgXgXgXgX",
"gXgXgXgXgXgXgXgXgXgXgXgXgXgXgXgXgXgXgXgXgXgXgXgXgXgXgXgXgXgXgXgXgXgXgXgXgXgXgXgXgXgXgXgXgXgXgXgXgXgXgXgXgXgXgXgXgXgXgXgXgXgXgXgXgXgX",
"gXgXgXgXgXgXgXgXgXgXgXgXgXgXgXgXgXgXgXgXgXgXgXgXgXgXgXgXgXgXgXgXgXgXgXgXgXgXgXgXgXgXgXgXgXgXgXgXgXgXgXgXgXgXgXgXgXgXgXgXgXgXgXgXgXgX",
"gXgXgXgXgXgXgXgXgXgXgXgXgXgXgXgXgXgXgXgXgXgXgXgXgXgXgXgXgXgXgXgXgXgXgXgXgXgXgXgXgXgXgXgXgXgXgXgXgXgXgXgXgXgXgXgXgXgXgXgXgXgXgXgXgXgX",
"gXgXgXgXgXgXgXgXgXgXgXgXgXgXgXgXgXgXgXgXgXgXgXgXgXgXgXgXgXgXgXgXgXgXgXgXgXgXgXgXgXgXgXgXgXgXgXgXgXgXgXgXgXgXgXgXgXgXgXgXgXgXgXgXgXgX",
"gXgXgXgXgXgXgXgXgXgXgXgXgXgXgXgXgXgXgXgXgXgXgXgXgXgXgXgXgXgXgXgXgXgXgXgXgXgXgXgXgXgXgXgXgXgXgXgXgXgXgXgXgXgXgXgXgXgXgXgXgXgXgXgXgXgX",
"gXgXgXgXgXgXgXgXgXgXgXgXgXgXgXgXgXgXgXgXgXgXgXgXgXgXgXgXgXgXgXgXgXgXgXgXgXgXgXgXgXgXgXgXgXgXgXgXgXgXgXgXgXgXgXgXgXgXgXgXgXgXgXgXgXgX",
"gXgXgXgXgXgXgXgXgXgXgXgXgXgXgXgXgXgXgXgXgXgXgXgXgXgXgXgXgXgXgXgXgXgXgXgXgXgXgXgXgXgXgXgXgXgXgXgXgXgXgXgXgXgXgXgXgXgXgXgXgXgXgXgXgXgX",
"gXgXgXgXgXgXgXgXgXgXgXgXgXgXgXgXgXgXgXgXgXgXgXgXgXgXgXgXgXgXgXgXgXgXgXgXgXgXgXgXgXgXgXgXgXgXgXgXgXgXgXgXgXgXgXgXgXgXgXgXgXgXgXgXgXgX",
"gXgXgXgXgXgXgXgXgXgXgXgXgXgXgXgXgXgXgXgXgXgXgXgXgXgXgXgXgXgXgXgXgXgXgXgXgXgXgXgXgXgXgXgXgXgXgXgXgXgXgXgXgXgXgXgXgXgXgXgXgXgXgXgXgXgX",
"gXgXgXgXgXgXgXgXgXgXgXgXgXgXgXgXgXgXgXgXgXgXgXgXgXgXgXgXgXgXgXgXgXgXgXgXgXgXgXgXgXgXgXgXgXgXgXgXgXgXgXgXgXgXgXgXgXgXgXgXgXgXgXgXgXgX",
"gXgXgXgXgXgXgXgXgXgXgXgXgXgXgXgXgXgXgXgXgXgXgXgXgXgXgXgXgXgXgXgXgXgXgXgXgXgXgXgXgXgXgXgXgXgXgXgXgXgXgXgXgXgXgXgXgXgXgXgXgXgXgXgXgXgX",
"gXgXgXgXgXgXgXgXgXgXgXgXgXgXgXgXgXgXgXgXgXgXgXgXgXgXgXgXgXgXgXgXgXgXgXgXgXgXgXgXgXgXgXgXgXgXgXgXgXgXgXgXgXgXgXgXgXgXgXgXgXgXgXgXgXgX",
"gXgXgXgXgXgXgXgXgXgXgXgXgXgXgXgXgXgXgXgXgXgXgXgXgXgXgXgXgXgXgXgXgXgXgXgXgXgXgXgXgXgXgXgXgXgXgXgXgXgXgXgXgXgXgXgXgXgXgXgXgXgXgXgXgXgX",
"gXgXgXgXgXgXgXgXgXgXgXgXgXgXgXgXgXgXgXgXgXgXgXgXgXgXgXgXgXgXgXgXgXgXgXgXgXgXgXgXgXgXgXgXgXgXgXgXgXgXgXgXgXgXgXgXgXgXgXgXgXgXgXgXgXgX",
"gXgXgXgXgXgXgXgXgXgXgXgXgXgXgXgXgXgXgXgXgXgXgXgXgXgXgXgXgXgXgXgXgXgXgXgXgXgXgXgXgXgXgXgXgXgXgXgXgXgXgXgXgXgXgXgXgXgXgXgXgXgXgXgXgXgX",
"gXgXgXgXgXgXgXgXgXgXgXgXgXgXgXgXgXgXgXgXgXgXgXgXgXgXgXgXgXgXgXgXgXgXgXgXgXgXgXgXgXgXgXgXgXgXgXgXgXgXgXgXgXgXgXgXgXgXgXgXgXgXgXgXgXgX",
"gXgXgXgXgXgXgXgXgXgXgXgXgXgXgXgXgXgXgXgXgXgXgXgXgXgXgXgXgXgXgXgXgXgXgXgXgXgXgXgXgXgXgXgXgXgXgXgXgXgXgXgXgXgXgXgXgXgXgXgXgXgXgXgXgXgX"
};
