/* XPM */
static char *result[] = {
/* columns rows colors chars-per-pixel */
"66 72 224 2 ",
"   c #000101",
".  c #0A0103",
"X  c #000B02",
"o  c #0B0708",
"O  c #160707",
"+  c #021A06",
"@  c #15170A",
"#  c #191F18",
"$  c #25020A",
"%  c #37070B",
"&  c #381E0C",
"*  c #2A120E",
"=  c #022808",
"-  c #072C12",
";  c #063613",
":  c #1A391B",
">  c #102B0E",
",  c #232302",
"<  c #3C250D",
"1  c #28231D",
"2  c #343415",
"3  c #392E2E",
"4  c #470E0D",
"5  c #490115",
"6  c #54051A",
"7  c #561514",
"8  c #6B1815",
"9  c #4C2C14",
"0  c #423815",
"q  c #6B3C1D",
"w  c #72371F",
"e  c #5C0724",
"r  c #680C23",
"t  c #7D1128",
"y  c #700F26",
"u  c #463D32",
"i  c #4C2F2B",
"p  c #6D3823",
"a  c #0C4E0D",
"s  c #295A1B",
"d  c #2E520E",
"f  c #15681D",
"g  c #047619",
"h  c #057512",
"j  c #2B731C",
"k  c #1B6B27",
"l  c #0C7428",
"z  c #137A28",
"x  c #197827",
"c  c #096724",
"v  c #287626",
"b  c #494500",
"n  c #5D5800",
"m  c #72450E",
"M  c #43771E",
"N  c #73660B",
"B  c #5E4A3C",
"V  c #5F4D2D",
"C  c #644A29",
"Z  c #754721",
"A  c #745434",
"S  c #58692B",
"D  c #6E6E30",
"F  c #363454",
"G  c #4C3A6C",
"H  c #5C4A51",
"J  c #675B4B",
"K  c #6D5C57",
"L  c #56734E",
"P  c #776C52",
"I  c #6C6E6D",
"U  c #8C1A1A",
"Y  c #A41E1E",
"T  c #AD211D",
"R  c #B81C33",
"E  c #BB2127",
"W  c #8A112F",
"Q  c #EB2A2C",
"!  c #83551F",
"~  c #9B780B",
"^  c #895730",
"/  c #9E763A",
"(  c #906435",
")  c #A67A38",
"_  c #8E5643",
"`  c #9B7144",
"'  c #A87B51",
"]  c #A17940",
"[  c #9E7265",
"{  c #A2796B",
"}  c #10900F",
"|  c #11A51D",
" . c #37B917",
".. c #13812A",
"X. c #1C8824",
"o. c #1F9C30",
"O. c #218528",
"+. c #378829",
"@. c #2B952A",
"#. c #3B9329",
"$. c #389B28",
"%. c #2F943A",
"&. c #3CA726",
"*. c #35B322",
"=. c #39B722",
"-. c #468926",
";. c #439E2A",
":. c #49952B",
">. c #42A228",
",. c #47A929",
"<. c #46B12C",
"1. c #52AF37",
"2. c #5BA713",
"3. c #1ED517",
"4. c #13D30C",
"5. c #2DCC19",
"6. c #26D615",
"7. c #32C41C",
"8. c #09ED06",
"9. c #1AE70E",
"0. c #16ED0B",
"q. c #18E90E",
"w. c #03FE05",
"e. c #0DFD06",
"r. c #07F809",
"t. c #11F509",
"y. c #10F808",
"u. c #17FA07",
"i. c #2EF807",
"p. c #34F122",
"a. c #49FD01",
"s. c #69F905",
"d. c #52C336",
"f. c #65D62A",
"g. c #4F8C51",
"h. c #779B5C",
"j. c #689C61",
"k. c #67A668",
"l. c #9E810C",
"z. c #B89C0D",
"x. c #B8B900",
"c. c #ACA807",
"v. c #A68536",
"b. c #AB8527",
"n. c #C9B716",
"m. c #CAB41C",
"M. c #C49936",
"N. c #CBB427",
"B. c #C7AB2E",
"V. c #E6BA3F",
"C. c #F3BF3F",
"Z. c #84CD1E",
"A. c #ABC016",
"S. c #85FB05",
"D. c #9AE11D",
"F. c #B5F812",
"G. c #9DD726",
"H. c #DED308",
"J. c #DBCA12",
"K. c #E1DB05",
"L. c #E9D91A",
"P. c #D8F801",
"I. c #E7EA00",
"U. c #F3ED08",
"Y. c #E7F901",
"T. c #FEFE00",
"R. c #F7F306",
"E. c #F4E71A",
"W. c #F6E917",
"Q. c #FFF028",
"!. c #F1D426",
"~. c #809458",
"^. c #AC8349",
"/. c #B68A49",
"(. c #BA9546",
"). c #B7935D",
"_. c #B18858",
"`. c #A6A65E",
"'. c #958A71",
"]. c #AD8468",
"[. c #AB996C",
"{. c #B29573",
"}. c #90AD75",
"|. c #B1B176",
" X c #D29D58",
".X c #D9AB4D",
"XX c #DEB643",
"oX c #ECBF4B",
"OX c #C29F75",
"+X c #C6A576",
"@X c #8CE175",
"#X c #E8DA45",
"$X c #FFFF5B",
"%X c #EDE26E",
"&X c #1B45FF",
"*X c #2E4FFE",
"=X c #6A74DC",
"-X c #8B7F93",
";X c #AEAF85",
":X c #CBA788",
">X c #D3B196",
",X c #ABF093",
"<X c #D7C89B",
"1X c #E5C89C",
"2X c #FBD09E",
"3X c #D9C3A7",
"4X c #EFCFAB",
"5X c #EDD9AE",
"6X c #FCD4A7",
"7X c #F3DAB9",
"8X c #CBFFAF",
"9X c #FEE5BA",
"0X c #A99DC2",
"qX c #A4BCFF",
"wX c #B6AAD5",
"eX c #D6FFC3",
"rX c #FFEDC5",
"tX c #FFF2CB",
"yX c #FFF9CB",
"uX c #FFFCD7",
"iX c #C2C6EC",
"pX c #FFFFF9",
"aX c #FFFBE4",
"sX c None",
/* pixels */
"sXsXsXsXsXsXsXsXsXsXsXsXsXsXsXsXsXsXsXsXsXsXsXsXsXsXsXsXsXsXsXsXsXsXsXsXsXsXsXsXsXsXsXsXsXsXsXsXsXsXsXsXsXsXsXsXsXsXsXsXsXsXsXsXsXsX",
"sXsXsXsXsXsXsXsXsXsXsXsXsXsXsXsXsXsXsXsXsXsXsXsXsXsXsXsXsXsXsXsXsXsXsXsXsXsXsXsXsXsXsXsXsXsXsXsXsXsXsXsXsXsXsXsXsXsXsXsXsXsXsXsXsXsX",
"sXsXsXsXsXsXsXsXsXsXsXsXsXsXsXsXsXsXsXsXsXsXsXsXsXsXsXsXsXsXsXsXsXsXsXsXsXsXsXsXsXsXsXsXsXsXsXsXsXsXsXsXsXsXsXsXsXsXsXsXsXsXsXsXsXsX",
"sXsXsXsXsXsXsXsXsXsXsXsXsXsXsXsXsXsXsXsXsXsXsXsXsXsXsXsXsXsXsXsXsXsXsXsXsXsXsXsXsXsXsXsXsXsXsXsXsXsXsXsXsXsXsXsXsXsXsXsXsXsXsXsXsXsX",
"sXsXsXsXsXsXsXsXsXsXsXsXsXsXsXsXsXsXsXsXsXsXsXsXsXsXsXsXsXsXsXsXsXsXsXsXsXsXsXsXsXsXsXsXsXsXsXsXsXsXsXsXsXsXsXsXsXsXsXsXsXsXsXsXsXsX",
"sXsXsXsXsXsXsXsXsXsXsXsXsXsXsXsXsXsXsXsXsXsXsXsXsXsXsXsXsXsXsXsXsXsXsXsXsXsXsXsXsXsXsXsXsXsXsXsXsXsXsXsXsXsXsXsXsXsXsXsXsXsXsXsXsXsX",
"sXsXsXsXsXsXsXsXsXsXsXsXsXsXsXsXsXsXsXsXsXsXsXsXsXsXsXsXsXsXsXsXsXsXsXsXsXsXsXsXsXsXsXsXsXsXsXsXsXsXsXsXsXsXsXsXsXsXsXsXsXsXsXsXsXsX",
"sXsXsXsXsXsXsXsXsXsXsXsXsXsXsXsXsXsXsXsXsXsXsXsXsXsXsXsXsXsXsXsXsXsXsXsXsXsXsXsXsXsXsXsXsXsXsXsXsXsXsXsXsXsXsXsXsXsXsXsXsXsXsXsXsXsX",
"sXsXsXsXsXsXsXsXsXsXsXsXsXsXsXsXsXsXsXsXsXsXsXsXsXsXsXsXsXsXsXsXsXsXsXsXsXsXsXsXsXsXsXsXsXsXsXsXsXsXsXsXsXsXsXsXsXsXsXsXsXsXsXsXsXsX",
"sXsXsXsXsXsXsXsXsXsXsXsXsXsXsXsXsXsXsXsXsXsXsXsXsXsXsXsXsXsXsXsXsXsXsXsXsXsXsXsXsXsXsXsXsXsXsXsXsXsXsXsXsXsXsXsXsXsXsXsXsXsXsXsXsXsX",
"sXsXsXsXsXsXsXsXsXsXsXsXsXsXsXsXsXsXsXsXsXsXsXsXsXsXsXsXsXsXsXsXsXsXsXsXsXsXsXsXsXsXsXsXsXsXsXsXsXsXsXsXsXsXsXsXsXsXsXsXsXsXsXsXsXsX",
"sXsXsXsXsXsXsXsXsXsXsXsXsXsXsXsXsXsXsXsXsXsXsXsXsXsXsXsXsXsXsXsXsXsXsXsXsXsXsXsXsXsXsXsXsXsXsXsXsXsXsXsXsXsXsXsXsXsXsXsXsXsXsXsXsXsX",
"sXsXsXsXsXsXsXsXsXsXsXsXsXsXsXsXsXsXsXsXsXsXsXsXsXsXsXsXsXsXsXsXsXsXsXsXsXsXsXsXsXsXsXsXsXsXsXsXsXsXsXsXsXsXsXsXsXsXsXsXsXsXsXsXsXsX",
"sXsXsXsXsXsXsXsXsXsXsXsXsXsXsXsXsXsXsXsXsXsXsXsXsXsXsXsXsXsXsXsXsXsXsXsXsXsXsXsXsXsXsXsXsXsXsXsXsXsXsXsXsXsXsXsXsXsXsXsXsXsXsXsXsXsX",
"sXsXsXsXsXsXsXsXsXsXsXsXsXsXsXsXsXsXsXsXsXsXsXsXsXsXsXsXsXsXsXsXsXsXsXsXsXsXsXsXsXsXsXsXsXsXsXsXsXsXsXsXsXsXsXsXsXsXsXsXsXsXsXsXsXsX",
"sXsXsXsXsXsXsXsXsXsXsXsXsXsXsXsXsXsXsXsXsXsXsXsXsXsXsXsXsXsXsXsXsXsXsXsXsXsXsXsXsXsXsXsXsXsXsXsXsXsXsXsXsXsXsXsXsXsXsXsXsXsXsXsXsXsX",
"sXsXsXsXsXsXsXsXsXsXsXsXsXsXsXsXsXsXsXsXsXsXsXsXsXsXsXsXsXsXsXsXsXsXsXsXsXsXsXsXsXsXsXsXsXsXsXsXsXsXsXsXsXsXsXsXsXsXsXsXsXsXsXsXsXsX",
"sXsXsXsXsXsXsXsXsXsXsXsXsXsXsXsXsXsXsXsXsXsXsXsXsXsXsXsXsXsXsXsXsXsXsXsXsXsXsXsXsXsXsXsXsXsXsXsXsXsXsXsXsXsXsXsXsXsXsXsXsXsXsXsXsXsX",
"sXsXsXsXsXsXsXsXsXsXsXsXsXsXsXsXsXsXsXsXsXsXsXsXsXsXsXsXsXsXsXsXsXsXsXsXsXsXsXsXsXsXsXsXsXsXsXsXsXsXsXsXsXsXsXsXsXsXsXsXsXsXsXsXsXsX",
"sXsXsXsXsXsXsXsXsXsXsXsXsXsXsXsXsXsXsXsXsXsXsXsX X( w D *.q.e.y.e.6.>.sXsXsXsXsXsXsXsXsXsXsXsXsXsXsXsXsXsXsXsXsXsXsXsXsXsXsXsXsXsXsX",
"sXsXsXsXsXsXsXsXsXsXsXsXsXsXsXsXsXsXsXsXsXsXsXsXV.z.z.2.3.t.e.y.e.9.5.q.sXsXsXsXsXsXsXsXsXsXsXsXsXsXsXsXsXsXsXsXsXsXsXsXsXsXsXsXsXsX",
"sXsXsXsXsXsXsXsXsXsXsXsXsXsXsXsXsXsXsXsXsX/ /..XE.T.T.s.r.r.t.y.e.y.r.e.q.*.;.sXsXsXsXsXsXsXsXsXsXsXsXsXsXsXsXsXsXsXsXsXsXsXsXsXsXsX",
"sXsXsXsXsXsXsXsXsXsXsXsXsXsXsXsXsXsXsXsX` m.U.U.T.R.C.f.w.r.t.y.t.e.e.e.t.q.=.#.x sXsXsXsXsXsXsXsXsXsXsXsXsXsXsXsXsXsXsXsXsXsXsXsXsX",
"sXsXsXsXsXsXsXsXsXsXsXsXsXsXsXsXsXsXsXv.B.R.T.W.E.!.V.G.a.u.r.y.t.y.y.t.e.e.9.*.@.x sXsXsXsXsXsXsXsXsXsXsXsXsXsXsXsXsXsXsXsXsXsXsXsX",
"sXsXsXsXsXsXsXsXsXsXsXsXsXsXsXsXsXsX] N.T.T.L..X XXXU.T.P.i.r.y.y.y.y.y.y.y.e.0.=.+.z sXsXsXsXsXsXsXsXsXsXsXsXsXsXsXsXsXsXsXsXsXsXsX",
"sXsXsXsXsXsXsXsXsXsXsXsXsXsXsXsXsXsXA n.T.Q.M.^ _ B.T.T.Y.i.r.y.y.y.y.y.e.e.w.e.=.:.@.z sXsXsXsXsXsXsXsXsXsXsXsXsXsXsXsXsXsXsXsXsXsX",
"sXsXsXsXsXsXsXsXsXsXsXsXsXsXsXsXsXsXq ~ J.XX' Z _ (.J.U.Y.s.u.e.e.e.e.e.y.9.q.3.&.;.>.O.l sXsXsXsXsXsXsXsXsXsXsXsXsXsXsXsXsXsXsXsXsX",
"sXsXsXsXsXsXsXsXsXsXsXsXsXsXsXsXsXsXsXm ! /  XOX>X{.v.n.T.R.S.r.w.e.e.e.0. .>.&.&.>.;.X.l sXsXsXsXsXsXsXsXsXsXsXsXsXsXsXsXsXsXsXsXsX",
"sXsXsXsXsXsXsXsXsXsXsXsXsXsXsXsXsXsXsXsXp 9 P 1X9X5X].N.T.T.F.3.3.5.5.6.7.;.:.:.;.>.$.#.X.z sXsXsXsXsXsXsXsXsXsXsXsXsXsXsXsXsXsXsXsX",
"sXsXsXsXsXsXsXsXsXsXsXsXsXsXsXsXsXsXsXsXsX  1 +X1X3X3X#XT.W.A.-.+.#.#.+.#.&.;.&.>.>.>.,.$.z sXsXsXsXsXsXsXsXsXsXsXsXsXsXsXsXsXsXsXsX",
"sXsXsXsXsXsXsXsXsXsXsXsXsXsXsXsXsXsXsXsXsX  O ! & 3 3X$XT.B.( C k g g g z &.<.<.<.<.>.,.$.z sXsXsXsXsXsXsXsXsXsXsXsXsXsXsXsXsXsXsXsX",
"sXsXsXsXsXsXsXsXsXsXsXsXsXsXsXsXsXsXsXsXsXu H G F I 7X%Xm.(.^ w S j.j.k.k.$.j s s v @.>.&...- sXsXsXsXsXsXsXsXsXsXsXsXsXsXsXsXsXsXsX",
"sXsXsXsXsXsXsXsXsXsXsXsXsXsXsXsXsXsXsXsX+ _.0X*XqXpXrXOX/ .X) p ].4X9XtX<X%.=     = l @.$...-   sXsXsXsXsXsXsXsXsXsXsXsXsXsXsXsXsXsX",
"sXsXsXsXsXsXsXsXsXsXsXsXsXsXsXsXsXsXsX  O OXwX&XqXpXtX].! L.z.p :XuXyX2X_.: X sXsXX - k o...;   sXsXsXsXsXsXsXsXsXsXsXsXsXsXsXsXsXsX",
"sXsXsXsXsXsXsXsXsXsXsXsXsXsXsXsXsXsXsXsXo D -X=XiXaXtX[ m I.H.( :X5X1X' <   sXsXsXsX  ; c ..;   sXsXsXsXsXsXsXsXsXsXsXsXsXsXsXsXsXsX",
"sXsXsXsXsXsXsXsXsXsXsXsXsXsXsXsXsXsXsXsXsXo B :X7XrX9X{ m K.W. X' ' /.0       sXsXsXsX  - z a   sXsXsXsXsXsXsXsXsXsXsXsXsXsXsXsXsXsX",
"sXsXsXsXsXsXsXsXsXsXsXsXsXsXsXsXsXsXsXsXsXsX@ V +X9X6X>X_.b.J.E.N < & V v.c.x.sXsXsXsXsXX ; + sXsXsXsXsXsXsXsXsXsXsXsXsXsXsXsXsXsXsX",
"sXsXsXsXsXsXsXsXsXsXsXsXsXsXsXsXsXsXsXsXsXsXsX  B {.[.;X{.i ~ W.b   X A V.H.I.sXsXsXsXsXsX  sXsXsXsXsXsXsXsXsXsXsXsXsXsXsXsXsXsXsXsX",
"sXsXsXsXsXsXsXsXsXsXsXsXsXsXsXsXsXsXsXsXsXsXsXsXo 1 v %.k . Z oX9 X c : , , , sXsXsXsXsXsXsXsXsXsXsXsXsXsXsXsXsXsXsXsXsXsXsXsXsXsXsX",
"sXsXsXsXsXsXsXsXsXsXsXsXsXsXsXsXsXsXsXsXsXsXsXsX+ a X.| h a 2 C d k @.=   sXsXsXsXsXsXsXsXsXsXsXsXsXsXsXsXsXsXsXsXsXsXsXsXsXsXsXsXsX",
"sXsXsXsXsXsXsXsXsXsXsXsXsXsXsXsXsXsXsXsXsXsXsX@ j <.:.>.1.d.s   j 1.<.s @ sXsXsXsXsXsXsXsXsXsXsXsXsXsXsXsXsXsXsXsXsXsXsXsXsXsXsXsXsX",
"sXsXsXsXsXsXsXsXsXsXsXsXsXsXsXsXsXsXsXsXsX  b n.Z.O.> L ,X,X~.9 S *.&.@X}.X sXsXsXsXsXsXsXsXsXsXsXsXsXsXsXsXsXsXsXsXsXsXsXsXsXsXsXsX",
"sXsXsXsXsXsXsXsXsXsXsXsXsXsXsXsXsXsXsXsXsX  N T.F.k . L 8XeX|.! -.$.S h.}.I u sXsXsXsXsXsXsXsXsXsXsXsXsXsXsXsXsXsXsXsXsXsXsXsXsXsXsX",
"sXsXsXsXsXsXsXsXsXsXsXsXsXsXsXsXsXsX        n R.D.f   L 8X8X[.C -.:.Z . 1 5X'.X sXsXsXsXsXsXsXsXsXsXsXsXsXsXsXsXsXsXsXsXsXsXsXsXsXsX",
"sXsXsXsXsXsXsXsXsXsXsXsXsXsXsXsXsXsX  7 Y $ a Z.d # '.[.`.8X}.O 7 N  .} s J 3 sXsXsXsXsXsXsXsXsXsXsXsXsXsXsXsXsXsXsXsXsXsXsXsXsXsXsX",
"sXsXsXsXsXsXsXsXsXsXsXsXsXsXsXsXsXsX  8 E 5 > f : K tX2X/.}.g.; 0  .e.i.+.    sXsXsXsXsXsXsXsXsXsXsXsXsXsXsXsXsXsXsXsXsXsXsXsXsXsXsX",
"sXsXsXsXsXsXsXsXsXsXsXsXsXsXsXsXsXsXsX. O r 5 X '.tX7XtX4X1 a 8.0.u.e.p.j + .   sXsXsXsXsXsXsXsXsXsXsXsXsXsXsXsXsXsXsXsXsXsXsXsXsXsX",
"sXsXsXsXsXsXsXsXsXsXsXsXsXsXsXsXsXsXsXsXsX% 5 5 u ;XyX3XK - } e.e.8.h a 2 8 4 . sXsXsXsXsXsXsXsXsXsXsXsXsXsXsXsXsXsXsXsXsXsXsXsXsXsX",
"sXsXsXsXsXsXsXsXsXsXsXsXsXsXsXsXsXsXsXsXsX  $ y . # >XJ   a | 4.4.} O . % Q U   sXsXsXsXsXsXsXsXsXsXsXsXsXsXsXsXsXsXsXsXsXsXsXsXsXsX",
"sXsXsXsXsXsXsXsXsXsXsXsXsXsXsXsXsXsXsXsXsXsXsXO   o 1 @   X + = = @ r e W Q U   sXsXsXsXsXsXsXsXsXsXsXsXsXsXsXsXsXsXsXsXsXsXsXsXsXsX",
"sXsXsXsXsXsXsXsXsXsXsXsXsXsXsXsXsXsXsXsXsXsXsX                  $ 6 W R E U 4 sXsXsXsXsXsXsXsXsXsXsXsXsXsXsXsXsXsXsXsXsXsXsXsXsXsXsX",
"sXsXsXsXsXsXsXsXsXsXsXsXsXsXsXsXsXsXsXsXsXsXsXsXsXsXsXsXsXsXsX. 6 t y E T . sXsXsXsXsXsXsXsXsXsXsXsXsXsXsXsXsXsXsXsXsXsXsXsXsXsXsXsX",
"sXsXsXsXsXsXsXsXsXsXsXsXsXsXsXsXsXsXsXsXsXsXsXsXsXsXsXsXsXsXsXsXO $ $ % % sXsXsXsXsXsXsXsXsXsXsXsXsXsXsXsXsXsXsXsXsXsXsXsXsXsXsXsXsX",
"sXsXsXsXsXsXsXsXsXsXsXsXsXsXsXsXsXsXsXsXsXsXsXsXsXsXsXsXsXsXsXsX          sXsXsXsXsXsXsXsXsXsXsXsXsXsXsXsXsXsXsXsXsXsXsXsXsXsXsXsXsX",
"sXsXsXsXsXsXsXsXsXsXsXsXsXsXsXsXsXsXsXsXsXsXsXsXsXsXsXsXsXsXsXsXsXsXsXsXsXsXsXsXsXsXsXsXsXsXsXsXsXsXsXsXsXsXsXsXsXsXsXsXsXsXsXsXsXsX",
"sXsXsXsXsXsXsXsXsXsXsXsXsXsXsXsXsXsXsXsXsXsXsXsXsXsXsXsXsXsXsXsXsXsXsXsXsXsXsXsXsXsXsXsXsXsXsXsXsXsXsXsXsXsXsXsXsXsXsXsXsXsXsXsXsXsX",
"sXsXsXsXsXsXsXsXsXsXsXsXsXsXsXsXsXsXsXsXsXsXsXsXsXsXsXsXsXsXsXsXsXsXsXsXsXsXsXsXsXsXsXsXsXsXsXsXsXsXsXsXsXsXsXsXsXsXsXsXsXsXsXsXsXsX",
"sXsXsXsXsXsXsXsXsXsXsXsXsXsXsXsXsXsXsXsXsXsXsXsXsXsXsXsXsXsXsXsXsXsXsXsXsXsXsXsXsXsXsXsXsXsXsXsXsXsXsXsXsXsXsXsXsXsXsXsXsXsXsXsXsXsX",
"sXsXsXsXsXsXsXsXsXsXsXsXsXsXsXsXsXsXsXsXsXsXsXsXsXsXsXsXsXsXsXsXsXsXsXsXsXsXsXsXsXsXsXsXsXsXsXsXsXsXsXsXsXsXsXsXsXsXsXsXsXsXsXsXsXsX",
"sXsXsXsXsXsXsXsXsXsXsXsXsXsXsXsXsXsXsXsXsXsXsXsXsXsXsXsXsXsXsXsXsXsXsXsXsXsXsXsXsXsXsXsXsXsXsXsXsXsXsXsXsXsXsXsXsXsXsXsXsXsXsXsXsXsX",
"sXsXsXsXsXsXsXsXsXsXsXsXsXsXsXsXsXsXsXsXsXsXsXsXsXsXsXsXsXsXsXsXsXsXsXsXsXsXsXsXsXsXsXsXsXsXsXsXsXsXsXsXsXsXsXsXsXsXsXsXsXsXsXsXsXsX",
"sXsXsXsXsXsXsXsXsXsXsXsXsXsXsXsXsXsXsXsXsXsXsXsXsXsXsXsXsXsXsXsXsXsXsXsXsXsXsXsXsXsXsXsXsXsXsXsXsXsXsXsXsXsXsXsXsXsXsXsXsXsXsXsXsXsX",
"sXsXsXsXsXsXsXsXsXsXsXsXsXsXsXsXsXsXsXsXsXsXsXsXsXsXsXsXsXsXsXsXsXsXsXsXsXsXsXsXsXsXsXsXsXsXsXsXsXsXsXsXsXsXsXsXsXsXsXsXsXsXsXsXsXsX",
"sXsXsXsXsXsXsXsXsXsXsXsXsXsXsXsXsXsXsXsXsXsXsXsXsXsXsXsXsXsXsXsXsXsXsXsXsXsXsXsXsXsXsXsXsXsXsXsXsXsXsXsXsXsXsXsXsXsXsXsXsXsXsXsXsXsX",
"sXsXsXsXsXsXsXsXsXsXsXsXsXsXsXsXsXsXsXsXsXsXsXsXsXsXsXsXsXsXsXsXsXsXsXsXsXsXsXsXsXsXsXsXsXsXsXsXsXsXsXsXsXsXsXsXsXsXsXsXsXsXsXsXsXsX",
"sXsXsXsXsXsXsXsXsXsXsXsXsXsXsXsXsXsXsXsXsXsXsXsXsXsXsXsXsXsXsXsXsXsXsXsXsXsXsXsXsXsXsXsXsXsXsXsXsXsXsXsXsXsXsXsXsXsXsXsXsXsXsXsXsXsX",
"sXsXsXsXsXsXsXsXsXsXsXsXsXsXsXsXsXsXsXsXsXsXsXsXsXsXsXsXsXsXsXsXsXsXsXsXsXsXsXsXsXsXsXsXsXsXsXsXsXsXsXsXsXsXsXsXsXsXsXsXsXsXsXsXsXsX",
"sXsXsXsXsXsXsXsXsXsXsXsXsXsXsXsXsXsXsXsXsXsXsXsXsXsXsXsXsXsXsXsXsXsXsXsXsXsXsXsXsXsXsXsXsXsXsXsXsXsXsXsXsXsXsXsXsXsXsXsXsXsXsXsXsXsX",
"sXsXsXsXsXsXsXsXsXsXsXsXsXsXsXsXsXsXsXsXsXsXsXsXsXsXsXsXsXsXsXsXsXsXsXsXsXsXsXsXsXsXsXsXsXsXsXsXsXsXsXsXsXsXsXsXsXsXsXsXsXsXsXsXsXsX",
"sXsXsXsXsXsXsXsXsXsXsXsXsXsXsXsXsXsXsXsXsXsXsXsXsXsXsXsXsXsXsXsXsXsXsXsXsXsXsXsXsXsXsXsXsXsXsXsXsXsXsXsXsXsXsXsXsXsXsXsXsXsXsXsXsXsX",
"sXsXsXsXsXsXsXsXsXsXsXsXsXsXsXsXsXsXsXsXsXsXsXsXsXsXsXsXsXsXsXsXsXsXsXsXsXsXsXsXsXsXsXsXsXsXsXsXsXsXsXsXsXsXsXsXsXsXsXsXsXsXsXsXsXsX",
"sXsXsXsXsXsXsXsXsXsXsXsXsXsXsXsXsXsXsXsXsXsXsXsXsXsXsXsXsXsXsXsXsXsXsXsXsXsXsXsXsXsXsXsXsXsXsXsXsXsXsXsXsXsXsXsXsXsXsXsXsXsXsXsXsXsX"
};
