/* XPM */
static char *result[] = {
/* columns rows colors chars-per-pixel */
"64 64 237 2 ",
"   c #010001",
".  c #090303",
"X  c #010209",
"o  c #090A0B",
"O  c #050A0A",
"+  c #130301",
"@  c #160B05",
"#  c #040C15",
"$  c #021414",
"%  c #081819",
"&  c #171618",
"*  c #0D1208",
"=  c #320C08",
"-  c #271904",
";  c #281410",
":  c #14251A",
">  c #07251F",
",  c #372808",
"<  c #2B2613",
"1  c #031A26",
"2  c #091A2C",
"3  c #022324",
"4  c #012C2C",
"5  c #062828",
"6  c #15292A",
"7  c #00302F",
"8  c #032737",
"9  c #02333A",
"0  c #0C353B",
"q  c #023A3C",
"w  c #093534",
"e  c #11343C",
"r  c #14383C",
"t  c #163537",
"y  c #172E30",
"u  c #282A2B",
"i  c #35362B",
"p  c #2F3535",
"a  c #66170F",
"s  c #751D12",
"d  c #442B01",
"f  c #593A04",
"g  c #533313",
"h  c #6D2C10",
"j  c #433B3A",
"k  c #57140D",
"l  c #25463C",
"z  c #314629",
"x  c #13403F",
"c  c #594B19",
"v  c #684203",
"b  c #754B04",
"n  c #7F5A0B",
"m  c #5C4128",
"M  c #4C4A33",
"N  c #644629",
"B  c #795329",
"V  c #745428",
"C  c #766321",
"Z  c #0C3A44",
"A  c #123B43",
"S  c #163947",
"D  c #002B4D",
"F  c #15414C",
"G  c #1B454B",
"H  c #1B4858",
"J  c #134D5A",
"K  c #2A544B",
"L  c #254757",
"P  c #2E4E4E",
"I  c #336D5A",
"U  c #306755",
"Y  c #195478",
"T  c #0F4566",
"R  c #214F64",
"E  c #24556B",
"W  c #295B6E",
"Q  c #235365",
"!  c #375765",
"~  c #295A73",
"^  c #225B7D",
"/  c #387761",
"(  c #2D627A",
")  c #35677D",
"_  c #34606E",
"`  c #444546",
"'  c #465A5A",
"]  c #535253",
"[  c #6A5D5C",
"{  c #726A49",
"}  c #4C6968",
"|  c #776B6B",
" . c #71766E",
".. c #506652",
"X. c #891C15",
"o. c #8A2414",
"O. c #9A2618",
"+. c #B62D1B",
"@. c #AB321A",
"#. c #BF3925",
"$. c #C4371E",
"%. c #C32D1B",
"&. c #D13F20",
"*. c #865702",
"=. c #89520E",
"-. c #966707",
";. c #9B6A12",
":. c #8F6D13",
">. c #A67609",
",. c #A67614",
"<. c #B47D18",
"1. c #A56F09",
"2. c #81562A",
"3. c #8F722B",
"4. c #A66627",
"5. c #A75C1F",
"6. c #D34C1C",
"7. c #D34527",
"8. c #EE4725",
"9. c #C97824",
"0. c #E16E19",
"q. c #877777",
"w. c #3F856D",
"e. c #7B8258",
"r. c #408870",
"t. c #449177",
"y. c #47967C",
"u. c #40876F",
"i. c #BF841A",
"p. c #B08627",
"a. c #C6881A",
"s. c #C69619",
"d. c #D6981C",
"f. c #D19704",
"g. c #EC9810",
"h. c #DBA61A",
"j. c #E9B414",
"k. c #F4B70F",
"l. c #D18C29",
"z. c #E69027",
"x. c #D8AE26",
"c. c #FFA72C",
"v. c #E8B720",
"b. c #F0BC21",
"n. c #FECE11",
"m. c #FFF21B",
"M. c #F9CA25",
"N. c #FDD627",
"B. c #E9C121",
"V. c #FFE125",
"C. c #FEF92A",
"Z. c #838758",
"A. c #9D9F5E",
"S. c #AA924D",
"D. c #B1A448",
"F. c #9A9363",
"G. c #988D64",
"H. c #A89A72",
"J. c #9BAB6F",
"K. c #B5AC70",
"L. c #CAB34E",
"P. c #D0BA6B",
"I. c #FFEF70",
"U. c #EAD562",
"Y. c #2F6888",
"T. c #356A86",
"R. c #3A7289",
"E. c #397897",
"W. c #387AA3",
"Q. c #175F8F",
"!. c #417389",
"~. c #467C94",
"^. c #426F83",
"/. c #3B81AF",
"(. c #4E859D",
"). c #43809D",
"_. c #56889A",
"`. c #4A9F82",
"'. c #4CA487",
"]. c #52AC8E",
"[. c #4787A5",
"{. c #528AA3",
"}. c #558FA8",
"|. c #5792AC",
" X c #5994AE",
".X c #5D9AB4",
"XX c #5896B1",
"oX c #609DB9",
"OX c #5EA0BC",
"+X c #60A1BC",
"@X c #689292",
"#X c #4A93C2",
"$X c #62AAC8",
"%X c #93869D",
"&X c #938E90",
"*X c #A89897",
"=X c #B19F9F",
"-X c #9CAE92",
";X c #AAB693",
":X c #9890A4",
">X c #89AAB1",
",X c #B4AEAF",
"<X c #A398A3",
"1X c #C3BD8F",
"2X c #C4B8B8",
"3X c #CAB7B7",
"4X c #B0C3A7",
"5X c #DACA85",
"6X c #C4CA9D",
"7X c #E7D898",
"8X c #EED68A",
"9X c #F4E49A",
"0X c #F5EC8A",
"qX c #FFFFB8",
"wX c #FBECAE",
"eX c #D0DEB1",
"rX c #B7BEC8",
"tX c #B9DAED",
"yX c #DBCBCB",
"uX c #D9D7D7",
"iX c #C9D4CD",
"pX c #E3DBD4",
"aX c #C6E3D9",
"sX c #FFFFCD",
"dX c #FBF9C4",
"fX c #FEFBD8",
"gX c #F0E6C6",
"hX c #C3DEE9",
"jX c #E3E6E9",
"kX c #F7EDED",
"lX c #FDF9EC",
"zX c #FDF5F5",
"xX c #FDFEFE",
"cX c #F8FAF2",
"vX c #EAECF3",
"bX c #D3E7F6",
"nX c None",
/* pixels */
"nXnXnXnXnXnXnXnXnXnXnXnXnXnXnXnXnXnXnXnXnXnXnXnXnXnXnXnXnXnXnXnXnXnXnXnXnXnXnXnXnXnXnXnXnXnXnXnXnXnXnXnXnXnXnXnXnXnXnXnXnXnXnXnX",
"nXnXnXnXnXnXnXnXnXnXnXnXnXnXnXnXnXnXnXnXnXnXnXnXnXnXnXnXnXnXnXnXnXnXnXnXnXnXnXnXnXnXnXnXnXnXnXnXnXnXnXnXnXnXnXnXnXnXnXnXnXnXnXnX",
"nXnXnXnXnXnXnXnXnXnXnXnXnXnXnXnXnXnXnXnXnXnXnXnXnXnXnXnXnXnXnXnXnXnXnXnXnXnXnXnXnXnXnXnXnXnXnXnXnXnXnXnXnXnXnXnXnXnXnXnXnXnXnXnX",
"nXnXnXnXnXnXnXnXnXnXnXnXnXnXnXnXnXnXnXnXnXnXnXnXnXnXnXnXnXnXnXnXnXnXnXnXnXnXnXnXnXnXnXnXnXnXnXnXnXnXnXnXnXnXnXnXnXnXnXnXnXnXnXnX",
"nXnXnXnXnXnXnXnXnXnXnXnXnXnXnXnXnXnXnXnXnXnXnXnXnXnXnXnXnXnXnXnXnXnXnXnXnXnXnXnXnXnXnXnXnXnXm m B nXnXnXnXnXnXnXnXnXnXnXnXnXnXnX",
"nXnXnXnXnXnXnXnXnXnXnXnXnXnXnXnXnXnXnXnXnXnXnXnXnXnXnXnXnXnXnXnXnXnXnXnXnXnXnXnXnXnXnXnXnXnXB B m nXnXnXnXnXnXnXnXnXnXnXnXnXnXnX",
"nXnXnXnXnXnXnXnXnXnXnXnXnXnXnXnXnXnXnXnXnXnXnXnXnXnXnXnXnXnXnXnXnXnXnXnXnXnXnXnXnXnXnXnXN B 5.9.=.  nXnXnXnXnXnXnXnXnXnXnXnXnXnX",
"nXnXnXnXnXnXnXnXnXnXnXnXnXnXnXnXnXnXnXnXnXnXnXnXnXnXnXnXnXnXnXnXnXnXnXnXnXnXnXnXnXnXnXnXj B z.4.g   nXnXnXnXnXnXnXnXnXnXnXnXnXnX",
"nXnXnXnXnXnXnXnXnXnXnXnXnXnXnXnXnXnXnXnXnXnXnXnXnXnXnXnXnXnXnXnXnXnXnXnXnXnXnXnXnXnXnXnXN 2.c.B <   nXnXnXnXnXnXnXnXnXnXnXnXnXnX",
"nXnXnXnXnXnXnXnXnXnXnXnXnXnXnXnXnXnXnXnXnXnXnXn b.M.j.B.d.,.v v *.a.nXnXnXnXnXnXnXnXnXnXg 2.c.,   nXnXnXnXnXnXnXnXnXnXnXnXnXnXnX",
"nXnXnXnXnXnXnXnXnXnXnXnXnXnXnXnXnXnXnXnXnXX g d.< :.M.N.1.C 0X0XP.v i.,.f v nXnXnXnXnXnX2.5.c.d   nXnXnXnXnXnXnXnXnXnXnXnXnXnXnX",
"nXnXnXnXnXnXnXnXnXnXnXnXnXnXnXnXnXnXnXnXnXO g :.  C N.s.-.;.0XI.U.b ;.1.>.>.-.nXnXnXnXnX4.l.z.; nXnXnXnXnXnXnXnXnXnXnXnXnXnXnXnX",
"nXnXnXnXnXnXnXnXnXnXnXnXnXnXnXnXnXnXnXnXnXnXnX    :.M.f -.d.j.j.f.a.v -.N.N.i.v nXnXnXN 9.z.5.nXnXnXnXnXnXnXnXnXnXnXnXnXnXnXnXnX",
"nXnXnXnXnXnXnXnXnXnXnXnXnXnXnXnXnXnXnXnXnXnXnXnX  : M k.>.-.k.k.f.f f.p.G G c =.    o g l.l.B nXnXnXnXnXnXnXnXnXnXnXnXnXnXnXnXnX",
"nXnXnXnXnXnXnXnXnXnXnXnXnXnXnXnXnXnXnXnXnXnXnXnX$ 9 Q K.c c U.0X5XH.I.D.2 8 P { t 2 % i p.z.< nXnXnXnXnXnXnXnXnXnXnXnXnXnXnXnXnX",
"nXnXnXnXnXnXnXnXnXnXnXnXnXnXnXnXnXnXnXnXnXo o % A Q Y.XXT U 0XcXzXxXqXJ.8 0 ~ #XR.Q A 8 3.9.X nXnXnXnXnXnXnXnXnXnXnXnXnXnXnXnXnX",
"nXnXnXnXnXnXnXnXnXnXnXnXnXnXnXnXnXnXnXnXO Y.E.R.Y.E.W.{.{.!.y r r r w K }.(.W.W.R.W.Y.O > 3   nXnXnXnXnXnXnXnXnXnXnXnXnXnXnXnXnX",
"nXnXnXnXnXnXnXnXnXnXnXnXnXnXnXnXnXnXnX5   ;XaXhXhXaX4X{.}.).W ~ W W E T.|.~.>XeXhXaX;X. 8 J $ nXnXnXnXnXnXnXnXnXnXnXnXnXnXnXnXnX",
"nXnXnXnXnXnXnXnXnXnXnXnXnXnXnXnXnXnXF y o P.dXzXkXwX5X{.(.{. XXX X X X|.(.W.-X9XzXdXP.# L ( w nXnXnXnXnXnXnXnXnXnXnXnXnXnXnXnXnX",
"nXnXnXnXnXnXnXnXnXnXnXnXnXnXnXnXnX4 R H 8 O         & XXXX.X.X{.(.{.{.(.{.$X!       O ~ ~ R 0 nXnXnXnXnXnXnXnXnXnXnXnXnXnXnXnXnX",
"nXnXnXnXnXnXnXnXnXnXnXnXnXnXnXnXG R.!.R.) 8  .rXy $ 5 Q e 2 1 ~..XXX XXX Xt X . 3 S L E ~ E Q # nXnXnXnXnXnXnXnXnXnXnXnXnXnXnXnX",
"nXnXnXnXnXnXnXnXnXnXnXnXnXnXnXZ Q oX|.|. X^ >XvXL Z H Z u < ; ! ~.^.^.!.^.u u i e H Y.E W ~ Y.6 O nXnXnXnXnXnXnXnXnXnXnXnXnXnXnX",
"nXnXnXnXnXnXnXnXnXnXnXnXnXnXnXQ ) }._.{._.+XL   Q ~ ( /.6XqXxXM           xXxX9X+ $ S ~ ~ ~ ( A 4 nXnXnXnXnXnXnXnXnXnXnXnXnXnXnX",
"nXnXnXnXnXnXnXnXnXnXnXnXnXnX3 _ {.(.(.{.|.oX_ 1 Y Y ^ R.jXlX` ,XiXK.K.1XpXP *XlXt 4 Z S W ~ F 9 7 nXnXnXnXnXnXnXnXnXnXnXnXnXnXnX",
"nXnXnXnXnXnXnXnXnXnXnXnXnXnX3 R..X{.{.~.~.).W 0 ' ' } ).tXrX  :XvXdXsXfXuX  ] bXG 5 3 w H H 0 7 7 nXnXnXnXnXnXnXnXnXnXnXnXnXnXnX",
"nXnXnXnXnXnXnXnXnXnXnXnXnXnX5 R. X_. X!.R ~ H r 3.,.3.[.[.)     u xXxX<X    L [.q $ . A r 0 9 4 7 nXnXnXnXnXnXnXnXnXnXnXnXnXnXnX",
"nXnXnXnXnXnXnXnXnXnXnXnXnXnXO L R.{.{.(.~.H 9 r L.P.P.eX_.D   H.dXsXsXdX7X  1 E.q $ O q D F p.z 8 nXnXnXnXnXnXnXnXnXnXnXnXnXnXnX",
"nXnXnXnXnXnXnXnXnXnXnXnXnXnX  S T.}.(.}.{.G 3 3 e.e.F.qX;X} M G.K.H.F.H.;X{ P S q % . % p C g.z 8 nXnXnXnXnXnXnXnXnXnXnXnXnXnXnX",
"nXnXnXnXnXnXnXnXnXnXnXnXnXnX  S R.}.{.{.{.H %   3 1 9 wXqXwXU.u         . qX;XO A 1     *.g.a.z 8 nXnXnXnXnXnXnXnXnXnXnXnXnXnXnX",
"nXnXnXnXnXnXnXnXnXnXnXnXnXnXnX5 R .X{.[./.Q.e   0 Z r y 5XsXxXvXjXjXjXpX8X8XZ.8 q nXnX. t P K :   nXnXnXnXnXnXnXnXnXnXnXnXnXnXnX",
"nXnXnXnXnXnXnXnXnXnXnXnXnXnXnX$ e ~./.@XA.e.i   e A Z 1 ..-XwXlXxXlXlXsX8XZ.P 0 $ ] nX  # 1 1 # nXnXnXnXnXnXnXnXnXnXnXnXnXnXnXnX",
"nXnXnXnXnXnXnXnXnXnXnXnXnXnXnX  % E W.F.n.g.b   e A e S 1 3 S.5X9X7X9X5XA.3 4 S   j [ .   .   nXnXnXnXnXnXnXnXnXnXnXnXnXnXnXnXnX",
"nXnXnXnXnXnXnXnXnXnXnXnXnXnXnXnXnXq 2.x.C.d.h X A A e A w 7 w w w w w F G o % nXnX    o.$.@.  nXnXnXnXnXnXnXnXnXnXnXnXnXnXnXnXnX",
"nXnXnXnXnXnXnXnXnXnXnXnXnXnXnXnXnX$ :.j.V.h.b X % 8 9 A q w 9 9 9 q 7 1 $ nXnXnXnX= s $.7.#.k = nXnXnXnXnXnXnXnXnXnXnXnXnXnXnXnX",
"nXnXnXnXnXnXnXnXnXnXnXnXnXnXnXnXnX  :.i.x.l.c X + : x 0 e e e e e e w : - nXnXnX  k %.&.6.6.%.=   nXnXnXnXnXnXnXnXnXnXnXnXnXnXnX",
"nXnXnXnXnXnXnXnXnXnXnXnXnXnXnXnXnXnXb C Y XXL   b <.<.X   o o   X X d 1.M.V.*.        X.0.g.%.=   nXnXnXnXnXnXnXnXnXnXnXnXnXnXnX",
"nXnXnXnXnXnXnXnXnXnXnXnXnXnXnXnXnX'., i [.|.T.S - b 1.v -     , v d p.h.b.V.D.] X = o.+.8.6.= nXnXnXnXnXnXnXnXnXnXnXnXnXnXnXnXnX",
"nXnXnXnXnXnXnXnXnXnXnXnXnXnXnXnXnXt.  8 XX|.!.R X - v *.-     f n n h.M.B.m.U.%Xp a @.7.7.s   nXnXnXnXnXnXnXnXnXnXnXnXnXnXnXnXnX",
"nXnXnXnXnXnXnXnXnXnXnXnXnXnXr.r.w.t.o % Y.$X!     X             @ *.h.N.C.C.L.%XxX .  | :   a +.o.  nXnXnXnXnXnXnXnXnXnXnXnXnXnX",
"nXnXnXnXnXnXnXnXnXnXnXnXr.r.r.r.r.u./ l # & r I   M e.  t I U I l - ,.h.N.n.L.%XxX2X| &Xu . &.X.a X.nXnXnXnXnXnXnXnXnXnXnXnXnXnX",
"nXnXnXnXnXnXnXnXnXnXnXnXr.r.r.w.r.u.'.I % * K '.6 ] e.: I ].'.].I   =.d.h.f.S.:XxXkXyX=Xu + 8.O.X.@.nXnXnXnXnXnXnXnXnXnXnXnXnXnX",
"nXnXnXnXnXnXnXnXnXnXnXnXr.r.r.r.r.r.r.r.y.y.t.u.].6   y.t.w.w.y.U   ;.d.<.b 2.<XxXzXyX*Xu . O.&.$.a nXnXnXnXnXnXnXnXnXnXnXnXnXnX",
"nXnXnXnXnXnXnXnXnXnXnXnXnXnXr.r.r.r.r.w.r.r.u.u.r./ I r.w.w.w.t.w./ < - . @ M =XxXzXyX*Xu . $.8.@.@ nXnXnXnXnXnXnXnXnXnXnXnXnXnX",
"nXnXnXnXnXnXnXnXnXnXnXnXnXnXr.r.r.u.r.r.r.r.u.u.w.t.y.r.w.w.t.w.w.`.O $ ` . u *XxXzXyX*Xu . a o.a   nXnXnXnXnXnXnXnXnXnXnXnXnXnX",
"nXnXnXnXnXnXnXnXnXnXnXnXnXnXnXnXnXr.r.r.r.r.r.r.r.r.r.r.r.r.r.r.w.t.  M fXO & q.zXzXyX*Xi           nXnXnXnXnXnXnXnXnXnXnXnXnXnX",
"nXnXnXnXnXnXnXnXnXnXnXnXnXnXnXnXnXnXnXnXnXnXr.r.r.r.r.r.r.r.r.r.w.t.% o &   . & xXxXkX,X*X[   nXnXnXnXnXnXnXnXnXnXnXnXnXnXnXnXnX",
"nXnXnXnXnXnXnXnXnXnXnXnXnXnXnXnXnXnXnXnXnXnXnXr.r.r.r.r.r.r.r.r.w.y.%           yXzXxXyX3X|   nXnXnXnXnXnXnXnXnXnXnXnXnXnXnXnXnX",
"nXnXnXnXnXnXnXnXnXnXnXnXnXnXnXnXnXnXnXnXnXnXnXnXnXnXnXnXnXnXnXnXnXnXnXnXnXnXnXnX=XuXxXkX3X[   nXnXnXnXnXnXnXnXnXnXnXnXnXnXnXnXnX",
"nXnXnXnXnXnXnXnXnXnXnXnXnXnXnXnXnXnXnXnXnXnXnXnXnXnXnXnXnXnXnXnXnXnXnXnXnXnXnXnX* <XxXzXpXq.  nXnXnXnXnXnXnXnXnXnXnXnXnXnXnXnXnX",
"nXnXnXnXnXnXnXnXnXnXnXnXnXnXnXnXnXnXnXnXnXnXnXnXnXnXnXnXnXnXnXnXnXnXnXnXnXnXnXnXnXp &XxXzX*X  nXnXnXnXnXnXnXnXnXnXnXnXnXnXnXnXnX",
"nXnXnXnXnXnXnXnXnXnXnXnXnXnXnXnXnXnXnXnXnXnXnXnXnXnXnXnXnXnXnXnXnXnXnXnXnXnXnXnXnXnX  jXxX2X  nXnXnXnXnXnXnXnXnXnXnXnXnXnXnXnXnX",
"nXnXnXnXnXnXnXnXnXnXnXnXnXnXnXnXnXnXnXnXnXnXnXnXnXnXnXnXnXnXnXnXnXnXnXnXnXnXnXnXnXnXnX  uXxX  nXnXnXnXnXnXnXnXnXnXnXnXnXnXnXnXnX",
"nXnXnXnXnXnXnXnXnXnXnXnXnXnXnXnXnXnXnXnXnXnXnXnXnXnXnXnXnXnXnXnXnXnXnXnXnXnXnXnXnXnXnXnX` ]   nXnXnXnXnXnXnXnXnXnXnXnXnXnXnXnXnX",
"nXnXnXnXnXnXnXnXnXnXnXnXnXnXnXnXnXnXnXnXnXnXnXnXnXnXnXnXnXnXnXnXnXnXnXnXnXnXnXnXnXnXnXnXnX    nXnXnXnXnXnXnXnXnXnXnXnXnXnXnXnXnX",
"nXnXnXnXnXnXnXnXnXnXnXnXnXnXnXnXnXnXnXnXnXnXnXnXnXnXnXnXnXnXnXnXnXnXnXnXnXnXnXnXnXnXnXnXnXnXnXnXnXnXnXnXnXnXnXnXnXnXnXnXnXnXnXnX",
"nXnXnXnXnXnXnXnXnXnXnXnXnXnXnXnXnXnXnXnXnXnXnXnXnXnXnXnXnXnXnXnXnXnXnXnXnXnXnXnXnXnXnXnXnXnXnXnXnXnXnXnXnXnXnXnXnXnXnXnXnXnXnXnX",
"nXnXnXnXnXnXnXnXnXnXnXnXnXnXnXnXnXnXnXnXnXnXnXnXnXnXnXnXnXnXnXnXnXnXnXnXnXnXnXnXnXnXnXnXnXnXnXnXnXnXnXnXnXnXnXnXnXnXnXnXnXnXnXnX",
"nXnXnXnXnXnXnXnXnXnXnXnXnXnXnXnXnXnXnXnXnXnXnXnXnXnXnXnXnXnXnXnXnXnXnXnXnXnXnXnXnXnXnXnXnXnXnXnXnXnXnXnXnXnXnXnXnXnXnXnXnXnXnXnX",
"nXnXnXnXnXnXnXnXnXnXnXnXnXnXnXnXnXnXnXnXnXnXnXnXnXnXnXnXnXnXnXnXnXnXnXnXnXnXnXnXnXnXnXnXnXnXnXnXnXnXnXnXnXnXnXnXnXnXnXnXnXnXnXnX",
"nXnXnXnXnXnXnXnXnXnXnXnXnXnXnXnXnXnXnXnXnXnXnXnXnXnXnXnXnXnXnXnXnXnXnXnXnXnXnXnXnXnXnXnXnXnXnXnXnXnXnXnXnXnXnXnXnXnXnXnXnXnXnXnX",
"nXnXnXnXnXnXnXnXnXnXnXnXnXnXnXnXnXnXnXnXnXnXnXnXnXnXnXnXnXnXnXnXnXnXnXnXnXnXnXnXnXnXnXnXnXnXnXnXnXnXnXnXnXnXnXnXnXnXnXnXnXnXnXnX",
"nXnXnXnXnXnXnXnXnXnXnXnXnXnXnXnXnXnXnXnXnXnXnXnXnXnXnXnXnXnXnXnXnXnXnXnXnXnXnXnXnXnXnXnXnXnXnXnXnXnXnXnXnXnXnXnXnXnXnXnXnXnXnXnX",
"nXnXnXnXnXnXnXnXnXnXnXnXnXnXnXnXnXnXnXnXnXnXnXnXnXnXnXnXnXnXnXnXnXnXnXnXnXnXnXnXnXnXnXnXnXnXnXnXnXnXnXnXnXnXnXnXnXnXnXnXnXnXnXnX",
"nXnXnXnXnXnXnXnXnXnXnXnXnXnXnXnXnXnXnXnXnXnXnXnXnXnXnXnXnXnXnXnXnXnXnXnXnXnXnXnXnXnXnXnXnXnXnXnXnXnXnXnXnXnXnXnXnXnXnXnXnXnXnXnX"
};
