/* XPM */
static char *result[] = {
/* columns rows colors chars-per-pixel */
"64 64 234 2 ",
"   c #010001",
".  c #01020A",
"X  c #030B0B",
"o  c #0A0A0A",
"O  c #0C0000",
"+  c #170703",
"@  c #07120F",
"#  c #19160B",
"$  c #060E15",
"%  c #081819",
"&  c #161918",
"*  c #2A1309",
"=  c #0E231B",
"-  c #312710",
";  c #031C22",
":  c #051B26",
">  c #021A36",
",  c #0D1722",
"<  c #03222A",
"1  c #002D2C",
"2  c #082728",
"3  c #01302D",
"4  c #19372C",
"5  c #012A32",
"6  c #022738",
"7  c #132B36",
"8  c #023334",
"9  c #0B3235",
"0  c #023239",
"q  c #0D343C",
"w  c #093A39",
"e  c #11343C",
"r  c #13383D",
"t  c #1D3636",
"y  c #102126",
"u  c #313831",
"i  c #2E2F2A",
"p  c #440804",
"a  c #5B170E",
"s  c #471E18",
"d  c #6F1612",
"f  c #593703",
"g  c #513B17",
"h  c #502C07",
"j  c #643E00",
"k  c #6E3D0D",
"l  c #4F3E30",
"z  c #194338",
"x  c #254435",
"c  c #674303",
"v  c #7D5308",
"b  c #784F10",
"n  c #53442A",
"m  c #694A29",
"M  c #6E5528",
"N  c #666530",
"B  c #032745",
"V  c #093742",
"C  c #123A43",
"Z  c #153B46",
"A  c #183D51",
"S  c #003661",
"D  c #13424C",
"F  c #1B4545",
"G  c #184555",
"H  c #265448",
"J  c #25485A",
"K  c #2E514D",
"L  c #2E6452",
"P  c #386757",
"I  c #185577",
"U  c #1D4D61",
"Y  c #274E62",
"T  c #275768",
"R  c #265972",
"E  c #2A5A72",
"W  c #2A5D78",
"Q  c #397A64",
"!  c #38677A",
"~  c #2D627D",
"^  c #474546",
"/  c #5C5454",
"(  c #4E544D",
")  c #685F41",
"_  c #51685A",
"`  c #757853",
"'  c #4E696D",
"]  c #71716F",
"[  c #851E13",
"{  c #9E1508",
"}  c #972617",
"|  c #892215",
" . c #B9351D",
".. c #A82919",
"X. c #A82F1F",
"o. c #C9371C",
"O. c #CF3A21",
"+. c #885802",
"@. c #98541F",
"#. c #9A6709",
"$. c #927516",
"%. c #90620D",
"&. c #A16A08",
"*. c #A67A0D",
"=. c #A87516",
"-. c #895A29",
";. c #975E25",
":. c #8F722A",
">. c #B86B25",
",. c #A5782C",
"<. c #B14D37",
"1. c #D6501B",
"2. c #ED501E",
"3. c #D94521",
"4. c #DA6721",
"5. c #897A7A",
"6. c #816F6F",
"7. c #3E856D",
"8. c #34886D",
"9. c #398E74",
"0. c #408870",
"q. c #568876",
"w. c #459379",
"e. c #46967B",
"r. c #40876F",
"t. c #73825C",
"y. c #BB8608",
"u. c #B78615",
"i. c #A5841A",
"p. c #A48024",
"a. c #918025",
"s. c #C5881B",
"d. c #C89819",
"f. c #D6981A",
"g. c #EC990F",
"h. c #DAA51B",
"j. c #CCA31D",
"k. c #EBB516",
"l. c #EDB211",
"z. c #C89727",
"x. c #FFA529",
"c. c #E9BB21",
"v. c #E3A32C",
"b. c #FFC504",
"n. c #FFDD1F",
"m. c #F7C822",
"M. c #FFD628",
"N. c #FBE828",
"B. c #FDF429",
"V. c #929354",
"C. c #B6AA57",
"Z. c #9D9665",
"A. c #869771",
"S. c #A99972",
"D. c #ADA775",
"F. c #B6AB6E",
"G. c #8AA16D",
"H. c #CFB76A",
"J. c #D4BC4E",
"K. c #FFEA5C",
"L. c #DBC979",
"P. c #366D88",
"I. c #37728B",
"U. c #397897",
"Y. c #2B688C",
"T. c #377BA9",
"R. c #145B8A",
"E. c #426F83",
"W. c #45788C",
"Q. c #447C94",
"!. c #7D7E86",
"~. c #997E81",
"^. c #3C80A3",
"/. c #499D80",
"(. c #4D859D",
"). c #42809C",
"_. c #52899F",
"`. c #788E8E",
"'. c #4DA385",
"]. c #51AD8C",
"[. c #4485A7",
"{. c #528BA3",
"}. c #558EA8",
"|. c #5792AB",
" X c #5993AD",
".X c #5C9AB6",
"XX c #5B98B3",
"oX c #4E97BF",
"OX c #5FA0BC",
"+X c #64A0BA",
"@X c #619BB5",
"#X c #428BC1",
"$X c #64ADCC",
"%X c #998485",
"&X c #9B9888",
"*X c #A99A9A",
"=X c #AF8B90",
"-X c #9DA990",
";X c #A8B593",
":X c #BAA9A9",
">X c #AEB1AF",
",X c #8DAEA7",
"<X c #C8B7B7",
"1X c #B4C3A4",
"2X c #D7CC8B",
"3X c #D6CF97",
"4X c #E4CC83",
"5X c #EDD98C",
"6X c #E8E397",
"7X c #FAF28E",
"8X c #C4CBAE",
"9X c #FDEDA1",
"0X c #FCFCB6",
"qX c #FAEBB6",
"wX c #DCE6B0",
"eX c #AABFCB",
"rX c #BEC3C7",
"tX c #D7D9DB",
"yX c #CDCAC7",
"uX c #E7D7D7",
"iX c #E3DECB",
"pX c #C6E2D9",
"aX c #FFFFCC",
"sX c #FCF8C6",
"dX c #FFFEDE",
"fX c #F3E7CC",
"gX c #C3DDE9",
"hX c #CEE7F6",
"jX c #E7E6E9",
"kX c #F9F7EC",
"lX c #FFFFFF",
"zX c #FBF9F5",
"xX c #EDEDF1",
"cX c None",
/* pixels */
"cXcXcXcXcXcXcXcXcXcXcXcXcXcXcXcXcXcXcXcXcXcXcXcXcXcXcXcXcXcXcXcXcXcXcXcXcXcXcXcXcXcXcXcXcXcXcXcXcXcXcXcXcXcXcXcXcXcXcXcXcXcXcXcX",
"cXcXcXcXcXcXcXcXcXcXcXcXcXcXcXcXcXcXcXcXcXcXcXcXcXcXcXcXcXcXcXcXcXcXcXcXcXcXcXcXcXcXcXcXcXcXcXcXcXcXcXcXcXcXcXcXcXcXcXcXcXcXcXcX",
"cXcXcXcXcXcXcXcXcXcXcXcXcXcXcXcXcXcXcXcXcXcXcXcXcXcXcXcXcXcXcXcXcXcXcXcXcXcXcXcXcXcXcXcXcXcXcXcXcXcXcXcXcXcXcXcXcXcXcXcXcXcXcXcX",
"cXcXcXcXcXcXcXcXcXcXcXcXcXcXcXcXcXcXcXcXcXcXcXcXcXcXcXcXcXcXcXcXcXcXcXcXcXcXcXcXcXcXcXcXcXcXcXcXcXcXcXcXcXcXcXcXcXcXcXcXcXcXcXcX",
"cXcXcXcXcXcXcXcXcXcXcXcXcXcXcXcXcXcXcXcXcXcXcXcXcXcXcXcXcXcXcXcXcXcXcXcXcXcXcXcXcXcXcXcXcXcXcXcXcXcXcXcXcXcXcXcXcXcXcXcXcXcXcXcX",
"cXcXcXcXcXcXcXcXcXcXcXcXcXcXcXcXcXcXcXcXcXcXcXcXcXcXcXcXcXcXcXcXcXcXcXcXcXcXcXcXcXcXcXcXcXcXcXcXcXcXcXcXcXcXcXcXcXcXcXcXcXcXcXcX",
"cXcXcXcXcXcXcXcXcXcXcXcXcXcXcXcXcXcXcXcXcXcXcXcXcXcXcXcXcXcXcXcXcXcXcXcXcXcXcXcXcXcXcXcXcXcXcXcXcXcXcXcXcXcXcXcXcXcXcXcXcXcXcXcX",
"cXcXcXcXcXcXcXcXcXcXcXcXcXcXcXcXcXcXcXcXcXcXcXcXcXcXcXcXcXcXcXcXcXcXcXcXcXcXcXcXcXcXcXcXcXcXcXcXcXcXcXcXcXcXcXcXcXcXcXcXcXcXcXcX",
"cXcXcXcXcXcXcXcXcXcXcXcXcXcXcXcXcXcXcXcXcXcXcXcXcXcXcXcXcXcXcXcXcXcXcXcXcXcXcXcXcXcXcXcXcXcXcXcXcXcXcXcXcXcXcXcXcXcXcXcXcXcXcXcX",
"cXcXcXcXcXcXcXcXcXcXcXcXcXcXcXcXcXcXcXcXcXcXcXcXcXcXcXs.+.c c &.f.c.c.m.m.+.f cXcXcXcXcXcXcXcXcXcXcXcXcXcXcXcXcXcXcXcXcXcXcXcXcX",
"cXcXcXcXcXcXcXcXcXcXcXcXcXcXcXcXcXcXcXcXcXcXcXc j &.d.j C.6XwX:.%.M.m.i.- d.b . cXcXcXcXcXcXcXcXcXcXcXcXcXcXcXcXcXcXcXcXcXcXcXcX",
"cXcXcXcXcXcXcXcXcXcXcXcXcXcXcXcXcXcXcXcXcXcX%.*.*.=.#.v J.7XK.i.+.d.m.$.  b g O cXcXcXcXcXcXcXcXcXcXcXcXcXcXcXcXcXcXcXcXcXcXcXcX",
"cXcXcXcXcXcXcXcXcXcXcXcXcXcXcXcXcXcXcXcXcXc y.M.M.y.j u.h.l.l.h.&.f k.i.. . cXcXcXcXcXcXcXcXm M g cXcXcXcXcXcXcXcXcXcXcXcXcXcXcX",
"cXcXcXcXcXcXcXcXcXcXcXcXcXcXcXcXcXcXO     k c F Z :.g.f y.l.l.#.&.b.N y   cXcXcXcXcXcXcXm M ;.>.b . cXcXcXcXcXcXcXcXcXcXcXcXcXcX",
"cXcXcXcXcXcXcXcXcXcXcXcXcXcXcXcXcXcX% y 7 ` K 6 > V.K.S.2X7XK.N n C.T B % cXcXcXcXcXcXcXm M 4.>.k   cXcXcXcXcXcXcXcXcXcXcXcXcXcX",
"cXcXcXcXcXcXcXcXcXcXcXcXcXcXcXcXcX1 C G Y.oXP.9 6 G.0XlXlXzX7X_ S oXP.U D % o @ cXcXcXcXl -.x.-.i   cXcXcXcXcXcXcXcXcXcXcXcXcXcX",
"cXcXcXcXcXcXcXcXcXcXcXcXcXcXcX3 ;   ~ ^.U.U.^.(.}.T 2 r r r 2 ! }.{.U.U.I.I.U.Y.o cXcXcXl M x.h O cXcXcXcXcXcXcXcXcXcXcXcXcXcXcX",
"cXcXcXcXcXcXcXcXcXcXcXcXcXcX3 G r   &XpXgX8X,X^.|.I.T E T E T (.|.^.1XyXgXgXpX1Xo ; cXcX@.;.x.-   cXcXcXcXcXcXcXcXcXcXcXcXcXcXcX",
"cXcXcXcXcXcXcXcXcXcXcXcXcXcX1 R T X H.sXkX9X;X^.(.{. X X@X X X{.(.).2XqXzXkXsX4X# : A cX-.4.x.*   cXcXcXcXcXcXcXcXcXcXcXcXcXcXcX",
"cXcXcXcXcXcXcXcXcXcXcXcXcXcX9 Y W W $       J $X{.{.{.{._._..X.XXX.Xy         O 2 G T < ,.x.>.cXcXcXcXcXcXcXcXcXcXcXcXcXcXcXcXcX",
"cXcXcXcXcXcXcXcXcXcXcXcXcXo Y T E E J r 2     7 |.oX X XOXQ.: : q Y 2 ; ; <X`.6 ! U.W.P.( N -.cXcXcXcXcXcXcXcXcXcXcXcXcXcXcXcXcX",
"cXcXcXcXcXcXcXcXcXcXcXcXX , Y.E R R W U 9 u i i ' E.E.E.W.' & - i V G D G xXeXI |.|.}.+XI 6 g cXcXcXcXcXcXcXcXcXcXcXcXcXcXcXcXcX",
"cXcXcXcXcXcXcXcXcXcXcXcX1 w W E R W G ; O L.zXlX        O i lXaX3X[.~ R E   t OX_._._.}.I.A   cXcXcXcXcXcXcXcXcXcXcXcXcXcXcXcXcX",
"cXcXcXcXcXcXcXcXcXcXcXcX3 0 Z R E Z w 1 7 kX<X^ yX8XF.S.yXrX^ iXzXU.W I I 2 Y .X}.{.(.{.{.! % cXcXcXcXcXcXcXcXcXcXcXcXcXcXcXcXcX",
"cXcXcXcXcXcXcXcXcXcXcXcX3 8 9 U G q < 1 D hX]   yXdXsXaXzX>X  >XhX).' P ' C T (.).(._._. X).3 cXcXcXcXcXcXcXcXcXcXcXcXcXcXcXcXcX",
"cXcXcXcXcXcXcXcXcXcXcXcX3 8 V q C Z O X 8 [.Y   . `.lXlX^     E [.^.:.$.:.t G R G P.}._.|.W.3 cXcXcXcXcXcXcXcXcXcXcXcXcXcXcXcXcX",
"cXcXcXcXcXcXcXcXcXcXcXcX5 4 =.K B w o @ 8 I.B   3X0XaXaXaXD.  B (.wXL.J.H.z 0 A U._._.{.W.J X cXcXcXcXcXcXcXcXcXcXcXcXcXcXcXcXcX",
"cXcXcXcXcXcXcXcXcXcXcXcX2 u g.N x % X @ q A K ) D.S.Z.Z.D.Z.n _ ;X0XZ.t.V.2 < C _.}._.}.P.D O cXcXcXcXcXcXcXcXcXcXcXcXcXcXcXcXcX",
"cXcXcXcXcXcXcXcXcXcXcXcX5 4 =.g.#.    % Z $ A.aXO         # L.9X0XqXF $ :   % D [.}.{.}.I.G   cXcXcXcXcXcXcXcXcXcXcXcXcXcXcXcXcX",
"cXcXcXcXcXcXcXcXcXcXcXcXX & H K t   *X`.< 6 ] K.5XiXjXjXjXxXlXaX2X4 C r q   6 R.^.^.{..XT 2 cXcXcXcXcXcXcXcXcXcXcXcXcXcXcXcXcXcX",
"cXcXcXcXcXcXcXcXcXcXcXcXcXo < < ;   yX>XX 0 K t.5XsXzXzXzXkXfX;X_ < V Z r   i 6.Z.`.^.(.Z @ cXcXcXcXcXcXcXcXcXcXcXcXcXcXcXcXcXcX",
"cXcXcXcXcXcXcXcXcXcXcXcXcXcX  O   cXcXcX  Z 0 ; V.L.9X3X6X2XC.4 $ F w C r . c g.b.C.T.R ,   cXcXcXcXcXcXcXcXcXcXcXcXcXcXcXcXcXcX",
"cXcXcXcXcXcXcXcXcXcXcXcXcXcXcXcXcXcXcXcXcXcXcX  D F w 9 w w 9 3 8 C C C D . g f.B.c.:.0 cXcXcXcXcXcXcXcXcXcXcXcXcXcXcXcXcXcXcXcX",
"cXcXcXcXcXcXcXcXcXcXcXcXcXcXcXcXcXcXcXcXcXcX- $.$ : < 0 8 8 0 w V Z 0 1 % . f f.N.c.&.% cXcXcXcXcXcXcXcXcXcXcXcXcXcXcXcXcXcXcXcX",
"cXcXcXcXcXcXcXcXcXcXcXcXcXcXcXcXcXcXcXcXcX# $.N.* & z e e e 9 e e q 9 = O . g z.z.z.#.  cXcXcXcXcXcXcXcXcXcXcXcXcXcXcXcXcXcXcXcX",
"cXcXcXcXcXcXcXcXcXcXcXcXcXcXcXcXcXcXcXcX  d.M.N.k.m.j..   o o o o . +.f     K $XY.N +.cXcXcXcXcXcXcXcXcXcXcXcXcXcXcXcXcXcXcXcXcX",
"cXcXcXcXcXcXcXcXcXcXcXcXcXcXcXcX0.7.'.L   h.N.B.N.M.h.c +           * - /   $ V > # - e.cXcXcXcXcXcXcXcXcXcXcXcXcXcXcXcXcXcXcXcX",
"cXcXcXcXcXcXcXcXcXcXcXcXcXcXcX0.0.0.e.H   u.m.N.B.m.d.v - & = % @   @ u ] * + +     % 0.0.cXcXcXcXcXcXcXcXcXcXcXcXcXcXcXcXcXcXcX",
"cXcXcXcXcXcXcXcXcXcXcXcX0.0.0.0.0.0./.H   f s.m.m.h.#.  H ].e.'.L   &X]   [ O.3.    & 0.0.0.0.cXcXcXcXcXcXcXcXcXcXcXcXcXcXcXcXcX",
"cXcXcXcXcXcXcXcXcXcXcX0.0.0.7.r.0.0.0.Q L O f s.h.h.=.  H e.0.0.7.L i s } o.O.O.[ * @ 0.0.0.0.0.0.cXcXcXcXcXcXcXcXcXcXcXcXcXcXcX",
"cXcXcXcXcXcXcXcXcXcXcX0.0.r.0.0.0.7.0.w.e.2 & f b %.b y L e.r.0.0.'.X + } o.3.4.O.p O 0.0.0.0.0.0.cXcXcXcXcXcXcXcXcXcXcXcXcXcXcX",
"cXcXcXcXcXcXcXcXcXcXcX0.0.0.r.0.0.0.7.0.0.].H       X /.w.7.r.r.7.9.&   O d 1.g.o.p   0.0.0.0.0.0.cXcXcXcXcXcXcXcXcXcXcXcXcXcXcX",
"cXcXcXcXcXcXcXcXcXcXcXcX7.0.0.0.0.0.0.0.7./.z   8X(   0.9.0.0.8.q.&X  O ..o.2.2.+ z 9./.0.r.0.cXcXcXcXcXcXcXcXcXcXcXcXcXcXcXcXcX",
"cXcXcXcXcXcXcXcXcXcXcXcXcX0.0.0.0.0.0.0.0./.x   &Xl   0.0.0.0.8.q.=X] l d <.<.d + x t.H 7.e.r.cXcXcXcXcXcXcXcXcXcXcXcXcXcXcXcXcX",
"cXcXcXcXcXcXcXcXcXcXcXcXcXcXcX0.0.0.0.0.0./.H       @ 0.0.0.0.8.q.~.lXrX  ] u O d ..{   cXcXcXcXcXcXcXcXcXcXcXcXcXcXcXcXcXcXcXcX",
"cXcXcXcXcXcXcXcXcXcXcXcXcXcXcXcXcXcXcXcXcX0.Q Q Q Q Q r.0.0.0.8./.~.zXjX%X*X^   o...a } cXcXcXcXcXcXcXcXcXcXcXcXcXcXcXcXcXcXcXcX",
"cXcXcXcXcXcXcXcXcXcXcXcXcXcXcXcXcXcXcXcXcXcX0.e.w.w.w.0.0.0.0.8.' ~.zXzXyX:X^    . .} } cXcXcXcXcXcXcXcXcXcXcXcXcXcXcXcXcXcXcXcX",
"cXcXcXcXcXcXcXcXcXcXcXcXcXcXcXcXcXcXcXcXcXcXcXcXcXcXcXcXcXcXcXcXcX%XxXlXuX:X^   [ O.3.a cXcXcXcXcXcXcXcXcXcXcXcXcXcXcXcXcXcXcXcX",
"cXcXcXcXcXcXcXcXcXcXcXcXcXcXcXcXcXcXcXcXcXcXcXcXcXcXcXcXcXcXcXcXcX%XxXlXuX:X^   ..2.3.O cXcXcXcXcXcXcXcXcXcXcXcXcXcXcXcXcXcXcXcX",
"cXcXcXcXcXcXcXcXcXcXcXcXcXcXcXcXcXcXcXcXcXcXcXcXcXcXcXcXcXcXcXcXcX6.jXlXyX:X^   * a a   cXcXcXcXcXcXcXcXcXcXcXcXcXcXcXcXcXcXcXcX",
"cXcXcXcXcXcXcXcXcXcXcXcXcXcXcXcXcXcXcXcXcXcXcXcXcXcXcXcXcXcXcXcXcX^ uXlXuX<X/ + O       cXcXcXcXcXcXcXcXcXcXcXcXcXcXcXcXcXcXcXcX",
"cXcXcXcXcXcXcXcXcXcXcXcXcXcXcXcXcXcXcXcXcXcXcXcXcXcXcXcXcXcXcXcXcX  tXlXzX<X*X5.o cXcXcXcXcXcXcXcXcXcXcXcXcXcXcXcXcXcXcXcXcXcXcX",
"cXcXcXcXcXcXcXcXcXcXcXcXcXcXcXcXcXcXcXcXcXcXcXcXcXcXcXcXcXcXcXcXcXcX<XkXlXuX:X5.o cXcXcXcXcXcXcXcXcXcXcXcXcXcXcXcXcXcXcXcXcXcXcX",
"cXcXcXcXcXcXcXcXcXcXcXcXcXcXcXcXcXcXcXcXcXcXcXcXcXcXcXcXcXcXcXcXcXcX%X<XlXkXyX5.o cXcXcXcXcXcXcXcXcXcXcXcXcXcXcXcXcXcXcXcXcXcXcX",
"cXcXcXcXcXcXcXcXcXcXcXcXcXcXcXcXcXcXcXcXcXcXcXcXcXcXcXcXcXcXcXcXcXcX  / lXlXjX*Xo cXcXcXcXcXcXcXcXcXcXcXcXcXcXcXcXcXcXcXcXcXcXcX",
"cXcXcXcXcXcXcXcXcXcXcXcXcXcXcXcXcXcXcXcXcXcXcXcXcXcXcXcXcXcXcXcXcXcXcX& ^ lXlX<Xo cXcXcXcXcXcXcXcXcXcXcXcXcXcXcXcXcXcXcXcXcXcXcX",
"cXcXcXcXcXcXcXcXcXcXcXcXcXcXcXcXcXcXcXcXcXcXcXcXcXcXcXcXcXcXcXcXcXcXcXcX  >XtXuXo cXcXcXcXcXcXcXcXcXcXcXcXcXcXcXcXcXcXcXcXcXcXcX",
"cXcXcXcXcXcXcXcXcXcXcXcXcXcXcXcXcXcXcXcXcXcXcXcXcXcXcXcXcXcXcXcXcXcXcXcXcX  ] lX@ cXcXcXcXcXcXcXcXcXcXcXcXcXcXcXcXcXcXcXcXcXcXcX",
"cXcXcXcXcXcXcXcXcXcXcXcXcXcXcXcXcXcXcXcXcXcXcXcXcXcXcXcXcXcXcXcXcXcXcXcXcXcX& u .   cXcXcXcXcXcXcXcXcXcXcXcXcXcXcXcXcXcXcXcXcXcX",
"cXcXcXcXcXcXcXcXcXcXcXcXcXcXcXcXcXcXcXcXcXcXcXcXcXcXcXcXcXcXcXcXcXcXcXcXcXcXcX    cXcXcXcXcXcXcXcXcXcXcXcXcXcXcXcXcXcXcXcXcXcXcX",
"cXcXcXcXcXcXcXcXcXcXcXcXcXcXcXcXcXcXcXcXcXcXcXcXcXcXcXcXcXcXcXcXcXcXcXcXcXcXcXcXcXcXcXcXcXcXcXcXcXcXcXcXcXcXcXcXcXcXcXcXcXcXcXcX",
"cXcXcXcXcXcXcXcXcXcXcXcXcXcXcXcXcXcXcXcXcXcXcXcXcXcXcXcXcXcXcXcXcXcXcXcXcXcXcXcXcXcXcXcXcXcXcXcXcXcXcXcXcXcXcXcXcXcXcXcXcXcXcXcX",
"cXcXcXcXcXcXcXcXcXcXcXcXcXcXcXcXcXcXcXcXcXcXcXcXcXcXcXcXcXcXcXcXcXcXcXcXcXcXcXcXcXcXcXcXcXcXcXcXcXcXcXcXcXcXcXcXcXcXcXcXcXcXcXcX",
"cXcXcXcXcXcXcXcXcXcXcXcXcXcXcXcXcXcXcXcXcXcXcXcXcXcXcXcXcXcXcXcXcXcXcXcXcXcXcXcXcXcXcXcXcXcXcXcXcXcXcXcXcXcXcXcXcXcXcXcXcXcXcXcX"
};
