/* XPM */
static char *result[] = {
/* columns rows colors chars-per-pixel */
"64 64 237 2 ",
"   c #010000",
".  c #0B0202",
"X  c #01020A",
"o  c #010A0B",
"O  c #090A0A",
"+  c #0E0A07",
"@  c #120302",
"#  c #170806",
"$  c #020A17",
"%  c #0A1314",
"&  c #031918",
"*  c #161C1A",
"=  c #11130B",
"-  c #360600",
";  c #241C14",
":  c #2A1103",
">  c #00221D",
",  c #372A0C",
"<  c #001624",
"1  c #011D29",
"2  c #000C23",
"3  c #01222A",
"4  c #032A2B",
"5  c #062526",
"6  c #13282A",
"7  c #00302C",
"8  c #0A332A",
"9  c #14352C",
"0  c #012A32",
"q  c #062C35",
"w  c #142935",
"e  c #013233",
"r  c #0D343B",
"t  c #053339",
"y  c #12353E",
"u  c #193B32",
"i  c #272925",
"p  c #303631",
"a  c #57110B",
"s  c #65170E",
"d  c #74180F",
"f  c #4E3303",
"g  c #533708",
"h  c #50370E",
"j  c #673D01",
"k  c #6C3117",
"l  c #4E392E",
"z  c #1C453B",
"x  c #25453B",
"c  c #394C37",
"v  c #594704",
"b  c #574815",
"n  c #524C1A",
"m  c #684707",
"M  c #774B00",
"N  c #795202",
"B  c #785612",
"V  c #6C4D14",
"C  c #515135",
"Z  c #664829",
"A  c #635C34",
"S  c #796A32",
"D  c #001747",
"F  c #023345",
"G  c #0C3944",
"H  c #123A44",
"J  c #163A46",
"K  c #01324A",
"L  c #0B3966",
"P  c #4A3D43",
"I  c #18444B",
"U  c #1C4C5D",
"Y  c #194756",
"T  c #0F4950",
"R  c #244445",
"E  c #285749",
"W  c #224558",
"Q  c #32534D",
"!  c #2D6251",
"~  c #2D6A56",
"^  c #164C63",
"/  c #1E5566",
"(  c #1A5478",
")  c #0A4A78",
"_  c #264C62",
"`  c #25556C",
"'  c #2C5B6C",
"]  c #265667",
"[  c #295A72",
"{  c #2C5E79",
"}  c #245873",
"|  c #335969",
" . c #397A65",
".. c #2E617C",
"X. c #366776",
"o. c #31626D",
"O. c #454745",
"+. c #5D5555",
"@. c #545048",
"#. c #566C56",
"$. c #766F4A",
"%. c #4F7870",
"&. c #6C6B68",
"*. c #7A7B68",
"=. c #6E7C74",
"-. c #707170",
";. c #605B55",
":. c #A61E17",
">. c #882915",
",. c #962616",
"<. c #AD2B1A",
"1. c #A5211A",
"2. c #B4331C",
"3. c #9A271A",
"4. c #CD331A",
"5. c #DC3E24",
"6. c #885C05",
"7. c #894E13",
"8. c #976910",
"9. c #AD7716",
"0. c #AF6E0B",
"q. c #8A5424",
"w. c #8A6824",
"e. c #B06C26",
"r. c #AC4015",
"t. c #D54A1D",
"y. c #D14829",
"u. c #E54523",
"i. c #FF5029",
"p. c #FF6021",
"a. c #E0791B",
"s. c #827844",
"d. c #8C787A",
"f. c #3F856E",
"g. c #34876D",
"h. c #378F74",
"j. c #408870",
"k. c #47987D",
"l. c #40876F",
"z. c #768478",
"x. c #6E906F",
"c. c #9A8736",
"v. c #8A8638",
"b. c #B28D28",
"n. c #AF8D18",
"m. c #C89C16",
"M. c #D7981D",
"N. c #C78B0A",
"B. c #E99A0F",
"V. c #F58D0D",
"C. c #DAAA13",
"Z. c #E3AC18",
"A. c #E8B71A",
"S. c #F0AD0A",
"D. c #CF9220",
"F. c #EE9728",
"G. c #D1B22A",
"H. c #FEA22B",
"J. c #EAB520",
"K. c #FDCC22",
"L. c #FFD822",
"P. c #FFCA1F",
"I. c #898550",
"U. c #AB9751",
"Y. c #94996D",
"T. c #A3986C",
"R. c #B7A973",
"E. c #ACAB69",
"W. c #9DA465",
"Q. c #C3A552",
"!. c #CECA6F",
"~. c #F4D573",
"^. c #FCF275",
"/. c #296788",
"(. c #366C86",
"). c #37738C",
"_. c #387696",
"`. c #387AA1",
"'. c #0C4F80",
"]. c #47788E",
"[. c #457C94",
"{. c #527B82",
"}. c #4A9D82",
"|. c #4E859C",
" X c #6B979F",
".X c #4DA386",
"XX c #55B595",
"oX c #4986A3",
"OX c #528BA3",
"+X c #558FA9",
"@X c #5691AB",
"#X c #5A93AE",
"$X c #5B96B1",
"%X c #5E9BB7",
"&X c #468EB5",
"*X c #669DB3",
"=X c #6EA3B6",
"-X c #69A8C2",
";X c #9A8989",
":X c #92928E",
">X c #A99495",
",X c #A2B08D",
"<X c #B79EA1",
"1X c #95B1A6",
"2X c #B8A5A6",
"3X c #B8B8BA",
"4X c #9EAE96",
"5X c #C9B7B7",
"6X c #CABEB2",
"7X c #A8C2A8",
"8X c #A7C091",
"9X c #D5D295",
"0X c #ECDA94",
"qX c #FCE487",
"wX c #F9E59A",
"eX c #F4F388",
"rX c #CED3AB",
"tX c #FFFCAA",
"yX c #FFFCB7",
"uX c #F1ECB8",
"iX c #BCD8E6",
"pX c #D4C2C2",
"aX c #D1D2D8",
"sX c #CAD3D6",
"dX c #FFFFC8",
"fX c #FAEDD5",
"gX c #FFFCD5",
"hX c #C4DDE9",
"jX c #DDE6F5",
"kX c #EAE5E6",
"lX c #F6E9E9",
"zX c #FDF7EE",
"xX c #FFFFFE",
"cX c #F8F6F5",
"vX c #EDEFF1",
"bX c #E4D3D3",
"nX c None",
/* pixels */
"nXnXnXnXnXnXnXnXnXnXnXnXnXnXnXnXnXnXnXnXnXnXnXnXnXnXnXnXnXnXnXnXnXnXnXnXnXnXnXnXnXnXnXnXnXnXnXnXnXnXnXnXnXnXnXnXnXnXnXnXnXnXnXnX",
"nXnXnXnXnXnXnXnXnXnXnXnXnXnXnXnXnXnXnXnXnXnXnXnXnXnXnXnXnXnXnXnXnXnXnXnXnXnXnXnXnXnXnXnXnXnXnXnXnXnXnXnXnXnXnXnXnXnXnXnXnXnXnXnX",
"nXnXnXnXnXnXnXnXnXnXnXnXnXnXnXnXnXnXnXnXnXnXnXnXnXnXnXnXnXnXnXnXnXnXnXnXnXnXnXnXnXnXnXnXnXnXnXnXnXnXnXnXnXnXnXnXnXnXnXnXnXnXnXnX",
"nXnXnXnXnXnXnXnXnXnXnXnXnXnXnXnXnXnXnXnXnXnXnXnXnXnXnXnXnXnXnXnXnXnXnXnXnXnXnXnXnXnXnXnXnXnXnXnXnXnXnXnXnXnXnXnXnXnXnXnXnXnXnXnX",
"nXnXnXnXnXnXnXnXnXnXnXnXnXnXnXnXnXnXnXnXnXnXnXnXnXnXnXnXnXnXnXnXnXnXnXnXnXnXnXnXnXnXnXnXnXnXnXnXnXnXnXnXnXnXnXnXnXnXnXnXnXnXnXnX",
"nXnXnXnXnXnXnXnXnXnXnXnXnXnXnXnXnXnXnXnXnXnXnXnXnXnXnXnXnXnXnXnXnXnXnXnXnXnXnXnXnXnXnXnXnXnXnXnXnXnXnXnXnXnXnXnXnXnXnXnXnXnXnXnX",
"nXnXnXnXnXnXnXnXnXnXnXnXnXnXnXnXnXnXnXnXnXnXnXnXnXnXnXnXnXj j m nXnXnXnXnXnXnXnXnXnXnXnXnXnXnXnXZ Z Z nXnXnXnXnXnXnXnXnXnXnXnXnX",
"nXnXnXnXnXnXnXnXnXnXnXnXnXnXnXnXnXnXnXnXnXnXnXnXnXj M M M !.9X!.N M N j nXnXnXnXnXnXnXnXnXnXnXZ q.e.7.  nXnXnXnXnXnXnXnXnXnXnXnX",
"nXnXnXnXnXnXnXnXnXnXnXnXnXnXnXnXnXnXnXnXnXnXnXnXZ.6.N M 6.^.eX^.8.M N 6.C.nXnXnXnXnXnXnXnXnXZ Z e.e.q.  nXnXnXnXnXnXnXnXnXnXnXnX",
"nXnXnXnXnXnXnXnXnXnXnXnXnXnXnXnXnXnXnXnXnXnXM N.K.L.6.6.M.A.A.C.D.6.N K.K.C.M nXnXnXnXnXnXnXnXZ F.e.l   nXnXnXnXnXnXnXnXnXnXnXnX",
"nXnXnXnXnXnXnXnXnXnXnXnXnXnXnXnXnXnXnXnXnX9 7.^.^.6 Z.m.j N.S.S.j N.J.i !.eX6.u F nXnXnXnXnXnXZ H.B + nXnXnXnXnXnXnXnXnXnXnXnXnX",
"nXnXnXnXnXnXnXnXnXnXnXnXnXnXnXnXnXnXnXnX^ R h W. XL v.n.c.~.~.~.c.b.v.^ x.E.h x ^ nXnXnXnXnXnXq.H.j   nXnXnXnXnXnXnXnXnXnXnXnXnX",
"nXnXnXnXnXnXnXnXnXnXnXnXnXnXnXnXnXr H ' ..` K $ t =XK #.yXxXxXxXyXx.D =XT $ t / { [ I t nXnXnXe.H.h   nXnXnXnXnXnXnXnXnXnXnXnXnX",
"nXnXnXnXnXnXnXnXnXnXnXnXnXnXnXnX3 ] OX#X%X].> X.|.`.oXX.u R R R 9 o.OX_.oX(.& (.*X+X@Xo.3 l e.F.a.Z nXnXnXnXnXnXnXnXnXnXnXnXnXnX",
"nXnXnXnXnXnXnXnXnXnXnXnXnXnXnXnXE |.@X' o.] r ).=X7X*X).U U U U Y ).*X1X=X_.y ] X.' OX|.] p w.H.q.nXnXnXnXnXnXnXnXnXnXnXnXnXnXnX",
"nXnXnXnXnXnXnXnXnXnXnXnXnXnXr I #X#X).4 > t { _.1XtX XoX$X#X#X#X#XoX XtX1X_.(.r & 3 X.$X#XK A F.Z nXnXnXnXnXnXnXnXnXnXnXnXnXnXnX",
"nXnXnXnXnXnXnXnXnXnXnXnXnXq ' +X#X] q _._.)./.uX0Xt OX%XoXOX|.OXoX$X+XG 9XdX/.)._.`.t Y #X+XX.9 O nXnXnXnXnXnXnXnXnXnXnXnXnXnXnX",
"nXnXnXnXnXnXnXnXnXnXnXnXnX4 ' *X$XT 8 7XsXhXiX1X;.X 3 | %X@X@X@X%X| w   O.4XiXhXiXrXu G #X*XX.1   nXnXnXnXnXnXnXnXnXnXnXnXnXnXnX",
"nXnXnXnXnXnXnXnXnXnXnXnXnXq ' +X#X^ u qXfXzXzX| X ; # R OX].].].OXR + ; X Y zXzXfXwXx T #X+XX.q o nXnXnXnXnXnXnXnXnXnXnXnXnXnXnX",
"nXnXnXnXnXnXnXnXnXnXnXnXe ] [ [ #X[.^ .         l tXxX3X          >XxXyXA           W _.#X{ [ ` e nXnXnXnXnXnXnXnXnXnXnXnXnXnXnX",
"nXnXnXnXnXnXnXnXnXnXnXnX0 _ [ [ (.' H & r J 5   C cX&.-.3XT.T.T.3X:X+.xX+.  5 J y & G ] (.[ [ ` e nXnXnXnXnXnXnXnXnXnXnXnXnXnXnX",
"nXnXnXnXnXnXnXnXnXnXnXnXe ` [ [ } I e 7 ] ..J = +.jX  p vXdXdXgXcXO.  jX&.= I } } 7 8 I } } [ ` e nXnXnXnXnXnXnXnXnXnXnXnXnXnXnX",
"nXnXnXnXnXnXnXnXnXnXnXnXe ] [ [ ..W r 7 U ' F S I.@X6 .   jXxXcX    * &XI.w.t ] ] 7 t Y { [ [ } e nXnXnXnXnXnXnXnXnXnXnXnXnXnXnX",
"nXnXnXnXnXnXnXnXnXnXnXnXe ` { } Y G 4 o W [ 1 U.R.)   p 9XdXgXgXrXC   '.Y.Q.3 } _ O 4 G I ` { [ e nXnXnXnXnXnXnXnXnXnXnXnXnXnXnX",
"nXnXnXnXnXnXnXnXnXnXnXnX7 U ` } y e 4   J / 5 $.Y.{.p S 9XR.R.R.9Xs.p %.Y.s.q ^ J . 5 t r ] [ W e nXnXnXnXnXnXnXnXnXnXnXnXnXnXnX",
"nXnXnXnXnXnXnXnXnXnXnXnXe q Y } F t 4 . & e J $ ! dXqXS           A qXdX#.$ H t > . 4 t F ( ^ e e nXnXnXnXnXnXnXnXnXnXnXnXnXnXnX",
"nXnXnXnXnXnXnXnXnXnXnXnXnXq C n.G.n o O . 1 /.0 c ~.zXvXsXaXaXaXaXvXxXqX@.1 /.6 X O X n G.b.C q nXnXnXnXnXnXnXnXnXnXnXnXnXnXnXnX",
"nXnXnXnXnXnXnXnXnXnXnXnXnX< n B.L.B   O . % W G E $.rXfXxXxXxXxXxXfXrXs.E G W %   O   m L.B.B & nXnXnXnXnXnXnXnXnXnXnXnXnXnXnXnX",
"nXnXnXnXnXnXnXnXnXnXnXnXnX  g M.L.B   nXnXnX  _ } < v U.tXwXwXwXtXQ.v & ^ [   nXnXnX. b L.M.m   nXnXnXnXnXnXnXnXnXnXnXnXnXnXnXnX",
"nXnXnXnXnXnXnXnXnXnXnXnXnXX , 0.B.v   nXnXnXnXX 2 T R R z z z z z I R T < X nXnXnXnX  f B.0.f X nXnXnXnXnXnXnXnXnXnXnXnXnXnXnXnX",
"nXnXnXnXnXnXnXnXnXnXnXnXnXnX: h w.O.r nXnXnXnXv b 1 < 1 0 0 4 0 0 1 < 1 n m nXnXnXnX6 Q s.g : o nXnXnXnXnXnXnXnXnXnXnXnXnXnXnXnX",
"nXnXnXnXnXnXnXnXnXnXnXnXnXnXnXX ) /.} O nXnX  Z.A.. @ % I y H y H * @   m.P.  ,X,X  _ /.) $ nXnXnXnXnXnXnXnXnXnXnXnXnXnXnXnXnXnX",
"nXnXnXnXnXnXnXnXnXnXnXnXnXnX  % /.` r O nXnX  n.L.J.M.B X       X V D.J.K.m.X ,X4X  t ] /.% . nXnXnXnXnXnXnXnXnXnXnXnXnXnXnXnXnX",
"nXnXnXnXnXnXnXnXnXnXnXnXnXnXnXnXw 6 & O nXnX  8.J.Z.N.m   x E x   g N.Z.J.9.  z.Y.  $ 1 w O nXnXnXnXnXnXnXnXnXnXnXnXnXnXnXnXnXnX",
"nXnXnXnXnXnXnXnXnXnXnXnXnXnXnXnX        nXnX= B 9.8.N , % f..Xk.% , M 8.9.B = O.l # @ .   nXnXnXnXnXnXnXnXnXnXnXnXnXnXnXnXnXnXnX",
"nXnXnXnXnXnXnXnXnXnXnXnXnXnXnXnXnXnXnXnX ..Xk.6   .   9 k.f.j.j.}.u       * XX> . <.u.>.  nXnXnXnXnXnXnXnXnXnXnXnXnXnXnXnXnXnXnX",
"nXnXnXnXnXnXnXnXnXnXnXnXnXnXnXnXk.k.k.}.j.j.}.o + *.  > }.j.j.j.k.9   *.;   u a ,.4.5.<.s . nXnXnXnXnXnXnXnXnXnXnXnXnXnXnXnXnXnX",
"nXnXnXnXnXnXnXnXnXnXnXnXnXnXnXnXj.j.j.j.j.j.k.5 i >X; 9 k.j.j.j.k.z = :Xc % X s 2.t.u.t.<.. 9 nXnXnXnXnXnXnXnXnXnXnXnXnXnXnXnXnX",
"nXnXnXnXnXnXnXnXnXnXnXnXnXj.j.j.j.j.j.j.l.j.l..X!    .k.j.j.j.j.j.k. .  E h.    @ 1.V.a.1.  9 }.nXnXnXnXnXnXnXnXnXnXnXnXnXnXnXnX",
"nXnXnXnXnXnXnXnXnXnXnXnXj.j.f.j.j.j.l.j.l.l.l.j.f.! f.j.j.j.j.j.j.j.g.~ z.&.  a 2.4.p.r.# E g.k.j.nXnXnXnXnXnXnXnXnXnXnXnXnXnXnX",
"nXnXnXnXnXnXnXnXnXnXnXnXj.j.j.j.j.j.j.j.j.l.j.l.j.k.j.j.j.j.j.j.j.j.j.k.:Xd.O.k ,.y.2.s @ #.%.! l.j.nXnXnXnXnXnXnXnXnXnXnXnXnXnX",
"nXnXnXnXnXnXnXnXnXnXnXnXj.j.j.l.l.j.j.j.j.j.j.l.j.j.j.j.j.j.j.j.j.j.h.g.=.2XxXp   -.$ $ d 4.a . g.nXnXnXnXnXnXnXnXnXnXnXnXnXnXnX",
"nXnXnXnXnXnXnXnXnXnXnXnXnXj.j.j.j.j.j.l.j.l.j.j.j.j.j.j.j.j.j.j.j.j.f.g.=.<XxX2Xd.;X$ - t.d d ,.nXnXnXnXnXnXnXnXnXnXnXnXnXnXnXnX",
"nXnXnXnXnXnXnXnXnXnXnXnXnXj.j.j.j.j.j.j.j.j.j.j.l.j.j.j.j.j.j.j.j.j.h.g.=.<XxXkX5X;X& - u.,.,.1.nXnXnXnXnXnXnXnXnXnXnXnXnXnXnXnX",
"nXnXnXnXnXnXnXnXnXnXnXnXnXnXnXnXj.j.j.j.j.j.j.j.j.j.j.j.j.j.j.j.j.j.j.g.z.<XxXcXpX;X% : 1.u.2.a nXnXnXnXnXnXnXnXnXnXnXnXnXnXnXnX",
"nXnXnXnXnXnXnXnXnXnXnXnXnXnXnXnXnXnXnXnXnXnXj.j.j.j.l.j.j.j.j.j.j.j.j.g.z.2XxXlXpX;X$ - 4.i.>.. nXnXnXnXnXnXnXnXnXnXnXnXnXnXnXnX",
"nXnXnXnXnXnXnXnXnXnXnXnXnXnXnXnXnXnXnXnXnXnXj.l.j.j.j.j.j.j.j.j.j.j.j.h.&.>XxXlX5X;X% @ s >.-   nXnXnXnXnXnXnXnXnXnXnXnXnXnXnXnX",
"nXnXnXnXnXnXnXnXnXnXnXnXnXnXnXnXnXnXnXnXnXnXnXnXnXnXnXnXnXnXnXnXnXnXnXnX@.d.xXlXpX;Xi       o   nXnXnXnXnXnXnXnXnXnXnXnXnXnXnXnX",
"nXnXnXnXnXnXnXnXnXnXnXnXnXnXnXnXnXnXnXnXnXnXnXnXnXnXnXnXnXnXnXnXnXnXnXnX. p xXxXkX<X>X+.  nXnXnXnXnXnXnXnXnXnXnXnXnXnXnXnXnXnXnX",
"nXnXnXnXnXnXnXnXnXnXnXnXnXnXnXnXnXnXnXnXnXnXnXnXnXnXnXnXnXnXnXnXnXnXnXnXnXi kXcXcXpX2X+.  nXnXnXnXnXnXnXnXnXnXnXnXnXnXnXnXnXnXnX",
"nXnXnXnXnXnXnXnXnXnXnXnXnXnXnXnXnXnXnXnXnXnXnXnXnXnXnXnXnXnXnXnXnXnXnXnXnXnX>XkXxXlX5X@.  nXnXnXnXnXnXnXnXnXnXnXnXnXnXnXnXnXnXnX",
"nXnXnXnXnXnXnXnXnXnXnXnXnXnXnXnXnXnXnXnXnXnXnXnXnXnXnXnXnXnXnXnXnXnXnXnXnXnX  aXxXxXbX&.  nXnXnXnXnXnXnXnXnXnXnXnXnXnXnXnXnXnXnX",
"nXnXnXnXnXnXnXnXnXnXnXnXnXnXnXnXnXnXnXnXnXnXnXnXnXnXnXnXnXnXnXnXnXnXnXnXnXnXnXO.:XxXlXd.  nXnXnXnXnXnXnXnXnXnXnXnXnXnXnXnXnXnXnX",
"nXnXnXnXnXnXnXnXnXnXnXnXnXnXnXnXnXnXnXnXnXnXnXnXnXnXnXnXnXnXnXnXnXnXnXnXnXnXnX  * aXxX>X  nXnXnXnXnXnXnXnXnXnXnXnXnXnXnXnXnXnXnX",
"nXnXnXnXnXnXnXnXnXnXnXnXnXnXnXnXnXnXnXnXnXnXnXnXnXnXnXnXnXnXnXnXnXnXnXnXnXnXnXnXnX  xXsX  nXnXnXnXnXnXnXnXnXnXnXnXnXnXnXnXnXnXnX",
"nXnXnXnXnXnXnXnXnXnXnXnXnXnXnXnXnXnXnXnXnXnXnXnXnXnXnXnXnXnXnXnXnXnXnXnXnXnXnXnXnXnXO.p   nXnXnXnXnXnXnXnXnXnXnXnXnXnXnXnXnXnXnX",
"nXnXnXnXnXnXnXnXnXnXnXnXnXnXnXnXnXnXnXnXnXnXnXnXnXnXnXnXnXnXnXnXnXnXnXnXnXnXnXnXnXnX      nXnXnXnXnXnXnXnXnXnXnXnXnXnXnXnXnXnXnX",
"nXnXnXnXnXnXnXnXnXnXnXnXnXnXnXnXnXnXnXnXnXnXnXnXnXnXnXnXnXnXnXnXnXnXnXnXnXnXnXnXnXnXnXnXnXnXnXnXnXnXnXnXnXnXnXnXnXnXnXnXnXnXnXnX",
"nXnXnXnXnXnXnXnXnXnXnXnXnXnXnXnXnXnXnXnXnXnXnXnXnXnXnXnXnXnXnXnXnXnXnXnXnXnXnXnXnXnXnXnXnXnXnXnXnXnXnXnXnXnXnXnXnXnXnXnXnXnXnXnX",
"nXnXnXnXnXnXnXnXnXnXnXnXnXnXnXnXnXnXnXnXnXnXnXnXnXnXnXnXnXnXnXnXnXnXnXnXnXnXnXnXnXnXnXnXnXnXnXnXnXnXnXnXnXnXnXnXnXnXnXnXnXnXnXnX",
"nXnXnXnXnXnXnXnXnXnXnXnXnXnXnXnXnXnXnXnXnXnXnXnXnXnXnXnXnXnXnXnXnXnXnXnXnXnXnXnXnXnXnXnXnXnXnXnXnXnXnXnXnXnXnXnXnXnXnXnXnXnXnXnX",
"nXnXnXnXnXnXnXnXnXnXnXnXnXnXnXnXnXnXnXnXnXnXnXnXnXnXnXnXnXnXnXnXnXnXnXnXnXnXnXnXnXnXnXnXnXnXnXnXnXnXnXnXnXnXnXnXnXnXnXnXnXnXnXnX",
"nXnXnXnXnXnXnXnXnXnXnXnXnXnXnXnXnXnXnXnXnXnXnXnXnXnXnXnXnXnXnXnXnXnXnXnXnXnXnXnXnXnXnXnXnXnXnXnXnXnXnXnXnXnXnXnXnXnXnXnXnXnXnXnX",
"nXnXnXnXnXnXnXnXnXnXnXnXnXnXnXnXnXnXnXnXnXnXnXnXnXnXnXnXnXnXnXnXnXnXnXnXnXnXnXnXnXnXnXnXnXnXnXnXnXnXnXnXnXnXnXnXnXnXnXnXnXnXnXnX"
};
