/* XPM */
static char *result[] = {
/* columns rows colors chars-per-pixel */
"64 64 233 2 ",
"   c #010000",
".  c #0A0303",
"X  c #01020A",
"o  c #090A0A",
"O  c #090A06",
"+  c #180503",
"@  c #0A120E",
"#  c #191309",
"$  c #040915",
"%  c #011415",
"&  c #05181A",
"*  c #151717",
"=  c #360805",
"-  c #281902",
";  c #361B03",
":  c #251C14",
">  c #2E0D0A",
",  c #00201B",
"<  c #382708",
"1  c #2A2B1A",
"2  c #332C19",
"3  c #37381C",
"4  c #292A10",
"5  c #031A25",
"6  c #0A132F",
"7  c #002A26",
"8  c #01252D",
"9  c #012D2B",
"0  c #092429",
"q  c #142427",
"w  c #05322D",
"e  c #032A36",
"r  c #023233",
"t  c #0C343B",
"y  c #09393D",
"u  c #083538",
"i  c #153738",
"p  c #122F32",
"a  c #25372D",
"s  c #2A3B34",
"d  c #312E2B",
"f  c #54140C",
"g  c #69170B",
"h  c #6F1C11",
"j  c #4B310B",
"k  c #663A00",
"l  c #623915",
"z  c #4E3B30",
"x  c #1C453C",
"c  c #324534",
"v  c #3E400E",
"b  c #574114",
"n  c #6B4201",
"m  c #664405",
"M  c #784C02",
"N  c #765403",
"B  c #6F5312",
"V  c #594328",
"C  c #525232",
"Z  c #654628",
"A  c #774C25",
"S  c #716835",
"D  c #002C43",
"F  c #0A3A4A",
"G  c #123B43",
"H  c #143F4A",
"J  c #173745",
"K  c #003A53",
"L  c #233B46",
"P  c #393F40",
"I  c #053C68",
"U  c #184449",
"Y  c #1D4D5D",
"T  c #154756",
"R  c #0E4253",
"E  c #234746",
"W  c #2A5A4A",
"Q  c #254857",
"!  c #305957",
"~  c #2D6655",
"^  c #36735F",
"/  c #376A58",
"(  c #1B4D64",
")  c #1E5367",
"_  c #235165",
"`  c #25556C",
"'  c #2A5A6B",
"]  c #2B5B74",
"[  c #2D5E79",
"{  c #255875",
"}  c #2C5262",
"|  c #3B7D67",
" . c #2C627C",
".. c #2B6273",
"X. c #33667A",
"o. c #286C68",
"O. c #585858",
"+. c #4C4D45",
"@. c #56674C",
"#. c #70764E",
"$. c #4B7374",
"%. c #686665",
"&. c #786C6D",
"*. c #7C7876",
"=. c #605E57",
"-. c #891912",
";. c #852614",
":. c #9B2818",
">. c #B02C1B",
",. c #932B1C",
"<. c #C73A1C",
"1. c #CD3118",
"2. c #D93C21",
"3. c #885B04",
"4. c #825712",
"5. c #9A6501",
"6. c #836616",
"7. c #936F11",
"8. c #A96F08",
"9. c #855727",
"0. c #935520",
"q. c #94622C",
"w. c #B17728",
"e. c #A45B1F",
"r. c #DE551B",
"t. c #EE4C24",
"y. c #C57121",
"u. c #FF6723",
"i. c #83794F",
"p. c #867978",
"a. c #805852",
"s. c #3F866E",
"d. c #3F8971",
"f. c #408870",
"g. c #408770",
"h. c #45947A",
"j. c #47967C",
"k. c #40876F",
"l. c #748A73",
"z. c #BB961A",
"x. c #B18611",
"c. c #9C8430",
"v. c #B3912A",
"b. c #C6891A",
"n. c #DA9A1F",
"m. c #CF8E07",
"M. c #E59B12",
"N. c #D7A51A",
"B. c #E6A517",
"V. c #F1B410",
"C. c #D08527",
"Z. c #ED9729",
"A. c #D4AD26",
"S. c #FBA12A",
"D. c #EFB321",
"F. c #FECB1D",
"G. c #FDC823",
"H. c #FFD623",
"J. c #95955C",
"K. c #918B49",
"L. c #A5914E",
"P. c #959873",
"I. c #A39B6C",
"U. c #B0B074",
"Y. c #BBAD55",
"T. c #D1B86B",
"R. c #D4B65A",
"E. c #DCC872",
"W. c #F2D871",
"Q. c #EBC44A",
"!. c #1D638B",
"~. c #2A698A",
"^. c #386B84",
"/. c #35728C",
"(. c #3A7999",
"). c #3C7DA3",
"_. c #165B89",
"`. c #45778B",
"'. c #417D95",
"]. c #647B85",
"[. c #499C81",
"{. c #4D859D",
"}. c #4B8197",
"|. c #629088",
" X c #4EA688",
".X c #53AE8D",
"XX c #528BA4",
"oX c #548DA9",
"OX c #5A94AE",
"+X c #5591AB",
"@X c #5B98B4",
"#X c #4A85A1",
"$X c #639DBA",
"%X c #70A2AF",
"&X c #61A2C0",
"*X c #96938F",
"=X c #A89797",
"-X c #B19E9E",
";X c #94AE84",
":X c #AFAF98",
">X c #9B9EA1",
",X c #8CABA6",
"<X c #B5B6B9",
"1X c #ADB1AA",
"2X c #C6B6B7",
"3X c #C2AFAF",
"4X c #B6CAA8",
"5X c #D2CE95",
"6X c #FAE799",
"7X c #FFFF95",
"8X c #FFFF8B",
"9X c #CECDB0",
"0X c #D5EAB4",
"qX c #FFFCB6",
"wX c #F9EFA6",
"eX c #BBD7E4",
"rX c #D5C5C7",
"tX c #D3D2D8",
"yX c #CACBD0",
"uX c #E4D3D3",
"iX c #C9E3CE",
"pX c #FEFCC5",
"aX c #FFFDD5",
"sX c #F3E7CE",
"dX c #C2DCE7",
"fX c #EAE5E6",
"gX c #F5E7E5",
"hX c #FDF7EB",
"jX c #FFFEFE",
"kX c #F6F3F3",
"lX c #E5EEFA",
"zX c #DAE5F4",
"xX c #489848",
/* pixels */
"xXxXxXxXxXxXxXxXxXxXxXxXxXxXxXxXxXxXxXxXxXxXxXxXxXxXxXxXxXxXxXxXxXxXxXxXxXxXxXxXxXxXxXxXxXxXxXxXxXxXxXxXxXxXxXxXxXxXxXxXxXxXxXxX",
"xXxXxXxXxXxXxXxXxXxXxXxXxXxXxXxXxXxXxXxXxXxXxXxXxXxXxXxXxXxXxXxXxXxXxXxXxXxXxXxXxXxXxXxXxXxXxXxXxXxXxXxXxXxXxXxXxXxXxXxXxXxXxXxX",
"xXxXxXxXxXxXxXxXxXxXxXxXxXxXxXxXxXxXxXxXxXxXxXxXxXxXxXxXxXxXxXxXxXxXxXxXxXxXxXxXxXxXxXxXxXxXxXxXxXxXxXxXxXxXxXxXxXxXxXxXxXxXxXxX",
"xXxXxXxXxXxXxXxXxXxXxXxXxXxXxXxXxXxXxXxXxXxXxXxXxXxXxXxXxXxXxXxXxXxXxXxXxXxXxXxXxXxXxXxXxXxXxXxXxXxXxXxXxXxXxXxXxXxXxXxXxXxXxXxX",
"xXxXxXxXxXxXxXxXxXxXxXxXxXxXxXxXxXxXxXxXxXxXxXxXxXxXxXxXxXxXxXxXxXxXxXxXxXxXxXxXxXxXxXxXxXxXxXxXxXxXxXxXxXxXxXxXxXxXxXxXxXxXxXxX",
"xXxXxXxXxXxXxXxXxXxXxXxXxXxXxXxXxXxXxXxXxXxXxXxXxXxXxXxXxXxXxXxXxXxXxXxXxXxXxXxXxXxXxXxXxXxXxXxXxXxXxXxXxXxXxXxXxXxXxXxXxXxXxXxX",
"xXxXxXxXxXxXxXxXxXxXxXxXxXxXxXxXxXxXxXxXxXxXxXxXxXxXxXxXxXxXk M n xXxXxXxXxXxXxXxXxXxXxXxXxXxXxXxXV Z z xXxXxXxXxXxXxXxXxXxXxXxX",
"xXxXxXxXxXxXxXxXxXxXxXxXxXxXxXxXxXxXxXxXxXxXxXxXxXxXn N n 6.E.5XY.k N N k xXxXxXxXxXxXxXxXxXxXZ A 0.w.l . xXxXxXxXxXxXxXxXxXxXxX",
"xXxXxXxXxXxXxXxXxXxXxXxXxXxXxXxXxXxXxXxXxXxXxXxXxXz.3.N N 7.8X8XE.M N 3.7.xXxXxXxXxXxXxXxXxXxXZ 9.y.y.l   xXxXxXxXxXxXxXxXxXxXxX",
"xXxXxXxXxXxXxXxXxXxXxXxXxXxXxXxXxXxXxXxXxXxXxX3.B.H.D.m 8.n.V.V.B.b.m 8.H.G.x.n xXxXxXxXxXxXxXV 9.S.q.2   xXxXxXxXxXxXxXxXxXxXxX",
"xXxXxXxXxXxXxXxXxXxXxXxXxXxXxXxXxXxXxXxXxXD 3 5.8XJ.1 F.5.M V.F.x.k V.z.i 7XQ.k y xXxXxXxXxXxXz 9.S.< o xXxXxXxXxXxXxXxXxXxXxXxX",
"xXxXxXxXxXxXxXxXxXxXxXxXxXxXxXxXxXxXxXxXxXT s B U.$.R v.c.L.W.W.Q.c.v.S ( ;XK.j U _ xXxXxXxXxXA q.S.-   xXxXxXxXxXxXxXxXxXxXxXxX",
"xXxXxXxXxXxXxXxXxXxXxXxXxXxXxXxXxXxXt U  . .( e % ..@X6 U.pXjXjXjX7XU I $X8 7 F { [ _ i xXxXxXe.y.S.:   xXxXxXxXxXxXxXxXxXxXxXxX",
"xXxXxXxXxXxXxXxXxXxXxXxXxXxXxXxXxX0 X.+X+X$X' , }.'.(.#X! i E E U x $.{.).XX_ , XXOX+XXXT q Z y.C.y.xXxXxXxXxXxXxXxXxXxXxXxXxXxX",
"xXxXxXxXxXxXxXxXxXxXxXxXxXxXxXxXU ' XX{.' X.Y U ).,X1X@XX.T Y _ ( ( '.%X1X$X..y ' ' X.@X/.! d C.Z.9.xXxXxXxXxXxXxXxXxXxXxXxXxXxX",
"xXxXxXxXxXxXxXxXxXxXxXxXxXxXxXt } $XOXo.% , R ^.).4XwX{.oX@X+X+XOXOX).,XwX%X(.' 8 , r }.@X{.D c.y.z xXxXxXxXxXxXxXxXxXxXxXxXxXxX",
"xXxXxXxXxXxXxXxXxXxXxXxXxXxXu X.+XoXy U )./.~.}.pXP.F @X+X#XXX{.{.XX$X`.U qX4X!./.(./.8 X.OXXX} , O xXxXxXxXxXxXxXxXxXxXxXxXxXxX",
"xXxXxXxXxXxXxXxXxXxXxXxXxXxXe `.@XoX0 ! iXdXeXeX;Xs X t `.$X+X+X+X@XQ 5 X #.<XeXdXiX1X& ..OX@X) &   xXxXxXxXxXxXxXxXxXxXxXxXxXxX",
"xXxXxXxXxXxXxXxXxXxXxXxXxXxXt ^.XXOXt @.6XhXhXfXe % : # } XX`.`.`.}.q # : X ].hXkXpXE.8 X.OXXX} 0 X xXxXxXxXxXxXxXxXxXxXxXxXxXxX",
"xXxXxXxXxXxXxXxXxXxXxXxX7 y ] ` X.@X/.L       .   i.pXjXO.          lXjX6X1         @ ' {.XX` [ Y 9 xXxXxXxXxXxXxXxXxXxXxXxXxXxX",
"xXxXxXxXxXxXxXxXxXxXxXxX7 y ] ` { ^._ t & H i 5 X *XjX=.>X<XI.J.I.<X%.*XhX* X w J p 5 U [ ^.` [ Y 9 xXxXxXxXxXxXxXxXxXxXxXxXxXxX",
"xXxXxXxXxXxXxXxXxXxXxXxX7 y ] ] ` ` J r r  .` y # >XzX  *XjXpXpXhXkX  a lX3 * T ~.T 9 r T { ] ] Y 9 xXxXxXxXxXxXxXxXxXxXxXxXxXxX",
"xXxXxXxXxXxXxXxXxXxXxXxX7 y ] ] ] [ H t r ` ( i 7.l.).o   * jXjX<X    L OXc.C D [ U w t _ [ ` { Y 7 xXxXxXxXxXxXxXxXxXxXxXxXxXxX",
"xXxXxXxXxXxXxXxXxXxXxXxX7 y [ [ _ H y 0 @ ] Y w R.*.I . i.0XaXaXpX5X# $ ] R.l.8 ~.J X r J T ] ^.) 7 xXxXxXxXxXxXxXxXxXxXxXxXxXxX",
"xXxXxXxXxXxXxXxXxXxXxXxX9 u _ { _ e u & . Q F w J.l.$.3 J.5XU.U.U.5XV C ].P.@.9 ) p   9 r J [ ` T 9 xXxXxXxXxXxXxXxXxXxXxXxXxXxX",
"xXxXxXxXxXxXxXxXxXxXxXxX9 r t ) ) D u 7 . 7 y G $ P.pXW.2       X . K.6XqXu 5 i r % O r e F !.H r w xXxXxXxXxXxXxXxXxXxXxXxXxXxX",
"xXxXxXxXxXxXxXxXxXxXxXxXxXxXe S v.A.1 X O X J  .% l.6XjXfXyXdXtXtXtXkXaXE.w K ..& . o X S A.x.c e xXxXxXxXxXxXxXxXxXxXxXxXxXxXxX",
"xXxXxXxXxXxXxXxXxXxXxXxXxXxX& 6.B.H.< X O   q Q G +.J.9XhXjXjXjXjXjXsX:XS U R L o . o   x.H.m.3 5 xXxXxXxXxXxXxXxXxXxXxXxXxXxXxX",
"xXxXxXxXxXxXxXxXxXxXxXxXxXxX  4.n.F.< X xXxXxX. [ K , N T.qX6X6X6XwXv.v 5 ~.L   xXxXxXX 7.F.b.<   xXxXxXxXxXxXxXxXxXxXxXxXxXxXxX",
"xXxXxXxXxXxXxXxXxXxXxXxXxXxXX m 8.M.-   xXxXxXxXX 8 U E U x x x U x E U U & o xXxXxXxXX 5.M.5.- X xXxXxXxXxXxXxXxXxXxXxXxXxXxXxX",
"xXxXxXxXxXxXxXxXxXxXxXxXxXxXX - m #.s 6 xXxXxXxXk 2 e 5 8 8 8 8 8 8 5 0 q     xXxXxXo p @.S j # xXxXxXxXxXxXxXxXxXxXxXxXxXxXxXxX",
"xXxXxXxXxXxXxXxXxXxXxXxXxXxXxX  5 _./.Q   xXxX. n.m   . q U G G G G @   . . . xXxXC o [ !.I   xXxXxXxXxXxXxXxXxXxXxXxXxXxXxXxXxX",
"xXxXxXxXxXxXxXxXxXxXxXxXxXxXxX  q /.Y q . xXxXO G.B   . e U U G H U $   X D.N O 0X#.X G  .`   xXxXxXxXxXxXxXxXxXxXxXxXxXxXxXxXxX",
"xXxXxXxXxXxXxXxXxXxXxXxXxXxXxXxX$ i 0 & . xXxXO G.b.6.B 2 5 & & & 5 l 6.6.H.6.X 0X@.  % e q xXxXxXxXxXxXxXxXxXxXxXxXxXxXxXxXxXxX",
"xXxXxXxXxXxXxXxXxXxXxXxXxXxXxXxXxX.       xXxX  N.G.G.M.j   @ @ o   7.D.H.G.N   9XO.X +     xXxXxXxXxXxXxXxXxXxXxXxXxXxXxXxXxXxX",
"xXxXxXxXxXxXxXxXxXxXxXxXxXxXxXxXxXxXxXxXxX Xx   x.n.b.5.+ X h.j.W   k 8.n.D.m   p.a . t.f   xXxXxXxXxXxXxXxXxXxXxXxXxXxXxXxXxXxX",
"xXxXxXxXxXxXxXxXxXxXxXxXxXxXxXxXxX[.[.j.j.h.^ W 2 < < - a / f.h.| W 4 ; < j c / q = ;.2.,.f   xXxXxXxXxXxXxXxXxXxXxXxXxXxXxXxXxX",
"xXxXxXxXxXxXxXxXxXxXxXxXxXxXxXxXxXf.g.g.f.k.j.h.  X $   ~ .Xd.d.f. X% X $   i f.. g 2.r.r.-.  xXxXxXxXxXxXxXxXxXxXxXxXxXxXxXxXxX",
"xXxXxXxXxXxXxXxXxXxXxXxXxXxXd.f.f.g.g.g.f.f.f.|   =.:X  x  Xf.k.d.h.  2 4X.   . >.1.t.V.r.h   ~ [.xXxXxXxXxXxXxXxXxXxXxXxXxXxXxX",
"xXxXxXxXxXxXxXxXxXxXxXxXf.f.k.g.f.f.f.f.f.f.f.s.^ a : ~ | f.f.f.d.f./ c : ~ x   . g 1.u.g + o.s.j.f.xXxXxXxXxXxXxXxXxXxXxXxXxXxX",
"xXxXxXxXxXxXxXxXxXxXxXxXf.f.f.f.f.g.f.f.g.f.s.f. Xx % j.h.s.f.f.f.k. X~ % |./   + h >.>.= * l./ / f.xXxXxXxXxXxXxXxXxXxXxXxXxXxX",
"xXxXxXxXxXxXxXxXxXxXxXxXf.f.f.k.f.f.f.f.f.f.f.f.s.h.j.f.f.f.k.f.f.d.s.h.[.-XC X >.2.<.  = -.1.+ % [.xXxXxXxXxXxXxXxXxXxXxXxXxXxX",
"xXxXxXxXxXxXxXxXxXxXxXxXxXxXf.f.f.g.f.g.f.f.f.f.f.f.f.k.f.k.f.f.k.f.s.d.g.p.1XyXX j a.  ;.2.g -.A xXxXxXxXxXxXxXxXxXxXxXxXxXxXxX",
"xXxXxXxXxXxXxXxXxXxXxXxXxXxXf.f.d.g.f.f.d.g.f.f.f.f.k.d.f.f.d.k.f.f.k.d.g.&.uXjXP O.&.  h 2.;.:.>.xXxXxXxXxXxXxXxXxXxXxXxXxXxXxX",
"xXxXxXxXxXxXxXxXxXxXxXxXxXxXxXxXxXf.f.f.g.f.f.f.f.f.f.f.g.f.g.f.f.f.f.d.k.*.2XjXuX<Xp.  f >.t.-.f xXxXxXxXxXxXxXxXxXxXxXxXxXxXxX",
"xXxXxXxXxXxXxXxXxXxXxXxXxXxXxXxXxXxXxXxXxXxXf.g.g.f.f.k.f.f.f.f.k.f.f.d.f.p.rXjXgX3X&.  h 2.u.f . xXxXxXxXxXxXxXxXxXxXxXxXxXxXxX",
"xXxXxXxXxXxXxXxXxXxXxXxXxXxXxXxXxXxXxXxXxXxXxXf.f.f.f.f.f.d.f.f.f.f.k.f.h.%.2XjXgX3X&.  = h ;.+   xXxXxXxXxXxXxXxXxXxXxXxXxXxXxX",
"xXxXxXxXxXxXxXxXxXxXxXxXxXxXxXxXxXxXxXxXxXxXxXxXxXxXxXxXxXxXxXxXxXxXxXxXxXz -XjXgX2Xp..           xXxXxXxXxXxXxXxXxXxXxXxXxXxXxX",
"xXxXxXxXxXxXxXxXxXxXxXxXxXxXxXxXxXxXxXxXxXxXxXxXxXxXxXxXxXxXxXxXxXxXxXxXxX. *.jXjXrX=X=Xd   xXxXxXxXxXxXxXxXxXxXxXxXxXxXxXxXxXxX",
"xXxXxXxXxXxXxXxXxXxXxXxXxXxXxXxXxXxXxXxXxXxXxXxXxXxXxXxXxXxXxXxXxXxXxXxXxXxX%.kXjXgX2X-Xd   xXxXxXxXxXxXxXxXxXxXxXxXxXxXxXxXxXxX",
"xXxXxXxXxXxXxXxXxXxXxXxXxXxXxXxXxXxXxXxXxXxXxXxXxXxXxXxXxXxXxXxXxXxXxXxXxXxXxX-XjXjXtX-Xd . xXxXxXxXxXxXxXxXxXxXxXxXxXxXxXxXxXxX",
"xXxXxXxXxXxXxXxXxXxXxXxXxXxXxXxXxXxXxXxXxXxXxXxXxXxXxXxXxXxXxXxXxXxXxXxXxXxXo o jXjXkXrXz X xXxXxXxXxXxXxXxXxXxXxXxXxXxXxXxXxXxX",
"xXxXxXxXxXxXxXxXxXxXxXxXxXxXxXxXxXxXxXxXxXxXxXxXxXxXxXxXxXxXxXxXxXxXxXxXxXxXxXxXO.yXjXfX+.  xXxXxXxXxXxXxXxXxXxXxXxXxXxXxXxXxXxX",
"xXxXxXxXxXxXxXxXxXxXxXxXxXxXxXxXxXxXxXxXxXxXxXxXxXxXxXxXxXxXxXxXxXxXxXxXxXxXxXxX  %.tXkXO.  xXxXxXxXxXxXxXxXxXxXxXxXxXxXxXxXxXxX",
"xXxXxXxXxXxXxXxXxXxXxXxXxXxXxXxXxXxXxXxXxXxXxXxXxXxXxXxXxXxXxXxXxXxXxXxXxXxXxXxXxX  * jX&.  xXxXxXxXxXxXxXxXxXxXxXxXxXxXxXxXxXxX",
"xXxXxXxXxXxXxXxXxXxXxXxXxXxXxXxXxXxXxXxXxXxXxXxXxXxXxXxXxXxXxXxXxXxXxXxXxXxXxXxXxXxXxX+.*   xXxXxXxXxXxXxXxXxXxXxXxXxXxXxXxXxXxX",
"xXxXxXxXxXxXxXxXxXxXxXxXxXxXxXxXxXxXxXxXxXxXxXxXxXxXxXxXxXxXxXxXxXxXxXxXxXxXxXxXxXxXxX      xXxXxXxXxXxXxXxXxXxXxXxXxXxXxXxXxXxX",
"xXxXxXxXxXxXxXxXxXxXxXxXxXxXxXxXxXxXxXxXxXxXxXxXxXxXxXxXxXxXxXxXxXxXxXxXxXxXxXxXxXxXxXxXxXxXxXxXxXxXxXxXxXxXxXxXxXxXxXxXxXxXxXxX",
"xXxXxXxXxXxXxXxXxXxXxXxXxXxXxXxXxXxXxXxXxXxXxXxXxXxXxXxXxXxXxXxXxXxXxXxXxXxXxXxXxXxXxXxXxXxXxXxXxXxXxXxXxXxXxXxXxXxXxXxXxXxXxXxX",
"xXxXxXxXxXxXxXxXxXxXxXxXxXxXxXxXxXxXxXxXxXxXxXxXxXxXxXxXxXxXxXxXxXxXxXxXxXxXxXxXxXxXxXxXxXxXxXxXxXxXxXxXxXxXxXxXxXxXxXxXxXxXxXxX",
"xXxXxXxXxXxXxXxXxXxXxXxXxXxXxXxXxXxXxXxXxXxXxXxXxXxXxXxXxXxXxXxXxXxXxXxXxXxXxXxXxXxXxXxXxXxXxXxXxXxXxXxXxXxXxXxXxXxXxXxXxXxXxXxX",
"xXxXxXxXxXxXxXxXxXxXxXxXxXxXxXxXxXxXxXxXxXxXxXxXxXxXxXxXxXxXxXxXxXxXxXxXxXxXxXxXxXxXxXxXxXxXxXxXxXxXxXxXxXxXxXxXxXxXxXxXxXxXxXxX",
"xXxXxXxXxXxXxXxXxXxXxXxXxXxXxXxXxXxXxXxXxXxXxXxXxXxXxXxXxXxXxXxXxXxXxXxXxXxXxXxXxXxXxXxXxXxXxXxXxXxXxXxXxXxXxXxXxXxXxXxXxXxXxXxX",
"xXxXxXxXxXxXxXxXxXxXxXxXxXxXxXxXxXxXxXxXxXxXxXxXxXxXxXxXxXxXxXxXxXxXxXxXxXxXxXxXxXxXxXxXxXxXxXxXxXxXxXxXxXxXxXxXxXxXxXxXxXxXxXxX"
};
