/* XPM */
static char *result[] = {
/* columns rows colors chars-per-pixel */
"64 64 247 2 ",
"   c #010001",
".  c #0B0101",
"X  c #010A0C",
"o  c #07070A",
"O  c #120203",
"+  c #160C03",
"@  c #1A1809",
"#  c #0A0F11",
"$  c #000214",
"%  c #00131B",
"&  c #091618",
"*  c #181819",
"=  c #250202",
"-  c #380304",
";  c #2B1C10",
":  c #02231F",
">  c #12241D",
",  c #342914",
"<  c #33290A",
"1  c #081D26",
"2  c #151E22",
"3  c #012322",
"4  c #012C2C",
"5  c #082928",
"6  c #162C2B",
"7  c #072C36",
"8  c #132B36",
"9  c #0C353A",
"0  c #053638",
"q  c #113539",
"w  c #0C362E",
"e  c #363233",
"r  c #2D312E",
"t  c #460E0B",
"y  c #56130C",
"u  c #5A1311",
"i  c #66170D",
"p  c #781911",
"a  c #620C00",
"s  c #573907",
"d  c #4E330D",
"f  c #633B00",
"g  c #663A00",
"h  c #6B3D19",
"j  c #77370C",
"k  c #463939",
"l  c #663132",
"z  c #2B473A",
"x  c #56440B",
"c  c #6C4400",
"v  c #774800",
"b  c #7A5401",
"n  c #7B5212",
"m  c #7A6112",
"M  c #57482B",
"N  c #57522E",
"B  c #564E34",
"V  c #4F5335",
"C  c #6B5C27",
"Z  c #755628",
"A  c #665434",
"S  c #674526",
"D  c #77713C",
"F  c #0E3D43",
"G  c #063846",
"H  c #123B45",
"J  c #173B48",
"K  c #0C374E",
"L  c #363944",
"P  c #15414D",
"I  c #1A4656",
"U  c #0B4247",
"Y  c #26474A",
"T  c #234759",
"R  c #2F544F",
"E  c #316F5C",
"W  c #1C4C63",
"Q  c #17537A",
"!  c #224E61",
"~  c #25546B",
"^  c #255569",
"/  c #2A5B74",
"(  c #285B76",
")  c #315B6B",
"_  c #377560",
"`  c #387662",
"'  c #2C617C",
"]  c #2C6173",
"[  c #366379",
"{  c #554948",
"}  c #425B59",
"|  c #53534B",
" . c #675858",
".. c #785C5C",
"X. c #4B7359",
"o. c #516B54",
"O. c #71734B",
"+. c #496A63",
"@. c #5C6865",
"#. c #5B7668",
"$. c #4D7770",
"%. c #7C6B6B",
"&. c #63796B",
"*. c #756C6D",
"=. c #881A15",
"-. c #91160E",
";. c #992717",
":. c #902E0D",
">. c #BB3419",
",. c #AD2B16",
"<. c #C5361E",
"1. c #835904",
"2. c #97561D",
"3. c #864A10",
"4. c #A9591A",
"5. c #986907",
"6. c #926B0D",
"7. c #AA6B06",
"8. c #B37508",
"9. c #A77816",
"0. c #AF6E13",
"q. c #8D5220",
"w. c #91792E",
"e. c #B66823",
"r. c #AF6E27",
"t. c #D8421E",
"y. c #FF5912",
"u. c #EE4B13",
"i. c #FF6211",
"p. c #EC4C26",
"a. c #C57426",
"s. c #D74421",
"d. c #877777",
"f. c #937E7E",
"g. c #956D6A",
"h. c #3C8C73",
"j. c #3B927A",
"k. c #3F866E",
"l. c #408870",
"z. c #469479",
"x. c #48997E",
"c. c #449378",
"v. c #40876F",
"b. c #BD8819",
"n. c #B98E12",
"m. c #9C8536",
"M. c #AB892F",
"N. c #C99818",
"B. c #CE980F",
"V. c #DAA719",
"C. c #E3AD14",
"Z. c #E9B617",
"A. c #E3A909",
"S. c #D58827",
"D. c #CC9326",
"F. c #E89429",
"G. c #E5B523",
"H. c #F2B724",
"J. c #D4A73A",
"K. c #FED219",
"L. c #FFFF1F",
"P. c #F6C823",
"I. c #F4CB32",
"U. c #F5CD2F",
"Y. c #FFFB29",
"T. c #FFED32",
"R. c #8E8651",
"E. c #AC9757",
"W. c #B29747",
"Q. c #B4AB66",
"!. c #ABA169",
"~. c #CBBA6E",
"^. c #D8B044",
"/. c #DCD541",
"(. c #EED24F",
"). c #E8D76D",
"_. c #E0D771",
"`. c #FBF07B",
"'. c #2C6684",
"]. c #366A87",
"[. c #397897",
"{. c #3F7487",
"}. c #387BAA",
"|. c #1B5D87",
" X c #42768B",
".X c #447C95",
"XX c #457C97",
"oX c #657D84",
"OX c #9B7F83",
"+X c #3A8E96",
"@X c #4B9E82",
"#X c #4C849C",
"$X c #49819A",
"%X c #50879F",
"&X c #50B092",
"*X c #4887A7",
"=X c #5189A2",
"-X c #548FA8",
";X c #5690A9",
":X c #5993AB",
">X c #4B92B7",
",X c #5897B5",
"<X c #4387B3",
"1X c #6B9BB3",
"2X c #5EA1BE",
"3X c #668689",
"4X c #4E99C2",
"5X c #62A4C4",
"6X c #948484",
"7X c #9C898A",
"8X c #8E998C",
"9X c #A39393",
"0X c #AC9B9B",
"qX c #AB9697",
"wX c #A08E8E",
"eX c #B1B38C",
"rX c #B5A5A5",
"tX c #B7ABAB",
"yX c #BBB7B7",
"uX c #A49FA0",
"iX c #C6B5B5",
"pX c #D2BFBF",
"aX c #C0ADAD",
"sX c #C1B480",
"dX c #D2D492",
"fX c #EAD994",
"gX c #EDEE8A",
"hX c #F4EC94",
"jX c #D2DAB5",
"kX c #FFFFAC",
"lX c #FFFFA4",
"zX c #FFFEB8",
"xX c #E1DB9E",
"cX c #D7C6C6",
"vX c #D6D1D1",
"bX c #CECACA",
"nX c #E9DBDB",
"mX c #EBDDD1",
"MX c #FFFFD8",
"NX c #FFFFC0",
"BX c #EAE1E1",
"VX c #F2E5E5",
"CX c #FFFFFF",
"ZX c #FBF6F4",
"AX c #F2FDF5",
"SX c #DDE8F6",
"DX c None",
/* pixels */
"DXDXDXDXDXDXDXDXDXDXDXDXDXDXDXDXDXDXDXDXDXDXDXDXDXDXDXDXDXDXDXDXDXDXDXDXDXDXDXDXDXDXDXDXDXDXDXDXDXDXDXDXDXDXDXDXDXDXDXDXDXDXDXDX",
"DXDXDXDXDXDXDXDXDXDXDXDXDXDXDXDXDXDXDXDXDXDXDXDXDXDXDXDXDXDXDXDXDXDXDXDXDXDXDXDXDXDXDXDXDXDXDXDXDXDXDXDXDXDXDXDXDXDXDXDXDXDXDXDX",
"DXDXDXDXDXDXDXDXDXDXDXDXDXDXDXDXDXDXDXDXDXDXDXDXDXDXDXDXDXDXDXDXDXDXDXDXDXDXDXDXDXDXDXDXDXDXDXDXDXDXDXDXDXDXDXDXDXDXDXDXDXDXDXDX",
"DXDXDXDXDXDXDXDXDXDXDXDXDXDXDXDXDXDXDXDXDXDXDXDXDXDXDXDXDXDXDXDXDXDXDXDXDXDXDXDXDXDXDXDXDXDXDXDXDXDXDXDXDXDXDXDXDXDXDXDXDXDXDXDX",
"DXDXDXDXDXDXDXDXDXDXDXDXDXDXDXDXDXDXDXDXDXDXDXDXDXDXDXDXDXDXDXDXDXDXDXDXDXDXDXDXDXDXDXDXDXDXDXDXDXDXDXDXDXDXDXDXDXDXDXDXDXDXDXDX",
"DXDXDXDXDXDXDXDXDXDXDXDXDXDXDXDXDXDXDXDXDXDXDXDXDXDXDXDXDXDXDXDXDXDXDXDXDXDXDXDXDXDXDXDXDXDXDXDXDXDXDXDXDXDXDXDXDXDXDXDXDXDXDXDX",
"DXDXDXDXDXDXDXDXDXDXDXDXDXDXDXDXDXDXDXDXDXDXDXDXDXDXDXDXDXDXDXDXDXDXDXDXDXDXDXDXDXDXDXDXDXDXDXDXDXDXDXDXDXDXDXDXDXDXDXDXDXDXDXDX",
"DXDXDXDXDXDXDXDXDXDXDXDXDXDXDXDXDXDXDXDXDXDXDXDXDXDXDXDXDXDXDXDXDXDXDXDXDXDXDXDXDXDXDXDXDXDXDXDXDXDXDXDXDXDXDXDXDXDXDXDXDXDXDXDX",
"DXDXDXDXDXDXDXDXDXDXDXDXDXDXDXDXDXDXDXDXDXDXDXDXDXDXDXDXDXDXDXDXDXDXDXDXDXDXDXDXDXDXDXDXDXDXDXDXDXDXDXDXDXDXDXDXDXDXDXDXDXDXDXDX",
"DXDXDXDXDXDXDXDXDXDXDXDXDXDXDXDXDXDXDXDXDXDXDXDXDXDXDXDXDXDXb g g f DXDXDXDXDXDXDXDXDXDXDXDXDXDXDXDXDXDXDXDXDXDXDXDXDXDXDXDXDXDX",
"DXDXDXDXDXDXDXDXDXDXDXDXDXDXDXDXDXDXDXDXDXDXDXDXDXDXDXDXDXDXc W.~.~.D.5.c DXDXDXDXDXDXDXDXDXDXDXDXDXDXDXDXDXDXDXDXDXDXDXDXDXDXDX",
"DXDXDXDXDXDXDXDXDXDXDXDXDXDXDXDXDXDXDXDXDXDXDXDXDXDXDXDXDXDXs _.lXlX^.9.1.DXDXDXDXDXDXDXDXDXDXDXDXDXDXDXDXDXDXDXDXDXDXDXDXDXDXDX",
"DXDXDXDXDXDXDXDXDXDXDXDXDXDXDXDXDXDXDXDXDXDXDXDXDXDXDXDXDXDX  n.K.A.`.kXkXJ.5.g DXDXDXDXDXDXDXDXDXDXDXDXDXDXDXDXDXDXDXDXDXDXDXDX",
"DXDXDXDXDXDXDXDXDXDXDXDXDXDXDXDXDXDXDXDXDXDXDXDXDXDXDXv b c < N.P.Z.(.(.(.D.8.B.@ $ . DXDXDXDXDXDXDXDXDXDXDXDXDXDXDXDXDXDXDXDXDX",
"DXDXDXDXDXDXDXDXDXDXDXDXDXDXDXDXDXDXDXDXDXDXDXDXDXDXDXb b 1.5.N.G.Z.C.A.C.B.N.U.d X & DXDXDXDXDXDXDXDXDXDXDXDXDXDXDXDXDXDXDXDXDX",
"DXDXDXDXDXDXDXDXDXDXDXDXDXDXDXDXDXDXDXDXDXDXc f f 5.D.9.V.P.P.5.1.8.7.0.7.B.(.zX7.s Q 0 4 DXDXDXDXDXDXDXDXDXDXDXDXDXDXDXDXDXDXDX",
"DXDXDXDXDXDXDXDXDXDXDXDXDXDXDXDXDXDXDXDXDXf 9.N.n.B.V.B.C.Z.P.s d `.).).).`.).r.O.$.[.I 4 3 DXDXDXDXDXDXDXDXDXDXDXDXDXDXDXDXDXDX",
"DXDXDXDXDXDXDXDXDXDXDXDXDXDXDXDXDXDXDXDXDX1.V.K.P.P.P.I.I.I.U.@ 6 hXgXgXgXhXQ.d #X4X:XJ 8 Y DXDXDXDXDXDXDXDXDXDXDXDXDXDXDXDXDXDX",
"DXDXDXDXDXDXDXDXDXDXDXDXDXDXDXDXDXDXDXc 1.Y.U.G.Z.A.I.kXkXlXkX+.5 3.j v v j Z 4X:X,X2Xo A MXDXDX6.x x DXDXDXDXDXDXDXDXDXDXDXDXDX",
"DXDXDXDXDXDXDXDXDXDXDXDXDXDXDXDXDXDXDXv 5.L.P.G.`.`._.N V V X.R T &.#.#.&.&.$.].[ J 5   * #.% ) vXw.m DXDXDXDXDXDXDXDXDXDXDXDXDX",
"DXDXDXDXDXDXDXDXDXDXDXDXDXDXDXDXDXDXDXs m T.U./.dXdX!.      1 W .X,X>X>X>X>X+XI 9 & ; e J G $ oXCXE.w.DXDXDXDXDXDXDXDXDXDXDXDXDX",
"DXDXDXDXDXDXDXDXDXDXDXDXDXDXDXDXDXDXDX  < kXzXfX      U F 9 3 '.*X=X=X=X%X*X'.9   B zXCXAX[.7 oXCXE.w.DXDXDXDXDXDXDXDXDXDXDXDXDX",
"DXDXDXDXDXDXDXDXDXDXDXDXDXDXDXDXDXDX4 K Y M N V 1 H T ! ~ J X eXjX[.XX[.[.bXeX4   { ZX .} ,XG &.MXM < DXDXDXDXDXDXDXDXDXDXDXDXDX",
"DXDXDXDXDXDXDXDXDXDXDXDXDXDXDXDXDXDX4 ~ (       I ~ './ '.!   Q.jX1X1X1X1XxX!.% * @.SX> 1 XXH O.fX# DXDXDXDXDXDXDXDXDXDXDXDXDXDX",
"DXDXDXDXDXDXDXDXDXDXDXDXDXDXDXDXDXDX9 T / ].F 4 / ^ ^ ~ ( T   . L CXCXCXCXe     ].4X}.5X X4 w.M.M.DXDXDXDXDXDXDXDXDXDXDXDXDXDXDX",
"DXDXDXDXDXDXDXDXDXDXDXDXDXDXDXDXDX# ! / ~ 0 K ^ $X X.XXX' ! K A Z { | { { 7 r C D O.w.I G G @ @ , DXDXDXDXDXDXDXDXDXDXDXDXDXDXDX",
"DXDXDXDXDXDXDXDXDXDXDXDXDXDXDXDX. & ' / I 4 ^ .X;X-X-X;X].( [ v.C         7 R M.M.W.W.+.T z r *   DXDXDXDXDXDXDXDXDXDXDXDXDXDXDX",
"DXDXDXDXDXDXDXDXDXDXDXDXDXDXDXDX  & ].0 4 ~ .X:X%X%X=X%X:XoX) ( W 0 F H 0 Q +.b.hXZXCXCXmXv zXeX  DXDXDXDXDXDXDXDXDXDXDXDXDXDXDX",
"DXDXDXDXDXDXDXDXDXDXDXDXDXDXDXDX. & I 7 0 $X#X=X%X%X%X%X;X XH ^ / ^ H J ~ ~ ) } w.~.MXMXNXfXhXR.  DXDXDXDXDXDXDXDXDXDXDXDXDXDXDX",
"DXDXDXDXDXDXDXDXDXDXDXDXDXDXDXDX  # 9 4 U :X=X%X%X=X%X%X:X{.4 ! / ' H J ~ / ~ |.V R.fX~.sXdX!.N   DXDXDXDXDXDXDXDXDXDXDXDXDXDXDX",
"DXDXDXDXDXDXDXDXDXDXDXDXDXDXDXDX. # H 4 F -X%X%X%X%X%X%X,X{.3 ! / / J q 9 ~ '.( |.+.M.+         DXDXDXDXDXDXDXDXDXDXDXDXDXDXDXDX",
"DXDXDXDXDXDXDXDXDXDXDXDXDXDXDXDXDXDX0 4 U -X%X%X%X-X-X;X$X^   I ' ' P 0 4 G 9 2 2 > ; + o DXDXDXDXDXDXDXDXDXDXDXDX| .   DXDXDXDX",
"DXDXDXDXDXDXDXDXDXDXDXDXDXDXDXDXDXDX0 % q =X=X=X=XXX.XXX~ 8 X T ( ^ J 0 4 4 %   .     o DXDXDXDXDXDXDXDXDXDXDXDXd.6X#   DXDXDXDX",
"DXDXDXDXDXDXDXDXDXDXDXDXDXDXDXDXDXDX0 X * -X=X=X:X[ W '.#   F / ^ 0 H H P # . DXDXDXDXDXDXDXDXDXDXDXDXDXDXDX .k tXCX*   DXDXDXDX",
"DXDXDXDXDXDXDXDXDXDXDXDXDXDXDXDXDXDX&   2 :X-XXX/ ' T 2 6 9 9 J J H 0 4 # DXDXDXDXDXDXDXDXDXDXDXDXDXDX .f.wX0XvXVXVX*   DXDXDXDX",
"DXDXDXDXDXDXDXDXDXDXDXDXDXDXDXDXDXDXO   2 XX=XXX/ '.T   7 P H 0 9 6 0 3 . DXDXDXDXDXDXDXDXDXDXDXDXDX%.%.7XtXcXCXZXyX    DXDXDXDX",
"DXDXDXDXDXDXDXDXDXDXDXDXDXDXDXDXDXDXDX. & ~ {.-X:X].J . 7 J H G 3 . DXDXDXDXDXDXDXDXDXDXDXDXDXDX  { d.wXrXcXVXCXvX6XDXDXDXDXDXDX",
"DXDXDXDXDXDXDXDXDXDXDXDXDXDXDXDXDXDXDX  2 [ }.<X=X-X[   o   $ X X   DXDXDXDXDXDXDXDXDX      { d.%.d.7XrXcXnXZXCX9X* DXDXDXDXDXDX",
"DXDXDXDXDXDXDXDXDXDXDXDXDXDXDXDXDXDXDXDX# J v.8X=X,X X  < x x @     DXDXDXDXDXDXDXDXDXe r r  .6X0X9XrXcXnXZXCXvX|   DXDXDXDXDXDX",
"DXDXDXDXDXDXDXDXDXDXDXDXDXDXDXDXDXDXDXDXDX. B.U.}.>X].  n.T.Y.<   DXi p i DXDX    * %.wXqXqX7X6X6XrXcXBXCXCXCXd.{ DXDXDXDXDXDXDX",
"DXDXDXDXDXDXDXDXDXDXDXDXDXDXDXDXDXDXDXDXDX  6.H././.m.  9.N.p y y p =.:.-.g. .B  .%.OXOX6X6X0XrXrXpXBXZXCXyXe DXDXDXDXDXDXDXDXDX",
"DXDXDXDXDXDXDXDXDXDXDXDXDXDXDXDXDXDXDXDXDX  d 9.L.K.n.  n 4.=.=.=.=.>.>.,.g.%.d.0XrX9X9X9X9XpXcXpXBXZXCXyX .  DXDXDXDXDXDXDXDXDX",
"DXDXDXDXDXDXDXDXDXDXDXDXDXDXDXDXDXDXDXDXDXDX$ @ Y.T.n.  - -.p.p p p.y.u.-.f.uXwXiXpXyXyXtXaXnXnXnXCXCXCX    DXDXDXDXDXDXDXDXDXDX",
"DXDXDXDXDXDXDXDXDXDXDXDXDXDXDXDXDXDXj.j.@X&X4 + H.8.m *Xl -.p.t.>.p t.t.=.; * O 2  .VXcXnXZXCXCXCXtX7Xd.DXDXDXDXDXDXDXDXDXDXDXDX",
"DXDXDXDXDXDXDXDXDXDXDXDXDXDXDXDXDXDXX.X.X.#.r ; 3.M V >Xe a >.<.;.- ;.;.t o   w   k CXVXZXCXBXvXbX9X%. .DXDXDXDXDXDXDXDXDXDXDXDX",
"DXDXDXDXDXDXDXDXDXDXDXDXDXl.h.h.j.X.h S S h Z M o K '.' %   p p t X y y     6 &X  { CXCXCXCXqX..{ DXDXDXDXDXDXDXDXDXDXDXDXDXDXDX",
"DXDXDXDXDXDXDXDXDXDXDX@X+Xo.M B B A 2.e.e.e.a.2.  T '.I #   O O .   . = ;.O > @X  * OX7X .; DXDXDXDXDXDXDXDXDXDXDXDXDXDXDXDXDXDX",
"DXDXDXDXDXDXDXDXDXDX| X.X.C :.q.Z q.e.q.j h j s   8 J 5 X           . y p.O : @Xw r @.@.z & DXDXDXDXDXDXDXDXDXDXDXDXDXDXDXDXDXDX",
"DXDXDXDXDXDX  , Z S h h h q.e.e.e.e.a.;               .             t ,.i.- 3 z.x.x.h.h.j.@Xl.k.DXDXDXDXDXDXDXDXDXDXDXDXDXDXDXDX",
"DXDXDXDX  + r.S.D.F.a.e.r.a.4.O . . O z k._ _ _ _ _ _ _ _ _ _ z.E   y >.y.= 3 x.k.k.k.l.v.l.l.l.DXDXDXDXDXDXDXDXDXDXDXDXDXDXDXDX",
"DXDXDXDX  + F.F.S.F.2.h h h h 5 w 6 5 E @Xc.c.c.c.c.c.c.c.c.x._ e - ;.u.y.= 3 z.h.v.l.l.v.v.l.DXDXDXDXDXDXDXDXDXDXDXDXDXDXDXDXDX",
"DXDXDXDX  @ F.a.2.e.; .     X @X@Xx.x.c.k.v.v.v.v.l.v.v.k.h.x.X + <.u.y.y.- : x.v.v.l.l.l.v.DXDXDXDXDXDXDXDXDXDXDXDXDXDXDXDXDXDX",
"DXDXDXDXDXDX@ + + + . DXDXR k.k.l.l.l.l.l.l.l.l.v.l.l.l.l.l.x.% t i.i.y.<.= : x.l.l.l.DXDXDXDXDXDXDXDXDXDXDXDXDXDXDXDXDXDXDXDXDX",
"DXDXDXDXDXDX        DXDXDXDXc.k.l.l.l.l.l.l.l.l.l.l.l.l.v.l.x.& = :.:.=.u . > x.l.l.l.DXDXDXDXDXDXDXDXDXDXDXDXDXDXDXDXDXDXDXDXDX",
"DXDXDXDXDXDXDXDXDXDXDXDXDXDXDXDXDXDXDXl.l.v.l.l.l.l.l.l.l.l.z.>           DXDXDXDXDXDXDXDXDXDXDXDXDXDXDXDXDXDXDXDXDXDXDXDXDXDXDX",
"DXDXDXDXDXDXDXDXDXDXDXDXDXDXDXDXDXDXDXDXDXDXDXDXDXDXDXDXDXDXDXDXDXDXDXDXDXDXDXDXDXDXDXDXDXDXDXDXDXDXDXDXDXDXDXDXDXDXDXDXDXDXDXDX",
"DXDXDXDXDXDXDXDXDXDXDXDXDXDXDXDXDXDXDXDXDXDXDXDXDXDXDXDXDXDXDXDXDXDXDXDXDXDXDXDXDXDXDXDXDXDXDXDXDXDXDXDXDXDXDXDXDXDXDXDXDXDXDXDX",
"DXDXDXDXDXDXDXDXDXDXDXDXDXDXDXDXDXDXDXDXDXDXDXDXDXDXDXDXDXDXDXDXDXDXDXDXDXDXDXDXDXDXDXDXDXDXDXDXDXDXDXDXDXDXDXDXDXDXDXDXDXDXDXDX",
"DXDXDXDXDXDXDXDXDXDXDXDXDXDXDXDXDXDXDXDXDXDXDXDXDXDXDXDXDXDXDXDXDXDXDXDXDXDXDXDXDXDXDXDXDXDXDXDXDXDXDXDXDXDXDXDXDXDXDXDXDXDXDXDX",
"DXDXDXDXDXDXDXDXDXDXDXDXDXDXDXDXDXDXDXDXDXDXDXDXDXDXDXDXDXDXDXDXDXDXDXDXDXDXDXDXDXDXDXDXDXDXDXDXDXDXDXDXDXDXDXDXDXDXDXDXDXDXDXDX",
"DXDXDXDXDXDXDXDXDXDXDXDXDXDXDXDXDXDXDXDXDXDXDXDXDXDXDXDXDXDXDXDXDXDXDXDXDXDXDXDXDXDXDXDXDXDXDXDXDXDXDXDXDXDXDXDXDXDXDXDXDXDXDXDX",
"DXDXDXDXDXDXDXDXDXDXDXDXDXDXDXDXDXDXDXDXDXDXDXDXDXDXDXDXDXDXDXDXDXDXDXDXDXDXDXDXDXDXDXDXDXDXDXDXDXDXDXDXDXDXDXDXDXDXDXDXDXDXDXDX",
"DXDXDXDXDXDXDXDXDXDXDXDXDXDXDXDXDXDXDXDXDXDXDXDXDXDXDXDXDXDXDXDXDXDXDXDXDXDXDXDXDXDXDXDXDXDXDXDXDXDXDXDXDXDXDXDXDXDXDXDXDXDXDXDX",
"DXDXDXDXDXDXDXDXDXDXDXDXDXDXDXDXDXDXDXDXDXDXDXDXDXDXDXDXDXDXDXDXDXDXDXDXDXDXDXDXDXDXDXDXDXDXDXDXDXDXDXDXDXDXDXDXDXDXDXDXDXDXDXDX"
};
