/* XPM */
static char *result[] = {
/* columns rows colors chars-per-pixel */
"64 64 245 2 ",
"   c #010000",
".  c #0A0302",
"X  c #000309",
"o  c #060A0B",
"O  c #130201",
"+  c #170C05",
"@  c #040D10",
"#  c #081618",
"$  c #171616",
"%  c #191309",
"&  c #230604",
"*  c #280604",
"=  c #360805",
"-  c #221918",
";  c #2A1605",
":  c #06221D",
">  c #18251E",
",  c #383112",
"<  c #061D25",
"1  c #081F31",
"2  c #002323",
"3  c #022B2C",
"4  c #082828",
"5  c #052A35",
"6  c #152B35",
"7  c #0D353B",
"8  c #063538",
"9  c #13383C",
"0  c #0F3029",
"q  c #2C2323",
"w  c #343031",
"e  c #460D09",
"r  c #541314",
"t  c #761B12",
"y  c #71160F",
"u  c #5B3311",
"i  c #553403",
"p  c #653800",
"a  c #6B3910",
"s  c #553B32",
"d  c #324433",
"f  c #584609",
"g  c #684405",
"h  c #794903",
"j  c #784617",
"k  c #71540D",
"l  c #5D4429",
"z  c #56422A",
"x  c #5C5A38",
"c  c #4E4F35",
"v  c #634628",
"b  c #6B4B2B",
"n  c #794D25",
"m  c #7E5125",
"M  c #68583F",
"N  c #666236",
"B  c #796929",
"V  c #7D621F",
"C  c #0A3A44",
"Z  c #113A42",
"A  c #143E4A",
"S  c #193949",
"D  c #143C56",
"F  c #083856",
"G  c #073B64",
"H  c #13424C",
"J  c #17424C",
"K  c #1A4657",
"L  c #234A5B",
"P  c #33534B",
"I  c #36735F",
"U  c #2E6B57",
"Y  c #1E5064",
"T  c #214E64",
"R  c #25556C",
"E  c #28566A",
"W  c #265973",
"Q  c #2A5A73",
"!  c #295B76",
"~  c #375D6F",
"^  c #377560",
"/  c #397C66",
"(  c #2B6178",
")  c #32647D",
"_  c #376576",
"`  c #484444",
"'  c #515551",
"]  c #675858",
"[  c #745A5A",
"{  c #664850",
"}  c #6C7659",
"|  c #50736E",
" . c #696765",
".. c #766767",
"X. c #707271",
"o. c #605E6D",
"O. c #841B14",
"+. c #8F160B",
"@. c #992518",
"#. c #863017",
"$. c #B12E18",
"%. c #C83B1A",
"&. c #DA3F1A",
"*. c #CE3A20",
"=. c #835B05",
"-. c #8F5414",
";. c #996B0B",
":. c #886916",
">. c #906A13",
",. c #AB7014",
"<. c #845426",
"1. c #925620",
"2. c #A05E23",
"3. c #916B2D",
"4. c #B66923",
"5. c #AA6121",
"6. c #AB5D1E",
"7. c #DE4413",
"8. c #FB5611",
"9. c #F75312",
"0. c #D74422",
"q. c #EB4C25",
"w. c #C97525",
"e. c #CB7427",
"r. c #FF6010",
"t. c #877678",
"y. c #907C7C",
"u. c #A57B78",
"i. c #3E856D",
"p. c #3C8B71",
"a. c #3D987A",
"s. c #408870",
"d. c #488671",
"f. c #459379",
"g. c #49997E",
"h. c #46947A",
"j. c #508474",
"k. c #70846E",
"l. c #BB8518",
"z. c #B88D10",
"x. c #AA8826",
"c. c #B98A2A",
"v. c #AB8A31",
"b. c #928113",
"n. c #C58B14",
"m. c #CB991B",
"M. c #C79009",
"N. c #DCA814",
"B. c #EBB819",
"V. c #EDB50F",
"C. c #C9962B",
"Z. c #E8982B",
"A. c #EA902B",
"S. c #FDA32B",
"D. c #EBBD24",
"F. c #CAB03F",
"G. c #FFD816",
"H. c #F8C917",
"J. c #F5CA2E",
"K. c #9D8A4D",
"L. c #B0984F",
"P. c #BEAE51",
"I. c #898C76",
"U. c #B3AD76",
"Y. c #A79D74",
"T. c #C5BB63",
"R. c #EDD24D",
"E. c #FFE157",
"W. c #D7CD71",
"Q. c #FEF97C",
"!. c #E1CB5D",
"~. c #0E5082",
"^. c #366A86",
"/. c #37718D",
"(. c #377898",
"). c #286C96",
"_. c #276897",
"`. c #44758A",
"'. c #447A93",
"]. c #457C96",
"[. c #507E98",
"{. c #3D83A3",
"}. c #4C849C",
"|. c #4D8297",
" X c #578897",
".X c #55808C",
"XX c #718D8F",
"oX c #4DA487",
"OX c #56B797",
"+X c #4B88A5",
"@X c #528AA2",
"#X c #548FAA",
"$X c #5692AB",
"%X c #5A94AD",
"&X c #5D99B4",
"*X c #4E90B3",
"=X c #59A0BB",
"-X c #3D95C9",
";X c #72ABC7",
":X c #948484",
">X c #9B8989",
",X c #91948B",
"<X c #A59595",
"1X c #AB9B9B",
"2X c #A59A97",
"3X c #A69092",
"4X c #A6AB8D",
"5X c #B5A5A5",
"6X c #B3B0AC",
"7X c #8FA6B1",
"8X c #C4B4B4",
"9X c #C9BABA",
"0X c #D0BFBF",
"qX c #C5BE84",
"wX c #BEC395",
"eX c #E8D58B",
"rX c #D5E195",
"tX c #F4F193",
"yX c #EBDCB0",
"uX c #FFFFA7",
"iX c #FFFFB4",
"pX c #FFFFBA",
"aX c #F7FABF",
"sX c #EFE6AD",
"dX c #D5D2BA",
"fX c #AFC9D8",
"gX c #CAC5C7",
"hX c #D7C9C9",
"jX c #D8D4D5",
"kX c #C2CCD3",
"lX c #E2CFCF",
"zX c #E4D7D6",
"xX c #E0DACD",
"cX c #FFFFC5",
"vX c #F6F0CE",
"bX c #DEF1F9",
"nX c #DEE8ED",
"mX c #EAE3E3",
"MX c #F6EBEB",
"NX c #F8EEEE",
"BX c #FFFFFF",
"VX c #F8F5F0",
"CX c #FFFFE2",
"ZX c #D6E7CA",
"AX c None",
/* pixels */
"AXAXAXAXAXAXAXAXAXAXAXAXAXAXAXAXAXAXAXAXAXAXAXAXAXAXAXAXAXAXAXAXAXAXAXAXAXAXAXAXAXAXAXAXAXAXAXAXAXAXAXAXAXAXAXAXAXAXAXAXAXAXAXAX",
"AXAXAXAXAXAXAXAXAXAXAXAXAXAXAXAXAXAXAXAXAXAXAXAXAXAXAXAXAXAXAXAXAXAXAXAXAXAXAXAXAXAXAXAXAXAXAXAXAXAXAXAXAXAXAXAXAXAXAXAXAXAXAXAX",
"AXAXAXAXAXAXAXAXAXAXAXAXAXAXAXAXAXAXAXAXAXAXAXAXAXAXAXAXAXAXAXAXAXAXAXAXAXAXAXAXAXAXAXAXAXAXAXAXAXAXAXAXAXAXAXAXAXAXAXAXAXAXAXAX",
"AXAXAXAXAXAXAXAXAXAXAXAXAXAXAXAXAXAXAXAXAXAXAXAXAXAXAXAXAXAXAXAXAXAXAXAXAXAXAXAXAXAXAXAXAXAXAXAXAXAXAXAXAXAXAXAXAXAXAXAXAXAXAXAX",
"AXAXAXAXAXAXAXAXAXAXAXAXAXAXAXAXAXAXAXAXAXAXAXAXAXAXAXAXAXAXAXAXAXAXAXAXAXAXAXAXAXAXAXAXAXAXAXAXAXAXAXAXAXAXAXAXAXAXAXAXAXAXAXAX",
"AXAXAXAXAXAXAXAXAXAXAXAXAXAXAXAXAXAXAXAXAXAXAXAXAXAXAXAXAXAXAXAXAXAXAXAXAXAXAXAXAXAXAXAXAXAXAXAXAXAXAXAXAXAXAXAXAXAXAXAXAXAXAXAX",
"AXAXAXAXAXAXAXAXAXAXAXAXAXAXAXAXAXAXAXAXAXAXAXAXAXAXAXAXAXAXAXAXAXAXAXAXAXAXAXAXAXAXAXAXAXAXAXAXAXAXAXAXAXAXAXAXAXAXAXAXAXAXAXAX",
"AXAXAXAXAXAXAXAXAXAXAXAXAXAXAXAXAXAXAXAXAXAXAXAXAXAXAXAXAXAXAXAXAXAXAXAXAXAXAXAXAXAXAXAXAXAXAXAXAXAXAXAXAXAXAXAXAXAXAXAXAXAXAXAX",
"AXAXAXAXAXAXAXAXAXAXAXAXAXAXAXAXAXAXAXAXAXAXAXAXAXAXAXAXAXAXAXAXAXAXAXAXAXAXAXAXAXAXAXAXAXAXAXAXAXAXAXAXAXAXAXAXAXAXAXAXAXAXAXAX",
"AXAXAXAXAXAXAXAXAXAXAXAXAXAXAXAXAXAXAXAXAXAXAXAXAXAXAXAXAXAXAXAXAXAXAXAXAXAXAXAXAXAXAXAXAXAXAXAXAXAXAXAXAXAXAXAXAXAXAXAXAXAXAXAX",
"AXAXAXAXAXAXAXAXAXAXAXAXAXAXAXAXAXAXAXAXAXAXAXAXAXAXAXAXAXAXAXAXAXAXAXAXAXAXAXh p p p AXAXAXAXAXAXAXAXAXAXAXAXAXAXAXAXAXAXAXAXAX",
"AXAXAXAXAXAXAXAXAXAXAXAXAXAXAXAXAXAXAXAXAXAXAXAXAXAXAXAXAXAXAXAXAXAXAXAXAXAXAXh :.:.:.AXAXAXAXAXAXAXAXAXAXAXAXAXAXAXAXAXAXAXAXAX",
"AXAXAXAXAXAXAXAXAXAXAXAXAXAXAXAXAXAXAXAXAXAXAXAXAXAXAXAXAXAXAXAXAXAXAXAXAXAXAXh W.iXuXC.=.p AXAXAXAXAXAXAXAXAXAXAXAXAXAXAXAXAXAX",
"AXAXAXAXAXAXAXAXAXAXAXAXAXAXAXAXAXAXAXAXAXAXAXAXAXAXAXAXAXAXAXAX=.l.l.,.g AXAX; F.E.R.!.W.T.m.;.h AXAXAXAXAXAXAXAXAXAXAXAXAXAXAX",
"AXAXAXAXAXAXAXAXAXAXAXAXAXAXAXAXAXAXAXAXAXAXAXAXAXAXAXAXAXAXAXk ;.n.C.,.=.AXAX  z.H.V.Q.tXuXC.,.=.AXAXAXAXAXAXAXAXAXAXAXAXAXAXAX",
"AXAXAXAXAXAXAXAXAXAXAXAXAXAXAXAXAXAXAXAXAXAXAXAXAXAXAXAXAXAXp m.H.N.V.N.H.C.;.p B.J.B.B.D.B.,.n.V.%   . AXAXAXAXAXAXAXAXAXAXAXAX",
"AXAXAXAXAXAXAXAXAXAXAXAXAXAXAXAXAXAXAXAXAXAXAXAXAXAXAXAXAX=.M.N.J.Q.Q.E.V.N.m.m.z.,.n.n.n.n.M.J.tXk , A 8 AXAXAXAXAXAXAXAXAXAXAX",
"AXAXAXAXAXAXAXAXAXAXAXAXAXAXAXAXAXAXAXAXAXAXAXAXAXAXAXAXg ;.J.J.R.rXrXW.D.J.J.J.g g C.c.c.c.D.R.tX;.x _.7 3 AXAXAXAXAXAXAXAXAXAX",
"AXAXAXAXAXAXAXAXAXAXAXAXAXAXAXAXAXAXAXAXAXAXAXAXAXAXAXAXh x.iXpXW.    z aXiXQ.G.O d pXuXuXuXiX!.p .X*X@XK 3 # AXAXAXAXAXAXAXAXAX",
"AXAXAXAXAXAXAXAXAXAXAXAXAXAXAXAXAXAXAXAXAXAXAXAXAXAXAXAX; , x x c 5 0 0 c x l f # d v.x.,.x.j.X.X.}.$X$X< ` wXAXAX:.f f AXAXAXAX",
"AXAXAXAXAXAXAXAXAXAXAXAXAXAXAXAXAXAXAXAXAXAXAXAXAXAXAXAXX       X Z H 5       X C P g f f f ~ ).{.+X|.`.  M aXAXc L.k f AXAXAXAX",
"AXAXAXAXAXAXAXAXAXAXAXAXAXAXAXAXAXAXAXAXAXAXAXAXAXAXAXAXAXAXAX.     4 Z 7 7 7 3 G ! +X(.(.(.cXqX@ &X~       8 X XXBXK.V AXAXAXAX",
"AXAXAXAXAXAXAXAXAXAXAXAXAXAXAXAXAXAXAXAXAXAXAXAXAXAXAXAXAXAX. # 6 S K T K T H 3 4XZXbXbXbXbX} P K 6 ' U.gX7XW < XXBXL.:.AXAXAXAX",
"AXAXAXAXAXAXAXAXAXAXAXAXAXAXAXAXAXAXAXAXAXAXAXAXAXAXAXAXAXAXo 7 Y /.) ^.) /.R # U.sXzXzXzXzXC C /.  ] CXVXfX{.5 XXVXB k AXAXAXAX",
"AXAXAXAXAXAXAXAXAXAXAXAXAXAXAXAXAXAXAXAXAXAXAXAXAXAXAXAX3 3 5 K ^.$X#X@X@X=X_               J /.%X   .BX  < ;X1 k.cX$   AXAXAXAX",
"AXAXAXAXAXAXAXAXAXAXAXAXAXAXAXAXAXAXAXAXAXAXAXAXAXAXAX: C R /.`.|.#X}.+X X$X].| L Z 4 4 4 4 ^.#X*X) [.;X`.R Y N K.P.AXAXAXAXAXAX",
"AXAXAXAXAXAXAXAXAXAXAXAXAXAXAXAXAXAXAXAXAXAXAXAXAXAXAXH E '.%X$X+X'.}.@X@X].].$X/.R H H S J ].}..XXX X| $X( 2 B :.n AXAXAXAXAXAX",
"AXAXAXAXAXAXAXAXAXAXAXAXAXAXAXAXAXAXAXAXAXAXAXAXAX2 H %X#X#X X$X'.K |.$X#X) T W ! ! ! Q ! ! ~.' ;.:.>.:.# 5 C     X AXAXAXAXAXAX",
"AXAXAXAXAXAXAXAXAXAXAXAXAXAXAXAXAXAXAXAXAXAXAXAXAX3 J #X X+X@X}.}.'.^.^.) ! Q Q J K ! Q W R N Y.sXeXyXxXkX,Xf wX]   AXAXAXAXAXAX",
"AXAXAXAXAXAXAXAXAXAXAXAXAXAXAXAXAXAXAXAXAXAXAXAXAX7 E #X X}.@X}.@X%XE K R R E Q 9 Z E Q W R N L.sXeXaXBXBXyXv.pXY.$ AXAXAXAXAXAX",
"AXAXAXAXAXAXAXAXAXAXAXAXAXAXAXAXAXAXAXAXAXAXAXAX3 K ^.@X@X+X@X@X@X%XK 7 ! Q Q Q A 7 7 E ( Q ~.' ;.=.P.aXiXiXiXW.K.{ o   AXAXAXAX",
"AXAXAXAXAXAXAXAXAXAXAXAXAXAXAXAXAXAXAXAXAXAXAXAX3 _ +X@X@X@X@X%X@X^.7 7 ! E Q ! A 7 7 A J J W ~ | | } L., c I.] 2XjX$   AXAXAXAX",
"AXAXAXAXAXAXAXAXAXAXAXAXAXAXAXAXAXAXAXAXAXAXAXAXA '.%X'.}.}.'.'.) K 3 7 ( W R T A 9 9 7 7 7 K Y K G P 3.% w t...gXBX$   AXAXAXAX",
"AXAXAXAXAXAXAXAXAXAXAXAXAXAXAXAXAXAXAXAXAXAX  < ! }.].K }.@XQ S 3 4 8 K ( ) T 8 C 7 C 9 Z Z 8 #     q ..:X5X9XBXBXlX$   AXAXAXAX",
"AXAXAXAXAXAXAXAXAXAXAXAXAXAXAXAXAXAXAXAXAXAX  $ W '.@X}.].E # # # Z 7 Z J J S Z Z Z C H 3 o AXAX  w [ y.<X8XlXBXmX1XAXAXAXAXAXAX",
"AXAXAXAXAXAXAXAXAXAXAXAXAXAXAXAXAXAXAXAXAXAX. # W '.@X+XE 6   . # Z Z Z 7 8 7 7 7 7 4 3 #   AXAXq ..>X1X8XjXMXBX6X] AXAXAXAXAXAX",
"AXAXAXAXAXAXAXAXAXAXAXAXAXAXAXAXAXAXAXAXAXAX  $ W ].}.W $   o . # 3 C H C 3 3 3 8 2         ` y.5X:X2X9XlXNXBXBXX.  AXAXAXAXAXAX",
"AXAXAXAXAXAXAXAXAXAXAXAXAXAXAXAXAXAXAXAXAXAXAXAXA (.(.~.<         o q y r C.b.    # {  .....y.y.:X2X8XlXNXBXBX1X` AXAXAXAXAXAXAX",
"AXAXAXAXAXAXAXAXAXAXAXAXAXAXAXAXAXAXAXAXAXAXAXAX: | ,Xj.> . & * & + y +.t Z.v.- q s y.<X1X1X1X2X<X8XlXMXBXmX6X..AXAXAXAXAXAXAXAX",
"AXAXAXAXAXAXAXAXAXAXAXAXAXAXAXAXAXAXAXAXAXAXAXAX  z.G.G.,   O.t O.y @.@.$.{ o...>X<X>X:X:X:X5X8X6XlXNXBXBX,X  AXAXAXAXAXAXAXAXAX",
"AXAXAXAXAXAXAXAXAXAXAXAXAXAXAXAXAXAXAXAXAXAXAXAX  z.G.G.h r *.y t 0.7.7.+.u.2X3X8X9X1X5X5X1XhXlXhXBXBXBX' - AXAXAXAXAXAXAXAXAXAX",
"AXAXAXAXAXAXAXAXAXAXAXAXAXAXAXAXAXAXAXAXAXAXAXAX  B P.P.#.+.q.$.@.$.9.7.+.[  . .t.<XhXgXhXhXmXMXMXmXjXgX  AXAXAXAXAXAXAXAXAXAXAX",
"AXAXAXAXAXAXAXAXAXAXAXAXAXAXAXAXAXAXAXAXAXv b s   F _.-Xs +.7.q.%.r %.%.y .       s BXlXMXBXBXBXBX<X[ { AXAXAXAXAXAXAXAXAXAXAXAX",
"AXAXAXAXAXAXAXAXAXAXAXAXAXAXAXl v v l z b 4.w.1.  K /.(.1 = @.@.y + t t           ' BXBXBXBX9X>Xt.j.d.d.AXAXAXAXAXAXAXAXAXAXAXAX",
"AXAXAXAXAXAXAXAXAXAXAXAXAXAXAX<.<.j m <.<.j j a   6 K S @   e e *   = e = o       P hXjX9X6Xk. .' s.p.p.AXAXAXAXAXAXAXAXAXAXAXAX",
"AXAXAXAXAXAXAXAXAXAXb v v v n 4.4.4.4.e.-.                            & *.;     . + ] [ q   U a.s.s.s.s.s.s.s.AXAXAXAXAXAXAXAXAX",
"AXAXAX  $ b s l l z <.5.4.4.4.e.u + O O O   9 s.I I ^ I I I I / P   = @.9.=     6XvXhXq : s.s.s.s.s.s.s.s.s.s.s.AXAXAXAXAXAXAXAX",
"AXAXAXi m 2.3.1.m n 2.5.a j a j %   4 4 0 0 I oXf.f.f.f.f.f.f.oXU   r $.r.= @ 9 ,X4XI.  : oXs.s.s.s.s.s.s.s.s.s.d.AXAXAXAXAXAXAX",
"AX  + S.S.Z.S.w.6.4.4.1.        AXAXoXg.g.g.d.p.s.s.s.s.s.s.s.g.U   t *.8.* 4 OX        0 g.s.s.s.s.s.s.s.s.s.s.s.AXAXAXAXAXAXAX",
"AX  o S.A.w.A.u + + + + AXAXAXAXAXAXAXd.s.s.s.s.s.s.s.s.s.s.f.0 & O.&.9.r.* : g./ ^ ^ I / s.s.s.s.s.s.s.s.s.s.AXAXAXAXAXAXAXAXAX",
"AX  . -.j u j ;         AXAXAXAXAXAXAXAXs.s.s.s.s.s.s.s.s.s.g.# * &.9.9.7.& : g.f.f.h.f.d.s.s.s.s.s.s.s.s.s.s.AXAXAXAXAXAXAXAXAX",
"AXAXAX        AXAXAXAXAXAXAXAXAXAXAXAXAXAXAXs.s.s.s.s.p.p.p.f.# = r.8.7.@.O : g.s.p.s.s.s.s.s.s.s.s.s.s.AXAXAXAXAXAXAXAXAXAXAXAX",
"AXAXAXAXAXAXAXAXAXAXAXAXAXAXAXAXAXAXAXAXAXAXAXAXAXAXAXAXs.s.h.: . & + + O P p.s.s.s.s.s.s.s.AXAXAXAXAXAXAXAXAXAXAXAXAXAXAXAXAXAX",
"AXAXAXAXAXAXAXAXAXAXAXAXAXAXAXAXAXAXAXAXAXAXAXAXAXAXAXAXs.s.h.>           / oXp.s.s.s.s.s.s.AXAXAXAXAXAXAXAXAXAXAXAXAXAXAXAXAXAX",
"AXAXAXAXAXAXAXAXAXAXAXAXAXAXAXAXAXAXAXAXAXAXAXAXAXAXAXAXAXAXAXAXAXAXAXAXAXAXAXAXAXAXAXAXAXAXAXAXAXAXAXAXAXAXAXAXAXAXAXAXAXAXAXAX",
"AXAXAXAXAXAXAXAXAXAXAXAXAXAXAXAXAXAXAXAXAXAXAXAXAXAXAXAXAXAXAXAXAXAXAXAXAXAXAXAXAXAXAXAXAXAXAXAXAXAXAXAXAXAXAXAXAXAXAXAXAXAXAXAX",
"AXAXAXAXAXAXAXAXAXAXAXAXAXAXAXAXAXAXAXAXAXAXAXAXAXAXAXAXAXAXAXAXAXAXAXAXAXAXAXAXAXAXAXAXAXAXAXAXAXAXAXAXAXAXAXAXAXAXAXAXAXAXAXAX",
"AXAXAXAXAXAXAXAXAXAXAXAXAXAXAXAXAXAXAXAXAXAXAXAXAXAXAXAXAXAXAXAXAXAXAXAXAXAXAXAXAXAXAXAXAXAXAXAXAXAXAXAXAXAXAXAXAXAXAXAXAXAXAXAX",
"AXAXAXAXAXAXAXAXAXAXAXAXAXAXAXAXAXAXAXAXAXAXAXAXAXAXAXAXAXAXAXAXAXAXAXAXAXAXAXAXAXAXAXAXAXAXAXAXAXAXAXAXAXAXAXAXAXAXAXAXAXAXAXAX",
"AXAXAXAXAXAXAXAXAXAXAXAXAXAXAXAXAXAXAXAXAXAXAXAXAXAXAXAXAXAXAXAXAXAXAXAXAXAXAXAXAXAXAXAXAXAXAXAXAXAXAXAXAXAXAXAXAXAXAXAXAXAXAXAX",
"AXAXAXAXAXAXAXAXAXAXAXAXAXAXAXAXAXAXAXAXAXAXAXAXAXAXAXAXAXAXAXAXAXAXAXAXAXAXAXAXAXAXAXAXAXAXAXAXAXAXAXAXAXAXAXAXAXAXAXAXAXAXAXAX",
"AXAXAXAXAXAXAXAXAXAXAXAXAXAXAXAXAXAXAXAXAXAXAXAXAXAXAXAXAXAXAXAXAXAXAXAXAXAXAXAXAXAXAXAXAXAXAXAXAXAXAXAXAXAXAXAXAXAXAXAXAXAXAXAX",
"AXAXAXAXAXAXAXAXAXAXAXAXAXAXAXAXAXAXAXAXAXAXAXAXAXAXAXAXAXAXAXAXAXAXAXAXAXAXAXAXAXAXAXAXAXAXAXAXAXAXAXAXAXAXAXAXAXAXAXAXAXAXAXAX",
"AXAXAXAXAXAXAXAXAXAXAXAXAXAXAXAXAXAXAXAXAXAXAXAXAXAXAXAXAXAXAXAXAXAXAXAXAXAXAXAXAXAXAXAXAXAXAXAXAXAXAXAXAXAXAXAXAXAXAXAXAXAXAXAX"
};
