/* XPM */
static char *result[] = {
/* columns rows colors chars-per-pixel */
"64 64 230 2 ",
"   c #010001",
".  c #0A0302",
"X  c #01030A",
"o  c #010A0D",
"O  c #0A0B0B",
"+  c #0D0905",
"@  c #150705",
"#  c #181005",
"$  c #020E19",
"%  c #010814",
"&  c #041414",
"*  c #08171A",
"=  c #17191A",
"-  c #091010",
";  c #250B06",
":  c #38090A",
">  c #251702",
",  c #361506",
"<  c #231F13",
"1  c #09201D",
"2  c #2B2616",
"3  c #323015",
"4  c #000A20",
"5  c #051A25",
"6  c #021035",
"7  c #012424",
"8  c #0B2A2E",
"9  c #00282C",
"0  c #152E24",
"q  c #09322B",
"w  c #163024",
"e  c #062937",
"r  c #122B31",
"t  c #0C343A",
"y  c #08363B",
"u  c #16313C",
"i  c #2B2727",
"p  c #342E29",
"a  c #263935",
"s  c #363434",
"d  c #353729",
"f  c #4E1008",
"g  c #64160C",
"h  c #771912",
"j  c #76170E",
"k  c #593603",
"l  c #45331C",
"z  c #512D0D",
"x  c #643604",
"c  c #733707",
"v  c #7D2018",
"b  c #6B2605",
"n  c #463D31",
"m  c #613B25",
"M  c #3E4519",
"N  c #16423B",
"B  c #2A473C",
"V  c #2E422D",
"C  c #54460F",
"Z  c #6A4703",
"A  c #774B00",
"S  c #694819",
"D  c #775617",
"F  c #7B5003",
"G  c #574B32",
"H  c #64462C",
"J  c #734A29",
"K  c #775424",
"L  c #6D6D28",
"P  c #093A47",
"I  c #113B44",
"U  c #163D49",
"Y  c #063B53",
"T  c #113D5C",
"R  c #13414B",
"E  c #0D4153",
"W  c #144451",
"Q  c #1B475B",
"!  c #165049",
"~  c #294C42",
"^  c #234B5A",
"/  c #2D5752",
"(  c #326E5B",
")  c #2F6E5C",
"_  c #0B4866",
"`  c #1A4D65",
"'  c #165678",
"]  c #16506C",
"[  c #214D61",
"{  c #225265",
"}  c #24546B",
"|  c #29596C",
" . c #2A5A73",
".. c #285B76",
"X. c #325862",
"o. c #2E627C",
"O. c #366679",
"+. c #3A7D67",
"@. c #4C4443",
"#. c #584D4B",
"$. c #53564D",
"%. c #68595A",
"&. c #634F4F",
"*. c #4C624A",
"=. c #576857",
"-. c #6A6E51",
";. c #516B65",
":. c #7D6D6D",
">. c #766767",
",. c #7E7575",
"<. c #841E15",
"1. c #8B2216",
"2. c #932917",
"3. c #A82A18",
"4. c #B0331C",
"5. c #A03127",
"6. c #C83A1E",
"7. c #DB3B11",
"8. c #D23F20",
"9. c #9C581C",
"0. c #8B570D",
"q. c #A0581A",
"w. c #946717",
"e. c #8D630C",
"r. c #AF7311",
"t. c #8C592D",
"y. c #A85D20",
"u. c #8F6F2F",
"i. c #B76923",
"p. c #A86D27",
"a. c #E84616",
"s. c #FF5913",
"d. c #EF4F10",
"f. c #FF6713",
"g. c #C57324",
"h. c #EB4C25",
"j. c #897878",
"k. c #836D6D",
"l. c #3F856E",
"z. c #408870",
"x. c #46957B",
"c. c #47987D",
"v. c #47977C",
"b. c #40876F",
"n. c #B88612",
"m. c #9A8032",
"M. c #B88625",
"N. c #B28E32",
"B. c #A0AF22",
"V. c #C98B04",
"C. c #C99717",
"Z. c #CF9413",
"A. c #DAAB1A",
"S. c #F6BC17",
"D. c #E7AC1B",
"F. c #CA982F",
"G. c #E89229",
"H. c #EABA23",
"J. c #F5AF2C",
"K. c #D6AE26",
"L. c #FDC81C",
"P. c #F7C725",
"I. c #FFDE3A",
"U. c #F0CA35",
"Y. c #EADA1F",
"T. c #9C8A51",
"R. c #AE9756",
"E. c #BEA859",
"W. c #A2A361",
"Q. c #9CBA6B",
"!. c #D8BA4A",
"~. c #D0B057",
"^. c #FADA48",
"/. c #E7CA4C",
"(. c #FFE354",
"). c #E3D375",
"_. c #FFFE71",
"`. c #C7C94D",
"'. c #205F93",
"]. c #376A84",
"[. c #326E8A",
"{. c #135487",
"}. c #4A7487",
"|. c #457C94",
" X c #497F96",
".X c #416C83",
"XX c #499C81",
"oX c #4C839C",
"OX c #5C8B9B",
"+X c #6D8E87",
"@X c #52AD8D",
"#X c #4FA98C",
"$X c #528AA2",
"%X c #5790A8",
"&X c #5A91A8",
"*X c #5898B5",
"=X c #4C89A5",
"-X c #629EB8",
";X c #6AABC9",
":X c #9B8A8A",
">X c #948585",
",X c #A39393",
"<X c #A99797",
"1X c #AB9796",
"2X c #BBAAAA",
"3X c #B1A1A1",
"4X c #B2AAAA",
"5X c #C1B0B0",
"6X c #FDFE98",
"7X c #FDF784",
"8X c #D5C8A8",
"9X c #FEFFAB",
"0X c #FFFAA7",
"qX c #FFFAB9",
"wX c #85B6C8",
"eX c #9FC8DB",
"rX c #A7CEDB",
"tX c #D9C6C6",
"yX c #DAC8C8",
"uX c #DBD3D3",
"iX c #E2D4D4",
"pX c #E1CECE",
"aX c #FFFFC5",
"sX c #FEF6D3",
"dX c #E3E2E2",
"fX c #F5ECEC",
"gX c #FDF5F3",
"hX c #FEFEFE",
"jX c #F9F6F4",
"kX c #489848",
/* pixels */
"kXkXkXkXkXkXkXkXkXkXkXkXkXkXkXkXkXkXkXkXkXkXkXkXkXkXkXkXkXkXkXkXkXkXkXkXkXkXkXkXkXkXkXkXkXkXkXkXkXkXkXkXkXkXkXkXkXkXkXkXkXkXkXkX",
"kXkXkXkXkXkXkXkXkXkXkXkXkXkXkXkXkXkXkXkXkXkXkXkXkXkXkXkXkXkXkXkXkXkXkXkXkXkXkXkXkXkXkXkXkXkXkXkXkXkXkXkXkXkXkXkXkXkXkXkXkXkXkXkX",
"kXkXkXkXkXkXkXkXkXkXkXkXkXkXkXkXkXkXkXkXkXkXkXkXkXkXkXkXkXkXkXkXkXkXkXkXkXkXkXkXkXkXkXkXkXkXkXkXkXkXkXkXkXkXkXkXkXkXkXkXkXkXkXkX",
"kXkXkXkXkXkXkXkXkXkXkXkXkXkXkXkXkXkXkXkXkXkXkXkXkXkXkXkXkXkXkXkXkXkXkXkXkXkXkXkXkXkXkXkXkXkXkXkXkXkXkXkXkXkXkXkXkXkXkXkXkXkXkXkX",
"kXkXkXkXkXkXkXkXkXkXkXkXkXkXkXkXkXkXkXkXkXkXkXkXkXkXkXkXkXkXkXkXkXkXkXkXkXkXkXkXkXkXkXkXkXkXkXkXkXkXkXkXkXkXkXkXkXkXkXkXkXkXkXkX",
"kXkXkXkXkXkXkXkXkXkXkXkXkXkXkXkXkXkXkXkXkXkXkXkXkXkXkXkXkXkXkXkXkXkXkXkXkXkXkXkXkXkXkXkXkXkXkXkXkXkXkXkXkXkXkXkXkXkXkXkXkXkXkXkX",
"kXkXkXkXkXkXkXkXkXkXkXkXkXkXkXkXkXkXkXkXkXkXkXkXkXkXkXkXkXkXkXkXkXkXkXkXkXkXkXkXkXkXkXkXkXkXkXkXkXkXkXkXkXkXkXkXkXkXkXkXkXkXkXkX",
"kXkXkXkXkXkXkXkXkXkXkXkXkXkXkXkXkXkXkXkXkXkXkXkXkXkXkXkXkXkXkXkXkXkXkXkXkXkXkXkXkXkXkXkXkXkXkXkXkXkXkXkXkXkXkXkXkXkXkXkXkXkXkXkX",
"kXkXkXkXkXkXkXkXkXkXkXkXkXkXkXkXkXkXkXkXkXkXkXkXkXkXkXkXkXkXkXkXkXkXkXkXkXkXkXkXkXkXkXkXkXkXkXkXkXkXkXkXkXkXkXkXkXkXkXkXkXkXkXkX",
"kXkXkXkXkXkXkXkXkXkXkXkXkXkXkXkXkXkXkXkXkXkXkXkXkXkXkXkXkXkXkXkXkXkXkXkXkXkXkXkXkXkXkXkXkXkXkXkXkXkXkXkXkXkXkXkXkXkXkXkXkXkXkXkX",
"kXkXkXkXkXkXkXkXkXkXkXkXkXkXkXkXkXkXkXkXkXkXkXkXkXkXkXkXkXkXkXkXkXkXkXkXkXkXkXkXkXkXkXkXkXkXkXkXkXkXkXkXkXkXkXkXkXkXkXkXkXkXkXkX",
"kXkXkXkXkXkXkXkXkXkXkXkXkXkXkXkXkXkXkXkXkXkXkXkXkXkXkXkXkXkXkXkXkXkXkXkXkXkXkXkXkXkXkXkXkXkXkXkXkXkXkXkXkXkXkXkXkXkXkXkXkXkXkXkX",
"kXkXkXkXkXkXkXkXkXkXkXkXkXkXkXkXkXkXkXkXkXkXkXkXkXkXkXkXkXkXkXkXkXkXkXkXkXkXkXkXkXkXkXkXkXkXkXkXkXkXkXkXkXkXkXkXkXkXkXkXkXkXkXkX",
"kXkXkXkXkXkXkXkXkXkXkXkXkXkXkXkXkXkXkXkXkXA x k kXkXkXkXkXkXkXkXkXkXkXkXkXkXkXkXkXkXkXkXkXkXkXkXkXkXkXkXkXkXkXkXkXkXkXkXkXkXkXkX",
"kXkXkXkXkXkXkXkXkXkXkXkXkXkXkXkXkXkXkXkXA e.m.m.M.kXkXkXkXkXkXkXkXkXkXkXkXkXkXkXkXkXkXkXkXkXkXkXkXkXkXkXkXkXkXkXkXkXkXkXkXkXkXkX",
"kXkXkXkXkXkXkXkXkXkXkXkXkXkXkXkXkXkXkXkXx u.9X9XJ.e.D kXkXkXkXkXkXkXkXkXkXkXkXkXkXkXkXkXkXkXkXkXkXkXkXkXkXkXkXkXkXkXkXkXkXkXkXkX",
"kXkXkXkXkXkXkXkXkXkXkXkXkXkXkXkXkXA Z A > X = K.S./.9X9XF.0.Z kXkXkXkXkXkXkXkXkXkXkXkXkXkXkXkXkXkXkXkXkXkXkXkXkXkXkXkXkXkXkXkXkX",
"kXkXkXkXkXkXkXkXkXkXkXkXkXkXkXkXF r.C.A.n.z   A.L.P.^.^.M.V.e.X 7 kXkXkXkXkXkXkXkXkXkXkXkXkXkXkXkXkXkXkXkXkXkXkXkXkXkXkXkXkXkXkX",
"kXkXkXkXkXkXkXkXkXkXkXkXkXkXkX0.r.K.S.L.S.n.Z n.Z.Z.V.V.V.^.!.> R y kXkXkXkXkXkXkXkXkXkXkXkXkXkXkXkXkXkXkXkXkXkXkXkXkXkXkXkXkXkX",
"kXkXkXkXkXkXkXkXkXkXkXkXkX= Z r.A.P.U.U.U.I.I.k w.F.F.N.H._.).A O.E q kXkXkXkXkXkXkXkXkXkXkXkXkXkXkXkXkXkXkXkXkXkXkXkXkXkXkXkXkX",
"kXkXkXkXkXkXkXkXkXkXkXkX* o.p.r.C.P.6X6X6X6X6X  W.9X6X6X9X(.V.Z &X{ 9 q kXkXkXkXkXkXkXkXkXkXkXkXkXkXkXkXkXkXkXkXkXkXkXkXkXkXkXkX",
"kXkXkXkXkXkXkXkXkXkX  r } R S._.0X7X2 2 2 2 2 7 N B B B ~ V V O.;Xa X w w.C kXkXkXkXkXkXkXkXkXkXkXkXkXkXkXkXkXkXkXkXkXkXkXkXkXkX",
"kXkXkXkXkXkXkXkXkX. u Q Q y C L -.G $ % % o $ 9 _ ' _ _ _ ' {.Q e   & OX8Xu.kXkXkXkXkXkXkXkXkXkXkXkXkXkXkXkXkXkXkXkXkXkXkXkXkXkX",
"kXkXkXkXkXkXkXkXkX. ^ [ t I X     X W { | { R & +XrXeXeXeXeX+X& l %.}.;XhXR.kXkXkXkXkXkXkXkXkXkXkXkXkXkXkXkXkXkXkXkXkXkXkXkXkXkX",
"kXkXkXkXkXkXkXkXkXO 8 I I t O r W W ..$X-X=X .X R.sXgXgXgXsXR.  9XhXeX$XhXT.kXkXkXkXkXkXkXkXkXkXkXkXkXkXkXkXkXkXkXkXkXkXkXkXkXkX",
"kXkXkXkXkXkXkXkXO t I I r o 8 Q ..} $X$X$X$X$X].=   # O O . X - hXG 5 wXqXd kXkXkXkXkXkXkXkXkXkXkXkXkXkXkXkXkXkXkXkXkXkXkXkXkXkX",
"kXkXkXkXkXkXkXkXo U I I 8 . Q | ].$X$X$X$X X .| Q e $ 9 U T Y Q ;XOX| ^ n kXkXkXkXkXkXkXkXkXkXkXkXkXkXkXkXkXkXkXkXkXG   kXkXkXkX",
"kXkXkXkXkXkXkXkXO 5 e Y e . | ....|.$X$X%X XO.].|.].| I _ ;.-.*.T ..W     kXkXkXkXkXkXkXkXkXkXkXkXkXkXkXkXkXkXkXkX>X3XX kXkXkXkX",
"kXkXkXkXkXkXkXkXkX  V *.d . Q  .} | $X XoX$X%X%X$X-X$XI e G F.R.$.X.a > d kXkXkXkXkXkXkXkXkXkXkXkXkXkXkXkXkXkX:.>.uXhX  kXkXkXkX",
"kXkXkXkXkXkXkXkXkXX C.L.e.X 8 {  ...$X .].%X$X$X$X$XoX .e M ~.aXhXhX8Xm.qXp kXkXkXkXkXkXkXkXkXkXkXkXkXkX>.>.,X2XjXhX2X  kXkXkXkX",
"kXkXkXkXkXkXkXkXkXkX> w w   8 } o. .o.U O.*X$XoXoXoX$XoXy E ;.N.qXsXaX0X7X2 kXkXkXkXkXkXkXkXkXkXkXkX  n j.:X2XtXhXfX:XkXkXkXkXkX",
"kXkXkXkXkXkXkXkXkXkX  5 P 9 t U [ o...- U =X&X$X$X$X$X&XR y W =.E.~.T.G p kXkXkXkXkXkXkXkXkX  X = k.%.>.:X2XuXfXhX4Xs kXkXkXkXkX",
"kXkXkXkXkXkXkXkXkXkXkX= 8 7 y t I { { * * [  X$X$X$X%X%Xr 1 E ] C S # .   kXkXkXkXkXkXkXkXkXs s @.j.1X,X2XuXfXhXfX#.  kXkXkXkXkX",
"kXkXkXkXkXkXkXkXkXkXkXkX  . 7 y t t t W & . .. X$XoXoXoX= * t 8 X   X > kXkXh j v kX= - i k.1X3X1X,X:X2XiXgXhXiX>XkXkXkXkXkXkXkX",
"kXkXkXkXkXkXkXkXkXkXkXkXkXkX. 7 P I I U * O W { oX|.Q t R * . o kXkXkXh <.g 1.3.5.>.%.k.:X>X>Xj.,X5X2XyXfXhXhX- kXkXkXkXkXkXkXkX",
"kXkXkXkXkXkXkXkXkXkXkXkXkXkXkXX $ e I W y 5 - Q oX%X|..X{.6     kXkX3.4.f 4.d.7.5.,X,X5XtX3X3X1X5XpXtXhXhXdXs kXkXkXkXkXkXkXkXkX",
"kXkXkXkXkXkXkXkXkXkXkXkXkXkXkXx D L 4 4 5 & . { [.|.*X*XQ.B.L 9   f 6.h.4.3.a.a.h @.@.#.,.yXtXuXfXhXhXuX5X,.kXkXkXkXkXkXkXkXkXkX",
"kXkXkXkXkXkXkXkXkXkXkXkXkXkXkXZ.P.S.z , #   O Q ` ].oX}.H.Y.`.'.u : <.8.8.f 1.4.:       = hXfXhXhXdXiX1X%.%.kXkXkXkXkXkXkXkXkXkX",
"kXkXkXkXkXkXkXkXkXkXkXkXkXkXZ C.L.H.P.D.k   O 8 { {.^ S m m #.*X-X9 @ j g   : f     kXkXs hXhXjXuXk.#.kXkXkXkXkXkXkXkXkXkXkXkXkX",
"kXkXkXkXkXkXkXkXkXkXkXkX# e.A.H.P.H.C.r.> X H G H G J i.i.9.$.[.[.5   . .   X : 1.  kXkX= j.j.p i kXkXkXkXkXkXkXkXkXkXkXkXkXkXkX",
"kXkXkXkXkXkXkXkXkXkXkXkX+ # C.A.Z.C.K S l l y.i.i.i.y., , ; + $ 5 kXkXkXkX  @ 1.a.  kXkXkXkXkXkXkXkXkXkXkXkXkXkXkXkXkXkXkXkXkXkX",
"kXkXkXkXkXkXkXkXkXkXkXN   - K w.w.w.J t.t.p.i.c x c z   * q 0 w i kXkXkXkX  : 7.s.. kXkXkXkXkXkXkXkXkXkXkXkXkXkXkXkXkXkXkXkXkXkX",
"kXkXkXkXkXkXkXkXl.z.l.V , u.J J n J i.q.9.9.t.X o X o - l.#XXXXXXXkXkXkXkX+ v a.d.. kXkXkXkXkXkXkXkXkXkXkXkXkXkXkXkXkXkXkXkXkXkX",
"kXkXkXkXkXz.z.z.l.c.o x J.G.G.g.y.i.i.#       +.c.z.z.z.l.l.l.l.z.l.x.(   h a.s.a.. kXkXkXkXkXkXkXkXkXkXkXkXkXkXkXkXkXkXkXkXkXkX",
"kXkXkXkXz.b.z.z.b.x.  c J.g.G.k @ @ @ / +.( ( l.z.z.z.x.z.z.b.z.l.z.x.)   a.f.s.3.. kXkXkXkXkXkXkXkXkXkXkXkXkXkXkXkXkXkXkXkXkXkX",
"kXkXkXkXz.z.z.z.l.x./ d x , f   X ! N l.c.x.c.z.b.z.z.z.z.l.z.z.z.z.x.(   b b g : kXkXkXkXkXkXkXkXkXkXkXkXkXkXkXkXkXkXkXkXkXkXkX",
"kXkXkXkXz.z.l.z.b.b.@X! * 5 & 1 B @XXXz.l.z.z.z.z.z.z.z.z.z.b.z.z.z.c.(           kXkXkXkXkXkXkXkXkXkXkXkXkXkXkXkXkXkXkXkXkXkXkX",
"kXkXkXkXkXz.z.z.z.z.b.x.c.c.v.v.x.l.z.z.z.z.z.z.z.l.z.z.z.z.z.z.z.z.z.x.kXkXkXkXkXkXkXkXkXkXkXkXkXkXkXkXkXkXkXkXkXkXkXkXkXkXkXkX",
"kXkXkXkXkXkXkXkXz.z.z.z.z.z.b.z.z.z.z.z.z.z.b.z.z.z.l.z.z.z.z.z.z.kXkXkXkXkXkXkXkXkXkXkXkXkXkXkXkXkXkXkXkXkXkXkXkXkXkXkXkXkXkXkX",
"kXkXkXkXkXkXkXkXkXkXkXkXkXz.z.z.b.z.z.l.z.z.z.z.z.b.z.z.kXkXkXkXkXkXkXkXkXkXkXkXkXkXkXkXkXkXkXkXkXkXkXkXkXkXkXkXkXkXkXkXkXkXkXkX",
"kXkXkXkXkXkXkXkXkXkXkXkXkXz.b.z.z.z.z.z.z.z.z.z.z.z.z.z.kXkXkXkXkXkXkXkXkXkXkXkXkXkXkXkXkXkXkXkXkXkXkXkXkXkXkXkXkXkXkXkXkXkXkXkX",
"kXkXkXkXkXkXkXkXkXkXkXkXkXkXkXkXkXkXkXkXkXkXkXkXkXkXkXkXkXkXkXkXkXkXkXkXkXkXkXkXkXkXkXkXkXkXkXkXkXkXkXkXkXkXkXkXkXkXkXkXkXkXkXkX",
"kXkXkXkXkXkXkXkXkXkXkXkXkXkXkXkXkXkXkXkXkXkXkXkXkXkXkXkXkXkXkXkXkXkXkXkXkXkXkXkXkXkXkXkXkXkXkXkXkXkXkXkXkXkXkXkXkXkXkXkXkXkXkXkX",
"kXkXkXkXkXkXkXkXkXkXkXkXkXkXkXkXkXkXkXkXkXkXkXkXkXkXkXkXkXkXkXkXkXkXkXkXkXkXkXkXkXkXkXkXkXkXkXkXkXkXkXkXkXkXkXkXkXkXkXkXkXkXkXkX",
"kXkXkXkXkXkXkXkXkXkXkXkXkXkXkXkXkXkXkXkXkXkXkXkXkXkXkXkXkXkXkXkXkXkXkXkXkXkXkXkXkXkXkXkXkXkXkXkXkXkXkXkXkXkXkXkXkXkXkXkXkXkXkXkX",
"kXkXkXkXkXkXkXkXkXkXkXkXkXkXkXkXkXkXkXkXkXkXkXkXkXkXkXkXkXkXkXkXkXkXkXkXkXkXkXkXkXkXkXkXkXkXkXkXkXkXkXkXkXkXkXkXkXkXkXkXkXkXkXkX",
"kXkXkXkXkXkXkXkXkXkXkXkXkXkXkXkXkXkXkXkXkXkXkXkXkXkXkXkXkXkXkXkXkXkXkXkXkXkXkXkXkXkXkXkXkXkXkXkXkXkXkXkXkXkXkXkXkXkXkXkXkXkXkXkX",
"kXkXkXkXkXkXkXkXkXkXkXkXkXkXkXkXkXkXkXkXkXkXkXkXkXkXkXkXkXkXkXkXkXkXkXkXkXkXkXkXkXkXkXkXkXkXkXkXkXkXkXkXkXkXkXkXkXkXkXkXkXkXkXkX",
"kXkXkXkXkXkXkXkXkXkXkXkXkXkXkXkXkXkXkXkXkXkXkXkXkXkXkXkXkXkXkXkXkXkXkXkXkXkXkXkXkXkXkXkXkXkXkXkXkXkXkXkXkXkXkXkXkXkXkXkXkXkXkXkX",
"kXkXkXkXkXkXkXkXkXkXkXkXkXkXkXkXkXkXkXkXkXkXkXkXkXkXkXkXkXkXkXkXkXkXkXkXkXkXkXkXkXkXkXkXkXkXkXkXkXkXkXkXkXkXkXkXkXkXkXkXkXkXkXkX",
"kXkXkXkXkXkXkXkXkXkXkXkXkXkXkXkXkXkXkXkXkXkXkXkXkXkXkXkXkXkXkXkXkXkXkXkXkXkXkXkXkXkXkXkXkXkXkXkXkXkXkXkXkXkXkXkXkXkXkXkXkXkXkXkX",
"kXkXkXkXkXkXkXkXkXkXkXkXkXkXkXkXkXkXkXkXkXkXkXkXkXkXkXkXkXkXkXkXkXkXkXkXkXkXkXkXkXkXkXkXkXkXkXkXkXkXkXkXkXkXkXkXkXkXkXkXkXkXkXkX",
"kXkXkXkXkXkXkXkXkXkXkXkXkXkXkXkXkXkXkXkXkXkXkXkXkXkXkXkXkXkXkXkXkXkXkXkXkXkXkXkXkXkXkXkXkXkXkXkXkXkXkXkXkXkXkXkXkXkXkXkXkXkXkXkX",
"kXkXkXkXkXkXkXkXkXkXkXkXkXkXkXkXkXkXkXkXkXkXkXkXkXkXkXkXkXkXkXkXkXkXkXkXkXkXkXkXkXkXkXkXkXkXkXkXkXkXkXkXkXkXkXkXkXkXkXkXkXkXkXkX"
};
